<?xml version="1.0" encoding="UTF-8" standalone="no"?>
<svg
   xmlns:dc="http://purl.org/dc/elements/1.1/"
   xmlns:cc="http://creativecommons.org/ns#"
   xmlns:rdf="http://www.w3.org/1999/02/22-rdf-syntax-ns#"
   xmlns:svg="http://www.w3.org/2000/svg"
   xmlns="http://www.w3.org/2000/svg"
   viewBox="0 0 281.25 312.20499"
   height="312.20499"
   width="281.25"
   xml:space="preserve"
   version="1.1"
   id="svg2"><metadata
     id="metadata8"><rdf:RDF><cc:Work
         rdf:about=""><dc:format>image/svg+xml</dc:format><dc:type
           rdf:resource="http://purl.org/dc/dcmitype/StillImage" /></cc:Work></rdf:RDF></metadata><defs
     id="defs6"><clipPath
       id="clipPath20"
       clipPathUnits="userSpaceOnUse"><path
         id="path22"
         d="m 0,0 225,0 0,249.764 -225,0 L 0,0 Z" /></clipPath><clipPath
       id="clipPath40"
       clipPathUnits="userSpaceOnUse"><path
         id="path42"
         d="m 0,0 225,0 0,249.764 -225,0 L 0,0 Z" /></clipPath><clipPath
       id="clipPath64"
       clipPathUnits="userSpaceOnUse"><path
         id="path66"
         d="m 0,249.764 225,0 L 225,0 0,0 0,249.764 Z" /></clipPath><clipPath
       id="clipPath224"
       clipPathUnits="userSpaceOnUse"><path
         id="path226"
         d="m 120.296,110.461 5.334,0 0,-5.427 -5.334,0 0,5.427 z" /></clipPath></defs><g
     transform="matrix(1.25,0,0,-1.25,0,312.205)"
     id="g10"><g
       transform="translate(1.449,45.846)"
       id="g12"><path
         id="path14"
         style="fill:#f5f5f5;fill-opacity:1;fill-rule:nonzero;stroke:none"
         d="M 0,0 166.043,-45.469 220.074,150.89 56.008,198.332 0,0 Z" /></g><g
       id="g16"><g
         clip-path="url(#clipPath20)"
         id="g18"><g
           transform="translate(57.457,244.1777)"
           id="g24"><path
             id="path26"
             style="fill:none;stroke:#100f0d;stroke-width:0.61000001;stroke-linecap:butt;stroke-linejoin:miter;stroke-miterlimit:10;stroke-dasharray:none;stroke-opacity:1"
             d="M 0,0 164.066,-47.441 110.035,-243.801 -56.008,-198.332 0,0 Z" /></g></g></g><g
       transform="translate(64.8442,228.7324)"
       id="g28"><path
         id="path30"
         style="fill:#f5f5f5;fill-opacity:1;fill-rule:nonzero;stroke:none"
         d="M 0,0 -40.489,-142.278 99.195,-183.539 141.894,-40.949 0,0 Z" /></g><g
       transform="translate(64.8442,228.7324)"
       id="g32"><path
         id="path34"
         style="fill:none;stroke:#000000;stroke-width:0.639;stroke-linecap:butt;stroke-linejoin:miter;stroke-miterlimit:4;stroke-dasharray:none;stroke-opacity:1"
         d="M 0,0 -40.489,-142.278 99.195,-183.539 141.894,-40.949 0,0 Z" /></g><g
       id="g36"><g
         clip-path="url(#clipPath40)"
         id="g38"><g
           transform="translate(0.3789,200.7554)"
           id="g44"><path
             id="path46"
             style="fill:none;stroke:#100f0d;stroke-width:0.61000001;stroke-linecap:butt;stroke-linejoin:miter;stroke-miterlimit:10;stroke-dasharray:none;stroke-opacity:1"
             d="M 0,0 163.723,48.629 224.234,-145.82 59.918,-197.183 0,0 Z" /></g></g></g><g
       transform="translate(0.3789,200.7558)"
       id="g48"><path
         id="path50"
         style="fill:#f5f5f5;fill-opacity:1;fill-rule:nonzero;stroke:none"
         d="M 0,0 59.918,-197.184 224.234,-145.821 163.723,48.629 0,0 Z" /></g><g
       transform="translate(15.8398,190.2441)"
       id="g52"><path
         id="path54"
         style="fill:#e8e7e5;fill-opacity:1;fill-rule:nonzero;stroke:none"
         d="M 0,0 139.629,42.929 183.102,-97.27 44.558,-141.066 0,0 Z" /></g><g
       transform="translate(15.8398,190.2441)"
       id="g56"><path
         id="path58"
         style="fill:none;stroke:#100f0d;stroke-width:0.49700001;stroke-linecap:butt;stroke-linejoin:miter;stroke-miterlimit:10;stroke-dasharray:none;stroke-opacity:1"
         d="M 0,0 139.629,42.929 183.102,-97.27 44.558,-141.066 0,0 Z" /></g><g
       id="g60"><g
         clip-path="url(#clipPath64)"
         id="g62"><g
           transform="translate(132.8525,83.2168)"
           id="g68"><path
             id="path70"
             style="fill:#cccbcb;fill-opacity:1;fill-rule:nonzero;stroke:none"
             d="m 0,0 c 0.96,-1.271 2.257,-1.463 3.652,-1.37 1.534,0.102 3.088,0.106 4.564,0.535 2.272,0.661 4.222,1.915 6.033,3.428 0.719,0.599 0.844,-1.282 1.187,-0.48 0.183,0.43 -0.852,-1.944 0,0 C 15.438,2.12 17.385,2.2 17.382,2.192 16.606,-0.655 13.729,-0.196 11.354,-1.619 9.365,-2.81 7.189,-3.464 4.884,-3.688 3.679,-3.805 2.47,-3.659 1.308,-3.188 0.207,-2.741 -0.168,-2.069 -0.033,-0.859 -0.002,-0.576 -0.01,-0.287 0,0" /></g><g
           transform="translate(136.3359,110.2568)"
           id="g72"><path
             id="path74"
             style="fill:#c0272d;fill-opacity:1;fill-rule:nonzero;stroke:none"
             d="m 0,0 c 2.279,0.942 4.613,1.662 7.094,1.823 1.213,0.079 1.956,-0.385 2.59,-1.512 1.439,-2.562 1.567,-5.469 2.429,-8.176 1.048,-3.288 1.908,-6.637 3.001,-9.908 0.486,-1.455 0.08,-2.413 -0.934,-3.37 -0.784,-0.739 -1.808,-1.201 -2.421,-2.128 -2.293,-1.129 -4.585,-2.26 -6.878,-3.39 -1.237,-0.235 -2.474,-0.478 -3.714,-0.698 -1.137,-0.203 -1.946,0.152 -2.661,1.16 -2.792,3.93 -5.538,7.91 -8.606,11.619 -1.052,1.272 -1.917,2.562 -2.724,3.965 -0.621,1.077 -0.345,1.889 0.339,2.729 1.28,1.575 2.883,2.788 4.577,3.852 1.731,1.088 3.458,2.207 5.369,2.982 0.51,-1.292 0.516,-2.644 0.479,-4.002 -1.712,-1.664 -4.115,-2.35 -5.903,-4.074 2.308,-0.133 10.64,3.871 13.243,6.363 C 4.417,-2.583 3.826,-3.068 3.17,-3.207 2.187,-3.415 1.232,-4.422 0.165,-3.405 0.11,-2.27 0.056,-1.135 0,0" /></g><g
           transform="translate(136.3359,110.2568)"
           id="g76"><path
             id="path78"
             style="fill:none;stroke:#000000;stroke-width:0.27399999;stroke-linecap:butt;stroke-linejoin:miter;stroke-miterlimit:10;stroke-dasharray:none;stroke-opacity:1"
             d="m 0,0 c 2.279,0.942 4.613,1.662 7.094,1.823 1.213,0.079 1.956,-0.385 2.59,-1.512 1.439,-2.562 1.567,-5.469 2.429,-8.176 1.048,-3.288 1.908,-6.637 3.001,-9.908 0.486,-1.455 0.08,-2.413 -0.934,-3.37 -0.784,-0.739 -1.808,-1.201 -2.421,-2.128 -2.293,-1.129 -4.585,-2.26 -6.878,-3.39 -1.237,-0.235 -2.474,-0.478 -3.714,-0.698 -1.137,-0.203 -1.946,0.152 -2.661,1.16 -2.792,3.93 -5.538,7.91 -8.606,11.619 -1.052,1.272 -1.917,2.562 -2.724,3.965 -0.621,1.077 -0.345,1.889 0.339,2.729 1.28,1.575 2.883,2.788 4.577,3.852 1.731,1.088 3.458,2.207 5.369,2.982 0.51,-1.292 0.516,-2.644 0.479,-4.002 -1.712,-1.664 -4.115,-2.35 -5.903,-4.074 2.308,-0.133 10.64,3.871 13.243,6.363 C 4.417,-2.583 3.826,-3.068 3.17,-3.207 2.187,-3.415 1.232,-4.422 0.165,-3.405 0.11,-2.27 0.056,-1.135 0,0 Z" /></g><g
           transform="translate(135.7949,107.0859)"
           id="g80"><path
             id="path82"
             style="fill:#252525;fill-opacity:1;fill-rule:nonzero;stroke:none"
             d="M 0,0 C 1.642,0.541 3.28,1.092 4.928,1.615 5.358,1.752 5.814,1.82 6.264,1.889 6.532,1.93 6.838,1.934 6.999,1.66 7.207,1.308 6.971,1.021 6.734,0.825 6.033,0.246 5.336,-0.35 4.574,-0.842 0.65,-3.38 -3.519,-5.417 -7.984,-6.813 c -0.661,-0.208 -1.663,-0.71 -2.019,-0.021 -0.43,0.835 0.65,1.257 1.228,1.689 1.642,1.234 3.386,2.314 5.255,3.18 0.41,0.19 0.807,0.446 1.295,0.317 0.063,-0.406 -0.248,-1.158 0.387,-1.091 0.774,0.08 1.604,0.484 1.848,1.381 C 0.124,-0.937 0.011,-0.455 0,0" /></g><g
           transform="translate(146.6514,131.1343)"
           id="g84"><path
             id="path86"
             style="fill:#69bc45;fill-opacity:1;fill-rule:nonzero;stroke:none"
             d="m 0,0 c 0.097,-0.479 -0.251,-0.76 -0.502,-1.068 -2.312,-2.834 -3.851,-6.03 -4.724,-9.588 -0.949,-3.865 -4.093,-6.134 -8.172,-6.042 -0.427,0.01 -0.816,-0.045 -1.158,-0.312 -0.071,0.109 -0.142,0.218 -0.214,0.327 -0.223,0.446 -0.369,0.961 -0.685,1.327 -1.149,1.327 -1.123,2.872 -0.672,4.358 1.044,3.44 2.629,6.563 5.842,8.546 2.508,1.548 5.279,2.289 8.181,2.465 C -1.431,0.054 -0.688,0.493 0,0" /></g><g
           transform="translate(121.1855,117.9814)"
           id="g88"><path
             id="path90"
             style="fill:#69bc45;fill-opacity:1;fill-rule:nonzero;stroke:none"
             d="m 0,0 c 6.575,1.439 13.672,-4.738 10.611,-11.507 -1.081,-2.39 2.459,-4.481 3.547,-2.074 C 18.708,-3.521 9.229,6.221 -1.092,3.962 -3.673,3.396 -2.581,-0.564 0,0" /></g><g
           transform="translate(79.2168,181.3467)"
           id="g92"><path
             id="path94"
             style="fill:#0973b9;fill-opacity:1;fill-rule:nonzero;stroke:none"
             d="m 0,0 c 0,0 -13.286,-45.976 34.984,-61.732 9.367,-3.058 24.191,13.803 11.102,45.506 C 39.405,-0.045 28.12,7.723 17.848,9.882 2.156,13.181 0,0 0,0" /></g><g
           transform="translate(101.8477,166.8018)"
           id="g96"><path
             id="path98"
             style="fill:#eff0ea;fill-opacity:1;fill-rule:nonzero;stroke:none"
             d="m 0,0 c 2.662,-5.399 1.229,-11.546 -3.201,-13.731 -4.429,-2.184 -10.179,0.422 -12.841,5.821 -2.662,5.399 -1.229,11.546 3.201,13.73 C -8.411,8.005 -2.662,5.399 0,0" /></g><g
           transform="translate(115.2129,175.3105)"
           id="g100"><path
             id="path102"
             style="fill:#eff0ea;fill-opacity:1;fill-rule:nonzero;stroke:none"
             d="m 0,0 c 2.831,-4.667 2.232,-10.206 -1.338,-12.373 -3.571,-2.166 -8.761,-0.14 -11.593,4.527 -2.831,4.667 -2.232,10.206 1.339,12.373 C -8.021,6.693 -2.832,4.667 0,0" /></g><g
           transform="translate(98.0225,164.9155)"
           id="g104"><path
             id="path106"
             style="fill:#1a9948;fill-opacity:1;fill-rule:nonzero;stroke:none"
             d="m 0,0 c 1.263,-2.561 0.66,-5.439 -1.348,-6.429 -2.007,-0.99 -4.658,0.283 -5.921,2.845 -1.263,2.561 -0.659,5.439 1.348,6.429 C -3.914,3.835 -1.263,2.561 0,0" /></g><g
           transform="translate(112.7832,173.3774)"
           id="g108"><path
             id="path110"
             style="fill:#1a9948;fill-opacity:1;fill-rule:nonzero;stroke:none"
             d="m 0,0 c 1.255,-2.545 0.785,-5.342 -1.049,-6.247 -1.834,-0.904 -4.338,0.426 -5.594,2.972 -1.254,2.545 -0.785,5.342 1.049,6.246 C -3.76,3.875 -1.255,2.545 0,0" /></g><g
           transform="translate(92.7485,162.3149)"
           id="g112"><path
             id="path114"
             style="fill:#14170f;fill-opacity:1;fill-rule:nonzero;stroke:none"
             d="M 0,0 C -0.684,1.386 -0.377,2.935 0.685,3.458 1.747,3.982 3.162,3.283 3.845,1.896 4.529,0.51 4.223,-1.039 3.161,-1.562 2.099,-2.086 0.684,-1.387 0,0" /></g><g
           transform="translate(107.7231,170.8633)"
           id="g116"><path
             id="path118"
             style="fill:#14170f;fill-opacity:1;fill-rule:nonzero;stroke:none"
             d="M 0,0 C -0.69,1.398 -0.373,2.964 0.708,3.497 1.789,4.03 3.225,3.329 3.914,1.93 4.604,0.532 4.287,-1.034 3.206,-1.567 2.125,-2.1 0.689,-1.398 0,0" /></g><g
           transform="translate(90.8481,163.7324)"
           id="g120"><path
             id="path122"
             style="fill:#ffffff;fill-opacity:1;fill-rule:nonzero;stroke:none"
             d="M 0,0 C -0.132,0.885 0.323,1.686 1.017,1.79 1.71,1.893 2.379,1.259 2.512,0.375 2.644,-0.51 2.188,-1.312 1.495,-1.415 0.801,-1.518 0.132,-0.885 0,0" /></g><g
           transform="translate(108.1113,173.2612)"
           id="g124"><path
             id="path126"
             style="fill:#ffffff;fill-opacity:1;fill-rule:nonzero;stroke:none"
             d="M 0,0 C 0.028,-0.773 -0.367,-1.415 -0.883,-1.433 -1.399,-1.452 -1.84,-0.841 -1.868,-0.068 -1.896,0.705 -1.5,1.347 -0.985,1.365 -0.469,1.384 -0.028,0.773 0,0" /></g><g
           transform="translate(107.6367,170.4648)"
           id="g128"><path
             id="path130"
             style="fill:#ffffff;fill-opacity:1;fill-rule:nonzero;stroke:none"
             d="m 0,0 c -0.134,-0.224 -0.396,-0.314 -0.586,-0.201 -0.19,0.114 -0.236,0.388 -0.102,0.612 0.134,0.224 0.396,0.314 0.586,0.2 C 0.088,0.498 0.134,0.224 0,0" /></g><g
           transform="translate(84.001,173.2046)"
           id="g132"><path
             id="path134"
             style="fill:#0973b9;fill-opacity:1;fill-rule:nonzero;stroke:none"
             d="M 0,0 C 0.533,1.27 0.63,2.763 1.383,3.935 2.829,6.185 5.105,4.569 6.468,3.194 6.753,2.906 7.198,3.352 6.913,3.64 5.679,4.885 3.885,6.41 2.035,5.424 0.16,4.425 0.119,1.898 -0.607,0.167 -0.763,-0.206 -0.154,-0.369 0,0" /></g><g
           transform="translate(85.6392,170.6875)"
           id="g136"><path
             id="path138"
             style="fill:#4a85a4;fill-opacity:1;fill-rule:nonzero;stroke:none"
             d="M 0,0 C 0.973,2.806 3.769,4.216 6.618,3.397 7.008,3.285 7.174,3.892 6.785,4.004 3.6,4.92 0.477,3.292 -0.607,0.167 -0.74,-0.216 -0.132,-0.381 0,0" /></g><g
           transform="translate(100.5205,177.7505)"
           id="g140"><path
             id="path142"
             style="fill:#4a85a4;fill-opacity:1;fill-rule:nonzero;stroke:none"
             d="M 0,0 C 1.492,2.469 3.82,4.833 6.982,4.105 7.376,4.015 7.544,4.622 7.149,4.713 3.713,5.504 1.107,3.05 -0.543,0.318 -0.753,-0.03 -0.209,-0.347 0,0" /></g><g
           transform="translate(92.666,151.46)"
           id="g144"><path
             id="path146"
             style="fill:#597d9f;fill-opacity:1;fill-rule:nonzero;stroke:none"
             d="m 0,0 c 2.528,0.787 5.104,1.144 7.75,1.072 0.405,-0.01 0.405,0.619 0,0.63 C 5.042,1.775 2.419,1.413 -0.167,0.607 -0.553,0.487 -0.389,-0.121 0,0" /></g><g
           transform="translate(113.7002,160.8164)"
           id="g148"><path
             id="path150"
             style="fill:#597d9f;fill-opacity:1;fill-rule:nonzero;stroke:none"
             d="M 0,0 C 0.893,2.169 2.463,3.919 4.505,5.067 4.857,5.266 4.541,5.81 4.187,5.611 1.992,4.376 0.35,2.493 -0.606,0.167 -0.761,-0.207 -0.152,-0.37 0,0" /></g><g
           transform="translate(119.3594,156.9878)"
           id="g152"><path
             id="path154"
             style="fill:#a5897a;fill-opacity:1;fill-rule:nonzero;stroke:none"
             d="m 0,0 c 0.292,-4.313 -0.796,-8.642 -4.26,-11.479 -3.666,-3.002 -8.716,-3.049 -12.211,0.271 -0.484,0.458 -1.218,-0.273 -0.733,-0.733 3.391,-3.22 8.286,-3.766 12.3,-1.304 4.598,2.821 6.29,8.088 5.94,13.245 C 0.991,0.662 -0.046,0.667 0,0" /></g><g
           transform="translate(101.9199,147.5649)"
           id="g156"><path
             id="path158"
             style="fill:#a5897a;fill-opacity:1;fill-rule:nonzero;stroke:none"
             d="m 0,0 c -0.203,-1.399 -1.17,-2.518 -2.549,-2.867 -0.646,-0.163 -0.372,-1.162 0.276,-0.999 1.693,0.428 3.02,1.853 3.272,3.591 C 1.094,0.377 0.095,0.658 0,0" /></g><g
           transform="translate(117.0859,157.5908)"
           id="g160"><path
             id="path162"
             style="fill:#a5897a;fill-opacity:1;fill-rule:nonzero;stroke:none"
             d="M 0,0 C 1.556,-1.673 4.146,-1.625 5.6,0.155 6.019,0.667 5.29,1.405 4.867,0.888 3.761,-0.466 1.937,-0.563 0.732,0.732 0.278,1.222 -0.453,0.488 0,0" /></g><g
           transform="translate(101.6802,124.8545)"
           id="g164"><path
             id="path166"
             style="fill:#000000;fill-opacity:1;fill-rule:nonzero;stroke:none"
             d="m 0,0 c -5.5,-3.744 -11.066,-7.385 -16.489,-11.241 -2.202,-1.567 -0.09,-5.239 2.137,-3.656 5.423,3.856 10.989,7.498 16.489,11.241 C 4.376,-2.132 2.261,1.539 0,0" /></g><g
           transform="translate(148.1484,132.6313)"
           id="g168"><path
             id="path170"
             style="fill:#000000;fill-opacity:1;fill-rule:nonzero;stroke:none"
             d="m 0,0 c -1.084,1.297 -0.317,0.918 -0.562,-0.439 -0.493,-0.493 -0.986,-0.986 -1.479,-1.478 -2.233,-0.386 0.402,-0.369 1.021,-0.262 0.659,0.114 1.361,0.824 1.479,1.479 0.608,3.375 -4.953,7.459 -7.603,8.515 -4.26,1.7 -8.496,0.605 -12.217,-1.6 -2.343,-1.387 -0.215,-5.049 2.136,-3.655 2.297,1.36 4.072,2.252 7.036,1.708 1.973,-0.362 3.31,-1.356 4.688,-2.793 0.454,-0.474 0.838,-1.041 1.315,-1.488 1.144,-1.073 0.256,-1.257 0.562,0.438 0.493,0.493 0.985,0.986 1.478,1.479 2.235,0.385 -0.402,0.368 -1.02,0.262 -0.659,-0.114 -1.36,-0.824 -1.479,-1.479 -0.28,-1.555 0.72,-2.567 1.651,-3.681 C -1.245,-5.087 1.736,-2.078 0,0" /></g><g
           transform="translate(80.0073,171.1191)"
           id="g172"><path
             id="path174"
             style="fill:#7d471d;fill-opacity:1;fill-rule:nonzero;stroke:none"
             d="m 0,0 c -2.899,4.118 -8.104,6.585 -12.986,5.689 -4.884,-0.897 -11.455,-11.194 -12.36,-16.164 -1.876,-10.302 -2.269,-21.401 -8.63,-23.517 -5.221,-1.737 10.143,-4.239 13.907,-2.633 5.069,2.163 14.133,8.002 16.814,12.888 2.681,4.886 -0.034,11.933 1.53,17.302 C -1.113,-4.333 0.821,-2.032 0,0" /></g><g
           transform="translate(80.2241,171.3359)"
           id="g176"><path
             id="path178"
             style="fill:#231f20;fill-opacity:1;fill-rule:nonzero;stroke:none"
             d="m 0,0 c -2.955,3.737 -7.511,6.56 -12.467,5.863 -3.6,-0.506 -6.168,-3.426 -8.247,-6.211 -2.466,-3.303 -4.474,-6.978 -5.28,-11.037 -1.193,-6.015 -1.108,-13.115 -4.149,-18.603 -1.091,-1.97 -2.566,-2.479 -4.131,-3.926 -0.172,-0.158 -0.861,-0.203 -0.969,-0.478 -0.117,-0.297 -0.414,-0.373 -0.295,-0.767 0.465,-1.543 4.151,-1.8 5.315,-1.991 8.61,-1.416 14.29,1.352 21.103,6.758 3.772,2.994 6.796,6.191 7.15,11.175 0.263,3.706 -0.601,7.444 0.094,11.121 0.532,2.814 2.41,5.044 1.955,7.961 -0.061,0.388 -0.652,0.223 -0.591,-0.163 0.428,-2.746 -1.56,-5.098 -2.044,-7.728 -0.494,-2.689 -0.091,-5.513 -0.01,-8.215 0.227,-7.607 -3.786,-11.645 -9.726,-15.72 -3.854,-2.644 -7.706,-5.124 -12.489,-5.085 -1.607,0.013 -10.544,0.583 -9.331,2.542 0.351,0.566 2.397,1.384 2.958,1.976 0.908,0.957 1.535,2.142 2.062,3.341 2.091,4.757 2.477,10.239 3.299,15.309 0.862,5.315 2.878,9.891 6.29,14.1 2.045,2.525 4.335,4.84 7.772,5.113 4.53,0.36 8.616,-2.376 11.297,-5.769 C -0.189,-0.743 0.242,-0.307 0,0" /></g><g
           transform="translate(100.8237,181.6177)"
           id="g180"><path
             id="path182"
             style="fill:#7d471d;fill-opacity:1;fill-rule:nonzero;stroke:none"
             d="m 0,0 c 0.226,6.783 4.495,13.194 10.563,15.866 3.028,1.334 6.685,1.728 9.599,0.062 2.166,-1.239 4.812,-2.436 6.817,-3.934 3.241,-2.421 5.42,-4.637 9.295,-3.752 3.876,0.884 3.417,2.043 6.892,5.331 C 42.105,7.539 40.326,3.474 34.763,0.054 30.032,-2.855 22.286,-4.022 18.879,-3.115 12.906,-1.526 5.139,-3.744 -0.043,-0.276" /></g><g
           transform="translate(101.1299,181.6177)"
           id="g184"><path
             id="path186"
             style="fill:#231f20;fill-opacity:1;fill-rule:nonzero;stroke:none"
             d="m 0,0 c 0.448,5.912 3.364,11.485 8.534,14.605 5.874,3.546 11.414,1.364 16.713,-2.011 4.78,-3.043 9.581,-7.527 14.839,-2.47 0.456,0.438 0.876,1.317 1.424,1.616 1.045,0.57 0.344,0.859 0.649,-0.09 0.465,-1.451 -1.767,-5.2 -2.382,-6.164 -2.754,-4.322 -7.619,-6.739 -12.468,-7.86 -4.131,-0.954 -7.514,-0.385 -11.604,0.063 -5.417,0.593 -10.933,-0.52 -15.9,2.299 -0.343,0.195 -0.653,-0.334 -0.309,-0.529 4.367,-2.479 9.087,-2.045 13.945,-2.246 4.755,-0.195 8.577,-1.313 13.342,-0.337 9.197,1.885 14.639,7.525 16.372,16.616 0.055,0.288 -0.283,0.527 -0.512,0.298 -2.156,-2.16 -3.627,-4.585 -6.866,-5.172 -4.355,-0.79 -6.94,2.406 -10.22,4.506 -3.372,2.158 -7.1,4.526 -11.25,4.147 C 5.669,16.48 -0.004,8.03 -0.613,0 -0.643,-0.393 -0.03,-0.391 0,0" /></g><g
           transform="translate(99.7285,184.7441)"
           id="g188"><path
             id="path190"
             style="fill:#7d471d;fill-opacity:1;fill-rule:nonzero;stroke:none"
             d="m 0,0 c -2.451,-4.517 -9.762,-9.118 -18.955,-9.908 -2.253,-1.484 -0.739,-3.083 -1.515,-5.667 -0.786,-2.614 -1.76,-2.681 -1.408,-5.389 1.415,-10.868 3.876,-15.341 8.153,-21.942 -7.999,2.781 -15.78,12.781 -15.057,21.219 0.253,2.946 -0.513,4.121 -0.749,7.068 -0.166,2.084 1.276,5.905 1.489,7.984 0.259,2.528 2.205,5.843 3.439,8.064 3.09,5.562 8.593,8.844 13.671,8.211 4.339,-0.541 7.684,-2.169 11.152,-4.833 -0.34,-0.183 11.064,0.86 14.605,-2.912 1.697,-1.808 4.858,-6.141 6.015,-8.333 2.111,-3.997 2.562,-16.872 2.178,-15.114 -0.707,3.236 -1.116,8.83 -4.688,13.079 C 14.938,-4.438 10.453,-1.49 6.662,-0.755 3.453,-0.134 1.347,2.482 0,0" /></g><g
           transform="translate(99.4639,184.8984)"
           id="g192"><path
             id="path194"
             style="fill:#231f20;fill-opacity:1;fill-rule:nonzero;stroke:none"
             d="m 0,0 c -2.396,-3.933 -6.539,-6.489 -10.795,-8.028 -2.225,-0.805 -6.078,-0.602 -7.895,-1.727 -0.38,-0.236 -0.819,-0.529 -1.105,-0.908 -0.372,-0.49 -0.32,-0.869 -0.468,-1.387 -0.214,-0.742 -0.026,-1.721 -0.125,-2.494 -0.174,-1.354 -0.843,-2.391 -1.196,-3.691 -0.711,-2.621 -0.063,-5.25 0.473,-7.905 0.609,-3.012 1.451,-5.97 2.692,-8.786 0.621,-1.41 1.337,-2.775 2.104,-4.11 0.27,-0.471 1.07,-1.459 1.231,-2.046 0.957,-1.006 0.966,-1.293 0.028,-0.861 -0.662,0.146 -1.264,0.431 -1.806,0.856 -3.983,2.235 -7.375,6.3 -9.38,10.343 -1.976,3.983 -1.627,7.669 -2.066,11.896 -0.458,4.396 -0.191,7.702 0.826,11.977 1.274,5.357 4.526,11.417 9.388,14.31 5.107,3.038 10.996,1.63 15.828,-1.248 2.071,-1.233 2.226,-1.555 4.24,-1.849 2.623,-0.384 5.294,-0.028 7.944,-0.574 4.533,-0.934 6.755,-4.118 9.226,-7.782 3.666,-5.438 2.615,-10.905 3.954,-16.906 0.426,-1.916 0.224,0.659 0.064,1.49 -0.446,2.308 -0.892,4.622 -1.817,6.797 -1.465,3.445 -4.044,6.242 -7.014,8.47 C 11.547,-2.074 8.88,-1.361 5.7,-0.247 3.565,0.501 1.766,2.186 0.048,0.062 c -0.246,-0.304 0.185,-0.74 0.433,-0.433 1.077,1.331 6.115,-0.659 7.521,-1.12 3.325,-1.091 6.346,-3.121 8.775,-5.624 4.411,-4.544 4.452,-9.29 6.261,-14.829 0.066,-0.202 0.355,-0.322 0.513,-0.136 1.242,1.467 -0.263,7.434 -0.509,9.118 -0.786,5.391 -2.98,9.176 -6.426,13.391 C 13.808,3.865 10.119,4.616 5.823,4.882 4.279,4.978 2.114,4.516 0.639,4.917 -1.038,5.375 -2.921,7.38 -4.61,8.13 c -1.408,0.625 -2.88,1.104 -4.393,1.397 -12.699,2.461 -19.851,-12.681 -20.54,-23.229 -0.2,-3.067 0.557,-6.342 0.674,-9.416 0.106,-2.785 0.861,-5.443 2.098,-7.936 2.744,-5.532 7.482,-10.045 13.229,-12.302 0.251,-0.099 0.483,0.237 0.346,0.45 -2.605,4.049 -4.975,8.162 -6.33,12.817 -0.918,3.156 -1.586,6.341 -1.449,9.629 0.096,2.278 1.057,3.749 1.301,5.945 0.333,2.986 1.65,3.799 4.419,4.625 2.542,0.758 5.045,1.296 7.455,2.462 3.361,1.627 6.373,3.907 8.329,7.119 C 0.735,0.029 0.205,0.337 0,0" /></g><g
           transform="translate(84.6772,108.2129)"
           id="g196"><path
             id="path198"
             style="fill:#ffffff;fill-opacity:1;fill-rule:nonzero;stroke:none"
             d="M 0,0 C 0.177,0.995 -0.628,1.896 -1.235,2.728 -1.843,3.56 -2.237,4.9 -1.452,5.465 -1.036,5.764 -0.437,5.677 0.018,5.395 0.472,5.112 0.816,4.669 1.148,4.236 2.152,2.929 3.2,1.515 3.364,-0.122 3.49,-1.376 3.071,-2.592 2.548,-3.691 1.62,-5.642 0.306,-7.418 -1.456,-8.563 c -1.761,-1.145 -4.002,-1.603 -6.056,-0.941 -0.893,0.287 -1.844,0.938 -1.949,1.903 -0.102,0.93 0.681,1.716 1.541,1.901 0.86,0.183 1.766,-0.083 2.625,-0.364 -0.92,0.986 -2.597,-0.21 -3.706,0.524 -0.697,0.462 -0.808,1.586 -0.324,2.237 0.483,0.651 1.388,0.842 2.178,0.632 -0.448,-0.507 -1.396,0.175 -1.319,0.875 0.076,0.699 0.791,1.117 1.465,1.139 0.673,0.021 1.335,-0.239 2.004,-0.374 1.779,-0.36 3.663,0.218 4.912,1.506" /></g><g
           transform="translate(84.9414,108.2129)"
           id="g200"><path
             id="path202"
             style="fill:#000000;fill-opacity:1;fill-rule:nonzero;stroke:none"
             d="M 0,0 C -0.051,1.119 -1.228,1.989 -1.271,2.861 -0.789,3.469 -0.305,4.077 0.178,4.686 0.671,4.115 1.125,3.517 1.54,2.891 2.728,1.026 3.074,-0.565 2.368,-2.727 1.654,-4.911 0.094,-7.09 -1.853,-8.335 c -1.214,-0.777 -2.675,-1.277 -4.132,-1.208 -0.775,0.183 -1.55,0.366 -2.325,0.55 0.264,2.543 1.158,3.434 2.681,2.675 0.294,-0.088 0.45,0.324 0.203,0.482 -0.516,0.329 -0.647,0.375 -1.257,0.446 -0.3,0.036 -1.093,-0.277 -1.333,-0.13 0.895,1.412 1.79,2.824 2.685,4.235 0.172,-0.024 0.345,-0.044 0.518,-0.062 1.882,0.373 3.083,0.278 4.65,1.635 0.257,0.223 -0.117,0.595 -0.373,0.373 -2.068,-1.791 -3.343,-1.39 -5.655,-1.192 -0.332,0.028 -0.816,0.188 -1.144,0.128 -0.718,-0.131 -1.496,-0.425 -1.623,-1.26 -0.164,-1.067 0.751,-1.501 1.617,-1.263 0.301,0.083 0.216,0.492 -0.07,0.519 -1.51,0.138 -3.544,-0.902 -2.522,-2.75 0.296,-0.534 0.629,-0.704 1.193,-0.863 0.707,-0.199 3.638,0.204 1.498,0.624 -1.336,0.261 -2.872,-0.814 -2.742,-2.24 0.192,-2.13 3.291,-2.553 4.899,-2.4 C -0.062,-9.555 5,-3.032 2.766,1.876 2.252,3.006 0.106,6.898 -1.787,5.719 -3.794,4.468 -0.582,1.198 -0.528,0 -0.513,-0.338 0.015,-0.34 0,0" /></g><g
           transform="translate(164.2539,140.6909)"
           id="g204"><path
             id="path206"
             style="fill:#9b5526;fill-opacity:1;fill-rule:nonzero;stroke:none"
             d="M 0,0 C -0.631,0.313 -0.822,1.222 -0.456,1.824 -0.09,2.426 0.702,2.69 1.391,2.542 2.08,2.395 2.657,1.895 3.022,1.292 3.388,0.689 3.563,-0.01 3.669,-0.706 3.767,-1.351 3.697,-2.19 3.081,-2.404 2.516,-2.6 1.968,-2.099 1.578,-1.645 0.893,-0.848 0.207,-0.051 -0.478,0.746" /></g><g
           transform="translate(164.3701,140.8901)"
           id="g208"><path
             id="path210"
             style="fill:#231f20;fill-opacity:1;fill-rule:nonzero;stroke:none"
             d="M 0,0 C -0.757,0.489 -0.652,1.524 0.107,1.956 0.583,2.226 1.247,2.18 1.719,1.937 2.667,1.447 3.085,0.367 3.271,-0.619 3.327,-0.922 3.451,-1.53 3.304,-1.854 2.715,-3.146 1.73,-1.798 1.368,-1.382 0.764,-0.689 0.169,0.013 -0.431,0.71 -0.625,0.936 -0.95,0.608 -0.757,0.384 0.016,-0.515 0.746,-1.542 1.621,-2.342 2.009,-2.698 2.543,-3.022 3.081,-2.803 4.446,-2.245 3.673,0.172 3.189,1.055 2.538,2.245 1.04,3.116 -0.234,2.283 -1.223,1.637 -1.215,0.236 -0.232,-0.398 0.018,-0.561 0.25,-0.161 0,0" /></g><g
           transform="translate(163.6025,139.1689)"
           id="g212"><path
             id="path214"
             style="fill:#9b5526;fill-opacity:1;fill-rule:nonzero;stroke:none"
             d="m 0,0 c -7.372,-7.188 -15.782,-13.332 -24.968,-17.983 -5.734,-2.904 -11.789,-5.242 -17.117,-8.837 -1.44,-0.972 -2.894,-2.128 -3.467,-3.768 -0.897,-2.568 1.123,-5.712 3.833,-5.961 2.37,-0.217 4.466,1.415 6.282,2.953 5.795,4.907 11.589,9.813 17.384,14.718 7.415,6.279 14.865,12.591 21.204,19.954 L 1.711,2.241 0,0 Z" /></g><g
           transform="translate(163.4385,139.332)"
           id="g216"><path
             id="path218"
             style="fill:#231f20;fill-opacity:1;fill-rule:nonzero;stroke:none"
             d="m 0,0 c -9.291,-8.916 -19.664,-15.5 -31.253,-20.978 -3.874,-1.832 -19.061,-7.392 -13.412,-14.232 1.544,-1.869 3.79,-2.039 5.938,-1.198 4.81,1.881 9.165,7.182 13.034,10.458 10.055,8.513 20.454,16.769 29.172,26.7 0.076,0.086 0.102,0.244 0,0.327 C 2.998,1.465 2.519,1.853 2.038,2.242 1.912,2.344 1.772,2.322 1.676,2.195 1.105,1.448 0.535,0.701 -0.036,-0.046 -0.216,-0.283 0.185,-0.513 0.363,-0.28 0.661,0.111 1.467,1.636 1.896,1.729 4.085,2.198 0.466,-1.912 0.101,-2.299 -3.23,-5.835 -6.796,-9.14 -10.44,-12.348 c -7.959,-7.005 -16.067,-13.921 -24.271,-20.634 -3.237,-2.649 -2.339,-3.042 -6.049,0.929 -3.609,3.866 -3.623,3.103 -0.309,5.346 1.927,1.305 4.021,2.384 6.098,3.427 4.421,2.22 8.983,4.145 13.317,6.54 8.054,4.448 15.351,10.052 21.981,16.414 C 0.542,-0.12 0.215,0.206 0,0" /></g><g
           id="g220"><g
             id="g222" /><g
             id="g228"><g
               style="opacity:0.39999402"
               id="g230"
               clip-path="url(#clipPath224)"><g
                 id="g232"
                 transform="translate(120.9775,110.3271)"><path
                   id="path234"
                   style="fill:#cc825b;fill-opacity:1;fill-rule:nonzero;stroke:none"
                   d="m 0,0 c 0,0 3.882,0.947 4.492,-2.208 0.611,-3.156 -0.714,-3.086 -0.714,-3.086 0,0 -1.622,3.952 -2.63,3.562 C 0.14,-2.124 -1.674,-1.153 0,0" /></g></g></g></g><g
           transform="translate(148.8125,131.4048)"
           id="g236"><path
             id="path238"
             style="fill:#ffffff;fill-opacity:1;fill-rule:nonzero;stroke:none"
             d="m 0,0 c -3.172,-1.24 -5.926,-3.525 -7.729,-6.414 1.74,-0.7 3.862,-0.333 5.266,0.912 0.601,-0.674 1.22,-1.379 1.472,-2.247 0.252,-0.867 0.021,-1.946 -0.764,-2.392 -0.294,-0.167 -0.645,-0.239 -0.894,-0.468 -0.595,-0.546 -0.142,-1.65 0.621,-1.912 0.763,-0.263 1.601,0.063 2.297,0.474 0.694,0.411 1.358,0.923 2.15,1.082 -0.067,0.301 -0.134,0.603 -0.2,0.905 1.088,-0.836 2.955,-0.159 3.254,1.181 1.246,-0.313 2.502,0.851 2.669,2.125 0.168,1.273 -0.477,2.523 -1.299,3.51 -1.738,2.086 -4.38,3.391 -7.093,3.502" /></g><g
           transform="translate(148.6318,131.7139)"
           id="g240"><path
             id="path242"
             style="fill:#000000;fill-opacity:1;fill-rule:nonzero;stroke:none"
             d="m 0,0 c -3.292,-1.402 -5.876,-3.569 -7.857,-6.542 -0.132,-0.197 0.003,-0.464 0.213,-0.525 0.977,-0.286 1.818,-0.453 2.855,-0.287 -0.164,-0.026 2.121,0.667 1.931,0.686 3.758,-0.362 -0.679,-3.427 -0.199,-5.027 0.932,-3.103 3.874,-0.57 5.751,0.076 0.191,0.065 0.295,0.241 0.25,0.44 -0.104,0.474 0.11,-0.129 0.811,0.102 0.838,0.273 1.178,0.578 1.883,1.025 1.195,0.757 2.453,0.973 2.919,2.523 1.363,4.536 -5.208,7.53 -8.626,7.836 -0.459,0.042 -0.456,-0.675 0,-0.716 1.652,-0.148 3.09,-0.53 4.518,-1.406 0.628,-0.36 1.198,-0.802 1.71,-1.325 C 8.096,-4.693 7.927,-6.59 5.653,-8.83 5.54,-8.827 5.393,-8.898 5.345,-9.008 4.423,-9.358 3.501,-9.709 2.58,-10.06 c -0.283,0.14 -0.596,-0.089 -0.526,-0.404 0.107,-0.484 -0.471,-0.752 -0.742,-0.958 -0.856,-0.647 -0.965,-0.7 -1.874,0.019 -1.31,1.035 -0.33,0.654 0.085,1.853 0.529,1.524 -0.634,2.924 -1.552,3.992 -0.095,0.11 -0.314,0.143 -0.434,0.056 -0.492,-0.356 -4.069,-2.161 -4.262,-0.628 -0.062,0.501 1.72,2.025 2.088,2.361 1.494,1.365 3.145,2.362 4.998,3.151 C 0.784,-0.438 0.419,0.179 0,0" /></g><g
           transform="translate(70.5698,195.895)"
           id="g244"><path
             id="path246"
             style="fill:#e71e27;fill-opacity:1;fill-rule:nonzero;stroke:none"
             d="M 0,0 C 0.073,0.131 0.157,0.258 0.242,0.381 0.368,0.277 0.511,0.191 0.67,0.127 L 0,0 Z" /></g><g
           transform="translate(70.8345,195.7402)"
           id="g248"><path
             id="path250"
             style="fill:#000000;fill-opacity:1;fill-rule:nonzero;stroke:none"
             d="M 0,0 C 0.077,0.13 0.157,0.256 0.242,0.381 0.102,0.345 -0.038,0.308 -0.178,0.271 -0.037,0.167 0.091,0.091 0.25,0.017 0.275,0.204 0.299,0.391 0.324,0.578 0.101,0.535 -0.123,0.493 -0.346,0.45 -0.733,0.376 -0.569,-0.214 -0.183,-0.141 0.04,-0.099 0.263,-0.056 0.487,-0.014 0.736,0.034 0.795,0.438 0.56,0.546 0.4,0.62 0.272,0.696 0.132,0.801 -0.007,0.904 -0.203,0.815 -0.288,0.691 -0.372,0.565 -0.453,0.44 -0.529,0.31 -0.73,-0.031 -0.2,-0.34 0,0" /></g><g
           transform="translate(73.8188,198.6455)"
           id="g252"><path
             id="path254"
             style="fill:#e71e27;fill-opacity:1;fill-rule:nonzero;stroke:none"
             d="m 0,0 c -1.219,-0.454 -2.281,-1.294 -3.007,-2.369 -0.131,0.103 -0.251,0.233 -0.348,0.371 0.925,0.923 1.922,1.768 2.986,2.535 C -0.216,0.387 -0.087,0.205 0,0" /></g><g
           transform="translate(73.7373,198.9409)"
           id="g256"><path
             id="path258"
             style="fill:#000000;fill-opacity:1;fill-rule:nonzero;stroke:none"
             d="m 0,0 c -1.31,-0.513 -2.383,-1.357 -3.19,-2.51 0.16,0.021 0.32,0.041 0.481,0.062 -0.113,0.09 -0.213,0.193 -0.3,0.309 -0.015,-0.123 -0.032,-0.247 -0.048,-0.371 0.914,0.903 1.886,1.731 2.924,2.487 -0.124,0.016 -0.248,0.032 -0.371,0.047 0.139,-0.137 0.246,-0.295 0.321,-0.474 0.179,-0.352 0.708,-0.042 0.529,0.309 C 0.229,0.088 0.1,0.269 -0.071,0.458 -0.154,0.55 -0.338,0.582 -0.442,0.506 -1.522,-0.28 -2.54,-1.138 -3.49,-2.077 c -0.086,-0.085 -0.129,-0.266 -0.048,-0.371 0.123,-0.159 0.243,-0.3 0.395,-0.433 0.158,-0.138 0.364,-0.106 0.482,0.062 0.708,1.011 1.674,1.777 2.824,2.228 C 0.526,-0.449 0.368,0.144 0,0" /></g><g
           transform="translate(88.5249,181.7793)"
           id="g260"><path
             id="path262"
             style="fill:#e71e27;fill-opacity:1;fill-rule:nonzero;stroke:none"
             d="M 0,0 C 2.101,1.116 4.769,2.349 7.134,3.517 5.534,2.099 3.807,0.819 1.98,-0.298 0.478,-1.214 -1.077,-2.02 -2.675,-2.738 L 0,0 Z" /></g><g
           transform="translate(88.6797,181.5146)"
           id="g264"><path
             id="path266"
             style="fill:#000000;fill-opacity:1;fill-rule:nonzero;stroke:none"
             d="M 0,0 C 2.348,1.232 4.754,2.348 7.134,3.517 7.01,3.678 6.886,3.838 6.762,3.999 3.814,1.436 0.562,-0.585 -2.984,-2.208 -2.86,-2.369 -2.736,-2.53 -2.613,-2.69 l 2.675,2.738 c 0.276,0.283 -0.157,0.716 -0.433,0.433 -0.892,-0.912 -1.783,-1.825 -2.675,-2.738 -0.256,-0.261 0.066,-0.621 0.371,-0.481 3.592,1.644 6.887,3.71 9.871,6.303 C 7.472,3.806 7.12,4.192 6.824,4.046 4.445,2.877 2.039,1.761 -0.309,0.529 -0.659,0.346 -0.349,-0.183 0,0" /></g><g
           transform="translate(104.4487,197.0054)"
           id="g268"><path
             id="path270"
             style="fill:#e71e27;fill-opacity:1;fill-rule:nonzero;stroke:none"
             d="m 0,0 c -0.382,-0.806 -0.796,-1.603 -1.237,-2.379 0.213,1.395 0.282,2.449 0.282,2.449 0.205,0.088 0.41,0.17 0.621,0.249 L 0,0 Z" /></g><g
           transform="translate(104.1841,197.1597)"
           id="g272"><path
             id="path274"
             style="fill:#000000;fill-opacity:1;fill-rule:nonzero;stroke:none"
             d="m 0,0 c -0.385,-0.807 -0.797,-1.6 -1.237,-2.378 0.186,-0.079 0.373,-0.158 0.56,-0.236 0.125,0.839 0.236,1.683 0.293,2.53 -0.074,-0.099 -0.15,-0.197 -0.224,-0.295 0.205,0.086 0.412,0.169 0.62,0.248 -0.099,0.026 -0.199,0.052 -0.298,0.079 0.111,-0.107 0.223,-0.213 0.334,-0.319 0.285,-0.273 0.72,0.16 0.433,0.433 C 0.37,0.168 0.259,0.275 0.147,0.381 0.073,0.452 -0.05,0.499 -0.151,0.46 -0.359,0.381 -0.566,0.298 -0.771,0.211 -0.906,0.155 -0.986,0.065 -0.997,-0.084 -1.05,-0.876 -1.151,-1.667 -1.269,-2.452 c -0.047,-0.32 0.376,-0.563 0.561,-0.236 0.44,0.779 0.852,1.572 1.237,2.379 C 0.699,0.045 0.17,0.356 0,0" /></g><g
           transform="translate(88.5249,181.7793)"
           id="g276"><path
             id="path278"
             style="fill:#e71e27;fill-opacity:1;fill-rule:nonzero;stroke:none"
             d="M 0,0 C 2.101,1.116 4.769,2.349 7.134,3.517 5.534,2.099 3.807,0.819 1.98,-0.298 0.478,-1.214 -1.077,-2.02 -2.675,-2.738 L 0,0 Z" /></g><g
           transform="translate(88.6797,181.5146)"
           id="g280"><path
             id="path282"
             style="fill:#000000;fill-opacity:1;fill-rule:nonzero;stroke:none"
             d="M 0,0 C 2.348,1.232 4.754,2.348 7.134,3.517 7.01,3.678 6.886,3.838 6.762,3.999 3.814,1.436 0.562,-0.585 -2.984,-2.208 -2.86,-2.369 -2.736,-2.53 -2.613,-2.69 l 2.675,2.738 c 0.276,0.283 -0.157,0.716 -0.433,0.433 -0.892,-0.912 -1.783,-1.825 -2.675,-2.738 -0.256,-0.261 0.066,-0.621 0.371,-0.481 3.592,1.644 6.887,3.71 9.871,6.303 C 7.472,3.806 7.12,4.192 6.824,4.046 4.445,2.877 2.039,1.761 -0.309,0.529 -0.659,0.346 -0.349,-0.183 0,0" /></g><g
           transform="translate(104.4487,197.0054)"
           id="g284"><path
             id="path286"
             style="fill:#e71e27;fill-opacity:1;fill-rule:nonzero;stroke:none"
             d="m 0,0 c -0.382,-0.806 -0.796,-1.603 -1.237,-2.379 0.213,1.395 0.282,2.449 0.282,2.449 0.205,0.088 0.41,0.17 0.621,0.249 L 0,0 Z" /></g><g
           transform="translate(104.1841,197.1597)"
           id="g288"><path
             id="path290"
             style="fill:#000000;fill-opacity:1;fill-rule:nonzero;stroke:none"
             d="m 0,0 c -0.385,-0.807 -0.797,-1.6 -1.237,-2.378 0.186,-0.079 0.373,-0.158 0.56,-0.236 0.125,0.839 0.236,1.683 0.293,2.53 -0.074,-0.099 -0.15,-0.197 -0.224,-0.295 0.205,0.086 0.412,0.169 0.62,0.248 -0.099,0.026 -0.199,0.052 -0.298,0.079 0.111,-0.107 0.223,-0.213 0.334,-0.319 0.285,-0.273 0.72,0.16 0.433,0.433 C 0.37,0.168 0.259,0.275 0.147,0.381 0.073,0.452 -0.05,0.499 -0.151,0.46 -0.359,0.381 -0.566,0.298 -0.771,0.211 -0.906,0.155 -0.986,0.065 -0.997,-0.084 -1.05,-0.876 -1.151,-1.667 -1.269,-2.452 c -0.047,-0.32 0.376,-0.563 0.561,-0.236 0.44,0.779 0.852,1.572 1.237,2.379 C 0.699,0.045 0.17,0.356 0,0" /></g><g
           transform="translate(70.8115,196.2764)"
           id="g292"><path
             id="path294"
             style="fill:#e71e27;fill-opacity:1;fill-rule:nonzero;stroke:none"
             d="m 0,0 c 0.126,-0.104 0.269,-0.19 0.428,-0.254 l -0.67,-0.127 C -0.168,-0.25 -0.084,-0.123 0,0" /></g><g
           transform="translate(70.6567,196.0117)"
           id="g296"><path
             id="path298"
             style="fill:#000000;fill-opacity:1;fill-rule:nonzero;stroke:none"
             d="M 0,0 C 0.141,-0.105 0.269,-0.18 0.428,-0.254 0.453,-0.067 0.477,0.119 0.501,0.306 0.278,0.264 0.055,0.221 -0.168,0.179 c 0.115,-0.15 0.23,-0.301 0.346,-0.45 0.076,0.13 0.156,0.255 0.241,0.381 C 0.641,0.437 0.11,0.745 -0.11,0.419 -0.194,0.294 -0.275,0.168 -0.352,0.038 c -0.144,-0.245 0.093,-0.498 0.347,-0.45 0.223,0.042 0.446,0.084 0.67,0.127 0.249,0.047 0.308,0.452 0.073,0.56 C 0.578,0.349 0.45,0.424 0.31,0.529 -0.007,0.765 -0.313,0.233 0,0" /></g><g
           transform="translate(115.2744,195.3687)"
           id="g300"><path
             id="path302"
             style="fill:#eed518;fill-opacity:1;fill-rule:nonzero;stroke:none"
             d="m 0,0 c 0.369,-4.475 -2.527,-8.713 -6.252,-11.217 -3.73,-2.505 -8.197,-3.609 -12.562,-4.661 -3.59,-0.873 -7.364,-1.742 -10.935,-0.779 l 0.325,0.33 c 1.598,0.718 3.153,1.523 4.654,2.439 1.828,1.117 3.554,2.397 5.154,3.816 -2.365,-1.169 -5.033,-2.401 -7.134,-3.517 l -2.674,-2.738 c -4.326,-1.945 -8.95,-3.277 -13.522,-4.591 -5.472,4.799 -2.589,21.48 -1.865,22.197 0.097,-0.138 0.217,-0.268 0.348,-0.371 -0.084,-0.123 -0.168,-0.251 -0.242,-0.382 0,0 0.368,0.278 0.242,0.382 0.727,1.074 1.789,1.915 3.007,2.369 -0.087,0.204 -0.216,0.387 -0.369,0.536 3.522,2.537 7.713,4.147 12.037,4.527 6.738,0.598 13.676,-1.79 18.628,-6.384 -0.211,-0.079 -0.416,-0.162 -0.62,-0.249 0,0 0.213,1.395 0,0 0.441,0.776 0.572,-0.876 0.954,-0.07 L -11.16,1.956 C -7.37,3.348 -2.713,2.952 0,0" /></g><g
           transform="translate(114.9678,195.3687)"
           id="g304"><path
             id="path306"
             style="fill:#000000;fill-opacity:1;fill-rule:nonzero;stroke:none"
             d="m 0,0 c 0.038,-10.187 -10.388,-13.633 -18.589,-15.583 -2.399,-0.569 -4.739,-1.085 -7.229,-1.188 -1.081,0.021 -2.163,0.042 -3.245,0.062 1.083,0.551 2.161,1.11 3.235,1.676 2.427,1.37 4.614,2.945 6.736,4.744 0.28,0.238 -0.077,0.625 -0.372,0.481 -3.497,-1.708 -6.232,-3.255 -9.177,-5.593 -2.229,-1.769 -5.358,-2.565 -8.08,-3.433 -3.081,-0.984 -5.652,-2.23 -7.526,0.891 -1.804,3.002 -1.473,7.877 -1.273,11.251 0.105,1.76 0.315,6.518 0.857,7.373 -0.192,-0.305 0.231,-0.598 0.482,-0.371 1.212,1.094 1.307,1.767 3.186,2.702 0.141,0.07 0.2,0.29 0.11,0.42 -0.591,0.86 6.141,3.511 6.705,3.682 3.039,0.92 6.18,1.167 9.322,0.822 2.613,-0.287 5.001,-0.943 7.395,-2.027 1.194,-0.541 2.294,-1.109 3.386,-1.828 0.624,-0.394 1.224,-0.823 1.798,-1.288 1.406,-0.595 1.576,-0.93 0.51,-1.004 -0.031,-0.2 0.135,-0.477 0.377,-0.377 0.096,-0.033 0.193,-0.065 0.289,-0.098 0.1,-0.139 0.261,-0.193 0.419,-0.11 0.107,0.056 0.213,0.112 0.32,0.168 0.173,0.091 0.2,0.349 0.062,0.481 -0.323,0.309 4.224,0.584 3.424,0.564 2.667,0.066 4.993,-0.827 6.968,-2.634 0.29,-0.266 0.724,0.166 0.432,0.433 -3.288,3.012 -7.315,3.307 -11.457,2.035 -0.214,-0.066 -0.307,-0.349 -0.135,-0.512 0.207,-0.282 0.28,-0.193 0.22,0.27 -0.072,0.1 -0.215,0.195 -0.346,0.141 0.037,0.032 0.075,0.063 0.113,0.096 0.059,0.385 -0.532,0.552 -0.591,0.162 -0.032,-0.206 -0.064,-0.413 -0.095,-0.619 -0.031,-0.202 0.134,-0.475 0.377,-0.377 0.206,0.082 0.413,0.165 0.621,0.248 0.194,0.078 0.327,0.345 0.135,0.512 -8.989,7.794 -21.171,8.53 -31.037,1.906 -0.13,-0.087 -0.208,-0.276 -0.11,-0.419 0.072,-0.104 -2.121,-1.991 -2.174,-2.039 -1.942,-1.783 0.839,0.353 0.065,-0.867 0.075,0.118 0.043,0.274 -0.047,0.372 -0.116,0.123 -0.232,0.247 -0.348,0.371 -0.138,0.148 -0.381,0.101 -0.482,-0.062 -1.58,-2.562 -1.408,-7.427 -1.443,-10.265 -0.053,-4.191 0.241,-9.154 3.356,-12.304 0.076,-0.077 0.194,-0.109 0.298,-0.079 3.989,1.15 8.066,2.238 11.886,3.889 1.972,0.853 2.129,1.449 3.753,2.809 1.277,1.07 10.294,6.242 3.652,1.761 -1.946,-1.313 -4.789,-2.055 -6.392,-3.686 -0.151,-0.153 -0.098,-0.468 0.136,-0.512 6.61,-1.237 14.794,0.964 20.81,3.834 C -3.405,-10.586 0.636,-6.122 0.612,0 0.611,0.394 -0.002,0.395 0,0" /></g><g
           transform="translate(73.8188,198.6455)"
           id="g308"><path
             id="path310"
             style="fill:#e71e27;fill-opacity:1;fill-rule:nonzero;stroke:none"
             d="m 0,0 c -1.219,-0.454 -3.258,-2.136 -3.355,-1.998 -0.539,0.763 -0.562,1.931 0.108,2.61 0.751,0.766 2.138,0.665 2.878,-0.075 C -0.216,0.387 -0.087,0.205 0,0" /></g><g
           transform="translate(73.7373,198.9409)"
           id="g312"><path
             id="path314"
             style="fill:#000000;fill-opacity:1;fill-rule:nonzero;stroke:none"
             d="m 0,0 c -1.194,-0.473 -2.112,-1.366 -3.23,-1.96 -0.093,-0.038 -0.082,-0.049 0.032,-0.033 0.136,-0.025 0.14,0.027 0.011,0.158 -0.048,0.243 -0.161,0.447 -0.177,0.701 -0.033,0.541 0.163,1.095 0.626,1.409 0.874,0.594 2.099,0.167 2.555,-0.725 0.179,-0.352 0.708,-0.042 0.529,0.309 -0.521,1.02 -1.745,1.526 -2.847,1.196 -1.064,-0.32 -1.607,-1.384 -1.448,-2.448 0.049,-0.322 0.204,-1.014 0.537,-1.173 0.245,-0.116 0.488,0.072 0.688,0.199 0.948,0.602 1.833,1.358 2.887,1.776 C 0.525,-0.447 0.367,0.146 0,0" /></g><g
           transform="translate(85.5176,181.4229)"
           id="g316"><path
             id="path318"
             style="fill:#eed518;fill-opacity:1;fill-rule:nonzero;stroke:none"
             d="M 0,0 C 3.039,1.384 6.078,2.768 9.117,4.152 7.109,1.95 4.742,0.076 2.138,-1.372 2.573,-0.058 3.579,1.055 4.841,1.621" /></g><g
           transform="translate(80.4092,201.1758)"
           id="g320"><path
             id="path322"
             style="fill:none;stroke:#941a1d;stroke-width:0.49000001;stroke-linecap:butt;stroke-linejoin:miter;stroke-miterlimit:10;stroke-dasharray:none;stroke-opacity:1"
             d="m 0,0 9.013,-0.407 c 0,0 4.416,-0.675 4.1,-2.478 -0.315,-1.804 7.19,-7.492 7.19,-7.492" /></g><g
           transform="translate(104.1147,197.3242)"
           id="g324"><path
             id="path326"
             style="fill:none;stroke:#941a1d;stroke-width:0.49000001;stroke-linecap:butt;stroke-linejoin:miter;stroke-miterlimit:10;stroke-dasharray:none;stroke-opacity:1"
             d="m 0,0 c 1.082,-1.65 -2.225,-6.336 -4.924,-9.088 -0.339,-0.346 -5.778,-7.87 -12.359,-9.037" /></g><g
           transform="translate(104.5996,196.7993)"
           id="g328"><path
             id="path330"
             style="fill:#e71e27;fill-opacity:1;fill-rule:nonzero;stroke:none"
             d="M 0,0 C -0.399,-0.739 -0.707,1.015 -1.105,0.276" /></g><g
           transform="translate(74.2183,110.1172)"
           id="g332"><path
             id="path334"
             style="fill:#ffffff;fill-opacity:1;fill-rule:nonzero;stroke:none"
             d="m 0,0 c 1.122,0.732 2.263,1.464 3.531,1.896 1.268,0.43 2.695,0.539 3.931,0.022 1.351,-0.564 2.331,-1.824 2.788,-3.215 0.458,-1.39 0.438,-2.897 0.203,-4.342 -0.181,-1.117 -0.516,-2.265 -1.307,-3.075 -0.758,-0.774 -1.831,-1.138 -2.868,-1.45 -1.133,-0.343 -2.291,-0.658 -3.474,-0.675 -1.184,-0.017 -2.411,0.293 -3.301,1.074 -1.292,1.135 -1.632,3.023 -1.522,4.739 0.102,1.592 0.54,3.194 1.472,4.49 0.932,1.296 2.398,2.253 3.99,2.356" /></g><g
           transform="translate(74.3403,109.9092)"
           id="g336"><path
             id="path338"
             style="fill:#000000;fill-opacity:1;fill-rule:nonzero;stroke:none"
             d="m 0,0 c 3.065,1.98 7.447,3.754 9.595,-0.519 0.741,-1.474 0.745,-3.178 0.49,-4.779 -0.38,-2.393 -1.698,-3.635 -3.994,-4.426 -3.678,-1.267 -7.935,-0.511 -8.009,4.162 -0.054,3.4 1.708,6.849 5.303,7.358 0.307,0.043 0.177,0.508 -0.128,0.465 -4.074,-0.575 -6.053,-4.819 -5.603,-8.635 0.591,-5.011 5.553,-4.988 9.345,-3.565 3.706,1.39 4.728,6.189 3.079,9.626 C 7.881,4.264 3.094,2.574 -0.244,0.417 -0.504,0.249 -0.262,-0.17 0,0" /></g><g
           transform="translate(73.1646,105.0898)"
           id="g340"><path
             id="path342"
             style="fill:#000000;fill-opacity:1;fill-rule:nonzero;stroke:none"
             d="M 0,0 C 3.183,4.019 10.292,1.066 8.92,-4.149 8.842,-4.45 9.307,-4.578 9.386,-4.277 10.869,1.363 3.163,4.766 -0.341,0.341 -0.532,0.1 -0.193,-0.244 0,0" /></g><g
           transform="translate(78.5122,111.6855)"
           id="g344"><path
             id="path346"
             style="fill:#000000;fill-opacity:1;fill-rule:nonzero;stroke:none"
             d="M 0,0 C 2.785,-0.64 4.996,-2.674 5.845,-5.405 5.937,-5.701 6.403,-5.575 6.311,-5.277 5.412,-2.389 3.079,-0.212 0.128,0.466 -0.174,0.535 -0.303,0.07 0,0" /></g><g
           transform="translate(77.7588,106.7041)"
           id="g348"><path
             id="path350"
             style="fill:#231f20;fill-opacity:1;fill-rule:evenodd;stroke:none"
             d="m 0,0 0.022,-0.578 c 0.363,0.013 0.726,-0.007 1.079,-0.066 l 0.096,0.572 C 0.8,-0.007 0.399,0.015 0,0" /></g><g
           transform="translate(75.668,106.3125)"
           id="g352"><path
             id="path354"
             style="fill:#231f20;fill-opacity:1;fill-rule:evenodd;stroke:none"
             d="m 0,0 0.174,-0.553 c 0.356,0.113 0.716,0.206 1.077,0.27 L 1.149,0.287 C 0.758,0.218 0.375,0.118 0,0" /></g><g
           transform="translate(73.7173,105.5537)"
           id="g356"><path
             id="path358"
             style="fill:#231f20;fill-opacity:1;fill-rule:evenodd;stroke:none"
             d="m 0,0 0.232,-0.53 c 0.352,0.153 0.703,0.302 1.055,0.44 L 1.078,0.45 C 0.713,0.308 0.355,0.155 0,0" /></g><g
           transform="translate(82.4043,103.0693)"
           id="g360"><path
             id="path362"
             style="fill:#231f20;fill-opacity:1;fill-rule:evenodd;stroke:none"
             d="m 0,0 -0.576,-0.06 c 0.035,-0.346 0.019,-0.697 -0.054,-1.034 l 0.566,-0.122 C 0.022,-0.816 0.042,-0.404 0,0" /></g><g
           transform="translate(81.6235,105.0859)"
           id="g364"><path
             id="path366"
             style="fill:#231f20;fill-opacity:1;fill-rule:evenodd;stroke:none"
             d="m 0,0 -0.464,-0.346 c 0.207,-0.278 0.371,-0.591 0.486,-0.921 l 0.547,0.193 C 0.435,-0.691 0.244,-0.327 0,0" /></g><g
           transform="translate(79.896,106.3779)"
           id="g368"><path
             id="path370"
             style="fill:#231f20;fill-opacity:1;fill-rule:evenodd;stroke:none"
             d="M 0,0 -0.208,-0.541 C 0.121,-0.665 0.43,-0.838 0.698,-1.054 L 1.058,-0.6 C 0.738,-0.344 0.379,-0.144 0,0" /></g><g
           transform="translate(80.8906,110.084)"
           id="g372"><path
             id="path374"
             style="fill:#231f20;fill-opacity:1;fill-rule:evenodd;stroke:none"
             d="m 0,0 -0.344,-0.466 c 0.227,-0.18 0.463,-0.35 0.676,-0.548 l 0.381,0.436 C 0.488,-0.37 0.241,-0.189 0,0" /></g><g
           transform="translate(79.4976,110.958)"
           id="g376"><path
             id="path378"
             style="fill:#231f20;fill-opacity:1;fill-rule:evenodd;stroke:none"
             d="m 0,0 -0.271,-0.512 c 0.257,-0.134 0.507,-0.28 0.75,-0.438 l 0.313,0.487 C 0.536,-0.296 0.271,-0.142 0,0" /></g><g
           transform="translate(77.9922,111.6094)"
           id="g380"><path
             id="path382"
             style="fill:#231f20;fill-opacity:1;fill-rule:evenodd;stroke:none"
             d="M 0,0 -0.188,-0.548 C 0.088,-0.633 0.353,-0.753 0.62,-0.862 l 0.235,0.529 C 0.572,-0.217 0.293,-0.09 0,0" /></g><g
           transform="translate(84.0938,106.3691)"
           id="g384"><path
             id="path386"
             style="fill:#231f20;fill-opacity:1;fill-rule:evenodd;stroke:none"
             d="m 0,0 -0.512,-0.27 c 0.126,-0.26 0.264,-0.515 0.367,-0.786 L 0.39,-0.831 C 0.28,-0.545 0.134,-0.274 0,0" /></g><g
           transform="translate(83.2153,107.7607)"
           id="g388"><path
             id="path390"
             style="fill:#231f20;fill-opacity:1;fill-rule:evenodd;stroke:none"
             d="m 0,0 -0.465,-0.345 c 0.173,-0.232 0.336,-0.471 0.487,-0.719 L 0.515,-0.76 C 0.355,-0.498 0.184,-0.245 0,0" /></g><g
           transform="translate(82.1436,109.001)"
           id="g392"><path
             id="path394"
             style="fill:#231f20;fill-opacity:1;fill-rule:evenodd;stroke:none"
             d="m 0,0 -0.409,-0.41 c 0.211,-0.198 0.397,-0.422 0.591,-0.638 l 0.442,0.375 C 0.419,-0.445 0.223,-0.21 0,0" /></g><g
           transform="translate(82.8931,102.6748)"
           id="g396"><path
             id="path398"
             style="fill:#df3b41;fill-opacity:1;fill-rule:nonzero;stroke:none"
             d="M 0,0 C 0.009,0.008 -0.029,0.021 -0.035,0.025 -0.036,0.008 0.01,-0.005 0,0" /></g><g
           transform="translate(82.8989,102.5254)"
           id="g400"><path
             id="path402"
             style="fill:#df3b41;fill-opacity:1;fill-rule:nonzero;stroke:none"
             d="M 0,0 C 0,0.008 -0.001,0.008 -0.001,0.008 0.001,0.013 0.004,-0.02 -0.004,-0.028 0.002,-0.021 0.001,-0.008 0,0" /></g><g
           transform="translate(82.7944,102.6104)"
           id="g404"><path
             id="path406"
             style="fill:#df3b41;fill-opacity:1;fill-rule:nonzero;stroke:none"
             d="M 0,0 C -0.036,-0.062 0.064,-0.048 0.071,-0.085 L 0.066,-0.099 c 0.013,0.014 0.025,0.03 0.035,0.045 C 0.086,-0.067 0.006,-0.028 0,0" /></g><g
           transform="translate(82.8364,102.7998)"
           id="g408"><path
             id="path410"
             style="fill:#df3b41;fill-opacity:1;fill-rule:nonzero;stroke:none"
             d="m 0,0 c -0.018,-0.021 -0.034,0.007 0.01,-0.026 l 0.002,0.007 C 0.01,-0.014 0.009,-0.014 0,0" /></g><g
           transform="translate(82.8486,102.7813)"
           id="g412"><path
             id="path414"
             style="fill:#df3b41;fill-opacity:1;fill-rule:nonzero;stroke:none"
             d="M 0,0 C 0.016,-0.017 0.009,0.025 0,0" /></g><g
           transform="translate(82.771,102.8682)"
           id="g416"><path
             id="path418"
             style="fill:#df3b41;fill-opacity:1;fill-rule:nonzero;stroke:none"
             d="M 0,0 0.039,-0.016 C 0.048,-0.001 0.035,0.026 0.05,0.023 0.021,0.045 0.011,0.03 0,0" /></g><g
           transform="translate(82.7109,102.8682)"
           id="g420"><path
             id="path422"
             style="fill:#df3b41;fill-opacity:1;fill-rule:nonzero;stroke:none"
             d="M 0,0 0.019,-0.01 C 0.022,-0.004 0.021,0.001 0,0" /></g><g
           transform="translate(82.7681,102.8379)"
           id="g424"><path
             id="path426"
             style="fill:#df3b41;fill-opacity:1;fill-rule:nonzero;stroke:none"
             d="M 0,0 -0.039,0.021 C -0.045,0.01 -0.063,-0.003 -0.022,0.01 -0.042,0.001 -0.021,0.006 0,0" /></g><g
           transform="translate(82.771,102.8145)"
           id="g428"><path
             id="path430"
             style="fill:#df3b41;fill-opacity:1;fill-rule:nonzero;stroke:none"
             d="M 0,0 C -0.002,-0.025 0.004,-0.052 -0.035,-0.036 0.01,-0.083 0.043,-0.049 0,0" /></g><g
           transform="translate(82.7324,102.5742)"
           id="g432"><path
             id="path434"
             style="fill:#df3b41;fill-opacity:1;fill-rule:nonzero;stroke:none"
             d="m 0,0 0.002,-0.033 0.033,0.001 C 0.018,-0.034 0.015,0.014 0,0" /></g><g
           transform="translate(82.687,103.0723)"
           id="g436"><path
             id="path438"
             style="fill:#df3b41;fill-opacity:1;fill-rule:nonzero;stroke:none"
             d="m 0,0 c -0.014,-0.006 -0.028,-0.03 -0.042,-0.042 l 0.027,-0.015 C -0.013,-0.04 -0.018,-0.013 0,0" /></g><g
           transform="translate(82.6445,103.0303)"
           id="g440"><path
             id="path442"
             style="fill:#df3b41;fill-opacity:1;fill-rule:nonzero;stroke:none"
             d="M 0,0 -0.042,0.021 C -0.026,-0.011 -0.013,-0.011 0,0" /></g><g
           transform="translate(82.6436,102.832)"
           id="g444"><path
             id="path446"
             style="fill:#df3b41;fill-opacity:1;fill-rule:nonzero;stroke:none"
             d="M 0,0 0.079,-0.025 -0.007,0.01 0,0 Z" /></g><g
           transform="translate(82.6118,103.2041)"
           id="g448"><path
             id="path450"
             style="fill:#df3b41;fill-opacity:1;fill-rule:nonzero;stroke:none"
             d="M 0,0 0.041,-0.003 -0.023,0.008 0,0 Z" /></g><g
           transform="translate(82.5566,103.291)"
           id="g452"><path
             id="path454"
             style="fill:#df3b41;fill-opacity:1;fill-rule:nonzero;stroke:none"
             d="M 0,0 C 0.033,-0.001 0.03,0.044 0.054,0.037 0.036,0.059 0.003,0.067 -0.026,0.076 -0.004,0.062 0.005,0.039 0,0" /></g><g
           transform="translate(82.4854,103.3828)"
           id="g456"><path
             id="path458"
             style="fill:#df3b41;fill-opacity:1;fill-rule:nonzero;stroke:none"
             d="M 0,0 C 0.011,-0.006 0.028,-0.011 0.045,-0.016 0.034,-0.009 0.02,-0.003 0,0" /></g><g
           transform="translate(82.5742,103.1143)"
           id="g460"><path
             id="path462"
             style="fill:#df3b41;fill-opacity:1;fill-rule:nonzero;stroke:none"
             d="M 0,0 C 0.006,0.007 0.023,0.023 0.021,0.048 L -0.007,0.014 0,0 Z" /></g><g
           transform="translate(82.5659,103.127)"
           id="g464"><path
             id="path466"
             style="fill:#df3b41;fill-opacity:1;fill-rule:nonzero;stroke:none"
             d="M 0,0 0.001,0.001 C -0.006,0.016 -0.011,0.026 -0.014,0.032 -0.014,0.032 -0.008,0.019 0,0" /></g><g
           transform="translate(82.5762,103.1104)"
           id="g468"><path
             id="path470"
             style="fill:#df3b41;fill-opacity:1;fill-rule:nonzero;stroke:none"
             d="M 0,0 -0.002,0.004 C -0.002,0.004 -0.005,-0.001 0,0" /></g><g
           transform="translate(82.6196,102.9395)"
           id="g472"><path
             id="path474"
             style="fill:#df3b41;fill-opacity:1;fill-rule:nonzero;stroke:none"
             d="M 0,0 C -0.031,0.008 -0.078,0.038 -0.084,-0.021 -0.051,-0.021 -0.047,0.013 0,0" /></g><g
           transform="translate(82.5415,103.0674)"
           id="g476"><path
             id="path478"
             style="fill:#df3b41;fill-opacity:1;fill-rule:nonzero;stroke:none"
             d="m 0,0 0.014,-0.041 c 0.008,0.006 0.018,0.02 0.034,0.017 L 0,0 Z" /></g><g
           transform="translate(82.5195,103.0791)"
           id="g480"><path
             id="path482"
             style="fill:#df3b41;fill-opacity:1;fill-rule:nonzero;stroke:none"
             d="M 0,0 0.022,-0.012 0.017,0.004 0,0 Z" /></g><g
           transform="translate(82.4878,103.2998)"
           id="g484"><path
             id="path486"
             style="fill:#df3b41;fill-opacity:1;fill-rule:nonzero;stroke:none"
             d="M 0,0 C -0.025,0.008 -0.036,0.024 -0.05,0.044 -0.045,0.018 -0.037,-0.007 -0.024,-0.027 -0.012,-0.024 0.014,-0.022 0,0" /></g><g
           transform="translate(82.5225,103.2139)"
           id="g488"><path
             id="path490"
             style="fill:#df3b41;fill-opacity:1;fill-rule:nonzero;stroke:none"
             d="M 0,0 -0.004,0.002 C -0.004,0.002 -0.006,-0.004 0,0" /></g><g
           transform="translate(82.3267,103.5449)"
           id="g492"><path
             id="path494"
             style="fill:#df3b41;fill-opacity:1;fill-rule:nonzero;stroke:none"
             d="M 0,0 -0.004,-0.007 0.002,-0.004 0,0 Z" /></g><g
           transform="translate(82.4585,103.2646)"
           id="g496"><path
             id="path498"
             style="fill:#df3b41;fill-opacity:1;fill-rule:nonzero;stroke:none"
             d="M 0,0 C 0.002,-0.021 0.017,-0.025 0.033,-0.028 0.022,-0.018 0.013,-0.007 0.005,0.008 -0.001,0.006 -0.004,0.004 0,0" /></g><g
           transform="translate(82.4375,103.4297)"
           id="g500"><path
             id="path502"
             style="fill:#df3b41;fill-opacity:1;fill-rule:nonzero;stroke:none"
             d="M 0,0 C -0.002,-0.015 -0.003,-0.027 -0.004,-0.039 0.002,-0.024 0.011,0.002 0,0" /></g><g
           transform="translate(82.5254,103.2275)"
           id="g504"><path
             id="path506"
             style="fill:#df3b41;fill-opacity:1;fill-rule:nonzero;stroke:none"
             d="M 0,0 0.003,-0.002 C 0.008,0.008 0.004,0.005 0,0" /></g><g
           transform="translate(82.5254,103.2275)"
           id="g508"><path
             id="path510"
             style="fill:#df3b41;fill-opacity:1;fill-rule:nonzero;stroke:none"
             d="m 0,0 c -0.01,0.005 -0.022,0.007 -0.034,0.009 0.008,-0.008 0.017,-0.015 0.027,-0.021 L 0,0 Z" /></g><g
           transform="translate(82.0615,103.4785)"
           id="g512"><path
             id="path514"
             style="fill:#df3b41;fill-opacity:1;fill-rule:nonzero;stroke:none"
             d="M 0,0 C 0.035,0.016 0.09,-0.011 0.074,-0.068 0.12,-0.092 0.217,-0.007 0.261,0.06 0.245,0.053 0.232,0.045 0.191,0.072 0.18,0.049 0.195,-0.035 0.147,-0.021 0.102,0.021 0.136,0.027 0.14,0.062 0.11,0.018 0.044,0.092 -0.011,0.047 L 0.035,0.016 C 0.026,0.009 0.002,0.017 0,0" /></g><g
           transform="translate(82.3584,103.4639)"
           id="g516"><path
             id="path518"
             style="fill:#df3b41;fill-opacity:1;fill-rule:nonzero;stroke:none"
             d="M 0,0 0.013,-0.014 C 0.009,0.008 0.015,0.027 0.028,0.065 -0.002,0.083 -0.018,0.081 -0.03,0.077 L 0.008,-0.003 0,0 Z" /></g><g
           transform="translate(82.4097,103.3809)"
           id="g520"><path
             id="path522"
             style="fill:#df3b41;fill-opacity:1;fill-rule:nonzero;stroke:none"
             d="m 0,0 c -0.043,-0.009 -0.079,0.021 -0.106,-0.024 0.028,-0.044 0.048,-0.015 0.079,-0.034 -0.05,0.069 0.032,-0.01 0.024,0.055 0.014,-0.012 0.023,-0.023 0.031,-0.034 L 0.023,0.01 0.022,0.007 l 0,-0.001 0,0 C 0.019,0 0.017,-0.002 0.018,0.003 L 0.016,0.004 C 0.01,0.002 0,0 0,0 -0.004,0.025 0.008,0.009 0.016,0.004 l 0.006,0.002 0,0.001 -0.061,0.062 C -0.035,0.051 -0.023,0.032 0,0" /></g><g
           transform="translate(82.4365,102.9111)"
           id="g524"><path
             id="path526"
             style="fill:#df3b41;fill-opacity:1;fill-rule:nonzero;stroke:none"
             d="M 0,0 0.007,0.007 C 0,0.009 -0.004,0.009 0,0" /></g><g
           transform="translate(82.4404,102.9531)"
           id="g528"><path
             id="path530"
             style="fill:#df3b41;fill-opacity:1;fill-rule:nonzero;stroke:none"
             d="M 0,0 C 0.008,-0.002 0.025,0.002 0.031,-0.018 0.029,-0.038 0.014,-0.027 0.003,-0.035 0.019,-0.04 0.05,-0.056 0.048,-0.013 L 0.041,-0.011 C 0.036,0.025 0.059,0.089 0.066,0.087 0.039,0.06 0.021,0.038 0,0" /></g><g
           transform="translate(82.4136,103.1641)"
           id="g532"><path
             id="path534"
             style="fill:#df3b41;fill-opacity:1;fill-rule:nonzero;stroke:none"
             d="M 0,0 -0.052,0.051 -0.066,0.002 -0.048,0.015 C -0.036,-0.024 -0.017,-0.004 0,0" /></g><g
           transform="translate(82.3413,103.5615)"
           id="g536"><path
             id="path538"
             style="fill:#df3b41;fill-opacity:1;fill-rule:nonzero;stroke:none"
             d="M 0,0 0.043,0.014 -0.031,0.02 0,0 Z" /></g><g
           transform="translate(82.2925,103.6396)"
           id="g540"><path
             id="path542"
             style="fill:#df3b41;fill-opacity:1;fill-rule:nonzero;stroke:none"
             d="M 0,0 0.035,0.016 0.003,0.025 0,0 Z" /></g><g
           transform="translate(78.4785,106.8984)"
           id="g544"><path
             id="path546"
             style="fill:#df3b41;fill-opacity:1;fill-rule:nonzero;stroke:none"
             d="M 0,0 -0.022,-0.005 C -0.012,-0.004 -0.005,-0.002 0,0" /></g><g
           transform="translate(78.6128,106.8535)"
           id="g548"><path
             id="path550"
             style="fill:#df3b41;fill-opacity:1;fill-rule:nonzero;stroke:none"
             d="M 0,0 0.01,0.017 C 0,0.01 -0.005,0.003 0,0" /></g><g
           transform="translate(81.0498,105.5596)"
           id="g552"><path
             id="path554"
             style="fill:#df3b41;fill-opacity:1;fill-rule:nonzero;stroke:none"
             d="M 0,0 C 0.008,0.046 0.028,0.108 -0.002,0.078 L -0.029,0.044 C -0.009,0.032 -0.002,0.017 0,0" /></g><g
           transform="translate(79.7607,106.4756)"
           id="g556"><path
             id="path558"
             style="fill:#df3b41;fill-opacity:1;fill-rule:nonzero;stroke:none"
             d="M 0,0 0,-0.016 0.04,0.005 0,0 Z" /></g><g
           transform="translate(79.6406,106.3477)"
           id="g560"><path
             id="path562"
             style="fill:#df3b41;fill-opacity:1;fill-rule:nonzero;stroke:none"
             d="M 0,0 -0.016,0.043 C -0.014,0.031 -0.009,0.017 0,0" /></g><g
           transform="translate(77.7217,107.0215)"
           id="g564"><path
             id="path566"
             style="fill:#df3b41;fill-opacity:1;fill-rule:nonzero;stroke:none"
             d="M 0,0 -0.027,-0.041 C 0.008,-0.043 -0.005,-0.021 0,0" /></g><g
           transform="translate(81.8062,104.4531)"
           id="g568"><path
             id="path570"
             style="fill:#df3b41;fill-opacity:1;fill-rule:nonzero;stroke:none"
             d="M 0,0 C 0,0.031 -0.004,0.053 -0.012,0.07 -0.016,0.03 -0.034,-0.011 0,0" /></g><g
           transform="translate(78.6768,107.3018)"
           id="g572"><path
             id="path574"
             style="fill:#df3b41;fill-opacity:1;fill-rule:nonzero;stroke:none"
             d="M 0,0 C -0.015,-0.003 -0.023,-0.009 -0.026,-0.019 -0.01,-0.016 0,-0.01 0,0" /></g><g
           transform="translate(81.7529,104.5879)"
           id="g576"><path
             id="path578"
             style="fill:#df3b41;fill-opacity:1;fill-rule:nonzero;stroke:none"
             d="M 0,0 -0.001,-0.018 C 0.015,-0.03 0.031,-0.043 0.041,-0.064 0.044,-0.035 0.039,-0.007 0,0" /></g><g
           transform="translate(74.9619,106.5518)"
           id="g580"><path
             id="path582"
             style="fill:#df3b41;fill-opacity:1;fill-rule:nonzero;stroke:none"
             d="M 0,0 -0.008,0.002 C -0.006,-0.004 0,0 0,0" /></g><g
           transform="translate(74.0034,106.5566)"
           id="g584"><path
             id="path586"
             style="fill:#df3b41;fill-opacity:1;fill-rule:nonzero;stroke:none"
             d="M 0,0 C 0.006,0.006 0.019,0.013 0.03,0.02 0.023,0.019 0.014,0.014 0,0" /></g><g
           transform="translate(82.1274,103.9727)"
           id="g588"><path
             id="path590"
             style="fill:#df3b41;fill-opacity:1;fill-rule:nonzero;stroke:none"
             d="M 0,0 C 0.012,-0.016 0.005,-0.001 0,0" /></g><g
           transform="translate(82.0298,103.8086)"
           id="g592"><path
             id="path594"
             style="fill:#df3b41;fill-opacity:1;fill-rule:nonzero;stroke:none"
             d="M 0,0 C -0.006,0.001 -0.013,0.001 -0.021,-0.004 -0.012,0 -0.005,0.001 0,0" /></g><g
           transform="translate(81.4277,104.6123)"
           id="g596"><path
             id="path598"
             style="fill:#df3b41;fill-opacity:1;fill-rule:nonzero;stroke:none"
             d="M 0,0 -0.001,0.002 C -0.004,-0.008 -0.004,-0.006 0,0" /></g><g
           transform="translate(82.1255,103.9375)"
           id="g600"><path
             id="path602"
             style="fill:#df3b41;fill-opacity:1;fill-rule:nonzero;stroke:none"
             d="M 0,0 -0.001,0.027 C -0.002,0.022 -0.002,0.014 0,0" /></g><g
           transform="translate(82.1406,103.9502)"
           id="g604"><path
             id="path606"
             style="fill:#df3b41;fill-opacity:1;fill-rule:nonzero;stroke:none"
             d="M 0,0 C 0.002,-0.007 0.005,-0.017 0.005,-0.017 0.013,-0.016 0.015,-0.011 0,0" /></g><g
           transform="translate(82.1118,103.9951)"
           id="g608"><path
             id="path610"
             style="fill:#df3b41;fill-opacity:1;fill-rule:nonzero;stroke:none"
             d="m 0,0 c 0.006,-0.01 0.01,-0.02 0.012,-0.03 l 0.004,0.008 C 0.012,-0.017 0.007,-0.01 0,0" /></g><g
           transform="translate(76.4038,107.1182)"
           id="g612"><path
             id="path614"
             style="fill:#df3b41;fill-opacity:1;fill-rule:nonzero;stroke:none"
             d="M 0,0 -0.004,0.003 C -0.021,-0.017 -0.013,-0.013 0,0" /></g><g
           transform="translate(80.3892,105.6572)"
           id="g616"><path
             id="path618"
             style="fill:#df3b41;fill-opacity:1;fill-rule:nonzero;stroke:none"
             d="M 0,0 0.003,0 0.002,0.003 0,0 Z" /></g><g
           transform="translate(80.3208,105.6846)"
           id="g620"><path
             id="path622"
             style="fill:#df3b41;fill-opacity:1;fill-rule:nonzero;stroke:none"
             d="M 0,0 C 0.057,0.016 0.064,-0.001 0.071,-0.024 L 0.144,0.074 0,0 Z" /></g><g
           transform="translate(76.1401,107.3828)"
           id="g624"><path
             id="path626"
             style="fill:#df3b41;fill-opacity:1;fill-rule:nonzero;stroke:none"
             d="M 0,0 0.015,-0.009 C -0.011,-0.028 -0.005,-0.015 0,0 m 5.863,-3.311 c 0.009,-0.002 0.014,0.002 0.018,0.007 -0.012,-0.002 -0.02,0.011 -0.026,0.028 -0.008,-0.01 -0.011,-0.022 0.008,-0.035 m -0.016,0.069 -0.002,0 c -10e-4,0.037 -10e-4,0.023 0.002,0 M 3.65,-1.045 C 3.633,-1.051 3.625,-1.034 3.622,-1.009 3.634,-1.015 3.645,-1.025 3.65,-1.045 m -0.976,0.451 c -0.016,-0.003 -0.052,-0.02 -0.051,0.009 0.035,0.043 0.036,0.015 0.051,-0.009 m -0.663,0.191 0.036,-0.045 c -0.068,-0.05 -0.101,-0.023 -0.072,-0.081 0.038,0.132 0.171,-0.03 0.212,0.092 l 0.021,-0.035 c -0.007,0.004 -0.011,-0.003 -0.019,0 0.039,-0.077 0.069,0.078 0.137,0.038 0.023,-0.017 0.035,-0.041 0.012,-0.05 l 0.068,0.013 C 2.421,-0.479 2.41,-0.499 2.395,-0.491 L 2.484,-0.51 2.482,-0.513 C 2.501,-0.498 2.54,-0.48 2.558,-0.474 2.573,-0.501 2.542,-0.482 2.542,-0.5 L 2.6,-0.49 C 2.606,-0.53 2.556,-0.544 2.526,-0.525 2.521,-0.666 2.577,-0.512 2.64,-0.622 l -0.049,0.003 c -0.002,-0.08 0.042,-0.07 0.071,-0.133 0,0.026 -0.05,0.148 0.013,0.157 0.01,-0.014 0.027,-0.027 0.065,-0.014 -0.019,-0.043 0.011,-0.044 0.046,-0.056 L 2.757,-0.72 c 0.042,0.001 0.054,0.032 0.087,0.047 C 2.879,-0.7 2.865,-0.747 2.855,-0.787 2.911,-0.829 2.849,-0.696 2.926,-0.726 2.965,-0.774 3.012,-0.771 3.091,-0.773 3.116,-0.812 3.066,-0.803 3.07,-0.825 L 3.126,-0.8 c 0.007,-0.005 -0.003,-0.016 -0.008,-0.022 0.036,0.002 0.034,0.051 0.085,0.043 0.049,0.053 0.03,-0.139 0.121,-0.107 0.003,-0.022 -0.027,-0.027 -0.036,-0.05 0.095,-0.003 0.078,-0.008 0.172,0.009 L 3.485,-0.992 C 3.477,-0.931 3.553,-0.916 3.621,-0.907 3.62,-0.88 3.62,-0.856 3.62,-0.845 L 3.704,-0.864 C 3.705,-0.878 3.686,-0.891 3.661,-0.902 L 3.681,-0.9 C 3.688,-0.936 3.656,-0.955 3.62,-0.97 l 10e-4,0.047 C 3.582,-0.941 3.543,-0.966 3.525,-0.997 c 0.008,0.003 0.02,0.003 0.03,0 -0.01,-0.006 -0.018,-0.012 -0.019,-0.018 -0.002,-0.006 0.012,0 0.032,0.006 L 3.54,-1.075 3.56,-1.056 3.61,-1.152 c 0.097,0.01 0.21,0.049 0.319,-0.001 C 3.874,-1.174 3.87,-1.212 3.83,-1.257 3.847,-1.188 3.745,-1.222 3.708,-1.176 3.728,-1.2 3.704,-1.218 3.692,-1.221 l 0.117,-0.02 C 3.775,-1.277 3.802,-1.283 3.81,-1.315 3.859,-1.229 3.91,-1.319 3.96,-1.327 3.94,-1.353 3.911,-1.37 3.878,-1.329 3.871,-1.422 4.009,-1.296 4.008,-1.38 3.998,-1.372 3.997,-1.363 3.982,-1.372 4.023,-1.371 4.06,-1.437 4.028,-1.446 L 4.019,-1.438 C 4.074,-1.502 4.202,-1.615 4.268,-1.57 4.261,-1.578 4.189,-1.631 4.174,-1.639 l 0.305,0.078 C 4.418,-1.599 4.329,-1.75 4.252,-1.726 4.258,-1.747 4.267,-1.773 4.313,-1.787 4.312,-1.771 4.366,-1.693 4.383,-1.703 4.36,-1.794 4.376,-1.758 4.37,-1.849 4.367,-1.823 4.466,-1.766 4.484,-1.794 4.469,-1.801 4.404,-1.867 4.388,-1.866 l 0.134,0.009 C 4.494,-1.854 4.45,-1.914 4.438,-1.948 4.449,-1.928 4.48,-2.003 4.502,-2.013 L 4.5,-1.97 c 0.045,-0.081 0.175,0.028 0.23,-0.048 -0.024,-0.004 -0.125,-0.065 -0.106,-0.108 0.058,0.02 0.268,0.091 0.352,0.05 L 4.96,-2.108 5.027,-2.138 C 4.936,-2.155 4.73,-2.175 4.642,-2.171 4.643,-2.213 4.618,-2.201 4.651,-2.24 4.638,-2.272 4.599,-2.246 4.588,-2.235 l 0.056,-0.106 c 0.048,0.044 0.106,-0.033 0.147,0.003 L 4.66,-2.275 c 0.048,0.044 0.191,0.051 0.234,-0.024 -0.008,-0.033 -0.103,-0.055 -0.12,-0.07 0.025,0.005 0.083,-0.039 0.075,-0.055 l -0.05,0.009 c 0.009,-0.052 0.117,-0.011 0.098,-0.094 0.008,-0.018 -0.036,-0.096 -0.002,-0.077 0.042,0.068 0.226,0.206 0.284,0.22 0,-0.009 0.002,-0.127 -0.015,-0.166 -0.03,-0.06 -0.143,-0.038 -0.168,-0.089 0.015,0.009 0.044,0.006 0.053,0.004 0,-0.026 -0.049,-0.024 -0.018,-0.056 0.059,0.03 0.047,-0.078 0.058,0.014 0.041,-0.027 0.016,-0.046 0.047,-0.087 0.027,0.037 0.146,0.04 0.186,0.013 C 5.306,-2.74 5.293,-2.761 5.288,-2.771 5.332,-2.851 5.333,-2.907 5.377,-2.979 5.368,-2.994 5.374,-3.038 5.34,-3.039 5.356,-3.043 5.381,-3.041 5.396,-3.063 5.374,-3.135 5.359,-3.018 5.32,-3.086 c 0.034,0.018 0.08,-0.03 0.119,-0.05 0.045,0.041 -0.034,0.08 -0.074,0.1 0.07,0.043 0.176,0.031 0.254,-0.026 C 5.673,-3.112 5.59,-3.115 5.606,-3.12 5.662,-3.241 5.788,-3.145 5.792,-3.271 5.769,-3.335 5.704,-3.324 5.676,-3.352 5.631,-3.312 5.661,-3.259 5.639,-3.226 l 0.004,-0.053 c -0.025,0.007 -0.056,0.033 -0.054,0.058 -0.02,-0.054 0.105,-0.198 0.119,-0.307 0.023,-0.008 0.055,-0.027 0.066,-0.003 l -0.023,0.024 c 0.022,0.047 0.081,-0.024 0.078,0.022 0.047,-0.024 0.111,-0.044 0.12,-0.109 L 5.903,-3.633 c 0.014,0.01 0.012,0.052 -0.012,0.059 0.035,-0.01 -0.025,-0.121 0.056,-0.109 l 0.015,0.058 c 0.048,-0.023 0.129,-0.04 0.139,-0.097 0.039,0.05 -0.012,0.008 0.029,0.075 -0.058,-0.071 -0.065,0.124 -0.116,0.033 0.049,0.073 -0.005,0.076 0.029,0.155 -0.016,-0.012 -0.023,-0.035 -0.037,0.01 l -0.02,0 -10e-4,0.004 -0.001,-0.004 0,-0.001 C 5.982,-3.464 5.978,-3.477 5.97,-3.484 5.92,-3.487 5.885,-3.423 5.853,-3.413 5.847,-3.385 5.877,-3.412 5.888,-3.389 L 5.84,-3.374 c 0.035,0.024 0.026,0.099 0.08,0.056 l -0.027,0.05 c 0.004,0.042 -0.011,0.088 -0.041,0.104 -0.005,0.028 -0.077,0.035 -0.035,0.031 l -0.07,0.065 0.009,0.006 c -0.043,0.081 -0.155,0.122 -0.144,0.249 -0.026,0.021 -0.054,0.04 -0.071,0.089 l 0.026,0.029 c -0.032,0.026 -0.031,0.119 -0.073,0.112 0.063,0.092 -0.088,0.171 -0.112,0.237 L 5.34,-2.371 C 5.315,-2.33 5.278,-2.301 5.229,-2.264 L 5.196,-2.292 c -0.057,0.021 -0.052,0.123 -0.104,0.186 0.017,0.004 0.026,-0.014 0.027,-0.032 0.02,0.136 -0.179,0.119 -0.175,0.232 -0.026,0.007 -0.031,0.022 -0.033,0.041 L 4.917,-1.868 C 4.914,-1.864 4.911,-1.861 4.911,-1.861 L 4.91,-1.823 C 4.907,-1.837 4.906,-1.849 4.908,-1.857 4.896,-1.845 4.876,-1.829 4.852,-1.816 l 0.029,0.037 -0.005,0.004 C 4.874,-1.745 4.847,-1.774 4.828,-1.807 4.814,-1.802 4.8,-1.799 4.785,-1.799 4.831,-1.735 4.725,-1.766 4.769,-1.692 4.728,-1.705 4.667,-1.615 4.596,-1.66 4.603,-1.652 4.602,-1.644 4.611,-1.653 4.6,-1.627 4.588,-1.601 4.554,-1.598 L 4.59,-1.55 4.49,-1.56 c 0.002,0.052 0.006,0.078 0.065,0.081 -0.112,0.017 -0.069,0.036 -0.17,0.042 l 0.031,0.024 c -0.02,0.018 -0.085,0.014 -0.074,0.048 0.008,0.093 -0.206,0.211 -0.277,0.364 -0.05,-0.103 -0.023,0.084 -0.084,0.022 0.01,0.026 0.002,0.051 0.037,0.053 -0.078,0.03 -0.067,0.109 -0.155,0.085 0.009,0.028 0.037,0.021 0.04,0.038 -0.008,-0.001 -0.033,-0.003 -0.03,0.016 0.003,0.017 0.023,0.01 0.04,0.011 -0.067,0.048 -0.123,-0.012 -0.174,-0.07 -0.009,0.056 -0.03,0.063 -0.084,0.038 0.003,0.029 -10e-4,0.063 0.046,0.042 -0.021,0.019 -0.122,0.128 -0.159,0.079 0.001,0.017 -0.03,0.026 -0.04,0.024 -0.05,0.038 -0.052,0.046 -0.106,0.076 l 0.009,-0.018 c -0.06,-0.049 -0.051,0.015 -0.1,0.031 l 0.006,0.006 C 3.238,-0.467 3.255,-0.566 3.186,-0.459 L 3.169,-0.502 c -0.057,-0.083 -0.059,0.1 -0.134,0.098 l 0.008,-0.035 c -0.045,-0.013 -0.026,0.169 -0.057,0.194 -0.004,0.011 0.018,0.008 0.031,0.009 -0.064,0.091 -0.038,-0.05 -0.109,-0.035 10e-4,0.036 0.05,0.069 0.008,0.094 C 2.903,-0.143 2.745,-0.219 2.708,-0.135 2.712,-0.164 2.716,-0.193 2.679,-0.198 2.631,-0.185 2.584,-0.058 2.513,-0.121 2.509,-0.112 2.509,-0.105 2.511,-0.1 2.467,-0.107 2.38,-0.095 2.345,-0.129 2.355,0.035 2.099,-0.132 2.134,0.004 L 2.016,0.02 2.022,0.033 C 1.949,0.058 1.915,0.027 1.883,-0.002 1.868,0.011 1.882,0.022 1.885,0.029 1.781,0.078 1.768,0.079 1.667,0.017 L 1.664,0.064 C 1.637,0.039 1.511,0.151 1.397,0.104 1.399,0.11 1.401,0.119 1.411,0.125 1.288,0.084 1.117,0.273 1.072,0.094 L 0.993,0.048 C 1.096,0.038 0.979,-0.028 1.021,-0.056 0.983,-0.067 0.917,-0.006 0.966,0.004 L 0.974,-0.004 C 0.99,0.087 0.846,0.024 0.845,0.086 0.641,0.083 0.44,0.085 0.248,0.069 L 0.281,0.002 0.215,-0.003 C 0.194,0.011 0.182,0.048 0.229,0.052 0.197,0.088 0.156,0.008 0.158,-0.007 0.062,0.001 0.178,0.081 0.15,0.076 L 0.113,0.063 0.123,0.058 C 0.098,0.021 0.101,-0.009 0.045,-0.019 0.007,-0.014 0.018,0.02 0.004,0.019 0.003,0.023 -0.002,0.025 -0.018,0.016 l -0.083,-0.014 0.045,-0.047 c -0.03,-0.035 -0.077,-0.015 -0.026,-0.067 -0.076,0.081 -0.31,-0.038 -0.351,-0.019 -0.038,-0.055 -0.086,-0.07 -0.147,-0.086 0.018,-0.006 0.046,-0.063 -0.007,-0.073 -0.021,0.13 -0.111,0.022 -0.183,0.096 0.058,-0.045 -0.142,-0.064 -0.054,-0.127 -0.047,-0.004 -0.019,0.045 -0.062,0.062 -0.087,-0.078 -0.237,-0.049 -0.353,-0.12 0.005,-0.017 0.035,-0.032 0.019,-0.066 l -0.098,0.049 c -0.021,-0.017 0.016,-0.099 -0.051,-0.064 0.012,-0.011 0.03,-0.026 0.015,-0.038 -0.278,-0.023 -0.452,-0.281 -0.756,-0.269 0.047,-0.012 0.027,-0.026 0.004,-0.04 0.019,0.001 0.019,-0.037 0.033,-0.055 l -0.128,0.005 c 0.013,-0.066 -0.103,-0.06 -0.084,-0.119 l 0.026,0.027 c -0.006,-0.085 0.135,-0.111 0.173,-0.195 0.006,0.096 0.176,-0.044 0.194,0.097 0.025,-0.008 0,-0.033 0.019,-0.048 0,0.045 0.019,0.065 0.069,0.071 l 0,-0.012 c 0.114,0.069 0.18,0.064 0.325,0.104 l -0.03,0.037 c 0.031,0.007 0.044,-0.003 0.062,-0.007 0.005,0.077 -0.083,-0.033 -0.086,0.049 0.079,-0.067 0.208,0.089 0.277,0.003 0.045,0.02 -0.035,0.043 0.011,0.062 l 0.023,-0.021 -0.003,0.039 c 0.032,0.007 0.06,-0.019 0.071,-0.042 -0.008,0 -0.017,-0.014 -0.024,-0.019 0.051,-0.015 0.102,0.057 0.119,0.052 l -0.049,-0.002 c 0.111,0.081 0.274,0.106 0.377,0.197 l -0.016,0.018 c 0.08,0.069 0.082,0.003 0.179,0.054 l -0.003,-0.006 c 0.014,0.028 0.038,0.047 0.067,0.054 -0.018,-0.033 0.063,-0.03 0.038,-0.068 0.088,0.075 0.039,0.049 0.084,0.148 l 0.025,-0.029 c 0.014,0.039 0.012,0.054 0.062,0.076 -0.035,-0.04 0.048,-0.045 0.011,-0.095 0.129,-0.049 0.143,0.116 0.221,0.016 0.027,0.108 -0.108,0.031 -0.085,0.059 -0.032,0.025 0.024,0.082 0.061,0.08 0.037,0.006 0.089,-0.109 0.176,-0.086 C 0.08,-0.365 0.081,-0.372 0.072,-0.374 0.11,-0.391 0.13,-0.325 0.178,-0.355 0.189,-0.291 0.231,-0.347 0.224,-0.271 0.197,-0.28 0.171,-0.295 0.146,-0.307 0.187,-0.274 0.215,-0.179 0.301,-0.212 0.297,-0.229 0.277,-0.251 0.264,-0.265 0.29,-0.284 0.305,-0.244 0.332,-0.264 0.338,-0.341 0.234,-0.291 0.196,-0.36 c 0.03,-0.024 0.084,0.068 0.074,-0.015 0.017,0.108 0.088,-0.002 0.136,0.086 l 0.003,-0.046 c 0.008,0.009 0.025,0.032 0.042,0.034 L 0.428,-0.364 c 0.041,0.056 0.099,-0.032 0.141,0.003 -0.096,-0.015 -0.028,0.051 -0.074,0.079 0.114,0.077 0.084,-0.11 0.213,-0.07 -0.017,-0.008 -0.07,0.018 -0.043,0.043 0.026,-0.005 0.061,-0.017 0.079,-0.041 0.087,0.012 -0.018,0.047 0.018,0.076 0.034,-0.055 0.042,0.024 0.081,0.043 l 0.003,-0.046 c 0.103,-0.027 0.022,0.097 0.116,0.064 L 0.926,-0.278 0.973,-0.261 0.965,-0.313 c 0.05,0.041 0.067,0.031 0.118,0.017 -0.012,0.033 0.006,0.085 0.052,0.088 C 1.166,-0.234 1.117,-0.253 1.182,-0.244 1.167,-0.273 1.151,-0.311 1.123,-0.269 L 1.106,-0.313 c 0.033,-0.032 0.082,-0.004 0.105,-0.004 -0.008,0.003 -0.019,0.004 -0.024,0.01 0.031,0.025 0.062,0.039 0.094,0.06 0.013,-0.019 0.001,-0.031 -0.01,-0.044 0.018,0.003 0.032,0.023 0.06,0.025 -0.009,-0.037 -0.01,-0.076 -0.048,-0.09 l 0.088,0.034 C 1.376,-0.339 1.413,-0.37 1.4,-0.384 c 0.045,-0.025 0.123,0.065 0.184,0.03 0.005,0.007 0.012,0.014 0.026,0.018 0.06,-0.01 0.103,-0.072 0.182,-0.032 l 0.027,-0.075 c 0.057,0.005 -0.038,0.094 0.058,0.102 0.07,0.009 0.013,-0.061 0.032,-0.084 0.038,0.028 0.111,0.084 0.157,0.02 -0.023,-0.009 -0.035,0.004 -0.055,0.002" /></g><g
           transform="translate(79.6548,106.3623)"
           id="g628"><path
             id="path630"
             style="fill:#df3b41;fill-opacity:1;fill-rule:nonzero;stroke:none"
             d="M 0,0 C 0.001,0.009 0.006,0.016 0.01,0.023 0.001,0.021 -0.004,0.013 0,0" /></g><g
           transform="translate(77.7266,107.0283)"
           id="g632"><path
             id="path634"
             style="fill:#df3b41;fill-opacity:1;fill-rule:nonzero;stroke:none"
             d="M 0,0 -0.002,0.001 -0.005,-0.007 0,0 Z" /></g><g
           transform="translate(81.1309,104.7266)"
           id="g636"><path
             id="path638"
             style="fill:#df3b41;fill-opacity:1;fill-rule:nonzero;stroke:none"
             d="M 0,0 C -0.002,0.015 0.001,0.025 0.005,0.035 -0.004,0.029 -0.009,0.019 0,0" /></g><g
           transform="translate(82.2446,103.8057)"
           id="g640"><path
             id="path642"
             style="fill:#df3b41;fill-opacity:1;fill-rule:nonzero;stroke:none"
             d="M 0,0 -0.031,0.031 C -0.019,0.015 -0.024,0.003 -0.026,-0.01 -0.017,-0.003 -0.007,0.012 0,0" /></g><g
           transform="translate(82.1699,103.3457)"
           id="g644"><path
             id="path646"
             style="fill:#df3b41;fill-opacity:1;fill-rule:nonzero;stroke:none"
             d="m 0,0 c 0.008,-0.002 0.007,-0.011 0.015,-0.014 l 0.018,0.013 C 0.019,0.021 -0.005,0.028 0,0" /></g><g
           transform="translate(82.1284,103.6963)"
           id="g648"><path
             id="path650"
             style="fill:#df3b41;fill-opacity:1;fill-rule:nonzero;stroke:none"
             d="M 0,0 C -0.032,-0.021 -0.008,-0.038 0.013,-0.061 L 0.01,-0.057 C 0.062,-0.037 0.031,-0.019 0,0" /></g><g
           transform="translate(82.1455,103.6299)"
           id="g652"><path
             id="path654"
             style="fill:#df3b41;fill-opacity:1;fill-rule:nonzero;stroke:none"
             d="M 0,0 C 0.006,-0.007 0.012,-0.015 0.014,-0.023 0.035,-0.016 0.013,-0.012 0,0" /></g><g
           transform="translate(82.0674,104.0127)"
           id="g656"><path
             id="path658"
             style="fill:#df3b41;fill-opacity:1;fill-rule:nonzero;stroke:none"
             d="M 0,0 C -0.002,-0.018 0.048,0.017 0.038,0.002 0.089,0.013 -0.062,0.054 0,0" /></g><g
           transform="translate(82.0273,103.6133)"
           id="g660"><path
             id="path662"
             style="fill:#df3b41;fill-opacity:1;fill-rule:nonzero;stroke:none"
             d="M 0,0 0.037,0.032 -0.005,0.027 0,0 Z" /></g><g
           transform="translate(81.9448,103.833)"
           id="g664"><path
             id="path666"
             style="fill:#df3b41;fill-opacity:1;fill-rule:nonzero;stroke:none"
             d="M 0,0 0.012,-0.047 C 0.019,-0.043 0.025,-0.046 0.032,-0.05 0.02,-0.023 0.012,0.009 0,0" /></g><g
           transform="translate(81.9771,103.7832)"
           id="g668"><path
             id="path670"
             style="fill:#df3b41;fill-opacity:1;fill-rule:nonzero;stroke:none"
             d="M 0,0 C 0.006,-0.014 0.015,-0.026 0.025,-0.029 0.021,-0.022 0.011,-0.008 0,0" /></g><g
           transform="translate(81.9834,103.6621)"
           id="g672"><path
             id="path674"
             style="fill:#df3b41;fill-opacity:1;fill-rule:nonzero;stroke:none"
             d="M 0,0 0.002,0.017 -0.011,0.048 0,0 Z" /></g><g
           transform="translate(81.6978,104.2764)"
           id="g676"><path
             id="path678"
             style="fill:#df3b41;fill-opacity:1;fill-rule:nonzero;stroke:none"
             d="M 0,0 -0.039,0.037 C -0.055,0.033 -0.057,0.016 -0.042,0.003 -0.025,-0.002 -0.01,-0.015 0,0" /></g><g
           transform="translate(81.6636,104.0752)"
           id="g680"><path
             id="path682"
             style="fill:#df3b41;fill-opacity:1;fill-rule:nonzero;stroke:none"
             d="M 0,0 C 0.001,0.018 0.01,0.023 0.02,0.038 L -0.032,0.009 0,0 Z" /></g><g
           transform="translate(81.5752,104.1963)"
           id="g684"><path
             id="path686"
             style="fill:#df3b41;fill-opacity:1;fill-rule:nonzero;stroke:none"
             d="M 0,0 C -0.017,-0.004 -0.079,0.038 -0.043,-0.015 -0.026,-0.011 0.012,-0.048 0,0" /></g><g
           transform="translate(81.2217,104.8848)"
           id="g688"><path
             id="path690"
             style="fill:#df3b41;fill-opacity:1;fill-rule:nonzero;stroke:none"
             d="M 0,0 0.008,-0.011 0.088,0.047 0,0 Z" /></g><g
           transform="translate(80.6309,105.2793)"
           id="g692"><path
             id="path694"
             style="fill:#df3b41;fill-opacity:1;fill-rule:nonzero;stroke:none"
             d="M 0,0 C 0.02,-0.06 0.056,0.027 0.067,-0.032 0.095,-0.028 0.058,0.017 0.083,0.019 0.041,0.03 0.04,0.054 0,0" /></g><g
           transform="translate(80.7139,105.2979)"
           id="g696"><path
             id="path698"
             style="fill:#df3b41;fill-opacity:1;fill-rule:nonzero;stroke:none"
             d="M 0,0 C 0.006,-0.001 0.013,-0.003 0.023,-0.005 0.012,-0.001 0.005,0 0,0" /></g><g
           transform="translate(73.8486,106.5352)"
           id="g700"><path
             id="path702"
             style="fill:#df3b41;fill-opacity:1;fill-rule:nonzero;stroke:none"
             d="M 0,0 -0.045,-0.001 -0.006,-0.018 0,0 Z" /></g><g
           transform="translate(73.8164,106.4355)"
           id="g704"><path
             id="path706"
             style="fill:#df3b41;fill-opacity:1;fill-rule:nonzero;stroke:none"
             d="M 0,0 -0.039,0.051 -0.032,-0.01 C -0.026,-0.004 -0.013,0.01 0,0" /></g><g
           transform="translate(78.8555,106.6348)"
           id="g708"><path
             id="path710"
             style="fill:#df3b41;fill-opacity:1;fill-rule:nonzero;stroke:none"
             d="m 0,0 0.009,0.013 c 0.002,0.016 -0.006,0.02 -0.02,0.03 L 0,0 Z" /></g><g
           transform="translate(78.4155,106.8535)"
           id="g712"><path
             id="path714"
             style="fill:#df3b41;fill-opacity:1;fill-rule:nonzero;stroke:none"
             d="M 0,0 0.008,-0.004 0.01,0.055 0,0 Z" /></g><g
           transform="translate(78.0015,106.8848)"
           id="g716"><path
             id="path718"
             style="fill:#df3b41;fill-opacity:1;fill-rule:nonzero;stroke:none"
             d="M 0,0 C 0.016,-0.006 0.038,0.003 0.054,-0.002 0.016,-0.006 0.009,0.07 0,0" /></g><g
           transform="translate(78.7339,111.1035)"
           id="g720"><path
             id="path722"
             style="fill:none;stroke:#da1f26;stroke-width:0.28999999;stroke-linecap:butt;stroke-linejoin:miter;stroke-miterlimit:10;stroke-dasharray:none;stroke-opacity:1"
             d="M 0,0 C 0,0 4.254,-2.331 4.342,-3.501" /></g><g
           transform="translate(91.9697,182.1362)"
           id="g724"><path
             id="path726"
             style="fill:#eed518;fill-opacity:1;fill-rule:nonzero;stroke:none"
             d="M 0,0 C 1.195,0.369 3.841,0.618 4.554,1.837 5.062,2.705 4.525,3.802 3.629,4.119 2.36,4.568 1.608,3.4 0.861,2.615 -0.645,1.035 -2.675,0.217 -4.839,0.15 c 0.289,-0.697 0.578,-1.395 0.867,-2.092 0.506,0.579 0.962,1.018 1.605,1.463 1.294,0.894 0.182,2.836 -1.237,2.117 C -5.086,0.887 -6.199,-0.18 -7.056,-1.596 -7.56,-2.43 -6.898,-3.39 -5.997,-3.441 -5.645,-3.46 -5.292,-3.48 -4.94,-3.5 c 1.576,-0.089 1.571,2.363 0,2.452 -0.352,0.019 -0.705,0.039 -1.057,0.059 0.352,-0.615 0.705,-1.23 1.058,-1.844 0.653,1.079 1.463,1.792 2.572,2.354 -0.412,0.706 -0.824,1.411 -1.237,2.117 -0.788,-0.545 -1.47,-1.124 -2.102,-1.847 -0.662,-0.758 -0.257,-2.127 0.867,-2.092 1.604,0.05 3.148,0.377 4.59,1.093 0.622,0.31 1.204,0.685 1.75,1.112 C 1.888,0.207 2.255,0.525 2.594,0.882 2.734,1.019 2.865,1.165 2.985,1.32 3.452,1.73 3.214,2.109 2.27,2.457 2.472,2.809 2.675,3.162 2.877,3.515 1.873,2.928 0.461,2.708 -0.652,2.364 -2.155,1.9 -1.514,-0.467 0,0" /></g><g
           transform="translate(100.1372,187.4038)"
           id="g728"><path
             id="path730"
             style="fill:#eed518;fill-opacity:1;fill-rule:nonzero;stroke:none"
             d="M 0,0 C 1.578,0 1.58,2.452 0,2.452 -1.578,2.452 -1.58,0 0,0" /></g></g></g><g
       id="text732"
       style="font-variant:normal;font-weight:normal;font-stretch:normal;font-size:16.12477493px;font-family:'Museo 500';-inkscape-font-specification:Museo-500;writing-mode:lr-tb;fill:#231f20;fill-opacity:1;fill-rule:nonzero;stroke:none"
       transform="matrix(0.95138697,0.30799811,0.30799811,-0.95138697,100.8717,36.7564)"><path
         id="path737"
         style=""
         d="m 4.3214397,0 1.6124775,0 0,-9.9973605 2.289718,0 c 0.2257469,0 0.3547451,0.1128735 0.3547451,0.3547451 l 0,0.7256149 1.4351047,0 0,-1.4996045 c 0,-0.725614 -0.2418714,-0.967486 -0.9674863,-0.967486 l -7.8366406,0 c -0.72561485,0 -0.96748648,0.241872 -0.96748648,0.967486 l 0,1.4996045 1.43510498,0 0,-0.7256149 c 0,-0.2418716 0.1289982,-0.3547451 0.354745,-0.3547451 l 2.2897181,0 0,9.9973605 z" /><path
         id="path739"
         style=""
         d="m 10.900347,0 1.564103,0 0,-3.3378284 c 0,-0.499868 0.04838,-0.9997361 0.193498,-1.4673545 0.370869,-1.2093581 1.289982,-1.9188482 2.289718,-1.9188482 0.257996,0 0.467618,0.048374 0.467618,0.048374 l 0,-1.5479784 c 0,0 -0.209622,-0.03225 -0.419244,-0.03225 -1.257732,0 -2.192969,0.935237 -2.579964,2.1284703 l -0.03225,0 c 0,0 0.03225,-0.2418716 0.03225,-0.5643671 l 0,-0.5159928 c 0,-0.6611158 -0.33862,-0.9513617 -1.04811,-0.9513617 l -1.4834797,0 0,1.3383563 0.6611157,0 c 0.225747,0 0.354745,0.1128734 0.354745,0.3547451 l 0,6.4660347 z" /><path
         id="path741"
         style=""
         d="m 17.253508,-9.7554888 1.402856,0 0,-1.6286022 -1.402856,0 0,1.6286022 z m -0.03225,8.7235032 C 17.221259,-0.30637072 17.52763,0 18.253244,0 l 1.531854,0 0,-1.3383563 -0.661116,0 c -0.225747,0 -0.354745,-0.1128734 -0.354745,-0.3547451 l 0,-5.4340491 c 0,-0.7256149 -0.306371,-1.0319856 -1.031985,-1.0319856 l -1.531854,0 0,1.3383563 0.661116,0 c 0.225747,0 0.354745,0.1128734 0.354745,0.3547451 l 0,5.4340491 z" /><path
         id="path743"
         style=""
         d="m 21.574948,3.224955 1.564103,0 0,-3.62807437 c 0,-0.41924415 -0.03225,-0.70949013 -0.03225,-0.70949013 l 0.03225,0 c 0,0 0.693365,1.3061068 2.49934,1.3061068 2.12847,0 3.708698,-1.6769766 3.708698,-4.2730654 0,-2.5315896 -1.402855,-4.2730653 -3.595825,-4.2730653 -2.031721,0 -2.708962,1.4512297 -2.708962,1.4512297 l -0.03225,0 c 0,0 0.01613,-0.1934973 0.01613,-0.4353689 0,-0.5159928 -0.274122,-0.8223635 -0.999737,-0.8223635 l -1.467354,0 0,1.3383563 0.661116,0 c 0.225747,0 0.354745,0.1128734 0.354745,0.3547451 l 0,9.6909897 z m 1.515729,-7.2722735 c 0,-2.080096 1.144859,-2.934709 2.354217,-2.934709 1.354481,0 2.305843,1.144859 2.305843,2.9185842 0,1.8543491 -1.064236,2.9185843 -2.354218,2.9185843 -1.515728,0 -2.305842,-1.4512298 -2.305842,-2.9024595 z" /><path
         id="path745"
         style=""
         d="M 31.136938,-1.0319856 C 31.136938,-0.30637072 31.443309,0 32.168924,0 l 1.547978,0 0,-1.3383563 -0.661115,0 c -0.225747,0 -0.354745,-0.1128734 -0.354745,-0.3547451 l 0,-8.6590046 c 0,-0.725614 -0.306371,-1.031985 -1.031986,-1.031985 l -1.547978,0 0,1.338356 0.661115,0 c 0.225747,0 0.354745,0.1128736 0.354745,0.3547453 l 0,8.6590041 z" /><path
         id="path747"
         style=""
         d="m 34.700514,-4.0795681 c 0,2.4187163 1.7576,4.2730654 4.337564,4.2730654 1.934973,0 3.144331,-1.19323335 3.144331,-1.19323335 l -0.67724,-1.11260945 c 0,0 -0.983612,0.9513617 -2.386467,0.9513617 -1.45123,0 -2.708962,-0.9836113 -2.805711,-2.725087 l 5.950042,0 c 0,0 0.04837,-0.4353689 0.04837,-0.644991 0,-2.1123455 -1.225482,-3.8215716 -3.5152,-3.8215716 -2.321968,0 -4.095693,1.6769766 -4.095693,4.2730653 z m 1.676976,-0.9513617 c 0.241872,-1.3544811 1.209358,-2.0800959 2.402592,-2.0800959 1.015861,0 1.870474,0.7256148 1.918848,2.0800959 l -4.32144,0 z" /><path
         id="path749"
         style=""
         d="m 49.019315,0 1.612478,0 0,-4.2085663 2.354217,0 c 2.080096,0 3.563575,-1.4512297 3.563575,-3.6119495 0,-2.1607199 -1.483479,-3.5635752 -3.563575,-3.5635752 l -5.014805,0 0,1.3867305 1.04811,0 0,9.9973605 z m 1.612478,-5.5952969 0,-4.4020636 2.112345,0 c 1.322232,0 2.144595,0.8062388 2.144595,2.1768447 0,1.3706058 -0.822363,2.2252189 -2.16072,2.2252189 l -2.09622,0 z" /><path
         id="path751"
         style=""
         d="M 58.242684,-1.0319856 C 58.242684,-0.30637072 58.549054,0 59.274669,0 l 1.547979,0 0,-1.3383563 -0.661116,0 c -0.225747,0 -0.354745,-0.1128734 -0.354745,-0.3547451 l 0,-8.6590046 c 0,-0.725614 -0.306371,-1.031985 -1.031986,-1.031985 l -1.547978,0 0,1.338356 0.661116,0 c 0.225747,0 0.354745,0.1128736 0.354745,0.3547453 l 0,8.6590041 z" /><path
         id="path753"
         style=""
         d="m 61.822386,-2.289718 c 0,1.62860223 1.370606,2.4832153 2.773461,2.4832153 1.951098,0 2.596089,-1.6124775 2.596089,-1.6124775 l 0.03225,0 c 0,0 -0.03225,0.2096221 -0.03225,0.48374325 C 67.191936,-0.35474505 67.482182,0 68.207797,0 l 1.467354,0 0,-1.3383563 -0.661116,0 c -0.225747,0 -0.354745,-0.1128734 -0.354745,-0.3547451 l 0,-3.4668266 c 0,-1.8059748 -0.70949,-3.1927054 -3.353953,-3.1927054 -0.790114,0 -2.821836,0.1934973 -2.821836,1.5318536 l 0,0.8062388 1.467355,0 0,-0.4676185 c 0,-0.5321176 0.951362,-0.6288662 1.338356,-0.6288662 1.273858,0 1.805975,0.5159928 1.805975,1.9510977 l 0,0.080624 -0.354745,0 c -1.370606,0 -4.918056,0.1612477 -4.918056,2.7895861 z m 1.580228,-0.080624 c 0,-1.4996041 2.12847,-1.5641032 3.305579,-1.5641032 l 0.403119,0 0,0.2741212 c 0,1.2093581 -0.854613,2.5960888 -2.176845,2.5960888 -1.031985,0 -1.531853,-0.644991 -1.531853,-1.3061068 z" /><path
         id="path755"
         style=""
         d="M 70.545889,1.4512297 69.900898,2.579964 c 0,0 0.70949,0.8062387 1.918848,0.8062387 1.144859,0 2.128471,-0.6611157 2.628339,-1.9188482 l 3.224955,-7.9656388 c 0.112873,-0.2579964 0.257996,-0.3224955 0.515993,-0.3224955 l 0.209622,0 0,-1.3383563 -0.935237,0 c -0.661116,0 -0.951362,0.1773725 -1.193234,0.8223635 l -1.693101,4.5955609 c -0.161248,0.4192441 -0.274121,0.9836112 -0.274121,0.9836112 l -0.03225,0 c 0,0 -0.128998,-0.5643671 -0.290246,-0.9836112 l -1.854349,-4.5955609 c -0.257996,-0.644991 -0.499868,-0.8223635 -1.160984,-0.8223635 l -0.919112,0 0,1.3383563 0.193498,0 c 0.257996,0 0.403119,0.064499 0.515992,0.3224955 l 2.789586,6.46603475 -0.370869,0.88686262 C 72.867857,1.5802279 72.367989,2.0317216 71.739123,2.0317216 c -0.693366,0 -1.193234,-0.5643671 -1.193234,-0.5804919 z" /></g></g></svg>