<svg width="34" height="26" viewBox="0 0 34 26" fill="none" xmlns="http://www.w3.org/2000/svg">
<path d="M33.2588 21.9765V4.15354C33.2588 3.7035 32.894 3.33867 32.444 3.33867H0.814869C0.364828 3.33867 0 3.7035 0 4.15354V21.9765C0 22.4266 0.36483 22.7914 0.814871 22.7914H9.72592C11.4553 22.7914 13.5014 23.8949 14.9205 24.8263C15.9497 25.5018 17.3511 25.4774 18.4102 24.8498C19.9903 23.9136 22.5657 22.7914 25.8339 22.7914H32.4446C32.8946 22.7914 33.2588 22.4266 33.2588 21.9765Z" fill="#6174E3"/>
<path fill-rule="evenodd" clip-rule="evenodd" d="M10.8348 0.274078H2.6445V19.4688H10.0878C13.7208 19.4688 16.6747 22.3209 16.6747 22.3209C16.6747 22.3209 18.6515 19.4688 24.084 19.4688H30.3313V0.274078H26.527C21.1334 0.274106 18.0705 0.274078 16.6747 2.85451C15.9956 1.32662 13.0078 0.274078 10.8348 0.274078Z" fill="white"/>
<path d="M30.3313 0.274078V19.4688H24.084C18.6515 19.4688 16.6747 22.3209 16.6747 22.3209C16.6747 22.3209 13.7208 19.4688 10.0878 19.4688H2.6445V0.274078V20.5151C2.6445 20.5151 6.86039 20.5151 10.0878 20.5151C12.5867 20.5151 14.7429 22.095 15.8602 23.0982C16.2903 23.4844 17.0158 23.4481 17.4326 23.0476C18.4784 22.0428 20.6354 20.5151 24.084 20.5151C27.9131 20.5151 30.3313 20.5151 30.3313 20.5151V0.274078Z" fill="#BFC8F4"/>
<path d="M11.1726 3.91123H5.82618C5.4738 3.91123 5.18815 4.19688 5.18815 4.54926C5.18815 4.90163 5.4738 5.18729 5.82618 5.18729H11.1726C12.1538 5.18729 13.4013 5.41693 14.1762 5.78506C14.3943 5.88869 14.8157 5.69657 14.8157 5.45506C14.8157 5.15994 14.6905 4.87299 14.4381 4.72012C13.6125 4.22014 12.3318 3.91123 11.1726 3.91123Z" fill="#727EC7"/>
<path d="M11.1726 6.5662H5.82618C5.4738 6.5662 5.18815 6.85185 5.18815 7.20423C5.18815 7.5566 5.4738 7.84226 5.82618 7.84226H11.1726C12.1538 7.84226 13.4013 8.0719 14.1762 8.44003C14.3943 8.54366 14.8157 8.35154 14.8157 8.11003C14.8157 7.81492 14.6905 7.52796 14.4381 7.37509C13.6125 6.87511 12.3318 6.5662 11.1726 6.5662Z" fill="#727EC7"/>
<path d="M11.1726 9.22117H5.82618C5.4738 9.22117 5.18815 9.50682 5.18815 9.8592C5.18815 10.2116 5.4738 10.4972 5.82618 10.4972H11.1726C12.1538 10.4972 13.4013 10.7269 14.1762 11.095C14.3943 11.1986 14.8157 11.0065 14.8157 10.765C14.8157 10.4699 14.6905 10.1829 14.4381 10.0301C13.6125 9.53008 12.3318 9.22117 11.1726 9.22117Z" fill="#727EC7"/>
<path d="M11.1726 11.8761H5.82618C5.4738 11.8761 5.18815 12.1618 5.18815 12.5142C5.18815 12.8665 5.4738 13.1522 5.82618 13.1522H11.1726C12.1538 13.1522 13.4013 13.3818 14.1762 13.75C14.3943 13.8536 14.8157 13.6615 14.8157 13.42C14.8157 13.1249 14.6905 12.8379 14.4381 12.685C13.6125 12.1851 12.3318 11.8761 11.1726 11.8761Z" fill="#727EC7"/>
<path d="M11.1726 14.5311H5.82618C5.4738 14.5311 5.18815 14.8168 5.18815 15.1691C5.18815 15.5215 5.4738 15.8072 5.82618 15.8072H11.1726C12.1538 15.8072 13.4013 16.0368 14.1762 16.4049C14.3943 16.5086 14.8157 16.3165 14.8157 16.0749C14.8157 15.7798 14.6905 15.4929 14.4381 15.34C13.6125 14.84 12.3318 14.5311 11.1726 14.5311Z" fill="#727EC7"/>
<path d="M21.9597 3.91123H27.3062C27.6585 3.91123 27.9442 4.19688 27.9442 4.54926C27.9442 4.90163 27.6585 5.18729 27.3062 5.18729H21.9597C20.9785 5.18729 19.7311 5.41693 18.9562 5.78506C18.738 5.88869 18.3166 5.69657 18.3166 5.45506C18.3166 5.15994 18.4418 4.87299 18.6943 4.72012C19.5199 4.22014 20.8005 3.91123 21.9597 3.91123Z" fill="#727EC7"/>
<path d="M21.9597 6.5662H27.3062C27.6585 6.5662 27.9442 6.85185 27.9442 7.20423C27.9442 7.5566 27.6585 7.84226 27.3062 7.84226H21.9597C20.9785 7.84226 19.7311 8.0719 18.9562 8.44003C18.738 8.54366 18.3166 8.35154 18.3166 8.11003C18.3166 7.81492 18.4418 7.52796 18.6943 7.37509C19.5199 6.87511 20.8005 6.5662 21.9597 6.5662Z" fill="#727EC7"/>
<path d="M21.9597 9.22117H27.3062C27.6585 9.22117 27.9442 9.50682 27.9442 9.8592C27.9442 10.2116 27.6585 10.4972 27.3062 10.4972H21.9597C20.9785 10.4972 19.7311 10.7269 18.9562 11.095C18.738 11.1986 18.3166 11.0065 18.3166 10.765C18.3166 10.4699 18.4418 10.1829 18.6943 10.0301C19.5199 9.53008 20.8005 9.22117 21.9597 9.22117Z" fill="#727EC7"/>
<path d="M21.9597 11.8761H27.3062C27.6585 11.8761 27.9442 12.1618 27.9442 12.5142C27.9442 12.8665 27.6585 13.1522 27.3062 13.1522H21.9597C20.9785 13.1522 19.7311 13.3818 18.9562 13.75C18.738 13.8536 18.3166 13.6615 18.3166 13.42C18.3166 13.1249 18.4418 12.8379 18.6943 12.685C19.5199 12.1851 20.8005 11.8761 21.9597 11.8761Z" fill="#727EC7"/>
<path d="M21.9597 14.5311H27.3062C27.6585 14.5311 27.9442 14.8168 27.9442 15.1691C27.9442 15.5215 27.6585 15.8072 27.3062 15.8072H21.9597C20.9785 15.8072 19.7311 16.0368 18.9562 16.4049C18.738 16.5086 18.3166 16.3165 18.3166 16.0749C18.3166 15.7798 18.4418 15.4929 18.6943 15.34C19.5199 14.84 20.8005 14.5311 21.9597 14.5311Z" fill="#727EC7"/>
</svg>
