<svg width="29" height="27" viewBox="0 0 29 27" fill="none" xmlns="http://www.w3.org/2000/svg">
<path d="M15.9559 21H19.0671C24.2217 21 28.4004 16.8213 28.4004 11.6667V9.33333C28.4004 4.17868 24.2217 0 19.0671 0H9.73372C4.57907 0 0.400391 4.17868 0.400391 9.33333V11.6667C0.400391 16.5594 4.1652 20.5729 8.95595 20.9681V26.4444L15.9559 21Z" fill="#FCC224"/>
<path d="M22.0959 11.315C18.0881 10.2083 17.2547 9.374 16.1479 5.36694C16.1127 5.23949 15.997 5.15161 15.8652 5.15161C15.7333 5.15161 15.6176 5.2395 15.5825 5.36694C14.4758 9.37475 13.6415 10.2082 9.63439 11.315C9.50695 11.3502 9.4198 11.4659 9.4198 11.5977C9.4198 11.7295 9.50769 11.8453 9.63439 11.8804C13.6422 12.9871 14.4756 13.8214 15.5825 17.8285C15.6176 17.9559 15.7333 18.0438 15.8652 18.0438C15.997 18.0438 16.1127 17.9559 16.1479 17.8285C17.2546 13.8207 18.0889 12.9872 22.0959 11.8804C22.2234 11.8453 22.3105 11.7295 22.3105 11.5977C22.3105 11.4659 22.2226 11.3502 22.0959 11.315Z" fill="white"/>
<path d="M9.43014 9.91753C9.4653 10.045 9.58102 10.1329 9.71285 10.1329C9.84469 10.1329 9.96041 10.045 9.99557 9.91753C10.5083 8.06158 10.8649 7.70484 12.7209 7.19222C12.8483 7.15706 12.9355 7.04134 12.9355 6.90951C12.9355 6.77767 12.8476 6.66195 12.7209 6.62679C10.8649 6.11409 10.5082 5.75814 9.99557 3.90148C9.96041 3.77404 9.84469 3.68616 9.71285 3.68616C9.58102 3.68616 9.4653 3.77405 9.43014 3.90148C8.91744 5.75743 8.56076 6.11417 6.70483 6.62679C6.57739 6.66195 6.49023 6.77767 6.49023 6.90951C6.49023 7.04134 6.57812 7.15706 6.70483 7.19222C8.56078 7.70492 8.91752 8.06087 9.43014 9.91753Z" fill="white"/>
</svg>
