<?xml version="1.0" encoding="UTF-8" standalone="no"?>
<svg
   xmlns:dc="http://purl.org/dc/elements/1.1/"
   xmlns:cc="http://creativecommons.org/ns#"
   xmlns:rdf="http://www.w3.org/1999/02/22-rdf-syntax-ns#"
   xmlns:svg="http://www.w3.org/2000/svg"
   xmlns="http://www.w3.org/2000/svg"
   viewBox="0 0 281.25 312.20499"
   height="312.20499"
   width="281.25"
   xml:space="preserve"
   version="1.1"
   id="svg2"><metadata
     id="metadata8"><rdf:RDF><cc:Work
         rdf:about=""><dc:format>image/svg+xml</dc:format><dc:type
           rdf:resource="http://purl.org/dc/dcmitype/StillImage" /></cc:Work></rdf:RDF></metadata><defs
     id="defs6"><clipPath
       id="clipPath20"
       clipPathUnits="userSpaceOnUse"><path
         id="path22"
         d="m 0,0 225,0 0,249.764 -225,0 L 0,0 Z" /></clipPath><clipPath
       id="clipPath40"
       clipPathUnits="userSpaceOnUse"><path
         id="path42"
         d="m 0,0 225,0 0,249.764 -225,0 L 0,0 Z" /></clipPath><clipPath
       id="clipPath64"
       clipPathUnits="userSpaceOnUse"><path
         id="path66"
         d="m 0,249.764 225,0 L 225,0 0,0 0,249.764 Z" /></clipPath><clipPath
       id="clipPath100"
       clipPathUnits="userSpaceOnUse"><path
         id="path102"
         d="m 135.898,118.256 c -2.311,-0.037 -4.539,-0.537 -6.588,-1.699 l 0,0 c -2.622,-1.487 -3.991,-3.953 -4.943,-6.696 l 0,0 c -0.41,-1.184 -0.486,-2.433 0.381,-3.546 l 0,0 c 0.24,-0.308 0.336,-0.728 0.498,-1.097 l 0,0 c 0.053,-0.091 0.106,-0.181 0.158,-0.272 l 0,0 c 0.282,0.205 0.593,0.233 0.931,0.211 l 0,0 c 3.239,-0.22 5.818,1.5 6.708,4.59 l 0,0 c 0.819,2.844 2.154,5.372 4.092,7.579 l 0,0 c 0.209,0.24 0.496,0.454 0.436,0.845 l 0,0 c -0.206,0.165 -0.424,0.215 -0.645,0.215 l 0,0 c -0.346,0 -0.699,-0.124 -1.028,-0.13" /></clipPath><linearGradient
       id="linearGradient108"
       spreadMethod="pad"
       gradientTransform="matrix(14.677507,2.1697042,2.1697042,-14.677507,123.69361,110.58823)"
       gradientUnits="userSpaceOnUse"
       y2="0"
       x2="1"
       y1="0"
       x1="0"><stop
         id="stop110"
         offset="0"
         style="stop-opacity:1;stop-color:#ffffff" /><stop
         id="stop112"
         offset="1"
         style="stop-opacity:1;stop-color:#231f20" /></linearGradient><clipPath
       id="clipPath120"
       clipPathUnits="userSpaceOnUse"><path
         id="path122"
         d="m 0,249.764 225,0 L 225,0 0,0 0,249.764 Z" /></clipPath><clipPath
       id="clipPath324"
       clipPathUnits="userSpaceOnUse"><path
         id="path326"
         d="m 141.407,152.451 c 4.97,-4.616 9.941,-0.58 9.941,-0.58 l 0,0 -0.465,3.203 -16.707,60.646 7.231,-63.269 z" /></clipPath><linearGradient
       id="linearGradient332"
       spreadMethod="pad"
       gradientTransform="matrix(9.6523294,1.4268568,1.4268568,-9.6523294,136.97433,182.4362)"
       gradientUnits="userSpaceOnUse"
       y2="0"
       x2="1"
       y1="0"
       x1="0"><stop
         id="stop334"
         offset="0"
         style="stop-opacity:1;stop-color:#ffffff" /><stop
         id="stop336"
         offset="1"
         style="stop-opacity:1;stop-color:#231f20" /></linearGradient><clipPath
       id="clipPath344"
       clipPathUnits="userSpaceOnUse"><path
         id="path346"
         d="m 0,249.764 225,0 L 225,0 0,0 0,249.764 Z" /></clipPath></defs><g
     transform="matrix(1.25,0,0,-1.25,0,312.205)"
     id="g10"><g
       transform="translate(1.449,45.846)"
       id="g12"><path
         id="path14"
         style="fill:#f5f5f5;fill-opacity:1;fill-rule:nonzero;stroke:none"
         d="M 0,0 166.043,-45.469 220.074,150.89 56.008,198.332 0,0 Z" /></g><g
       id="g16"><g
         clip-path="url(#clipPath20)"
         id="g18"><g
           transform="translate(57.457,244.1777)"
           id="g24"><path
             id="path26"
             style="fill:none;stroke:#100f0d;stroke-width:0.61000001;stroke-linecap:butt;stroke-linejoin:miter;stroke-miterlimit:10;stroke-dasharray:none;stroke-opacity:1"
             d="M 0,0 164.066,-47.441 110.035,-243.801 -56.008,-198.332 0,0 Z" /></g></g></g><g
       transform="translate(64.8442,228.7324)"
       id="g28"><path
         id="path30"
         style="fill:#f5f5f5;fill-opacity:1;fill-rule:nonzero;stroke:none"
         d="M 0,0 -40.489,-142.278 99.195,-183.539 141.894,-40.949 0,0 Z" /></g><g
       transform="translate(64.8442,228.7324)"
       id="g32"><path
         id="path34"
         style="fill:none;stroke:#000000;stroke-width:0.639;stroke-linecap:butt;stroke-linejoin:miter;stroke-miterlimit:4;stroke-dasharray:none;stroke-opacity:1"
         d="M 0,0 -40.489,-142.278 99.195,-183.539 141.894,-40.949 0,0 Z" /></g><g
       id="g36"><g
         clip-path="url(#clipPath40)"
         id="g38"><g
           transform="translate(0.3789,200.7554)"
           id="g44"><path
             id="path46"
             style="fill:none;stroke:#100f0d;stroke-width:0.61000001;stroke-linecap:butt;stroke-linejoin:miter;stroke-miterlimit:10;stroke-dasharray:none;stroke-opacity:1"
             d="M 0,0 163.723,48.629 224.234,-145.82 59.918,-197.183 0,0 Z" /></g></g></g><g
       transform="translate(0.3789,200.7558)"
       id="g48"><path
         id="path50"
         style="fill:#f5f5f5;fill-opacity:1;fill-rule:nonzero;stroke:none"
         d="M 0,0 59.918,-197.184 224.234,-145.821 163.723,48.629 0,0 Z" /></g><g
       transform="translate(15.8398,190.2441)"
       id="g52"><path
         id="path54"
         style="fill:#e8e7e5;fill-opacity:1;fill-rule:nonzero;stroke:none"
         d="M 0,0 139.629,42.929 183.102,-97.27 44.558,-141.066 0,0 Z" /></g><g
       transform="translate(15.8398,190.2441)"
       id="g56"><path
         id="path58"
         style="fill:none;stroke:#100f0d;stroke-width:0.49700001;stroke-linecap:butt;stroke-linejoin:miter;stroke-miterlimit:10;stroke-dasharray:none;stroke-opacity:1"
         d="M 0,0 139.629,42.929 183.102,-97.27 44.558,-141.066 0,0 Z" /></g><g
       id="g60"><g
         clip-path="url(#clipPath64)"
         id="g62"><g
           transform="translate(122.7393,131.5596)"
           id="g68"><path
             id="path70"
             style="fill:#58595b;fill-opacity:1;fill-rule:nonzero;stroke:none"
             d="m 0,0 13.585,3.871 c 0,0 -6.64,1.556 -4.699,2.319 C 10.826,6.954 -0.69,4.751 -0.69,4.751 L -3.777,2.936 0,0 Z" /></g><g
           transform="translate(122.7393,131.5596)"
           id="g72"><path
             id="path74"
             style="fill:none;stroke:#231f20;stroke-width:0.108;stroke-linecap:butt;stroke-linejoin:miter;stroke-miterlimit:10;stroke-dasharray:none;stroke-opacity:1"
             d="m 0,0 13.585,3.871 c 0,0 -6.64,1.556 -4.699,2.319 C 10.826,6.954 -0.69,4.751 -0.69,4.751 L -3.777,2.936 0,0 Z" /></g><g
           transform="translate(124.9189,79.9424)"
           id="g76"><path
             id="path78"
             style="fill:#cccbcb;fill-opacity:1;fill-rule:nonzero;stroke:none"
             d="m 0,0 c 0.717,-1.062 1.741,-1.263 2.854,-1.237 1.222,0.027 2.458,-0.025 3.645,0.268 1.83,0.452 3.423,1.397 4.916,2.554 0.592,0.459 0.624,-1.065 0.926,-0.43 0.161,0.341 -0.745,-1.541 0,0 0.003,0.006 1.552,10e-4 1.55,-0.006 C 13.174,-1.124 10.902,-0.65 8.965,-1.715 7.343,-2.606 5.592,-3.057 3.75,-3.155 2.789,-3.206 1.833,-3.046 0.926,-2.623 c -0.859,0.4 -1.133,0.957 -0.984,1.93 C -0.022,-0.466 -0.019,-0.231 0,0" /></g><g
           transform="translate(128.6387,101.6689)"
           id="g80"><path
             id="path82"
             style="fill:#c0272d;fill-opacity:1;fill-rule:nonzero;stroke:none"
             d="M 0,0 C 1.844,0.68 3.725,1.178 5.701,1.22 6.668,1.239 7.243,0.839 7.707,-0.096 8.76,-2.218 8.759,-4.571 9.35,-6.789 c 0.716,-2.694 1.282,-5.432 2.036,-8.115 0.335,-1.193 -0.022,-1.952 -0.862,-2.69 -0.649,-0.568 -1.478,-0.905 -1.999,-1.632 -1.861,-0.832 -3.723,-1.663 -5.585,-2.495 -0.992,-0.144 -1.982,-0.297 -2.975,-0.43 -0.911,-0.123 -1.542,0.193 -2.075,1.033 -2.08,3.276 -4.122,6.59 -6.43,9.697 -0.792,1.067 -1.434,2.139 -2.026,3.302 -0.455,0.892 -0.207,1.539 0.366,2.193 1.073,1.227 2.39,2.15 3.773,2.948 1.414,0.818 2.826,1.661 4.371,2.218 0.361,-1.061 0.317,-2.154 0.242,-3.25 -1.42,-1.284 -3.354,-1.753 -4.835,-3.081 1.828,-0.19 8.59,2.746 10.748,4.668 C 3.419,-2.245 2.933,-2.616 2.406,-2.705 1.617,-2.838 0.823,-3.617 0.011,-2.758 0.007,-1.838 0.004,-0.919 0,0" /></g><g
           transform="translate(128.6387,101.6689)"
           id="g84"><path
             id="path86"
             style="fill:none;stroke:#000000;stroke-width:0.22;stroke-linecap:butt;stroke-linejoin:miter;stroke-miterlimit:10;stroke-dasharray:none;stroke-opacity:1"
             d="M 0,0 C 1.844,0.68 3.725,1.178 5.701,1.22 6.668,1.239 7.243,0.839 7.707,-0.096 8.76,-2.218 8.759,-4.571 9.35,-6.789 c 0.716,-2.694 1.282,-5.432 2.036,-8.115 0.335,-1.193 -0.022,-1.952 -0.862,-2.69 -0.649,-0.568 -1.478,-0.905 -1.999,-1.632 -1.861,-0.832 -3.723,-1.663 -5.585,-2.495 -0.992,-0.144 -1.982,-0.297 -2.975,-0.43 -0.911,-0.123 -1.542,0.193 -2.075,1.033 -2.08,3.276 -4.122,6.59 -6.43,9.697 -0.792,1.067 -1.434,2.139 -2.026,3.302 -0.455,0.892 -0.207,1.539 0.366,2.193 1.073,1.227 2.39,2.15 3.773,2.948 1.414,0.818 2.826,1.661 4.371,2.218 0.361,-1.061 0.317,-2.154 0.242,-3.25 -1.42,-1.284 -3.354,-1.753 -4.835,-3.081 1.828,-0.19 8.59,2.746 10.748,4.668 C 3.419,-2.245 2.933,-2.616 2.406,-2.705 1.617,-2.838 0.823,-3.617 0.011,-2.758 0.007,-1.838 0.004,-0.919 0,0 Z" /></g><g
           transform="translate(128.0967,99.126)"
           id="g88"><path
             id="path90"
             style="fill:#252525;fill-opacity:1;fill-rule:nonzero;stroke:none"
             d="M 0,0 C 1.324,0.378 2.646,0.765 3.973,1.129 4.32,1.225 4.685,1.263 5.044,1.302 5.26,1.326 5.502,1.317 5.621,1.091 5.773,0.799 5.576,0.576 5.381,0.426 4.804,-0.018 4.229,-0.474 3.606,-0.845 0.398,-2.755 -2.987,-4.252 -6.585,-5.221 c -0.532,-0.143 -1.347,-0.513 -1.604,0.056 -0.313,0.69 0.56,0.992 1.034,1.322 1.349,0.938 2.773,1.748 4.289,2.381 0.332,0.139 0.656,0.332 1.041,0.209 0.034,-0.329 -0.238,-0.926 0.268,-0.895 0.618,0.037 1.291,0.335 1.517,1.049 C 0.065,-0.763 -0.008,-0.368 0,0" /></g><g
           transform="translate(116.8262,108.9111)"
           id="g92"><path
             id="path94"
             style="fill:#58595b;fill-opacity:1;fill-rule:nonzero;stroke:none"
             d="m 0,0 c 5.84,1.027 11.169,-4.831 8.403,-10.43 -0.684,-1.386 1.395,-2.609 2.083,-1.216 C 14.221,-4.085 7.33,3.728 -0.641,2.325 -2.166,2.058 -1.52,-0.268 0,0" /></g></g></g><g
       id="g96"><g
         clip-path="url(#clipPath100)"
         id="g98"><g
           id="g104"><g
             id="g106"><path
               id="path114"
               style="fill:url(#linearGradient108);stroke:none"
               d="m 135.898,118.256 c -2.311,-0.037 -4.539,-0.537 -6.588,-1.699 l 0,0 c -2.622,-1.487 -3.991,-3.953 -4.943,-6.696 l 0,0 c -0.41,-1.184 -0.486,-2.433 0.381,-3.546 l 0,0 c 0.24,-0.308 0.336,-0.728 0.498,-1.097 l 0,0 c 0.053,-0.091 0.106,-0.181 0.158,-0.272 l 0,0 c 0.282,0.205 0.593,0.233 0.931,0.211 l 0,0 c 3.239,-0.22 5.818,1.5 6.708,4.59 l 0,0 c 0.819,2.844 2.154,5.372 4.092,7.579 l 0,0 c 0.209,0.24 0.496,0.454 0.436,0.845 l 0,0 c -0.206,0.165 -0.424,0.215 -0.645,0.215 l 0,0 c -0.346,0 -0.699,-0.124 -1.028,-0.13" /></g></g></g></g><g
       id="g116"><g
         clip-path="url(#clipPath120)"
         id="g118"><g
           transform="translate(137.5713,118.1709)"
           id="g124"><path
             id="path126"
             style="fill:none;stroke:#58595b;stroke-width:0.121;stroke-linecap:butt;stroke-linejoin:miter;stroke-miterlimit:10;stroke-dasharray:none;stroke-opacity:1"
             d="m 0,0 c 0.06,-0.391 -0.227,-0.604 -0.437,-0.845 -1.937,-2.207 -3.272,-4.735 -4.091,-7.579 -0.89,-3.09 -3.469,-4.809 -6.708,-4.59 -0.338,0.023 -0.65,-0.007 -0.931,-0.211 -0.053,0.091 -0.105,0.181 -0.158,0.272 -0.162,0.369 -0.259,0.79 -0.498,1.098 -0.866,1.113 -0.791,2.361 -0.381,3.545 0.951,2.743 2.32,5.209 4.943,6.697 2.048,1.161 4.277,1.661 6.588,1.699 C -1.135,0.095 -0.53,0.423 0,0 Z" /></g><g
           transform="translate(85.7471,161.1616)"
           id="g128"><path
             id="path130"
             style="fill:#0973b9;fill-opacity:1;fill-rule:nonzero;stroke:none"
             d="M 0,0 C 0,0 -12.177,-36.678 25.629,-51.138 32.966,-53.945 45.34,-40.85 36.054,-14.762 31.314,-1.446 22.619,5.235 14.532,7.348 2.177,10.575 0,0 0,0" /></g><g
           transform="translate(103.2202,148.5977)"
           id="g132"><path
             id="path134"
             style="fill:#eff0ea;fill-opacity:1;fill-rule:nonzero;stroke:none"
             d="m 0,0 c 1.926,-4.458 0.57,-9.375 -3.027,-10.981 -3.598,-1.607 -8.075,0.705 -10,5.163 C -14.953,-1.36 -13.598,3.557 -10,5.164 -6.403,6.77 -1.926,4.458 0,0" /></g><g
           transform="translate(114.1416,154.9956)"
           id="g136"><path
             id="path138"
             style="fill:#eff0ea;fill-opacity:1;fill-rule:nonzero;stroke:none"
             d="m 0,0 c 2.086,-3.873 1.414,-8.328 -1.499,-9.951 -2.914,-1.623 -6.968,0.201 -9.054,4.074 -2.086,3.872 -1.415,8.327 1.499,9.95 C -6.14,5.696 -2.087,3.873 0,0" /></g><g
           transform="translate(100.1138,147.2104)"
           id="g140"><path
             id="path142"
             style="fill:#1a9948;fill-opacity:1;fill-rule:nonzero;stroke:none"
             d="m 0,0 c 0.914,-2.115 0.333,-4.419 -1.297,-5.147 -1.63,-0.728 -3.692,0.396 -4.606,2.511 -0.913,2.115 -0.332,4.419 1.298,5.147 C -2.975,3.239 -0.913,2.115 0,0" /></g><g
           transform="translate(112.1426,153.5205)"
           id="g144"><path
             id="path146"
             style="fill:#1a9948;fill-opacity:1;fill-rule:nonzero;stroke:none"
             d="m 0,0 c 0.907,-2.102 0.436,-4.345 -1.054,-5.01 -1.489,-0.666 -3.433,0.499 -4.341,2.601 -0.907,2.102 -0.436,4.345 1.054,5.01 C -2.852,3.267 -0.908,2.102 0,0" /></g><g
           transform="translate(95.8311,145.2979)"
           id="g148"><path
             id="path150"
             style="fill:#14170f;fill-opacity:1;fill-rule:nonzero;stroke:none"
             d="M 0,0 C -0.495,1.145 -0.196,2.385 0.666,2.77 1.528,3.155 2.628,2.54 3.123,1.395 3.617,0.25 3.319,-0.991 2.457,-1.376 1.594,-1.761 0.495,-1.145 0,0" /></g><g
           transform="translate(108.0322,151.6699)"
           id="g152"><path
             id="path154"
             style="fill:#14170f;fill-opacity:1;fill-rule:nonzero;stroke:none"
             d="M 0,0 C -0.499,1.155 -0.191,2.409 0.686,2.801 1.564,3.193 2.68,2.574 3.179,1.419 3.678,0.265 3.37,-0.989 2.493,-1.381 1.615,-1.773 0.499,-1.155 0,0" /></g><g
           transform="translate(94.3706,146.5112)"
           id="g156"><path
             id="path158"
             style="fill:#ffffff;fill-opacity:1;fill-rule:nonzero;stroke:none"
             d="M 0,0 C -0.074,0.72 0.316,1.351 0.871,1.41 1.426,1.468 1.936,0.933 2.009,0.213 2.083,-0.507 1.693,-1.138 1.138,-1.197 0.583,-1.255 0.074,-0.72 0,0" /></g><g
           transform="translate(108.4253,153.5937)"
           id="g160"><path
             id="path162"
             style="fill:#ffffff;fill-opacity:1;fill-rule:nonzero;stroke:none"
             d="m 0,0 c -0.005,-0.625 -0.342,-1.13 -0.752,-1.127 -0.411,0.003 -0.74,0.513 -0.735,1.139 0.005,0.626 0.342,1.13 0.753,1.127 C -0.324,1.135 0.005,0.625 0,0" /></g><g
           transform="translate(107.9497,151.3511)"
           id="g164"><path
             id="path166"
             style="fill:#ffffff;fill-opacity:1;fill-rule:nonzero;stroke:none"
             d="M 0,0 C -0.114,-0.177 -0.326,-0.24 -0.473,-0.142 -0.62,-0.043 -0.646,0.18 -0.532,0.356 -0.418,0.533 -0.207,0.596 -0.06,0.498 0.088,0.399 0.114,0.176 0,0" /></g><g
           transform="translate(89.2422,154.3618)"
           id="g168"><path
             id="path170"
             style="fill:#0973b9;fill-opacity:1;fill-rule:nonzero;stroke:none"
             d="M 0,0 C 0.437,0.938 0.576,2.028 1.099,2.922 1.575,3.737 2.322,4.176 3.288,3.969 4.105,3.794 4.746,2.99 5.279,2.393 5.496,2.149 5.852,2.507 5.636,2.75 4.7,3.798 3.339,5.089 1.817,4.353 0.302,3.619 0.189,1.6 -0.436,0.255 -0.572,-0.038 -0.137,-0.295 0,0" /></g><g
           transform="translate(90.481,152.3296)"
           id="g172"><path
             id="path174"
             style="fill:#4a85a4;fill-opacity:1;fill-rule:nonzero;stroke:none"
             d="M 0,0 C 0.865,2.214 3.125,3.256 5.384,2.496 5.692,2.392 5.825,2.879 5.518,2.983 2.987,3.835 0.474,2.595 -0.487,0.134 -0.605,-0.169 -0.117,-0.3 0,0" /></g><g
           transform="translate(102.5586,157.5039)"
           id="g176"><path
             id="path178"
             style="fill:#4a85a4;fill-opacity:1;fill-rule:nonzero;stroke:none"
             d="M 0,0 C 1.264,1.929 3.191,3.762 5.695,3.056 6.009,2.968 6.143,3.455 5.83,3.543 3.111,4.31 0.956,2.379 -0.436,0.255 -0.615,-0.018 -0.178,-0.271 0,0" /></g><g
           transform="translate(95.3945,136.5332)"
           id="g180"><path
             id="path182"
             style="fill:#597d9f;fill-opacity:1;fill-rule:nonzero;stroke:none"
             d="M 0,0 C 2.038,0.546 4.094,0.739 6.197,0.586 6.521,0.563 6.52,1.068 6.197,1.092 4.046,1.248 1.947,1.045 -0.134,0.487 -0.448,0.403 -0.315,-0.084 0,0" /></g><g
           transform="translate(112.4092,143.2876)"
           id="g184"><path
             id="path186"
             style="fill:#597d9f;fill-opacity:1;fill-rule:nonzero;stroke:none"
             d="M 0,0 C 0.791,1.738 2.088,3.118 3.789,3.99 4.078,4.139 3.823,4.575 3.534,4.426 1.766,3.519 0.387,2.063 -0.437,0.255 -0.57,-0.039 -0.135,-0.295 0,0" /></g><g
           transform="translate(116.7871,140.022)"
           id="g188"><path
             id="path190"
             style="fill:#a5897a;fill-opacity:1;fill-rule:nonzero;stroke:none"
             d="m 0,0 c 0.081,-3.477 -0.93,-6.943 -3.802,-9.119 -3.032,-2.298 -7.034,-2.12 -9.688,0.68 -0.369,0.389 -0.956,-0.199 -0.588,-0.588 2.572,-2.713 6.458,-3.316 9.736,-1.47 C -0.56,-8.367 0.928,-4.145 0.832,0 0.819,0.534 -0.012,0.536 0,0" /></g><g
           transform="translate(102.5918,133.0312)"
           id="g192"><path
             id="path194"
             style="fill:#a5897a;fill-opacity:1;fill-rule:nonzero;stroke:none"
             d="m 0,0 c -0.208,-1.115 -1.02,-1.982 -2.136,-2.214 -0.524,-0.11 -0.302,-0.911 0.22,-0.802 1.376,0.287 2.461,1.417 2.717,2.795 C 0.899,0.302 0.098,0.526 0,0" /></g><g
           transform="translate(115.0166,140.5981)"
           id="g196"><path
             id="path198"
             style="fill:#a5897a;fill-opacity:1;fill-rule:nonzero;stroke:none"
             d="M 0,0 C 1.179,-1.411 3.25,-1.427 4.461,-0.049 4.812,0.352 4.228,0.941 3.873,0.539 2.94,-0.523 1.492,-0.494 0.588,0.588 0.244,0.999 -0.341,0.408 0,0" /></g><g
           transform="translate(80.4395,174.1772)"
           id="g200"><path
             id="path202"
             style="fill:#58595b;fill-opacity:1;fill-rule:nonzero;stroke:none"
             d="M 0,0 C 0,0 -4.96,10.674 4.085,10.833 12.395,10.434 7.731,5.859 7.731,5.859 L 0,0 Z" /></g><g
           transform="translate(80.4395,174.1772)"
           id="g204"><path
             id="path206"
             style="fill:none;stroke:#231f20;stroke-width:0.48199999;stroke-linecap:butt;stroke-linejoin:miter;stroke-miterlimit:10;stroke-dasharray:none;stroke-opacity:1"
             d="M 0,0 C 0,0 -4.96,10.674 4.085,10.833 12.395,10.434 7.731,5.859 7.731,5.859 L 0,0 Z" /></g><g
           transform="translate(83.7202,153.5884)"
           id="g208"><path
             id="path210"
             style="fill:#d2d2d2;fill-opacity:1;fill-rule:nonzero;stroke:#231f20;stroke-width:0.48199999;stroke-linecap:butt;stroke-linejoin:miter;stroke-miterlimit:10;stroke-dasharray:none;stroke-opacity:1"
             d="m 0,0 7.484,-24.817 -3.088,-1.844 c 0,0 -5.235,0.074 -7.127,2.858 -1.892,2.784 -6.928,22.626 -8.484,29.691 1.8,12.527 15.754,22.939 15.754,22.939 15.044,6.117 28.294,-8.728 28.294,-8.728 l 5.125,-17.984 2.947,-13.281 -3.063,-4.352 -1.569,8.051 -8.025,17.762 c 0,0 -10.085,5.954 -12.602,7.464 C 13.613,18.979 5.953,6.97 3.09,2.319 2.41,1.215 2.001,0.525 2.001,0.525" /></g><g
           transform="translate(78.7583,157.2598)"
           id="g212"><path
             id="path214"
             style="fill:#d2d2d2;fill-opacity:1;fill-rule:nonzero;stroke:none"
             d="m 0,0 c 0,0 12.191,15.495 19.92,16.799 7.729,1.305 22.092,-5.775 22.092,-5.775 L 44.306,1.983 23.857,1.287 2.577,-10.156 0,0 Z" /></g><g
           transform="translate(78.7583,157.2598)"
           id="g216"><path
             id="path218"
             style="fill:none;stroke:#231f20;stroke-width:0.48199999;stroke-linecap:butt;stroke-linejoin:miter;stroke-miterlimit:10;stroke-dasharray:none;stroke-opacity:1"
             d="m 0,0 c 0,0 12.191,15.495 19.92,16.799 7.729,1.305 22.092,-5.775 22.092,-5.775 L 44.306,1.983 23.857,1.287 2.577,-10.156 0,0 Z" /></g><g
           transform="translate(92.791,157.085)"
           id="g220"><path
             id="path222"
             style="fill:#231f20;fill-opacity:1;fill-rule:nonzero;stroke:#6d6e70;stroke-width:0.48199999;stroke-linecap:butt;stroke-linejoin:miter;stroke-miterlimit:10;stroke-dasharray:none;stroke-opacity:1"
             d="M 0,0 -2.352,9.267 -6.497,5.045 -4.891,-1.283" /></g><g
           transform="translate(95.6733,158.8057)"
           id="g224"><path
             id="path226"
             style="fill:#231f20;fill-opacity:1;fill-rule:nonzero;stroke:none"
             d="M 0,0 C 0,0 6.849,0.11 6.447,1.692 6.045,3.274 3.349,13.897 3.349,13.897 L -2.467,9.719 0,0 Z" /></g><g
           transform="translate(95.6733,158.8057)"
           id="g228"><path
             id="path230"
             style="fill:none;stroke:#6d6e70;stroke-width:0.48199999;stroke-linecap:butt;stroke-linejoin:miter;stroke-miterlimit:10;stroke-dasharray:none;stroke-opacity:1"
             d="M 0,0 C 0,0 6.849,0.11 6.447,1.692 6.045,3.274 3.349,13.897 3.349,13.897 L -2.467,9.719 0,0 Z" /></g><g
           transform="translate(105.5039,162.1084)"
           id="g232"><path
             id="path234"
             style="fill:#231f20;fill-opacity:1;fill-rule:nonzero;stroke:none"
             d="M 0,0 5.737,-0.182 3.385,9.085 -2.925,11.528 0,0 Z" /></g><g
           transform="translate(105.5039,162.1084)"
           id="g236"><path
             id="path238"
             style="fill:none;stroke:#6d6e70;stroke-width:0.48199999;stroke-linecap:butt;stroke-linejoin:miter;stroke-miterlimit:10;stroke-dasharray:none;stroke-opacity:1"
             d="M 0,0 5.737,-0.182 3.385,9.085 -2.925,11.528 0,0 Z" /></g><g
           transform="translate(113.1904,162.6523)"
           id="g240"><path
             id="path242"
             style="fill:#231f20;fill-opacity:1;fill-rule:nonzero;stroke:none"
             d="M 0,0 1.872,-0.839 1.062,6.091 -1.9,7.484 0,0 Z" /></g><g
           transform="translate(113.1904,162.6523)"
           id="g244"><path
             id="path246"
             style="fill:none;stroke:#6d6e70;stroke-width:0.48199999;stroke-linecap:butt;stroke-linejoin:miter;stroke-miterlimit:10;stroke-dasharray:none;stroke-opacity:1"
             d="M 0,0 1.872,-0.839 1.062,6.091 -1.9,7.484 0,0 Z" /></g><g
           transform="translate(118.7051,161.4741)"
           id="g248"><path
             id="path250"
             style="fill:#231f20;fill-opacity:1;fill-rule:nonzero;stroke:none"
             d="M 0,0 1.904,0.5 0.488,6.08 -1.75,6.894 0,0 Z" /></g><g
           transform="translate(118.7051,161.4741)"
           id="g252"><path
             id="path254"
             style="fill:none;stroke:#6d6e70;stroke-width:0.48199999;stroke-linecap:butt;stroke-linejoin:miter;stroke-miterlimit:10;stroke-dasharray:none;stroke-opacity:1"
             d="M 0,0 1.904,0.5 0.488,6.08 -1.75,6.894 0,0 Z" /></g><g
           transform="translate(81.8057,151.7915)"
           id="g256"><path
             id="path258"
             style="fill:#231f20;fill-opacity:1;fill-rule:nonzero;stroke:none"
             d="M 0,0 -1.416,5.58 2.658,8.209 4.446,1.167 0,0 Z" /></g><g
           transform="translate(81.8057,151.7915)"
           id="g260"><path
             id="path262"
             style="fill:none;stroke:#6d6e70;stroke-width:0.48199999;stroke-linecap:butt;stroke-linejoin:miter;stroke-miterlimit:10;stroke-dasharray:none;stroke-opacity:1"
             d="M 0,0 -1.416,5.58 2.658,8.209 4.446,1.167 0,0 Z" /></g><g
           transform="translate(80.2642,151.3267)"
           id="g264"><path
             id="path266"
             style="fill:#d2d2d2;fill-opacity:1;fill-rule:nonzero;stroke:none"
             d="M 0,0 C 0.974,-3.839 0.543,-7.271 -0.962,-7.666 -2.467,-8.061 -4.477,-5.269 -5.451,-1.431 -6.425,2.408 -5.995,5.84 -4.49,6.235 -2.984,6.63 -0.975,3.838 0,0" /></g><g
           transform="translate(80.2642,151.3267)"
           id="g268"><path
             id="path270"
             style="fill:none;stroke:#231f20;stroke-width:0.48199999;stroke-linecap:butt;stroke-linejoin:miter;stroke-miterlimit:10;stroke-dasharray:none;stroke-opacity:1"
             d="M 0,0 C 0.974,-3.839 0.543,-7.271 -0.962,-7.666 -2.467,-8.061 -4.477,-5.269 -5.451,-1.431 -6.425,2.408 -5.995,5.84 -4.49,6.235 -2.984,6.63 -0.975,3.838 0,0 Z" /></g><g
           transform="translate(76.5044,142.8853)"
           id="g272"><path
             id="path274"
             style="fill:#231f20;fill-opacity:1;fill-rule:nonzero;stroke:none"
             d="M 0,0 C 0.841,0.221 1.682,0.441 2.523,0.662 4.023,1.056 3.387,3.382 1.882,2.988 1.041,2.767 0.2,2.546 -0.641,2.325 -2.141,1.932 -1.505,-0.395 0,0" /></g><g
           transform="translate(73.6865,154.9233)"
           id="g276"><path
             id="path278"
             style="fill:#231f20;fill-opacity:1;fill-rule:nonzero;stroke:none"
             d="M 0,0 C 0.361,0.125 0.48,0.089 0.798,-0.149 1.32,-0.54 2.146,-0.233 2.448,0.284 2.809,0.9 2.538,1.542 2.016,1.933 1.272,2.49 0.232,2.629 -0.641,2.325 -1.256,2.111 -1.664,1.5 -1.483,0.842 -1.319,0.245 -0.618,-0.215 0,0" /></g><g
           transform="translate(76.002,150.3965)"
           id="g280"><path
             id="path282"
             style="fill:#d2d2d2;fill-opacity:1;fill-rule:nonzero;stroke:none"
             d="m 0,0 c 0.95,-3.741 2.576,-6.549 -0.889,-7.458 -1.441,-0.378 -3.378,2.348 -4.328,6.089 -0.949,3.742 -0.551,7.08 0.89,7.458 C -2.887,6.468 -0.949,3.741 0,0" /></g><g
           transform="translate(76.002,150.3965)"
           id="g284"><path
             id="path286"
             style="fill:none;stroke:#231f20;stroke-width:0.50199997;stroke-linecap:butt;stroke-linejoin:miter;stroke-miterlimit:10;stroke-dasharray:none;stroke-opacity:1"
             d="m 0,0 c 0.95,-3.741 2.576,-6.549 -0.889,-7.458 -1.441,-0.378 -3.378,2.348 -4.328,6.089 -0.949,3.742 -0.551,7.08 0.89,7.458 C -2.887,6.468 -0.949,3.741 0,0 Z" /></g><g
           transform="translate(79.7124,177.1177)"
           id="g288"><path
             id="path290"
             style="fill:#bf5639;fill-opacity:1;fill-rule:nonzero;stroke:none"
             d="m 0,0 c 0.934,2.758 1.874,5.75 1.009,8.531 -0.865,2.781 -4.417,4.816 -6.702,3.052 -0.827,1.164 -2.67,0.846 -3.79,-0.027 -1.121,-0.872 -1.926,-2.151 -3.164,-2.842 -1.115,-0.621 -2.434,-0.685 -3.693,-0.864 -1.26,-0.18 -2.599,-0.549 -3.387,-1.563 -0.788,-1.015 -0.621,-2.83 0.573,-3.273 -1.399,-0.235 -2.933,-0.548 -3.804,-1.686 -0.871,-1.139 -0.337,-3.306 1.081,-3.295 -2.693,-2.111 -5.685,-4.944 -5.12,-8.353 0.173,-1.04 0.87,-2.136 1.906,-2.193 1.036,-0.056 1.779,1.621 0.853,2.096 -0.505,-1.43 -1.363,-2.697 -2.058,-4.041 -0.696,-1.344 -1.242,-2.851 -1.038,-4.355 0.203,-1.505 1.36,-2.96 2.852,-3.041 1.491,-0.08 2.877,1.716 2.136,3.036 -0.179,-1.536 -0.356,-3.115 0.038,-4.608 0.394,-1.493 1.498,-2.9 2.997,-3.158 2.029,-0.35 3.889,1.569 4.287,3.622 0.399,2.052 -0.256,4.149 -0.902,6.134 0.661,-1.395 2.999,-0.784 3.541,0.664 0.543,1.448 -0.089,3.053 -0.747,4.45 -0.657,1.398 -1.368,2.938 -0.974,4.435 0.357,-1.657 2.837,-1.899 4.062,-0.747 1.224,1.151 1.498,2.984 1.686,4.669 0.187,1.686 0.424,3.515 1.608,4.709 0.91,-1.411 3.294,-0.76 4.054,0.74 0.759,1.5 0.415,3.306 0.054,4.952 1.654,-0.619 2.72,-2.551 2.376,-4.31" /></g><g
           transform="translate(80.2935,176.957)"
           id="g292"><path
             id="path294"
             style="fill:#231f20;fill-opacity:1;fill-rule:nonzero;stroke:none"
             d="M 0,0 C 2.431,7.468 0.951,13.18 -7.398,13.005 -8.65,12.979 -9.266,12.837 -10.43,12.19 -11.87,11.39 -12.962,9.599 -14.562,8.996 -15.691,8.57 -17.191,8.801 -18.344,8.332 -19.603,7.821 -20.81,7.305 -21.24,5.875 c -0.158,-0.529 0.4,-2.245 0.281,-2.449 0.022,0.039 -2.518,-0.777 -3.006,-1.511 -0.604,-0.908 -0.506,-1.531 -0.484,-2.585 0.006,-0.265 0.941,-1.368 0.941,-1.368 -0.201,-0.61 -2.132,-1.726 -2.7,-2.442 -0.608,-0.768 -1.257,-1.653 -1.594,-2.597 -0.608,-1.705 -0.763,-5.694 1.969,-5.857 1.842,-0.108 2.23,1.713 1.534,2.982 -0.2,0.365 -0.857,0.421 -1.041,0 -1.253,-2.875 -5.966,-9.447 -1.135,-11.917 2.565,-1.311 4.581,0.871 4.13,3.371 -0.13,0.719 -1.121,0.464 -1.185,-0.16 -0.32,-3.144 0.098,-9.246 4.905,-8.312 4.889,0.95 3.7,7.251 2.699,10.463 -0.336,-0.195 -0.672,-0.391 -1.008,-0.586 1.069,-1.136 2.678,-1.326 3.881,-0.096 2.54,2.599 -1.157,7.311 -1.032,10.07 -0.374,-0.101 -0.749,-0.202 -1.123,-0.304 0.782,-1.458 2.314,-2.191 3.957,-1.517 2.292,0.94 2.557,3.617 2.914,5.744 0.158,0.937 0.206,3.137 1.278,3.674 0.017,0.008 0.665,-0.265 0.718,-0.242 0.424,0.188 1.322,-0.049 1.875,0.181 2.787,1.166 2.268,4.581 1.824,6.948 -0.295,-0.227 -0.59,-0.453 -0.885,-0.68 0.692,-1.264 1.385,-2.527 2.077,-3.79 -0.004,-0.776 1.202,-0.777 1.206,0 0.011,2.34 -0.681,3.604 -2.675,4.831 -0.48,0.295 -0.977,-0.191 -0.885,-0.681 -1.033,-1.702 -2.067,-3.404 -3.1,-5.106 -0.314,0.273 -0.71,0.206 -0.947,-0.122 -0.865,-1.196 -1.157,-2.112 -1.506,-3.574 -0.016,-0.065 -1.884,-10.512 -4.81,-5.057 -0.296,0.551 -1.098,0.265 -1.124,-0.305 -0.09,-1.998 -0.161,-1.203 0.364,-3.156 -1.107,4.119 5.063,-12.572 -1.154,-5.966 -0.409,0.435 -1.186,-0.014 -1.008,-0.586 0.157,-0.503 0.314,-1.006 0.47,-1.508 1.494,-2.729 0.634,-4.011 -2.58,-3.846 -2.472,-1.834 -3.537,-1.658 -3.196,0.527 -0.137,1.002 -0.114,2.001 0.071,2.996 -0.395,-0.053 -0.789,-0.107 -1.184,-0.16 -3,1.743 -3.706,3.591 -2.118,5.544 1.044,1.223 1.081,2.589 0.111,4.097 -0.83,3.748 0.76,4.72 3.483,6.944 0.389,0.317 0.109,0.86 -0.265,1.007 -0.191,2.555 0.717,3.827 2.723,3.819 0.415,0.085 0.617,0.73 0.265,1.008 0.429,1.189 0.857,2.379 1.285,3.568 0.813,0.167 1.63,0.306 2.452,0.415 0.901,0.201 1.648,0.261 2.504,0.71 1.657,0.868 4.156,4.743 6.368,3.024 0.226,-0.176 0.467,-0.228 0.73,-0.094 7.061,3.593 5.931,-7.45 4.807,-10.903 C -1.403,-0.419 -0.239,-0.736 0,0" /></g><g
           transform="translate(130.71,141.3979)"
           id="g296"><path
             id="path298"
             style="fill:#929497;fill-opacity:1;fill-rule:nonzero;stroke:none"
             d="m 0,0 8.857,1.332 c 0,0 3.632,-4.232 4.044,-5.473 0.413,-1.241 -8.852,-4.55 -8.852,-4.55 0,0 -4.979,5.511 -4.049,8.691" /></g><g
           transform="translate(130.71,141.3979)"
           id="g300"><path
             id="path302"
             style="fill:none;stroke:#231f20;stroke-width:0.116;stroke-linecap:butt;stroke-linejoin:miter;stroke-miterlimit:10;stroke-dasharray:none;stroke-opacity:1"
             d="m 0,0 8.857,1.332 c 0,0 3.632,-4.232 4.044,-5.473 0.413,-1.241 -8.852,-4.55 -8.852,-4.55 0,0 -4.979,5.511 -4.049,8.691 z" /></g><g
           transform="translate(137.6328,144.3267)"
           id="g304"><path
             id="path306"
             style="fill:#929497;fill-opacity:1;fill-rule:nonzero;stroke:none"
             d="m 0,0 c 0,0 3.265,-8.546 6.976,-7.989 3.711,0.558 7.669,-0.584 9.4,1.413 1.732,1.998 1.671,9.372 -0.308,10.812 C 14.09,5.675 8.182,4.241 8.182,4.241 L 5.509,3.839 C 5.509,3.839 0.692,2.192 0,0" /></g><g
           transform="translate(137.6328,144.3267)"
           id="g308"><path
             id="path310"
             style="fill:none;stroke:#231f20;stroke-width:0.121;stroke-linecap:butt;stroke-linejoin:miter;stroke-miterlimit:10;stroke-dasharray:none;stroke-opacity:1"
             d="m 0,0 c 0,0 3.265,-8.546 6.976,-7.989 3.711,0.558 7.669,-0.584 9.4,1.413 1.732,1.998 1.671,9.372 -0.308,10.812 C 14.09,5.675 8.182,4.241 8.182,4.241 L 5.509,3.839 C 5.509,3.839 0.692,2.192 0,0 Z" /></g><g
           transform="translate(144.4619,152.9097)"
           id="g312"><path
             id="path314"
             style="fill:#58595b;fill-opacity:1;fill-rule:nonzero;stroke:none"
             d="M 0,0 6.014,-25.397 9.197,-24.918 2.871,-0.577 0,0 Z" /></g><g
           transform="translate(144.4619,152.9097)"
           id="g316"><path
             id="path318"
             style="fill:none;stroke:#231f20;stroke-width:0.121;stroke-linecap:butt;stroke-linejoin:miter;stroke-miterlimit:10;stroke-dasharray:none;stroke-opacity:1"
             d="M 0,0 6.014,-25.397 9.197,-24.918 2.871,-0.577 0,0 Z" /></g></g></g><g
       id="g320"><g
         clip-path="url(#clipPath324)"
         id="g322"><g
           id="g328"><g
             id="g330"><path
               id="path338"
               style="fill:url(#linearGradient332);stroke:none"
               d="m 141.407,152.451 c 4.97,-4.616 9.941,-0.58 9.941,-0.58 l 0,0 -0.465,3.203 -16.707,60.646 7.231,-63.269 z" /></g></g></g></g><g
       id="g340"><g
         clip-path="url(#clipPath344)"
         id="g342"><g
           transform="translate(141.4072,152.4507)"
           id="g348"><path
             id="path350"
             style="fill:none;stroke:#58595b;stroke-width:0.121;stroke-linecap:butt;stroke-linejoin:miter;stroke-miterlimit:10;stroke-dasharray:none;stroke-opacity:1"
             d="M 0,0 -7.231,63.27 9.476,2.623 9.94,-0.58 C 9.94,-0.58 4.97,-4.616 0,0 Z" /></g><g
           transform="translate(156.0615,125.8311)"
           id="g352"><path
             id="path354"
             style="fill:#808184;fill-opacity:1;fill-rule:nonzero;stroke:none"
             d="m 0,0 c 0.203,-1.393 -1.312,-2.774 -3.383,-3.086 -2.07,-0.31 -3.913,0.566 -4.116,1.959 -0.202,1.393 1.312,2.774 3.383,3.085 C -2.045,2.27 -0.202,1.393 0,0" /></g><g
           transform="translate(156.0615,125.8311)"
           id="g356"><path
             id="path358"
             style="fill:none;stroke:#231f20;stroke-width:0.121;stroke-linecap:butt;stroke-linejoin:miter;stroke-miterlimit:10;stroke-dasharray:none;stroke-opacity:1"
             d="m 0,0 c 0.203,-1.393 -1.312,-2.774 -3.383,-3.086 -2.07,-0.31 -3.913,0.566 -4.116,1.959 -0.202,1.393 1.312,2.774 3.383,3.085 C -2.045,2.27 -0.202,1.393 0,0 Z" /></g><g
           transform="translate(142.4766,148.3452)"
           id="g360"><path
             id="path362"
             style="fill:#a6a8ab;fill-opacity:1;fill-rule:nonzero;stroke:none"
             d="M 0,0 C 0,0 -0.547,-7.44 2.117,-6.604 4.78,-5.767 5.414,-7.56 4.828,-4.816 4.243,-2.072 2.949,0.443 2.949,0.443 L 0,0 Z" /></g><g
           transform="translate(142.4766,148.3452)"
           id="g364"><path
             id="path366"
             style="fill:none;stroke:#231f20;stroke-width:0.121;stroke-linecap:butt;stroke-linejoin:miter;stroke-miterlimit:10;stroke-dasharray:none;stroke-opacity:1"
             d="M 0,0 C 0,0 -0.547,-7.44 2.117,-6.604 4.78,-5.767 5.414,-7.56 4.828,-4.816 4.243,-2.072 2.949,0.443 2.949,0.443 L 0,0 Z" /></g><g
           transform="translate(153.2383,148.936)"
           id="g368"><path
             id="path370"
             style="fill:#58595b;fill-opacity:1;fill-rule:nonzero;stroke:none"
             d="m 0,0 c -0.937,-0.375 -6.925,-2.709 -4.188,-4.333 0.448,-0.267 1.023,-0.25 1.514,-0.199 0.161,0.017 1.983,0.427 2.026,0.553 0.063,0.186 -1.51,-0.341 -1.419,-0.3 -0.849,-0.385 -1.664,-1.205 -1.409,-2.226 0.24,-0.961 0.971,-1.146 1.795,-0.945 -0.243,-0.06 2.95,1.623 1.743,0.856 -0.833,-0.53 -1.621,-0.67 -2.232,-1.527 -1.144,-1.604 0.231,-4.324 2.129,-2.832 0.122,0.097 -0.05,0.266 -0.17,0.171 -1.939,1.566 -2.216,2.672 -0.831,3.318 0.556,0.424 1.177,0.724 1.863,0.898 0.117,0.044 0.112,0.187 0,0.233 -0.775,0.316 -0.263,0.025 -1.126,0.086 -0.019,0.002 -0.53,-0.319 -0.54,-0.311 -0.319,-0.252 -0.289,0.137 0.092,1.164 -0.301,0.999 -0.028,1.403 0.819,1.213 0.128,0.007 0.173,0.21 0.033,0.237 -0.685,0.134 -2.982,-0.579 -3.274,-0.395 -0.22,0.696 -0.439,1.393 -0.659,2.089 0.409,0.275 0.828,0.534 1.257,0.777 0.85,0.482 1.732,0.877 2.64,1.241 C 0.206,-0.175 0.144,0.058 0,0" /></g><g
           transform="translate(94.1543,124.7588)"
           id="g372"><path
             id="path374"
             style="fill:#221e1d;fill-opacity:1;fill-rule:nonzero;stroke:none"
             d="m 0,0 -0.002,0.021 c -0.227,-0.411 -0.53,-0.483 -0.966,-0.309 -0.935,0.374 -1.899,0.66 -2.9,0.803 -0.875,0.126 -1.619,-0.098 -2.101,-0.876 -0.479,-0.772 -0.898,-1.582 -1.338,-2.379 -1.091,-1.972 -1.436,-2.131 -3.563,-1.634 -0.341,0.08 -0.693,0.132 -1.023,0.247 -1.346,0.467 -2.299,-0.116 -2.842,-1.288 -0.98,-2.115 -2.456,-2.922 -4.698,-2.241 -0.602,0.183 -0.801,-0.03 -0.54,-0.711 0.635,-1.658 1.184,-3.349 1.773,-5.025 2.08,-5.919 4.881,-11.309 10.474,-14.621 1.386,-0.82 2.784,-1.638 4.437,-1.785 0.047,-0.38 0.387,-0.298 0.6,-0.352 3.036,-0.78 6.103,-0.816 9.193,-0.404 0.933,0.124 1.614,0.571 2.17,1.325 0.858,1.16 1.655,2.366 2.291,3.657 2.335,4.733 3.684,9.686 3.789,15.053 C 14.869,-4.6 13.24,0.627 9.826,5.355 9.378,5.975 9.049,6.056 8.603,5.422 8.114,4.727 7.605,4.044 7.132,3.338 6.787,2.823 6.389,2.575 5.747,2.735 4.778,2.977 3.792,3.142 2.819,3.365 2.116,3.527 1.586,3.396 1.264,2.667 0.906,1.86 0.502,1.074 0.118,0.279 0.079,0.186 0.039,0.093 0,0 m 14.716,-2.183 c -0.236,-0.765 0.183,-1.448 0.294,-2.165 1.462,-9.502 -0.209,-18.237 -6.02,-25.998 -0.492,-0.657 -1.121,-1 -1.861,-1.122 -8.97,-1.484 -17.358,1.609 -22.406,9.971 -0.234,0.389 -0.363,0.901 -0.87,1.076 l -3.461,8.186 c 0.281,0.204 0.049,0.414 -0.009,0.605 -0.414,1.381 -0.833,2.761 -1.271,4.135 -0.22,0.693 0.002,0.958 0.705,0.877 0.606,-0.07 1.236,-0.028 1.822,-0.175 1.058,-0.267 1.663,0.095 2.29,1.015 1.842,2.702 1.706,3.449 5.523,2.272 1.017,-0.313 1.676,-0.011 2.257,0.899 0.832,1.302 1.416,2.763 2.446,3.934 0.239,0.104 0.477,0.209 0.716,0.313 1.33,-0.161 2.639,-0.421 3.918,-0.834 0.214,-0.07 0.415,-0.105 0.55,0.186 0.516,1.113 1.323,2.08 1.614,3.307 C 1.131,4.378 1.311,4.456 1.489,4.534 2.691,4.387 3.888,4.197 5.04,3.813 5.848,3.544 6.372,3.761 6.775,4.523 7.264,5.444 7.81,6.332 8.689,6.951 9.077,7.224 9.338,7.231 9.678,6.856 10.403,6.057 11.011,5.183 11.58,4.265 c 0.394,-0.638 0.563,-1.432 1.212,-1.9 0.642,-1.516 1.283,-3.032 1.924,-4.548" /></g><g
           transform="translate(99.9263,105.8584)"
           id="g376"><path
             id="path378"
             style="fill:#887d7d;fill-opacity:1;fill-rule:nonzero;stroke:none"
             d="m 0,0 c -0.206,-0.167 -0.356,-0.37 -0.248,-0.597 0.205,-0.424 0.61,-0.357 0.969,-0.286 0.195,0.038 0.359,0.253 0.248,0.434 C 0.752,-0.098 0.352,-0.065 0,0 m -1.012,19.086 c -0.241,0.292 -0.405,0.923 -1.105,0.638 -0.495,-0.202 -0.571,-0.612 -0.341,-1.048 0.235,-0.448 0.468,-0.982 1.154,-0.639 0.419,0.209 0.581,0.498 0.292,1.049 m 3.84,0.025 c 0.235,-0.465 0.525,-0.786 1.07,-0.506 0.557,0.286 0.677,0.766 0.475,1.32 -0.197,0.539 -0.611,0.8 -1.143,0.53 C 2.673,20.172 2.667,19.642 2.828,19.111 M 5.666,8.382 C 5.927,7.781 6.462,7.455 6.819,7.615 7.396,7.876 7.718,8.723 7.455,9.276 7.185,9.846 6.711,9.902 6.231,9.686 5.645,9.422 5.484,8.914 5.666,8.382 M 1.228,-10.135 c 0.563,0.27 0.911,0.783 0.627,1.471 C 1.6,-8.045 1.08,-7.652 0.364,-7.941 -0.357,-8.233 -0.431,-8.98 -0.232,-9.52 c 0.17,-0.462 0.647,-1.037 1.46,-0.615 m -4.385,1.38 c -0.295,0.441 -0.683,0.764 -1.316,0.432 -0.531,-0.279 -0.772,-0.671 -0.488,-1.269 0.285,-0.6 0.732,-0.946 1.381,-0.652 0.607,0.275 0.653,0.823 0.423,1.489 m 9.101,22.194 c 0.76,0.276 0.7,0.88 0.53,1.471 C 6.291,15.546 5.749,15.704 5.233,15.486 4.64,15.236 4.561,14.652 4.752,14.063 4.944,13.47 5.327,13.207 5.944,13.439 M 4.42,-1.717 c 0.267,-0.594 0.819,-0.752 1.471,-0.494 0.492,0.194 0.637,0.618 0.445,1.13 -0.233,0.623 -1.067,1.08 -1.561,0.814 C 4.233,-0.56 4.131,-1.043 4.42,-1.717 M 7.194,4.288 C 6.987,4.65 6.723,5.037 6.105,4.731 5.476,4.42 5.074,3.403 5.392,2.698 5.642,2.144 6.116,2.119 6.619,2.342 7.26,2.627 7.533,3.458 7.194,4.288 M 3.665,-6.531 c 0.577,0.286 1.094,0.667 0.808,1.422 C 4.225,-4.452 3.66,-4.291 3.034,-4.541 2.404,-4.792 2.129,-5.277 2.391,-5.954 2.617,-6.539 2.975,-6.918 3.665,-6.531 m -9.319,25.71 c 0.384,0.796 0.788,1.582 1.146,2.388 0.322,0.729 0.852,0.86 1.555,0.699 0.973,-0.224 1.959,-0.389 2.928,-0.63 0.642,-0.16 1.04,0.088 1.385,0.602 0.473,0.707 0.982,1.389 1.471,2.084 0.446,0.635 0.775,0.553 1.223,-0.066 C 7.468,19.527 9.097,14.301 8.982,8.382 8.877,3.015 7.528,-1.938 5.193,-6.672 4.557,-7.963 3.76,-9.169 2.902,-10.329 c -0.556,-0.754 -1.237,-1.2 -2.17,-1.324 -3.09,-0.412 -6.157,-0.376 -9.193,0.403 -0.213,0.055 -0.553,-0.027 -0.6,0.353 -0.228,0.54 0.107,0.995 0.217,1.483 0.337,1.15 -0.037,1.632 -1.365,1.758 -0.114,0.279 -0.169,0.537 -0.01,0.843 0.746,1.432 0.831,3.07 1.267,4.599 0.203,0.713 0.498,1.47 0.524,2.259 0.078,2.357 0.984,4.559 1.269,6.88 0.015,0.123 0.214,0.223 0.328,0.334 0.08,-0.143 0.173,-0.279 0.237,-0.428 1.587,-3.698 3.059,-7.449 4.911,-11.025 0.146,-0.284 0.23,-0.777 0.589,-0.633 0.387,0.153 0.166,0.611 0.073,0.941 -0.027,0.093 -0.088,0.175 -0.135,0.262 -2.458,4.525 -4.387,9.303 -6.463,14.011 0.811,0.569 1.01,1.384 1.159,2.346 0.192,1.238 0.382,2.488 0.719,3.713 0.209,0.761 0.817,1.673 -0.033,2.476 0,0 0.002,-0.022 0.002,-0.022 0.039,0.093 0.079,0.186 0.118,0.279" /></g><g
           transform="translate(89.8179,121.0254)"
           id="g380"><path
             id="path382"
             style="fill:#bcb3b4;fill-opacity:1;fill-rule:nonzero;stroke:none"
             d="M 0,0 C 0.314,-0.606 0.765,-0.645 1.319,-0.407 1.854,-0.177 1.985,0.234 1.745,0.704 1.471,1.241 0.964,1.403 0.422,1.147 -0.055,0.921 -0.169,0.488 0,0 m -13.037,-7.831 c 0.223,-0.341 0.459,-0.792 1.091,-0.535 0.616,0.25 0.747,0.722 0.493,1.278 -0.208,0.457 -0.527,0.876 -1.134,0.641 -0.621,-0.24 -0.691,-0.717 -0.45,-1.384 m 10.004,-13.066 c -0.38,0.496 -0.831,0.799 -1.481,0.528 -0.526,-0.22 -0.642,-0.654 -0.417,-1.118 0.318,-0.654 0.903,-0.793 1.549,-0.568 0.59,0.207 0.453,0.69 0.349,1.158 m -4.146,2.782 c 0.681,0.227 0.71,0.754 0.496,1.204 -0.253,0.534 -0.724,0.928 -1.38,0.649 -0.59,-0.251 -0.571,-0.78 -0.321,-1.239 0.253,-0.466 0.543,-1.055 1.205,-0.614 m -1.407,13.843 c 0.265,-0.698 0.75,-0.864 1.344,-0.685 0.584,0.177 0.696,0.658 0.521,1.182 -0.189,0.563 -0.607,0.87 -1.202,0.672 -0.561,-0.186 -0.821,-0.602 -0.663,-1.169 m -2.499,-8.155 c 0.347,-0.478 0.753,-0.946 1.483,-0.688 0.558,0.197 0.561,0.716 0.441,1.136 -0.152,0.537 -1.206,0.939 -1.65,0.706 -0.479,-0.252 -0.451,-0.662 -0.274,-1.154 M 3.277,-7.908 C 3.164,-8.019 2.965,-8.119 2.95,-8.242 2.665,-10.563 1.758,-12.765 1.681,-15.122 1.655,-15.911 1.36,-16.668 1.156,-17.381 0.72,-18.91 0.635,-20.548 -0.11,-21.98 c -0.16,-0.306 -0.105,-0.564 0.009,-0.843 -0.445,-0.239 -0.908,-0.637 -0.761,-1.102 0.168,-0.527 0.707,-0.907 1.323,-0.916 0.267,-0.003 0.536,0.168 0.804,0.26 -0.11,-0.488 -0.446,-0.943 -0.217,-1.483 -1.653,0.146 -3.052,0.964 -4.437,1.785 -5.593,3.311 -8.395,8.702 -10.474,14.621 -0.589,1.676 -1.139,3.366 -1.773,5.024 -0.261,0.682 -0.062,0.895 0.539,0.711 2.243,-0.681 3.719,0.126 4.698,2.241 0.543,1.172 1.496,1.755 2.843,1.288 0.33,-0.115 0.681,-0.167 1.023,-0.247 2.127,-0.497 2.471,-0.338 3.562,1.634 0.441,0.797 0.859,1.608 1.338,2.379 C -1.15,4.15 -0.406,4.374 0.469,4.249 1.47,4.105 2.433,3.82 3.369,3.446 3.805,3.271 4.108,3.343 4.334,3.755 5.185,2.952 4.576,2.04 4.367,1.279 4.031,0.054 3.84,-1.196 3.648,-2.434 3.499,-3.396 3.301,-4.211 2.49,-4.78 2.423,-4.632 2.374,-4.473 2.286,-4.34 2.159,-4.147 2.18,-3.705 1.846,-3.836 1.493,-3.976 1.792,-4.287 1.874,-4.491 2.328,-5.636 2.807,-6.771 3.277,-7.908" /></g><g
           transform="translate(94.272,125.0376)"
           id="g384"><path
             id="path386"
             style="fill:#bcb3b4;fill-opacity:1;fill-rule:nonzero;stroke:none"
             d="M 0,0 C -0.039,-0.093 -0.079,-0.186 -0.118,-0.279 -0.079,-0.186 -0.039,-0.093 0,0" /></g><g
           transform="translate(93.0952,113.1172)"
           id="g388"><path
             id="path390"
             style="fill:#221e1d;fill-opacity:1;fill-rule:nonzero;stroke:none"
             d="m 0,0 c -0.471,1.138 -0.949,2.272 -1.404,3.417 -0.081,0.204 -0.381,0.516 -0.027,0.655 0.333,0.131 0.313,-0.311 0.44,-0.504 0.087,-0.132 0.137,-0.292 0.203,-0.44 2.076,-4.708 4.005,-9.485 6.463,-14.011 0.047,-0.087 0.108,-0.169 0.135,-0.262 0.093,-0.33 0.314,-0.788 -0.073,-0.941 -0.359,-0.143 -0.443,0.35 -0.589,0.633 C 3.296,-7.877 1.824,-4.126 0.237,-0.428 0.173,-0.278 0.08,-0.143 0,0" /></g><g
           transform="translate(103.5908,99.3271)"
           id="g392"><path
             id="path394"
             style="fill:#221e1d;fill-opacity:1;fill-rule:nonzero;stroke:none"
             d="M 0,0 C -0.689,-0.387 -1.048,-0.008 -1.274,0.577 -1.536,1.254 -1.26,1.739 -0.63,1.99 -0.005,2.24 0.56,2.079 0.809,1.422 1.094,0.667 0.578,0.286 0,0" /></g><g
           transform="translate(106.4067,109.0361)"
           id="g396"><path
             id="path398"
             style="fill:#221e1d;fill-opacity:1;fill-rule:nonzero;stroke:none"
             d="M 0,0 C 0.222,0.173 0.355,0.385 0.252,0.678 0.17,0.91 -0.006,0.972 -0.202,0.843 -0.44,0.686 -0.542,0.431 -0.463,0.155 -0.397,-0.075 -0.212,-0.119 0,0 M 0.713,1.11 C 1.053,0.28 0.779,-0.551 0.139,-0.836 -0.364,-1.059 -0.839,-1.034 -1.088,-0.479 -1.406,0.226 -1.005,1.242 -0.375,1.554 0.242,1.859 0.506,1.473 0.713,1.11" /></g><g
           transform="translate(91.0825,96.4443)"
           id="g400"><path
             id="path402"
             style="fill:#221e1d;fill-opacity:1;fill-rule:nonzero;stroke:none"
             d="M 0,0 C -0.268,-0.092 -0.537,-0.263 -0.803,-0.26 -1.42,-0.251 -1.959,0.129 -2.126,0.656 -2.273,1.121 -1.811,1.519 -1.365,1.758 -0.037,1.632 0.337,1.15 0,0" /></g><g
           transform="translate(104.3467,104.1416)"
           id="g404"><path
             id="path406"
             style="fill:#221e1d;fill-opacity:1;fill-rule:nonzero;stroke:none"
             d="M 0,0 C -0.289,0.674 -0.187,1.157 0.355,1.45 0.848,1.716 1.682,1.259 1.916,0.636 2.108,0.124 1.962,-0.3 1.47,-0.494 0.818,-0.752 0.267,-0.594 0,0" /></g><g
           transform="translate(105.8701,119.2979)"
           id="g408"><path
             id="path410"
             style="fill:#221e1d;fill-opacity:1;fill-rule:nonzero;stroke:none"
             d="M 0,0 C -0.617,-0.232 -1,0.03 -1.191,0.623 -1.383,1.213 -1.304,1.797 -0.71,2.047 -0.195,2.265 0.347,2.106 0.53,1.471 0.7,0.88 0.76,0.275 0,0" /></g><g
           transform="translate(96.7695,97.1035)"
           id="g412"><path
             id="path414"
             style="fill:#221e1d;fill-opacity:1;fill-rule:nonzero;stroke:none"
             d="m 0,0 c 0.229,-0.666 0.184,-1.214 -0.423,-1.489 -0.649,-0.294 -1.097,0.052 -1.381,0.652 -0.284,0.598 -0.043,0.99 0.488,1.269 C -0.683,0.764 -0.295,0.44 0,0" /></g><g
           transform="translate(100.6201,97.3721)"
           id="g416"><path
             id="path418"
             style="fill:#221e1d;fill-opacity:1;fill-rule:nonzero;stroke:none"
             d="m 0,0 c -0.089,-0.24 -0.436,-0.382 -0.279,-0.731 0.11,-0.247 0.293,-0.341 0.533,-0.202 0.293,0.169 0.364,0.447 0.24,0.747 C 0.412,0.013 0.225,0.067 0,0 m 0.534,-1.648 c -0.813,-0.422 -1.289,0.152 -1.46,0.615 -0.199,0.539 -0.125,1.286 0.596,1.578 0.716,0.289 1.236,-0.104 1.491,-0.723 0.284,-0.687 -0.064,-1.201 -0.627,-1.47" /></g><g
           transform="translate(105.5923,114.2402)"
           id="g420"><path
             id="path422"
             style="fill:#221e1d;fill-opacity:1;fill-rule:nonzero;stroke:none"
             d="M 0,0 C -0.182,0.532 -0.021,1.04 0.565,1.304 1.045,1.521 1.519,1.464 1.789,0.895 2.052,0.341 1.73,-0.506 1.153,-0.767 0.796,-0.927 0.261,-0.601 0,0" /></g><g
           transform="translate(102.7539,124.9697)"
           id="g424"><path
             id="path426"
             style="fill:#221e1d;fill-opacity:1;fill-rule:nonzero;stroke:none"
             d="M 0,0 C -0.16,0.531 -0.154,1.061 0.403,1.343 0.934,1.613 1.349,1.353 1.545,0.813 1.747,0.26 1.627,-0.221 1.071,-0.506 0.525,-0.787 0.236,-0.465 0,0" /></g><g
           transform="translate(98.9146,124.9448)"
           id="g428"><path
             id="path430"
             style="fill:#221e1d;fill-opacity:1;fill-rule:nonzero;stroke:none"
             d="M 0,0 C 0.289,-0.552 0.126,-0.841 -0.292,-1.05 -0.979,-1.392 -1.211,-0.858 -1.447,-0.411 -1.676,0.025 -1.6,0.436 -1.105,0.637 -0.406,0.922 -0.242,0.292 0,0" /></g><g
           transform="translate(99.9263,105.8584)"
           id="g432"><path
             id="path434"
             style="fill:#221e1d;fill-opacity:1;fill-rule:nonzero;stroke:none"
             d="M 0,0 C 0.352,-0.065 0.752,-0.098 0.969,-0.449 1.08,-0.63 0.916,-0.845 0.721,-0.883 0.362,-0.954 -0.043,-1.021 -0.248,-0.597 -0.356,-0.37 -0.206,-0.167 0,0" /></g><g
           transform="translate(78.7324,108.5986)"
           id="g436"><path
             id="path438"
             style="fill:#221e1d;fill-opacity:1;fill-rule:nonzero;stroke:none"
             d="M 0,0 C -0.177,0.492 -0.205,0.901 0.275,1.153 0.718,1.387 1.772,0.984 1.924,0.448 2.044,0.027 2.042,-0.491 1.484,-0.688 0.753,-0.946 0.348,-0.479 0,0" /></g><g
           transform="translate(81.2319,116.7529)"
           id="g440"><path
             id="path442"
             style="fill:#221e1d;fill-opacity:1;fill-rule:nonzero;stroke:none"
             d="M 0,0 C -0.158,0.567 0.102,0.983 0.663,1.17 1.258,1.367 1.676,1.061 1.865,0.497 2.04,-0.026 1.928,-0.508 1.344,-0.685 0.75,-0.863 0.265,-0.697 0,0" /></g><g
           transform="translate(82.6392,102.9102)"
           id="g444"><path
             id="path446"
             style="fill:#221e1d;fill-opacity:1;fill-rule:nonzero;stroke:none"
             d="m 0,0 c -0.663,-0.44 -0.953,0.148 -1.206,0.614 -0.249,0.459 -0.268,0.989 0.322,1.24 0.656,0.278 1.127,-0.116 1.38,-0.65 C 0.709,0.754 0.681,0.228 0,0" /></g><g
           transform="translate(86.7852,100.1279)"
           id="g448"><path
             id="path450"
             style="fill:#221e1d;fill-opacity:1;fill-rule:nonzero;stroke:none"
             d="M 0,0 C 0.104,-0.468 0.241,-0.95 -0.35,-1.157 -0.995,-1.383 -1.58,-1.243 -1.898,-0.59 -2.124,-0.126 -2.007,0.309 -1.481,0.528 -0.831,0.8 -0.38,0.496 0,0" /></g><g
           transform="translate(76.7808,113.1943)"
           id="g452"><path
             id="path454"
             style="fill:#221e1d;fill-opacity:1;fill-rule:nonzero;stroke:none"
             d="M 0,0 C -0.241,0.667 -0.171,1.144 0.45,1.384 1.057,1.619 1.376,1.2 1.584,0.743 1.838,0.187 1.707,-0.285 1.091,-0.535 0.459,-0.792 0.223,-0.341 0,0" /></g><g
           transform="translate(89.8179,121.0254)"
           id="g456"><path
             id="path458"
             style="fill:#221e1d;fill-opacity:1;fill-rule:nonzero;stroke:none"
             d="M 0,0 C -0.169,0.488 -0.055,0.921 0.422,1.147 0.964,1.403 1.471,1.241 1.745,0.704 1.985,0.234 1.854,-0.177 1.319,-0.407 0.765,-0.645 0.314,-0.606 0,0" /></g><g
           transform="translate(106.4053,109.0361)"
           id="g460"><path
             id="path462"
             style="fill:#bcb3b4;fill-opacity:1;fill-rule:nonzero;stroke:none"
             d="M 0,0 C -0.21,-0.119 -0.396,-0.075 -0.461,0.155 -0.54,0.431 -0.439,0.686 -0.2,0.843 -0.005,0.972 0.171,0.91 0.253,0.678 0.356,0.385 0.223,0.173 0,0" /></g><g
           transform="translate(100.6201,97.3721)"
           id="g464"><path
             id="path466"
             style="fill:#bcb3b4;fill-opacity:1;fill-rule:nonzero;stroke:none"
             d="m 0,0 c 0.225,0.067 0.412,0.013 0.494,-0.186 0.124,-0.3 0.053,-0.578 -0.24,-0.747 -0.24,-0.139 -0.423,-0.045 -0.533,0.202 C -0.436,-0.382 -0.089,-0.24 0,0" /></g></g></g><g
       id="text468"
       style="font-variant:normal;font-weight:normal;font-stretch:normal;font-size:19.9999733px;font-family:'Museo 500';-inkscape-font-specification:Museo-500;writing-mode:lr-tb;fill:#231f20;fill-opacity:1;fill-rule:nonzero;stroke:none"
       transform="matrix(0.95138623,0.3080004,0.3080004,-0.95138623,107.3996,38.5187)"><path
         id="path473"
         style=""
         d="m 0.67999909,-1.8599975 c 0,0 1.67999771,2.09999718 4.67999371,2.09999718 2.7999963,0 4.4799941,-1.85999748 4.4799941,-4.01999468 0,-4.6399938 -6.799991,-3.9999946 -6.799991,-6.859991 0,-1.059998 0.9599988,-1.899997 2.4799967,-1.899997 1.1199985,0 2.1799971,0.539999 2.1799971,1.279998 l 0,0.659999 1.8399976,0 0,-1.159998 c 0,-1.919998 -2.5199967,-2.599997 -4.0199947,-2.599997 -2.6599964,0 -4.51999394,1.659998 -4.51999394,3.779995 0,4.3999943 6.81999094,3.9399949 6.81999094,6.8999909 0,1.2999983 -1.0999986,2.0999972 -2.4199968,2.0999972 -2.0999972,0 -3.5399953,-1.6999977 -3.5399953,-1.6999977 l -1.17999841,1.4199981 z" /><path
         id="path475"
         style=""
         d="m 12.499983,-12.099984 1.739998,0 0,-2.019997 -1.739998,0 0,2.019997 z m -0.04,10.8199857 C 12.459983,-0.37999949 12.839983,0 13.739981,0 l 1.899998,0 0,-1.6599978 -0.819999,0 c -0.28,0 -0.439999,-0.1399998 -0.439999,-0.4399994 l 0,-6.739991 c 0,-0.8999988 -0.38,-1.2799978 -1.279999,-1.2799978 l -1.899997,0 0,1.6599973 0.819999,0 c 0.279999,0 0.439999,0.1399998 0.439999,0.4399994 l 0,6.739991 z" /><path
         id="path477"
         style=""
         d="m 17.859977,0 1.939997,0 0,-4.1399945 c 0,-0.6199991 0.06,-1.2399983 0.24,-1.8199975 0.459999,-1.499998 1.599998,-2.3799969 2.839996,-2.3799969 0.319999,0 0.579999,0.06 0.579999,0.06 l 0,-1.9199971 c 0,0 -0.26,-0.04 -0.519999,-0.04 -1.559998,0 -2.719997,1.1599981 -3.199996,2.6399961 l -0.04,0 c 0,0 0.04,-0.2999996 0.04,-0.699999 l 0,-0.6399992 c 0,-0.8199989 -0.419999,-1.1799979 -1.299998,-1.1799979 l -1.839998,0 0,1.6599973 0.819999,0 c 0.28,0 0.44,0.1399998 0.44,0.4399994 l 0,8.0199893 z" /><path
         id="path479"
         style=""
         d="m 29.959962,-1.8599975 c 0,0 1.679997,2.09999718 4.679993,2.09999718 2.799997,0 4.479994,-1.85999748 4.479994,-4.01999468 0,-4.6399938 -6.799991,-3.9999946 -6.799991,-6.859991 0,-1.059998 0.959999,-1.899997 2.479997,-1.899997 1.119999,0 2.179997,0.539999 2.179997,1.279998 l 0,0.659999 1.839998,0 0,-1.159998 c 0,-1.919998 -2.519997,-2.599997 -4.019995,-2.599997 -2.659996,0 -4.519994,1.659998 -4.519994,3.779995 0,4.3999943 6.819991,3.9399949 6.819991,6.8999909 0,1.2999983 -1.099998,2.0999972 -2.419997,2.0999972 -2.099997,0 -3.539995,-1.6999977 -3.539995,-1.6999977 l -1.179998,1.4199981 z" /><path
         id="path481"
         style=""
         d="m 40.757948,-5.0599932 c 0,2.999996 2.179997,5.29999288 5.379992,5.29999288 2.399997,0 3.899995,-1.47999798 3.899995,-1.47999798 l -0.839999,-1.3799982 c 0,0 -1.219998,1.1799984 -2.959996,1.1799984 -1.799997,0 -3.359995,-1.2199983 -3.479995,-3.3799955 l 7.37999,0 c 0,0 0.06,-0.5399992 0.06,-0.7999989 0,-2.6199965 -1.519998,-4.7399935 -4.359994,-4.7399935 -2.879996,0 -5.079993,2.0799971 -5.079993,5.2999928 z m 2.079997,-1.1799985 c 0.299999,-1.6799977 1.499998,-2.5799965 2.979996,-2.5799965 1.259998,0 2.319997,0.8999988 2.379997,2.5799965 l -5.359993,0 z" /><path
         id="path483"
         style=""
         d="m 51.797933,-5.0599932 c 0,2.999996 2.179997,5.29999288 5.379993,5.29999288 2.399997,0 3.899995,-1.47999798 3.899995,-1.47999798 l -0.839999,-1.3799982 c 0,0 -1.219998,1.1799984 -2.959996,1.1799984 -1.799998,0 -3.359996,-1.2199983 -3.479995,-3.3799955 l 7.37999,0 c 0,0 0.06,-0.5399992 0.06,-0.7999989 0,-2.6199965 -1.519998,-4.7399935 -4.359994,-4.7399935 -2.879997,0 -5.079994,2.0799971 -5.079994,5.2999928 z m 2.079998,-1.1799985 c 0.299999,-1.6799977 1.499998,-2.5799965 2.979996,-2.5799965 1.259998,0 2.319996,0.8999988 2.379996,2.5799965 l -5.359992,0 z" /><path
         id="path485"
         style=""
         d="m 62.857919,-5.0599932 c 0,3.1399958 1.719998,5.29999288 4.459994,5.29999288 2.479997,0 3.319996,-1.83999758 3.319996,-1.83999758 l 0.04,0 c 0,0 -0.02,0.2199997 -0.02,0.5199993 C 70.657909,-0.39999947 71.017908,0 71.897907,0 l 1.859997,0 0,-1.6599978 -0.819999,0 c -0.279999,0 -0.439999,-0.1399998 -0.439999,-0.4399994 l 0,-10.7399858 c 0,-0.899999 -0.379999,-1.279998 -1.279998,-1.279998 l -1.919998,0 0,1.659998 0.819999,0 c 0.28,0 0.44,0.139999 0.44,0.439999 l 0,2.5399967 c 0,0.3799994 0.04,0.679999 0.04,0.679999 l -0.04,0 c 0,0 -0.779999,-1.5599977 -3.119996,-1.5599977 -2.679997,0 -4.579994,2.0799971 -4.579994,5.2999928 z m 4.839993,3.6199951 c -1.679997,0 -2.859996,-1.4199981 -2.859996,-3.6199951 0,-2.299997 1.319999,-3.6199952 2.899996,-3.6199952 1.939998,0 2.879997,1.7999976 2.879997,3.5999952 0,2.5799965 -1.419999,3.6399951 -2.919997,3.6399951 z" /></g></g></svg>