<svg width="28" height="27" viewBox="0 0 28 27" fill="none" xmlns="http://www.w3.org/2000/svg">
<path d="M15.5556 21H18.6667C23.8213 21 28 16.8213 28 11.6667V9.33333C28 4.17868 23.8213 0 18.6667 0H9.33333C4.17868 0 0 4.17868 0 9.33333V11.6667C0 16.5594 3.76481 20.5729 8.55556 20.9681V26.4444L15.5556 21Z" fill="#E1D4F8"/>
<path d="M20.0455 11.1588V10.4666V9.77436L21.0441 10.4666L20.0455 11.1588Z" fill="#E1D4F8"/>
<path d="M7.50478 11.3496V8.59705C7.50478 8.59705 7.37965 6.83109 8.7587 6.83109C10.1377 6.83109 10.0126 8.59705 10.0126 8.59705V12.3361C10.0126 12.3361 9.85613 14.1021 11.2665 14.1021C12.6769 14.1021 12.5204 12.3361 12.5204 12.3361V9.77436C12.5204 9.77436 12.3326 8.00839 13.7744 8.00839C15.2161 8.00839 15.0283 9.77436 15.0283 9.77436V11.1588C15.0283 11.1588 14.8819 12.3361 16.0754 12.3361C17.4393 12.3361 16.8061 10.4666 17.6585 10.4666C18.511 10.4666 19.0712 10.4666 20.0455 10.4666M20.0455 10.4666V11.1588L21.0441 10.4666L20.0455 9.77436V10.4666Z" stroke="#7E57C2" stroke-width="1.05958"/>
</svg>
