<?xml version="1.0" encoding="UTF-8" standalone="no"?>
<svg
   xmlns:dc="http://purl.org/dc/elements/1.1/"
   xmlns:cc="http://creativecommons.org/ns#"
   xmlns:rdf="http://www.w3.org/1999/02/22-rdf-syntax-ns#"
   xmlns:svg="http://www.w3.org/2000/svg"
   xmlns="http://www.w3.org/2000/svg"
   viewBox="0 0 281.25 312.20499"
   height="312.20499"
   width="281.25"
   xml:space="preserve"
   version="1.1"
   id="svg2"><metadata
     id="metadata8"><rdf:RDF><cc:Work
         rdf:about=""><dc:format>image/svg+xml</dc:format><dc:type
           rdf:resource="http://purl.org/dc/dcmitype/StillImage" /></cc:Work></rdf:RDF></metadata><defs
     id="defs6"><clipPath
       id="clipPath20"
       clipPathUnits="userSpaceOnUse"><path
         id="path22"
         d="m 0,0 225,0 0,249.764 -225,0 L 0,0 Z" /></clipPath><clipPath
       id="clipPath40"
       clipPathUnits="userSpaceOnUse"><path
         id="path42"
         d="m 0,0 225,0 0,249.764 -225,0 L 0,0 Z" /></clipPath><clipPath
       id="clipPath64"
       clipPathUnits="userSpaceOnUse"><path
         id="path66"
         d="m 0,249.764 225,0 L 225,0 0,0 0,249.764 Z" /></clipPath><clipPath
       id="clipPath224"
       clipPathUnits="userSpaceOnUse"><path
         id="path226"
         d="m 87.4205,200.276 17.1715,0 0,-14.577 -17.1715,0 0,14.577 z" /></clipPath><clipPath
       id="clipPath260"
       clipPathUnits="userSpaceOnUse"><path
         id="path262"
         d="m 76.3457,196.764 15.6456,0 0,-15.126 -15.6456,0 0,15.126 z" /></clipPath></defs><g
     transform="matrix(1.25,0,0,-1.25,0,312.205)"
     id="g10"><g
       transform="translate(1.449,45.846)"
       id="g12"><path
         id="path14"
         style="fill:#f5f5f5;fill-opacity:1;fill-rule:nonzero;stroke:none"
         d="M 0,0 166.043,-45.469 220.074,150.89 56.008,198.332 0,0 Z" /></g><g
       id="g16"><g
         clip-path="url(#clipPath20)"
         id="g18"><g
           transform="translate(57.457,244.1777)"
           id="g24"><path
             id="path26"
             style="fill:none;stroke:#100f0d;stroke-width:0.61000001;stroke-linecap:butt;stroke-linejoin:miter;stroke-miterlimit:10;stroke-dasharray:none;stroke-opacity:1"
             d="M 0,0 164.066,-47.441 110.035,-243.801 -56.008,-198.332 0,0 Z" /></g></g></g><g
       transform="translate(64.8442,228.7324)"
       id="g28"><path
         id="path30"
         style="fill:#f5f5f5;fill-opacity:1;fill-rule:nonzero;stroke:none"
         d="M 0,0 -40.489,-142.278 99.195,-183.539 141.894,-40.949 0,0 Z" /></g><g
       transform="translate(64.8442,228.7324)"
       id="g32"><path
         id="path34"
         style="fill:none;stroke:#000000;stroke-width:0.639;stroke-linecap:butt;stroke-linejoin:miter;stroke-miterlimit:4;stroke-dasharray:none;stroke-opacity:1"
         d="M 0,0 -40.489,-142.278 99.195,-183.539 141.894,-40.949 0,0 Z" /></g><g
       id="g36"><g
         clip-path="url(#clipPath40)"
         id="g38"><g
           transform="translate(0.3789,200.7554)"
           id="g44"><path
             id="path46"
             style="fill:none;stroke:#100f0d;stroke-width:0.61000001;stroke-linecap:butt;stroke-linejoin:miter;stroke-miterlimit:10;stroke-dasharray:none;stroke-opacity:1"
             d="M 0,0 163.723,48.629 224.234,-145.82 59.918,-197.183 0,0 Z" /></g></g></g><g
       transform="translate(0.3789,200.7558)"
       id="g48"><path
         id="path50"
         style="fill:#f5f5f5;fill-opacity:1;fill-rule:nonzero;stroke:none"
         d="M 0,0 59.918,-197.184 224.234,-145.821 163.723,48.629 0,0 Z" /></g><g
       transform="translate(15.8398,190.2441)"
       id="g52"><path
         id="path54"
         style="fill:#e8e7e5;fill-opacity:1;fill-rule:nonzero;stroke:none"
         d="M 0,0 139.629,42.929 183.102,-97.27 44.558,-141.066 0,0 Z" /></g><g
       transform="translate(15.8398,190.2441)"
       id="g56"><path
         id="path58"
         style="fill:none;stroke:#100f0d;stroke-width:0.49700001;stroke-linecap:butt;stroke-linejoin:miter;stroke-miterlimit:10;stroke-dasharray:none;stroke-opacity:1"
         d="M 0,0 139.629,42.929 183.102,-97.27 44.558,-141.066 0,0 Z" /></g><g
       id="g60"><g
         clip-path="url(#clipPath64)"
         id="g62"><g
           transform="translate(117.4375,77.6514)"
           id="g68"><path
             id="path70"
             style="fill:#cccbcb;fill-opacity:1;fill-rule:nonzero;stroke:none"
             d="m 0,0 c 0.865,-1.472 2.223,-1.837 3.721,-1.909 1.646,-0.081 3.303,-0.269 4.927,0.006 2.502,0.424 4.733,1.518 6.85,2.907 0.84,0.55 0.739,-1.47 1.204,-0.658 0.249,0.435 -1.146,-1.965 0,0 C 16.707,0.354 18.789,0.198 18.786,0.19 17.607,-2.747 14.599,-1.903 11.894,-3.126 9.629,-4.148 7.231,-4.577 4.746,-4.531 3.449,-4.507 2.179,-4.203 0.999,-3.557 -0.118,-2.945 -0.435,-2.184 -0.142,-0.912 -0.073,-0.614 -0.046,-0.305 0,0" /></g><g
           transform="translate(138.3906,85.2266)"
           id="g72"><path
             id="path74"
             style="fill:#28aae1;fill-opacity:1;fill-rule:nonzero;stroke:none"
             d="m 0,0 c -0.38,1.811 -0.696,3.634 -1.006,5.459 -1.201,4.833 -1.032,9.68 -2.545,14.478 -0.538,1.277 -1.272,1.862 -2.574,1.927 -2.662,0.135 -5.237,-0.343 -7.781,-1.066 -0.081,-1.216 -0.163,-2.432 -0.245,-3.648 1.011,-1.214 2.152,-0.259 3.225,-0.16 0.717,0.068 1.405,0.512 2.303,0.211 -3.081,-2.334 -12.45,-5.57 -14.892,-5.143 2.118,1.614 4.762,2.049 6.791,3.611 0.205,1.441 0.367,2.883 -0.017,4.321 -2.131,-0.59 -4.109,-1.569 -6.087,-2.513 -1.935,-0.925 -3.793,-2.019 -5.351,-3.539 -0.831,-0.81 -1.226,-1.64 -0.698,-2.866 0.688,-1.593 1.449,-3.073 2.413,-4.558 2.811,-4.33 5.245,-8.908 7.734,-13.439 0.636,-1.161 1.455,-1.64 2.691,-1.564 1.349,0.082 2.694,0.188 4.042,0.285 l 7.745,2.764 c 0.768,0.911 1.915,1.277 2.841,1.967 C -0.212,-2.579 0.338,-1.608 0,0" /></g><g
           transform="translate(138.3906,85.2266)"
           id="g76"><path
             id="path78"
             style="fill:none;stroke:#000000;stroke-width:0.53600001;stroke-linecap:butt;stroke-linejoin:miter;stroke-miterlimit:10;stroke-dasharray:none;stroke-opacity:1"
             d="m 0,0 c -0.38,1.811 -0.696,3.634 -1.006,5.459 -1.201,4.833 -1.032,9.68 -2.545,14.478 -0.538,1.277 -1.272,1.862 -2.574,1.927 -2.662,0.135 -5.237,-0.343 -7.781,-1.066 -0.081,-1.216 -0.163,-2.432 -0.245,-3.648 1.011,-1.214 2.152,-0.259 3.225,-0.16 0.717,0.068 1.405,0.512 2.303,0.211 -3.081,-2.334 -12.45,-5.57 -14.892,-5.143 2.118,1.614 4.762,2.049 6.791,3.611 0.205,1.441 0.367,2.883 -0.017,4.321 -2.131,-0.59 -4.109,-1.569 -6.087,-2.513 -1.935,-0.925 -3.793,-2.019 -5.351,-3.539 -0.831,-0.81 -1.226,-1.64 -0.698,-2.866 0.688,-1.593 1.449,-3.073 2.413,-4.558 2.811,-4.33 5.245,-8.908 7.734,-13.439 0.636,-1.161 1.455,-1.64 2.691,-1.564 1.349,0.082 2.694,0.188 4.042,0.285 l 7.745,2.764 c 0.768,0.911 1.915,1.277 2.841,1.967 C -0.212,-2.579 0.338,-1.608 0,0 Z" /></g><g
           transform="translate(123.5166,102.7139)"
           id="g80"><path
             id="path82"
             style="fill:#252525;fill-opacity:1;fill-rule:nonzero;stroke:none"
             d="M 0,0 C 1.815,0.373 3.629,0.758 5.448,1.112 5.924,1.205 6.418,1.221 6.905,1.239 7.196,1.249 7.521,1.216 7.66,0.904 7.838,0.504 7.552,0.228 7.275,0.048 6.457,-0.483 5.641,-1.031 4.77,-1.462 0.276,-3.681 -4.416,-5.336 -9.345,-6.273 c -0.729,-0.139 -1.859,-0.551 -2.153,0.227 -0.355,0.942 0.848,1.259 1.516,1.649 1.902,1.11 3.893,2.046 5.991,2.738 0.459,0.151 0.914,0.376 1.419,0.178 0.015,-0.44 -0.408,-1.203 0.276,-1.211 0.834,-0.01 1.769,0.319 2.139,1.243 C 0.017,-1.015 -0.045,-0.486 0,0" /></g><g
           transform="translate(138.0479,126.9897)"
           id="g84"><path
             id="path86"
             style="fill:#69bc45;fill-opacity:1;fill-rule:nonzero;stroke:none"
             d="m 0,0 c 0.044,-0.522 -0.36,-0.778 -0.666,-1.075 -2.813,-2.734 -4.846,-5.948 -6.215,-9.631 -1.487,-4 -5.117,-6.028 -9.451,-5.427 -0.453,0.063 -0.874,0.053 -1.271,-0.19 l -0.187,0.375 c -0.184,0.503 -0.274,1.07 -0.567,1.498 -1.06,1.556 -0.842,3.199 -0.178,4.726 1.536,3.535 3.61,6.666 7.277,8.382 2.862,1.339 5.906,1.786 9.018,1.615 C -1.517,0.234 -0.673,0.61 0,0" /></g><g
           transform="translate(109.5562,117.6475)"
           id="g88"><path
             id="path90"
             style="fill:#69bc45;fill-opacity:1;fill-rule:nonzero;stroke:none"
             d="m 0,0 c 7.436,0.477 13.119,-9.068 9.486,-15.304 -1.43,-2.455 2.376,-4.675 3.804,-2.223 2.909,4.993 2.455,10.135 -0.844,14.822 C 9.552,1.406 5.241,4.741 0,4.405 -2.815,4.226 -2.835,-0.182 0,0" /></g><g
           transform="translate(72.4131,188.7964)"
           id="g92"><path
             id="path94"
             style="fill:#0973b9;fill-opacity:1;fill-rule:nonzero;stroke:none"
             d="m 0,0 c 0,0 -19.825,-47.333 29.647,-70.074 9.601,-4.412 27.471,11.719 17.441,47.104 C 41.969,-4.91 30.906,4.757 20.231,8.325 3.923,13.774 0,0 0,0" /></g><g
           transform="translate(94.7251,170.5107)"
           id="g96"><path
             id="path98"
             style="fill:#eff0ea;fill-opacity:1;fill-rule:nonzero;stroke:none"
             d="m 0,0 c 2.169,-6.079 -0.116,-12.451 -5.104,-14.231 -4.988,-1.78 -10.791,1.705 -12.96,7.785 -2.17,6.079 0.115,12.45 5.104,14.231 C -7.972,9.565 -2.17,6.08 0,0" /></g><g
           transform="translate(110.0112,177.9253)"
           id="g100"><path
             id="path102"
             style="fill:#eff0ea;fill-opacity:1;fill-rule:nonzero;stroke:none"
             d="m 0,0 c 2.44,-5.32 1.119,-11.147 -2.952,-13.014 -4.071,-1.867 -9.349,0.932 -11.79,6.252 -2.44,5.321 -1.118,11.147 2.952,13.014 C -7.719,8.12 -2.44,5.32 0,0" /></g><g
           transform="translate(90.4175,168.9736)"
           id="g104"><path
             id="path106"
             style="fill:#1a9948;fill-opacity:1;fill-rule:nonzero;stroke:none"
             d="m 0,0 c 1.029,-2.884 0.031,-5.875 -2.229,-6.682 -2.26,-0.807 -4.927,0.877 -5.956,3.761 -1.029,2.884 -0.031,5.876 2.229,6.682 C -3.695,4.568 -1.029,2.884 0,0" /></g><g
           transform="translate(107.1846,176.166)"
           id="g108"><path
             id="path110"
             style="fill:#1a9948;fill-opacity:1;fill-rule:nonzero;stroke:none"
             d="m 0,0 c 1.023,-2.866 0.178,-5.787 -1.888,-6.524 -2.065,-0.737 -4.569,0.988 -5.591,3.855 -1.023,2.866 -0.178,5.787 1.887,6.524 C -3.526,4.592 -1.023,2.866 0,0" /></g><g
           transform="translate(84.479,166.8545)"
           id="g112"><path
             id="path114"
             style="fill:#14170f;fill-opacity:1;fill-rule:nonzero;stroke:none"
             d="M 0,0 C -0.557,1.561 -0.04,3.173 1.156,3.599 2.352,4.026 3.773,3.106 4.33,1.545 4.887,-0.016 4.37,-1.627 3.174,-2.054 1.978,-2.481 0.557,-1.562 0,0" /></g><g
           transform="translate(101.4844,174.1123)"
           id="g116"><path
             id="path118"
             style="fill:#14170f;fill-opacity:1;fill-rule:nonzero;stroke:none"
             d="M 0,0 C -0.562,1.575 -0.031,3.204 1.186,3.638 2.403,4.072 3.846,3.148 4.408,1.573 4.969,-0.002 4.438,-1.63 3.221,-2.065 2.004,-2.5 0.562,-1.575 0,0" /></g><g
           transform="translate(82.6294,168.5986)"
           id="g120"><path
             id="path122"
             style="fill:#ffffff;fill-opacity:1;fill-rule:nonzero;stroke:none"
             d="M 0,0 C -0.031,0.959 0.552,1.756 1.304,1.781 2.056,1.805 2.69,1.048 2.722,0.089 2.753,-0.87 2.169,-1.667 1.418,-1.691 0.667,-1.716 0.032,-0.958 0,0" /></g><g
           transform="translate(102.1938,176.6187)"
           id="g124"><path
             id="path126"
             style="fill:#ffffff;fill-opacity:1;fill-rule:nonzero;stroke:none"
             d="m 0,0 c -0.065,-0.827 -0.566,-1.461 -1.118,-1.418 -0.551,0.044 -0.945,0.75 -0.88,1.576 0.065,0.827 0.566,1.462 1.118,1.418 C -0.329,1.532 0.065,0.827 0,0" /></g><g
           transform="translate(101.3433,173.6987)"
           id="g128"><path
             id="path130"
             style="fill:#ffffff;fill-opacity:1;fill-rule:nonzero;stroke:none"
             d="M 0,0 C -0.17,-0.223 -0.461,-0.286 -0.649,-0.142 -0.838,0.002 -0.853,0.3 -0.683,0.522 -0.512,0.745 -0.222,0.808 -0.033,0.664 0.155,0.52 0.17,0.222 0,0" /></g><g
           transform="translate(76.4834,179.4893)"
           id="g132"><path
             id="path134"
             style="fill:#0973b9;fill-opacity:1;fill-rule:nonzero;stroke:none"
             d="M 0,0 C 0.723,1.303 1.013,2.91 1.99,4.049 3.846,6.216 6.021,4.288 7.331,2.62 7.599,2.278 8.073,2.759 7.808,3.097 6.652,4.57 4.952,6.387 2.864,5.57 0.762,4.749 0.38,2.077 -0.583,0.341 -0.794,-0.039 -0.211,-0.38 0,0" /></g><g
           transform="translate(74.9995,178.4258)"
           id="g136"><path
             id="path138"
             style="fill:#4c3215;fill-opacity:1;fill-rule:nonzero;stroke:none"
             d="M 0,0 C 0.379,1.255 0.539,2.561 0.919,3.816 1.3,5.071 1.946,6.319 3.044,7.072 4.421,8.017 6.277,8 7.816,7.438 9.355,6.875 10.649,5.838 11.913,4.818 9.813,5.515 7.437,5.176 5.375,4.272 3.314,3.369 1.525,1.942 -0.134,0.426" /></g><g
           transform="translate(77.9175,176.606)"
           id="g140"><path
             id="path142"
             style="fill:#4a85a4;fill-opacity:1;fill-rule:nonzero;stroke:none"
             d="M 0,0 C 1.417,2.911 4.527,4.069 7.527,2.833 7.928,2.668 8.103,3.321 7.707,3.484 4.462,4.821 0.953,3.496 -0.583,0.341 -0.772,-0.048 -0.19,-0.391 0,0" /></g><g
           transform="translate(94.6309,182.3018)"
           id="g144"><path
             id="path146"
             style="fill:#4a85a4;fill-opacity:1;fill-rule:nonzero;stroke:none"
             d="M 0,0 C 1.932,2.488 4.679,4.697 8.012,3.535 8.423,3.392 8.599,4.043 8.191,4.186 4.658,5.418 1.606,3.16 -0.477,0.477 -0.74,0.138 -0.266,-0.343 0,0" /></g><g
           transform="translate(83.0894,155.3101)"
           id="g148"><path
             id="path150"
             style="fill:#597d9f;fill-opacity:1;fill-rule:nonzero;stroke:none"
             d="M 0,0 C 2.762,0.521 5.518,0.586 8.299,0.188 8.724,0.127 8.907,0.777 8.479,0.839 5.574,1.255 2.703,1.195 -0.179,0.651 -0.605,0.57 -0.425,-0.08 0,0" /></g><g
           transform="translate(106.5903,162.6289)"
           id="g152"><path
             id="path154"
             style="fill:#597d9f;fill-opacity:1;fill-rule:nonzero;stroke:none"
             d="M 0,0 C 1.216,2.198 3.079,3.896 5.399,4.87 5.793,5.035 5.621,5.689 5.219,5.521 2.732,4.478 0.725,2.704 -0.583,0.341 -0.793,-0.04 -0.211,-0.38 0,0" /></g><g
           transform="translate(112.1631,157.8325)"
           id="g156"><path
             id="path158"
             style="fill:#a5897a;fill-opacity:1;fill-rule:nonzero;stroke:none"
             d="m 0,0 c -0.227,-4.766 -2.075,-9.46 -6.386,-11.957 -4.3,-2.489 -9.416,-1.627 -12.581,2.162 -0.459,0.549 -1.241,-0.241 -0.785,-0.786 3.179,-3.806 8.303,-4.964 12.836,-2.898 C -1.601,-11.056 0.847,-5.566 1.111,0 1.146,0.715 0.034,0.713 0,0" /></g><g
           transform="translate(92.4072,149.9507)"
           id="g160"><path
             id="path162"
             style="fill:#a5897a;fill-opacity:1;fill-rule:nonzero;stroke:none"
             d="m 0,0 c -0.366,-1.38 -1.526,-2.481 -2.963,-2.672 -0.698,-0.093 -0.707,-1.205 0,-1.111 1.933,0.257 3.529,1.582 4.035,3.488 C 1.255,0.396 0.184,0.691 0,0" /></g><g
           transform="translate(109.7759,158.8838)"
           id="g164"><path
             id="path166"
             style="fill:#a5897a;fill-opacity:1;fill-rule:nonzero;stroke:none"
             d="M 0,0 C 1.495,-2.036 4.241,-2.328 6.076,-0.548 6.59,-0.049 5.804,0.736 5.291,0.238 4.008,-1.006 2.035,-0.903 0.959,0.561 0.541,1.131 -0.424,0.578 0,0" /></g><g
           transform="translate(95.9878,187.5771)"
           id="g168"><path
             id="path170"
             style="fill:#322112;fill-opacity:1;fill-rule:nonzero;stroke:none"
             d="M 0,0 C 0.111,1.799 0.487,3.63 1.471,5.141 1.855,5.732 2.34,6.275 2.955,6.62 4.39,7.423 6.208,6.996 7.679,6.259 9.149,5.522 10.495,4.493 12.083,4.06 9.825,4.015 7.539,3.965 5.362,3.362 3.186,2.76 1.095,1.535 -0.088,-0.389" /></g><g
           transform="translate(72.1606,119.0156)"
           id="g172"><path
             id="path174"
             style="fill:#ffffff;fill-opacity:1;fill-rule:nonzero;stroke:none"
             d="M 0,0 C 1.557,-0.234 3.115,-0.47 4.672,-0.704" /></g><g
           transform="translate(130.8926,156.3276)"
           id="g176"><path
             id="path178"
             style="fill:#ffffff;fill-opacity:1;fill-rule:nonzero;stroke:none"
             d="M 0,0 C 2.139,-1.254 4.278,-2.508 6.417,-3.762" /></g><g
           transform="translate(80.4556,135.0718)"
           id="g180"><path
             id="path182"
             style="fill:#101135;fill-opacity:1;fill-rule:nonzero;stroke:none"
             d="m 0,0 c -3.213,-5.327 -2.839,-12.499 -7.5,-16.936 -1.25,-1.19 0.645,-3.082 1.894,-1.894 4.962,4.727 4.54,11.877 7.918,17.478 C 3.204,0.128 0.89,1.476 0,0" /></g><g
           transform="translate(81.3228,134.5649)"
           id="g184"><path
             id="path186"
             style="fill:#e9e412;fill-opacity:1;fill-rule:nonzero;stroke:none"
             d="m 0,0 c -3.278,-5.435 -2.872,-12.583 -7.657,-17.139 -0.313,-0.298 0.161,-0.771 0.473,-0.474 4.852,4.62 4.445,11.776 7.762,17.275 C 0.801,0.032 0.222,0.369 0,0" /></g><g
           transform="translate(132.2803,157.3574)"
           id="g188"><path
             id="path190"
             style="fill:#101135;fill-opacity:1;fill-rule:nonzero;stroke:none"
             d="m 0,0 c -0.71,-2.592 1.303,-5.66 -0.987,-7.529 -2.493,-2.034 -6.372,-2.904 -9.479,-3.357 -1.698,-0.248 -0.976,-2.828 0.712,-2.582 3.717,0.543 7.945,1.784 10.923,4.189 3.119,2.52 0.557,5.439 1.412,8.567 C 3.037,0.953 0.455,1.663 0,0" /></g><g
           transform="translate(133.248,157.0903)"
           id="g192"><path
             id="path194"
             style="fill:#e9e412;fill-opacity:1;fill-rule:nonzero;stroke:none"
             d="m 0,0 c -0.781,-2.856 1.616,-6.101 -1.448,-8.128 -2.889,-1.911 -6.32,-2.963 -9.719,-3.459 -0.424,-0.062 -0.244,-0.707 0.179,-0.645 3.515,0.513 7.65,1.644 10.479,3.93 2.782,2.249 0.363,5.235 1.155,8.124 C 0.76,0.238 0.114,0.416 0,0" /></g><g
           transform="translate(96.4634,196.0684)"
           id="g196"><path
             id="path198"
             style="fill:#1a315b;fill-opacity:1;fill-rule:nonzero;stroke:none"
             d="M 0,0 C -0.416,-0.031 -0.464,0.614 -0.049,0.646 0.367,0.677 0.415,0.032 0,0 M 27.961,-15.114 C 25.424,-10.492 22.887,-5.87 20.35,-1.249 18.739,1.687 17.048,4.714 14.367,6.72 8.327,11.236 -0.194,9.057 -7.315,6.573 -14.182,4.178 -21.104,1.623 -27.025,-2.6 c -5.92,-4.224 -10.812,-10.371 -11.994,-17.546 -1.057,-6.414 0.895,-12.903 2.894,-19.088 0.987,-3.056 2.05,-6.21 4.236,-8.562 2.186,-2.352 5.825,-3.674 8.695,-2.234 4.243,2.128 4.106,8.26 2.572,12.753 -1.535,4.492 -3.836,9.414 -1.862,13.732 1.724,3.772 6.049,5.475 9.97,6.827 8.458,2.916 16.917,5.832 25.376,8.747 1.48,-2.327 2.157,-5.166 2.812,-7.886 0.811,-3.364 1.784,-6.904 4.299,-9.279 2.516,-2.375 2.164,-2.236 4.285,0.497 2.23,2.871 5.452,6.339 3.703,9.525" /></g><g
           transform="translate(124.7139,181.123)"
           id="g200"><path
             id="path202"
             style="fill:#231f20;fill-opacity:1;fill-rule:nonzero;stroke:none"
             d="m 0,0 c -2.652,4.832 -5.264,9.689 -7.961,14.496 -1.669,2.974 -3.459,5.956 -6.373,7.866 -6.397,4.193 -14.7,1.744 -21.32,-0.521 -14.465,-4.949 -32.614,-13.455 -32.225,-31.422 0.097,-4.487 1.312,-8.845 2.639,-13.103 1.104,-3.541 2.187,-7.662 4.864,-10.403 3.191,-3.269 8.926,-4.32 11.628,0.092 4.227,6.901 -3.102,14.436 -2.279,21.38 0.848,7.152 8.249,8.795 13.977,10.769 5.437,1.875 10.875,3.749 16.312,5.623 0.814,0.281 2.949,1.332 3.626,1.25 2.07,-0.251 3.134,-2.949 3.589,-4.567 0.7,-2.497 1.14,-5.06 2.147,-7.463 0.689,-1.644 2.726,-5.745 4.768,-6.044 2.109,-0.309 3.578,2.93 4.618,4.368 1.768,2.447 3.096,4.62 2.023,7.599 -0.144,0.402 -0.792,0.229 -0.645,-0.178 1.058,-2.937 -1.415,-7.452 -3.643,-9.233 -1.075,-0.86 -2.216,-1.43 -3.264,-0.951 -1.523,0.695 -3.019,4.058 -3.494,5.303 -1.558,4.081 -1.954,8.401 -4.087,12.283 -0.067,0.122 -0.242,0.2 -0.378,0.153 -8.456,-2.915 -16.955,-5.731 -25.376,-8.747 -3.876,-1.389 -8.384,-3.015 -10.203,-7.061 -2.62,-5.826 1.934,-11.771 2.653,-17.459 0.28,-2.217 0.334,-4.711 -0.922,-6.687 -2.644,-4.165 -7.914,-2.702 -10.577,0.043 -3.199,3.297 -4.529,9.179 -5.715,13.535 -2.568,9.435 -1.911,18.395 4.752,25.967 5.833,6.628 14.097,10.231 22.22,13.185 7.038,2.56 16.224,6.226 23.354,2.119 3.937,-2.268 5.955,-6.581 8.054,-10.397 2.222,-4.043 4.44,-8.088 6.66,-12.133 C -0.371,-0.715 0.207,-0.378 0,0" /></g><g
           transform="translate(96.4634,196.4033)"
           id="g204"><path
             id="path206"
             style="fill:#231f20;fill-opacity:1;fill-rule:nonzero;stroke:none"
             d="M 0,0 C 0.016,-0.001 -0.078,-0.01 -0.089,-0.012 -0.51,-0.101 -0.332,-0.747 0.089,-0.658 0.874,-0.492 0.72,0.729 -0.094,0.639 -0.92,0.548 -0.789,-0.625 0,-0.669 0.43,-0.694 0.429,-0.024 0,0" /></g><g
           transform="translate(93.064,194.7231)"
           id="g208"><path
             id="path210"
             style="fill:#e9e412;fill-opacity:1;fill-rule:nonzero;stroke:none"
             d="M 0,0 C -0.419,-0.089 -0.561,0.581 -0.143,0.67 0.276,0.759 0.418,0.089 0,0 M 5.041,10.664 C -9.186,9.364 -18.306,3.836 -27.58,-4.199 c 0.334,-0.474 6.26,-1.082 8.711,-2.227 2.451,-1.146 4.469,-3.071 6.456,-4.944 1.191,-1.122 2.424,-2.262 3.924,-2.872 3.364,-1.369 7.079,0.222 10.323,1.79 2.453,1.184 5.325,3.137 4.881,5.903 -0.223,1.393 -1.269,2.475 -1.986,3.684 -2.376,4.003 -1.065,9.103 0.312,13.529" /></g><g
           transform="translate(63.5034,185.3652)"
           id="g212"><path
             id="path214"
             style="fill:#e9e412;fill-opacity:1;fill-rule:nonzero;stroke:none"
             d="m 0,0 c 6.31,0.135 11.307,-3.161 15.216,-7.886 1.099,-1.328 2.984,0.575 1.893,1.894 C 12.755,-0.73 6.983,2.827 0,2.678 -1.721,2.641 -1.727,-0.037 0,0" /></g><g
           transform="translate(101.3784,204.9795)"
           id="g216"><path
             id="path218"
             style="fill:#e9e412;fill-opacity:1;fill-rule:nonzero;stroke:none"
             d="m 0,0 c -0.043,-5.292 -0.508,-12.873 2.396,-17.545 0.909,-1.46 3.226,-0.118 2.312,1.352 -1.451,2.335 -1.532,5.702 -1.745,8.357 C 2.755,-5.231 2.656,-2.613 2.677,0 2.691,1.724 0.014,1.725 0,0" /></g><g
           id="g220"><g
             id="g222" /><g
             id="g228"><g
               style="opacity:0.69999701"
               id="g230"
               clip-path="url(#clipPath224)"><g
                 id="g232"
                 transform="translate(99.7397,193.5298)"><path
                   id="path234"
                   style="fill:#98bdd8;fill-opacity:1;fill-rule:nonzero;stroke:none"
                   d="m 0,0 c 0.607,-3.042 -1.479,-6.021 -4.66,-6.656 -3.18,-0.635 -6.251,1.316 -6.858,4.357 -0.607,3.041 1.48,6.021 4.661,6.656 C -3.677,4.992 -0.607,3.041 0,0" /></g><g
                 id="g236"
                 transform="translate(99.7397,193.5298)"><path
                   id="path238"
                   style="fill:none;stroke:#231f20;stroke-width:1.39400005;stroke-linecap:butt;stroke-linejoin:miter;stroke-miterlimit:10;stroke-dasharray:none;stroke-opacity:1"
                   d="m 0,0 c 0.607,-3.042 -1.479,-6.021 -4.66,-6.656 -3.18,-0.635 -6.251,1.316 -6.858,4.357 -0.607,3.041 1.48,6.021 4.661,6.656 C -3.677,4.992 -0.607,3.041 0,0 Z" /></g><g
                 id="g240"
                 transform="translate(103.7715,194.334)"><path
                   id="path242"
                   style="fill:#98bdd8;fill-opacity:1;fill-rule:nonzero;stroke:none"
                   d="m 0,0 c 0.711,-3.563 -1.733,-7.054 -5.459,-7.797 -3.727,-0.744 -7.324,1.542 -8.035,5.104 -0.711,3.563 1.734,7.054 5.46,7.798 C -4.308,5.849 -0.711,3.563 0,0" /></g><g
                 id="g244"
                 transform="translate(103.7715,194.334)"><path
                   id="path246"
                   style="fill:none;stroke:#231f20;stroke-width:1.39400005;stroke-linecap:butt;stroke-linejoin:miter;stroke-miterlimit:10;stroke-dasharray:none;stroke-opacity:1"
                   d="m 0,0 c 0.711,-3.563 -1.733,-7.054 -5.459,-7.797 -3.727,-0.744 -7.324,1.542 -8.035,5.104 -0.711,3.563 1.734,7.054 5.46,7.798 C -4.308,5.849 -0.711,3.563 0,0 Z" /></g></g></g></g><g
           transform="translate(87.1753,188.3726)"
           id="g248"><path
             id="path250"
             style="fill:#6d6e70;fill-opacity:1;fill-rule:nonzero;stroke:none"
             d="m 0,0 c 0.648,-3.26 -1.469,-6.428 -4.729,-7.076 -3.259,-0.648 -6.427,1.47 -7.076,4.729 -0.648,3.26 1.47,6.428 4.729,7.076 C -3.816,5.377 -0.648,3.26 0,0" /></g><g
           transform="translate(87.1753,188.3726)"
           id="g252"><path
             id="path254"
             style="fill:none;stroke:#231f20;stroke-width:0.109;stroke-linecap:butt;stroke-linejoin:miter;stroke-miterlimit:10;stroke-dasharray:none;stroke-opacity:1"
             d="m 0,0 c 0.648,-3.26 -1.469,-6.428 -4.729,-7.076 -3.259,-0.648 -6.427,1.47 -7.076,4.729 -0.648,3.26 1.47,6.428 4.729,7.076 C -3.816,5.377 -0.648,3.26 0,0 Z" /></g><g
           id="g256"><g
             id="g258" /><g
             id="g264"><g
               style="opacity:0.69999701"
               id="g266"
               clip-path="url(#clipPath260)"><g
                 id="g268"
                 transform="translate(91.1128,190.5874)"><path
                   id="path270"
                   style="fill:#98bdd8;fill-opacity:1;fill-rule:nonzero;stroke:none"
                   d="m 0,0 c 0.735,-3.683 -1.778,-7.289 -5.614,-8.054 -3.835,-0.765 -7.539,1.599 -8.275,5.282 -0.735,3.683 1.779,7.289 5.614,8.054 C -4.44,6.047 -0.735,3.683 0,0" /></g><g
                 id="g272"
                 transform="translate(91.1128,190.5874)"><path
                   id="path274"
                   style="fill:none;stroke:#231f20;stroke-width:1.50199997;stroke-linecap:butt;stroke-linejoin:miter;stroke-miterlimit:10;stroke-dasharray:none;stroke-opacity:1"
                   d="m 0,0 c 0.735,-3.683 -1.778,-7.289 -5.614,-8.054 -3.835,-0.765 -7.539,1.599 -8.275,5.282 -0.735,3.683 1.779,7.289 5.614,8.054 C -4.44,6.047 -0.735,3.683 0,0 Z" /></g></g></g></g><g
           transform="translate(82.2065,134.9121)"
           id="g276"><path
             id="path278"
             style="fill:#eae512;fill-opacity:1;fill-rule:nonzero;stroke:none"
             d="m 0,0 c 5.038,0.727 10.159,-0.028 15.25,-0.027 5.089,0.002 10.508,0.917 14.269,4.347 1.492,1.36 2.647,3.052 4.099,4.455 1.451,1.403 4.625,2.702 6.637,2.54 0.798,-7.023 -1.451,-10.601 -4.411,-16.986 -2.771,-5.981 -7,-9.832 -12.71,-10.41 -3.404,-0.344 -6.803,0.747 -9.88,2.244 -5.795,2.82 -10.847,7.148 -14.523,12.441" /></g><g
           transform="translate(82.2065,134.2427)"
           id="g280"><path
             id="path282"
             style="fill:#101135;fill-opacity:1;fill-rule:nonzero;stroke:none"
             d="m 0,0 c 8.085,0.886 16.672,-1.455 24.515,1.333 3.148,1.118 5.31,2.967 7.542,5.395 1.212,1.317 2.171,2.577 3.818,3.457 4.132,2.208 4.164,-0.919 3.604,-4.128 -1.276,-7.316 -6.42,-18.062 -13.992,-20.328 -10.015,-2.996 -20.782,6.46 -26.178,13.882 -0.502,0.69 -1.664,0.023 -1.156,-0.675 5.957,-8.193 18.014,-18.467 28.956,-14.05 4.748,1.916 7.544,6.101 9.676,10.545 2.625,5.474 4.643,10.373 4.139,16.553 -0.028,0.352 -0.283,0.682 -0.669,0.67 C 33.636,12.444 31.875,6.78 26.742,3.798 18.818,-0.803 8.614,2.283 0,1.339 -0.847,1.246 -0.856,-0.094 0,0" /></g><g
           transform="translate(89.1064,136.1499)"
           id="g284"><path
             id="path286"
             style="fill:#eae512;fill-opacity:1;fill-rule:nonzero;stroke:none"
             d="m 0,0 c 1.771,0.676 3.75,0.797 5.591,0.344 0.88,-2.589 1.76,-5.177 2.639,-7.766 -2.387,-0.183 -4.774,-0.367 -7.162,-0.55 -0.763,2.157 -1.526,4.314 -2.289,6.471 -0.178,0.501 -0.349,1.081 -0.08,1.54 0.27,0.458 1.173,0.411 1.17,-0.121" /></g><g
           transform="translate(89.1953,135.8271)"
           id="g288"><path
             id="path290"
             style="fill:#101135;fill-opacity:1;fill-rule:nonzero;stroke:none"
             d="M 0,0 C 0.971,0.333 1.964,0.568 2.997,0.598 4.621,0.645 5.249,0.375 5.78,-1.187 l 2.039,-6.001 c 0.108,0.141 0.215,0.282 0.323,0.423 C 6.948,-6.856 5.754,-6.948 4.561,-7.04 3.682,-7.107 1.776,-7.622 1.073,-6.913 c -0.557,0.561 -0.764,2.16 -1.03,2.912 l -0.573,1.617 c -0.076,0.216 -0.152,0.432 -0.229,0.648 -0.376,0.63 -0.304,1.259 0.217,1.888 0.146,-0.402 0.793,-0.229 0.645,0.178 -0.31,0.849 -1.349,0.88 -1.815,0.12 -0.509,-0.828 0.275,-2.27 0.537,-3.012 0.611,-1.725 1.221,-3.451 1.832,-5.176 0.046,-0.131 0.17,-0.258 0.322,-0.246 2.388,0.183 4.775,0.367 7.163,0.55 0.203,0.016 0.398,0.203 0.322,0.424 C 7.945,-5.481 7.425,-3.951 6.905,-2.421 6.634,-1.625 6.391,0.341 5.739,0.903 5.293,1.289 4.224,1.242 3.628,1.264 2.312,1.313 1.062,1.07 -0.178,0.646 -0.583,0.507 -0.409,-0.14 0,0" /></g><g
           transform="translate(112.501,144.4019)"
           id="g292"><path
             id="path294"
             style="fill:#eae512;fill-opacity:1;fill-rule:nonzero;stroke:none"
             d="m 0,0 c 1.771,0.675 3.75,0.797 5.591,0.344 0.88,-2.589 1.76,-5.178 2.639,-7.766 -2.387,-0.184 -4.775,-0.367 -7.162,-0.55 -0.763,2.157 -1.526,4.314 -2.29,6.471 -0.177,0.501 -0.348,1.081 -0.079,1.539 0.269,0.459 1.172,0.411 1.17,-0.121" /></g><g
           transform="translate(112.5898,144.0791)"
           id="g296"><path
             id="path298"
             style="fill:#101135;fill-opacity:1;fill-rule:nonzero;stroke:none"
             d="M 0,0 C 0.971,0.333 1.964,0.567 2.996,0.597 4.621,0.645 5.249,0.375 5.779,-1.187 l 2.039,-6.002 c 0.109,0.142 0.216,0.283 0.324,0.424 C 6.947,-6.857 5.754,-6.948 4.561,-7.04 3.682,-7.107 1.776,-7.622 1.073,-6.914 c -0.557,0.562 -0.764,2.16 -1.03,2.913 -0.191,0.539 -0.382,1.078 -0.573,1.617 -0.076,0.216 -0.153,0.431 -0.229,0.647 -0.376,0.631 -0.304,1.26 0.216,1.888 0.147,-0.401 0.794,-0.228 0.646,0.178 -0.31,0.85 -1.349,0.88 -1.815,0.121 -0.51,-0.828 0.275,-2.27 0.537,-3.012 0.611,-1.725 1.221,-3.451 1.831,-5.176 0.046,-0.131 0.171,-0.258 0.323,-0.246 2.387,0.183 4.775,0.366 7.163,0.549 0.203,0.016 0.397,0.204 0.322,0.424 -0.52,1.53 -1.039,3.06 -1.56,4.589 C 6.634,-1.625 6.391,0.34 5.739,0.903 5.294,1.288 4.224,1.242 3.628,1.264 2.312,1.312 1.062,1.07 -0.179,0.646 -0.584,0.506 -0.409,-0.14 0,0" /></g><g
           transform="translate(96.0039,121.4189)"
           id="g300"><path
             id="path302"
             style="fill:#1a315b;fill-opacity:1;fill-rule:nonzero;stroke:none"
             d="m 0,0 c 3.45,-2.311 7.858,-3.001 11.792,-1.847 3.933,1.154 7.326,4.133 9.075,7.968 -4.206,1.314 -8.412,2.627 -12.618,3.94" /></g><g
           transform="translate(109.7998,122.998)"
           id="g304"><path
             id="path306"
             style="fill:#ec1e27;fill-opacity:1;fill-rule:nonzero;stroke:none"
             d="m 0,0 -2.925,0.352 -1.949,-2.21 -0.569,2.891 -2.704,1.17 2.573,1.435 0.277,2.933 2.16,-2.004 L -0.261,5.21 -1.5,2.537 0,0 Z" /></g><g
           transform="translate(109.7998,122.998)"
           id="g308"><path
             id="path310"
             style="fill:none;stroke:#ffffff;stroke-width:0.53600001;stroke-linecap:butt;stroke-linejoin:miter;stroke-miterlimit:10;stroke-dasharray:none;stroke-opacity:1"
             d="m 0,0 -2.925,0.352 -1.949,-2.21 -0.569,2.891 -2.704,1.17 2.573,1.435 0.277,2.933 2.16,-2.004 L -0.261,5.21 -1.5,2.537 0,0 Z" /></g><g
           transform="translate(80.8789,114.917)"
           id="g312"><path
             id="path314"
             style="fill:#1a315b;fill-opacity:1;fill-rule:nonzero;stroke:none"
             d="m 0,0 c -0.099,-1.605 -0.403,-3.521 -1.873,-4.173 -0.557,-0.247 -1.199,-0.258 -1.743,-0.53 -2.29,-1.151 -0.715,-5.151 -2.559,-6.931 -1.264,-1.219 -3.551,-0.565 -4.54,0.886 -0.99,1.451 -0.999,3.348 -0.792,5.092 0.357,3.019 1.253,5.974 2.633,8.684" /></g><g
           transform="translate(80.5439,114.917)"
           id="g316"><path
             id="path318"
             style="fill:#231f20;fill-opacity:1;fill-rule:nonzero;stroke:none"
             d="M 0,0 C -0.024,-0.687 -0.125,-1.361 -0.304,-2.022 -1.028,-3.314 -2.05,-4.101 -3.37,-4.381 -3.563,-4.534 -3.828,-4.633 -4.014,-4.811 -4.792,-5.555 -4.866,-6.6 -5.027,-7.596 c -0.272,-1.684 0.042,-5.741 -4.073,-3.886 -2.151,0.968 -1.914,4.013 -1.715,5.842 0.324,2.985 1.259,5.805 2.565,8.499 0.187,0.386 -0.39,0.726 -0.578,0.338 -1.642,-3.387 -3.229,-7.668 -2.732,-11.51 0.287,-2.209 1.88,-4.706 4.484,-4.26 2.708,0.462 2.282,3.252 2.764,5.255 0.607,2.515 2.781,2.141 4.034,3.773 C 0.48,-2.558 0.571,-1.192 0.669,0 0.705,0.43 0.035,0.427 0,0" /></g><g
           transform="translate(81.0474,115.2061)"
           id="g320"><path
             id="path322"
             style="fill:#231f20;fill-opacity:1;fill-rule:nonzero;stroke:none"
             d="m 0,0 c -2.728,1.782 -5.829,2.676 -9.042,3.073 -0.427,0.053 -0.423,-0.617 0,-0.669 C -5.946,2.021 -2.967,1.14 -0.337,-0.578 0.024,-0.814 0.36,-0.235 0,0" /></g><g
           transform="translate(139.2139,152.2314)"
           id="g324"><path
             id="path326"
             style="fill:#1a315b;fill-opacity:1;fill-rule:nonzero;stroke:none"
             d="M 0,0 C 1.337,0.895 2.839,2.123 2.661,3.721 2.593,4.326 2.278,4.886 2.24,5.494 2.079,8.051 6.329,8.708 6.936,11.196 7.352,12.903 5.635,14.549 3.883,14.672 2.131,14.795 0.488,13.847 -0.914,12.79 -3.343,10.959 -5.443,8.696 -7.087,6.138" /></g><g
           transform="translate(139.3828,151.9424)"
           id="g328"><path
             id="path330"
             style="fill:#231f20;fill-opacity:1;fill-rule:nonzero;stroke:none"
             d="m 0,0 c 1.049,0.74 2.195,1.537 2.637,2.799 0.168,0.479 0.129,0.749 0.177,1.3 -0.423,1.122 -0.302,2.247 0.364,3.377 0.436,0.391 0.897,0.75 1.382,1.078 1.476,1.125 3.2,2.426 2.379,4.514 -0.95,2.416 -3.875,2.545 -5.923,1.683 -3.559,-1.496 -6.48,-5.042 -8.561,-8.155 -0.24,-0.359 0.339,-0.695 0.578,-0.338 1.512,2.263 3.278,4.311 5.403,6.022 0.989,0.797 2.381,1.854 3.657,2.16 C 5.211,15.156 6.39,13.758 5.627,10.246 5.193,9.832 4.725,9.461 4.222,9.132 3.426,8.544 2.429,7.95 1.992,7.011 1.761,6.514 1.801,6.308 1.736,5.783 1.778,5.452 1.849,5.127 1.947,4.807 2.015,2.815 1.253,1.405 -0.338,0.578 -0.687,0.332 -0.353,-0.249 0,0" /></g><g
           transform="translate(139.3828,152.5205)"
           id="g332"><path
             id="path334"
             style="fill:#231f20;fill-opacity:1;fill-rule:nonzero;stroke:none"
             d="m 0,0 c -1.919,1.245 -3.702,2.709 -5.375,4.268 -0.401,0.374 -0.971,1.248 -1.46,1.473 -0.207,0.095 0.05,0.342 -0.294,-0.032 -0.353,-0.384 -0.145,-0.087 -0.037,-0.266 0.145,-0.24 0.748,-0.531 0.964,-0.698 0.341,-0.263 0.675,0.318 0.338,0.578 -0.273,0.21 -1.224,1.181 -1.648,0.754 -0.354,-0.357 0.283,-0.906 0.494,-1.134 1.94,-2.098 4.289,-3.97 6.68,-5.521 C 0.025,-0.813 0.361,-0.234 0,0" /></g><g
           transform="translate(143.3945,154.9966)"
           id="g336"><path
             id="path338"
             style="fill:#231f20;fill-opacity:1;fill-rule:nonzero;stroke:none"
             d="m 0,0 c 0.454,8.943 0.908,17.886 1.362,26.828 0.087,1.723 -2.591,1.718 -2.677,0 C -1.77,17.886 -2.224,8.943 -2.678,0 -2.765,-1.722 -0.087,-1.717 0,0" /></g><g
           transform="translate(165.2598,164.9678)"
           id="g340"><path
             id="path342"
             style="fill:#231f20;fill-opacity:1;fill-rule:nonzero;stroke:none"
             d="m 0,0 c -3.341,0.054 -6.818,-0.846 -10.503,-0.101 -1.751,0 -3.502,0.003 -5.059,0.006 l -5.448,0.011 0.033,17.129 21.014,-0.041 c 0,0 -0.009,-4.282 -0.016,-8.565 C 0.017,6.298 0.013,4.161 0.008,2.588 0.004,1.017 0,0 0,0" /></g><g
           transform="translate(165.2598,164.9678)"
           id="g344"><path
             id="path346"
             style="fill:none;stroke:#231f20;stroke-width:0.53600001;stroke-linecap:butt;stroke-linejoin:miter;stroke-miterlimit:10;stroke-dasharray:none;stroke-opacity:1"
             d="m 0,0 c -3.341,0.054 -6.818,-0.846 -10.503,-0.101 -1.751,0 -3.502,0.003 -5.059,0.006 l -5.448,0.011 0.033,17.129 21.014,-0.041 c 0,0 -0.009,-4.282 -0.016,-8.565 C 0.017,6.298 0.013,4.161 0.008,2.588 0.004,1.017 0,0 0,0 Z" /></g><g
           transform="translate(148.5,169.1162)"
           id="g348"><path
             id="path350"
             style="fill:#231f20;fill-opacity:1;fill-rule:nonzero;stroke:none"
             d="M 0,0 -4.241,0.008 -4.233,4.25 0.008,4.241 0,0 Z" /></g><g
           transform="translate(165.2715,169.084)"
           id="g352"><path
             id="path354"
             style="fill:#231f20;fill-opacity:1;fill-rule:nonzero;stroke:none"
             d="M 0,0 -4.241,0.008 -4.232,4.25 0.009,4.241 0,0 Z" /></g><g
           transform="translate(152.7412,169.1084)"
           id="g356"><path
             id="path358"
             style="fill:#ffffff;fill-opacity:1;fill-rule:nonzero;stroke:none"
             d="M 0,0 -4.241,0.008 -4.233,4.249 0.008,4.241 0,0 Z" /></g><g
           transform="translate(161.0303,169.0923)"
           id="g360"><path
             id="path362"
             style="fill:#ffffff;fill-opacity:1;fill-rule:nonzero;stroke:none"
             d="M 0,0 -4.241,0.008 -4.232,4.25 0.009,4.241 0,0 Z" /></g><g
           transform="translate(156.7891,169.1006)"
           id="g364"><path
             id="path366"
             style="fill:#231f20;fill-opacity:1;fill-rule:nonzero;stroke:none"
             d="M 0,0 -4.241,0.008 -4.232,4.249 0.009,4.241 0,0 Z" /></g><g
           transform="translate(148.5,169.1162)"
           id="g368"><path
             id="path370"
             style="fill:#231f20;fill-opacity:1;fill-rule:nonzero;stroke:none"
             d="M 0,0 -4.241,0.008 -4.233,4.25 0.008,4.241 0,0 Z" /></g><g
           transform="translate(165.2715,169.084)"
           id="g372"><path
             id="path374"
             style="fill:#231f20;fill-opacity:1;fill-rule:nonzero;stroke:none"
             d="M 0,0 -4.241,0.008 -4.232,4.25 0.009,4.241 0,0 Z" /></g><g
           transform="translate(152.7412,169.1084)"
           id="g376"><path
             id="path378"
             style="fill:#ffffff;fill-opacity:1;fill-rule:nonzero;stroke:none"
             d="M 0,0 -4.241,0.008 -4.233,4.249 0.008,4.241 0,0 Z" /></g><g
           transform="translate(161.0303,169.0923)"
           id="g380"><path
             id="path382"
             style="fill:#ffffff;fill-opacity:1;fill-rule:nonzero;stroke:none"
             d="M 0,0 -4.241,0.008 -4.232,4.25 0.009,4.241 0,0 Z" /></g><g
           transform="translate(156.7891,169.1006)"
           id="g384"><path
             id="path386"
             style="fill:#231f20;fill-opacity:1;fill-rule:nonzero;stroke:none"
             d="M 0,0 -4.241,0.008 -4.232,4.249 0.009,4.241 0,0 Z" /></g><g
           transform="translate(148.5166,177.7632)"
           id="g388"><path
             id="path390"
             style="fill:#231f20;fill-opacity:1;fill-rule:nonzero;stroke:none"
             d="M 0,0 -4.241,0.008 -4.233,4.25 0.008,4.241 0,0 Z" /></g><g
           transform="translate(165.2891,177.731)"
           id="g392"><path
             id="path394"
             style="fill:#231f20;fill-opacity:1;fill-rule:nonzero;stroke:none"
             d="M 0,0 -4.241,0.008 -4.233,4.249 0.008,4.241 0,0 Z" /></g><g
           transform="translate(152.7578,177.7549)"
           id="g396"><path
             id="path398"
             style="fill:#ffffff;fill-opacity:1;fill-rule:nonzero;stroke:none"
             d="M 0,0 -4.241,0.008 -4.233,4.25 0.008,4.241 0,0 Z" /></g><g
           transform="translate(161.0479,177.7388)"
           id="g400"><path
             id="path402"
             style="fill:#ffffff;fill-opacity:1;fill-rule:nonzero;stroke:none"
             d="M 0,0 -4.242,0.008 -4.233,4.25 0.008,4.241 0,0 Z" /></g><g
           transform="translate(156.8057,177.7471)"
           id="g404"><path
             id="path406"
             style="fill:#231f20;fill-opacity:1;fill-rule:nonzero;stroke:none"
             d="M 0,0 -4.241,0.008 -4.232,4.25 0.009,4.241 0,0 Z" /></g><g
           transform="translate(148.5166,177.7632)"
           id="g408"><path
             id="path410"
             style="fill:#231f20;fill-opacity:1;fill-rule:nonzero;stroke:none"
             d="M 0,0 -4.241,0.008 -4.233,4.25 0.008,4.241 0,0 Z" /></g><g
           transform="translate(165.2891,177.731)"
           id="g412"><path
             id="path414"
             style="fill:#231f20;fill-opacity:1;fill-rule:nonzero;stroke:none"
             d="M 0,0 -4.241,0.008 -4.233,4.249 0.008,4.241 0,0 Z" /></g><g
           transform="translate(152.7578,177.7549)"
           id="g416"><path
             id="path418"
             style="fill:#ffffff;fill-opacity:1;fill-rule:nonzero;stroke:none"
             d="M 0,0 -4.241,0.008 -4.233,4.25 0.008,4.241 0,0 Z" /></g><g
           transform="translate(161.0479,177.7388)"
           id="g420"><path
             id="path422"
             style="fill:#ffffff;fill-opacity:1;fill-rule:nonzero;stroke:none"
             d="M 0,0 -4.242,0.008 -4.233,4.25 0.008,4.241 0,0 Z" /></g><g
           transform="translate(156.8057,177.7471)"
           id="g424"><path
             id="path426"
             style="fill:#231f20;fill-opacity:1;fill-rule:nonzero;stroke:none"
             d="M 0,0 -4.241,0.008 -4.232,4.25 0.009,4.241 0,0 Z" /></g><g
           transform="translate(152.8457,173.3071)"
           id="g428"><path
             id="path430"
             style="fill:#231f20;fill-opacity:1;fill-rule:nonzero;stroke:none"
             d="M 0,0 -4.241,0.008 -4.233,4.25 0.008,4.241 0,0 Z" /></g><g
           transform="translate(148.6045,173.3154)"
           id="g432"><path
             id="path434"
             style="fill:#ffffff;fill-opacity:1;fill-rule:nonzero;stroke:none"
             d="M 0,0 -4.241,0.008 -4.233,4.25 0.008,4.241 0,0 Z" /></g><g
           transform="translate(165.376,173.2827)"
           id="g436"><path
             id="path438"
             style="fill:#ffffff;fill-opacity:1;fill-rule:nonzero;stroke:none"
             d="M 0,0 -4.241,0.008 -4.232,4.25 0.009,4.241 0,0 Z" /></g><g
           transform="translate(161.1348,173.291)"
           id="g440"><path
             id="path442"
             style="fill:#231f20;fill-opacity:1;fill-rule:nonzero;stroke:none"
             d="M 0,0 -4.241,0.008 -4.232,4.25 0.009,4.241 0,0 Z" /></g><g
           transform="translate(148.4912,164.875)"
           id="g444"><path
             id="path446"
             style="fill:#ffffff;fill-opacity:1;fill-rule:nonzero;stroke:none"
             d="M 0,0 -4.241,0.008 -4.232,4.25 0.009,4.241 0,0 Z" /></g><g
           transform="translate(165.2598,164.9678)"
           id="g448"><path
             id="path450"
             style="fill:#ffffff;fill-opacity:1;fill-rule:nonzero;stroke:none"
             d="M 0,0 -4.239,-0.049 -4.229,4.125 0.012,4.12 0,0 Z" /></g><g
           transform="translate(161.0225,164.8511)"
           id="g452"><path
             id="path454"
             style="fill:#231f20;fill-opacity:1;fill-rule:nonzero;stroke:none"
             d="M 0,0 -4.241,0.008 -4.233,4.25 0.008,4.241 0,0 Z" /></g><g
           transform="translate(156.8936,173.2993)"
           id="g456"><path
             id="path458"
             style="fill:#ffffff;fill-opacity:1;fill-rule:nonzero;stroke:none"
             d="M 0,0 -4.241,0.008 -4.232,4.25 0.009,4.241 0,0 Z" /></g><g
           transform="translate(152.6367,164.8672)"
           id="g460"><path
             id="path462"
             style="fill:#231f20;fill-opacity:1;fill-rule:nonzero;stroke:none"
             d="M 0,0 -4.241,0.008 -4.233,4.25 0.008,4.241 0,0 Z" /></g><g
           transform="translate(156.6846,164.8594)"
           id="g464"><path
             id="path466"
             style="fill:#ffffff;fill-opacity:1;fill-rule:nonzero;stroke:none"
             d="M 0,0 -4.241,0.008 -4.232,4.25 0.009,4.241 0,0 Z" /></g></g></g><g
       id="text468"
       style="font-variant:normal;font-weight:normal;font-stretch:normal;font-size:20.00006866px;font-family:'Museo 500';-inkscape-font-specification:Museo-500;writing-mode:lr-tb;fill:#231f20;fill-opacity:1;fill-rule:nonzero;stroke:none"
       transform="matrix(0.9513867,0.30799893,0.30799893,-0.9513867,90.602,31.4164)"><path
         id="path473"
         style=""
         d="m 0.68000233,-1.8600064 c 0,0 1.68000577,2.10000722 4.68001607,2.10000722 2.8000096,0 4.4800154,-1.86000642 4.4800154,-4.02001382 0,-4.6400159 -6.8000234,-4.0000137 -6.8000234,-6.860024 0,-1.060003 0.9600033,-1.900006 2.4800086,-1.900006 1.1200038,0 2.1800074,0.540002 2.1800074,1.280004 l 0,0.660003 1.8400064,0 0,-1.160004 c 0,-1.920007 -2.5200087,-2.600009 -4.0200138,-2.600009 -2.6600092,0 -4.5200156,1.660005 -4.5200156,3.780013 0,4.4000148 6.8200234,3.9400132 6.8200234,6.9000234 0,1.3000044 -1.1000037,2.1000072 -2.4200083,2.1000072 -2.1000072,0 -3.5400121,-1.7000059 -3.5400121,-1.7000059 l -1.18000407,1.4200049 z" /><path
         id="path475"
         style=""
         d="m 12.460043,4.0000137 1.940007,0 0,-4.50001542 c 0,-0.52000178 -0.04,-0.88000298 -0.04,-0.88000298 l 0.04,0 c 0,0 0.860003,1.62000552 3.100011,1.62000552 2.640009,0 4.600015,-2.08000712 4.600015,-5.30001822 0,-3.1400108 -1.740006,-5.3000186 -4.460015,-5.3000186 -2.520009,0 -3.360011,1.8000066 -3.360011,1.8000066 l -0.04,0 c 0,0 0.02,-0.2400008 0.02,-0.5400018 0,-0.6400022 -0.340001,-1.0200038 -1.240004,-1.0200038 l -1.820006,0 0,1.660006 0.820003,0 c 0.280001,0 0.440001,0.1400004 0.440001,0.4400015 l 0,12.0200412 z m 1.880007,-9.0200309 c 0,-2.5800089 1.420005,-3.6400125 2.92001,-3.6400125 1.680006,0 2.86001,1.4200048 2.86001,3.6200124 0,2.3000079 -1.320005,3.6200124 -2.92001,3.6200124 -1.880007,0 -2.86001,-1.8000062 -2.86001,-3.6000123 z" /><path
         id="path477"
         style=""
         d="m 23.560081,-5.0600174 c 0,3.0000103 2.180007,5.30001822 5.380018,5.30001822 2.400009,0 3.900014,-1.48000512 3.900014,-1.48000512 L 32.00011,-2.620009 c 0,0 -1.220004,1.1800041 -2.96001,1.1800041 -1.800007,0 -3.360012,-1.2200042 -3.480012,-3.3800116 l 7.380025,0 c 0,0 0.06,-0.5400019 0.06,-0.8000028 0,-2.620009 -1.520005,-4.7400167 -4.360015,-4.7400167 -2.88001,0 -5.080017,2.0800076 -5.080017,5.3000186 z m 2.080007,-1.180004 c 0.300001,-1.6800058 1.500005,-2.5800089 2.98001,-2.5800089 1.260005,0 2.320008,0.9000031 2.380008,2.5800089 l -5.360018,0 z" /><path
         id="path479"
         style=""
         d="m 34.600122,-5.0600174 c 0,3.0000103 2.180007,5.30001822 5.380018,5.30001822 2.400009,0 3.900014,-1.48000512 3.900014,-1.48000512 L 43.040151,-2.620009 c 0,0 -1.220004,1.1800041 -2.96001,1.1800041 -1.800007,0 -3.360012,-1.2200042 -3.480012,-3.3800116 l 7.380025,0 c 0,0 0.06,-0.5400019 0.06,-0.8000028 0,-2.620009 -1.520005,-4.7400167 -4.360015,-4.7400167 -2.88001,0 -5.080017,2.0800076 -5.080017,5.3000186 z m 2.080007,-1.180004 c 0.300001,-1.6800058 1.500005,-2.5800089 2.98001,-2.5800089 1.260004,0 2.320008,0.9000031 2.380008,2.5800089 l -5.360018,0 z" /><path
         id="path481"
         style=""
         d="m 45.660157,-5.0600174 c 0,3.1400108 1.720006,5.30001822 4.460015,5.30001822 2.480009,0 3.320012,-1.84000632 3.320012,-1.84000632 l 0.04,0 c 0,0 -0.02,0.2200008 -0.02,0.5200018 C 53.460184,-0.40000137 53.820185,0 54.700188,0 l 1.860007,0 0,-1.6600057 -0.820003,0 c -0.280001,0 -0.440002,-0.1400005 -0.440002,-0.4400015 l 0,-10.7400368 c 0,-0.900003 -0.380001,-1.280004 -1.280004,-1.280004 l -1.920007,0 0,1.660005 0.820003,0 c 0.280001,0 0.440002,0.140001 0.440002,0.440002 l 0,2.5400085 c 0,0.3800013 0.04,0.6800023 0.04,0.6800023 l -0.04,0 c 0,0 -0.780003,-1.5600058 -3.120011,-1.5600058 -2.680009,0 -4.580016,2.0800076 -4.580016,5.3000186 z m 4.840017,3.6200125 c -1.680006,0 -2.86001,-1.4200049 -2.86001,-3.6200125 0,-2.3000079 1.320004,-3.6200124 2.90001,-3.6200124 1.940007,0 2.88001,1.8000062 2.88001,3.6000124 0,2.5800088 -1.420005,3.6400125 -2.92001,3.6400125 z" /><path
         id="path483"
         style=""
         d="m 63.080217,-1.8600064 c 0,0 1.680006,2.10000722 4.680017,2.10000722 2.800009,0 4.480015,-1.86000642 4.480015,-4.02001382 0,-4.6400159 -6.800023,-4.0000137 -6.800023,-6.860024 0,-1.060003 0.960003,-1.900006 2.480008,-1.900006 1.120004,0 2.180008,0.540002 2.180008,1.280004 l 0,0.660003 1.840006,0 0,-1.160004 c 0,-1.920007 -2.520009,-2.600009 -4.020014,-2.600009 -2.660009,0 -4.520015,1.660005 -4.520015,3.780013 0,4.4000148 6.820023,3.9400132 6.820023,6.9000234 0,1.3000044 -1.100004,2.1000072 -2.420008,2.1000072 -2.100008,0 -3.540012,-1.7000059 -3.540012,-1.7000059 l -1.180005,1.4200049 z" /><path
         id="path485"
         style=""
         d="m 73.880258,-5.0600174 c 0,3.0000103 2.180007,5.30001822 5.380018,5.30001822 2.400009,0 3.900014,-1.48000512 3.900014,-1.48000512 L 82.320287,-2.620009 c 0,0 -1.220004,1.1800041 -2.96001,1.1800041 -1.800006,0 -3.360012,-1.2200042 -3.480012,-3.3800116 l 7.380025,0 c 0,0 0.06,-0.5400019 0.06,-0.8000028 0,-2.620009 -1.520005,-4.7400167 -4.360015,-4.7400167 -2.88001,0 -5.080017,2.0800076 -5.080017,5.3000186 z m 2.080007,-1.180004 c 0.300001,-1.6800058 1.500005,-2.5800089 2.98001,-2.5800089 1.260005,0 2.320008,0.9000031 2.380008,2.5800089 l -5.360018,0 z" /><path
         id="path487"
         style=""
         d="m 84.920297,-5.0600174 c 0,3.0000103 2.180007,5.30001822 5.380018,5.30001822 2.400009,0 3.900014,-1.48000512 3.900014,-1.48000512 L 93.360326,-2.620009 c 0,0 -1.220004,1.1800041 -2.96001,1.1800041 -1.800006,0 -3.360012,-1.2200042 -3.480012,-3.3800116 l 7.380025,0 c 0,0 0.06,-0.5400019 0.06,-0.8000028 0,-2.620009 -1.520005,-4.7400167 -4.360015,-4.7400167 -2.880009,0 -5.080017,2.0800076 -5.080017,5.3000186 z m 2.080007,-1.180004 c 0.300001,-1.6800058 1.500005,-2.5800089 2.98001,-2.5800089 1.260005,0 2.320008,0.9000031 2.380009,2.5800089 l -5.360019,0 z" /><path
         id="path489"
         style=""
         d="m 95.980336,-5.0600174 c 0,3.1400108 1.720006,5.30001822 4.460014,5.30001822 2.48001,0 3.32001,-1.84000632 3.32001,-1.84000632 l 0.04,0 c 0,0 -0.02,0.2200008 -0.02,0.5200018 0,0.68000233 0.36,1.0800037 1.24001,1.0800037 l 1.86,0 0,-1.6600057 -0.82,0 c -0.28,0 -0.44,-0.1400005 -0.44,-0.4400015 l 0,-10.7400368 c 0,-0.900003 -0.38,-1.280004 -1.28001,-1.280004 l -1.92,0 0,1.660005 0.82,0 c 0.28,0 0.44,0.140001 0.44,0.440002 l 0,2.5400085 c 0,0.3800013 0.04,0.6800023 0.04,0.6800023 l -0.04,0 c 0,0 -0.78,-1.5600058 -3.12001,-1.5600058 -2.680007,0 -4.580014,2.0800076 -4.580014,5.3000186 z m 4.840014,3.6200125 c -1.680003,0 -2.860007,-1.4200049 -2.860007,-3.6200125 0,-2.3000079 1.320004,-3.6200124 2.900007,-3.6200124 1.94001,0 2.88001,1.8000062 2.88001,3.6000124 0,2.5800088 -1.42,3.6400125 -2.92001,3.6400125 z" /></g></g></svg>