<?xml version="1.0" encoding="UTF-8" standalone="no"?>
<svg
   xmlns:dc="http://purl.org/dc/elements/1.1/"
   xmlns:cc="http://creativecommons.org/ns#"
   xmlns:rdf="http://www.w3.org/1999/02/22-rdf-syntax-ns#"
   xmlns:svg="http://www.w3.org/2000/svg"
   xmlns="http://www.w3.org/2000/svg"
   viewBox="0 0 281.25 312.20499"
   height="312.20499"
   width="281.25"
   xml:space="preserve"
   version="1.1"
   id="svg2"><metadata
     id="metadata8"><rdf:RDF><cc:Work
         rdf:about=""><dc:format>image/svg+xml</dc:format><dc:type
           rdf:resource="http://purl.org/dc/dcmitype/StillImage" /></cc:Work></rdf:RDF></metadata><defs
     id="defs6"><clipPath
       id="clipPath20"
       clipPathUnits="userSpaceOnUse"><path
         id="path22"
         d="m 0,0 225,0 0,249.764 -225,0 L 0,0 Z" /></clipPath><clipPath
       id="clipPath40"
       clipPathUnits="userSpaceOnUse"><path
         id="path42"
         d="m 0,0 225,0 0,249.764 -225,0 L 0,0 Z" /></clipPath><clipPath
       id="clipPath64"
       clipPathUnits="userSpaceOnUse"><path
         id="path66"
         d="m 0,249.764 225,0 L 225,0 0,0 0,249.764 Z" /></clipPath></defs><g
     transform="matrix(1.25,0,0,-1.25,0,312.205)"
     id="g10"><g
       transform="translate(1.449,45.846)"
       id="g12"><path
         id="path14"
         style="fill:#f5f5f5;fill-opacity:1;fill-rule:nonzero;stroke:none"
         d="M 0,0 166.043,-45.469 220.074,150.89 56.008,198.332 0,0 Z" /></g><g
       id="g16"><g
         clip-path="url(#clipPath20)"
         id="g18"><g
           transform="translate(57.457,244.1777)"
           id="g24"><path
             id="path26"
             style="fill:none;stroke:#100f0d;stroke-width:0.61000001;stroke-linecap:butt;stroke-linejoin:miter;stroke-miterlimit:10;stroke-dasharray:none;stroke-opacity:1"
             d="M 0,0 164.066,-47.441 110.035,-243.801 -56.008,-198.332 0,0 Z" /></g></g></g><g
       transform="translate(64.8442,228.7324)"
       id="g28"><path
         id="path30"
         style="fill:#f5f5f5;fill-opacity:1;fill-rule:nonzero;stroke:none"
         d="M 0,0 -40.489,-142.278 99.195,-183.539 141.894,-40.949 0,0 Z" /></g><g
       transform="translate(64.8442,228.7324)"
       id="g32"><path
         id="path34"
         style="fill:none;stroke:#000000;stroke-width:0.639;stroke-linecap:butt;stroke-linejoin:miter;stroke-miterlimit:4;stroke-dasharray:none;stroke-opacity:1"
         d="M 0,0 -40.489,-142.278 99.195,-183.539 141.894,-40.949 0,0 Z" /></g><g
       id="g36"><g
         clip-path="url(#clipPath40)"
         id="g38"><g
           transform="translate(0.3789,200.7554)"
           id="g44"><path
             id="path46"
             style="fill:none;stroke:#100f0d;stroke-width:0.61000001;stroke-linecap:butt;stroke-linejoin:miter;stroke-miterlimit:10;stroke-dasharray:none;stroke-opacity:1"
             d="M 0,0 163.723,48.629 224.234,-145.82 59.918,-197.183 0,0 Z" /></g></g></g><g
       transform="translate(0.3789,200.7558)"
       id="g48"><path
         id="path50"
         style="fill:#f5f5f5;fill-opacity:1;fill-rule:nonzero;stroke:none"
         d="M 0,0 59.918,-197.184 224.234,-145.821 163.723,48.629 0,0 Z" /></g><g
       transform="translate(15.8398,190.2441)"
       id="g52"><path
         id="path54"
         style="fill:#e8e7e5;fill-opacity:1;fill-rule:nonzero;stroke:none"
         d="M 0,0 139.629,42.929 183.102,-97.27 44.558,-141.066 0,0 Z" /></g><g
       transform="translate(15.8398,190.2441)"
       id="g56"><path
         id="path58"
         style="fill:none;stroke:#100f0d;stroke-width:0.49700001;stroke-linecap:butt;stroke-linejoin:miter;stroke-miterlimit:10;stroke-dasharray:none;stroke-opacity:1"
         d="M 0,0 139.629,42.929 183.102,-97.27 44.558,-141.066 0,0 Z" /></g><g
       id="g60"><g
         clip-path="url(#clipPath64)"
         id="g62"><g
           transform="translate(158.9951,124.8003)"
           id="g68"><path
             id="path70"
             style="fill:#056ba3;fill-opacity:1;fill-rule:nonzero;stroke:none"
             d="m 0,0 c -8.593,4.212 -17.078,-2.194 -11.893,-11.12 1.253,-2.155 -7.963,4.671 -17.31,-8.689 -1.865,-2.669 1.857,11.261 -5.171,8.447 l -5.048,0.394 c -3.901,-3.938 -6.189,-10.971 -2.568,-23.49 -7.691,8.336 -20.92,12.377 -24.573,-6.004 l -2.925,17.566 -21.269,-11.076 c 12.284,14.782 2.129,26.444 2.129,26.444 l 54.161,19.102 0.007,-0.013 27.522,22.099 17.19,-15.1 C 10.252,18.56 -17.86,23.907 0,0" /></g><g
           transform="translate(158.9951,124.8003)"
           id="g72"><path
             id="path74"
             style="fill:none;stroke:#231f20;stroke-width:0.58399999;stroke-linecap:butt;stroke-linejoin:miter;stroke-miterlimit:10;stroke-dasharray:none;stroke-opacity:1"
             d="m 0,0 c -8.593,4.212 -17.078,-2.194 -11.893,-11.12 1.253,-2.155 -7.963,4.671 -17.31,-8.689 -1.865,-2.669 1.857,11.261 -5.171,8.447 l -5.048,0.394 c -3.901,-3.938 -6.189,-10.971 -2.568,-23.49 -7.691,8.336 -20.92,12.377 -24.573,-6.004 l -2.925,17.566 -21.269,-11.076 c 12.284,14.782 2.129,26.444 2.129,26.444 l 54.161,19.102 0.007,-0.013 27.522,22.099 17.19,-15.1 C 10.252,18.56 -17.86,23.907 0,0 Z" /></g><g
           transform="translate(127.4834,79.6553)"
           id="g76"><path
             id="path78"
             style="fill:#cccbcb;fill-opacity:1;fill-rule:nonzero;stroke:none"
             d="m 0,0 c 0.846,-1.258 2.068,-1.507 3.399,-1.491 1.463,0.018 2.942,-0.058 4.366,0.273 2.194,0.51 4.111,1.602 5.912,2.946 0.714,0.533 0.734,-1.262 1.102,-0.518 0.197,0.399 -0.91,-1.804 0,0 0.003,0.007 1.857,-0.018 1.855,-0.024 C 15.749,-1.481 13.037,-0.896 10.706,-2.126 8.755,-3.155 6.654,-3.664 4.45,-3.758 3.3,-3.807 2.157,-3.605 1.077,-3.098 0.055,-2.616 -0.268,-1.958 -0.077,-0.815 -0.032,-0.548 -0.024,-0.272 0,0" /></g><g
           transform="translate(82.061,175.8286)"
           id="g80"><path
             id="path82"
             style="fill:#0973b9;fill-opacity:1;fill-rule:nonzero;stroke:none"
             d="m 0,0 c 0,0 -15.003,-43.01 30.06,-60.48 2.76,-1.07 6.141,-0.282 9.134,2.268 3.687,3.14 6.789,8.954 7.422,17.258 0.48,6.308 -0.463,14.051 -3.654,23.151 C 37.45,-2.079 27.125,5.888 17.474,8.471 2.73,12.417 0,0 0,0" /></g><g
           transform="translate(102.8184,160.8354)"
           id="g84"><path
             id="path86"
             style="fill:#eff0ea;fill-opacity:1;fill-rule:nonzero;stroke:none"
             d="m 0,0 c 2.251,-5.269 0.572,-11.038 -3.751,-12.885 -4.324,-1.847 -9.653,0.927 -11.904,6.196 -2.252,5.269 -0.572,11.037 3.751,12.884 C -7.581,8.042 -2.251,5.269 0,0" /></g><g
           transform="translate(121.0664,170.1021)"
           id="g88"><path
             id="path90"
             style="fill:#eff0ea;fill-opacity:1;fill-rule:nonzero;stroke:none"
             d="m 0,0 c 5.019,-9.386 9.473,-4.743 -7.017,-13.561 -3.505,-1.874 -8.334,0.32 -10.783,4.902 -2.45,4.581 -1.595,9.815 1.911,11.69 C -12.384,4.906 -2.45,4.582 0,0" /></g><g
           transform="translate(99.0854,159.2402)"
           id="g92"><path
             id="path94"
             style="fill:#1a9948;fill-opacity:1;fill-rule:nonzero;stroke:none"
             d="M 0,0 C 1.068,-2.5 0.346,-5.204 -1.613,-6.041 -3.572,-6.878 -6.026,-5.53 -7.094,-3.031 -8.162,-0.532 -7.439,2.173 -5.48,3.01 -3.521,3.847 -1.068,2.5 0,0" /></g><g
           transform="translate(113.5518,166.52)"
           id="g96"><path
             id="path98"
             style="fill:#1a9948;fill-opacity:1;fill-rule:nonzero;stroke:none"
             d="m 0,0 c 1.062,-2.484 0.471,-5.118 -1.319,-5.883 -1.79,-0.764 -4.102,0.629 -5.163,3.113 -1.062,2.484 -0.471,5.118 1.319,5.883 C -3.373,3.878 -1.062,2.484 0,0" /></g><g
           transform="translate(93.9385,157.041)"
           id="g100"><path
             id="path102"
             style="fill:#14170f;fill-opacity:1;fill-rule:nonzero;stroke:none"
             d="M 0,0 C -0.578,1.353 -0.207,2.809 0.83,3.252 1.866,3.694 3.175,2.957 3.753,1.604 4.331,0.25 3.959,-1.206 2.923,-1.648 1.887,-2.091 0.578,-1.353 0,0" /></g><g
           transform="translate(108.6123,164.3921)"
           id="g104"><path
             id="path106"
             style="fill:#14170f;fill-opacity:1;fill-rule:nonzero;stroke:none"
             d="M 0,0 C -0.583,1.365 -0.201,2.836 0.854,3.287 1.909,3.738 3.237,2.997 3.82,1.632 4.403,0.267 4.021,-1.205 2.966,-1.655 1.911,-2.106 0.583,-1.365 0,0" /></g><g
           transform="translate(92.2056,158.4863)"
           id="g108"><path
             id="path110"
             style="fill:#ffffff;fill-opacity:1;fill-rule:nonzero;stroke:none"
             d="M 0,0 C -0.08,0.848 0.395,1.586 1.059,1.648 1.724,1.711 2.327,1.074 2.407,0.227 2.486,-0.621 2.012,-1.359 1.348,-1.422 0.683,-1.484 0.08,-0.848 0,0" /></g><g
           transform="translate(109.1055,166.6509)"
           id="g112"><path
             id="path114"
             style="fill:#ffffff;fill-opacity:1;fill-rule:nonzero;stroke:none"
             d="m 0,0 c -0.013,-0.736 -0.422,-1.326 -0.914,-1.316 -0.491,0.008 -0.878,0.612 -0.865,1.348 0.013,0.736 0.423,1.325 0.914,1.317 C -0.375,1.34 0.013,0.736 0,0" /></g><g
           transform="translate(108.5098,164.0176)"
           id="g116"><path
             id="path118"
             style="fill:#ffffff;fill-opacity:1;fill-rule:nonzero;stroke:none"
             d="m 0,0 c -0.139,-0.206 -0.393,-0.278 -0.567,-0.16 -0.175,0.117 -0.204,0.38 -0.066,0.586 0.139,0.206 0.393,0.278 0.568,0.16 C 0.11,0.469 0.139,0.206 0,0" /></g><g
           transform="translate(86.1621,167.7871)"
           id="g120"><path
             id="path122"
             style="fill:#0973b9;fill-opacity:1;fill-rule:nonzero;stroke:none"
             d="M 0,0 C 0.571,1.196 0.759,2.618 1.542,3.696 3.026,5.744 5.105,4.145 6.349,2.746 6.605,2.457 7.028,2.882 6.772,3.17 5.663,4.418 4.075,5.926 2.261,5.113 0.429,4.293 0.24,1.888 -0.518,0.302 -0.683,-0.044 -0.167,-0.348 0,0" /></g><g
           transform="translate(87.6191,165.3813)"
           id="g124"><path
             id="path126"
             style="fill:#4a85a4;fill-opacity:1;fill-rule:nonzero;stroke:none"
             d="M 0,0 C 1.083,2.621 3.819,3.776 6.476,2.867 6.842,2.742 6.999,3.32 6.635,3.444 3.636,4.471 0.625,3.07 -0.578,0.159 -0.725,-0.197 -0.146,-0.352 0,0" /></g><g
           transform="translate(102.1318,171.3237)"
           id="g128"><path
             id="path130"
             style="fill:#4a85a4;fill-opacity:1;fill-rule:nonzero;stroke:none"
             d="M 0,0 C 1.55,2.278 3.885,4.379 6.854,3.523 7.226,3.416 7.384,3.994 7.014,4.101 3.79,5.03 1.188,2.809 -0.518,0.303 -0.735,-0.017 -0.216,-0.317 0,0" /></g><g
           transform="translate(93.3149,146.7324)"
           id="g132"><path
             id="path134"
             style="fill:#597d9f;fill-opacity:1;fill-rule:nonzero;stroke:none"
             d="m 0,0 c 2.446,0.618 4.909,0.819 7.422,0.614 0.384,-0.031 0.382,0.569 0,0.599 C 4.852,1.423 2.339,1.209 -0.159,0.578 -0.533,0.483 -0.375,-0.095 0,0" /></g><g
           transform="translate(113.749,154.478)"
           id="g136"><path
             id="path138"
             style="fill:#597d9f;fill-opacity:1;fill-rule:nonzero;stroke:none"
             d="M 0,0 C 0.973,2.047 2.549,3.646 4.583,4.647 4.929,4.818 4.625,5.335 4.28,5.165 2.166,4.124 0.494,2.431 -0.518,0.302 -0.682,-0.044 -0.166,-0.349 0,0" /></g><g
           transform="translate(92.208,128.6958)"
           id="g140"><path
             id="path142"
             style="fill:#97a6b0;fill-opacity:1;fill-rule:nonzero;stroke:none"
             d="m 0,0 c -6.069,-3.553 -13.006,-4.972 -19.01,-8.634 -2.56,-1.563 -0.218,-5.601 2.356,-4.031 5.989,3.655 12.937,5.081 19.01,8.635 C 4.947,-2.514 2.601,1.522 0,0" /></g><g
           transform="translate(150.3457,159.02)"
           id="g144"><path
             id="path146"
             style="fill:#97a6b0;fill-opacity:1;fill-rule:nonzero;stroke:none"
             d="m 0,0 c -4.248,-1.213 -8.121,-5.541 -11.313,-8.37 -3.472,-3.076 -6.969,-7.35 -11.039,-9.639 -2.618,-1.473 -0.267,-5.506 2.356,-4.03 3.639,2.047 6.735,5.664 9.811,8.429 3.1,2.785 7.292,7.929 11.426,9.11 C 4.124,-3.678 2.898,0.827 0,0" /></g><g
           transform="translate(165.4736,162.437)"
           id="g148"><path
             id="path150"
             style="fill:#056ba3;fill-opacity:1;fill-rule:nonzero;stroke:none"
             d="m 0,0 c -0.666,-3.36 -2.456,-4.344 -5.677,-2.818 -1.519,0.719 -2.476,0.521 -3.485,-0.705 -0.922,-1.12 -1.968,-2.135 -2.957,-3.198 -3.058,-3.287 -3.058,-3.287 -5.971,0.325 -0.122,0.151 -0.225,0.316 -0.347,0.468 -3.305,4.117 -3.307,4.12 1.666,6.471 0.788,0.373 1.65,0.612 2.396,1.037 1.129,0.642 0.725,-0.127 2.675,3.593 0.336,0.642 0.552,2.312 0.826,3.015 0.763,1.945 2.48,2.355 3.013,0.333 1.096,-4.17 2.437,-3.089 4.886,-3.265 C -0.408,5.071 0.582,2.937 0,0" /></g><g
           transform="translate(165.4736,162.437)"
           id="g152"><path
             id="path154"
             style="fill:none;stroke:#231f20;stroke-width:0.58399999;stroke-linecap:butt;stroke-linejoin:miter;stroke-miterlimit:10;stroke-dasharray:none;stroke-opacity:1"
             d="m 0,0 c -0.666,-3.36 -2.456,-4.344 -5.677,-2.818 -1.519,0.719 -2.476,0.521 -3.485,-0.705 -0.922,-1.12 -1.968,-2.135 -2.957,-3.198 -3.058,-3.287 -3.058,-3.287 -5.971,0.325 -0.122,0.151 -0.225,0.316 -0.347,0.468 -3.305,4.117 -3.307,4.12 1.666,6.471 0.788,0.373 1.65,0.612 2.396,1.037 1.129,0.642 0.725,-0.127 2.675,3.593 0.336,0.642 0.552,2.312 0.826,3.015 0.763,1.945 2.48,2.355 3.013,0.333 1.096,-4.17 2.437,-3.089 4.886,-3.265 C -0.408,5.071 0.582,2.937 0,0 Z" /></g><g
           transform="translate(65.6606,105.1699)"
           id="g156"><path
             id="path158"
             style="fill:#056ba3;fill-opacity:1;fill-rule:nonzero;stroke:none"
             d="m 0,0 c 3.943,-1.068 5.943,0.323 6.019,4.572 0.036,2.005 0.755,2.923 2.601,3.352 1.683,0.39 3.323,0.971 4.983,1.465 5.132,1.525 5.133,1.525 2.816,6.551 -0.097,0.21 -0.218,0.409 -0.315,0.619 -2.649,5.714 -2.651,5.717 -7.798,1.649 C 7.491,17.563 6.778,16.77 5.929,16.197 4.644,15.331 5.681,15.355 0.672,15.243 -0.192,15.224 -2.091,15.879 -2.987,15.957 -5.469,16.174 -6.819,14.556 -4.939,12.915 -1.065,9.533 -2.931,8.674 -4.04,5.964 -5.202,3.124 -3.446,0.935 0,0" /></g><g
           transform="translate(65.6606,105.1699)"
           id="g160"><path
             id="path162"
             style="fill:none;stroke:#231f20;stroke-width:0.69700003;stroke-linecap:butt;stroke-linejoin:miter;stroke-miterlimit:10;stroke-dasharray:none;stroke-opacity:1"
             d="m 0,0 c 3.943,-1.068 5.943,0.323 6.019,4.572 0.036,2.005 0.755,2.923 2.601,3.352 1.683,0.39 3.323,0.971 4.983,1.465 5.132,1.525 5.133,1.525 2.816,6.551 -0.097,0.21 -0.218,0.409 -0.315,0.619 -2.649,5.714 -2.651,5.717 -7.798,1.649 C 7.491,17.563 6.778,16.77 5.929,16.197 4.644,15.331 5.681,15.355 0.672,15.243 -0.192,15.224 -2.091,15.879 -2.987,15.957 -5.469,16.174 -6.819,14.556 -4.939,12.915 -1.065,9.533 -2.931,8.674 -4.04,5.964 -5.202,3.124 -3.446,0.935 0,0 Z" /></g><g
           transform="translate(103.9688,139.3345)"
           id="g164"><path
             id="path166"
             style="fill:#a5897a;fill-opacity:1;fill-rule:nonzero;stroke:none"
             d="M 0,0 C 4.282,-2.853 9.436,-1.497 12.551,2.415 12.942,2.906 12.249,3.609 11.854,3.112 9.005,-0.464 4.469,-1.794 0.498,0.852 -0.032,1.204 -0.526,0.351 0,0" /></g><g
           transform="translate(96.8867,147.9263)"
           id="g168"><path
             id="path170"
             style="fill:#323232;fill-opacity:1;fill-rule:nonzero;stroke:none"
             d="M 0,0 10.489,-0.56 15.1,5.022 0,0 Z" /></g><g
           transform="translate(96.8867,147.9263)"
           id="g172"><path
             id="path174"
             style="fill:none;stroke:#231f20;stroke-width:0.207;stroke-linecap:butt;stroke-linejoin:miter;stroke-miterlimit:10;stroke-dasharray:none;stroke-opacity:1"
             d="M 0,0 10.489,-0.56 15.1,5.022 0,0 Z" /></g><g
           transform="translate(106.4502,162.3774)"
           id="g176"><path
             id="path178"
             style="fill:#323232;fill-opacity:1;fill-rule:nonzero;stroke:none"
             d="m 0,0 c 0.104,-0.384 0.208,-0.769 0.312,-1.154 3.587,0.14 7.21,0.025 10.751,0.51 2.37,0.325 2.992,2.56 1.958,5.254 -1.31,3.409 -2.982,4.631 -5.25,3.481 C 4.256,6.31 1.915,3.323 0,0 m -7.271,-3.885 c -0.095,0.321 -0.189,0.642 -0.284,0.964 -2.659,0.091 -5.353,0.478 -7.965,0.171 -1.729,-0.204 -4.478,-1.124 -4.747,-2.221 -0.443,-1.801 0.461,-4.149 1.353,-5.998 0.744,-1.541 2.587,-1.907 4.119,-0.932 3.189,2.029 5.647,4.782 7.524,8.016 m 22.995,-8.496 c -1.973,3.492 -10.141,1.432 -11.899,0.684 -3.679,-1.566 -7.372,-3.1 -11.032,-4.71 -1.988,-0.875 -4.015,-1.724 -5.853,-2.862 -2.333,-1.444 -2.508,-3.609 -1.301,-5.923 -3.789,-2.841 -5.532,-1.762 -8.246,1.856 -6.367,8.483 -8.993,19.723 -11.925,30.198 -2.405,8.593 -4.116,17.3 -3.897,26.283 0.035,1.432 0.266,2.859 0.475,4.989 2.264,-4.65 4.092,-8.653 6.143,-12.537 1.662,-3.15 2.233,-3.225 4.77,-0.836 4.251,4.004 9.232,6.118 15.061,6.437 3.152,0.172 3.554,0.761 2.516,3.752 -1.471,4.24 -3.146,8.41 -4.735,12.61 0.18,0.179 0.36,0.358 0.539,0.537 3.06,-2.99 6.381,-5.758 9.132,-9.009 9.687,-11.445 16.683,-24.49 22.141,-38.399 0.702,-1.791 1.365,-3.598 2.087,-5.381 1.804,-4.454 1.022,-6.04 -3.976,-7.689" /></g><g
           transform="translate(106.4502,162.3774)"
           id="g180"><path
             id="path182"
             style="fill:none;stroke:#231f20;stroke-width:0.233;stroke-linecap:butt;stroke-linejoin:miter;stroke-miterlimit:10;stroke-dasharray:none;stroke-opacity:1"
             d="m 0,0 c 0.104,-0.384 0.208,-0.769 0.312,-1.154 3.587,0.14 7.21,0.025 10.751,0.51 2.37,0.325 2.992,2.56 1.958,5.254 -1.31,3.409 -2.982,4.631 -5.25,3.481 C 4.256,6.31 1.915,3.323 0,0 Z m -7.271,-3.885 c -0.095,0.321 -0.189,0.642 -0.284,0.964 -2.659,0.091 -5.353,0.478 -7.965,0.171 -1.729,-0.204 -4.478,-1.124 -4.747,-2.221 -0.443,-1.801 0.461,-4.149 1.353,-5.998 0.744,-1.541 2.587,-1.907 4.119,-0.932 3.189,2.029 5.647,4.782 7.524,8.016 z m 22.995,-8.496 c -1.973,3.492 -10.141,1.432 -11.899,0.684 -3.679,-1.566 -7.372,-3.1 -11.032,-4.71 -1.988,-0.875 -4.015,-1.724 -5.853,-2.862 -2.333,-1.444 -2.508,-3.609 -1.301,-5.923 -3.789,-2.841 -5.532,-1.762 -8.246,1.856 -6.367,8.483 -8.993,19.723 -11.925,30.198 -2.405,8.593 -4.116,17.3 -3.897,26.283 0.035,1.432 0.266,2.859 0.475,4.989 2.264,-4.65 4.092,-8.653 6.143,-12.537 1.662,-3.15 2.233,-3.225 4.77,-0.836 4.251,4.004 9.232,6.118 15.061,6.437 3.152,0.172 3.554,0.761 2.516,3.752 -1.471,4.24 -3.146,8.41 -4.735,12.61 0.18,0.179 0.36,0.358 0.539,0.537 3.06,-2.99 6.381,-5.758 9.132,-9.009 9.687,-11.445 16.683,-24.49 22.141,-38.399 0.702,-1.791 1.365,-3.598 2.087,-5.381 1.804,-4.454 1.022,-6.04 -3.976,-7.689 z" /></g><g
           transform="translate(120.3887,117.4805)"
           id="g184"><path
             id="path186"
             style="fill:#97a6b0;fill-opacity:1;fill-rule:nonzero;stroke:none"
             d="M 0,0 C -16.674,-11.022 -32.718,14.359 -32.718,14.359 -35.96,14.346 2.399,11.507 8.333,30.076 8.352,30.134 8.403,30.165 8.426,30.108 9.456,27.5 13.9,13.801 0,0" /></g><g
           transform="translate(120.3887,117.4805)"
           id="g188"><path
             id="path190"
             style="fill:none;stroke:#231f20;stroke-width:0.117;stroke-linecap:butt;stroke-linejoin:miter;stroke-miterlimit:10;stroke-dasharray:none;stroke-opacity:1"
             d="M 0,0 C -16.674,-11.022 -32.718,14.359 -32.718,14.359 -35.96,14.346 2.399,11.507 8.333,30.076 8.352,30.134 8.403,30.165 8.426,30.108 9.456,27.5 13.9,13.801 0,0 Z" /></g><g
           transform="translate(113.5947,129.0029)"
           id="g192"><path
             id="path194"
             style="fill:#000000;fill-opacity:1;fill-rule:nonzero;stroke:none"
             d="m 0,0 c -0.012,0.02 -0.024,0.04 -0.036,0.059 -0.588,-0.355 -1.199,-0.677 -1.756,-1.075 -0.69,-0.491 -1.259,-1.109 -1.512,-1.949 -0.246,-0.818 0.058,-1.525 0.812,-1.929 0.444,-0.237 0.924,-0.349 1.42,-0.367 1.788,-0.063 3.372,0.51 4.786,1.576 0.624,0.471 1.145,1.036 1.421,1.787 0.322,0.88 0.012,1.674 -0.831,2.081 C 4.02,0.32 3.705,0.421 3.394,0.473 2.218,0.666 1.094,0.43 0,0 M -0.118,0.267 C 0.994,0.701 2.139,0.959 3.339,0.834 3.726,0.794 4.121,0.708 4.482,0.565 5.651,0.103 6.05,-0.978 5.498,-2.109 5.092,-2.943 4.448,-3.564 3.695,-4.08 2.259,-5.063 0.677,-5.607 -1.076,-5.595 c -0.654,0.005 -1.291,0.117 -1.866,0.458 -0.851,0.504 -1.141,1.358 -0.781,2.285 0.35,0.897 0.991,1.562 1.761,2.096 0.575,0.399 1.205,0.72 1.811,1.077 0.01,-0.018 0.022,-0.036 0.033,-0.054" /></g><g
           transform="translate(117.5215,126.0869)"
           id="g196"><path
             id="path198"
             style="fill:#f3ea22;fill-opacity:1;fill-rule:nonzero;stroke:none"
             d="M 0,0 C 0.45,0.356 0.788,1.109 0.73,1.637 0.712,1.812 0.652,1.99 0.575,2.148 0.183,2.945 -1.239,3.198 -2.068,3.001 -1.949,2.887 -1.812,2.79 -1.722,2.66 -1.632,2.532 -1.542,2.373 -1.535,2.224 -1.521,1.942 -1.839,1.693 -2.244,1.614 -2.568,1.551 -2.711,1.629 -2.865,1.948 -2.991,2.209 -3.12,2.469 -3.269,2.771 -3.39,2.518 -3.307,2.241 -3.628,2.112 -3.947,1.983 -4.064,2.278 -4.312,2.323 -4.209,1.978 -4.095,1.66 -4.025,1.332 -4,1.208 -4.037,1.028 -4.117,0.934 -4.303,0.712 -4.567,0.608 -4.862,0.622 -5.159,0.636 -5.335,0.797 -5.359,1.095 -5.376,1.291 -5.36,1.49 -5.358,1.724 -5.926,1.274 -6.393,0.79 -6.624,0.123 c -0.175,-0.506 -0.143,-0.987 0.227,-1.408 0.353,-0.401 1.181,-0.716 1.633,-0.622 -0.229,0.214 -0.475,0.44 -0.274,0.78 0.264,0.442 0.666,0.338 1.059,0.191 0.023,0.357 0.142,0.48 0.472,0.479 0.332,-0.002 0.627,-0.119 0.883,-0.33 0.095,-0.078 0.181,-0.168 0.292,-0.273 -0.046,0.411 0.028,0.762 0.261,1.058 0.106,0.136 0.256,0.276 0.413,0.323 0.123,0.036 0.288,-0.069 0.44,-0.113 0.184,0.414 0.464,0.628 0.783,0.568 C -0.017,0.697 -0.004,0.365 0,0 m -3.927,2.916 c 1.094,0.43 2.218,0.666 3.394,0.473 C -0.222,3.337 0.093,3.236 0.377,3.099 1.221,2.692 1.53,1.898 1.208,1.018 0.933,0.267 0.411,-0.298 -0.213,-0.769 c -1.414,-1.066 -2.998,-1.639 -4.786,-1.576 -0.496,0.018 -0.976,0.13 -1.419,0.367 -0.754,0.404 -1.059,1.111 -0.812,1.929 0.252,0.841 0.821,1.458 1.511,1.949 0.557,0.398 1.168,0.72 1.756,1.075 0.012,-0.019 0.025,-0.039 0.036,-0.059" /></g><g
           transform="translate(117.5215,126.0869)"
           id="g200"><path
             id="path202"
             style="fill:#000000;fill-opacity:1;fill-rule:nonzero;stroke:none"
             d="M 0,0 C -0.004,0.365 -0.017,0.697 -0.435,0.776 -0.754,0.836 -1.034,0.622 -1.218,0.208 -1.37,0.252 -1.535,0.357 -1.658,0.321 -1.815,0.274 -1.965,0.134 -2.071,-0.002 -2.304,-0.298 -2.378,-0.649 -2.332,-1.06 c -0.111,0.105 -0.197,0.195 -0.292,0.273 -0.256,0.211 -0.551,0.328 -0.883,0.33 -0.33,0.001 -0.449,-0.122 -0.472,-0.479 -0.393,0.147 -0.795,0.251 -1.059,-0.191 -0.201,-0.34 0.045,-0.566 0.274,-0.78 -0.452,-0.094 -1.28,0.221 -1.633,0.622 -0.37,0.421 -0.402,0.902 -0.227,1.408 0.231,0.667 0.698,1.151 1.266,1.601 C -5.36,1.49 -5.376,1.291 -5.359,1.095 c 0.024,-0.298 0.2,-0.459 0.497,-0.473 0.295,-0.014 0.68,0.03 0.745,0.312 0.092,0.398 0.117,0.274 0.092,0.398 -0.07,0.328 -0.184,0.646 -0.287,0.991 0.248,-0.045 0.365,-0.34 0.684,-0.211 0.321,0.129 0.238,0.406 0.359,0.659 0.149,-0.302 0.278,-0.562 0.404,-0.823 0.154,-0.319 0.297,-0.397 0.621,-0.334 0.405,0.079 0.723,0.328 0.709,0.61 C -1.542,2.373 -1.632,2.532 -1.722,2.66 -1.812,2.79 -1.949,2.887 -2.068,3.001 -1.239,3.198 0.183,2.945 0.575,2.148 0.652,1.99 0.712,1.812 0.73,1.637 0.788,1.109 0.45,0.356 0,0" /></g><g
           transform="translate(101.0674,117.4707)"
           id="g204"><path
             id="path206"
             style="fill:#0d1112;fill-opacity:1;fill-rule:nonzero;stroke:none"
             d="m 0,0 c 3.784,-2.182 12.501,-3.438 16.707,-2.261 4.4,1.234 6.168,3.697 8.106,6.69 2.061,3.181 3.164,7.038 2.999,7.421 C 27.377,12.856 21.265,8.803 20.348,8.415 13.654,5.58 6.96,2.744 0.266,-0.091" /></g><g
           transform="translate(134.7441,105.0674)"
           id="g208"><path
             id="path210"
             style="fill:#c0272d;fill-opacity:1;fill-rule:nonzero;stroke:none"
             d="m 0,0 c 2.295,0.807 4.632,1.394 7.081,1.427 1.197,0.016 1.902,-0.474 2.462,-1.61 1.271,-2.579 1.232,-5.429 1.929,-8.121 0.844,-3.269 1.502,-6.589 2.392,-9.844 0.396,-1.448 -0.057,-2.365 -1.11,-3.249 -0.812,-0.684 -1.845,-1.084 -2.501,-1.96 -2.319,-0.992 -4.638,-1.982 -6.957,-2.973 -1.231,-0.166 -2.46,-0.343 -3.692,-0.496 -1.13,-0.142 -1.907,0.247 -2.553,1.268 -2.525,3.987 -5.001,8.017 -7.81,11.8 -0.964,1.298 -1.741,2.604 -2.456,4.016 -0.55,1.086 -0.232,1.866 0.487,2.654 1.349,1.476 2.996,2.582 4.72,3.538 1.765,0.977 3.528,1.986 5.45,2.648 0.429,-1.289 0.358,-2.613 0.246,-3.939 C -4.09,-6.384 -6.492,-6.935 -8.349,-8.53 -6.086,-8.776 2.336,-5.278 5.037,-2.971 4.198,-2.749 3.59,-3.194 2.937,-3.297 1.957,-3.451 0.962,-4.388 -0.03,-3.34 -0.021,-2.227 -0.01,-1.113 0,0" /></g><g
           transform="translate(134.7441,105.0674)"
           id="g212"><path
             id="path214"
             style="fill:none;stroke:#000000;stroke-width:0.26899999;stroke-linecap:butt;stroke-linejoin:miter;stroke-miterlimit:10;stroke-dasharray:none;stroke-opacity:1"
             d="m 0,0 c 2.295,0.807 4.632,1.394 7.081,1.427 1.197,0.016 1.902,-0.474 2.462,-1.61 1.271,-2.579 1.232,-5.429 1.929,-8.121 0.844,-3.269 1.502,-6.589 2.392,-9.844 0.396,-1.448 -0.057,-2.365 -1.11,-3.249 -0.812,-0.684 -1.845,-1.084 -2.501,-1.96 -2.319,-0.992 -4.638,-1.982 -6.957,-2.973 -1.231,-0.166 -2.46,-0.343 -3.692,-0.496 -1.13,-0.142 -1.907,0.247 -2.553,1.268 -2.525,3.987 -5.001,8.017 -7.81,11.8 -0.964,1.298 -1.741,2.604 -2.456,4.016 -0.55,1.086 -0.232,1.866 0.487,2.654 1.349,1.476 2.996,2.582 4.72,3.538 1.765,0.977 3.528,1.986 5.45,2.648 0.429,-1.289 0.358,-2.613 0.246,-3.939 C -4.09,-6.384 -6.492,-6.935 -8.349,-8.53 -6.086,-8.776 2.336,-5.278 5.037,-2.971 4.198,-2.749 3.59,-3.194 2.937,-3.297 1.957,-3.451 0.962,-4.388 -0.03,-3.34 -0.021,-2.227 -0.01,-1.113 0,0 Z" /></g><g
           transform="translate(134.0322,101.9922)"
           id="g216"><path
             id="path218"
             style="fill:#252525;fill-opacity:1;fill-rule:nonzero;stroke:none"
             d="M 0,0 C 1.646,0.446 3.289,0.903 4.938,1.333 5.37,1.445 5.822,1.488 6.269,1.533 6.535,1.56 6.836,1.548 6.979,1.272 7.163,0.917 6.915,0.648 6.671,0.469 5.949,-0.063 5.229,-0.61 4.453,-1.054 0.45,-3.34 -3.767,-5.123 -8.238,-6.266 c -0.661,-0.169 -1.676,-0.61 -1.987,0.082 -0.376,0.838 0.71,1.197 1.302,1.591 1.687,1.124 3.463,2.094 5.351,2.847 0.412,0.165 0.817,0.396 1.291,0.245 0.039,-0.4 -0.31,-1.12 0.319,-1.087 0.766,0.039 1.605,0.394 1.895,1.258 C 0.069,-0.924 -0.016,-0.446 0,0" /></g><g
           transform="translate(146.0693,124.9746)"
           id="g220"><path
             id="path222"
             style="fill:#3ea4d0;fill-opacity:1;fill-rule:nonzero;stroke:none"
             d="m 0,0 c 0.068,-0.474 -0.289,-0.731 -0.554,-1.02 -2.434,-2.656 -4.128,-5.706 -5.187,-9.143 -1.153,-3.733 -4.374,-5.795 -8.381,-5.501 -0.419,0.031 -0.805,-0.002 -1.156,-0.247 -0.064,0.11 -0.128,0.221 -0.192,0.331 -0.195,0.448 -0.308,0.959 -0.599,1.333 -1.056,1.356 -0.944,2.866 -0.415,4.298 1.22,3.312 2.956,6.288 6.228,8.067 2.555,1.388 5.323,1.974 8.187,2 C -1.403,0.125 -0.649,0.517 0,0" /></g><g
           transform="translate(146.0693,124.9746)"
           id="g224"><path
             id="path226"
             style="fill:none;stroke:#231f20;stroke-width:0.361;stroke-linecap:butt;stroke-linejoin:miter;stroke-miterlimit:10;stroke-dasharray:none;stroke-opacity:1"
             d="m 0,0 c 0.068,-0.474 -0.289,-0.731 -0.554,-1.02 -2.434,-2.656 -4.128,-5.706 -5.187,-9.143 -1.153,-3.733 -4.374,-5.795 -8.381,-5.501 -0.419,0.031 -0.805,-0.002 -1.156,-0.247 -0.064,0.11 -0.128,0.221 -0.192,0.331 -0.195,0.448 -0.308,0.959 -0.599,1.333 -1.056,1.356 -0.944,2.866 -0.415,4.298 1.22,3.312 2.956,6.288 6.228,8.067 2.555,1.388 5.323,1.974 8.187,2 C -1.403,0.125 -0.649,0.517 0,0 Z" /></g><g
           transform="translate(120.252,113.8994)"
           id="g228"><path
             id="path230"
             style="fill:#231f20;fill-opacity:1;fill-rule:nonzero;stroke:none"
             d="M 0,0 C 7.071,1.164 13.766,-5.792 10.199,-12.648 9.307,-14.365 11.904,-15.89 12.8,-14.169 17.646,-4.85 8.885,4.498 -0.801,2.903 -2.708,2.589 -1.898,-0.312 0,0" /></g><g
           transform="translate(120.0918,114.4795)"
           id="g232"><path
             id="path234"
             style="fill:#3ea4d0;fill-opacity:1;fill-rule:nonzero;stroke:none"
             d="m 0,0 c 7.584,1.249 14.709,-6.17 10.88,-13.533 -0.536,-1.03 1.022,-1.945 1.559,-0.911 C 17.026,-5.626 8.69,3.252 -0.48,1.742 -1.625,1.554 -1.14,-0.187 0,0" /></g><g
           transform="translate(105.3037,118.2568)"
           id="g236"><path
             id="path238"
             style="fill:#f3e965;fill-opacity:1;fill-rule:nonzero;stroke:none"
             d="M 0,0 C 0.058,-0.567 0.192,-1.098 0.48,-1.595 0.821,-2.18 1.731,-1.65 1.39,-1.062 1.198,-0.733 1.092,-0.379 1.053,0 0.985,0.668 -0.068,0.675 0,0" /></g><g
           transform="translate(108.0791,120.3604)"
           id="g240"><path
             id="path242"
             style="fill:#f3e965;fill-opacity:1;fill-rule:nonzero;stroke:none"
             d="M 0,0 C 0.285,-1.01 0.57,-2.02 0.854,-3.029 1.066,-3.778 2.236,-3.46 2.023,-2.707 1.738,-1.697 1.454,-0.687 1.168,0.322 0.957,1.071 -0.212,0.753 0,0" /></g><g
           transform="translate(110.2583,119.8594)"
           id="g244"><path
             id="path246"
             style="fill:#f3e965;fill-opacity:1;fill-rule:nonzero;stroke:none"
             d="M 0,0 C 0.155,-0.509 0.31,-1.018 0.464,-1.526 0.753,-2.476 2.247,-2.071 1.956,-1.115 1.801,-0.606 1.646,-0.098 1.492,0.411 1.203,1.361 -0.291,0.956 0,0" /></g><g
           transform="translate(120.9443,123.9707)"
           id="g248"><path
             id="path250"
             style="fill:#f3e965;fill-opacity:1;fill-rule:nonzero;stroke:none"
             d="M 0,0 C 0.152,-0.356 0.304,-0.712 0.455,-1.068 0.6,-1.409 1.096,-1.478 1.386,-1.312 1.738,-1.111 1.772,-0.717 1.63,-0.381 1.479,-0.025 1.327,0.331 1.176,0.687 1.03,1.028 0.535,1.096 0.244,0.931 -0.107,0.73 -0.143,0.336 0,0" /></g><g
           transform="translate(122.5352,125.7183)"
           id="g252"><path
             id="path254"
             style="fill:#f3e965;fill-opacity:1;fill-rule:nonzero;stroke:none"
             d="M 0,0 C 0.071,-0.518 0.143,-1.036 0.214,-1.554 0.26,-1.889 0.686,-2.066 0.979,-1.988 1.34,-1.894 1.46,-1.554 1.414,-1.223 1.343,-0.705 1.271,-0.187 1.2,0.331 1.154,0.667 0.729,0.843 0.435,0.766 0.075,0.67 -0.046,0.331 0,0" /></g><g
           transform="translate(124.249,126.665)"
           id="g256"><path
             id="path258"
             style="fill:#f3e965;fill-opacity:1;fill-rule:nonzero;stroke:none"
             d="M 0,0 C 0.091,-0.367 0.181,-0.734 0.271,-1.101 0.494,-2.001 1.885,-1.62 1.662,-0.717 1.571,-0.351 1.481,0.016 1.391,0.383 1.169,1.284 -0.223,0.902 0,0" /></g><g
           transform="translate(119.0586,120.0469)"
           id="g260"><path
             id="path262"
             style="fill:#606161;fill-opacity:1;fill-rule:nonzero;stroke:none"
             d="m 0,0 -2.905,-1.053 c -0.721,-0.261 -1.525,0.115 -1.786,0.836 -0.262,0.721 0.115,1.525 0.836,1.786 L -0.95,2.622 C -0.229,2.883 0.574,2.507 0.836,1.786 1.097,1.065 0.721,0.262 0,0" /></g></g></g><g
       id="text264"
       style="font-variant:normal;font-weight:normal;font-stretch:normal;font-size:19.9999733px;font-family:'Museo 500';-inkscape-font-specification:Museo-500;writing-mode:lr-tb;fill:#231f20;fill-opacity:1;fill-rule:nonzero;stroke:none"
       transform="matrix(0.95138623,0.3080004,0.3080004,-0.95138623,107.9114,37.8717)"><path
         id="path269"
         style=""
         d="M 2.0399973,-1.2799983 C 2.0399973,-0.37999949 2.4199968,0 3.3199956,0 l 3.5799952,0 c 2.4999966,0 4.5399942,-1.3599982 4.5399942,-4.0199946 0,-1.5799979 -0.819999,-2.9799961 -2.3199972,-3.4199955 l 0,-0.04 c 0.9399992,-0.4599994 1.7599972,-1.499998 1.7599972,-3.039996 0,-2.279997 -1.7199972,-3.599995 -4.0999941,-3.599995 l -6.03999189,0 0,1.719998 1.29999829,0 0,11.1199847 z m 1.9999973,-6.8999908 0,-4.2199939 2.7199964,0 c 1.3199982,0 2.0799972,0.839998 2.0799972,2.079997 0,1.2399981 -0.7999989,2.1399969 -2.0399973,2.1399969 l -2.7599963,0 z m 0,6.019992 0,-4.3799942 2.9599961,0 c 1.439998,0 2.3799968,0.9799987 2.3799968,2.4199968 0,1.4399981 -0.8799988,2.3999968 -2.3799968,2.3999968 l -2.5199967,0 c -0.2799996,0 -0.4399994,-0.1599998 -0.4399994,-0.4399994 z" /><path
         id="path271"
         style=""
         d="m 13.079983,-2.8399962 c 0,2.01999729 1.699998,3.07999588 3.439995,3.07999588 2.419997,0 3.219996,-1.99999738 3.219996,-1.99999738 l 0.04,0 c 0,0 -0.04,0.2599997 -0.04,0.5999992 0,0.71999909 0.36,1.1599985 1.259998,1.1599985 l 1.819998,0 0,-1.6599978 -0.819999,0 c -0.28,0 -0.439999,-0.1399998 -0.439999,-0.4399994 l 0,-4.2999943 c 0,-2.239997 -0.879999,-3.9599945 -4.159995,-3.9599945 -0.979999,0 -3.499995,0.24 -3.499995,1.8999973 l 0,0.9999987 1.819997,0 0,-0.5799993 c 0,-0.6599991 1.179999,-0.7799989 1.659998,-0.7799989 1.579998,0 2.239997,0.6399991 2.239997,2.4199967 l 0,0.1 -0.439999,0 c -1.699998,0 -6.099992,0.1999997 -6.099992,3.4599954 z m 1.959997,-0.1 c 0,-1.8599975 2.639997,-1.9399974 4.099995,-1.9399974 l 0.499999,0 0,0.3399996 c 0,1.499998 -1.059998,3.2199957 -2.699996,3.2199957 -1.279998,0 -1.899998,-0.799999 -1.899998,-1.6199979 z" /><path
         id="path273"
         style=""
         d="m 24.999968,-3.6999951 c 0,3.37999553 2.579997,3.77999499 3.859995,3.77999499 0.42,0 0.679999,-0.03999994 0.679999,-0.03999994 l 0,-1.71999775 c 0,0 -0.179999,0.04 -0.459999,0.04 -0.739999,0 -2.139997,-0.2599997 -2.139997,-2.279997 l 0,-4.6399938 2.419997,0 0,-1.5599974 -2.419997,0 0,-2.779997 -1.899998,0 0,2.779997 -1.359998,0 0,1.5599974 1.319998,0 0,4.8599935 z" /><path
         id="path275"
         style=""
         d="m 36.319953,-1.8599975 c 0,0 1.679997,2.09999718 4.679993,2.09999718 2.799997,0 4.479994,-1.85999748 4.479994,-4.01999468 0,-4.6399938 -6.79999,-3.9999946 -6.79999,-6.859991 0,-1.059998 0.959998,-1.899997 2.479996,-1.899997 1.119999,0 2.179997,0.539999 2.179997,1.279998 l 0,0.659999 1.839998,0 0,-1.159998 c 0,-1.919998 -2.519997,-2.599997 -4.019995,-2.599997 -2.659996,0 -4.519994,1.659998 -4.519994,3.779995 0,4.3999943 6.819991,3.9399949 6.819991,6.8999909 0,1.2999983 -1.099998,2.0999972 -2.419997,2.0999972 -2.099997,0 -3.539995,-1.6999977 -3.539995,-1.6999977 l -1.179998,1.4199981 z" /><path
         id="path277"
         style=""
         d="m 47.11994,-5.0599932 c 0,2.999996 2.179997,5.29999288 5.379992,5.29999288 2.399997,0 3.899995,-1.47999798 3.899995,-1.47999798 l -0.839999,-1.3799982 c 0,0 -1.219998,1.1799984 -2.959996,1.1799984 -1.799997,0 -3.359995,-1.2199983 -3.479995,-3.3799955 l 7.37999,0 c 0,0 0.06,-0.5399992 0.06,-0.7999989 0,-2.6199965 -1.519998,-4.7399935 -4.359994,-4.7399935 -2.879996,0 -5.079993,2.0799971 -5.079993,5.2999928 z m 2.079997,-1.1799985 c 0.299999,-1.6799977 1.499998,-2.5799965 2.979996,-2.5799965 1.259998,0 2.319997,0.8999988 2.379997,2.5799965 l -5.359993,0 z" /><path
         id="path279"
         style=""
         d="m 58.159925,-5.0599932 c 0,2.999996 2.179997,5.29999288 5.379993,5.29999288 2.399997,0 3.899995,-1.47999798 3.899995,-1.47999798 l -0.839999,-1.3799982 c 0,0 -1.219998,1.1799984 -2.959996,1.1799984 -1.799998,0 -3.359996,-1.2199983 -3.479995,-3.3799955 l 7.37999,0 c 0,0 0.06,-0.5399992 0.06,-0.7999989 0,-2.6199965 -1.519998,-4.7399935 -4.359995,-4.7399935 -2.879996,0 -5.079993,2.0799971 -5.079993,5.2999928 z m 2.079997,-1.1799985 c 0.3,-1.6799977 1.499998,-2.5799965 2.979996,-2.5799965 1.259999,0 2.319997,0.8999988 2.379997,2.5799965 l -5.359993,0 z" /><path
         id="path281"
         style=""
         d="m 69.219911,-5.0599932 c 0,3.1399958 1.719998,5.29999288 4.459994,5.29999288 2.479997,0 3.319995,-1.83999758 3.319995,-1.83999758 l 0.04,0 c 0,0 -0.02,0.2199997 -0.02,0.5199993 C 77.0199,-0.39999947 77.3799,0 78.259899,0 l 1.859997,0 0,-1.6599978 -0.819999,0 c -0.279999,0 -0.439999,-0.1399998 -0.439999,-0.4399994 l 0,-10.7399858 c 0,-0.899999 -0.38,-1.279998 -1.279998,-1.279998 l -1.919998,0 0,1.659998 0.819999,0 c 0.28,0 0.44,0.139999 0.44,0.439999 l 0,2.5399967 c 0,0.3799994 0.04,0.679999 0.04,0.679999 l -0.04,0 c 0,0 -0.779999,-1.5599977 -3.119996,-1.5599977 -2.679997,0 -4.579994,2.0799971 -4.579994,5.2999928 z m 4.839993,3.6199951 c -1.679997,0 -2.859996,-1.4199981 -2.859996,-3.6199951 0,-2.299997 1.319998,-3.6199952 2.899996,-3.6199952 1.939998,0 2.879996,1.7999976 2.879996,3.5999952 0,2.5799965 -1.419998,3.6399951 -2.919996,3.6399951 z" /></g></g></svg>