<?xml version="1.0" encoding="UTF-8" standalone="no"?>
<svg
   xmlns:dc="http://purl.org/dc/elements/1.1/"
   xmlns:cc="http://creativecommons.org/ns#"
   xmlns:rdf="http://www.w3.org/1999/02/22-rdf-syntax-ns#"
   xmlns:svg="http://www.w3.org/2000/svg"
   xmlns="http://www.w3.org/2000/svg"
   viewBox="0 0 281.25 312.20499"
   height="312.20499"
   width="281.25"
   xml:space="preserve"
   version="1.1"
   id="svg2"><metadata
     id="metadata8"><rdf:RDF><cc:Work
         rdf:about=""><dc:format>image/svg+xml</dc:format><dc:type
           rdf:resource="http://purl.org/dc/dcmitype/StillImage" /></cc:Work></rdf:RDF></metadata><defs
     id="defs6"><clipPath
       id="clipPath20"
       clipPathUnits="userSpaceOnUse"><path
         id="path22"
         d="m 0,0 225,0 0,249.764 -225,0 L 0,0 Z" /></clipPath><clipPath
       id="clipPath40"
       clipPathUnits="userSpaceOnUse"><path
         id="path42"
         d="m 0,0 225,0 0,249.764 -225,0 L 0,0 Z" /></clipPath><clipPath
       id="clipPath64"
       clipPathUnits="userSpaceOnUse"><path
         id="path66"
         d="m 0,249.764 225,0 L 225,0 0,0 0,249.764 Z" /></clipPath></defs><g
     transform="matrix(1.25,0,0,-1.25,0,312.205)"
     id="g10"><g
       transform="translate(1.449,45.846)"
       id="g12"><path
         id="path14"
         style="fill:#f5f5f5;fill-opacity:1;fill-rule:nonzero;stroke:none"
         d="M 0,0 166.043,-45.469 220.074,150.89 56.008,198.332 0,0 Z" /></g><g
       id="g16"><g
         clip-path="url(#clipPath20)"
         id="g18"><g
           transform="translate(57.457,244.1777)"
           id="g24"><path
             id="path26"
             style="fill:none;stroke:#100f0d;stroke-width:0.61000001;stroke-linecap:butt;stroke-linejoin:miter;stroke-miterlimit:10;stroke-dasharray:none;stroke-opacity:1"
             d="M 0,0 164.066,-47.441 110.035,-243.801 -56.008,-198.332 0,0 Z" /></g></g></g><g
       transform="translate(64.8442,228.7324)"
       id="g28"><path
         id="path30"
         style="fill:#f5f5f5;fill-opacity:1;fill-rule:nonzero;stroke:none"
         d="M 0,0 -40.489,-142.278 99.195,-183.539 141.894,-40.949 0,0 Z" /></g><g
       transform="translate(64.8442,228.7324)"
       id="g32"><path
         id="path34"
         style="fill:none;stroke:#000000;stroke-width:0.639;stroke-linecap:butt;stroke-linejoin:miter;stroke-miterlimit:4;stroke-dasharray:none;stroke-opacity:1"
         d="M 0,0 -40.489,-142.278 99.195,-183.539 141.894,-40.949 0,0 Z" /></g><g
       id="g36"><g
         clip-path="url(#clipPath40)"
         id="g38"><g
           transform="translate(0.3789,200.7554)"
           id="g44"><path
             id="path46"
             style="fill:none;stroke:#100f0d;stroke-width:0.61000001;stroke-linecap:butt;stroke-linejoin:miter;stroke-miterlimit:10;stroke-dasharray:none;stroke-opacity:1"
             d="M 0,0 163.723,48.629 224.234,-145.82 59.918,-197.183 0,0 Z" /></g></g></g><g
       transform="translate(0.3789,200.7558)"
       id="g48"><path
         id="path50"
         style="fill:#f5f5f5;fill-opacity:1;fill-rule:nonzero;stroke:none"
         d="M 0,0 59.918,-197.184 224.234,-145.821 163.723,48.629 0,0 Z" /></g><g
       transform="translate(15.8398,190.2441)"
       id="g52"><path
         id="path54"
         style="fill:#e8e7e5;fill-opacity:1;fill-rule:nonzero;stroke:none"
         d="M 0,0 139.629,42.929 183.102,-97.27 44.558,-141.066 0,0 Z" /></g><g
       transform="translate(15.8398,190.2441)"
       id="g56"><path
         id="path58"
         style="fill:none;stroke:#100f0d;stroke-width:0.49700001;stroke-linecap:butt;stroke-linejoin:miter;stroke-miterlimit:10;stroke-dasharray:none;stroke-opacity:1"
         d="M 0,0 139.629,42.929 183.102,-97.27 44.558,-141.066 0,0 Z" /></g><g
       id="g60"><g
         clip-path="url(#clipPath64)"
         id="g62"><g
           transform="translate(124.5029,79.0596)"
           id="g68"><path
             id="path70"
             style="fill:#cccbcb;fill-opacity:1;fill-rule:nonzero;stroke:none"
             d="m 0,0 c 0.94,-1.368 2.282,-1.629 3.74,-1.597 1.602,0.035 3.222,-0.033 4.779,0.344 2.398,0.582 4.486,1.797 6.444,3.288 0.776,0.592 0.818,-1.374 1.213,-0.555 0.212,0.439 -0.978,-1.985 0,0 0.004,0.007 2.034,0 2.031,-0.008 C 17.266,-1.458 14.29,-0.846 11.75,-2.217 9.623,-3.364 7.327,-3.943 4.914,-4.069 3.654,-4.135 2.401,-3.927 1.213,-3.381 0.087,-2.864 -0.271,-2.147 -0.075,-0.894 -0.029,-0.6 -0.023,-0.298 0,0" /></g><g
           transform="translate(129.3945,107.0615)"
           id="g72"><path
             id="path74"
             style="fill:#c0272d;fill-opacity:1;fill-rule:nonzero;stroke:none"
             d="m 0,0 c 2.417,0.875 4.883,1.516 7.474,1.567 1.266,0.026 2.019,-0.491 2.627,-1.696 1.378,-2.735 1.377,-5.769 2.148,-8.629 0.939,-3.473 1.677,-7.002 2.663,-10.461 0.439,-1.537 -0.029,-2.515 -1.131,-3.466 -0.85,-0.733 -1.938,-1.166 -2.621,-2.102 -2.44,-1.07 -4.882,-2.141 -7.322,-3.211 -1.3,-0.186 -2.599,-0.382 -3.9,-0.554 -1.195,-0.158 -2.021,0.25 -2.718,1.333 -2.725,4.225 -5.4,8.497 -8.421,12.504 -1.037,1.375 -1.877,2.759 -2.653,4.257 -0.596,1.151 -0.27,1.984 0.48,2.827 1.408,1.581 3.135,2.77 4.948,3.798 1.855,1.053 3.705,2.137 5.732,2.855 0.47,-1.369 0.413,-2.778 0.312,-4.19 C -4.243,-6.821 -6.777,-7.425 -8.721,-9.135 -6.323,-9.382 2.542,-5.601 5.37,-3.127 4.479,-2.896 3.842,-3.375 3.151,-3.488 2.117,-3.659 1.077,-4.663 0.013,-3.555 0.008,-2.37 0.004,-1.185 0,0" /></g><g
           transform="translate(129.3945,107.0615)"
           id="g76"><path
             id="path78"
             style="fill:none;stroke:#000000;stroke-width:0.28600001;stroke-linecap:butt;stroke-linejoin:miter;stroke-miterlimit:10;stroke-dasharray:none;stroke-opacity:1"
             d="m 0,0 c 2.417,0.875 4.883,1.516 7.474,1.567 1.266,0.026 2.019,-0.491 2.627,-1.696 1.378,-2.735 1.377,-5.769 2.148,-8.629 0.939,-3.473 1.677,-7.002 2.663,-10.461 0.439,-1.537 -0.029,-2.515 -1.131,-3.466 -0.85,-0.733 -1.938,-1.166 -2.621,-2.102 -2.44,-1.07 -4.882,-2.141 -7.322,-3.211 -1.3,-0.186 -2.599,-0.382 -3.9,-0.554 -1.195,-0.158 -2.021,0.25 -2.718,1.333 -2.725,4.225 -5.4,8.497 -8.421,12.504 -1.037,1.375 -1.877,2.759 -2.653,4.257 -0.596,1.151 -0.27,1.984 0.48,2.827 1.408,1.581 3.135,2.77 4.948,3.798 1.855,1.053 3.705,2.137 5.732,2.855 0.47,-1.369 0.413,-2.778 0.312,-4.19 C -4.243,-6.821 -6.777,-7.425 -8.721,-9.135 -6.323,-9.382 2.542,-5.601 5.37,-3.127 4.479,-2.896 3.842,-3.375 3.151,-3.488 2.117,-3.659 1.077,-4.663 0.013,-3.555 0.008,-2.37 0.004,-1.185 0,0 Z" /></g><g
           transform="translate(128.6826,103.7842)"
           id="g80"><path
             id="path82"
             style="fill:#252525;fill-opacity:1;fill-rule:nonzero;stroke:none"
             d="M 0,0 C 1.735,0.486 3.468,0.983 5.208,1.452 5.663,1.574 6.141,1.624 6.612,1.675 6.895,1.705 7.212,1.694 7.367,1.401 7.567,1.025 7.309,0.738 7.053,0.545 6.296,-0.026 5.542,-0.614 4.726,-1.091 0.52,-3.551 -3.918,-5.478 -8.634,-6.725 c -0.698,-0.183 -1.765,-0.661 -2.103,0.074 -0.409,0.889 0.735,1.278 1.356,1.703 1.77,1.207 3.637,2.251 5.623,3.066 0.435,0.178 0.861,0.427 1.364,0.269 0.046,-0.425 -0.313,-1.194 0.351,-1.155 0.811,0.047 1.693,0.43 1.989,1.352 C 0.085,-0.983 -0.011,-0.475 0,0" /></g><g
           transform="translate(113.8389,116.6709)"
           id="g84"><path
             id="path86"
             style="fill:#231f20;fill-opacity:1;fill-rule:nonzero;stroke:none"
             d="m 0,0 c 7.763,1.339 15.156,-6.281 11.347,-13.855 -0.738,-1.466 1.466,-2.762 2.207,-1.291 C 18.406,-5.497 9.343,4.193 -0.68,2.465 -2.297,2.187 -1.611,-0.277 0,0" /></g><g
           transform="translate(113.7539,116.9795)"
           id="g88"><path
             id="path90"
             style="fill:#ffffff;fill-opacity:1;fill-rule:nonzero;stroke:none"
             d="m 0,0 c 8.037,1.386 15.651,-6.483 11.707,-14.325 -0.553,-1.1 1.101,-2.071 1.655,-0.968 C 18.083,-5.909 9.237,3.529 -0.51,1.849 -1.724,1.64 -1.209,-0.208 0,0" /></g><g
           transform="translate(141.1133,128.3247)"
           id="g92"><path
             id="path94"
             style="fill:#ffffff;fill-opacity:1;fill-rule:nonzero;stroke:none"
             d="m 0,0 c 0.079,-0.503 -0.297,-0.779 -0.572,-1.088 -2.541,-2.844 -4.292,-6.102 -5.368,-9.767 -1.169,-3.981 -4.55,-6.196 -8.795,-5.911 -0.444,0.03 -0.852,-0.008 -1.22,-0.271 -0.069,0.117 -0.138,0.234 -0.207,0.351 -0.213,0.476 -0.34,1.018 -0.652,1.414 -1.135,1.436 -1.037,3.044 -0.497,4.571 1.248,3.534 3.044,6.713 6.484,8.628 2.684,1.494 5.606,2.137 8.636,2.185 C -1.487,0.123 -0.694,0.546 0,0" /></g><g
           transform="translate(141.1133,128.3247)"
           id="g96"><path
             id="path98"
             style="fill:none;stroke:#231f20;stroke-width:0.49000001;stroke-linecap:butt;stroke-linejoin:miter;stroke-miterlimit:10;stroke-dasharray:none;stroke-opacity:1"
             d="m 0,0 c 0.079,-0.503 -0.297,-0.779 -0.572,-1.088 -2.541,-2.844 -4.292,-6.102 -5.368,-9.767 -1.169,-3.981 -4.55,-6.196 -8.795,-5.911 -0.444,0.03 -0.852,-0.008 -1.22,-0.271 -0.069,0.117 -0.138,0.234 -0.207,0.351 -0.213,0.476 -0.34,1.018 -0.652,1.414 -1.135,1.436 -1.037,3.044 -0.497,4.571 1.248,3.534 3.044,6.713 6.484,8.628 2.684,1.494 5.606,2.137 8.636,2.185 C -1.487,0.123 -0.694,0.546 0,0 Z" /></g><g
           transform="translate(81.125,172.5308)"
           id="g100"><path
             id="path102"
             style="fill:#ffffff;fill-opacity:1;fill-rule:nonzero;stroke:none"
             d="m 0,0 c 0,0 -13.442,-39.745 28.215,-55.442 8.084,-3.046 21.729,11.14 11.511,39.421 C 34.511,-1.587 24.932,5.66 16.02,7.954 2.406,11.459 0,0 0,0" /></g><g
           transform="translate(81.125,172.5308)"
           id="g104"><path
             id="path106"
             style="fill:none;stroke:#231f20;stroke-width:0.43000001;stroke-linecap:butt;stroke-linejoin:miter;stroke-miterlimit:10;stroke-dasharray:none;stroke-opacity:1"
             d="m 0,0 c 0,0 -13.442,-39.745 28.215,-55.442 8.084,-3.046 21.729,11.14 11.511,39.421 C 34.511,-1.587 24.932,5.66 16.02,7.954 2.406,11.459 0,0 0,0 Z" /></g><g
           transform="translate(96.8569,160.1626)"
           id="g108"><path
             id="path110"
             style="fill:#1a9948;fill-opacity:1;fill-rule:nonzero;stroke:none"
             d="m 0,0 c 1.005,-2.293 0.364,-4.79 -1.434,-5.578 -1.796,-0.788 -4.068,0.432 -5.073,2.724 -1.006,2.293 -0.364,4.79 1.433,5.578 C -3.277,3.512 -1.006,2.292 0,0" /></g><g
           transform="translate(110.1167,166.9937)"
           id="g112"><path
             id="path114"
             style="fill:#1a9948;fill-opacity:1;fill-rule:nonzero;stroke:none"
             d="m 0,0 c 1,-2.278 0.479,-4.709 -1.164,-5.43 -1.642,-0.719 -3.783,0.544 -4.782,2.823 -0.999,2.278 -0.478,4.709 1.164,5.429 C -3.14,3.542 -0.999,2.279 0,0" /></g><g
           transform="translate(92.1353,158.0918)"
           id="g116"><path
             id="path118"
             style="fill:#14170f;fill-opacity:1;fill-rule:nonzero;stroke:none"
             d="M 0,0 C -0.544,1.241 -0.215,2.585 0.736,3.002 1.687,3.419 2.898,2.751 3.442,1.51 3.987,0.269 3.657,-1.076 2.707,-1.492 1.756,-1.909 0.544,-1.241 0,0" /></g><g
           transform="translate(105.5859,164.9907)"
           id="g120"><path
             id="path122"
             style="fill:#14170f;fill-opacity:1;fill-rule:nonzero;stroke:none"
             d="M 0,0 C -0.549,1.252 -0.209,2.611 0.758,3.035 1.726,3.459 2.955,2.789 3.504,1.537 4.053,0.285 3.714,-1.074 2.747,-1.499 1.779,-1.923 0.549,-1.252 0,0" /></g><g
           transform="translate(90.5269,159.4082)"
           id="g124"><path
             id="path126"
             style="fill:#ffffff;fill-opacity:1;fill-rule:nonzero;stroke:none"
             d="M 0,0 C -0.081,0.78 0.349,1.464 0.96,1.527 1.572,1.59 2.133,1.009 2.214,0.229 2.295,-0.551 1.865,-1.234 1.253,-1.298 0.642,-1.361 0.081,-0.78 0,0" /></g><g
           transform="translate(106.0205,167.0757)"
           id="g128"><path
             id="path130"
             style="fill:#ffffff;fill-opacity:1;fill-rule:nonzero;stroke:none"
             d="m 0,0 c -0.006,-0.678 -0.377,-1.225 -0.83,-1.221 -0.452,0.004 -0.815,0.557 -0.809,1.235 0.006,0.678 0.378,1.224 0.83,1.22 C -0.356,1.23 0.006,0.678 0,0" /></g><g
           transform="translate(105.4951,164.645)"
           id="g132"><path
             id="path134"
             style="fill:#ffffff;fill-opacity:1;fill-rule:nonzero;stroke:none"
             d="m 0,0 c -0.126,-0.191 -0.36,-0.259 -0.521,-0.153 -0.163,0.107 -0.192,0.349 -0.066,0.54 0.127,0.191 0.36,0.259 0.522,0.153 C 0.097,0.433 0.126,0.191 0,0" /></g><g
           transform="translate(101.7954,138.7607)"
           id="g136"><path
             id="path138"
             style="fill:#0f0708;fill-opacity:1;fill-rule:nonzero;stroke:none"
             d="m 0,0 c 0.127,-0.867 -1.091,-2.07 -2.037,-2.209 -0.946,-0.139 -1.26,0.837 -1.388,1.705 -0.127,0.866 0.536,1.682 1.481,1.821 C -0.998,1.457 -0.128,0.867 0,0" /></g><g
           transform="translate(98.5781,141.0103)"
           id="g140"><path
             id="path142"
             style="fill:#0f0708;fill-opacity:1;fill-rule:nonzero;stroke:none"
             d="m 0,0 c 0.12,-0.81 -0.5,-1.572 -1.384,-1.702 -0.884,-0.13 -1.697,0.421 -1.816,1.231 -0.119,0.81 0.5,1.572 1.384,1.702 C -0.932,1.361 -0.119,0.81 0,0" /></g><g
           transform="translate(105.7578,137.4863)"
           id="g144"><path
             id="path146"
             style="fill:#0f0708;fill-opacity:1;fill-rule:nonzero;stroke:none"
             d="m 0,0 c 0.148,-1.007 -0.474,-1.933 -1.389,-2.067 -0.915,-0.135 -1.778,0.572 -1.926,1.579 -0.148,1.007 0.474,1.932 1.389,2.067 C -1.011,1.714 -0.148,1.007 0,0" /></g><g
           transform="translate(115.0322,139.9814)"
           id="g148"><path
             id="path150"
             style="fill:#0f0708;fill-opacity:1;fill-rule:nonzero;stroke:none"
             d="m 0,0 c 0.108,-0.734 -0.345,-1.41 -1.013,-1.508 -0.668,-0.098 -1.297,0.418 -1.405,1.152 -0.108,0.735 0.346,1.41 1.014,1.508 C -0.736,1.25 -0.107,0.735 0,0" /></g><g
           transform="translate(116.4805,141.5601)"
           id="g152"><path
             id="path154"
             style="fill:#0f0708;fill-opacity:1;fill-rule:nonzero;stroke:none"
             d="M 0,0 C 0.069,-0.475 -0.224,-0.911 -0.655,-0.974 -1.087,-1.038 -1.493,-0.705 -1.562,-0.23 -1.633,0.245 -1.34,0.681 -0.908,0.744 -0.477,0.808 -0.07,0.475 0,0" /></g><g
           transform="translate(112.124,139.4658)"
           id="g156"><path
             id="path158"
             style="fill:#0f0708;fill-opacity:1;fill-rule:nonzero;stroke:none"
             d="m 0,0 c 0.117,-0.792 -0.373,-1.521 -1.093,-1.626 -0.72,-0.107 -1.399,0.45 -1.515,1.242 -0.117,0.792 0.373,1.521 1.093,1.627 C -0.795,1.349 -0.116,0.792 0,0" /></g><g
           transform="translate(109.0347,139.0151)"
           id="g160"><path
             id="path162"
             style="fill:#0f0708;fill-opacity:1;fill-rule:nonzero;stroke:none"
             d="m 0,0 c 0.379,-0.694 0.176,-1.537 -0.455,-1.882 -0.631,-0.345 -1.45,-0.062 -1.83,0.632 -0.38,0.694 -0.176,1.536 0.455,1.881 C -1.199,0.977 -0.38,0.694 0,0" /></g><g
           transform="translate(96.1421,143.521)"
           id="g164"><path
             id="path166"
             style="fill:#0f0708;fill-opacity:1;fill-rule:nonzero;stroke:none"
             d="m 0,0 c 0.088,-0.603 -0.284,-1.156 -0.831,-1.237 -0.548,-0.08 -1.064,0.342 -1.152,0.945 C -2.072,0.311 -1.7,0.864 -1.152,0.945 -0.605,1.025 -0.089,0.603 0,0" /></g><g
           transform="translate(127.7832,147.5918)"
           id="g168"><path
             id="path170"
             style="fill:#f9a84b;fill-opacity:1;fill-rule:nonzero;stroke:none"
             d="m 0,0 c -1.686,0.004 -3.161,0.276 -4.653,0.169 -2.732,-0.195 -5.469,-0.315 -8.199,-0.529 -2.701,-0.211 -5.395,-0.512 -8.094,-0.751 -2.603,-0.232 -3.904,1.639 -2.804,4.021 0.904,1.959 2.455,2.912 4.603,2.874 C -13.245,5.68 -7.594,4.523 -2.341,1.723 -1.546,1.299 -0.796,0.808 0,0" /></g><g
           transform="translate(127.7832,147.5918)"
           id="g172"><path
             id="path174"
             style="fill:none;stroke:#231f20;stroke-width:0.43000001;stroke-linecap:butt;stroke-linejoin:miter;stroke-miterlimit:10;stroke-dasharray:none;stroke-opacity:1"
             d="m 0,0 c -1.686,0.004 -3.161,0.276 -4.653,0.169 -2.732,-0.195 -5.469,-0.315 -8.199,-0.529 -2.701,-0.211 -5.395,-0.512 -8.094,-0.751 -2.603,-0.232 -3.904,1.639 -2.804,4.021 0.904,1.959 2.455,2.912 4.603,2.874 C -13.245,5.68 -7.594,4.523 -2.341,1.723 -1.546,1.299 -0.796,0.808 0,0 Z" /></g><g
           transform="translate(122.9229,169.3174)"
           id="g176"><path
             id="path178"
             style="fill:#775245;fill-opacity:1;fill-rule:nonzero;stroke:none"
             d="m 0,0 c 0.707,-1.589 1.381,-3.081 2.033,-4.583 0.321,-0.736 0.597,-1.894 1.276,-1.888 0.734,0.008 0.879,1.217 1.206,1.931 1.894,4.158 3.586,8.409 5.78,12.426 0.173,0.317 0.307,0.671 0.801,1.022 C 10.795,7.559 10.269,6.478 9.801,5.393 9.186,3.968 8.48,2.579 7.748,1.209 7.47,0.687 7.698,0.649 8.096,0.58 c 1.199,-0.209 2.361,-0.559 3.506,-0.965 0.279,-0.099 0.598,-0.137 0.863,-0.444 -0.347,-0.243 -0.66,-0.218 -0.994,-0.141 -0.515,0.118 -1.033,0.227 -1.552,0.324 -1.867,0.348 -2.128,0.172 -3.106,-1.508 -2.626,-4.52 -4.783,-9.283 -7.242,-13.888 -0.114,-0.214 -0.136,-0.572 -0.399,-0.592 -0.375,-0.029 -0.276,0.417 -0.442,0.621 -0.555,0.686 -0.393,1.342 0.041,2.045 1.027,1.662 1.958,3.385 3.018,5.024 0.793,1.227 0.646,2.375 0.102,3.617 C 1.244,-3.849 0.675,-2.336 0.07,-0.84 -0.022,-0.61 -0.125,-0.384 0,0" /></g><g
           transform="translate(61.856,144.3442)"
           id="g180"><path
             id="path182"
             style="fill:#775245;fill-opacity:1;fill-rule:nonzero;stroke:none"
             d="m 0,0 c 0.635,0.112 1.146,-0.266 1.66,-0.499 3.967,-1.797 7.75,-3.956 11.614,-5.955 0.469,-0.242 0.951,-0.458 1.435,-0.665 0.603,-0.257 0.81,0.002 0.72,0.595 -0.192,1.261 -0.542,2.484 -0.901,3.707 -0.251,0.856 -0.424,1.734 -0.559,2.624 0.591,-0.815 0.668,-1.809 0.982,-2.717 0.314,-0.907 0.629,-1.827 0.799,-2.768 0.337,-1.878 1.855,-2.322 3.3,-2.876 1.362,-0.522 2.74,-1.005 4.099,-1.532 1.417,-0.549 1.554,-0.784 1.549,-2.468 -1.08,0.272 -2.003,0.863 -2.98,1.306 -4.13,1.873 -8.182,3.92 -12.432,5.523 C 8.138,-5.292 7.522,-5.397 6.73,-6.331 6.167,-6.993 5.657,-7.701 4.989,-8.27 4.896,-8.35 4.827,-8.46 4.532,-8.391 5.018,-7.306 5.675,-6.361 6.384,-5.464 7.438,-4.13 7.457,-4.16 5.902,-3.396 3.868,-2.395 1.795,-1.461 -0.033,-0.09 -0.021,-0.06 -0.011,-0.03 0,0" /></g><g
           transform="translate(118.8525,118.6553)"
           id="g184"><path
             id="path186"
             style="fill:#68ad9f;fill-opacity:1;fill-rule:nonzero;stroke:none"
             d="M 0,0 C 0.611,0.225 1.393,-0.138 1.614,-0.747 1.84,-1.366 1.503,-2.144 0.905,-2.384 0.277,-2.636 -0.542,-2.257 -0.764,-1.609 -0.978,-0.983 -0.619,-0.228 0,0" /></g><g
           transform="translate(123.3369,116.6211)"
           id="g188"><path
             id="path190"
             style="fill:#68ad9f;fill-opacity:1;fill-rule:nonzero;stroke:none"
             d="m 0,0 c 0.229,-0.603 -0.119,-1.398 -0.716,-1.636 -0.623,-0.247 -1.45,0.141 -1.671,0.784 -0.21,0.609 0.169,1.402 0.77,1.614 C -1.009,0.977 -0.231,0.61 0,0" /></g><g
           transform="translate(70.8833,175.8076)"
           id="g192"><path
             id="path194"
             style="fill:#79a13f;fill-opacity:1;fill-rule:nonzero;stroke:none"
             d="m 0,0 c 0.179,-4.117 2.722,-8.083 4.579,-11.761 0.591,-1.172 1.466,-2.439 2.776,-2.533 1.561,-0.112 2.639,1.46 3.487,2.775 5.41,8.399 15.292,13.722 25.282,13.619 0.658,2.549 -1.529,4.85 -3.397,6.705 -1.868,1.855 -3.71,4.648 -2.368,6.912 C 26.656,14.146 22.589,13.706 18.602,13.17 14.614,12.635 10.544,11.955 7.04,9.979 3.536,8.001 0.658,4.461 0.541,0.439" /></g><g
           transform="translate(70.6035,175.8076)"
           id="g196"><path
             id="path198"
             style="fill:#231f20;fill-opacity:1;fill-rule:nonzero;stroke:none"
             d="m 0,0 c 0.47,-4.197 2.385,-8.336 4.617,-11.902 1.245,-1.989 2.377,-3.264 4.707,-2.107 1.12,0.556 1.778,2.018 2.462,2.967 1.908,2.646 4.047,4.916 6.665,6.861 5.259,3.911 11.42,5.892 17.953,6.001 0.161,0.002 0.267,0.126 0.28,0.28 0.457,5.367 -7.714,8.151 -5.775,13.543 0.07,0.192 -0.15,0.418 -0.345,0.344 C 20.842,12.313 2.035,14.721 0.541,0.439 c -0.038,-0.357 0.523,-0.355 0.56,0 1.279,12.223 15.712,11.543 24.686,13.514 1.069,0.235 3.238,1.369 4.151,0.595 -0.637,0.54 0.71,-3.29 0.439,-2.582 C 31.37,9.371 38.06,5.181 34.907,2.355 34.439,1.936 31.242,1.975 30.383,1.799 28.918,1.5 27.473,1.091 26.067,0.585 c -2.862,-1.03 -5.57,-2.499 -8.006,-4.318 -2.499,-1.867 -4.088,-4.381 -6.336,-6.408 -1.153,-2.396 -3.36,-2.888 -6.624,-1.478 -0.484,0.941 -0.975,1.878 -1.474,2.81 C 2.159,-5.896 0.927,-3.274 0.56,0 0.521,0.354 -0.041,0.358 0,0" /></g><g
           transform="translate(76.3145,179.9731)"
           id="g200"><path
             id="path202"
             style="fill:#e35143;fill-opacity:1;fill-rule:nonzero;stroke:none"
             d="m 0,0 c -0.564,4.014 -0.104,8.286 1.986,11.759 2.09,3.473 5.984,5.988 10.032,5.774 4.048,-0.214 7.89,-3.575 8.033,-7.625 C 20.084,8.975 19.906,7.976 19.269,7.294 18.74,6.727 17.973,6.458 17.238,6.208 11.704,4.33 6.169,2.452 0.634,0.574" /></g><g
           transform="translate(76.5947,179.9731)"
           id="g204"><path
             id="path206"
             style="fill:#231f20;fill-opacity:1;fill-rule:nonzero;stroke:none"
             d="m 0,0 c -0.522,4.71 -0.028,9.865 3.361,13.516 3.141,3.382 8.232,5.06 12.402,2.412 C 19.21,13.737 21.2,9.358 16.884,6.478 15.692,5.684 13.689,5.394 12.355,4.941 8.33,3.576 4.305,2.21 0.279,0.844 -0.06,0.729 0.085,0.187 0.429,0.304 4.454,1.669 8.479,3.036 12.504,4.401 14.44,5.058 17.822,5.468 19.231,7.152 21.6,9.984 18.915,14.351 16.494,16.087 12.888,18.676 8.245,18.128 4.776,15.552 -0.111,11.921 -1.194,5.71 -0.561,0 -0.521,-0.354 0.04,-0.358 0,0" /></g><g
           transform="translate(79.1079,197.0796)"
           id="g208"><path
             id="path210"
             style="fill:#e35143;fill-opacity:1;fill-rule:nonzero;stroke:none"
             d="M 0,0 C 1.204,-0.309 2.408,-0.617 3.612,-0.925 4.164,-1.067 4.875,-0.747 4.991,-0.143 5.378,1.872 4.955,3.424 3.533,4.907 2.781,5.692 1.294,4.89 1.66,3.817 2.097,2.536 2.696,1.762 3.908,1.136 4.471,0.845 5.09,1.012 5.442,1.538 6.024,2.411 6.607,3.283 7.19,4.156 7.666,4.868 7.037,5.854 6.222,5.842 4.284,5.814 2.938,3.805 4.009,2.025 6.224,-1.657 10.691,2.825 13.358,2.468 13.169,3.164 12.98,3.86 12.792,4.557 7.987,1.811 2.898,0.008 -2.555,-0.915 c -1.42,-0.241 -0.818,-2.401 0.596,-2.162 5.634,0.954 10.923,2.864 15.882,5.698 1.062,0.607 0.454,1.952 -0.565,2.088 C 12.353,4.844 11.916,4.858 10.919,4.546 8.685,3.846 9.125,3.643 6.222,3.601 5.899,4.163 5.577,4.725 5.254,5.287 4.672,4.415 4.089,3.542 3.506,2.669 4.018,2.803 4.528,2.938 5.04,3.071 4.634,3.519 4.228,3.966 3.821,4.413 3.197,4.049 2.573,3.686 1.948,3.322 2.242,2.366 2.536,1.41 2.83,0.453 3.289,0.714 3.749,0.975 4.208,1.236 L 0.596,2.162 C -0.802,2.52 -1.399,0.358 0,0" /></g><g
           transform="translate(71.7144,176.6108)"
           id="g212"><path
             id="path214"
             style="fill:#e35143;fill-opacity:1;fill-rule:nonzero;stroke:none"
             d="m 0,0 c 2.428,-4.415 4.295,-9.028 5.629,-13.886 0.381,-1.39 2.545,-0.8 2.162,0.595 C 6.406,-8.25 4.454,-3.449 1.936,1.131 1.241,2.396 -0.696,1.266 0,0" /></g><g
           transform="translate(75.4175,178.6128)"
           id="g216"><path
             id="path218"
             style="fill:#e35143;fill-opacity:1;fill-rule:nonzero;stroke:none"
             d="m 0,0 c 3.553,-3.185 5.299,-7.545 4.946,-12.299 -0.106,-1.439 2.136,-1.432 2.242,0 C 7.581,-7.01 5.533,-1.954 1.585,1.585 0.514,2.545 -1.077,0.965 0,0" /></g><g
           transform="translate(80.231,181.8354)"
           id="g220"><path
             id="path222"
             style="fill:#e35143;fill-opacity:1;fill-rule:nonzero;stroke:none"
             d="m 0,0 c 1.007,-4.052 2.015,-8.104 3.023,-12.156 0.348,-1.4 2.51,-0.807 2.162,0.595 C 4.177,-7.508 3.169,-3.457 2.161,0.596 1.813,1.995 -0.349,1.402 0,0" /></g><g
           transform="translate(84.6162,182.5117)"
           id="g224"><path
             id="path226"
             style="fill:#e35143;fill-opacity:1;fill-rule:nonzero;stroke:none"
             d="m 0,0 c 1.16,-3.416 1.929,-6.899 2.268,-10.493 0.133,-1.424 2.377,-1.438 2.241,0 C 4.152,-6.698 3.388,-3.015 2.162,0.596 1.7,1.954 -0.466,1.371 0,0" /></g><g
           transform="translate(87.7925,183.2847)"
           id="g228"><path
             id="path230"
             style="fill:#e35143;fill-opacity:1;fill-rule:nonzero;stroke:none"
             d="M 0,0 C 1.407,-2.806 2.349,-5.742 2.884,-8.833 3.13,-10.252 5.29,-9.65 5.045,-8.237 4.478,-4.956 3.427,-1.843 1.936,1.131 1.289,2.421 -0.646,1.287 0,0" /></g><g
           transform="translate(91.665,184.8184)"
           id="g232"><path
             id="path234"
             style="fill:#e35143;fill-opacity:1;fill-rule:nonzero;stroke:none"
             d="M 0,0 C 0.484,-2.901 0.968,-5.803 1.453,-8.705 1.689,-10.125 3.85,-9.522 3.614,-8.109 3.13,-5.207 2.646,-2.306 2.162,0.596 1.925,2.016 -0.236,1.414 0,0" /></g><g
           transform="translate(94.4336,186.0439)"
           id="g236"><path
             id="path238"
             style="fill:#e35143;fill-opacity:1;fill-rule:nonzero;stroke:none"
             d="M 0,0 C 0.475,-0.599 4.926,-6.91 3.518,-7.362 2.15,-7.802 2.735,-9.967 4.114,-9.524 9.1,-7.921 3.276,-0.55 1.585,1.585 0.69,2.715 -0.887,1.12 0,0" /></g><g
           transform="translate(98.2808,188.4883)"
           id="g240"><path
             id="path242"
             style="fill:#e35143;fill-opacity:1;fill-rule:nonzero;stroke:none"
             d="m 0,0 c 2.149,-3.241 3.647,-6.717 4.523,-10.506 0.325,-1.405 2.486,-0.81 2.162,0.596 C 5.77,-5.953 4.18,-2.254 1.936,1.131 1.142,2.328 -0.8,1.207 0,0" /></g><g
           transform="translate(115.4912,122.4688)"
           id="g244"><path
             id="path246"
             style="fill:#e35143;fill-opacity:1;fill-rule:nonzero;stroke:none"
             d="m 0,0 c -0.656,-1.792 -0.854,-3.533 -0.857,-5.291 -0.001,-0.752 -0.475,-0.592 -0.86,-0.57 -6.802,0.373 -12.856,2.638 -17.955,7.307 -0.903,0.826 -1.807,1.651 -2.437,2.723 -0.297,0.504 11.472,-5.008 17.792,-4.826 C -2.895,-0.615 -1.515,-0.287 0,0" /></g><g
           transform="translate(109.9951,122.0752)"
           id="g248"><path
             id="path250"
             style="fill:#e35143;fill-opacity:1;fill-rule:nonzero;stroke:none"
             d="m 0,0 c 7.347,2.913 12.084,8.006 14.401,15.418 0.579,-0.694 0.605,-1.45 0.573,-2.114 C 14.621,6.019 11.758,-0.008 5.51,-4.314 4.689,-4.88 4.144,-4.85 3.497,-4.02 2.432,-2.649 1.221,-1.389 0,0" /></g><g
           transform="translate(112.791,113.1084)"
           id="g252"><path
             id="path254"
             style="fill:#e35143;fill-opacity:1;fill-rule:nonzero;stroke:none"
             d="M 0,0 C -0.527,2.552 -0.571,5.116 -0.176,7.689 -0.138,7.933 -0.049,8.17 0.035,8.402 0.443,9.523 0.886,9.644 1.711,8.78 3.095,7.332 4.705,6.078 5.638,4.237 6.383,2.769 6.736,1.212 6.716,-0.433 6.71,-0.883 6.649,-1.323 6.462,-1.738 6.101,-2.54 5.301,-2.881 4.64,-2.329 3.573,-1.44 2.523,-1.363 1.344,-1.974 1.001,-2.151 0.789,-2.088 0.606,-1.686 0.357,-1.137 0.2,-0.566 0,0" /></g><g
           transform="translate(112.791,113.1084)"
           id="g256"><path
             id="path258"
             style="fill:none;stroke:#ffffff;stroke-width:0.12800001;stroke-linecap:butt;stroke-linejoin:miter;stroke-miterlimit:10;stroke-dasharray:none;stroke-opacity:1"
             d="M 0,0 C -0.527,2.552 -0.571,5.116 -0.176,7.689 -0.138,7.933 -0.049,8.17 0.035,8.402 0.443,9.523 0.886,9.644 1.711,8.78 3.095,7.332 4.705,6.078 5.638,4.237 6.383,2.769 6.736,1.212 6.716,-0.433 6.71,-0.883 6.649,-1.323 6.462,-1.738 6.101,-2.54 5.301,-2.881 4.64,-2.329 3.573,-1.44 2.523,-1.363 1.344,-1.974 1.001,-2.151 0.789,-2.088 0.606,-1.686 0.357,-1.137 0.2,-0.566 0,0 Z" /></g><g
           transform="translate(112.1406,114.0977)"
           id="g260"><path
             id="path262"
             style="fill:#e35143;fill-opacity:1;fill-rule:nonzero;stroke:none"
             d="m 0,0 c 0,0 0.656,-5.254 3.81,-2.723 1.219,-0.306 1.51,-1.48 1.51,-1.48 0,0 1.505,0.952 2.063,1.155 C 7.796,-5.054 6.854,-8.233 6.854,-8.233 L 0.917,-9.29 c -0.979,-0.175 -1.854,0.678 -1.743,1.699 L 0,0 Z" /></g><g
           transform="translate(112.1406,114.0977)"
           id="g264"><path
             id="path266"
             style="fill:none;stroke:#ffffff;stroke-width:0.123;stroke-linecap:butt;stroke-linejoin:miter;stroke-miterlimit:10;stroke-dasharray:none;stroke-opacity:1"
             d="m 0,0 c 0,0 0.656,-5.254 3.81,-2.723 1.219,-0.306 1.51,-1.48 1.51,-1.48 0,0 1.505,0.952 2.063,1.155 C 7.796,-5.054 6.854,-8.233 6.854,-8.233 L 0.917,-9.29 c -0.979,-0.175 -1.854,0.678 -1.743,1.699 L 0,0 Z" /></g></g></g><g
       id="text268"
       style="font-variant:normal;font-weight:normal;font-stretch:normal;font-size:20.00006866px;font-family:'Museo 500';-inkscape-font-specification:Museo-500;writing-mode:lr-tb;fill:#231f20;fill-opacity:1;fill-rule:nonzero;stroke:none"
       transform="matrix(0.9513867,0.30799893,0.30799893,-0.9513867,100.9218,34.7357)"><path
         id="path273"
         style=""
         d="m 0.68000233,-1.8600064 c 0,0 1.68000577,2.10000722 4.68001607,2.10000722 2.8000096,0 4.4800154,-1.86000642 4.4800154,-4.02001382 0,-4.6400159 -6.8000234,-4.0000137 -6.8000234,-6.860024 0,-1.060003 0.9600033,-1.900006 2.4800086,-1.900006 1.1200038,0 2.1800074,0.540002 2.1800074,1.280004 l 0,0.660003 1.8400064,0 0,-1.160004 c 0,-1.920007 -2.5200087,-2.600009 -4.0200138,-2.600009 -2.6600092,0 -4.5200156,1.660005 -4.5200156,3.780013 0,4.4000148 6.8200234,3.9400132 6.8200234,6.9000234 0,1.3000044 -1.1000037,2.1000072 -2.4200083,2.1000072 -2.1000072,0 -3.5400121,-1.7000059 -3.5400121,-1.7000059 l -1.18000407,1.4200049 z" /><path
         id="path275"
         style=""
         d="m 12.460043,0 1.940007,0 0,-4.7400163 c 0,-0.5000017 0.04,-0.9600033 0.180001,-1.3600046 0.400001,-1.4600051 1.640005,-2.4800086 3.200011,-2.4800086 1.620005,0 1.900006,1.1200039 1.900006,2.5400088 l 0,4.7600163 C 19.680068,-0.3800013 20.060069,0 20.960072,0 l 1.920007,0 0,-1.6600057 -0.820003,0 c -0.280001,0 -0.440001,-0.1400005 -0.440001,-0.4400015 l 0,-4.380015 c 0,-2.5800089 -1.080004,-3.8800138 -3.480012,-3.8800138 -2.200008,0 -3.400012,1.4400054 -3.800013,2.3200084 l -0.04,0 c 0,0 0.04,-0.2600009 0.04,-0.580002 l 0,-0.3800013 c 0,-0.7400025 -0.420002,-1.1200041 -1.280005,-1.1200041 l -1.860006,0 0,1.660006 0.820003,0 c 0.280001,0 0.440001,0.1400004 0.440001,0.4400015 l 0,8.0200275 z" /><path
         id="path277"
         style=""
         d="m 24.000083,-5.0800174 c 0,3.0800105 2.420009,5.32001822 5.440019,5.32001822 3.02001,0 5.460019,-2.24000772 5.460019,-5.32001822 0,-3.0600105 -2.440009,-5.2800186 -5.460019,-5.2800186 -3.02001,0 -5.440019,2.2200081 -5.440019,5.2800186 z m 1.980007,0 c 0,-2.1000073 1.560005,-3.6000124 3.460012,-3.6000124 1.920007,0 3.480012,1.5000051 3.480012,3.6000124 0,2.1200072 -1.560005,3.6400125 -3.480012,3.6400125 -1.900007,0 -3.460012,-1.5200053 -3.460012,-3.6400125 z" /><path
         id="path279"
         style=""
         d="m 39.180137,0 2.200008,0 2.080007,-6.5000223 c 0.16,-0.5200018 0.280001,-1.1000038 0.280001,-1.1000038 l 0.04,0 c 0,0 0.12,0.580002 0.280001,1.1000038 L 46.160161,0 l 2.180007,0 2.66001,-8.0600277 c 0.1,-0.3200011 0.300001,-0.4000013 0.620002,-0.4000013 l 0.280001,0 0,-1.660006 -1.200004,0 c -0.900004,0 -1.260005,0.220001 -1.520006,1.080004 l -1.780006,6.0200206 c -0.16,0.5200018 -0.240001,1.0800037 -0.240001,1.0800037 l -0.04,0 c 0,0 -0.1,-0.5600019 -0.260001,-1.0800037 l -2.200007,-7.0600246 -1.780006,0 -2.180008,7.0600246 c -0.16,0.5200018 -0.280001,1.0800037 -0.280001,1.0800037 l -0.04,0 c 0,0 -0.08,-0.5600019 -0.240001,-1.0800037 L 38.340134,-9.040031 c -0.260001,-0.860003 -0.600002,-1.080004 -1.500005,-1.080004 l -1.220004,0 0,1.660006 0.280001,0 c 0.320001,0 0.520001,0.08 0.620002,0.4000013 L 39.180137,0 Z" /><path
         id="path281"
         style=""
         d="m 52.640183,-1.5400053 c 0,0 1.340005,1.78000612 4.040014,1.78000612 2.120008,0 3.720013,-1.16000398 3.720013,-2.96001012 0,-3.3800116 -5.520019,-2.9600102 -5.520019,-4.8800168 0,-0.8000027 0.740003,-1.2000041 1.880007,-1.2000041 0.620002,0 1.520005,0.2600009 1.520005,0.8600029 l 0,0.5000018 1.740006,0 0,-0.9600033 c 0,-1.5400053 -2.100007,-1.9600072 -3.320012,-1.9600072 -2.060007,0 -3.760013,0.9000035 -3.760013,2.8400102 0,3.2600112 5.520019,3.0600105 5.520019,4.8800167 0,0.8800031 -0.820002,1.3000045 -1.760006,1.3000045 -1.860006,0 -3.06001,-1.5000052 -3.06001,-1.5000052 l -1.000004,1.3000045 z" /><path
         id="path283"
         style=""
         d="m 61.900216,-5.0600174 c 0,3.0000103 2.180008,5.30001822 5.380019,5.30001822 2.400008,0 3.900013,-1.48000512 3.900013,-1.48000512 L 70.340245,-2.620009 c 0,0 -1.220004,1.1800041 -2.96001,1.1800041 -1.800006,0 -3.360011,-1.2200042 -3.480012,-3.3800116 l 7.380026,0 c 0,0 0.06,-0.5400019 0.06,-0.8000028 0,-2.620009 -1.520005,-4.7400167 -4.360015,-4.7400167 -2.88001,0 -5.080018,2.0800076 -5.080018,5.3000186 z m 2.080008,-1.180004 c 0.300001,-1.6800058 1.500005,-2.5800089 2.98001,-2.5800089 1.260004,0 2.320008,0.9000031 2.380008,2.5800089 l -5.360018,0 z" /><path
         id="path285"
         style=""
         d="m 72.940255,-5.0600174 c 0,3.0000103 2.180008,5.30001822 5.380019,5.30001822 2.400008,0 3.900013,-1.48000512 3.900013,-1.48000512 L 81.380284,-2.620009 c 0,0 -1.220004,1.1800041 -2.96001,1.1800041 -1.800006,0 -3.360011,-1.2200042 -3.480012,-3.3800116 l 7.380026,0 c 0,0 0.06,-0.5400019 0.06,-0.8000028 0,-2.620009 -1.520005,-4.7400167 -4.360015,-4.7400167 -2.88001,0 -5.080018,2.0800076 -5.080018,5.3000186 z m 2.080008,-1.180004 c 0.300001,-1.6800058 1.500005,-2.5800089 2.98001,-2.5800089 1.260004,0 2.320008,0.9000031 2.380008,2.5800089 l -5.360018,0 z" /><path
         id="path287"
         style=""
         d="m 84.000295,-5.0600174 c 0,3.1400108 1.720005,5.30001822 4.460015,5.30001822 2.480008,0 3.320011,-1.84000632 3.320011,-1.84000632 l 0.04,0 c 0,0 -0.02,0.2200008 -0.02,0.5200018 C 91.800321,-0.40000137 92.160323,0 93.040326,0 l 1.860006,0 0,-1.6600057 -0.820003,0 c -0.280001,0 -0.440001,-0.1400005 -0.440001,-0.4400015 l 0,-10.7400368 c 0,-0.900003 -0.380002,-1.280004 -1.280005,-1.280004 l -1.920006,0 0,1.660005 0.820003,0 c 0.28,0 0.440001,0.140001 0.440001,0.440002 l 0,2.5400085 c 0,0.3800013 0.04,0.6800023 0.04,0.6800023 l -0.04,0 c 0,0 -0.780003,-1.5600058 -3.120011,-1.5600058 -2.680009,0 -4.580015,2.0800076 -4.580015,5.3000186 z m 4.840016,3.6200125 c -1.680006,0 -2.86001,-1.4200049 -2.86001,-3.6200125 0,-2.3000079 1.320005,-3.6200124 2.90001,-3.6200124 1.940007,0 2.88001,1.8000062 2.88001,3.6000124 0,2.5800088 -1.420005,3.6400125 -2.92001,3.6400125 z" /></g></g></svg>