<?xml version="1.0" encoding="UTF-8" standalone="no"?>
<svg
   xmlns:dc="http://purl.org/dc/elements/1.1/"
   xmlns:cc="http://creativecommons.org/ns#"
   xmlns:rdf="http://www.w3.org/1999/02/22-rdf-syntax-ns#"
   xmlns:svg="http://www.w3.org/2000/svg"
   xmlns="http://www.w3.org/2000/svg"
   viewBox="0 0 281.25 312.20499"
   height="312.20499"
   width="281.25"
   xml:space="preserve"
   version="1.1"
   id="svg2"><metadata
     id="metadata8"><rdf:RDF><cc:Work
         rdf:about=""><dc:format>image/svg+xml</dc:format><dc:type
           rdf:resource="http://purl.org/dc/dcmitype/StillImage" /></cc:Work></rdf:RDF></metadata><defs
     id="defs6"><clipPath
       id="clipPath20"
       clipPathUnits="userSpaceOnUse"><path
         id="path22"
         d="m 0,0 225,0 0,249.764 -225,0 L 0,0 Z" /></clipPath><clipPath
       id="clipPath40"
       clipPathUnits="userSpaceOnUse"><path
         id="path42"
         d="m 0,0 225,0 0,249.764 -225,0 L 0,0 Z" /></clipPath><clipPath
       id="clipPath64"
       clipPathUnits="userSpaceOnUse"><path
         id="path66"
         d="m 0,249.764 225,0 L 225,0 0,0 0,249.764 Z" /></clipPath></defs><g
     transform="matrix(1.25,0,0,-1.25,0,312.205)"
     id="g10"><g
       transform="translate(1.449,45.846)"
       id="g12"><path
         id="path14"
         style="fill:#f5f5f5;fill-opacity:1;fill-rule:nonzero;stroke:none"
         d="M 0,0 166.043,-45.469 220.074,150.89 56.008,198.332 0,0 Z" /></g><g
       id="g16"><g
         clip-path="url(#clipPath20)"
         id="g18"><g
           transform="translate(57.457,244.1777)"
           id="g24"><path
             id="path26"
             style="fill:none;stroke:#100f0d;stroke-width:0.61000001;stroke-linecap:butt;stroke-linejoin:miter;stroke-miterlimit:10;stroke-dasharray:none;stroke-opacity:1"
             d="M 0,0 164.066,-47.441 110.035,-243.801 -56.008,-198.332 0,0 Z" /></g></g></g><g
       transform="translate(64.8442,228.7324)"
       id="g28"><path
         id="path30"
         style="fill:#f5f5f5;fill-opacity:1;fill-rule:nonzero;stroke:none"
         d="M 0,0 -40.489,-142.278 99.195,-183.539 141.894,-40.949 0,0 Z" /></g><g
       transform="translate(64.8442,228.7324)"
       id="g32"><path
         id="path34"
         style="fill:none;stroke:#000000;stroke-width:0.639;stroke-linecap:butt;stroke-linejoin:miter;stroke-miterlimit:4;stroke-dasharray:none;stroke-opacity:1"
         d="M 0,0 -40.489,-142.278 99.195,-183.539 141.894,-40.949 0,0 Z" /></g><g
       id="g36"><g
         clip-path="url(#clipPath40)"
         id="g38"><g
           transform="translate(0.3789,200.7554)"
           id="g44"><path
             id="path46"
             style="fill:none;stroke:#100f0d;stroke-width:0.61000001;stroke-linecap:butt;stroke-linejoin:miter;stroke-miterlimit:10;stroke-dasharray:none;stroke-opacity:1"
             d="M 0,0 163.723,48.629 224.234,-145.82 59.918,-197.183 0,0 Z" /></g></g></g><g
       transform="translate(163.412,249.1542)"
       id="g48"><path
         id="path50"
         style="fill:#f5f5f5;fill-opacity:1;fill-rule:nonzero;stroke:none"
         d="M 0,0 -163.053,-48.43 -103.135,-245.614 61.181,-194.25 0.732,0 0,0 Z" /></g><g
       transform="translate(15.8203,189.6343)"
       id="g52"><path
         id="path54"
         style="fill:#e8e7e5;fill-opacity:1;fill-rule:nonzero;stroke:none"
         d="M 0,0 139.629,42.93 183.101,-97.269 44.558,-141.066 0,0 Z" /></g><g
       transform="translate(15.8203,189.6343)"
       id="g56"><path
         id="path58"
         style="fill:none;stroke:#100f0d;stroke-width:0.49700001;stroke-linecap:butt;stroke-linejoin:miter;stroke-miterlimit:10;stroke-dasharray:none;stroke-opacity:1"
         d="M 0,0 139.629,42.93 183.101,-97.269 44.558,-141.066 0,0 Z" /></g><g
       id="g60"><g
         clip-path="url(#clipPath64)"
         id="g62"><g
           transform="translate(119.6514,80.3555)"
           id="g68"><path
             id="path70"
             style="fill:#cccbcb;fill-opacity:1;fill-rule:nonzero;stroke:none"
             d="m 0,0 c 0.797,-1.252 1.987,-1.527 3.291,-1.546 1.432,-0.019 2.877,-0.132 4.28,0.156 2.161,0.444 4.066,1.464 5.863,2.734 0.712,0.504 0.687,-1.254 1.066,-0.534 0.203,0.385 -0.937,-1.744 0,0 0.003,0.006 1.817,-0.065 1.814,-0.072 C 15.381,-1.851 12.741,-1.209 10.428,-2.353 8.491,-3.311 6.421,-3.756 4.262,-3.792 3.134,-3.81 2.021,-3.585 0.977,-3.06 -0.013,-2.563 -0.312,-1.91 -0.096,-0.796 -0.045,-0.535 -0.031,-0.266 0,0" /></g><g
           transform="translate(124.9092,105.2207)"
           id="g72"><path
             id="path74"
             style="fill:#c0272d;fill-opacity:1;fill-rule:nonzero;stroke:none"
             d="M 0,0 C 2.188,0.704 4.411,1.198 6.728,1.163 7.86,1.146 8.517,0.66 9.021,-0.436 c 1.146,-2.488 1.047,-5.199 1.647,-7.778 0.728,-3.134 1.275,-6.309 2.047,-9.432 0.343,-1.386 -0.106,-2.247 -1.12,-3.06 -0.783,-0.628 -1.77,-0.981 -2.408,-1.796 l -6.645,-2.637 c -1.168,-0.125 -2.334,-0.258 -3.503,-0.371 -1.071,-0.103 -1.797,0.288 -2.386,1.278 -2.3,3.861 -4.554,7.763 -7.128,11.439 -0.882,1.261 -1.589,2.524 -2.235,3.888 -0.496,1.048 -0.179,1.782 0.519,2.51 1.308,1.369 2.889,2.375 4.542,3.237 1.689,0.882 3.378,1.792 5.211,2.37 0.377,-1.238 0.282,-2.495 0.147,-3.754 -1.716,-1.419 -4,-1.877 -5.79,-3.345 2.134,-0.296 10.175,2.801 12.78,4.923 C 3.911,-2.73 3.326,-3.138 2.706,-3.218 1.776,-3.337 0.814,-4.201 -0.102,-3.177 -0.067,-2.118 -0.033,-1.06 0,0" /></g><g
           transform="translate(124.9092,105.2207)"
           id="g76"><path
             id="path78"
             style="fill:none;stroke:#000000;stroke-width:0.255;stroke-linecap:butt;stroke-linejoin:miter;stroke-miterlimit:10;stroke-dasharray:none;stroke-opacity:1"
             d="M 0,0 C 2.188,0.704 4.411,1.198 6.728,1.163 7.86,1.146 8.517,0.66 9.021,-0.436 c 1.146,-2.488 1.047,-5.199 1.647,-7.778 0.728,-3.134 1.275,-6.309 2.047,-9.432 0.343,-1.386 -0.106,-2.247 -1.12,-3.06 -0.783,-0.628 -1.77,-0.981 -2.408,-1.796 l -6.645,-2.637 c -1.168,-0.125 -2.334,-0.258 -3.503,-0.371 -1.071,-0.103 -1.797,0.288 -2.386,1.278 -2.3,3.861 -4.554,7.763 -7.128,11.439 -0.882,1.261 -1.589,2.524 -2.235,3.888 -0.496,1.048 -0.179,1.782 0.519,2.51 1.308,1.369 2.889,2.375 4.542,3.237 1.689,0.882 3.378,1.792 5.211,2.37 0.377,-1.238 0.282,-2.495 0.147,-3.754 -1.716,-1.419 -4,-1.877 -5.79,-3.345 2.134,-0.296 10.175,2.801 12.78,4.923 C 3.911,-2.73 3.326,-3.138 2.706,-3.218 1.776,-3.337 0.814,-4.201 -0.102,-3.177 -0.067,-2.118 -0.033,-1.06 0,0 Z" /></g><g
           transform="translate(124.1699,102.3145)"
           id="g80"><path
             id="path82"
             style="fill:#252525;fill-opacity:1;fill-rule:nonzero;stroke:none"
             d="M 0,0 C 1.565,0.38 3.129,0.77 4.698,1.133 5.109,1.228 5.538,1.257 5.961,1.287 6.214,1.305 6.497,1.285 6.627,1.019 6.794,0.677 6.553,0.428 6.318,0.264 5.624,-0.223 4.932,-0.724 4.187,-1.125 0.352,-3.189 -3.675,-4.771 -7.929,-5.734 c -0.629,-0.143 -1.597,-0.536 -1.877,0.131 -0.337,0.808 0.699,1.12 1.267,1.479 1.619,1.022 3.32,1.896 5.122,2.562 0.394,0.145 0.782,0.354 1.227,0.197 0.027,-0.382 -0.318,-1.057 0.277,-1.043 0.725,0.016 1.526,0.33 1.82,1.144 C 0.045,-0.881 -0.024,-0.424 0,0" /></g><g
           transform="translate(136.0547,123.8477)"
           id="g84"><path
             id="path86"
             style="fill:#69bc45;fill-opacity:1;fill-rule:nonzero;stroke:none"
             d="m 0,0 c 0.054,-0.453 -0.29,-0.687 -0.546,-0.954 -2.36,-2.461 -4.028,-5.316 -5.105,-8.557 -1.171,-3.52 -4.263,-5.392 -8.047,-5.003 -0.395,0.041 -0.761,0.02 -1.098,-0.203 -0.058,0.107 -0.116,0.213 -0.175,0.32 -0.174,0.431 -0.27,0.92 -0.537,1.285 -0.969,1.318 -0.829,2.753 -0.299,4.099 1.227,3.118 2.934,5.902 6.067,7.504 2.446,1.25 5.077,1.732 7.786,1.678 C -1.325,0.157 -0.603,0.51 0,0" /></g><g
           transform="translate(111.0503,113.4971)"
           id="g88"><path
             id="path90"
             style="fill:#69bc45;fill-opacity:1;fill-rule:nonzero;stroke:none"
             d="m 0,0 c 6.451,0.858 12.761,-5.162 9.276,-11.582 -1.177,-2.166 2.129,-4.102 3.307,-1.933 C 17.312,-4.803 9.56,5.102 0,3.83 -2.407,3.509 -2.439,-0.324 0,0" /></g><g
           transform="translate(77.1504,175.5454)"
           id="g92"><path
             id="path94"
             style="fill:#0973b9;fill-opacity:1;fill-rule:nonzero;stroke:none"
             d="M 0,0 C 0,0 -15.782,-41.726 27.891,-59.976 36.366,-63.517 51.4,-48.958 41.608,-18.522 36.611,-2.988 26.706,5.074 17.323,7.848 2.989,12.086 0,0 0,0" /></g><g
           transform="translate(97.0913,160.3389)"
           id="g96"><path
             id="path98"
             style="fill:#eff0ea;fill-opacity:1;fill-rule:nonzero;stroke:none"
             d="m 0,0 c 2.07,-5.216 0.279,-10.821 -4.001,-12.519 -4.279,-1.699 -9.427,1.153 -11.497,6.368 -2.069,5.216 -0.278,10.821 4.001,12.519 C -7.217,8.066 -2.07,5.215 0,0" /></g><g
           transform="translate(110.1455,167.2456)"
           id="g100"><path
             id="path102"
             style="fill:#eff0ea;fill-opacity:1;fill-rule:nonzero;stroke:none"
             d="m 0,0 c 2.282,-4.548 1.312,-9.65 -2.168,-11.396 -3.48,-1.747 -8.151,0.525 -10.433,5.073 -2.282,4.548 -1.311,9.65 2.168,11.396 C -6.953,6.819 -2.282,4.548 0,0" /></g><g
           transform="translate(93.396,158.8721)"
           id="g104"><path
             id="path106"
             style="fill:#1a9948;fill-opacity:1;fill-rule:nonzero;stroke:none"
             d="m 0,0 c 0.982,-2.474 0.206,-5.104 -1.733,-5.873 -1.939,-0.77 -4.308,0.612 -5.289,3.086 -0.982,2.474 -0.206,5.103 1.733,5.873 C -3.35,3.856 -0.982,2.474 0,0" /></g><g
           transform="translate(107.7437,165.6313)"
           id="g108"><path
             id="path110"
             style="fill:#1a9948;fill-opacity:1;fill-rule:nonzero;stroke:none"
             d="m 0,0 c 0.976,-2.459 0.331,-5.022 -1.441,-5.726 -1.772,-0.703 -4,0.72 -4.976,3.179 -0.976,2.459 -0.331,5.023 1.441,5.726 C -3.204,3.882 -0.976,2.459 0,0" /></g><g
           transform="translate(88.3008,156.8501)"
           id="g112"><path
             id="path114"
             style="fill:#14170f;fill-opacity:1;fill-rule:nonzero;stroke:none"
             d="M 0,0 C -0.532,1.339 -0.131,2.755 0.895,3.162 1.921,3.569 3.184,2.813 3.715,1.474 4.247,0.135 3.846,-1.281 2.82,-1.688 1.794,-2.095 0.532,-1.339 0,0" /></g><g
           transform="translate(102.854,163.6733)"
           id="g116"><path
             id="path118"
             style="fill:#14170f;fill-opacity:1;fill-rule:nonzero;stroke:none"
             d="M 0,0 C -0.537,1.351 -0.125,2.782 0.919,3.197 1.964,3.611 3.245,2.852 3.781,1.501 4.317,0.15 3.906,-1.281 2.861,-1.696 1.817,-2.11 0.536,-1.351 0,0" /></g><g
           transform="translate(86.6411,158.3091)"
           id="g120"><path
             id="path122"
             style="fill:#ffffff;fill-opacity:1;fill-rule:nonzero;stroke:none"
             d="M 0,0 C -0.057,0.832 0.426,1.542 1.079,1.587 1.73,1.631 2.305,0.993 2.362,0.161 2.418,-0.671 1.936,-1.382 1.283,-1.426 0.631,-1.471 0.057,-0.832 0,0" /></g><g
           transform="translate(103.394,165.8726)"
           id="g124"><path
             id="path126"
             style="fill:#ffffff;fill-opacity:1;fill-rule:nonzero;stroke:none"
             d="m 0,0 c -0.032,-0.72 -0.447,-1.287 -0.928,-1.266 -0.481,0.021 -0.844,0.622 -0.813,1.343 0.032,0.72 0.448,1.286 0.928,1.265 C -0.333,1.321 0.032,0.72 0,0" /></g><g
           transform="translate(102.7437,163.3096)"
           id="g128"><path
             id="path130"
             style="fill:#ffffff;fill-opacity:1;fill-rule:nonzero;stroke:none"
             d="m 0,0 c -0.141,-0.198 -0.392,-0.262 -0.56,-0.143 -0.168,0.12 -0.19,0.378 -0.048,0.576 0.141,0.198 0.391,0.262 0.559,0.143 C 0.12,0.456 0.141,0.198 0,0" /></g><g
           transform="translate(80.9648,167.5747)"
           id="g132"><path
             id="path134"
             style="fill:#0973b9;fill-opacity:1;fill-rule:nonzero;stroke:none"
             d="M 0,0 C 0.586,1.15 0.796,2.561 1.604,3.579 3.159,5.541 5.086,3.939 6.287,2.515 6.53,2.226 6.943,2.643 6.702,2.93 5.653,4.173 4.124,5.707 2.333,4.939 0.522,4.165 0.28,1.839 -0.507,0.296 -0.678,-0.04 -0.172,-0.337 0,0" /></g><g
           transform="translate(79.7134,166.6143)"
           id="g136"><path
             id="path138"
             style="fill:#4c3215;fill-opacity:1;fill-rule:nonzero;stroke:none"
             d="M 0,0 C 0.291,1.102 0.39,2.241 0.683,3.343 0.975,4.445 1.498,5.549 2.43,6.237 3.597,7.099 5.21,7.142 6.564,6.7 7.918,6.258 9.073,5.396 10.202,4.549 8.358,5.09 6.303,4.723 4.54,3.875 2.776,3.028 1.266,1.733 -0.13,0.366" /></g><g
           transform="translate(82.2988,165.1133)"
           id="g140"><path
             id="path142"
             style="fill:#4a85a4;fill-opacity:1;fill-rule:nonzero;stroke:none"
             d="M 0,0 C 1.139,2.565 3.802,3.685 6.448,2.703 6.802,2.571 6.955,3.138 6.604,3.268 3.746,4.33 0.733,3.089 -0.507,0.296 -0.659,-0.046 -0.153,-0.345 0,0" /></g><g
           transform="translate(96.6895,170.6313)"
           id="g144"><path
             id="path146"
             style="fill:#4a85a4;fill-opacity:1;fill-rule:nonzero;stroke:none"
             d="M 0,0 C 1.587,2.199 3.922,4.159 6.804,3.266 7.165,3.154 7.32,3.72 6.959,3.832 3.813,4.807 1.238,2.713 -0.507,0.296 -0.728,-0.011 -0.219,-0.304 0,0" /></g><g
           transform="translate(87.4355,146.7754)"
           id="g148"><path
             id="path150"
             style="fill:#597d9f;fill-opacity:1;fill-rule:nonzero;stroke:none"
             d="M 0,0 C 2.412,0.543 4.827,0.675 7.282,0.411 7.657,0.37 7.654,0.958 7.282,0.998 4.771,1.268 2.306,1.121 -0.156,0.566 -0.524,0.483 -0.369,-0.083 0,0" /></g><g
           transform="translate(107.6343,153.8433)"
           id="g152"><path
             id="path154"
             style="fill:#597d9f;fill-opacity:1;fill-rule:nonzero;stroke:none"
             d="M 0,0 C 1.004,1.979 2.593,3.503 4.608,4.431 4.951,4.588 4.653,5.095 4.312,4.937 2.214,3.972 0.539,2.355 -0.506,0.296 -0.677,-0.04 -0.171,-0.337 0,0" /></g><g
           transform="translate(112.627,149.8721)"
           id="g156"><path
             id="path158"
             style="fill:#a5897a;fill-opacity:1;fill-rule:nonzero;stroke:none"
             d="m 0,0 c -0.052,-4.136 -1.518,-8.282 -5.175,-10.581 -3.626,-2.28 -8.127,-1.731 -10.992,1.465 -0.416,0.464 -1.097,-0.221 -0.683,-0.683 2.911,-3.246 7.441,-4.076 11.339,-2.084 C -1.03,-9.594 0.905,-4.82 0.966,0 0.974,0.622 0.008,0.622 0,0" /></g><g
           transform="translate(95.708,142.4219)"
           id="g160"><path
             id="path162"
             style="fill:#a5897a;fill-opacity:1;fill-rule:nonzero;stroke:none"
             d="m 0,0 c -0.293,-1.291 -1.307,-2.227 -2.608,-2.445 -0.612,-0.102 -0.353,-1.033 0.256,-0.931 1.611,0.27 2.923,1.531 3.284,3.119 C 1.069,0.349 0.138,0.607 0,0" /></g><g
           transform="translate(110.5879,150.6123)"
           id="g164"><path
             id="path166"
             style="fill:#a5897a;fill-opacity:1;fill-rule:nonzero;stroke:none"
             d="M 0,0 C 1.331,-1.684 3.743,-1.753 5.217,-0.22 5.647,0.229 4.966,0.913 4.534,0.463 3.392,-0.726 1.694,-0.597 0.683,0.683 0.298,1.17 -0.381,0.483 0,0" /></g><g
           transform="translate(97.6685,175.2041)"
           id="g168"><path
             id="path170"
             style="fill:#322112;fill-opacity:1;fill-rule:nonzero;stroke:none"
             d="M 0,0 C 0.042,1.566 0.313,3.168 1.121,4.511 1.437,5.036 1.842,5.522 2.366,5.841 3.588,6.583 5.18,6.267 6.48,5.671 7.781,5.076 8.981,4.223 10.374,3.895 8.413,3.787 6.429,3.674 4.556,3.084 2.684,2.495 0.904,1.367 -0.064,-0.341" /></g><g
           transform="translate(120.3955,145.9419)"
           id="g172"><path
             id="path174"
             style="fill:#ed2924;fill-opacity:1;fill-rule:nonzero;stroke:none"
             d="m 0,0 c 0,0 -3.178,30.769 -22.259,38.373 -12.489,0.799 -26.205,-4.859 -26.312,-6.087 -0.106,-1.227 -5.147,-14.45 -1.305,-27.62 1.577,-1.118 12.23,-13.591 17.083,-19.311 1.516,-1.788 3.778,-2.766 6.119,-2.647 l 12.479,0.639 c 0,0 -26.789,-16.31 -29.328,-3.018 -0.253,1.327 -9.676,9.378 -10.408,10.513 -3.439,5.335 -6.469,11.985 -8.968,17.239 -1.259,2.647 0.981,14.648 0.093,19.331 -0.545,2.875 -0.204,5.85 0.997,8.517 1.501,3.332 4.225,7.594 8.994,10.473 8.886,5.365 27.086,12.251 35.439,9.29 C -10.651,53.308 2.191,41.467 6.029,31.063 9.115,22.695 10.328,-3.229 7.687,-7.898 -1.115,-23.459 -7.551,-15.185 -7.551,-15.185 L 0,0 Z" /></g><g
           transform="translate(120.3955,145.9419)"
           id="g176"><path
             id="path178"
             style="fill:none;stroke:#231f20;stroke-width:0.65499997;stroke-linecap:butt;stroke-linejoin:miter;stroke-miterlimit:10;stroke-dasharray:none;stroke-opacity:1"
             d="m 0,0 c 0,0 -3.178,30.769 -22.259,38.373 -12.489,0.799 -26.205,-4.859 -26.312,-6.087 -0.106,-1.227 -5.147,-14.45 -1.305,-27.62 1.577,-1.118 12.23,-13.591 17.083,-19.311 1.516,-1.788 3.778,-2.766 6.119,-2.647 l 12.479,0.639 c 0,0 -26.789,-16.31 -29.328,-3.018 -0.253,1.327 -9.676,9.378 -10.408,10.513 -3.439,5.335 -6.469,11.985 -8.968,17.239 -1.259,2.647 0.981,14.648 0.093,19.331 -0.545,2.875 -0.204,5.85 0.997,8.517 1.501,3.332 4.225,7.594 8.994,10.473 8.886,5.365 27.086,12.251 35.439,9.29 C -10.651,53.308 2.191,41.467 6.029,31.063 9.115,22.695 10.328,-3.229 7.687,-7.898 -1.115,-23.459 -7.551,-15.185 -7.551,-15.185 L 0,0 Z" /></g><g
           transform="translate(113.6719,134.394)"
           id="g180"><path
             id="path182"
             style="fill:#ffffff;fill-opacity:1;fill-rule:nonzero;stroke:none"
             d="m 0,0 c 0,0 5.334,1.306 1.427,-2.802 l 7.78,-1.422 c 0,0 12.97,-2.934 9.527,-4.776 -3.442,-1.841 0.881,-3.548 -2.695,-4.189 -3.575,-0.642 -1.947,-4.351 -5.422,-5.265 -3.474,-0.915 -3.17,-2.742 -8.294,-2.582 -5.123,0.16 -6.858,-1.735 -10.7,-2.163 -3.843,-0.426 -6.485,-0.72 -6.485,-0.72 L -13.155,-8.655 0,0 Z" /></g><g
           transform="translate(113.6719,134.394)"
           id="g184"><path
             id="path186"
             style="fill:none;stroke:#231f20;stroke-width:0.37799999;stroke-linecap:butt;stroke-linejoin:miter;stroke-miterlimit:10;stroke-dasharray:none;stroke-opacity:1"
             d="m 0,0 c 0,0 5.334,1.306 1.427,-2.802 l 7.78,-1.422 c 0,0 12.97,-2.934 9.527,-4.776 -3.442,-1.841 0.881,-3.548 -2.695,-4.189 -3.575,-0.642 -1.947,-4.351 -5.422,-5.265 -3.474,-0.915 -3.17,-2.742 -8.294,-2.582 -5.123,0.16 -6.858,-1.735 -10.7,-2.163 -3.843,-0.426 -6.485,-0.72 -6.485,-0.72 L -13.155,-8.655 0,0 Z" /></g><g
           transform="translate(99.8765,120.5615)"
           id="g188"><path
             id="path190"
             style="fill:#46c6f1;fill-opacity:1;fill-rule:nonzero;stroke:none"
             d="m 0,0 c 0,0 19.48,6.3 20.788,7.661 1.307,1.361 9.82,-0.853 9.82,-0.853 0,0 -6.725,-0.748 -5.443,-3.523 -2.91,-0.08 -5.124,-2.029 -4.724,-3.443 -2.802,1.147 -5.399,3.772 -5.022,-0.196 -3.837,1.156 -5.599,1.689 -5.225,-1.673 -3.789,1.281 -5.737,1.307 -5.47,-1.094 -2.322,1.2 -4.991,-1.042 -4.991,-1.042 L 0,0 Z" /></g><g
           transform="translate(99.8765,120.5615)"
           id="g192"><path
             id="path194"
             style="fill:none;stroke:#231f20;stroke-width:0.37799999;stroke-linecap:butt;stroke-linejoin:miter;stroke-miterlimit:10;stroke-dasharray:none;stroke-opacity:1"
             d="m 0,0 c 0,0 19.48,6.3 20.788,7.661 1.307,1.361 9.82,-0.853 9.82,-0.853 0,0 -6.725,-0.748 -5.443,-3.523 -2.91,-0.08 -5.124,-2.029 -4.724,-3.443 -2.802,1.147 -5.399,3.772 -5.022,-0.196 -3.837,1.156 -5.599,1.689 -5.225,-1.673 -3.789,1.281 -5.737,1.307 -5.47,-1.094 -2.322,1.2 -4.991,-1.042 -4.991,-1.042 L 0,0 Z" /></g><g
           transform="translate(111.7632,114.5205)"
           id="g196"><path
             id="path198"
             style="fill:#f05f51;fill-opacity:1;fill-rule:nonzero;stroke:none"
             d="M 0,0 C 0.304,1.068 1.53,1.779 2.608,1.513 3.076,1.396 3.561,1.126 4.008,1.305 4.767,1.609 4.607,2.821 5.227,3.354 5.728,3.784 6.51,3.584 7.07,3.232 7.628,2.882 8.133,2.394 8.782,2.269 9.323,2.164 9.876,2.332 10.426,2.341 10.977,2.351 11.62,2.106 11.741,1.569 11.873,0.98 11.314,0.481 10.804,0.16 9.172,-0.868 7.333,-1.638 5.409,-1.756 3.483,-1.873 1.464,-1.278 0.11,0.096" /></g><g
           transform="translate(111.8545,114.4678)"
           id="g200"><path
             id="path202"
             style="fill:#231f20;fill-opacity:1;fill-rule:nonzero;stroke:none"
             d="M 0,0 C 1.074,2.406 3.039,0.293 4.35,1.562 4.473,1.682 4.479,1.908 4.597,2.029 4.781,3.02 5.558,3.408 6.925,3.194 7.285,2.938 7.653,2.691 8.029,2.458 7.206,2.8 10.573,1.46 9.509,2.21 9.893,1.574 10.276,0.939 10.66,0.304 10.192,0.009 9.71,-0.262 9.213,-0.505 6.182,-1.964 2.718,-2.116 0.094,0.223 -0.007,0.313 -0.157,0.164 -0.056,0.074 2.381,-2.098 5.586,-2.23 8.538,-1.037 c 0.795,0.321 4.314,1.691 2.903,3.183 -0.33,0.348 -0.668,0.249 -1.078,0.35 C 10.08,2.536 9.795,2.511 9.509,2.421 8.563,2.488 7.737,2.807 7.031,3.376 6.345,3.597 5.774,4.049 5.062,3.481 4.441,2.989 5.058,3.11 4.556,2.571 1.943,-0.233 3.373,2.091 1.942,1.722 0.894,1.45 0.273,1.126 -0.182,0.106 -0.237,-0.017 -0.056,-0.124 0,0" /></g><g
           transform="translate(110.3389,114.3887)"
           id="g204"><path
             id="path206"
             style="fill:#dba328;fill-opacity:1;fill-rule:nonzero;stroke:none"
             d="M 0,0 C 0,0 3.784,13.593 12.102,5.963 13.935,2.908 14.089,1.576 14.084,1.566 13.857,1.065 13.352,1.078 13.398,1.626 13.496,2.753 9.479,8.794 6.229,7.482 L 3.726,5.575 c 0,0 -2.4,-2.847 -2.31,-6.096 C -0.298,-0.983 0,0 0,0" /></g><g
           transform="translate(110.3389,114.3887)"
           id="g208"><path
             id="path210"
             style="fill:none;stroke:#231f20;stroke-width:0.28099999;stroke-linecap:butt;stroke-linejoin:miter;stroke-miterlimit:10;stroke-dasharray:none;stroke-opacity:1"
             d="M 0,0 C 0,0 3.784,13.593 12.102,5.963 13.935,2.908 14.089,1.576 14.084,1.566 13.857,1.065 13.352,1.078 13.398,1.626 13.496,2.753 9.479,8.794 6.229,7.482 L 3.726,5.575 c 0,0 -2.4,-2.847 -2.31,-6.096 C -0.298,-0.983 0,0 0,0 Z" /></g><g
           transform="translate(110.458,114.5381)"
           id="g212"><path
             id="path214"
             style="fill:#dba328;fill-opacity:1;fill-rule:nonzero;stroke:none"
             d="m 0,0 c 0,0 -1.773,-7.259 7.855,-7.139 3.287,0.227 5.741,2.281 5.976,8.541 C 12.072,0.12 9.779,-0.949 7.199,-1.236 5.053,-1.475 4.576,-0.85 0,0" /></g><g
           transform="translate(110.458,114.5381)"
           id="g216"><path
             id="path218"
             style="fill:none;stroke:#231f20;stroke-width:0.28099999;stroke-linecap:butt;stroke-linejoin:miter;stroke-miterlimit:10;stroke-dasharray:none;stroke-opacity:1"
             d="m 0,0 c 0,0 -1.773,-7.259 7.855,-7.139 3.287,0.227 5.741,2.281 5.976,8.541 C 12.072,0.12 9.779,-0.949 7.199,-1.236 5.053,-1.475 4.576,-0.85 0,0 Z" /></g><g
           transform="translate(117.1455,111.9688)"
           id="g220"><path
             id="path222"
             style="fill:#bb4f27;fill-opacity:1;fill-rule:nonzero;stroke:none"
             d="M 0,0 C 0.871,-1.237 1.96,-2.268 3.244,-3.067 3.359,-3.14 3.466,-2.957 3.351,-2.885 2.097,-2.104 1.032,-1.101 0.182,0.106 0.104,0.217 -0.079,0.111 0,0" /></g><g
           transform="translate(120.9424,112.4951)"
           id="g224"><path
             id="path226"
             style="fill:#bb4f27;fill-opacity:1;fill-rule:nonzero;stroke:none"
             d="M 0,0 C 0.774,-0.457 1.55,-0.914 2.325,-1.371 2.442,-1.439 2.548,-1.258 2.432,-1.188 1.656,-0.731 0.881,-0.274 0.106,0.183 -0.011,0.252 -0.117,0.069 0,0" /></g><g
           transform="translate(113.9824,112.4395)"
           id="g228"><path
             id="path230"
             style="fill:#bb4f27;fill-opacity:1;fill-rule:nonzero;stroke:none"
             d="M 0,0 C 1.024,-1.609 2.237,-3.065 3.637,-4.362 3.735,-4.454 3.885,-4.306 3.785,-4.213 2.399,-2.929 1.197,-1.488 0.182,0.106 0.109,0.22 -0.073,0.114 0,0" /></g><g
           transform="translate(111.7222,113.168)"
           id="g232"><path
             id="path234"
             style="fill:#bb4f27;fill-opacity:1;fill-rule:nonzero;stroke:none"
             d="M 0,0 C 0.5,-1.927 1.478,-3.625 2.896,-5.022 2.993,-5.117 3.142,-4.969 3.044,-4.873 1.65,-3.498 0.695,-1.84 0.203,0.056 0.169,0.187 -0.034,0.131 0,0" /></g><g
           transform="translate(112.0684,110.2607)"
           id="g236"><path
             id="path238"
             style="fill:#bb4f27;fill-opacity:1;fill-rule:nonzero;stroke:none"
             d="M 0,0 C 1.29,0.634 2.58,1.268 3.871,1.9 3.992,1.961 3.886,2.143 3.765,2.083 2.474,1.449 1.184,0.815 -0.106,0.182 -0.228,0.122 -0.122,-0.06 0,0" /></g><g
           transform="translate(114.585,107.915)"
           id="g240"><path
             id="path242"
             style="fill:#bb4f27;fill-opacity:1;fill-rule:nonzero;stroke:none"
             d="M 0,0 C 3.068,-0.837 5.929,1.535 5.655,4.709 5.644,4.843 5.433,4.844 5.444,4.709 5.705,1.675 2.998,-0.599 0.056,0.203 -0.075,0.239 -0.132,0.036 0,0" /></g><g
           transform="translate(121.2959,109.0127)"
           id="g244"><path
             id="path246"
             style="fill:#bb4f27;fill-opacity:1;fill-rule:nonzero;stroke:none"
             d="M 0,0 1.702,4.711 C 1.748,4.839 1.545,4.894 1.499,4.767 L -0.203,0.056 C -0.25,-0.072 -0.046,-0.127 0,0" /></g><g
           transform="translate(113.3789,109.2305)"
           id="g248"><path
             id="path250"
             style="fill:#bb4f27;fill-opacity:1;fill-rule:nonzero;stroke:none"
             d="M 0,0 C 1.958,-0.094 3.731,1.179 4.279,3.058 4.317,3.188 4.114,3.244 4.076,3.114 3.554,1.321 1.863,0.122 0,0.211 -0.136,0.217 -0.135,0.006 0,0" /></g><g
           transform="translate(118.8086,111.8965)"
           id="g252"><path
             id="path254"
             style="fill:#bb4f27;fill-opacity:1;fill-rule:nonzero;stroke:none"
             d="m 0,0 c 0.79,-1.044 1.806,-1.823 3.019,-2.314 0.126,-0.052 0.18,0.152 0.056,0.203 C 1.92,-1.644 0.934,-0.887 0.183,0.106 0.102,0.214 -0.082,0.108 0,0" /></g><g
           transform="translate(113.9893,108.332)"
           id="g256"><path
             id="path258"
             style="fill:#bb4f27;fill-opacity:1;fill-rule:nonzero;stroke:none"
             d="M 0,0 C 2.097,0.191 3.918,1.278 5.076,3.037 5.151,3.15 4.969,3.256 4.895,3.144 3.778,1.45 2.019,0.395 0,0.211 -0.134,0.198 -0.136,-0.013 0,0" /></g><g
           transform="translate(113.3994,110.1709)"
           id="g260"><path
             id="path262"
             style="fill:#bb4f27;fill-opacity:1;fill-rule:nonzero;stroke:none"
             d="M 0,0 C 1.185,0.387 2.201,1.087 2.979,2.063 3.063,2.167 2.914,2.317 2.829,2.212 2.074,1.265 1.096,0.58 -0.056,0.203 -0.185,0.161 -0.13,-0.042 0,0" /></g><g
           transform="translate(112.7969,111.9775)"
           id="g264"><path
             id="path266"
             style="fill:#bb4f27;fill-opacity:1;fill-rule:nonzero;stroke:none"
             d="M 0,0 C 0.486,0.1 0.974,0.199 1.46,0.298 1.593,0.325 1.537,0.528 1.404,0.502 0.917,0.402 0.431,0.303 -0.057,0.203 -0.189,0.176 -0.133,-0.027 0,0" /></g><g
           transform="translate(119.4375,112.4395)"
           id="g268"><path
             id="path270"
             style="fill:#bb4f27;fill-opacity:1;fill-rule:nonzero;stroke:none"
             d="m 0,0 c 1.252,-0.675 2.504,-1.351 3.756,-2.026 0.12,-0.065 0.226,0.117 0.106,0.181 L 0.106,0.183 C -0.013,0.247 -0.119,0.065 0,0" /></g><g
           transform="translate(121.8701,113.0498)"
           id="g272"><path
             id="path274"
             style="fill:#bb4f27;fill-opacity:1;fill-rule:nonzero;stroke:none"
             d="M 0,0 C 0.392,-0.273 0.783,-0.548 1.176,-0.821 1.287,-0.899 1.393,-0.717 1.282,-0.64 0.89,-0.365 0.498,-0.092 0.106,0.183 -0.005,0.261 -0.11,0.078 0,0" /></g><g
           transform="translate(119.6904,108.1162)"
           id="g276"><path
             id="path278"
             style="fill:#bb4f27;fill-opacity:1;fill-rule:nonzero;stroke:none"
             d="M 0,0 C 1.126,1.432 1.887,3.043 2.269,4.824 2.297,4.957 2.094,5.014 2.065,4.88 1.691,3.136 0.954,1.552 -0.149,0.148 -0.232,0.043 -0.084,-0.107 0,0" /></g><g
           transform="translate(115.4531,114.6064)"
           id="g280"><path
             id="path282"
             style="fill:#ee4723;fill-opacity:1;fill-rule:nonzero;stroke:none"
             d="M 0,0 C 0.231,0.22 0.557,0.172 0.766,-0.05 1.388,-0.709 2.381,0.286 1.76,0.944 1.019,1.73 -0.222,1.726 -0.994,0.994 -1.652,0.371 -0.657,-0.621 0,0" /></g><g
           transform="translate(117.8691,115.7129)"
           id="g284"><path
             id="path286"
             style="fill:#ee4723;fill-opacity:1;fill-rule:nonzero;stroke:none"
             d="M 0,0 C -0.113,-0.269 -0.112,-0.361 0.003,-0.278 0.012,-0.298 0.021,-0.316 0.03,-0.336 0.103,-0.459 0.277,-0.577 0.377,-0.692 0.606,-0.958 0.83,-1.224 1.132,-1.411 1.716,-1.773 2.495,-1.789 2.982,-1.254 3.421,-0.773 3.449,0.008 3.141,0.563 2.779,1.217 2.066,1.505 1.398,1.737 0.542,2.035 0.174,0.677 1.024,0.382 1.271,0.296 1.68,0.196 1.841,-0.026 1.9,-0.109 1.982,-0.208 1.933,-0.323 1.978,-0.219 1.942,-0.274 1.842,-0.197 1.355,0.175 1.102,0.736 0.512,0.992 -0.534,1.445 -1.838,0.385 -1.214,-0.71 -0.766,-1.496 0.449,-0.788 0,0" /></g><g
           transform="translate(116.9414,115.3711)"
           id="g288"><path
             id="path290"
             style="fill:#ee4723;fill-opacity:1;fill-rule:nonzero;stroke:none"
             d="M 0,0 C 0.904,0 0.906,1.405 0,1.405 -0.905,1.405 -0.906,0 0,0" /></g><g
           transform="translate(120.8721,116.1826)"
           id="g292"><path
             id="path294"
             style="fill:#ffffff;fill-opacity:1;fill-rule:nonzero;stroke:none"
             d="m 0,0 c 0.278,-0.06 0.557,-0.119 0.834,-0.179 0.441,-0.094 0.63,0.583 0.187,0.678 L 0.187,0.678 C -0.255,0.771 -0.443,0.095 0,0" /></g><g
           transform="translate(117.4775,117.0039)"
           id="g296"><path
             id="path298"
             style="fill:#ffffff;fill-opacity:1;fill-rule:nonzero;stroke:none"
             d="M 0,0 C 0.452,0 0.453,0.703 0,0.703 -0.452,0.703 -0.453,0 0,0" /></g><g
           transform="translate(113.0908,120.0303)"
           id="g300"><path
             id="path302"
             style="fill:#ffffff;fill-opacity:1;fill-rule:nonzero;stroke:none"
             d="M 0,0 C 0.58,-0.222 1.601,0.036 2.205,0.178 3.043,0.373 3.865,1.104 3.735,1.955 3.655,2.479 3.22,2.903 2.719,3.073 2.217,3.243 1.662,3.191 1.154,3.04 0.468,2.835 -0.197,2.416 -0.492,1.762 -0.786,1.108 -0.58,0.211 0.067,-0.096 L 0,0 Z" /></g><g
           transform="translate(113.0576,119.9121)"
           id="g304"><path
             id="path306"
             style="fill:#231f20;fill-opacity:1;fill-rule:nonzero;stroke:none"
             d="M 0,0 C 0.997,-0.282 2.612,0.04 3.37,0.769 4.162,1.531 4.01,2.699 3.023,3.209 2.008,3.734 0.516,3.271 -0.219,2.456 -0.908,1.69 -0.886,0.474 0.038,-0.084 0.139,-0.145 0.278,-0.019 0.206,0.084 0.184,0.116 0.161,0.147 0.139,0.18 0.049,0.308 -0.164,0.186 -0.073,0.056 -0.051,0.024 -0.028,-0.008 -0.006,-0.04 L 0.162,0.128 C -1.979,1.418 1.607,4.282 3.251,2.758 4.303,1.783 3.159,0.694 2.206,0.414 1.538,0.217 0.748,0.043 0.065,0.236 -0.087,0.279 -0.151,0.043 0,0" /></g><g
           transform="translate(117.1895,122.1348)"
           id="g308"><path
             id="path310"
             style="fill:#ffffff;fill-opacity:1;fill-rule:nonzero;stroke:none"
             d="m 0,0 c 0.265,-0.562 1.179,-1.084 1.713,-1.402 0.74,-0.44 1.839,-0.483 2.335,0.22 0.306,0.433 0.286,1.04 0.043,1.511 C 3.847,0.8 3.411,1.146 2.94,1.39 2.304,1.718 1.533,1.877 0.868,1.61 0.203,1.343 -0.271,0.554 -0.018,-0.116 L 0,0 Z" /></g><g
           transform="translate(117.084,122.0723)"
           id="g312"><path
             id="path314"
             style="fill:#231f20;fill-opacity:1;fill-rule:nonzero;stroke:none"
             d="m 0,0 c 0.513,-0.876 1.834,-1.732 2.86,-1.779 1.078,-0.05 1.875,0.802 1.576,1.883 -0.314,1.129 -1.705,1.863 -2.815,1.82 -1.055,-0.04 -1.94,-0.933 -1.651,-2.01 0.029,-0.109 0.217,-0.124 0.236,0 0.006,0.038 0.012,0.077 0.018,0.115 C 0.248,0.184 0.012,0.25 -0.013,0.095 -0.019,0.056 -0.024,0.018 -0.03,-0.021 l 0.236,0 C -0.466,2.482 4.517,1.939 4.237,-0.472 3.979,-2.709 0.829,-0.932 0.212,0.124 0.132,0.26 -0.08,0.137 0,0" /></g><g
           transform="translate(112.9512,123.9131)"
           id="g316"><path
             id="path318"
             style="fill:#231f20;fill-opacity:1;fill-rule:nonzero;stroke:none"
             d="m 0,0 c -2.129,-0.019 -4.258,-0.039 -6.387,-0.058 0.181,-0.316 0.363,-0.631 0.543,-0.947 0.393,0.612 1.092,0.852 1.767,0.541 0.73,-0.338 1.37,0.747 0.635,1.087 -1.31,0.605 -2.701,0.233 -3.488,-0.992 -0.26,-0.404 0.08,-0.951 0.543,-0.947 2.129,0.019 4.258,0.039 6.387,0.057 C 0.81,-1.251 0.812,0.007 0,0" /></g><g
           transform="translate(110.3633,131.2104)"
           id="g320"><path
             id="path322"
             style="fill:#ed2924;fill-opacity:1;fill-rule:nonzero;stroke:none"
             d="m 0,0 c 0,0 -20.57,-3.97 -18.238,-14.892 2.333,-10.922 -6.551,-13.637 -6.551,-13.637 l 14.517,2.829 12.364,25.741 18.643,-5.03 16.589,4.899 c 0.68,0.366 0.552,1.629 -0.216,1.544 C 30.555,0.723 12.575,5.889 7.41,2.496 2.851,-0.499 0.475,0.665 0,0" /></g><g
           transform="translate(110.3633,131.2104)"
           id="g324"><path
             id="path326"
             style="fill:none;stroke:#231f20;stroke-width:0.50300002;stroke-linecap:butt;stroke-linejoin:miter;stroke-miterlimit:10;stroke-dasharray:none;stroke-opacity:1"
             d="m 0,0 c 0,0 -20.57,-3.97 -18.238,-14.892 2.333,-10.922 -6.551,-13.637 -6.551,-13.637 l 14.517,2.829 12.364,25.741 18.643,-5.03 16.589,4.899 c 0.68,0.366 0.552,1.629 -0.216,1.544 C 30.555,0.723 12.575,5.889 7.41,2.496 2.851,-0.499 0.475,0.665 0,0 Z" /></g><g
           transform="translate(107.7617,131.9316)"
           id="g328"><path
             id="path330"
             style="fill:#f05c5a;fill-opacity:1;fill-rule:nonzero;stroke:none"
             d="m 0,0 c -0.793,0.446 -5.72,-4.896 0.488,-4.85 0.789,0.709 1.384,1.319 1.824,1.844 2.81,3.355 -0.734,3.244 -0.734,3.244 L 0,0 Z" /></g><g
           transform="translate(107.7617,131.9316)"
           id="g332"><path
             id="path334"
             style="fill:none;stroke:#231f20;stroke-width:0.303;stroke-linecap:butt;stroke-linejoin:miter;stroke-miterlimit:10;stroke-dasharray:none;stroke-opacity:1"
             d="m 0,0 c -0.793,0.446 -5.72,-4.896 0.488,-4.85 0.789,0.709 1.384,1.319 1.824,1.844 2.81,3.355 -0.734,3.244 -0.734,3.244 L 0,0 Z" /></g><g
           transform="translate(107.9482,122.1133)"
           id="g336"><path
             id="path338"
             style="fill:#f05c5a;fill-opacity:1;fill-rule:nonzero;stroke:none"
             d="M 0,0 3.102,7.812 5.559,-3.683 2.58,2.164 0,0 Z" /></g><g
           transform="translate(107.9482,122.1133)"
           id="g340"><path
             id="path342"
             style="fill:none;stroke:#231f20;stroke-width:0.303;stroke-linecap:butt;stroke-linejoin:miter;stroke-miterlimit:10;stroke-dasharray:none;stroke-opacity:1"
             d="M 0,0 3.102,7.812 5.559,-3.683 2.58,2.164 0,0 Z" /></g><g
           transform="translate(107.7617,131.9316)"
           id="g344"><path
             id="path346"
             style="fill:#f2734c;fill-opacity:1;fill-rule:nonzero;stroke:none"
             d="M 0,0 C 0,0 -3.365,-2.847 1.146,-2.249" /></g><g
           transform="translate(111.8745,134.3105)"
           id="g348"><path
             id="path350"
             style="fill:#f05c5a;fill-opacity:1;fill-rule:nonzero;stroke:none"
             d="M 0,0 C 0.106,0.904 7.324,1.748 3.636,-3.246 2.599,-3.468 1.756,-3.591 1.073,-3.638 -3.293,-3.939 -1.12,-1.137 -1.12,-1.137 L 0,0 Z" /></g><g
           transform="translate(111.8745,134.3105)"
           id="g352"><path
             id="path354"
             style="fill:none;stroke:#231f20;stroke-width:0.303;stroke-linecap:butt;stroke-linejoin:miter;stroke-miterlimit:10;stroke-dasharray:none;stroke-opacity:1"
             d="M 0,0 C 0.106,0.904 7.324,1.748 3.636,-3.246 2.599,-3.468 1.756,-3.591 1.073,-3.638 -3.293,-3.939 -1.12,-1.137 -1.12,-1.137 L 0,0 Z" /></g><g
           transform="translate(119.707,128.3872)"
           id="g356"><path
             id="path358"
             style="fill:#f05c5a;fill-opacity:1;fill-rule:nonzero;stroke:none"
             d="M 0,0 -8.143,2.083 -0.288,-6.662 -3.267,-0.815 0,0 Z" /></g><g
           transform="translate(119.707,128.3872)"
           id="g360"><path
             id="path362"
             style="fill:none;stroke:#231f20;stroke-width:0.303;stroke-linecap:butt;stroke-linejoin:miter;stroke-miterlimit:10;stroke-dasharray:none;stroke-opacity:1"
             d="M 0,0 -8.143,2.083 -0.288,-6.662 -3.267,-0.815 0,0 Z" /></g><g
           transform="translate(100.8447,186.3081)"
           id="g364"><path
             id="path366"
             style="fill:#a84424;fill-opacity:1;fill-rule:nonzero;stroke:none"
             d="m 0,0 -8.816,-1.948 c 0,0 -18.063,-4.175 -14.005,-8.701 6.939,-7.739 -0.339,-27.652 -0.339,-27.652 0,0 3.155,-0.786 2.581,-3.827 -0.573,-3.041 -0.591,-6.55 -0.424,-8.924 0.167,-2.374 2.389,-3.343 1.575,-5.417 -0.814,-2.074 4.263,-3.783 3.763,-5.417 -0.5,-1.634 2.482,-2.109 2.082,-3.415 -0.4,-1.308 3.828,-0.266 3.755,-1.673 -0.073,-1.407 -2.161,-6.806 -2.161,-6.806 0,0 -2.874,5.303 -2.021,5.756 0.854,0.454 -6.225,2.464 -3.664,3.824 2.561,1.361 -5.684,3.015 -3.816,5.898 0.799,1.233 -8.54,16.231 -5.739,16.624 2.801,0.394 -1.806,0.914 -3.247,6.331 -2.741,10.31 -2.978,26.171 -1.746,27.64 1.231,1.47 16.908,10.866 21.638,11.662 C -3.048,5.222 0,0 0,0" /></g><g
           transform="translate(100.8447,186.3081)"
           id="g368"><path
             id="path370"
             style="fill:none;stroke:#231f20;stroke-width:0.755;stroke-linecap:butt;stroke-linejoin:miter;stroke-miterlimit:10;stroke-dasharray:none;stroke-opacity:1"
             d="m 0,0 -8.816,-1.948 c 0,0 -18.063,-4.175 -14.005,-8.701 6.939,-7.739 -0.339,-27.652 -0.339,-27.652 0,0 3.155,-0.786 2.581,-3.827 -0.573,-3.041 -0.591,-6.55 -0.424,-8.924 0.167,-2.374 2.389,-3.343 1.575,-5.417 -0.814,-2.074 4.263,-3.783 3.763,-5.417 -0.5,-1.634 2.482,-2.109 2.082,-3.415 -0.4,-1.308 3.828,-0.266 3.755,-1.673 -0.073,-1.407 -2.161,-6.806 -2.161,-6.806 0,0 -2.874,5.303 -2.021,5.756 0.854,0.454 -6.225,2.464 -3.664,3.824 2.561,1.361 -5.684,3.015 -3.816,5.898 0.799,1.233 -8.54,16.231 -5.739,16.624 2.801,0.394 -1.806,0.914 -3.247,6.331 -2.741,10.31 -2.978,26.171 -1.746,27.64 1.231,1.47 16.908,10.866 21.638,11.662 C -3.048,5.222 0,0 0,0 Z" /></g><g
           transform="translate(70.6772,179.8022)"
           id="g372"><path
             id="path374"
             style="fill:#a84424;fill-opacity:1;fill-rule:nonzero;stroke:none"
             d="m 0,0 c 0,0 8.14,-9.793 16.439,-5.709 -2.482,4.83 -2.322,5.577 -2.322,5.577 0,0 12.542,-1.28 17.88,-3.361 5.337,-2.081 14.465,-18.572 14.465,-18.572 0,0 0.641,-3.577 2.83,-5.765 2.188,-2.188 1.68,-2.001 2.881,-4.056 1.202,-2.054 -2.215,-4.136 -0.373,-5.39 1.842,-1.254 0.668,-3.816 2.002,-4.884 1.334,-1.067 -0.924,-4.425 -1.307,-5.737 -0.88,-3.016 1.056,-4.19 2.348,-3.629 3.016,1.308 5.925,-0.8 4.964,-0.907 -0.961,-0.107 1.815,7.739 -1.067,7.418 -2.883,-0.32 -1.575,5.418 -3.043,5.497 -1.468,0.08 2.243,3.882 2.027,5.818 -0.587,5.284 -4.563,10.434 -7.099,9.179 -2.535,-1.254 2.078,3.735 0.213,9.021 C 47.288,-5.44 28.651,8.175 27.379,9.609 24.043,13.372 20.894,11.076 11.074,7.553 3.287,4.759 0,0 0,0" /></g><g
           transform="translate(70.6772,179.8022)"
           id="g376"><path
             id="path378"
             style="fill:none;stroke:#231f20;stroke-width:0.755;stroke-linecap:butt;stroke-linejoin:miter;stroke-miterlimit:10;stroke-dasharray:none;stroke-opacity:1"
             d="m 0,0 c 0,0 8.14,-9.793 16.439,-5.709 -2.482,4.83 -2.322,5.577 -2.322,5.577 0,0 12.542,-1.28 17.88,-3.361 5.337,-2.081 14.465,-18.572 14.465,-18.572 0,0 0.641,-3.577 2.83,-5.765 2.188,-2.188 1.68,-2.001 2.881,-4.056 1.202,-2.054 -2.215,-4.136 -0.373,-5.39 1.842,-1.254 0.668,-3.816 2.002,-4.884 1.334,-1.067 -0.924,-4.425 -1.307,-5.737 -0.88,-3.016 1.056,-4.19 2.348,-3.629 3.016,1.308 5.925,-0.8 4.964,-0.907 -0.961,-0.107 1.815,7.739 -1.067,7.418 -2.883,-0.32 -1.575,5.418 -3.043,5.497 -1.468,0.08 2.243,3.882 2.027,5.818 -0.587,5.284 -4.563,10.434 -7.099,9.179 -2.535,-1.254 2.078,3.735 0.213,9.021 C 47.288,-5.44 28.651,8.175 27.379,9.609 24.043,13.372 20.894,11.076 11.074,7.553 3.287,4.759 0,0 0,0 Z" /></g><g
           transform="translate(129.3506,136.7905)"
           id="g380"><path
             id="path382"
             style="fill:#46b0e4;fill-opacity:1;fill-rule:nonzero;stroke:none"
             d="M 0,0 C 0,0 -7.774,1.669 -7.655,-2.371 -1.649,-2.97 0,0 0,0" /></g><g
           transform="translate(129.3506,136.7905)"
           id="g384"><path
             id="path386"
             style="fill:none;stroke:#231f20;stroke-width:0.31400001;stroke-linecap:butt;stroke-linejoin:miter;stroke-miterlimit:10;stroke-dasharray:none;stroke-opacity:1"
             d="M 0,0 C 0,0 -7.774,1.669 -7.655,-2.371 -1.649,-2.97 0,0 0,0 Z" /></g><g
           transform="translate(135.3848,135.9414)"
           id="g388"><path
             id="path390"
             style="fill:#46b0e4;fill-opacity:1;fill-rule:nonzero;stroke:#231f20;stroke-width:0.31400001;stroke-linecap:butt;stroke-linejoin:miter;stroke-miterlimit:10;stroke-dasharray:none;stroke-opacity:1"
             d="m 0,0 c -5.728,-1.903 -7.989,0.632 -7.989,0.632 0,0 7.218,3.336 7.989,-0.632" /></g><g
           transform="translate(127.5342,135.6504)"
           id="g392"><path
             id="path394"
             style="fill:#231f20;fill-opacity:1;fill-rule:nonzero;stroke:none"
             d="M 0,0 C 1.012,0 1.013,1.572 0,1.572 -1.011,1.572 -1.013,0 0,0" /></g><g
           transform="translate(128.0479,135.7075)"
           id="g396"><path
             id="path398"
             style="fill:#231f20;fill-opacity:1;fill-rule:nonzero;stroke:none"
             d="M 0,0 C 1.011,0 1.013,1.572 0,1.572 -1.012,1.572 -1.013,0 0,0" /></g><g
           transform="translate(128.7764,135.3896)"
           id="g400"><path
             id="path402"
             style="fill:#231f20;fill-opacity:1;fill-rule:nonzero;stroke:none"
             d="M 0,0 C 1.011,0 1.013,1.571 0,1.571 -1.012,1.571 -1.014,0 0,0" /></g><g
           transform="translate(87.375,120.7441)"
           id="g404"><path
             id="path406"
             style="fill:#46b0e4;fill-opacity:1;fill-rule:nonzero;stroke:none"
             d="M 0,0 C 0,0 -9.813,0.05 -7.705,-5.857 -0.462,-4.881 0,0 0,0" /></g><g
           transform="translate(87.375,120.7441)"
           id="g408"><path
             id="path410"
             style="fill:none;stroke:#231f20;stroke-width:0.33899999;stroke-linecap:butt;stroke-linejoin:miter;stroke-miterlimit:10;stroke-dasharray:none;stroke-opacity:1"
             d="M 0,0 C 0,0 -9.813,0.05 -7.705,-5.857 -0.462,-4.881 0,0 0,0 Z" /></g><g
           transform="translate(94.7725,121.3613)"
           id="g412"><path
             id="path414"
             style="fill:#46b0e4;fill-opacity:1;fill-rule:nonzero;stroke:#231f20;stroke-width:0.33899999;stroke-linecap:butt;stroke-linejoin:miter;stroke-miterlimit:10;stroke-dasharray:none;stroke-opacity:1"
             d="m 0,0 c -5.702,-4.572 -9.555,-1.542 -9.555,-1.542 0,0 6.729,7.142 9.555,1.542" /></g><g
           transform="translate(85.7642,118.8164)"
           id="g416"><path
             id="path418"
             style="fill:#231f20;fill-opacity:1;fill-rule:nonzero;stroke:none"
             d="M 0,0 C 1.09,0 1.092,1.695 0,1.695 -1.09,1.695 -1.092,0 0,0" /></g><g
           transform="translate(85.8071,118.3037)"
           id="g420"><path
             id="path422"
             style="fill:#231f20;fill-opacity:1;fill-rule:nonzero;stroke:none"
             d="M 0,0 C 1.09,0 1.092,1.695 0,1.695 -1.091,1.695 -1.092,0 0,0" /></g><g
           transform="translate(86.1274,118.7959)"
           id="g424"><path
             id="path426"
             style="fill:#231f20;fill-opacity:1;fill-rule:nonzero;stroke:none"
             d="M 0,0 C 1.09,0 1.092,1.694 0,1.694 -1.091,1.694 -1.092,0 0,0" /></g><g
           transform="translate(86.8535,118.7529)"
           id="g428"><path
             id="path430"
             style="fill:#231f20;fill-opacity:1;fill-rule:nonzero;stroke:none"
             d="M 0,0 C 1.091,0 1.092,1.694 0,1.694 -1.09,1.694 -1.092,0 0,0" /></g><g
           transform="translate(120.0205,123.3862)"
           id="g432"><path
             id="path434"
             style="fill:#231f20;fill-opacity:1;fill-rule:nonzero;stroke:none"
             d="M 0,0 C 0.896,1.397 1.794,2.795 2.69,4.192 3.13,4.876 2.041,5.508 1.604,4.828 0.707,3.43 -0.189,2.033 -1.087,0.635 -1.525,-0.048 -0.437,-0.68 0,0" /></g><g
           transform="translate(99.8237,171.9575)"
           id="g436"><path
             id="path438"
             style="fill:#231f20;fill-opacity:1;fill-rule:nonzero;stroke:none"
             d="M 0,0 C 1.712,0.695 3.126,1.826 4.172,3.351 4.401,3.686 3.856,4 3.628,3.668 2.684,2.291 1.381,1.235 -0.167,0.607 -0.538,0.457 -0.376,-0.152 0,0" /></g><g
           transform="translate(100.8462,172.2046)"
           id="g440"><path
             id="path442"
             style="fill:#231f20;fill-opacity:1;fill-rule:nonzero;stroke:none"
             d="M 0,0 C 0.967,0.105 1.976,-0.127 2.926,0.139 3.916,0.417 4.27,1.237 4.237,2.21 4.224,2.614 3.595,2.616 3.608,2.21 3.679,0.095 1.393,0.781 0,0.629 -0.398,0.586 -0.403,-0.043 0,0" /></g><g
           transform="translate(84.0234,165.7319)"
           id="g444"><path
             id="path446"
             style="fill:#231f20;fill-opacity:1;fill-rule:nonzero;stroke:none"
             d="m 0,0 c -1.179,-1.987 -3.854,-2.385 -5.804,-1.303 -0.354,0.197 -0.672,-0.346 -0.318,-0.543 2.256,-1.252 5.309,-0.758 6.665,1.529 C 0.75,0.031 0.207,0.348 0,0" /></g><g
           transform="translate(82.0532,163.4072)"
           id="g448"><path
             id="path450"
             style="fill:#231f20;fill-opacity:1;fill-rule:nonzero;stroke:none"
             d="m 0,0 c -0.567,-3.49 -4.061,-5.45 -7.327,-3.974 -0.366,0.166 -0.687,-0.376 -0.318,-0.543 3.596,-1.626 7.611,0.407 8.252,4.35 C 0.671,0.229 0.065,0.399 0,0" /></g></g></g><g
       id="text452"
       style="font-variant:normal;font-weight:normal;font-stretch:normal;font-size:20.00006866px;font-family:'Museo 500';-inkscape-font-specification:Museo-500;writing-mode:lr-tb;fill:#231f20;fill-opacity:1;fill-rule:nonzero;stroke:none"
       transform="matrix(0.9513867,0.30799893,0.30799893,-0.9513867,66.8417,21.7357)"><path
         id="path457"
         style=""
         d="m 2.0600071,0 2.0000068,0 0,-5.6200193 1.8400064,0 c 0.7800026,0 1.0400035,0.1000003 1.4000048,0.7600026 l 1.9200066,3.8000131 C 9.6800332,-0.14000048 10.080035,0 11.180038,0 l 0.980004,0 0,-1.7200059 -0.260001,0 c -0.480002,0 -0.800003,-0.04 -1.000004,-0.4600016 L 9.2000316,-5.5600191 C 8.9600308,-6.0200207 8.6000295,-6.2000213 8.6000295,-6.2000213 l 0,-0.04 c 1.0000035,-0.2200008 2.5400085,-1.3800048 2.5400085,-3.7400129 0,-2.5800087 -1.7400057,-4.1400137 -4.2200142,-4.1400137 l -6.16002119,0 0,1.720005 1.30000449,0 0,12.400043 z m 2.0000068,-7.3400252 0,-5.0600178 2.6400091,0 c 1.4800051,0 2.3800082,0.920004 2.3800082,2.500009 0,1.5800054 -0.9000031,2.5600088 -2.4200083,2.5600088 l -2.600009,0 z" /><path
         id="path459"
         style=""
         d="m 12.840044,-5.0600174 c 0,3.0000103 2.180008,5.30001822 5.380019,5.30001822 2.400008,0 3.900013,-1.48000512 3.900013,-1.48000512 L 21.280073,-2.620009 c 0,0 -1.220004,1.1800041 -2.96001,1.1800041 -1.800006,0 -3.360011,-1.2200042 -3.480012,-3.3800116 l 7.380026,0 c 0,0 0.06,-0.5400019 0.06,-0.8000028 0,-2.620009 -1.520005,-4.7400167 -4.360015,-4.7400167 -2.88001,0 -5.080018,2.0800076 -5.080018,5.3000186 z m 2.080007,-1.180004 c 0.300001,-1.6800058 1.500006,-2.5800089 2.980011,-2.5800089 1.260004,0 2.320008,0.9000031 2.380008,2.5800089 l -5.360019,0 z" /><path
         id="path461"
         style=""
         d="m 23.800082,-5.0600174 c 0,3.1400108 1.720006,5.30001822 4.460015,5.30001822 2.480009,0 3.320012,-1.84000632 3.320012,-1.84000632 l 0.04,0 c 0,0 -0.02,0.2200008 -0.02,0.5200018 C 31.600109,-0.40000137 31.96011,0 32.840113,0 l 1.860007,0 0,-1.6600057 -0.820003,0 c -0.280001,0 -0.440002,-0.1400005 -0.440002,-0.4400015 l 0,-10.7400368 c 0,-0.900003 -0.380001,-1.280004 -1.280004,-1.280004 l -1.920007,0 0,1.660005 0.820003,0 c 0.280001,0 0.440002,0.140001 0.440002,0.440002 l 0,2.5400085 c 0,0.3800013 0.04,0.6800023 0.04,0.6800023 l -0.04,0 c 0,0 -0.780003,-1.5600058 -3.120011,-1.5600058 -2.680009,0 -4.580016,2.0800076 -4.580016,5.3000186 z m 4.840017,3.6200125 c -1.680006,0 -2.86001,-1.4200049 -2.86001,-3.6200125 0,-2.3000079 1.320004,-3.6200124 2.90001,-3.6200124 1.940007,0 2.88001,1.8000062 2.88001,3.6000124 0,2.5800088 -1.420005,3.6400125 -2.92001,3.6400125 z" /><path
         id="path463"
         style=""
         d="m 42.400148,0 2.000007,0 0,-5.6200193 1.840007,0 c 0.780002,0 1.040003,0.1000003 1.400004,0.7600026 l 1.920007,3.8000131 C 50.020175,-0.14000048 50.420176,0 51.52018,0 l 0.980003,0 0,-1.7200059 -0.260001,0 c -0.480001,0 -0.800003,-0.04 -1.000003,-0.4600016 l -1.700006,-3.3800116 c -0.240001,-0.4600016 -0.600002,-0.6400022 -0.600002,-0.6400022 l 0,-0.04 c 1.000003,-0.2200008 2.540009,-1.3800048 2.540009,-3.7400129 0,-2.5800087 -1.740006,-4.1400137 -4.220015,-4.1400137 l -6.160021,0 0,1.720005 1.300004,0 0,12.400043 z m 2.000007,-7.3400252 0,-5.0600178 2.640009,0 c 1.480005,0 2.380008,0.920004 2.380008,2.500009 0,1.5800054 -0.900003,2.5600088 -2.420008,2.5600088 l -2.600009,0 z" /><path
         id="path465"
         style=""
         d="m 54.440188,-12.100042 1.740006,0 0,-2.020006 -1.740006,0 0,2.020006 z m -0.04,10.8200376 C 54.400188,-0.3800013 54.780189,0 55.680192,0 l 1.900007,0 0,-1.6600057 -0.820003,0 c -0.280001,0 -0.440002,-0.1400005 -0.440002,-0.4400015 l 0,-6.7400231 c 0,-0.9000031 -0.380001,-1.2800047 -1.280004,-1.2800047 l -1.900007,0 0,1.660006 0.820003,0 c 0.280001,0 0.440002,0.1400004 0.440002,0.4400015 l 0,6.7400231 z" /><path
         id="path467"
         style=""
         d="m 58.740205,-5.0600174 c 0,3.1400108 1.720006,5.30001822 4.460015,5.30001822 2.480009,0 3.320011,-1.84000632 3.320011,-1.84000632 l 0.04,0 c 0,0 -0.02,0.2200008 -0.02,0.5200018 C 66.540231,-0.40000137 66.900233,0 67.780236,0 l 1.860006,0 0,-1.6600057 -0.820003,0 c -0.280001,0 -0.440001,-0.1400005 -0.440001,-0.4400015 l 0,-10.7400368 c 0,-0.900003 -0.380001,-1.280004 -1.280005,-1.280004 l -1.920006,0 0,1.660005 0.820003,0 c 0.280001,0 0.440001,0.140001 0.440001,0.440002 l 0,2.5400085 c 0,0.3800013 0.04,0.6800023 0.04,0.6800023 l -0.04,0 c 0,0 -0.780003,-1.5600058 -3.120011,-1.5600058 -2.680009,0 -4.580015,2.0800076 -4.580015,5.3000186 z m 4.840016,3.6200125 c -1.680005,0 -2.860009,-1.4200049 -2.860009,-3.6200125 0,-2.3000079 1.320004,-3.6200124 2.900009,-3.6200124 1.940007,0 2.88001,1.8000062 2.88001,3.6000124 0,2.5800088 -1.420005,3.6400125 -2.92001,3.6400125 z" /><path
         id="path469"
         style=""
         d="m 71.84025,-12.100042 1.740006,0 0,-2.020006 -1.740006,0 0,2.020006 z m -0.04,10.8200376 C 71.80025,-0.3800013 72.180252,0 73.080255,0 l 1.900006,0 0,-1.6600057 -0.820003,0 c -0.280001,0 -0.440001,-0.1400005 -0.440001,-0.4400015 l 0,-6.7400231 c 0,-0.9000031 -0.380001,-1.2800047 -1.280004,-1.2800047 l -1.900007,0 0,1.660006 0.820003,0 c 0.280001,0 0.440001,0.1400004 0.440001,0.4400015 l 0,6.7400231 z" /><path
         id="path471"
         style=""
         d="m 77.100267,0 1.940006,0 0,-4.7400163 c 0,-0.5000017 0.04,-0.9600033 0.180001,-1.3600046 0.400001,-1.4600051 1.640006,-2.4800086 3.200011,-2.4800086 1.620006,0 1.900007,1.1200039 1.900007,2.5400088 l 0,4.7600163 C 84.320292,-0.3800013 84.700293,0 85.600296,0 l 1.920007,0 0,-1.6600057 -0.820003,0 c -0.280001,0 -0.440002,-0.1400005 -0.440002,-0.4400015 l 0,-4.380015 c 0,-2.5800089 -1.080003,-3.8800138 -3.480012,-3.8800138 -2.200007,0 -3.400011,1.4400054 -3.800013,2.3200084 l -0.04,0 c 0,0 0.04,-0.2600009 0.04,-0.580002 l 0,-0.3800013 c 0,-0.7400025 -0.420001,-1.1200041 -1.280004,-1.1200041 l -1.860007,0 0,1.660006 0.820003,0 c 0.280001,0 0.440002,0.1400004 0.440002,0.4400015 l 0,8.0200275 z" /><path
         id="path473"
         style=""
         d="m 88.560307,-5.3000182 c 0,2.92001 1.720006,5.18001779 4.520016,5.18001779 1.480005,0 2.420008,-0.56000192 3.02001,-1.54000529 l 0.04,0 c 0,0 -0.04,0.3200011 -0.04,0.6400022 l 0,0.68000233 c 0,2.04000697 -1.440005,2.82000967 -3.200011,2.82000967 -1.520005,0 -2.760009,-0.6800023 -2.760009,-0.6800023 l -0.660002,1.5600053 c 1.000003,0.5000018 2.240007,0.8400029 3.460011,0.8400029 2.560009,0 5.100018,-1.2800044 5.100018,-4.62001584 l 0,-7.64002626 c 0,-0.2600009 0.180001,-0.4000013 0.440001,-0.4000013 l 0.800003,0 0,-1.660006 -1.880006,0 c -0.800003,0 -1.120004,0.4200017 -1.120004,1.0200038 0,0.1600005 0,0.3200011 0,0.3200011 l -0.04,0 c 0,0 -0.720003,-1.5800059 -3.240011,-1.5800059 -2.82001,0 -4.440016,2.1600078 -4.440016,5.0600178 z m 4.900017,3.500012 c -1.820006,0 -2.92001,-1.4400049 -2.92001,-3.5400121 0,-2.0600071 1.000004,-3.3400115 2.76001,-3.3400115 1.560005,0 2.86001,0.7600026 2.86001,3.4000117 0,2.640009 -1.300005,3.4800119 -2.70001,3.4800119 z" /><path
         id="path475"
         style=""
         d="m 105.58036,-1.8600064 c 0,0 1.68001,2.10000722 4.68002,2.10000722 2.80001,0 4.48001,-1.86000642 4.48001,-4.02001382 0,-4.6400159 -6.80002,-4.0000137 -6.80002,-6.860024 0,-1.060003 0.96,-1.900006 2.48001,-1.900006 1.12,0 2.18001,0.540002 2.18001,1.280004 l 0,0.660003 1.84,0 0,-1.160004 c 0,-1.920007 -2.52001,-2.600009 -4.02001,-2.600009 -2.66001,0 -4.52002,1.660005 -4.52002,3.780013 0,4.4000148 6.82003,3.9400132 6.82003,6.9000234 0,1.3000044 -1.10001,2.1000072 -2.42001,2.1000072 -2.10001,0 -3.54001,-1.7000059 -3.54001,-1.7000059 l -1.18001,1.4200049 z" /><path
         id="path477"
         style=""
         d="m 116.2804,-5.0600174 c 0,3.0000103 2.18001,5.30001822 5.38002,5.30001822 2.40001,0 3.90002,-1.48000512 3.90002,-1.48000512 l -0.84001,-1.3800047 c 0,0 -1.22,1.1800041 -2.96001,1.1800041 -1.8,0 -3.36001,-1.2200042 -3.48001,-3.3800116 l 7.38003,0 c 0,0 0.06,-0.5400019 0.06,-0.8000028 0,-2.620009 -1.52001,-4.7400167 -4.36002,-4.7400167 -2.88001,0 -5.08002,2.0800076 -5.08002,5.3000186 z m 2.08001,-1.180004 c 0.3,-1.6800058 1.50001,-2.5800089 2.98001,-2.5800089 1.26001,0 2.32001,0.9000031 2.38001,2.5800089 l -5.36002,0 z" /><path
         id="path479"
         style=""
         d="m 127.22043,-5.0600174 c 0,3.0000103 2.18001,5.30001822 5.38002,5.30001822 2.40001,0 3.90001,-1.48000512 3.90001,-1.48000512 l -0.84,-1.3800047 c 0,0 -1.22001,1.1800041 -2.96001,1.1800041 -1.80001,0 -3.36001,-1.2200042 -3.48001,-3.3800116 l 7.38002,0 c 0,0 0.06,-0.5400019 0.06,-0.8000028 0,-2.620009 -1.52,-4.7400167 -4.36001,-4.7400167 -2.88001,0 -5.08002,2.0800076 -5.08002,5.3000186 z m 2.08001,-1.180004 c 0.3,-1.6800058 1.5,-2.5800089 2.98001,-2.5800089 1.26,0 2.32001,0.9000031 2.38001,2.5800089 l -5.36002,0 z" /><path
         id="path481"
         style=""
         d="m 138.18048,-5.0600174 c 0,3.1400108 1.72,5.30001822 4.46001,5.30001822 2.48001,0 3.32001,-1.84000632 3.32001,-1.84000632 l 0.04,0 c 0,0 -0.02,0.2200008 -0.02,0.5200018 C 145.9805,-0.40000137 146.34051,0 147.22051,0 l 1.86001,0 0,-1.6600057 -0.82001,0 c -0.28,0 -0.44,-0.1400005 -0.44,-0.4400015 l 0,-10.7400368 c 0,-0.900003 -0.38,-1.280004 -1.28,-1.280004 l -1.92001,0 0,1.660005 0.82,0 c 0.28,0 0.44,0.140001 0.44,0.440002 l 0,2.5400085 c 0,0.3800013 0.04,0.6800023 0.04,0.6800023 l -0.04,0 c 0,0 -0.78,-1.5600058 -3.12001,-1.5600058 -2.68001,0 -4.58001,2.0800076 -4.58001,5.3000186 z m 4.84001,3.6200125 c -1.68,0 -2.86001,-1.4200049 -2.86001,-3.6200125 0,-2.3000079 1.32001,-3.6200124 2.90001,-3.6200124 1.94001,0 2.88001,1.8000062 2.88001,3.6000124 0,2.5800088 -1.42,3.6400125 -2.92001,3.6400125 z" /></g></g></svg>