<?xml version="1.0" encoding="UTF-8" standalone="no"?>
<svg
   xmlns:dc="http://purl.org/dc/elements/1.1/"
   xmlns:cc="http://creativecommons.org/ns#"
   xmlns:rdf="http://www.w3.org/1999/02/22-rdf-syntax-ns#"
   xmlns:svg="http://www.w3.org/2000/svg"
   xmlns="http://www.w3.org/2000/svg"
   viewBox="0 0 281.25 312.20499"
   height="312.20499"
   width="281.25"
   xml:space="preserve"
   version="1.1"
   id="svg2"><metadata
     id="metadata8"><rdf:RDF><cc:Work
         rdf:about=""><dc:format>image/svg+xml</dc:format><dc:type
           rdf:resource="http://purl.org/dc/dcmitype/StillImage" /></cc:Work></rdf:RDF></metadata><defs
     id="defs6"><clipPath
       id="clipPath20"
       clipPathUnits="userSpaceOnUse"><path
         id="path22"
         d="m 0,0 225,0 0,249.764 -225,0 L 0,0 Z" /></clipPath><clipPath
       id="clipPath40"
       clipPathUnits="userSpaceOnUse"><path
         id="path42"
         d="m 0,0 225,0 0,249.764 -225,0 L 0,0 Z" /></clipPath><clipPath
       id="clipPath68"
       clipPathUnits="userSpaceOnUse"><path
         id="path70"
         d="m 0,249.764 225,0 L 225,0 0,0 0,249.764 Z" /></clipPath><clipPath
       id="clipPath420"
       clipPathUnits="userSpaceOnUse"><path
         id="path422"
         d="m 113.904,118.18 2.369,0 0,-2.37 -2.369,0 0,2.37 z" /></clipPath><clipPath
       id="clipPath436"
       clipPathUnits="userSpaceOnUse"><path
         id="path438"
         d="m 108.19,119.081 2.369,0 0,-2.369 -2.369,0 0,2.369 z" /></clipPath><clipPath
       id="clipPath452"
       clipPathUnits="userSpaceOnUse"><path
         id="path454"
         d="m 113.474,116.056 2.369,0 0,-2.369 -2.369,0 0,2.369 z" /></clipPath><clipPath
       id="clipPath468"
       clipPathUnits="userSpaceOnUse"><path
         id="path470"
         d="m 109.329,133.284 2.37,0 0,-2.369 -2.37,0 0,2.369 z" /></clipPath><clipPath
       id="clipPath484"
       clipPathUnits="userSpaceOnUse"><path
         id="path486"
         d="m 110.59,120.2 2.37,0 0,-2.37 -2.37,0 0,2.37 z" /></clipPath><clipPath
       id="clipPath500"
       clipPathUnits="userSpaceOnUse"><path
         id="path502"
         d="m 110.361,116.047 2.37,0 0,-2.37 -2.37,0 0,2.37 z" /></clipPath><clipPath
       id="clipPath516"
       clipPathUnits="userSpaceOnUse"><path
         id="path518"
         d="m 118.501,127.065 2.37,0 0,-2.37 -2.37,0 0,2.37 z" /></clipPath><clipPath
       id="clipPath532"
       clipPathUnits="userSpaceOnUse"><path
         id="path534"
         d="m 117.438,114.231 2.369,0 0,-2.37 -2.369,0 0,2.37 z" /></clipPath><clipPath
       id="clipPath548"
       clipPathUnits="userSpaceOnUse"><path
         id="path550"
         d="m 111.212,131.75 2.37,0 0,-2.37 -2.37,0 0,2.37 z" /></clipPath><clipPath
       id="clipPath564"
       clipPathUnits="userSpaceOnUse"><path
         id="path566"
         d="m 106.721,130.3 2.37,0 0,-2.369 -2.37,0 0,2.369 z" /></clipPath><clipPath
       id="clipPath580"
       clipPathUnits="userSpaceOnUse"><path
         id="path582"
         d="m 111.823,127.206 2.37,0 0,-2.37 -2.37,0 0,2.37 z" /></clipPath><clipPath
       id="clipPath596"
       clipPathUnits="userSpaceOnUse"><path
         id="path598"
         d="m 113.559,123.503 2.37,0 0,-2.37 -2.37,0 0,2.37 z" /></clipPath><clipPath
       id="clipPath612"
       clipPathUnits="userSpaceOnUse"><path
         id="path614"
         d="m 116.564,124.906 2.369,0 0,-2.369 -2.369,0 0,2.369 z" /></clipPath><clipPath
       id="clipPath628"
       clipPathUnits="userSpaceOnUse"><path
         id="path630"
         d="m 120.647,114.022 2.369,0 0,-2.369 -2.369,0 0,2.369 z" /></clipPath><clipPath
       id="clipPath644"
       clipPathUnits="userSpaceOnUse"><path
         id="path646"
         d="m 123.557,112.473 2.37,0 0,-2.37 -2.37,0 0,2.37 z" /></clipPath><clipPath
       id="clipPath660"
       clipPathUnits="userSpaceOnUse"><path
         id="path662"
         d="m 108.415,125.054 2.37,0 0,-2.37 -2.37,0 0,2.37 z" /></clipPath><clipPath
       id="clipPath676"
       clipPathUnits="userSpaceOnUse"><path
         id="path678"
         d="m 101.689,124.835 2.37,0 0,-2.37 -2.37,0 0,2.37 z" /></clipPath><clipPath
       id="clipPath692"
       clipPathUnits="userSpaceOnUse"><path
         id="path694"
         d="m 106.973,121.81 2.37,0 0,-2.37 -2.37,0 0,2.37 z" /></clipPath><clipPath
       id="clipPath708"
       clipPathUnits="userSpaceOnUse"><path
         id="path710"
         d="m 104.905,118.73 2.369,0 0,-2.37 -2.369,0 0,2.37 z" /></clipPath><clipPath
       id="clipPath724"
       clipPathUnits="userSpaceOnUse"><path
         id="path726"
         d="m 104.09,125.953 2.369,0 0,-2.369 -2.369,0 0,2.369 z" /></clipPath><clipPath
       id="clipPath740"
       clipPathUnits="userSpaceOnUse"><path
         id="path742"
         d="m 103.962,121.649 2.37,0 0,-2.369 -2.37,0 0,2.369 z" /></clipPath></defs><g
     transform="matrix(1.25,0,0,-1.25,0,312.205)"
     id="g10"><g
       transform="translate(1.449,45.846)"
       id="g12"><path
         id="path14"
         style="fill:#f5f5f5;fill-opacity:1;fill-rule:nonzero;stroke:none"
         d="M 0,0 166.043,-45.469 220.074,150.89 56.008,198.332 0,0 Z" /></g><g
       id="g16"><g
         clip-path="url(#clipPath20)"
         id="g18"><g
           transform="translate(57.457,244.1777)"
           id="g24"><path
             id="path26"
             style="fill:none;stroke:#100f0d;stroke-width:0.61000001;stroke-linecap:butt;stroke-linejoin:miter;stroke-miterlimit:10;stroke-dasharray:none;stroke-opacity:1"
             d="M 0,0 164.066,-47.441 110.035,-243.801 -56.008,-198.332 0,0 Z" /></g></g></g><g
       transform="translate(64.8442,228.7324)"
       id="g28"><path
         id="path30"
         style="fill:#f5f5f5;fill-opacity:1;fill-rule:nonzero;stroke:none"
         d="M 0,0 -40.489,-142.278 99.195,-183.539 141.894,-40.949 0,0 Z" /></g><g
       transform="translate(64.8442,228.7324)"
       id="g32"><path
         id="path34"
         style="fill:none;stroke:#000000;stroke-width:0.639;stroke-linecap:butt;stroke-linejoin:miter;stroke-miterlimit:4;stroke-dasharray:none;stroke-opacity:1"
         d="M 0,0 -40.489,-142.278 99.195,-183.539 141.894,-40.949 0,0 Z" /></g><g
       id="g36"><g
         clip-path="url(#clipPath40)"
         id="g38"><g
           transform="translate(0.3789,200.7554)"
           id="g44"><path
             id="path46"
             style="fill:none;stroke:#100f0d;stroke-width:0.61000001;stroke-linecap:butt;stroke-linejoin:miter;stroke-miterlimit:10;stroke-dasharray:none;stroke-opacity:1"
             d="M 0,0 163.723,48.629 224.234,-145.82 59.918,-197.183 0,0 Z" /></g></g></g><g
       transform="translate(0.3789,200.7558)"
       id="g48"><path
         id="path50"
         style="fill:#f5f5f5;fill-opacity:1;fill-rule:nonzero;stroke:none"
         d="M 0,0 59.918,-197.184 224.234,-145.821 163.723,48.629 0,0 Z" /></g><g
       transform="translate(15.8398,190.2441)"
       id="g52"><path
         id="path54"
         style="fill:#e8e7e5;fill-opacity:1;fill-rule:nonzero;stroke:none"
         d="M 0,0 139.629,42.929 183.102,-97.27 44.558,-141.066 0,0 Z" /></g><g
       transform="translate(15.8398,190.2441)"
       id="g56"><path
         id="path58"
         style="fill:none;stroke:#100f0d;stroke-width:0.49700001;stroke-linecap:butt;stroke-linejoin:miter;stroke-miterlimit:10;stroke-dasharray:none;stroke-opacity:1"
         d="M 0,0 139.629,42.929 183.102,-97.27 44.558,-141.066 0,0 Z" /></g><g
       id="text60"
       style="font-variant:normal;font-weight:normal;font-stretch:normal;font-size:19.9999733px;font-family:'Museo 500';-inkscape-font-specification:Museo-500;writing-mode:lr-tb;fill:#231f20;fill-opacity:1;fill-rule:nonzero;stroke:none"
       transform="matrix(0.95138623,0.3080004,0.3080004,-0.95138623,101.6056,38.1477)"><path
         id="path761"
         style=""
         d="M 0.39999947,0 2.1799971,0 c 0.9199988,0 1.2399983,-0.37999949 1.2999983,-1.2799983 l 0.5599992,-7.45999 c 0.06,-0.8399989 0.04,-2.0999977 0.04,-2.0999977 l 0.04,0 c 0,0 0.4199994,1.3599987 0.759999,2.0999977 l 2.8599962,6.1999917 1.6799977,0 2.8599966,-6.1999917 c 0.339999,-0.759999 0.739999,-2.0799977 0.739999,-2.0799977 l 0.04,0 c 0,0 -0.02,1.2399988 0.04,2.0799977 l 0.579999,7.45999 C 13.739982,-0.37999949 14.059981,0 14.95998,0 l 1.779998,0 0,-1.7199977 -0.659999,0 c -0.28,0 -0.42,-0.1599998 -0.44,-0.4399994 l -0.959999,-11.9599839 -2.059997,0 -3.3199954,7.4799899 c -0.3399996,0.759999 -0.6999991,1.7799976 -0.6999991,1.7799976 l -0.04,0 c 0,0 -0.3599995,-1.0199986 -0.6999991,-1.7799976 l -3.3199956,-7.4799899 -2.0599972,0 -0.9599987,11.9599839 c -0.02,0.2799996 -0.1599998,0.4399994 -0.4399994,0.4399994 l -0.67999913,0 0,1.7199977 z" /><path
         id="path763"
         style=""
         d="m 17.859977,-5.0599932 c 0,2.999996 2.179998,5.29999288 5.379993,5.29999288 2.399997,0 3.899995,-1.47999798 3.899995,-1.47999798 l -0.839999,-1.3799982 c 0,0 -1.219998,1.1799984 -2.959996,1.1799984 -1.799997,0 -3.359995,-1.2199983 -3.479995,-3.3799955 l 7.37999,0 c 0,0 0.06,-0.5399992 0.06,-0.7999989 0,-2.6199965 -1.519998,-4.7399935 -4.359994,-4.7399935 -2.879996,0 -5.079994,2.0799971 -5.079994,5.2999928 z m 2.079998,-1.1799985 c 0.299999,-1.6799977 1.499998,-2.5799965 2.979996,-2.5799965 1.259998,0 2.319997,0.8999988 2.379997,2.5799965 l -5.359993,0 z" /><path
         id="path765"
         style=""
         d="m 29.879962,0 1.939997,0 0,-4.1399945 c 0,-0.6199991 0.06,-1.2399983 0.24,-1.8199975 0.459999,-1.499998 1.599998,-2.3799969 2.839996,-2.3799969 0.32,0 0.579999,0.06 0.579999,0.06 l 0,-1.9199971 c 0,0 -0.259999,-0.04 -0.519999,-0.04 -1.559998,0 -2.719996,1.1599981 -3.199996,2.6399961 l -0.04,0 c 0,0 0.04,-0.2999996 0.04,-0.699999 l 0,-0.6399992 c 0,-0.8199989 -0.419999,-1.1799979 -1.299998,-1.1799979 l -1.839998,0 0,1.6599973 0.819999,0 c 0.28,0 0.44,0.1399998 0.44,0.4399994 l 0,8.0199893 z" /><path
         id="path767"
         style=""
         d="m 37.75995,0 1.939997,0 0,-4.6199938 c 0,-0.4599994 0.04,-0.8999988 0.14,-1.2999983 0.379999,-1.4399981 1.419998,-2.6799964 2.899996,-2.6799964 1.539998,0 1.739998,1.2199984 1.739998,2.5399966 l 0,6.0599919 1.939997,0 0,-4.6199938 c 0,-0.5199993 0.06,-0.9599987 0.16,-1.3799982 0.359999,-1.3799981 1.439998,-2.5999965 2.839996,-2.5999965 1.499998,0 1.779998,1.1199985 1.779998,2.5399966 l 0,4.7799936 C 51.199932,-0.37999949 51.579931,0 52.47993,0 l 1.919997,0 0,-1.6599978 -0.819999,0 c -0.279999,0 -0.439999,-0.1399998 -0.439999,-0.4399994 l 0,-4.3799941 c 0,-2.5799966 -1.059999,-3.8799947 -3.339996,-3.8799947 -1.639997,0 -3.039996,1.0799984 -3.599995,2.2999968 l -0.04,0 c -0.339999,-1.519998 -1.319998,-2.2999968 -3.039996,-2.2999968 -1.579998,0 -2.979996,1.1399983 -3.459995,2.3199967 l -0.04,0 c 0,0 0.02,-0.2599996 0.02,-0.5799992 l 0,-0.3799995 c 0,-0.739999 -0.399999,-1.119998 -1.279998,-1.119998 l -1.859998,0 0,1.6599973 0.819999,0 c 0.28,0 0.44,0.1399998 0.44,0.4399994 L 37.75995,0 Z" /><path
         id="path769"
         style=""
         d="m 55.53993,-2.8399962 c 0,2.01999729 1.699997,3.07999588 3.439995,3.07999588 2.419997,0 3.219996,-1.99999738 3.219996,-1.99999738 l 0.04,0 c 0,0 -0.04,0.2599997 -0.04,0.5999992 C 62.199921,-0.43999941 62.55992,0 63.459919,0 l 1.819998,0 0,-1.6599978 -0.819999,0 c -0.28,0 -0.44,-0.1399998 -0.44,-0.4399994 l 0,-4.2999943 c 0,-2.239997 -0.879999,-3.9599945 -4.159994,-3.9599945 -0.979999,0 -3.499996,0.24 -3.499996,1.8999973 l 0,0.9999987 1.819998,0 0,-0.5799993 c 0,-0.6599991 1.179998,-0.7799989 1.659998,-0.7799989 1.579998,0 2.239997,0.6399991 2.239997,2.4199967 l 0,0.1 -0.44,0 c -1.699997,0 -6.099991,0.1999997 -6.099991,3.4599954 z m 1.959997,-0.1 c 0,-1.8599975 2.639996,-1.9399974 4.099994,-1.9399974 l 0.5,0 0,0.3399996 c 0,1.499998 -1.059999,3.2199957 -2.699997,3.2199957 -1.279998,0 -1.899997,-0.799999 -1.899997,-1.6199979 z" /><path
         id="path771"
         style=""
         d="m 67.519914,-12.099984 1.739998,0 0,-2.019997 -1.739998,0 0,2.019997 z m -0.04,10.8199857 C 67.479914,-0.37999949 67.859913,0 68.759912,0 l 1.899998,0 0,-1.6599978 -0.819999,0 c -0.28,0 -0.44,-0.1399998 -0.44,-0.4399994 l 0,-6.739991 c 0,-0.8999988 -0.379999,-1.2799978 -1.279998,-1.2799978 l -1.899997,0 0,1.6599973 0.819999,0 c 0.279999,0 0.439999,0.1399998 0.439999,0.4399994 l 0,6.739991 z" /><path
         id="path773"
         style=""
         d="m 71.919908,-5.0599932 c 0,3.1399958 1.719997,5.29999288 4.459994,5.29999288 2.479996,0 3.319995,-1.83999758 3.319995,-1.83999758 l 0.04,0 c 0,0 -0.02,0.2199997 -0.02,0.5199993 0,0.67999913 0.36,1.0799986 1.239999,1.0799986 l 1.859997,0 0,-1.6599978 -0.819999,0 c -0.279999,0 -0.439999,-0.1399998 -0.439999,-0.4399994 l 0,-10.7399858 c 0,-0.899999 -0.38,-1.279998 -1.279998,-1.279998 l -1.919998,0 0,1.659998 0.819999,0 c 0.28,0 0.439999,0.139999 0.439999,0.439999 l 0,2.5399967 c 0,0.3799994 0.04,0.679999 0.04,0.679999 l -0.04,0 c 0,0 -0.779998,-1.5599977 -3.119995,-1.5599977 -2.679997,0 -4.579994,2.0799971 -4.579994,5.2999928 z m 4.839993,3.6199951 c -1.679997,0 -2.859996,-1.4199981 -2.859996,-3.6199951 0,-2.299997 1.319998,-3.6199952 2.899996,-3.6199952 1.939998,0 2.879996,1.7999976 2.879996,3.5999952 0,2.5799965 -1.419998,3.6399951 -2.919996,3.6399951 z" /></g><g
       id="g64"><g
         clip-path="url(#clipPath68)"
         id="g66"><g
           transform="translate(117.252,129.5625)"
           id="g72"><path
             id="path74"
             style="fill:#ce202f;fill-opacity:1;fill-rule:nonzero;stroke:#000000;stroke-width:0.248;stroke-linecap:butt;stroke-linejoin:miter;stroke-miterlimit:10;stroke-dasharray:none;stroke-opacity:1"
             d="m 0,0 c 0,0 -3.912,-14.547 -29.833,-22.45 -2.919,-0.891 -7.655,1.946 -6.971,1.518 0.388,-0.478 3.908,-0.784 6.729,0.527 1.712,0.795 0.407,4.349 -0.994,5.421 -1.006,0.769 -2.319,1.139 -3.66,1.022 -3.392,-0.296 -10.565,-0.79 -14.25,-0.071 -1.825,0.356 -3.422,2.203 -4.51,3.837 -1.022,1.533 -1.283,3.402 -0.769,5.177 l 0.472,1.634 c 0.238,0.823 0.211,1.682 -0.093,2.468 -0.339,0.873 -0.933,2.096 -1.946,3.453 -1.987,2.659 -7.303,6.506 -9.946,8.105 -3.079,1.863 -3.643,6.424 -2.894,9.312 4.418,17.024 23.564,8.338 21.958,11.94 -13.999,31.386 6.218,37.155 10.265,39.164 0.339,0.168 0.655,0.373 0.931,0.619 0.204,0.181 0.4,0.392 0.472,0.582 0.262,0.684 2.134,1.892 11.439,2.616 13.536,1.052 16.263,-7.616 16.952,-7.031 C -0.383,69.672 2.709,62.24 3.7,59.889 4.83,57.208 5.962,46.894 6.064,44.55 6.137,42.913 5.135,39.744 4.524,37.984 4.273,37.259 4.65,36.5 5.403,36.204 L 5.65,36.106 c 0.254,-0.1 0.484,-0.25 0.666,-0.437 C 16.677,25.05 12.972,15.305 12.197,12.807 11.416,10.288 -0.804,-1.825 -1.39,3.264 c -0.586,5.09 -2.508,3.935 -4.08,4.208 -1.376,0.239 -1.154,11.432 -1.077,14.22 0.01,0.396 -0.151,0.772 -0.453,1.05 -1.447,1.332 -5.612,5.346 -3.641,5.689 2.367,0.412 7.816,7.644 8.722,9.441 0.906,1.797 -2.315,16.811 -5.301,18.204 -2.987,1.393 -9.447,4.229 -9.447,4.229" /></g><g
           transform="translate(133.8525,80.1006)"
           id="g76"><path
             id="path78"
             style="fill:#cccbcb;fill-opacity:1;fill-rule:nonzero;stroke:none"
             d="m 0,0 c 0.729,-1.003 1.736,-1.172 2.824,-1.12 1.197,0.058 2.408,0.038 3.564,0.35 1.78,0.482 3.317,1.43 4.751,2.582 0.568,0.458 0.637,-1.01 0.917,-0.391 0.149,0.333 -0.693,-1.502 0,0 0.002,0.006 1.519,0.04 1.517,0.034 C 12.927,-0.753 10.691,-0.354 8.82,-1.427 7.254,-2.325 5.55,-2.804 3.75,-2.943 2.81,-3.018 1.87,-2.887 0.972,-2.502 0.12,-2.138 -0.162,-1.609 -0.039,-0.669 -0.011,-0.448 -0.013,-0.223 0,0" /></g><g
           transform="translate(148.6797,88.0459)"
           id="g80"><path
             id="path82"
             style="fill:#c0272d;fill-opacity:1;fill-rule:nonzero;stroke:none"
             d="m 0,0 c -0.805,2.564 -1.425,5.187 -2.193,7.764 -0.633,2.121 -0.69,4.387 -1.774,6.404 -0.477,0.889 -1.05,1.26 -1.996,1.216 -1.934,-0.089 -7.28,-2.241 -9.069,-2.942 0.026,-0.885 3.569,-0.144 3.595,-1.03 0.817,-0.808 1.575,-0.037 2.344,0.11 0.513,0.099 0.981,0.469 1.651,0.315 -2.066,-1.904 -8.615,-4.901 -10.411,-4.764 1.418,1.316 3.3,1.816 4.66,3.088 0.047,1.057 0.062,2.11 -0.316,3.124 -1.5,-0.576 -2.862,-1.423 -4.226,-2.245 -1.335,-0.804 -2.602,-1.726 -3.623,-2.934 -0.544,-0.644 -0.772,-1.272 -0.304,-2.122 0.609,-1.104 1.264,-2.121 2.065,-3.128 2.336,-2.934 4.417,-6.075 6.534,-9.177 0.543,-0.795 1.168,-1.084 2.057,-0.944 0.97,0.155 1.936,0.327 2.903,0.491 l 5.409,2.541 c 0.491,0.712 1.296,1.057 1.917,1.622 C 0.027,-1.88 0.357,-1.14 0,0" /></g><g
           transform="translate(148.6797,88.0459)"
           id="g84"><path
             id="path86"
             style="fill:none;stroke:#000000;stroke-width:0.213;stroke-linecap:butt;stroke-linejoin:miter;stroke-miterlimit:10;stroke-dasharray:none;stroke-opacity:1"
             d="m 0,0 c -0.805,2.564 -1.425,5.187 -2.193,7.764 -0.633,2.121 -0.69,4.387 -1.774,6.404 -0.477,0.889 -1.05,1.26 -1.996,1.216 -1.934,-0.089 -7.28,-2.241 -9.069,-2.942 0.026,-0.885 3.569,-0.144 3.595,-1.03 0.817,-0.808 1.575,-0.037 2.344,0.11 0.513,0.099 0.981,0.469 1.651,0.315 -2.066,-1.904 -8.615,-4.901 -10.411,-4.764 1.418,1.316 3.3,1.816 4.66,3.088 0.047,1.057 0.062,2.11 -0.316,3.124 -1.5,-0.576 -2.862,-1.423 -4.226,-2.245 -1.335,-0.804 -2.602,-1.726 -3.623,-2.934 -0.544,-0.644 -0.772,-1.272 -0.304,-2.122 0.609,-1.104 1.264,-2.121 2.065,-3.128 2.336,-2.934 4.417,-6.075 6.534,-9.177 0.543,-0.795 1.168,-1.084 2.057,-0.944 0.97,0.155 1.936,0.327 2.903,0.491 l 5.409,2.541 c 0.491,0.712 1.296,1.057 1.917,1.622 C 0.027,-1.88 0.357,-1.14 0,0 Z" /></g><g
           transform="translate(137.1162,101.2461)"
           id="g88"><path
             id="path90"
             style="fill:#252525;fill-opacity:1;fill-rule:nonzero;stroke:none"
             d="M 0,0 C 1.356,0.31 2.709,0.631 4.073,0.917 4.394,0.984 4.939,1.013 5.294,0.94 5.467,0.905 5.642,0.81 5.772,0.562 6.004,0.125 5.845,-0.154 5.67,-0.331 5.154,-0.854 4.644,-1.396 4.062,-1.811 c -2.994,-2.13 -6.275,-3.65 -9.907,-4.39 -0.537,-0.11 -1.324,-0.49 -1.733,0.356 -0.496,1.024 0.37,1.298 0.801,1.679 1.228,1.085 2.567,1.978 4.045,2.606 0.323,0.138 0.626,0.354 1.066,0.115 0.114,-0.47 -0.04,-1.261 0.497,-1.306 0.653,-0.055 -0.572,0.339 -0.497,1.306 C -1.631,-0.991 0.077,-0.516 0,0" /></g><g
           transform="translate(112.4873,126.5508)"
           id="g92"><path
             id="path94"
             style="fill:#f7f0eb;fill-opacity:1;fill-rule:nonzero;stroke:none"
             d="M 0,0 C -2.164,0.697 -11.858,5.363 -11.858,5.363 L -10.967,5.668 1.381,0.314 C 1.381,0.314 2.164,-0.697 0,0" /></g><g
           transform="translate(112.4873,126.5508)"
           id="g96"><path
             id="path98"
             style="fill:none;stroke:#000000;stroke-width:0.06;stroke-linecap:butt;stroke-linejoin:miter;stroke-miterlimit:10;stroke-dasharray:none;stroke-opacity:1"
             d="M 0,0 C -2.164,0.697 -11.858,5.363 -11.858,5.363 L -10.967,5.668 1.381,0.314 C 1.381,0.314 2.164,-0.697 0,0 Z" /></g><g
           transform="translate(78.4424,180.0854)"
           id="g100"><path
             id="path102"
             style="fill:#f7f0eb;fill-opacity:1;fill-rule:nonzero;stroke:none"
             d="m 0,0 c 0,0 -11.022,-35.624 26.353,-48.604 7.252,-2.519 19.047,10.4 9.313,35.29 C 30.698,-0.61 22.02,5.606 14.049,7.438 1.872,10.237 0,0 0,0" /></g><g
           transform="translate(78.4424,180.0854)"
           id="g104"><path
             id="path106"
             style="fill:none;stroke:#000000;stroke-width:0.072;stroke-linecap:butt;stroke-linejoin:miter;stroke-miterlimit:10;stroke-dasharray:none;stroke-opacity:1"
             d="m 0,0 c 0,0 -11.022,-35.624 26.353,-48.604 7.252,-2.519 19.047,10.4 9.313,35.29 C 30.698,-0.61 22.02,5.606 14.049,7.438 1.872,10.237 0,0 0,0 Z" /></g><g
           transform="translate(94.9189,167.8086)"
           id="g108"><path
             id="path110"
             style="fill:#eff0ea;fill-opacity:1;fill-rule:nonzero;stroke:none"
             d="m 0,0 c 1.995,-4.245 0.789,-9.014 -2.694,-10.65 -3.483,-1.638 -7.924,0.477 -9.919,4.722 -1.995,4.245 -0.789,9.013 2.694,10.65 C -6.436,6.359 -1.995,4.245 0,0" /></g><g
           transform="translate(94.9189,167.8086)"
           id="g112"><path
             id="path114"
             style="fill:none;stroke:#988575;stroke-width:0.287;stroke-linecap:butt;stroke-linejoin:miter;stroke-miterlimit:10;stroke-dasharray:none;stroke-opacity:1"
             d="m 0,0 c 1.995,-4.245 0.789,-9.014 -2.694,-10.65 -3.483,-1.638 -7.924,0.477 -9.919,4.722 -1.995,4.245 -0.789,9.013 2.694,10.65 C -6.436,6.359 -1.995,4.245 0,0 Z" /></g><g
           transform="translate(105.8613,175.2959)"
           id="g116"><path
             id="path118"
             style="fill:#eff0ea;fill-opacity:1;fill-rule:nonzero;stroke:none"
             d="m 0,0 c 2.138,-3.677 1.59,-7.983 -1.223,-9.619 -2.814,-1.636 -6.827,0.019 -8.965,3.696 -2.138,3.677 -1.59,7.984 1.223,9.619 C -6.152,5.332 -2.138,3.677 0,0" /></g><g
           transform="translate(105.8613,175.2959)"
           id="g120"><path
             id="path122"
             style="fill:none;stroke:#988575;stroke-width:0.287;stroke-linecap:butt;stroke-linejoin:miter;stroke-miterlimit:10;stroke-dasharray:none;stroke-opacity:1"
             d="m 0,0 c 2.138,-3.677 1.59,-7.983 -1.223,-9.619 -2.814,-1.636 -6.827,0.019 -8.965,3.696 -2.138,3.677 -1.59,7.984 1.223,9.619 C -6.152,5.332 -2.138,3.677 0,0 Z" /></g><g
           transform="translate(91.9111,166.395)"
           id="g124"><path
             id="path126"
             style="fill:#1a9948;fill-opacity:1;fill-rule:nonzero;stroke:none"
             d="m 0,0 c 0.947,-2.014 0.434,-4.248 -1.144,-4.989 -1.578,-0.742 -3.625,0.289 -4.571,2.302 -0.947,2.014 -0.434,4.248 1.144,4.99 C -2.993,3.044 -0.946,2.014 0,0" /></g><g
           transform="translate(104.4761,173.3867)"
           id="g128"><path
             id="path130"
             style="fill:#1a9948;fill-opacity:1;fill-rule:nonzero;stroke:none"
             d="m 0,0 c 0.941,-2.001 0.534,-4.173 -0.908,-4.851 -1.442,-0.678 -3.374,0.395 -4.315,2.396 -0.94,2.002 -0.534,4.174 0.909,4.851 C -2.872,3.074 -0.94,2.001 0,0" /></g><g
           transform="translate(87.7642,164.4458)"
           id="g132"><path
             id="path134"
             style="fill:#14170f;fill-opacity:1;fill-rule:nonzero;stroke:none"
             d="M 0,0 C -0.512,1.09 -0.25,2.292 0.584,2.685 1.419,3.077 2.511,2.511 3.024,1.421 3.536,0.331 3.274,-0.871 2.439,-1.263 1.605,-1.656 0.513,-1.09 0,0" /></g><g
           transform="translate(100.4971,171.502)"
           id="g136"><path
             id="path138"
             style="fill:#14170f;fill-opacity:1;fill-rule:nonzero;stroke:none"
             d="M 0,0 C -0.517,1.1 -0.247,2.315 0.603,2.714 1.453,3.114 2.561,2.546 3.078,1.446 3.595,0.347 3.325,-0.869 2.475,-1.268 1.625,-1.667 0.517,-1.1 0,0" /></g><g
           transform="translate(86.3047,165.5781)"
           id="g140"><path
             id="path142"
             style="fill:#ffffff;fill-opacity:1;fill-rule:nonzero;stroke:none"
             d="M 0,0 C -0.09,0.691 0.276,1.309 0.818,1.379 1.36,1.45 1.872,0.946 1.962,0.255 2.052,-0.436 1.686,-1.054 1.144,-1.124 0.602,-1.195 0.09,-0.691 0,0" /></g><g
           transform="translate(100.8345,173.3643)"
           id="g144"><path
             id="path146"
             style="fill:#ffffff;fill-opacity:1;fill-rule:nonzero;stroke:none"
             d="m 0,0 c 0.011,-0.603 -0.307,-1.097 -0.708,-1.104 -0.403,-0.007 -0.737,0.476 -0.748,1.079 -0.01,0.602 0.307,1.096 0.709,1.103 C -0.345,1.085 -0.01,0.603 0,0" /></g><g
           transform="translate(100.4243,171.1929)"
           id="g148"><path
             id="path150"
             style="fill:#ffffff;fill-opacity:1;fill-rule:nonzero;stroke:none"
             d="m 0,0 c -0.108,-0.173 -0.313,-0.239 -0.46,-0.148 -0.146,0.091 -0.178,0.305 -0.07,0.478 0.107,0.172 0.313,0.239 0.46,0.148 C 0.076,0.386 0.107,0.172 0,0" /></g><g
           transform="translate(109.3599,160.5146)"
           id="g152"><path
             id="path154"
             style="fill:#a5897a;fill-opacity:1;fill-rule:nonzero;stroke:none"
             d="m 0,0 c 0.165,-3.365 -0.751,-6.72 -3.492,-8.877 -2.909,-2.29 -6.838,-2.235 -9.509,0.398 -0.371,0.365 -0.942,-0.205 -0.571,-0.571 2.596,-2.559 6.405,-3.043 9.565,-1.186 C -0.384,-8.105 1.004,-4.021 0.807,0 0.782,0.517 -0.026,0.52 0,0" /></g><g
           transform="translate(95.6338,153.4287)"
           id="g156"><path
             id="path158"
             style="fill:#a5897a;fill-opacity:1;fill-rule:nonzero;stroke:none"
             d="m 0,0 c -0.178,-1.088 -0.954,-1.941 -2.033,-2.191 -0.506,-0.117 -0.292,-0.895 0.215,-0.778 1.326,0.307 2.377,1.407 2.596,2.754 C 0.861,0.293 0.083,0.512 0,0" /></g><g
           transform="translate(107.603,161.0195)"
           id="g160"><path
             id="path162"
             style="fill:#a5897a;fill-opacity:1;fill-rule:nonzero;stroke:none"
             d="M 0,0 C 1.189,-1.328 3.208,-1.313 4.365,0.05 4.7,0.444 4.131,1.018 3.794,0.621 2.91,-0.421 1.488,-0.454 0.571,0.571 0.224,0.959 -0.346,0.386 0,0" /></g><g
           transform="translate(80.2046,174.5767)"
           id="g164"><path
             id="path166"
             style="fill:#c0272d;fill-opacity:1;fill-rule:nonzero;stroke:none"
             d="M 0,0 C 1.074,0.325 2.148,0.649 3.222,0.974 3.442,1.041 3.349,1.387 3.126,1.32 2.052,0.996 0.979,0.671 -0.095,0.346 -0.316,0.28 -0.222,-0.067 0,0" /></g><g
           transform="translate(98.5107,182.729)"
           id="g168"><path
             id="path170"
             style="fill:#c0272d;fill-opacity:1;fill-rule:nonzero;stroke:none"
             d="M 0,0 C 0.979,0.241 1.959,0.482 2.939,0.723 3.164,0.778 3.068,1.125 2.844,1.07 1.864,0.829 0.884,0.587 -0.096,0.346 -0.32,0.291 -0.225,-0.055 0,0" /></g><g
           transform="translate(86.9854,152.438)"
           id="g172"><path
             id="path174"
             style="fill:#f1dfec;fill-opacity:1;fill-rule:nonzero;stroke:none"
             d="M 0,0 C -0.401,0.543 0.387,2.001 1.027,1.789 L 2.335,1.354 C 2.568,1.277 2.823,1.329 3.008,1.489 L 3.63,2.031 C 4.153,2.486 5.211,1.804 5.012,1.14 c 0,0 -1.594,-3.693 -1.836,-3.736 C 2.934,-2.638 0,0 0,0" /></g><g
           transform="translate(107.6265,164.396)"
           id="g176"><path
             id="path178"
             style="fill:#f1dfec;fill-opacity:1;fill-rule:nonzero;stroke:none"
             d="M 0,0 C -0.401,0.543 0.387,2.001 1.027,1.789 L 2.335,1.354 C 2.568,1.277 2.823,1.329 3.008,1.489 L 3.63,2.031 C 4.153,2.486 5.211,1.804 5.012,1.14 c 0,0 -1.594,-3.693 -1.836,-3.736 C 2.935,-2.638 0,0 0,0" /></g><g
           transform="translate(88.9722,188.1724)"
           id="g180"><path
             id="path182"
             style="fill:#ce202f;fill-opacity:1;fill-rule:nonzero;stroke:none"
             d="m 0,0 c 0,0 -7.883,-1.784 -8.422,-6.409 -0.538,-4.625 0.889,-14.25 -0.953,-18.145 0.202,-1.16 -3.243,-7.908 -4.434,-5.886 -2.353,3.994 -2.456,12.438 -2.456,12.438 l 6.649,20.482 9.17,6.915 21.056,-2.215 5.356,-8.165 3.545,-20.377 -3.023,-5.236 c 0,0 -4.587,14.982 -12.92,20.103 C 5.236,-1.374 0,0 0,0" /></g><g
           transform="translate(104.0195,180.1909)"
           id="g184"><path
             id="path186"
             style="fill:#231f20;fill-opacity:1;fill-rule:nonzero;stroke:none"
             d="M 0,0 C 0.401,-0.672 0.035,-1.824 -0.657,-2.17 -0.866,-2.275 -0.682,-2.59 -0.473,-2.485 0.395,-2.05 0.813,-0.651 0.314,0.184 0.194,0.385 -0.121,0.202 0,0" /></g><g
           transform="translate(100.6221,182.5649)"
           id="g188"><path
             id="path190"
             style="fill:#231f20;fill-opacity:1;fill-rule:nonzero;stroke:none"
             d="M 0,0 C 0.546,-0.854 0.339,-2.425 -0.408,-3.111 -0.581,-3.27 -0.322,-3.527 -0.15,-3.368 0.713,-2.575 0.947,-0.805 0.314,0.184 0.188,0.381 -0.127,0.198 0,0" /></g><g
           transform="translate(96.3267,181.2085)"
           id="g192"><path
             id="path194"
             style="fill:#231f20;fill-opacity:1;fill-rule:nonzero;stroke:none"
             d="M 0,0 C 0.597,-0.538 0.995,-1.196 1.183,-1.979 1.238,-2.206 1.589,-2.11 1.534,-1.882 1.333,-1.045 0.896,-0.318 0.257,0.258 0.084,0.414 -0.174,0.158 0,0" /></g><g
           transform="translate(79.4883,171.0083)"
           id="g196"><path
             id="path198"
             style="fill:#231f20;fill-opacity:1;fill-rule:nonzero;stroke:none"
             d="M 0,0 C -0.402,-0.65 -0.098,-1.439 0.502,-1.856 1.256,-2.379 2.561,-2.542 3.433,-2.3 3.655,-2.238 3.561,-1.891 3.337,-1.953 2.655,-2.143 1.96,-1.999 1.294,-1.805 0.617,-1.607 -0.163,-0.946 0.31,-0.181 0.432,0.016 0.122,0.197 0,0" /></g><g
           transform="translate(77.8828,167.4585)"
           id="g200"><path
             id="path202"
             style="fill:#231f20;fill-opacity:1;fill-rule:nonzero;stroke:none"
             d="M 0,0 C 0.286,-1.567 2.008,-2.294 3.343,-1.436 3.537,-1.311 3.357,-1 3.162,-1.125 2.01,-1.867 0.591,-1.247 0.346,0.095 0.305,0.322 -0.042,0.226 0,0" /></g><g
           transform="translate(78.7856,164.1108)"
           id="g204"><path
             id="path206"
             style="fill:#231f20;fill-opacity:1;fill-rule:nonzero;stroke:none"
             d="M 0,0 C 0.336,-1.219 1.838,-1.449 2.569,-0.442 2.705,-0.254 2.394,-0.075 2.259,-0.261 1.701,-1.03 0.593,-0.799 0.346,0.095 0.285,0.318 -0.062,0.223 0,0" /></g><g
           transform="translate(74.2524,160.2256)"
           id="g208"><path
             id="path210"
             style="fill:#c6b198;fill-opacity:1;fill-rule:nonzero;stroke:none"
             d="M 0,0 C -0.032,-0.355 -0.072,-0.709 -0.092,-1.065 -0.111,-1.414 -0.124,-1.763 -0.113,-2.111 -0.104,-2.408 0.08,-2.593 0.37,-2.618 0.793,-2.655 1.22,-2.671 1.645,-2.669 1.9,-2.668 2.155,-2.618 2.41,-2.59 2.461,-2.584 2.514,-2.573 2.563,-2.579 2.774,-2.607 3.021,-2.605 3.1,-2.85 3.182,-3.105 2.961,-3.231 2.786,-3.314 2.372,-3.511 1.943,-3.677 1.516,-3.844 1.286,-3.935 1.04,-3.985 0.814,-4.083 0.348,-4.285 0.211,-4.544 0.304,-5.042 0.432,-5.724 0.573,-6.402 0.708,-7.083 0.728,-7.184 0.76,-7.289 0.748,-7.387 0.735,-7.496 0.702,-7.662 0.632,-7.691 0.536,-7.73 0.356,-7.705 0.284,-7.634 c -0.206,0.199 -0.397,0.422 -0.556,0.66 -0.303,0.454 -0.575,0.928 -0.869,1.388 -0.222,0.347 -0.433,0.421 -0.801,0.22 -0.312,-0.17 -0.589,-0.404 -0.879,-0.613 -0.304,-0.22 -0.599,-0.452 -0.909,-0.661 -0.157,-0.106 -0.383,-0.205 -0.511,-0.031 -0.079,0.108 -0.062,0.364 0.013,0.495 0.247,0.427 0.537,0.83 0.819,1.236 0.107,0.154 0.246,0.286 0.36,0.435 0.287,0.376 0.304,0.791 10e-4,1.153 -0.183,0.219 -0.426,0.39 -0.649,0.575 -0.342,0.284 -0.695,0.554 -1.031,0.845 -0.098,0.085 -0.171,0.213 -0.222,0.336 -0.069,0.166 -0.002,0.299 0.187,0.307 0.184,0.008 0.385,0.016 0.554,-0.045 0.399,-0.145 0.785,-0.33 1.176,-0.5 0.196,-0.085 0.383,-0.194 0.585,-0.259 0.495,-0.159 0.786,-0.025 0.975,0.46 0.204,0.525 0.383,1.061 0.58,1.589 0.047,0.127 0.102,0.264 0.193,0.358 0.092,0.095 0.244,0.21 0.348,0.192 C -0.25,0.488 -0.168,0.317 -0.094,0.203 -0.059,0.149 -0.061,0.072 -0.046,0.005 -0.031,0.003 -0.016,0.001 0,0" /></g><g
           transform="translate(74.2524,160.2256)"
           id="g212"><path
             id="path214"
             style="fill:none;stroke:#8bc540;stroke-width:0.287;stroke-linecap:butt;stroke-linejoin:miter;stroke-miterlimit:10;stroke-dasharray:none;stroke-opacity:1"
             d="M 0,0 C -0.032,-0.355 -0.072,-0.709 -0.092,-1.065 -0.111,-1.414 -0.124,-1.763 -0.113,-2.111 -0.104,-2.408 0.08,-2.593 0.37,-2.618 0.793,-2.655 1.22,-2.671 1.645,-2.669 1.9,-2.668 2.155,-2.618 2.41,-2.59 2.461,-2.584 2.514,-2.573 2.563,-2.579 2.774,-2.607 3.021,-2.605 3.1,-2.85 3.182,-3.105 2.961,-3.231 2.786,-3.314 2.372,-3.511 1.943,-3.677 1.516,-3.844 1.286,-3.935 1.04,-3.985 0.814,-4.083 0.348,-4.285 0.211,-4.544 0.304,-5.042 0.432,-5.724 0.573,-6.402 0.708,-7.083 0.728,-7.184 0.76,-7.289 0.748,-7.387 0.735,-7.496 0.702,-7.662 0.632,-7.691 0.536,-7.73 0.356,-7.705 0.284,-7.634 c -0.206,0.199 -0.397,0.422 -0.556,0.66 -0.303,0.454 -0.575,0.928 -0.869,1.388 -0.222,0.347 -0.433,0.421 -0.801,0.22 -0.312,-0.17 -0.589,-0.404 -0.879,-0.613 -0.304,-0.22 -0.599,-0.452 -0.909,-0.661 -0.157,-0.106 -0.383,-0.205 -0.511,-0.031 -0.079,0.108 -0.062,0.364 0.013,0.495 0.247,0.427 0.537,0.83 0.819,1.236 0.107,0.154 0.246,0.286 0.36,0.435 0.287,0.376 0.304,0.791 10e-4,1.153 -0.183,0.219 -0.426,0.39 -0.649,0.575 -0.342,0.284 -0.695,0.554 -1.031,0.845 -0.098,0.085 -0.171,0.213 -0.222,0.336 -0.069,0.166 -0.002,0.299 0.187,0.307 0.184,0.008 0.385,0.016 0.554,-0.045 0.399,-0.145 0.785,-0.33 1.176,-0.5 0.196,-0.085 0.383,-0.194 0.585,-0.259 0.495,-0.159 0.786,-0.025 0.975,0.46 0.204,0.525 0.383,1.061 0.58,1.589 0.047,0.127 0.102,0.264 0.193,0.358 0.092,0.095 0.244,0.21 0.348,0.192 C -0.25,0.488 -0.168,0.317 -0.094,0.203 -0.059,0.149 -0.061,0.072 -0.046,0.005 -0.031,0.003 -0.016,0.001 0,0 Z" /></g><g
           transform="translate(112.5488,136.5391)"
           id="g216"><path
             id="path218"
             style="fill:#59bba4;fill-opacity:1;fill-rule:nonzero;stroke:none"
             d="m 0,0 c 2.73,-1.278 3.854,-2.859 5.048,-3.966 2.906,-2.693 1.917,-5.72 1.767,-7.341 -0.234,-2.53 -4.365,-2.989 -3.641,-4.447 1.989,-4.012 12.253,-5.738 14.737,-9.464 0.5,-0.748 0.796,-0.231 0,0 -8.427,2.458 -15.923,-1.824 -22.228,-1.023 -2.451,0.311 -5.053,0.698 -6.925,2.309 -2.061,1.775 -2.788,4.758 -2.363,7.444 0.425,2.686 1.849,5.115 3.501,7.274 1.179,1.54 3.019,2.44 4.186,3.989 C -4.601,-3.475 -0.157,0.838 0,0" /></g><g
           transform="translate(112.4961,136.4487)"
           id="g220"><path
             id="path222"
             style="fill:#000000;fill-opacity:1;fill-rule:nonzero;stroke:none"
             d="m 0,0 c 2.953,-1.613 4.709,-3.233 6.037,-6.222 1.98,-4.458 -0.131,-4.228 -2.091,-7.971 -0.557,-1.065 -0.96,-0.596 -0.592,-1.866 0.558,-1.931 4.412,-3.334 5.909,-4.037 3.406,-1.601 6.294,-2.857 9.026,-5.488 0.048,-0.047 0.13,-0.039 0.164,0.02 0.023,0.038 0.044,0.077 0.067,0.115 0.027,0.049 0.011,0.115 -0.039,0.143 -6.96,4.035 -16.805,-1.908 -24.2,-0.539 -10.196,1.887 -8.769,12.386 -2.716,18.171 C -7.609,-6.885 -1.025,0.638 0,0 0.114,-0.071 0.219,0.109 0.105,0.18 -2.197,1.613 -12.26,-12.017 -12.999,-14.03 c -3.618,-9.854 6.079,-13.166 14.056,-12.002 3.455,0.504 6.861,1.465 10.37,1.553 0.537,0.014 6.634,-0.474 6.611,-0.574 0.06,0.26 -0.985,1.056 -1.195,1.255 -1.561,1.478 -3.905,2.262 -5.829,3.138 -1.579,0.72 -5.956,2.052 -6.694,3.742 -1.282,2.936 1.438,3.073 2.385,4.791 0.529,0.961 0.597,2.594 0.55,3.632 C 7.071,-4.458 3.39,-1.614 0.105,0.18 -0.013,0.245 -0.118,0.064 0,0" /></g><g
           transform="translate(130.042,114.292)"
           id="g224"><path
             id="path226"
             style="fill:#231f20;fill-opacity:1;fill-rule:nonzero;stroke:none"
             d="m 0,0 3.129,3.941 c 0,0 2.905,1.79 6.531,-2.231 0.392,-5.785 -5.364,-5.417 -5.564,-5.501 -0.143,-0.059 1.916,-0.597 3.121,-0.903 0.679,-0.173 1.25,-0.629 1.567,-1.254 0.774,-1.521 1.436,-4.693 -2.247,-9.412 -2.988,-1.246 -8.883,7.523 -8.978,10.575 -0.069,2.212 0.458,2.404 2.216,4.237 C 0.138,-0.17 -0.117,-0.163 0,0" /></g><g
           transform="translate(130.042,114.292)"
           id="g228"><path
             id="path230"
             style="fill:none;stroke:#71cbd3;stroke-width:0.046;stroke-linecap:butt;stroke-linejoin:miter;stroke-miterlimit:10;stroke-dasharray:none;stroke-opacity:1"
             d="m 0,0 3.129,3.941 c 0,0 2.905,1.79 6.531,-2.231 0.392,-5.785 -5.364,-5.417 -5.564,-5.501 -0.143,-0.059 1.916,-0.597 3.121,-0.903 0.679,-0.173 1.25,-0.629 1.567,-1.254 0.774,-1.521 1.436,-4.693 -2.247,-9.412 -2.988,-1.246 -8.883,7.523 -8.978,10.575 -0.069,2.212 0.458,2.404 2.216,4.237 C 0.138,-0.17 -0.117,-0.163 0,0 Z" /></g><g
           transform="translate(130.1719,113.9873)"
           id="g232"><path
             id="path234"
             style="fill:#59bba4;fill-opacity:1;fill-rule:nonzero;stroke:none"
             d="m 0,0 2.843,3.58 c 0,0 2.637,1.626 5.931,-2.026 C 9.13,-3.701 3.902,-3.367 3.72,-3.442 3.591,-3.496 5.46,-3.984 6.555,-4.263 7.172,-4.42 7.69,-4.835 7.979,-5.402 c 0.703,-1.382 1.303,-4.262 -2.041,-8.549 -2.714,-1.132 -8.068,6.833 -8.155,9.605 -0.062,2.009 0.416,2.183 2.014,3.849 C 0.125,-0.154 -0.106,-0.147 0,0" /></g><g
           transform="translate(130.1719,113.9873)"
           id="g236"><path
             id="path238"
             style="fill:none;stroke:#71cbd3;stroke-width:0.042;stroke-linecap:butt;stroke-linejoin:miter;stroke-miterlimit:10;stroke-dasharray:none;stroke-opacity:1"
             d="m 0,0 2.843,3.58 c 0,0 2.637,1.626 5.931,-2.026 C 9.13,-3.701 3.902,-3.367 3.72,-3.442 3.591,-3.496 5.46,-3.984 6.555,-4.263 7.172,-4.42 7.69,-4.835 7.979,-5.402 c 0.703,-1.382 1.303,-4.262 -2.041,-8.549 -2.714,-1.132 -8.068,6.833 -8.155,9.605 -0.062,2.009 0.416,2.183 2.014,3.849 C 0.125,-0.154 -0.106,-0.147 0,0 Z" /></g><g
           transform="translate(128.9004,110.1709)"
           id="g240"><path
             id="path242"
             style="fill:#59bba4;fill-opacity:1;fill-rule:nonzero;stroke:none"
             d="m 0,0 c -0.005,-1.028 0.565,-1.968 1.19,-2.784 0.625,-0.818 1.336,-1.599 1.698,-2.562 0.213,-0.565 0.295,-1.173 0.507,-1.738 0.211,-0.565 0.595,-1.115 1.17,-1.3 0.715,-0.23 1.509,0.193 1.946,0.804 0.436,0.61 0.596,1.37 0.745,2.106 0.09,0.441 0.175,0.918 -0.02,1.324 C 6.972,-3.596 6.306,-3.395 5.76,-3.111 4.882,-2.654 4.192,-1.846 3.881,-0.906 3.641,-0.183 3.638,0.667 4.078,1.289 4.551,1.956 5.396,2.214 6.142,2.55 6.887,2.887 7.662,3.479 7.66,4.297 7.659,4.941 7.128,5.503 6.511,5.686 5.893,5.868 5.218,5.73 4.631,5.465 3.214,4.824 2.232,3.518 1.314,2.263 0.993,1.823 0.656,1.337 0.685,0.793 0.704,0.41 0.903,0.064 1.098,-0.266 c 1.084,-1.839 2.169,-3.68 3.253,-5.52 0.046,-0.081 0.1,-0.166 0.186,-0.202 0.276,-0.115 0.421,0.333 0.375,0.628 -0.23,1.46 -0.829,2.861 -1.726,4.036 -0.356,0.465 -0.773,0.93 -0.85,1.511 -0.084,0.631 0.259,1.234 0.588,1.781 0.344,0.57 0.695,1.15 1.19,1.596 0.494,0.447 1.162,0.748 1.822,0.65" /></g><g
           transform="translate(128.6396,110.1709)"
           id="g244"><path
             id="path246"
             style="fill:#71cbd3;fill-opacity:1;fill-rule:nonzero;stroke:none"
             d="m 0,0 c 0.132,-1.033 0.419,-1.723 1.001,-2.599 0.428,-0.645 0.994,-1.194 1.383,-1.865 0.489,-0.847 0.582,-1.849 1.02,-2.689 0.5,-0.96 1.075,-1.725 2.279,-1.486 1.489,0.295 2.333,2.597 2.182,3.91 C 7.773,-3.93 7.515,-3.863 6.984,-3.315 6.363,-2.673 5.058,-2.39 4.668,-1.451 3.213,2.057 5.757,1.65 7.086,2.625 7.905,3.226 8.507,4.081 7.944,5.087 6.973,6.826 4.59,5.778 3.475,4.854 2.482,4.031 0.635,2.182 0.688,0.758 0.729,-0.318 1.701,-1.36 2.218,-2.237 2.966,-3.508 3.611,-5.091 4.613,-6.173 4.695,-6.261 4.829,-6.266 4.93,-6.214 c 0.755,0.393 0.463,1.055 0.312,1.791 -0.187,0.918 -0.71,1.654 -1.068,2.499 -0.81,1.904 -1.736,5.731 2.022,5.876 0.335,0.014 0.337,0.535 0,0.523 C 3.82,4.382 1.81,1.548 2.666,-0.682 2.969,-1.471 3.77,-2.178 4.149,-2.964 4.347,-3.496 4.543,-4.029 4.739,-4.562 4.191,-4.942 3.862,-4.693 3.752,-3.814 3.099,-3.104 1.8,-1.069 1.584,-0.134 1.261,1.271 2.652,4.457 4.35,4.867 6.687,3.645 7.073,2.838 5.51,2.447 5.224,2.348 4.965,2.206 4.733,2.022 4.2,1.564 3.981,1.369 3.787,0.674 3.502,-0.351 4.004,-1.552 4.644,-2.321 5.158,-2.942 5.346,-2.803 5.89,-3.337 6.772,-3.611 7.231,-4.301 7.266,-5.404 7.161,-7.019 5.958,-7.266 3.654,-6.146 3.341,-5.838 2.893,-4.299 2.624,-3.879 1.777,-2.556 0.744,-1.745 0.521,0 0.479,0.329 -0.043,0.333 0,0" /></g><g
           transform="translate(117.0391,145.4316)"
           id="g248"><path
             id="path250"
             style="fill:#f7f0eb;fill-opacity:1;fill-rule:nonzero;stroke:none"
             d="m 0,0 c 0,0 4.356,-3.32 4.735,-5.493 0.378,-2.174 -0.875,-6.234 -2.303,-8.48 -1.429,-2.247 -3.713,-5.203 -3.713,-5.203 l -0.99,0.861 3.779,4.824 c 0,0 1.916,4.271 2.176,5.995 0,0 0.549,2.475 -0.886,3.485 -1.436,1.01 -3.102,2.54 -3.444,2.9 C -0.988,-0.751 0,0 0,0" /></g><g
           transform="translate(117.0391,145.4316)"
           id="g252"><path
             id="path254"
             style="fill:none;stroke:#000000;stroke-width:0.072;stroke-linecap:butt;stroke-linejoin:miter;stroke-miterlimit:10;stroke-dasharray:none;stroke-opacity:1"
             d="m 0,0 c 0,0 4.356,-3.32 4.735,-5.493 0.378,-2.174 -0.875,-6.234 -2.303,-8.48 -1.429,-2.247 -3.713,-5.203 -3.713,-5.203 l -0.99,0.861 3.779,4.824 c 0,0 1.916,4.271 2.176,5.995 0,0 0.549,2.475 -0.886,3.485 -1.436,1.01 -3.102,2.54 -3.444,2.9 C -0.988,-0.751 0,0 0,0 Z" /></g><g
           transform="translate(113.4717,132.6382)"
           id="g256"><path
             id="path258"
             style="fill:#000000;fill-opacity:1;fill-rule:nonzero;stroke:none"
             d="m 0,0 c -0.005,0.008 -0.011,0.017 -0.016,0.025 -0.54,-0.057 -1.079,-0.11 -1.619,-0.176 -0.068,-0.008 -0.182,-0.077 -0.197,-0.121 -0.018,-0.054 0.032,-0.156 0.081,-0.16 0.169,-0.012 0.358,-0.023 0.526,0.025 C -0.812,-0.289 -0.408,-0.138 0,0 M 1.87,0.662 C 1.874,0.653 1.879,0.645 1.883,0.636 2.281,0.771 2.687,0.891 3.075,1.046 3.245,1.114 3.392,1.248 3.524,1.366 3.557,1.395 3.517,1.5 3.468,1.537 3.438,1.56 3.312,1.541 3.258,1.508 2.791,1.23 2.331,0.945 1.87,0.662 M -0.631,0.195 c -0.055,0.008 -0.107,0.018 -0.162,0.023 -1.233,0.12 -2.379,0.385 -3.44,0.786 -0.189,0.072 -0.338,0.062 -0.529,-0.057 -0.206,-0.13 -0.3,-0.277 -0.266,-0.453 0.057,-0.288 0.311,-0.426 0.66,-0.465 1.206,-0.136 2.467,0.003 3.737,0.166 M 2.277,1.147 C 3.311,1.775 4.329,2.407 5.191,3.182 5.301,3.28 5.432,3.391 5.47,3.5 5.535,3.69 5.579,3.894 5.552,4.072 5.525,4.244 5.322,4.295 5.079,4.275 4.852,4.255 4.729,4.164 4.617,3.999 4.333,3.576 4.05,3.149 3.713,2.745 3.264,2.206 2.765,1.686 2.277,1.147 M 0.334,0.336 C 0.347,0.36 0.359,0.384 0.371,0.408 0.295,0.443 0.218,0.478 0.142,0.514 -1.522,1.296 -3.113,2.142 -4.268,3.368 -4.315,3.418 -4.44,3.446 -4.533,3.437 -5.077,3.38 -5.461,3.085 -5.562,2.665 -5.669,2.214 -5.426,1.906 -5.047,1.67 -4.047,1.051 -2.81,0.745 -1.513,0.532 -0.914,0.434 -0.282,0.399 0.334,0.336 M 1.32,0.691 C 1.436,0.777 1.517,0.832 1.59,0.893 2.894,1.983 3.926,3.187 4.63,4.512 4.819,4.867 4.927,5.26 4.936,5.617 4.951,6.268 4.085,6.531 3.396,6.122 3.309,6.07 3.222,5.96 3.215,5.884 3.1,4.712 2.668,3.549 2.146,2.39 1.896,1.834 1.609,1.284 1.32,0.691 M 1.028,0.816 C 1.059,0.812 1.089,0.807 1.119,0.802 1.13,0.843 1.132,0.885 1.152,0.924 1.905,2.336 2.544,3.759 2.844,5.21 2.957,5.754 2.994,6.285 2.775,6.773 2.478,7.439 1.463,7.573 0.747,7.036 0.61,6.934 0.571,6.861 0.632,6.726 0.757,6.449 0.872,6.158 0.895,5.854 0.963,4.963 0.996,4.065 1.02,3.166 1.039,2.386 1.026,1.6 1.028,0.816 M 0.467,0.59 C 0.495,0.612 0.522,0.635 0.551,0.657 -0.069,1.476 -0.693,2.292 -1.31,3.113 -1.908,3.911 -2.545,4.689 -2.75,5.666 -2.76,5.714 -2.88,5.755 -2.962,5.759 -3.708,5.791 -4.428,5.256 -4.465,4.638 -4.489,4.243 -4.343,3.9 -4.095,3.598 -3.507,2.881 -2.703,2.326 -1.836,1.824 -1.09,1.393 -0.303,1 0.467,0.59 M 0.723,0.859 C 0.75,0.918 0.77,0.94 0.77,0.96 0.756,2.319 0.76,3.682 0.717,5.036 0.698,5.623 0.651,6.211 0.318,6.715 0.036,7.143 -0.624,7.289 -1.316,7.064 -2.015,6.838 -2.498,6.311 -2.464,5.795 -2.423,5.162 -2.083,4.642 -1.719,4.139 -0.927,3.047 -0.107,1.971 0.723,0.859 m -2.887,-1.068 c -0.443,-0.012 -0.892,-0.036 -1.334,-0.034 -0.342,0.002 -0.679,0.027 -1.01,0.059 -0.399,0.04 -0.663,0.225 -0.779,0.502 -0.139,0.333 0.068,0.632 0.461,0.86 -0.283,0.231 -0.589,0.436 -0.826,0.684 -0.244,0.256 -0.287,0.583 -0.143,0.947 0.145,0.367 0.448,0.62 0.908,0.772 0.108,0.035 0.219,0.065 0.354,0.105 -0.222,0.476 -0.372,0.953 -0.005,1.498 0.361,0.536 0.935,0.796 1.775,0.816 0.187,0.562 0.617,1.005 1.343,1.246 0.718,0.237 1.347,0.192 1.835,-0.176 0.605,0.485 1.25,0.643 1.9,0.438 C 2.943,7.31 3.132,6.839 3.218,6.311 3.297,6.337 3.347,6.349 3.392,6.371 4.401,6.852 5.266,6.298 5.227,5.57 5.207,5.223 5.076,4.862 4.995,4.506 5.94,4.486 6.239,3.903 5.547,3.232 5.075,2.775 4.493,2.379 3.959,1.957 3.881,1.896 3.793,1.841 3.713,1.785 3.939,1.338 3.84,1.132 3.193,0.874 2.676,0.668 2.14,0.465 1.604,0.353 0.989,0.226 0.463,-0.07 -0.112,-0.261 c -0.42,-0.14 -0.839,-0.294 -1.266,-0.4 -0.5,-0.125 -0.736,0.028 -0.786,0.452" /></g><g
           transform="translate(113.4717,132.6382)"
           id="g260"><path
             id="path262"
             style="fill:none;stroke:#000000;stroke-width:0.14399999;stroke-linecap:butt;stroke-linejoin:miter;stroke-miterlimit:10;stroke-dasharray:none;stroke-opacity:1"
             d="m 0,0 c -0.005,0.008 -0.011,0.017 -0.016,0.025 -0.54,-0.057 -1.079,-0.11 -1.619,-0.176 -0.068,-0.008 -0.182,-0.077 -0.197,-0.121 -0.018,-0.054 0.032,-0.156 0.081,-0.16 0.169,-0.012 0.358,-0.023 0.526,0.025 C -0.812,-0.289 -0.408,-0.138 0,0 Z M 1.87,0.662 C 1.874,0.653 1.879,0.645 1.883,0.636 2.281,0.771 2.687,0.891 3.075,1.046 3.245,1.114 3.392,1.248 3.524,1.366 3.557,1.395 3.517,1.5 3.468,1.537 3.438,1.56 3.312,1.541 3.258,1.508 2.791,1.23 2.331,0.945 1.87,0.662 Z M -0.631,0.195 c -0.055,0.008 -0.107,0.018 -0.162,0.023 -1.233,0.12 -2.379,0.385 -3.44,0.786 -0.189,0.072 -0.338,0.062 -0.529,-0.057 -0.206,-0.13 -0.3,-0.277 -0.266,-0.453 0.057,-0.288 0.311,-0.426 0.66,-0.465 1.206,-0.136 2.467,0.003 3.737,0.166 z M 2.277,1.147 C 3.311,1.775 4.329,2.407 5.191,3.182 5.301,3.28 5.432,3.391 5.47,3.5 5.535,3.69 5.579,3.894 5.552,4.072 5.525,4.244 5.322,4.295 5.079,4.275 4.852,4.255 4.729,4.164 4.617,3.999 4.333,3.576 4.05,3.149 3.713,2.745 3.264,2.206 2.765,1.686 2.277,1.147 Z M 0.334,0.336 C 0.347,0.36 0.359,0.384 0.371,0.408 0.295,0.443 0.218,0.478 0.142,0.514 -1.522,1.296 -3.113,2.142 -4.268,3.368 -4.315,3.418 -4.44,3.446 -4.533,3.437 -5.077,3.38 -5.461,3.085 -5.562,2.665 -5.669,2.214 -5.426,1.906 -5.047,1.67 -4.047,1.051 -2.81,0.745 -1.513,0.532 -0.914,0.434 -0.282,0.399 0.334,0.336 Z M 1.32,0.691 C 1.436,0.777 1.517,0.832 1.59,0.893 2.894,1.983 3.926,3.187 4.63,4.512 4.819,4.867 4.927,5.26 4.936,5.617 4.951,6.268 4.085,6.531 3.396,6.122 3.309,6.07 3.222,5.96 3.215,5.884 3.1,4.712 2.668,3.549 2.146,2.39 1.896,1.834 1.609,1.284 1.32,0.691 Z M 1.028,0.816 C 1.059,0.812 1.089,0.807 1.119,0.802 1.13,0.843 1.132,0.885 1.152,0.924 1.905,2.336 2.544,3.759 2.844,5.21 2.957,5.754 2.994,6.285 2.775,6.773 2.478,7.439 1.463,7.573 0.747,7.036 0.61,6.934 0.571,6.861 0.632,6.726 0.757,6.449 0.872,6.158 0.895,5.854 0.963,4.963 0.996,4.065 1.02,3.166 1.039,2.386 1.026,1.6 1.028,0.816 Z M 0.467,0.59 C 0.495,0.612 0.522,0.635 0.551,0.657 -0.069,1.476 -0.693,2.292 -1.31,3.113 -1.908,3.911 -2.545,4.689 -2.75,5.666 -2.76,5.714 -2.88,5.755 -2.962,5.759 -3.708,5.791 -4.428,5.256 -4.465,4.638 -4.489,4.243 -4.343,3.9 -4.095,3.598 -3.507,2.881 -2.703,2.326 -1.836,1.824 -1.09,1.393 -0.303,1 0.467,0.59 Z M 0.723,0.859 C 0.75,0.918 0.77,0.94 0.77,0.96 0.756,2.319 0.76,3.682 0.717,5.036 0.698,5.623 0.651,6.211 0.318,6.715 0.036,7.143 -0.624,7.289 -1.316,7.064 -2.015,6.838 -2.498,6.311 -2.464,5.795 -2.423,5.162 -2.083,4.642 -1.719,4.139 -0.927,3.047 -0.107,1.971 0.723,0.859 Z m -2.887,-1.068 c -0.443,-0.012 -0.892,-0.036 -1.334,-0.034 -0.342,0.002 -0.679,0.027 -1.01,0.059 -0.399,0.04 -0.663,0.225 -0.779,0.502 -0.139,0.333 0.068,0.632 0.461,0.86 -0.283,0.231 -0.589,0.436 -0.826,0.684 -0.244,0.256 -0.287,0.583 -0.143,0.947 0.145,0.367 0.448,0.62 0.908,0.772 0.108,0.035 0.219,0.065 0.354,0.105 -0.222,0.476 -0.372,0.953 -0.005,1.498 0.361,0.536 0.935,0.796 1.775,0.816 0.187,0.562 0.617,1.005 1.343,1.246 0.718,0.237 1.347,0.192 1.835,-0.176 0.605,0.485 1.25,0.643 1.9,0.438 C 2.943,7.31 3.132,6.839 3.218,6.311 3.297,6.337 3.347,6.349 3.392,6.371 4.401,6.852 5.266,6.298 5.227,5.57 5.207,5.223 5.076,4.862 4.995,4.506 5.94,4.486 6.239,3.903 5.547,3.232 5.075,2.775 4.493,2.379 3.959,1.957 3.881,1.896 3.793,1.841 3.713,1.785 3.939,1.338 3.84,1.132 3.193,0.874 2.676,0.668 2.14,0.465 1.604,0.353 0.989,0.226 0.463,-0.07 -0.112,-0.261 c -0.42,-0.14 -0.839,-0.294 -1.266,-0.4 -0.5,-0.125 -0.736,0.028 -0.786,0.452 z" /></g><g
           transform="translate(114.1943,133.4971)"
           id="g264"><path
             id="path266"
             style="fill:#847fbb;fill-opacity:1;fill-rule:nonzero;stroke:none"
             d="m 0,0 c -0.83,1.112 -1.649,2.188 -2.441,3.28 -0.365,0.503 -0.705,1.023 -0.746,1.656 -0.033,0.516 0.449,1.043 1.148,1.27 0.692,0.224 1.352,0.078 1.635,-0.35 0.333,-0.503 0.38,-1.092 0.398,-1.679 C 0.037,2.823 0.033,1.46 0.047,0.101 0.047,0.082 0.027,0.059 0,0" /></g><g
           transform="translate(114.1943,133.4971)"
           id="g268"><path
             id="path270"
             style="fill:none;stroke:#000000;stroke-width:0.14399999;stroke-linecap:butt;stroke-linejoin:miter;stroke-miterlimit:10;stroke-dasharray:none;stroke-opacity:1"
             d="m 0,0 c -0.83,1.112 -1.649,2.188 -2.441,3.28 -0.365,0.503 -0.705,1.023 -0.746,1.656 -0.033,0.516 0.449,1.043 1.148,1.27 0.692,0.224 1.352,0.078 1.635,-0.35 0.333,-0.503 0.38,-1.092 0.398,-1.679 C 0.037,2.823 0.033,1.46 0.047,0.101 0.047,0.082 0.027,0.059 0,0 Z" /></g><g
           transform="translate(113.9385,133.2285)"
           id="g272"><path
             id="path274"
             style="fill:#847fbb;fill-opacity:1;fill-rule:nonzero;stroke:none"
             d="m 0,0 c -0.77,0.41 -1.557,0.802 -2.303,1.234 -0.866,0.501 -1.671,1.057 -2.259,1.774 -0.248,0.302 -0.394,0.645 -0.37,1.04 0.037,0.618 0.758,1.153 1.503,1.121 C -3.347,5.165 -3.227,5.124 -3.217,5.075 -3.012,4.099 -2.375,3.32 -1.776,2.523 -1.16,1.702 -0.536,0.885 0.084,0.066 0.056,0.044 0.028,0.022 0,0" /></g><g
           transform="translate(113.9385,133.2285)"
           id="g276"><path
             id="path278"
             style="fill:none;stroke:#000000;stroke-width:0.14399999;stroke-linecap:butt;stroke-linejoin:miter;stroke-miterlimit:10;stroke-dasharray:none;stroke-opacity:1"
             d="m 0,0 c -0.77,0.41 -1.557,0.802 -2.303,1.234 -0.866,0.501 -1.671,1.057 -2.259,1.774 -0.248,0.302 -0.394,0.645 -0.37,1.04 0.037,0.618 0.758,1.153 1.503,1.121 C -3.347,5.165 -3.227,5.124 -3.217,5.075 -3.012,4.099 -2.375,3.32 -1.776,2.523 -1.16,1.702 -0.536,0.885 0.084,0.066 0.056,0.044 0.028,0.022 0,0 Z" /></g><g
           transform="translate(114.5,133.4541)"
           id="g280"><path
             id="path282"
             style="fill:#847fbb;fill-opacity:1;fill-rule:nonzero;stroke:none"
             d="M 0,0 C -0.002,0.784 0.011,1.57 -0.009,2.35 -0.032,3.25 -0.065,4.147 -0.134,5.039 -0.156,5.342 -0.271,5.633 -0.396,5.91 -0.457,6.045 -0.418,6.118 -0.281,6.22 0.435,6.757 1.449,6.623 1.747,5.957 1.966,5.469 1.929,4.938 1.815,4.394 1.516,2.943 0.877,1.521 0.124,0.108 0.104,0.069 0.102,0.027 0.091,-0.014 0.061,-0.009 0.03,-0.004 0,0" /></g><g
           transform="translate(114.5,133.4541)"
           id="g284"><path
             id="path286"
             style="fill:none;stroke:#000000;stroke-width:0.14399999;stroke-linecap:butt;stroke-linejoin:miter;stroke-miterlimit:10;stroke-dasharray:none;stroke-opacity:1"
             d="M 0,0 C -0.002,0.784 0.011,1.57 -0.009,2.35 -0.032,3.25 -0.065,4.147 -0.134,5.039 -0.156,5.342 -0.271,5.633 -0.396,5.91 -0.457,6.045 -0.418,6.118 -0.281,6.22 0.435,6.757 1.449,6.623 1.747,5.957 1.966,5.469 1.929,4.938 1.815,4.394 1.516,2.943 0.877,1.521 0.124,0.108 0.104,0.069 0.102,0.027 0.091,-0.014 0.061,-0.009 0.03,-0.004 0,0 Z" /></g><g
           transform="translate(114.792,133.3296)"
           id="g288"><path
             id="path290"
             style="fill:#847fbb;fill-opacity:1;fill-rule:nonzero;stroke:none"
             d="M 0,0 C 0.289,0.592 0.576,1.143 0.825,1.698 1.348,2.857 1.779,4.021 1.895,5.193 1.901,5.269 1.988,5.378 2.075,5.43 2.765,5.84 3.631,5.577 3.615,4.926 3.606,4.569 3.499,4.175 3.31,3.82 2.605,2.496 1.573,1.292 0.27,0.202 0.196,0.141 0.115,0.085 0,0" /></g><g
           transform="translate(114.792,133.3296)"
           id="g292"><path
             id="path294"
             style="fill:none;stroke:#000000;stroke-width:0.14399999;stroke-linecap:butt;stroke-linejoin:miter;stroke-miterlimit:10;stroke-dasharray:none;stroke-opacity:1"
             d="M 0,0 C 0.289,0.592 0.576,1.143 0.825,1.698 1.348,2.857 1.779,4.021 1.895,5.193 1.901,5.269 1.988,5.378 2.075,5.43 2.765,5.84 3.631,5.577 3.615,4.926 3.606,4.569 3.499,4.175 3.31,3.82 2.605,2.496 1.573,1.292 0.27,0.202 0.196,0.141 0.115,0.085 0,0 Z" /></g><g
           transform="translate(113.7549,132.9565)"
           id="g296"><path
             id="path298"
             style="fill:#847fbb;fill-opacity:1;fill-rule:nonzero;stroke:none"
             d="M 0,0 C -0.604,0.062 -1.221,0.096 -1.807,0.192 -3.076,0.4 -4.287,0.7 -5.264,1.306 c -0.372,0.23 -0.61,0.531 -0.504,0.973 0.098,0.411 0.474,0.7 1.006,0.755 0.091,0.009 0.214,-0.018 0.26,-0.067 1.129,-1.2 2.686,-2.027 4.314,-2.793 C -0.114,0.139 -0.038,0.105 0.036,0.071 0.024,0.047 0.013,0.024 0,0" /></g><g
           transform="translate(113.7549,132.9565)"
           id="g300"><path
             id="path302"
             style="fill:none;stroke:#000000;stroke-width:0.14399999;stroke-linecap:butt;stroke-linejoin:miter;stroke-miterlimit:10;stroke-dasharray:none;stroke-opacity:1"
             d="M 0,0 C -0.604,0.062 -1.221,0.096 -1.807,0.192 -3.076,0.4 -4.287,0.7 -5.264,1.306 c -0.372,0.23 -0.61,0.531 -0.504,0.973 0.098,0.411 0.474,0.7 1.006,0.755 0.091,0.009 0.214,-0.018 0.26,-0.067 1.129,-1.2 2.686,-2.027 4.314,-2.793 C -0.114,0.139 -0.038,0.105 0.036,0.071 0.024,0.047 0.013,0.024 0,0 Z" /></g><g
           transform="translate(115.749,133.7852)"
           id="g304"><path
             id="path306"
             style="fill:#847fbb;fill-opacity:1;fill-rule:nonzero;stroke:none"
             d="M 0,0 C 0.487,0.539 0.986,1.059 1.436,1.598 1.772,2.002 2.056,2.429 2.34,2.852 2.451,3.017 2.574,3.108 2.802,3.128 3.045,3.148 3.248,3.097 3.274,2.925 3.302,2.747 3.258,2.543 3.192,2.353 3.154,2.244 3.023,2.133 2.914,2.035 2.052,1.26 1.033,0.628 0,0" /></g><g
           transform="translate(115.749,133.7852)"
           id="g308"><path
             id="path310"
             style="fill:none;stroke:#000000;stroke-width:0.14399999;stroke-linecap:butt;stroke-linejoin:miter;stroke-miterlimit:10;stroke-dasharray:none;stroke-opacity:1"
             d="M 0,0 C 0.487,0.539 0.986,1.059 1.436,1.598 1.772,2.002 2.056,2.429 2.34,2.852 2.451,3.017 2.574,3.108 2.802,3.128 3.045,3.148 3.248,3.097 3.274,2.925 3.302,2.747 3.258,2.543 3.192,2.353 3.154,2.244 3.023,2.133 2.914,2.035 2.052,1.26 1.033,0.628 0,0 Z" /></g><g
           transform="translate(112.8105,132.8188)"
           id="g312"><path
             id="path314"
             style="fill:#847fbb;fill-opacity:1;fill-rule:nonzero;stroke:none"
             d="m 0,0 c -1.242,-0.159 -2.476,-0.295 -3.656,-0.163 -0.341,0.038 -0.59,0.174 -0.646,0.455 -0.033,0.173 0.059,0.317 0.261,0.444 0.186,0.117 0.332,0.126 0.517,0.056 C -2.486,0.399 -1.365,0.14 -0.158,0.023 -0.104,0.018 -0.053,0.008 0,0" /></g><g
           transform="translate(112.8105,132.8188)"
           id="g316"><path
             id="path318"
             style="fill:none;stroke:#000000;stroke-width:0.14399999;stroke-linecap:butt;stroke-linejoin:miter;stroke-miterlimit:10;stroke-dasharray:none;stroke-opacity:1"
             d="m 0,0 c -1.242,-0.159 -2.476,-0.295 -3.656,-0.163 -0.341,0.038 -0.59,0.174 -0.646,0.455 -0.033,0.173 0.059,0.317 0.261,0.444 0.186,0.117 0.332,0.126 0.517,0.056 C -2.486,0.399 -1.365,0.14 -0.158,0.023 -0.104,0.018 -0.053,0.008 0,0 Z" /></g><g
           transform="translate(115.3418,133.2998)"
           id="g320"><path
             id="path322"
             style="fill:#847fbb;fill-opacity:1;fill-rule:nonzero;stroke:none"
             d="M 0,0 C 0.461,0.283 0.921,0.568 1.388,0.847 1.441,0.879 1.567,0.898 1.598,0.875 1.646,0.838 1.687,0.733 1.654,0.705 1.521,0.586 1.375,0.453 1.205,0.385 0.816,0.229 0.411,0.109 0.013,-0.026 0.009,-0.017 0.004,-0.009 0,0" /></g><g
           transform="translate(115.3418,133.2998)"
           id="g324"><path
             id="path326"
             style="fill:none;stroke:#000000;stroke-width:0.14399999;stroke-linecap:butt;stroke-linejoin:miter;stroke-miterlimit:10;stroke-dasharray:none;stroke-opacity:1"
             d="M 0,0 C 0.461,0.283 0.921,0.568 1.388,0.847 1.441,0.879 1.567,0.898 1.598,0.875 1.646,0.838 1.687,0.733 1.654,0.705 1.521,0.586 1.375,0.453 1.205,0.385 0.816,0.229 0.411,0.109 0.013,-0.026 0.009,-0.017 0.004,-0.009 0,0 Z" /></g><g
           transform="translate(113.4717,132.6382)"
           id="g328"><path
             id="path330"
             style="fill:#847fbb;fill-opacity:1;fill-rule:nonzero;stroke:none"
             d="m 0,0 c -0.408,-0.138 -0.812,-0.289 -1.225,-0.407 -0.168,-0.048 -0.357,-0.037 -0.526,-0.025 -0.049,0.004 -0.099,0.106 -0.081,0.16 0.015,0.044 0.129,0.113 0.197,0.121 0.54,0.066 1.079,0.119 1.619,0.176 C -0.011,0.017 -0.005,0.008 0,0" /></g><g
           transform="translate(113.4717,132.6382)"
           id="g332"><path
             id="path334"
             style="fill:none;stroke:#000000;stroke-width:0.14399999;stroke-linecap:butt;stroke-linejoin:miter;stroke-miterlimit:10;stroke-dasharray:none;stroke-opacity:1"
             d="m 0,0 c -0.408,-0.138 -0.812,-0.289 -1.225,-0.407 -0.168,-0.048 -0.357,-0.037 -0.526,-0.025 -0.049,0.004 -0.099,0.106 -0.081,0.16 0.015,0.044 0.129,0.113 0.197,0.121 0.54,0.066 1.079,0.119 1.619,0.176 C -0.011,0.017 -0.005,0.008 0,0 Z" /></g><g
           transform="translate(108.2954,129.5137)"
           id="g336"><path
             id="path338"
             style="fill:#000000;fill-opacity:1;fill-rule:nonzero;stroke:none"
             d="m 0,0 -0.025,0.019 c -0.504,-0.241 -1.01,-0.478 -1.511,-0.728 -0.063,-0.031 -0.149,-0.139 -0.146,-0.188 0.003,-0.06 0.089,-0.144 0.138,-0.13 0.169,0.045 0.357,0.099 0.503,0.204 C -0.684,-0.565 -0.346,-0.276 0,0 M 1.574,1.296 C 1.582,1.289 1.589,1.282 1.597,1.275 1.935,1.545 2.284,1.803 2.605,2.09 2.745,2.216 2.837,2.398 2.923,2.562 2.944,2.601 2.865,2.691 2.804,2.711 2.766,2.724 2.651,2.662 2.61,2.611 2.26,2.176 1.918,1.735 1.574,1.296 m -2.261,-1.318 c -0.056,-0.011 -0.111,-0.019 -0.167,-0.032 -1.245,-0.302 -2.459,-0.43 -3.643,-0.395 -0.211,0.007 -0.352,-0.053 -0.493,-0.237 -0.152,-0.2 -0.189,-0.378 -0.09,-0.541 0.163,-0.267 0.462,-0.317 0.816,-0.237 1.225,0.277 2.401,0.846 3.577,1.442 M 1.79,1.917 C 2.562,2.895 3.319,3.871 3.87,4.936 3.939,5.07 4.025,5.225 4.021,5.346 4.014,5.557 3.982,5.775 3.888,5.943 3.799,6.104 3.581,6.086 3.353,5.983 3.138,5.886 3.053,5.753 3.006,5.55 2.886,5.033 2.77,4.512 2.592,3.996 2.356,3.306 2.063,2.619 1.79,1.917 M 0.201,0.447 0.209,0.532 C 0.122,0.541 0.034,0.549 -0.053,0.559 -1.965,0.768 -3.83,1.064 -5.412,1.889 -5.476,1.922 -5.608,1.907 -5.695,1.866 -6.204,1.624 -6.468,1.2 -6.409,0.748 c 0.063,-0.485 0.414,-0.708 0.872,-0.812 1.204,-0.274 2.523,-0.156 3.866,0.076 0.62,0.107 1.247,0.288 1.872,0.435 m 0.827,0.69 C 1.108,1.262 1.167,1.345 1.215,1.43 2.079,2.959 2.635,4.508 2.827,6.065 2.878,6.482 2.837,6.91 2.712,7.268 2.485,7.92 1.543,7.886 1.025,7.243 0.959,7.162 0.916,7.023 0.937,6.945 1.262,5.741 1.275,4.437 1.199,3.107 1.163,2.47 1.089,1.825 1.028,1.137 M 0.698,1.162 C 0.729,1.167 0.76,1.173 0.791,1.179 0.786,1.223 0.772,1.266 0.778,1.312 0.985,2.973 1.076,4.604 0.828,6.149 0.734,6.729 0.573,7.268 0.178,7.679 -0.36,8.238 -1.398,8.025 -1.896,7.246 -1.99,7.099 -2.001,7.013 -1.892,6.899 -1.667,6.667 -1.447,6.417 -1.311,6.123 -0.913,5.261 -0.545,4.38 -0.187,3.494 0.123,2.725 0.404,1.94 0.698,1.162 M 0.234,0.746 C 0.253,0.777 0.272,0.809 0.292,0.84 -0.618,1.442 -1.53,2.041 -2.436,2.646 -3.315,3.234 -4.227,3.79 -4.79,4.69 c -0.028,0.045 -0.16,0.045 -0.241,0.02 -0.738,-0.222 -1.24,-1 -1.046,-1.627 0.124,-0.4 0.394,-0.691 0.748,-0.907 0.84,-0.511 1.83,-0.789 2.861,-0.991 C -1.581,1.011 -0.667,0.89 0.234,0.746 M 0.383,1.1 C 0.389,1.168 0.399,1.197 0.391,1.217 -0.128,2.563 -0.633,3.918 -1.179,5.249 -1.416,5.826 -1.681,6.395 -2.193,6.782 -2.628,7.11 -3.325,7.029 -3.916,6.57 -4.511,6.107 -4.785,5.418 -4.56,4.917 -4.284,4.302 -3.759,3.901 -3.216,3.526 -2.039,2.711 -0.839,1.921 0.383,1.1 m -2.412,-2.047 c -0.427,-0.164 -0.856,-0.341 -1.287,-0.49 -0.333,-0.114 -0.67,-0.205 -1.005,-0.286 -0.404,-0.097 -0.73,-0.004 -0.946,0.232 -0.259,0.284 -0.17,0.652 0.129,1.013 -0.362,0.132 -0.736,0.232 -1.06,0.397 -0.333,0.171 -0.496,0.482 -0.492,0.892 0.004,0.414 0.205,0.77 0.596,1.077 0.093,0.073 0.19,0.14 0.306,0.226 -0.393,0.397 -0.718,0.821 -0.563,1.487 0.152,0.655 0.613,1.11 1.424,1.418 -0.027,0.621 0.227,1.209 0.844,1.696 0.61,0.482 1.239,0.652 1.852,0.452 0.407,0.689 0.978,1.066 1.688,1.085 C 0.141,8.269 0.5,7.866 0.781,7.371 0.848,7.424 0.893,7.453 0.928,7.489 1.732,8.312 2.78,8.058 3.013,7.32 3.124,6.969 3.131,6.565 3.185,6.184 4.112,6.487 4.621,6.01 4.197,5.106 3.908,4.492 3.489,3.899 3.126,3.297 3.073,3.209 3.008,3.125 2.951,3.042 3.337,2.675 3.318,2.436 2.784,1.959 2.357,1.578 1.911,1.192 1.43,0.898 0.879,0.562 0.478,0.088 -0.012,-0.298 c -0.357,-0.283 -0.708,-0.579 -1.084,-0.83 -0.44,-0.295 -0.727,-0.224 -0.933,0.181" /></g><g
           transform="translate(108.2954,129.5137)"
           id="g340"><path
             id="path342"
             style="fill:none;stroke:#000000;stroke-width:0.14399999;stroke-linecap:butt;stroke-linejoin:miter;stroke-miterlimit:10;stroke-dasharray:none;stroke-opacity:1"
             d="m 0,0 -0.025,0.019 c -0.504,-0.241 -1.01,-0.478 -1.511,-0.728 -0.063,-0.031 -0.149,-0.139 -0.146,-0.188 0.003,-0.06 0.089,-0.144 0.138,-0.13 0.169,0.045 0.357,0.099 0.503,0.204 C -0.684,-0.565 -0.346,-0.276 0,0 Z M 1.574,1.296 C 1.582,1.289 1.589,1.282 1.597,1.275 1.935,1.545 2.284,1.803 2.605,2.09 2.745,2.216 2.837,2.398 2.923,2.562 2.944,2.601 2.865,2.691 2.804,2.711 2.766,2.724 2.651,2.662 2.61,2.611 2.26,2.176 1.918,1.735 1.574,1.296 Z m -2.261,-1.318 c -0.056,-0.011 -0.111,-0.019 -0.167,-0.032 -1.245,-0.302 -2.459,-0.43 -3.643,-0.395 -0.211,0.007 -0.352,-0.053 -0.493,-0.237 -0.152,-0.2 -0.189,-0.378 -0.09,-0.541 0.163,-0.267 0.462,-0.317 0.816,-0.237 1.225,0.277 2.401,0.846 3.577,1.442 z M 1.79,1.917 C 2.562,2.895 3.319,3.871 3.87,4.936 3.939,5.07 4.025,5.225 4.021,5.346 4.014,5.557 3.982,5.775 3.888,5.943 3.799,6.104 3.581,6.086 3.353,5.983 3.138,5.886 3.053,5.753 3.006,5.55 2.886,5.033 2.77,4.512 2.592,3.996 2.356,3.306 2.063,2.619 1.79,1.917 Z M 0.201,0.447 0.209,0.532 C 0.122,0.541 0.034,0.549 -0.053,0.559 -1.965,0.768 -3.83,1.064 -5.412,1.889 -5.476,1.922 -5.608,1.907 -5.695,1.866 -6.204,1.624 -6.468,1.2 -6.409,0.748 c 0.063,-0.485 0.414,-0.708 0.872,-0.812 1.204,-0.274 2.523,-0.156 3.866,0.076 0.62,0.107 1.247,0.288 1.872,0.435 z m 0.827,0.69 C 1.108,1.262 1.167,1.345 1.215,1.43 2.079,2.959 2.635,4.508 2.827,6.065 2.878,6.482 2.837,6.91 2.712,7.268 2.485,7.92 1.543,7.886 1.025,7.243 0.959,7.162 0.916,7.023 0.937,6.945 1.262,5.741 1.275,4.437 1.199,3.107 1.163,2.47 1.089,1.825 1.028,1.137 Z M 0.698,1.162 C 0.729,1.167 0.76,1.173 0.791,1.179 0.786,1.223 0.772,1.266 0.778,1.312 0.985,2.973 1.076,4.604 0.828,6.149 0.734,6.729 0.573,7.268 0.178,7.679 -0.36,8.238 -1.398,8.025 -1.896,7.246 -1.99,7.099 -2.001,7.013 -1.892,6.899 -1.667,6.667 -1.447,6.417 -1.311,6.123 -0.913,5.261 -0.545,4.38 -0.187,3.494 0.123,2.725 0.404,1.94 0.698,1.162 Z M 0.234,0.746 C 0.253,0.777 0.272,0.809 0.292,0.84 -0.618,1.442 -1.53,2.041 -2.436,2.646 -3.315,3.234 -4.227,3.79 -4.79,4.69 c -0.028,0.045 -0.16,0.045 -0.241,0.02 -0.738,-0.222 -1.24,-1 -1.046,-1.627 0.124,-0.4 0.394,-0.691 0.748,-0.907 0.84,-0.511 1.83,-0.789 2.861,-0.991 C -1.581,1.011 -0.667,0.89 0.234,0.746 Z M 0.383,1.1 C 0.389,1.168 0.399,1.197 0.391,1.217 -0.128,2.563 -0.633,3.918 -1.179,5.249 -1.416,5.826 -1.681,6.395 -2.193,6.782 -2.628,7.11 -3.325,7.029 -3.916,6.57 -4.511,6.107 -4.785,5.418 -4.56,4.917 -4.284,4.302 -3.759,3.901 -3.216,3.526 -2.039,2.711 -0.839,1.921 0.383,1.1 Z m -2.412,-2.047 c -0.427,-0.164 -0.856,-0.341 -1.287,-0.49 -0.333,-0.114 -0.67,-0.205 -1.005,-0.286 -0.404,-0.097 -0.73,-0.004 -0.946,0.232 -0.259,0.284 -0.17,0.652 0.129,1.013 -0.362,0.132 -0.736,0.232 -1.06,0.397 -0.333,0.171 -0.496,0.482 -0.492,0.892 0.004,0.414 0.205,0.77 0.596,1.077 0.093,0.073 0.19,0.14 0.306,0.226 -0.393,0.397 -0.718,0.821 -0.563,1.487 0.152,0.655 0.613,1.11 1.424,1.418 -0.027,0.621 0.227,1.209 0.844,1.696 0.61,0.482 1.239,0.652 1.852,0.452 0.407,0.689 0.978,1.066 1.688,1.085 C 0.141,8.269 0.5,7.866 0.781,7.371 0.848,7.424 0.893,7.453 0.928,7.489 1.732,8.312 2.78,8.058 3.013,7.32 3.124,6.969 3.131,6.565 3.185,6.184 4.112,6.487 4.621,6.01 4.197,5.106 3.908,4.492 3.489,3.899 3.126,3.297 3.073,3.209 3.008,3.125 2.951,3.042 3.337,2.675 3.318,2.436 2.784,1.959 2.357,1.578 1.911,1.192 1.43,0.898 0.879,0.562 0.478,0.088 -0.012,-0.298 c -0.357,-0.283 -0.708,-0.579 -1.084,-0.83 -0.44,-0.295 -0.727,-0.224 -0.933,0.181 z" /></g><g
           transform="translate(108.6787,130.6138)"
           id="g344"><path
             id="path346"
             style="fill:#847fbb;fill-opacity:1;fill-rule:nonzero;stroke:none"
             d="m 0,0 c -1.222,0.821 -2.422,1.611 -3.6,2.426 -0.542,0.375 -1.067,0.776 -1.343,1.39 -0.225,0.502 0.048,1.191 0.644,1.654 0.591,0.459 1.288,0.54 1.723,0.212 0.512,-0.387 0.777,-0.956 1.014,-1.533 0.546,-1.331 1.05,-2.686 1.57,-4.032 C 0.016,0.097 0.005,0.068 0,0" /></g><g
           transform="translate(108.6787,130.6138)"
           id="g348"><path
             id="path350"
             style="fill:none;stroke:#000000;stroke-width:0.14399999;stroke-linecap:butt;stroke-linejoin:miter;stroke-miterlimit:10;stroke-dasharray:none;stroke-opacity:1"
             d="m 0,0 c -1.222,0.821 -2.422,1.611 -3.6,2.426 -0.542,0.375 -1.067,0.776 -1.343,1.39 -0.225,0.502 0.048,1.191 0.644,1.654 0.591,0.459 1.288,0.54 1.723,0.212 0.512,-0.387 0.777,-0.956 1.014,-1.533 0.546,-1.331 1.05,-2.686 1.57,-4.032 C 0.016,0.097 0.005,0.068 0,0 Z" /></g><g
           transform="translate(108.5298,130.2593)"
           id="g352"><path
             id="path354"
             style="fill:#847fbb;fill-opacity:1;fill-rule:nonzero;stroke:none"
             d="m 0,0 c -0.902,0.145 -1.815,0.266 -2.702,0.439 -1.031,0.203 -2.021,0.48 -2.861,0.992 -0.354,0.215 -0.624,0.506 -0.749,0.907 -0.193,0.626 0.309,1.405 1.046,1.627 0.082,0.025 0.214,0.025 0.242,-0.02 C -4.461,3.044 -3.549,2.488 -2.67,1.901 -1.764,1.295 -0.852,0.696 0.057,0.095 0.038,0.063 0.019,0.032 0,0" /></g><g
           transform="translate(108.5298,130.2593)"
           id="g356"><path
             id="path358"
             style="fill:none;stroke:#000000;stroke-width:0.14399999;stroke-linecap:butt;stroke-linejoin:miter;stroke-miterlimit:10;stroke-dasharray:none;stroke-opacity:1"
             d="m 0,0 c -0.902,0.145 -1.815,0.266 -2.702,0.439 -1.031,0.203 -2.021,0.48 -2.861,0.992 -0.354,0.215 -0.624,0.506 -0.749,0.907 -0.193,0.626 0.309,1.405 1.046,1.627 0.082,0.025 0.214,0.025 0.242,-0.02 C -4.461,3.044 -3.549,2.488 -2.67,1.901 -1.764,1.295 -0.852,0.696 0.057,0.095 0.038,0.063 0.019,0.032 0,0 Z" /></g><g
           transform="translate(108.9932,130.6758)"
           id="g360"><path
             id="path362"
             style="fill:#847fbb;fill-opacity:1;fill-rule:nonzero;stroke:none"
             d="m 0,0 c -0.294,0.778 -0.575,1.563 -0.885,2.332 -0.358,0.886 -0.725,1.767 -1.124,2.629 -0.136,0.294 -0.356,0.544 -0.58,0.776 -0.11,0.114 -0.099,0.2 -0.004,0.347 0.497,0.779 1.535,0.992 2.073,0.433 C -0.125,6.106 0.037,5.566 0.13,4.987 0.378,3.442 0.287,1.811 0.08,0.15 0.074,0.104 0.088,0.061 0.093,0.017 0.062,0.011 0.031,0.005 0,0" /></g><g
           transform="translate(108.9932,130.6758)"
           id="g364"><path
             id="path366"
             style="fill:none;stroke:#000000;stroke-width:0.14399999;stroke-linecap:butt;stroke-linejoin:miter;stroke-miterlimit:10;stroke-dasharray:none;stroke-opacity:1"
             d="m 0,0 c -0.294,0.778 -0.575,1.563 -0.885,2.332 -0.358,0.886 -0.725,1.767 -1.124,2.629 -0.136,0.294 -0.356,0.544 -0.58,0.776 -0.11,0.114 -0.099,0.2 -0.004,0.347 0.497,0.779 1.535,0.992 2.073,0.433 C -0.125,6.106 0.037,5.566 0.13,4.987 0.378,3.442 0.287,1.811 0.08,0.15 0.074,0.104 0.088,0.061 0.093,0.017 0.062,0.011 0.031,0.005 0,0 Z" /></g><g
           transform="translate(109.3232,130.6509)"
           id="g368"><path
             id="path370"
             style="fill:#847fbb;fill-opacity:1;fill-rule:nonzero;stroke:none"
             d="M 0,0 C 0.061,0.687 0.135,1.333 0.171,1.97 0.247,3.3 0.234,4.604 -0.091,5.808 -0.112,5.886 -0.068,6.025 -0.003,6.105 0.516,6.749 1.457,6.783 1.684,6.131 1.809,5.773 1.851,5.345 1.799,4.928 1.607,3.371 1.051,1.822 0.187,0.292 0.139,0.208 0.08,0.125 0,0" /></g><g
           transform="translate(109.3232,130.6509)"
           id="g372"><path
             id="path374"
             style="fill:none;stroke:#000000;stroke-width:0.14399999;stroke-linecap:butt;stroke-linejoin:miter;stroke-miterlimit:10;stroke-dasharray:none;stroke-opacity:1"
             d="M 0,0 C 0.061,0.687 0.135,1.333 0.171,1.97 0.247,3.3 0.234,4.604 -0.091,5.808 -0.112,5.886 -0.068,6.025 -0.003,6.105 0.516,6.749 1.457,6.783 1.684,6.131 1.809,5.773 1.851,5.345 1.799,4.928 1.607,3.371 1.051,1.822 0.187,0.292 0.139,0.208 0.08,0.125 0,0 Z" /></g><g
           transform="translate(108.4526,129.9268)"
           id="g376"><path
             id="path378"
             style="fill:#847fbb;fill-opacity:1;fill-rule:nonzero;stroke:none"
             d="m 0,0 c -0.611,-0.145 -1.225,-0.322 -1.831,-0.426 -1.314,-0.227 -2.605,-0.343 -3.782,-0.075 -0.448,0.102 -0.791,0.32 -0.854,0.795 -0.057,0.442 0.201,0.857 0.699,1.094 0.085,0.04 0.214,0.055 0.278,0.022 C -3.943,0.603 -2.119,0.313 -0.248,0.108 -0.163,0.099 -0.077,0.091 0.009,0.083 0.006,0.055 0.003,0.027 0,0" /></g><g
           transform="translate(108.4526,129.9268)"
           id="g380"><path
             id="path382"
             style="fill:none;stroke:#000000;stroke-width:0.14399999;stroke-linecap:butt;stroke-linejoin:miter;stroke-miterlimit:10;stroke-dasharray:none;stroke-opacity:1"
             d="m 0,0 c -0.611,-0.145 -1.225,-0.322 -1.831,-0.426 -1.314,-0.227 -2.605,-0.343 -3.782,-0.075 -0.448,0.102 -0.791,0.32 -0.854,0.795 -0.057,0.442 0.201,0.857 0.699,1.094 0.085,0.04 0.214,0.055 0.278,0.022 C -3.943,0.603 -2.119,0.313 -0.248,0.108 -0.163,0.099 -0.077,0.091 0.009,0.083 0.006,0.055 0.003,0.027 0,0 Z" /></g><g
           transform="translate(110.0854,131.4307)"
           id="g384"><path
             id="path386"
             style="fill:#847fbb;fill-opacity:1;fill-rule:nonzero;stroke:none"
             d="M 0,0 C 0.273,0.702 0.566,1.389 0.802,2.079 0.979,2.595 1.096,3.116 1.216,3.633 1.263,3.836 1.348,3.969 1.562,4.066 1.791,4.169 2.009,4.187 2.098,4.026 2.192,3.858 2.224,3.64 2.231,3.429 2.235,3.308 2.149,3.153 2.08,3.019 1.529,1.954 0.772,0.978 0,0" /></g><g
           transform="translate(110.0854,131.4307)"
           id="g388"><path
             id="path390"
             style="fill:none;stroke:#000000;stroke-width:0.14399999;stroke-linecap:butt;stroke-linejoin:miter;stroke-miterlimit:10;stroke-dasharray:none;stroke-opacity:1"
             d="M 0,0 C 0.273,0.702 0.566,1.389 0.802,2.079 0.979,2.595 1.096,3.116 1.216,3.633 1.263,3.836 1.348,3.969 1.562,4.066 1.791,4.169 2.009,4.187 2.098,4.026 2.192,3.858 2.224,3.64 2.231,3.429 2.235,3.308 2.149,3.153 2.08,3.019 1.529,1.954 0.772,0.978 0,0 Z" /></g><g
           transform="translate(107.584,129.4673)"
           id="g392"><path
             id="path394"
             style="fill:#847fbb;fill-opacity:1;fill-rule:nonzero;stroke:none"
             d="m 0,0 c -1.15,-0.583 -2.301,-1.14 -3.499,-1.411 -0.347,-0.078 -0.64,-0.029 -0.798,0.232 -0.098,0.159 -0.061,0.334 0.088,0.529 0.137,0.18 0.276,0.239 0.482,0.233 1.158,-0.036 2.346,0.09 3.564,0.385 C -0.108,-0.019 -0.054,-0.011 0,0" /></g><g
           transform="translate(107.584,129.4673)"
           id="g396"><path
             id="path398"
             style="fill:none;stroke:#000000;stroke-width:0.14399999;stroke-linecap:butt;stroke-linejoin:miter;stroke-miterlimit:10;stroke-dasharray:none;stroke-opacity:1"
             d="m 0,0 c -1.15,-0.583 -2.301,-1.14 -3.499,-1.411 -0.347,-0.078 -0.64,-0.029 -0.798,0.232 -0.098,0.159 -0.061,0.334 0.088,0.529 0.137,0.18 0.276,0.239 0.482,0.233 1.158,-0.036 2.346,0.09 3.564,0.385 C -0.108,-0.019 -0.054,-0.011 0,0 Z" /></g><g
           transform="translate(109.8696,130.8096)"
           id="g400"><path
             id="path402"
             style="fill:#847fbb;fill-opacity:1;fill-rule:nonzero;stroke:none"
             d="M 0,0 C 0.344,0.439 0.686,0.88 1.036,1.315 1.077,1.366 1.191,1.428 1.229,1.416 1.291,1.396 1.37,1.305 1.349,1.266 1.263,1.103 1.17,0.92 1.031,0.794 0.71,0.507 0.36,0.249 0.022,-0.021 0.015,-0.014 0.008,-0.007 0,0" /></g><g
           transform="translate(109.8696,130.8096)"
           id="g404"><path
             id="path406"
             style="fill:none;stroke:#000000;stroke-width:0.14399999;stroke-linecap:butt;stroke-linejoin:miter;stroke-miterlimit:10;stroke-dasharray:none;stroke-opacity:1"
             d="M 0,0 C 0.344,0.439 0.686,0.88 1.036,1.315 1.077,1.366 1.191,1.428 1.229,1.416 1.291,1.396 1.37,1.305 1.349,1.266 1.263,1.103 1.17,0.92 1.031,0.794 0.71,0.507 0.36,0.249 0.022,-0.021 0.015,-0.014 0.008,-0.007 0,0 Z" /></g><g
           transform="translate(108.2954,129.5137)"
           id="g408"><path
             id="path410"
             style="fill:#847fbb;fill-opacity:1;fill-rule:nonzero;stroke:none"
             d="m 0,0 c -0.346,-0.276 -0.684,-0.565 -1.041,-0.823 -0.146,-0.105 -0.334,-0.159 -0.503,-0.204 -0.049,-0.014 -0.135,0.07 -0.138,0.13 -0.003,0.049 0.083,0.157 0.146,0.188 0.501,0.25 1.007,0.487 1.511,0.728 L 0,0 Z" /></g><g
           transform="translate(108.2954,129.5137)"
           id="g412"><path
             id="path414"
             style="fill:none;stroke:#000000;stroke-width:0.14399999;stroke-linecap:butt;stroke-linejoin:miter;stroke-miterlimit:10;stroke-dasharray:none;stroke-opacity:1"
             d="m 0,0 c -0.346,-0.276 -0.684,-0.565 -1.041,-0.823 -0.146,-0.105 -0.334,-0.159 -0.503,-0.204 -0.049,-0.014 -0.135,0.07 -0.138,0.13 -0.003,0.049 0.083,0.157 0.146,0.188 0.501,0.25 1.007,0.487 1.511,0.728 L 0,0 Z" /></g><g
           id="g416"><g
             id="g418" /><g
             id="g424"><g
               style="opacity:0.25"
               id="g426"
               clip-path="url(#clipPath420)"><g
                 id="g428"
                 transform="translate(116.2158,117.3584)"><path
                   id="path430"
                   style="fill:#b9e1d8;fill-opacity:1;fill-rule:nonzero;stroke:none"
                   d="m 0,0 c 0.201,-0.622 -0.141,-1.29 -0.764,-1.491 -0.622,-0.2 -1.29,0.141 -1.491,0.763 -0.2,0.624 0.142,1.29 0.764,1.492 C -0.868,0.965 -0.201,0.623 0,0" /></g></g></g></g><g
           id="g432"><g
             id="g434" /><g
             id="g440"><g
               style="opacity:0.25"
               id="g442"
               clip-path="url(#clipPath436)"><g
                 id="g444"
                 transform="translate(110.502,118.2607)"><path
                   id="path446"
                   style="fill:#b9e1d8;fill-opacity:1;fill-rule:nonzero;stroke:none"
                   d="m 0,0 c 0.201,-0.623 -0.141,-1.29 -0.764,-1.491 -0.622,-0.201 -1.29,0.14 -1.491,0.762 -0.201,0.624 0.141,1.291 0.764,1.492 C -0.869,0.964 -0.201,0.622 0,0" /></g></g></g></g><g
           id="g448"><g
             id="g450" /><g
             id="g456"><g
               style="opacity:0.25"
               id="g458"
               clip-path="url(#clipPath452)"><g
                 id="g460"
                 transform="translate(115.7861,115.2354)"><path
                   id="path462"
                   style="fill:#b9e1d8;fill-opacity:1;fill-rule:nonzero;stroke:none"
                   d="m 0,0 c 0.2,-0.622 -0.142,-1.29 -0.764,-1.491 -0.623,-0.201 -1.29,0.14 -1.491,0.763 -0.201,0.623 0.141,1.29 0.764,1.492 C -0.869,0.965 -0.201,0.623 0,0" /></g></g></g></g><g
           id="g464"><g
             id="g466" /><g
             id="g472"><g
               style="opacity:0.25"
               id="g474"
               clip-path="url(#clipPath468)"><g
                 id="g476"
                 transform="translate(111.6411,132.4634)"><path
                   id="path478"
                   style="fill:#b9e1d8;fill-opacity:1;fill-rule:nonzero;stroke:none"
                   d="m 0,0 c 0.201,-0.623 -0.141,-1.29 -0.763,-1.491 -0.623,-0.201 -1.29,0.141 -1.491,0.763 -0.202,0.623 0.14,1.29 0.763,1.491 C -0.869,0.964 -0.201,0.623 0,0" /></g></g></g></g><g
           id="g480"><g
             id="g482" /><g
             id="g488"><g
               style="opacity:0.25"
               id="g490"
               clip-path="url(#clipPath484)"><g
                 id="g492"
                 transform="translate(112.9023,119.3789)"><path
                   id="path494"
                   style="fill:#b9e1d8;fill-opacity:1;fill-rule:nonzero;stroke:none"
                   d="m 0,0 c 0.201,-0.622 -0.141,-1.29 -0.764,-1.491 -0.622,-0.201 -1.29,0.14 -1.49,0.763 -0.202,0.623 0.14,1.29 0.763,1.492 C -0.869,0.964 -0.201,0.623 0,0" /></g></g></g></g><g
           id="g496"><g
             id="g498" /><g
             id="g504"><g
               style="opacity:0.25"
               id="g506"
               clip-path="url(#clipPath500)"><g
                 id="g508"
                 transform="translate(112.6729,115.2256)"><path
                   id="path510"
                   style="fill:#b9e1d8;fill-opacity:1;fill-rule:nonzero;stroke:none"
                   d="m 0,0 c 0.201,-0.622 -0.141,-1.29 -0.763,-1.491 -0.623,-0.2 -1.29,0.14 -1.491,0.763 -0.202,0.623 0.14,1.29 0.763,1.492 C -0.869,0.965 -0.201,0.623 0,0" /></g></g></g></g><g
           id="g512"><g
             id="g514" /><g
             id="g520"><g
               style="opacity:0.25"
               id="g522"
               clip-path="url(#clipPath516)"><g
                 id="g524"
                 transform="translate(120.8125,126.2441)"><path
                   id="path526"
                   style="fill:#b9e1d8;fill-opacity:1;fill-rule:nonzero;stroke:none"
                   d="m 0,0 c 0.201,-0.623 -0.141,-1.29 -0.763,-1.491 -0.623,-0.201 -1.29,0.141 -1.491,0.763 -0.201,0.623 0.141,1.29 0.764,1.491 C -0.868,0.964 -0.2,0.623 0,0" /></g></g></g></g><g
           id="g528"><g
             id="g530" /><g
             id="g536"><g
               style="opacity:0.25"
               id="g538"
               clip-path="url(#clipPath532)"><g
                 id="g540"
                 transform="translate(119.75,113.4102)"><path
                   id="path542"
                   style="fill:#b9e1d8;fill-opacity:1;fill-rule:nonzero;stroke:none"
                   d="m 0,0 c 0.2,-0.623 -0.141,-1.29 -0.764,-1.491 -0.622,-0.201 -1.29,0.14 -1.491,0.763 -0.201,0.623 0.141,1.29 0.764,1.491 C -0.869,0.964 -0.201,0.622 0,0" /></g></g></g></g><g
           id="g544"><g
             id="g546" /><g
             id="g552"><g
               style="opacity:0.25"
               id="g554"
               clip-path="url(#clipPath548)"><g
                 id="g556"
                 transform="translate(113.5244,130.9292)"><path
                   id="path558"
                   style="fill:#b9e1d8;fill-opacity:1;fill-rule:nonzero;stroke:none"
                   d="m 0,0 c 0.2,-0.623 -0.142,-1.29 -0.764,-1.491 -0.623,-0.201 -1.29,0.14 -1.491,0.763 -0.201,0.623 0.141,1.29 0.764,1.491 C -0.869,0.964 -0.201,0.623 0,0" /></g></g></g></g><g
           id="g560"><g
             id="g562" /><g
             id="g568"><g
               style="opacity:0.25"
               id="g570"
               clip-path="url(#clipPath564)"><g
                 id="g572"
                 transform="translate(109.0332,129.4795)"><path
                   id="path574"
                   style="fill:#b9e1d8;fill-opacity:1;fill-rule:nonzero;stroke:none"
                   d="m 0,0 c 0.201,-0.623 -0.141,-1.291 -0.763,-1.491 -0.623,-0.201 -1.29,0.14 -1.491,0.763 -0.201,0.623 0.141,1.29 0.763,1.491 C -0.868,0.964 -0.201,0.623 0,0" /></g></g></g></g><g
           id="g576"><g
             id="g578" /><g
             id="g584"><g
               style="opacity:0.25"
               id="g586"
               clip-path="url(#clipPath580)"><g
                 id="g588"
                 transform="translate(114.1357,126.3848)"><path
                   id="path590"
                   style="fill:#b9e1d8;fill-opacity:1;fill-rule:nonzero;stroke:none"
                   d="m 0,0 c 0.201,-0.623 -0.141,-1.29 -0.764,-1.491 -0.622,-0.201 -1.29,0.14 -1.491,0.763 -0.201,0.623 0.141,1.29 0.764,1.491 C -0.869,0.964 -0.201,0.623 0,0" /></g></g></g></g><g
           id="g592"><g
             id="g594" /><g
             id="g600"><g
               style="opacity:0.25"
               id="g602"
               clip-path="url(#clipPath596)"><g
                 id="g604"
                 transform="translate(115.8711,122.6816)"><path
                   id="path606"
                   style="fill:#b9e1d8;fill-opacity:1;fill-rule:nonzero;stroke:none"
                   d="m 0,0 c 0.201,-0.622 -0.141,-1.29 -0.764,-1.491 -0.622,-0.2 -1.29,0.141 -1.491,0.763 -0.2,0.623 0.142,1.29 0.764,1.492 C -0.868,0.965 -0.201,0.623 0,0" /></g></g></g></g><g
           id="g608"><g
             id="g610" /><g
             id="g616"><g
               style="opacity:0.25"
               id="g618"
               clip-path="url(#clipPath612)"><g
                 id="g620"
                 transform="translate(118.876,124.0854)"><path
                   id="path622"
                   style="fill:#b9e1d8;fill-opacity:1;fill-rule:nonzero;stroke:none"
                   d="m 0,0 c 0.201,-0.623 -0.141,-1.291 -0.764,-1.491 -0.622,-0.201 -1.29,0.141 -1.491,0.763 -0.201,0.623 0.141,1.29 0.764,1.491 C -0.869,0.964 -0.201,0.623 0,0" /></g></g></g></g><g
           id="g624"><g
             id="g626" /><g
             id="g632"><g
               style="opacity:0.25"
               id="g634"
               clip-path="url(#clipPath628)"><g
                 id="g636"
                 transform="translate(122.959,113.2012)"><path
                   id="path638"
                   style="fill:#b9e1d8;fill-opacity:1;fill-rule:nonzero;stroke:none"
                   d="m 0,0 c 0.201,-0.622 -0.141,-1.29 -0.764,-1.491 -0.622,-0.201 -1.29,0.14 -1.491,0.763 -0.201,0.623 0.141,1.29 0.764,1.492 C -0.869,0.965 -0.201,0.623 0,0" /></g></g></g></g><g
           id="g640"><g
             id="g642" /><g
             id="g648"><g
               style="opacity:0.25"
               id="g650"
               clip-path="url(#clipPath644)"><g
                 id="g652"
                 transform="translate(125.8691,111.6514)"><path
                   id="path654"
                   style="fill:#b9e1d8;fill-opacity:1;fill-rule:nonzero;stroke:none"
                   d="m 0,0 c 0.201,-0.622 -0.141,-1.29 -0.763,-1.491 -0.623,-0.201 -1.29,0.14 -1.491,0.763 -0.201,0.623 0.141,1.29 0.763,1.492 C -0.868,0.965 -0.201,0.623 0,0" /></g></g></g></g><g
           id="g656"><g
             id="g658" /><g
             id="g664"><g
               style="opacity:0.25"
               id="g666"
               clip-path="url(#clipPath660)"><g
                 id="g668"
                 transform="translate(110.7271,124.2329)"><path
                   id="path670"
                   style="fill:#b9e1d8;fill-opacity:1;fill-rule:nonzero;stroke:none"
                   d="m 0,0 c 0.201,-0.623 -0.141,-1.291 -0.763,-1.492 -0.623,-0.2 -1.29,0.142 -1.491,0.764 -0.201,0.623 0.141,1.29 0.763,1.491 C -0.868,0.964 -0.201,0.623 0,0" /></g></g></g></g><g
           id="g672"><g
             id="g674" /><g
             id="g680"><g
               style="opacity:0.25"
               id="g682"
               clip-path="url(#clipPath676)"><g
                 id="g684"
                 transform="translate(104.001,124.0142)"><path
                   id="path686"
                   style="fill:#b9e1d8;fill-opacity:1;fill-rule:nonzero;stroke:none"
                   d="m 0,0 c 0.201,-0.623 -0.141,-1.291 -0.763,-1.492 -0.623,-0.2 -1.29,0.142 -1.491,0.764 -0.202,0.623 0.14,1.29 0.763,1.491 C -0.869,0.964 -0.201,0.623 0,0" /></g></g></g></g><g
           id="g688"><g
             id="g690" /><g
             id="g696"><g
               style="opacity:0.25"
               id="g698"
               clip-path="url(#clipPath692)"><g
                 id="g700"
                 transform="translate(109.2852,120.9893)"><path
                   id="path702"
                   style="fill:#b9e1d8;fill-opacity:1;fill-rule:nonzero;stroke:none"
                   d="m 0,0 c 0.201,-0.623 -0.141,-1.29 -0.763,-1.491 -0.623,-0.201 -1.291,0.14 -1.491,0.763 -0.202,0.623 0.14,1.29 0.763,1.492 C -0.869,0.964 -0.201,0.622 0,0" /></g></g></g></g><g
           id="g704"><g
             id="g706" /><g
             id="g712"><g
               style="opacity:0.25"
               id="g714"
               clip-path="url(#clipPath708)"><g
                 id="g716"
                 transform="translate(107.2168,117.9092)"><path
                   id="path718"
                   style="fill:#b9e1d8;fill-opacity:1;fill-rule:nonzero;stroke:none"
                   d="m 0,0 c 0.201,-0.623 -0.141,-1.29 -0.763,-1.491 -0.623,-0.201 -1.291,0.14 -1.491,0.763 -0.202,0.623 0.14,1.29 0.763,1.491 C -0.869,0.964 -0.201,0.622 0,0" /></g></g></g></g><g
           id="g720"><g
             id="g722" /><g
             id="g728"><g
               style="opacity:0.25"
               id="g730"
               clip-path="url(#clipPath724)"><g
                 id="g732"
                 transform="translate(106.4014,125.1323)"><path
                   id="path734"
                   style="fill:#b9e1d8;fill-opacity:1;fill-rule:nonzero;stroke:none"
                   d="m 0,0 c 0.201,-0.623 -0.141,-1.29 -0.763,-1.491 -0.623,-0.201 -1.29,0.141 -1.491,0.763 -0.201,0.623 0.141,1.29 0.763,1.492 C -0.868,0.964 -0.201,0.623 0,0" /></g></g></g></g><g
           id="g736"><g
             id="g738" /><g
             id="g744"><g
               style="opacity:0.25"
               id="g746"
               clip-path="url(#clipPath740)"><g
                 id="g748"
                 transform="translate(106.2744,120.8281)"><path
                   id="path750"
                   style="fill:#b9e1d8;fill-opacity:1;fill-rule:nonzero;stroke:none"
                   d="m 0,0 c 0.201,-0.622 -0.141,-1.29 -0.764,-1.491 -0.622,-0.201 -1.29,0.14 -1.49,0.763 -0.202,0.623 0.14,1.29 0.763,1.492 C -0.869,0.965 -0.201,0.623 0,0" /></g></g></g></g><g
           transform="translate(117.2275,126.8037)"
           id="g752"><path
             id="path754"
             style="fill:#f7f0eb;fill-opacity:1;fill-rule:nonzero;stroke:none"
             d="M 0,0 C 0.386,2.111 -0.135,2.488 -2.158,3.205 -4.181,3.921 -5.61,2.461 -6.957,0.791 -8.303,-0.88 -8.464,0.224 -7.674,-1.771 c 0.471,-1.191 0.665,-2.259 1.945,-2.299 1.5,-0.046 1.393,0.311 2.309,1.502 0.916,1.19 1.863,1.155 3.42,2.568" /></g><g
           transform="translate(117.2969,126.7847)"
           id="g756"><path
             id="path758"
             style="fill:#000000;fill-opacity:1;fill-rule:nonzero;stroke:none"
             d="M 0,0 C 0.332,2.046 -0.604,3.057 -2.684,3.423 -3.982,3.652 -5.06,3.005 -5.96,2.123 -6.566,1.528 -7.041,0.816 -7.652,0.229 -7.785,0.102 -8.199,-0.139 -8.255,-0.331 -8.453,-1 -7.666,-2.287 -7.384,-2.888 c 0.416,-0.884 0.973,-1.304 1.99,-1.237 0.771,0.052 1.065,0.333 1.519,0.922 1.086,1.409 2.533,2.036 3.856,3.171 0.071,0.06 -0.031,0.162 -0.101,0.102 -1.09,-0.935 -2.513,-1.464 -3.432,-2.583 -0.626,-0.764 -1.052,-1.679 -2.247,-1.466 -1.017,0.181 -2.141,2.05 -2.238,3.132 -0.064,0.726 0.43,0.888 0.906,1.424 0.713,0.805 1.343,1.707 2.288,2.268 1.202,0.713 2.572,0.513 3.753,-0.157 C 0.044,2.047 0.056,1.239 -0.139,0.038 -0.153,-0.052 -0.015,-0.091 0,0" /></g></g></g></g></svg>