<?xml version="1.0" encoding="UTF-8" standalone="no"?>
<svg
   xmlns:dc="http://purl.org/dc/elements/1.1/"
   xmlns:cc="http://creativecommons.org/ns#"
   xmlns:rdf="http://www.w3.org/1999/02/22-rdf-syntax-ns#"
   xmlns:svg="http://www.w3.org/2000/svg"
   xmlns="http://www.w3.org/2000/svg"
   viewBox="0 0 281.25 312.20499"
   height="312.20499"
   width="281.25"
   xml:space="preserve"
   version="1.1"
   id="svg2"><metadata
     id="metadata8"><rdf:RDF><cc:Work
         rdf:about=""><dc:format>image/svg+xml</dc:format><dc:type
           rdf:resource="http://purl.org/dc/dcmitype/StillImage" /></cc:Work></rdf:RDF></metadata><defs
     id="defs6"><clipPath
       id="clipPath20"
       clipPathUnits="userSpaceOnUse"><path
         id="path22"
         d="m 0,0 225,0 0,249.764 -225,0 L 0,0 Z" /></clipPath><clipPath
       id="clipPath40"
       clipPathUnits="userSpaceOnUse"><path
         id="path42"
         d="m 0,0 225,0 0,249.764 -225,0 L 0,0 Z" /></clipPath><clipPath
       id="clipPath64"
       clipPathUnits="userSpaceOnUse"><path
         id="path66"
         d="m 0,249.764 225,0 L 225,0 0,0 0,249.764 Z" /></clipPath></defs><g
     transform="matrix(1.25,0,0,-1.25,0,312.205)"
     id="g10"><g
       transform="translate(1.449,45.846)"
       id="g12"><path
         id="path14"
         style="fill:#f5f5f5;fill-opacity:1;fill-rule:nonzero;stroke:none"
         d="M 0,0 166.043,-45.469 220.074,150.89 56.008,198.332 0,0 Z" /></g><g
       id="g16"><g
         clip-path="url(#clipPath20)"
         id="g18"><g
           transform="translate(57.457,244.1777)"
           id="g24"><path
             id="path26"
             style="fill:none;stroke:#100f0d;stroke-width:0.61000001;stroke-linecap:butt;stroke-linejoin:miter;stroke-miterlimit:10;stroke-dasharray:none;stroke-opacity:1"
             d="M 0,0 164.066,-47.441 110.035,-243.801 -56.008,-198.332 0,0 Z" /></g></g></g><g
       transform="translate(64.8442,228.7324)"
       id="g28"><path
         id="path30"
         style="fill:#f5f5f5;fill-opacity:1;fill-rule:nonzero;stroke:none"
         d="M 0,0 -40.489,-142.278 99.195,-183.539 141.894,-40.949 0,0 Z" /></g><g
       transform="translate(64.8442,228.7324)"
       id="g32"><path
         id="path34"
         style="fill:none;stroke:#000000;stroke-width:0.639;stroke-linecap:butt;stroke-linejoin:miter;stroke-miterlimit:4;stroke-dasharray:none;stroke-opacity:1"
         d="M 0,0 -40.489,-142.278 99.195,-183.539 141.894,-40.949 0,0 Z" /></g><g
       id="g36"><g
         clip-path="url(#clipPath40)"
         id="g38"><g
           transform="translate(0.3789,200.7554)"
           id="g44"><path
             id="path46"
             style="fill:none;stroke:#100f0d;stroke-width:0.61000001;stroke-linecap:butt;stroke-linejoin:miter;stroke-miterlimit:10;stroke-dasharray:none;stroke-opacity:1"
             d="M 0,0 163.723,48.629 224.234,-145.82 59.918,-197.183 0,0 Z" /></g></g></g><g
       transform="translate(0.3789,200.7558)"
       id="g48"><path
         id="path50"
         style="fill:#f5f5f5;fill-opacity:1;fill-rule:nonzero;stroke:none"
         d="M 0,0 59.918,-197.184 224.234,-145.821 163.723,48.629 0,0 Z" /></g><g
       transform="translate(15.8398,190.2441)"
       id="g52"><path
         id="path54"
         style="fill:#e8e7e5;fill-opacity:1;fill-rule:nonzero;stroke:none"
         d="M 0,0 139.629,42.929 183.102,-97.27 44.558,-141.066 0,0 Z" /></g><g
       transform="translate(15.8398,190.2441)"
       id="g56"><path
         id="path58"
         style="fill:none;stroke:#100f0d;stroke-width:0.49700001;stroke-linecap:butt;stroke-linejoin:miter;stroke-miterlimit:10;stroke-dasharray:none;stroke-opacity:1"
         d="M 0,0 139.629,42.929 183.102,-97.27 44.558,-141.066 0,0 Z" /></g><g
       id="g60"><g
         clip-path="url(#clipPath64)"
         id="g62"><g
           transform="translate(134.127,78.333)"
           id="g68"><path
             id="path70"
             style="fill:#cccbcb;fill-opacity:1;fill-rule:nonzero;stroke:none"
             d="m 0,0 c 0.438,-0.688 1.245,-0.817 2.155,-0.799 1,0.022 2.001,-0.01 3.009,0.184 1.555,0.299 2.983,0.917 4.361,1.674 0.546,0.299 0.362,-0.693 0.695,-0.279 0.178,0.223 -0.821,-1.004 0,0 0.004,0.004 1.265,0.004 1.263,0 C 10.584,-0.701 8.798,-0.397 7.072,-1.095 5.626,-1.679 4.136,-1.977 2.621,-2.044 1.831,-2.08 1.073,-1.978 0.393,-1.704 -0.253,-1.446 -0.399,-1.084 -0.143,-0.451 -0.083,-0.303 -0.047,-0.15 0,0" /></g><g
           transform="translate(140.7178,93.7549)"
           id="g72"><path
             id="path74"
             style="fill:#0d72b9;fill-opacity:1;fill-rule:nonzero;stroke:none"
             d="M 0,0 C -0.29,-0.015 -0.313,0.436 -0.023,0.451 0.267,0.467 0.29,0.016 0,0 M 6.863,-9.025 C 6.389,-6.489 6.096,-3.92 5.656,-1.376 5.295,0.718 5.498,2.884 4.695,4.93 4.341,5.831 3.838,6.25 2.932,6.316 1.077,6.451 -0.727,6.157 -2.511,5.693 -2.587,4.847 -2.662,4 -2.738,3.153 -2.052,2.291 -1.242,2.938 -0.491,2.992 0.009,3.027 0.496,3.326 1.117,3.104 -1.067,1.523 -7.651,-0.588 -9.347,-0.252 -7.846,0.841 -5.995,1.103 -4.556,2.16 -4.39,3.162 -4.255,4.165 -4.5,5.174 -5.995,4.796 -7.39,4.144 -8.784,3.516 -10.147,2.901 -11.46,2.167 -12.57,1.132 c -0.592,-0.553 -0.88,-1.126 -0.532,-1.988 0.456,-1.122 0.963,-2.166 1.613,-3.216 1.892,-3.064 3.518,-6.293 5.183,-9.491 0.427,-0.82 0.99,-1.166 1.854,-1.133 0.94,0.036 1.882,0.09 2.822,0.136 l 5.443,1.807 c 0.55,0.624 1.356,0.86 2.012,1.328 0.85,0.605 1.249,1.273 1.038,2.4" /></g><g
           transform="translate(140.7178,93.7549)"
           id="g76"><path
             id="path78"
             style="fill:none;stroke:#000000;stroke-width:0.205;stroke-linecap:butt;stroke-linejoin:miter;stroke-miterlimit:10;stroke-dasharray:none;stroke-opacity:1"
             d="M 0,0 C -0.29,-0.015 -0.313,0.436 -0.023,0.451 0.267,0.467 0.29,0.016 0,0 Z M 6.863,-9.025 C 6.389,-6.489 6.096,-3.92 5.656,-1.376 5.295,0.718 5.498,2.884 4.695,4.93 4.341,5.831 3.838,6.25 2.932,6.316 1.077,6.451 -0.727,6.157 -2.511,5.693 -2.587,4.847 -2.662,4 -2.738,3.153 -2.052,2.291 -1.242,2.938 -0.491,2.992 0.009,3.027 0.496,3.326 1.117,3.104 -1.067,1.523 -7.651,-0.588 -9.347,-0.252 -7.846,0.841 -5.995,1.103 -4.556,2.16 -4.39,3.162 -4.255,4.165 -4.5,5.174 -5.995,4.796 -7.39,4.144 -8.784,3.516 -10.147,2.901 -11.46,2.167 -12.57,1.132 c -0.592,-0.553 -0.88,-1.126 -0.532,-1.988 0.456,-1.122 0.963,-2.166 1.613,-3.216 1.892,-3.064 3.518,-6.293 5.183,-9.491 0.427,-0.82 0.99,-1.166 1.854,-1.133 0.94,0.036 1.882,0.09 2.822,0.136 l 5.443,1.807 c 0.55,0.624 1.356,0.86 2.012,1.328 0.85,0.605 1.249,1.273 1.038,2.4 z" /></g><g
           transform="translate(138.5146,97.7598)"
           id="g80"><path
             id="path82"
             style="fill:#252525;fill-opacity:1;fill-rule:nonzero;stroke:none"
             d="M 0,0 C 1.488,0.271 2.975,0.553 4.465,0.809 4.855,0.876 5.259,0.88 5.656,0.886 5.895,0.89 6.159,0.855 6.267,0.599 6.404,0.269 6.165,0.049 5.937,-0.093 5.26,-0.511 4.584,-0.943 3.864,-1.279 0.158,-3.008 -3.7,-4.273 -7.738,-4.948 c -0.598,-0.1 -1.528,-0.415 -1.753,0.224 -0.273,0.776 0.715,1.012 1.266,1.318 1.573,0.872 3.214,1.599 4.939,2.126 0.377,0.115 0.752,0.29 1.16,0.118 0.005,-0.359 -0.354,-0.973 0.204,-0.992 0.681,-0.024 1.448,0.228 1.768,0.975 C -0.005,-0.828 -0.046,-0.396 0,0" /></g><g
           transform="translate(124.459,114.2676)"
           id="g84"><path
             id="path86"
             style="fill:#69bc45;fill-opacity:1;fill-rule:nonzero;stroke:none"
             d="m 0,0 c 2.909,0.04 5.68,-3.248 7.458,-5.219 3,-3.326 5.553,-7.111 2.92,-11.544 -1.185,-1.993 1.922,-3.803 3.103,-1.814 3.117,5.244 1.363,10.058 -2.254,14.472 C 8.575,-0.871 4.581,3.657 0,3.596 -2.312,3.564 -2.318,-0.031 0,0" /></g><g
           transform="translate(150.8115,117.3027)"
           id="g88"><path
             id="path90"
             style="fill:#69bc45;fill-opacity:1;fill-rule:nonzero;stroke:none"
             d="m 0,0 c 0.026,-0.427 -0.309,-0.628 -0.563,-0.865 -2.344,-2.179 -4.061,-4.765 -5.246,-7.744 -1.286,-3.237 -4.284,-4.826 -7.809,-4.257 -0.368,0.059 -0.712,0.059 -1.041,-0.132 -0.048,0.103 -0.097,0.207 -0.146,0.31 -0.14,0.414 -0.204,0.876 -0.435,1.232 -0.837,1.289 -0.629,2.625 -0.06,3.859 1.319,2.856 3.067,5.373 6.09,6.706 2.36,1.041 4.852,1.351 7.387,1.156 C -1.233,0.219 -0.538,0.511 0,0" /></g><g
           transform="translate(114.8232,110.6201)"
           id="g92"><path
             id="path94"
             style="fill:none;stroke:#231f20;stroke-width:0.191;stroke-linecap:butt;stroke-linejoin:miter;stroke-miterlimit:10;stroke-dasharray:none;stroke-opacity:1"
             d="M 0,0 C 0.123,-0.285 -0.009,-0.616 -0.294,-0.739 -0.579,-0.862 -0.91,-0.731 -1.033,-0.445 -1.156,-0.16 -1.025,0.171 -0.74,0.294 -0.455,0.417 -0.124,0.286 0,0 Z" /></g><g
           transform="translate(77.5293,169.7427)"
           id="g96"><path
             id="path98"
             style="fill:#e6e6e5;fill-opacity:1;fill-rule:nonzero;stroke:none"
             d="M 0,0 35.943,18.081 70.158,-46.304 27.889,-64.563 0,0 Z" /></g><g
           transform="translate(77.5293,169.7427)"
           id="g100"><path
             id="path102"
             style="fill:none;stroke:#231f20;stroke-width:0.62;stroke-linecap:butt;stroke-linejoin:miter;stroke-miterlimit:10;stroke-dasharray:none;stroke-opacity:1"
             d="M 0,0 35.943,18.081 70.158,-46.304 27.889,-64.563 0,0 Z" /></g><g
           transform="translate(111.9385,125.501)"
           id="g104"><path
             id="path106"
             style="fill:#549c44;fill-opacity:1;fill-rule:nonzero;stroke:none"
             d="m 0,0 c 0.689,-1.597 -0.045,-3.449 -1.642,-4.14 -1.596,-0.689 -3.449,0.046 -4.139,1.643 -0.69,1.596 0.046,3.449 1.642,4.139 C -2.542,2.332 -0.689,1.596 0,0" /></g><g
           transform="translate(111.9385,125.501)"
           id="g108"><path
             id="path110"
             style="fill:none;stroke:#231f20;stroke-width:0.50400001;stroke-linecap:butt;stroke-linejoin:miter;stroke-miterlimit:10;stroke-dasharray:none;stroke-opacity:1"
             d="m 0,0 c 0.689,-1.597 -0.045,-3.449 -1.642,-4.14 -1.596,-0.689 -3.449,0.046 -4.139,1.643 -0.69,1.596 0.046,3.449 1.642,4.139 C -2.542,2.332 -0.689,1.596 0,0 Z" /></g><g
           transform="translate(129.4922,134.4556)"
           id="g112"><path
             id="path114"
             style="fill:#faec22;fill-opacity:1;fill-rule:nonzero;stroke:none"
             d="m 0,0 c 0.69,-1.597 -0.045,-3.45 -1.642,-4.139 -1.596,-0.69 -3.449,0.045 -4.138,1.641 -0.69,1.597 0.045,3.45 1.641,4.14 C -2.542,2.331 -0.689,1.596 0,0" /></g><g
           transform="translate(129.4922,134.4556)"
           id="g116"><path
             id="path118"
             style="fill:none;stroke:#231f20;stroke-width:0.50400001;stroke-linecap:butt;stroke-linejoin:miter;stroke-miterlimit:10;stroke-dasharray:none;stroke-opacity:1"
             d="m 0,0 c 0.69,-1.597 -0.045,-3.45 -1.642,-4.139 -1.596,-0.69 -3.449,0.045 -4.138,1.641 -0.69,1.597 0.045,3.45 1.641,4.14 C -2.542,2.331 -0.689,1.596 0,0 Z" /></g><g
           transform="translate(82.5781,169.3535)"
           id="g120"><path
             id="path122"
             style="fill:none;stroke:#231f20;stroke-width:0.132;stroke-linecap:butt;stroke-linejoin:miter;stroke-miterlimit:10;stroke-dasharray:none;stroke-opacity:1"
             d="m 0,0 c 0.19,-0.441 -0.013,-0.953 -0.454,-1.143 -0.44,-0.19 -0.952,0.013 -1.142,0.454 -0.191,0.44 0.013,0.952 0.453,1.142 C -0.702,0.644 -0.19,0.441 0,0 Z" /></g><g
           transform="translate(130.9697,149.0371)"
           id="g124"><path
             id="path126"
             style="fill:none;stroke:#231f20;stroke-width:0.132;stroke-linecap:butt;stroke-linejoin:miter;stroke-miterlimit:10;stroke-dasharray:none;stroke-opacity:1"
             d="m 0,0 c 0.185,-0.427 -0.012,-0.922 -0.438,-1.106 -0.427,-0.185 -0.922,0.012 -1.107,0.439 -0.184,0.426 0.012,0.922 0.439,1.106 C -0.68,0.624 -0.185,0.427 0,0 Z" /></g><g
           transform="translate(80.9321,160.0859)"
           id="g128"><path
             id="path130"
             style="fill:#e6e6e5;fill-opacity:1;fill-rule:nonzero;stroke:none"
             d="m 0,0 c -0.959,-1.571 -2.847,-3.453 -3.806,-5.023 1.38,-2.275 3.711,-3.052 4.586,-5.306 0.874,-2.253 1.082,-3.741 -0.206,-5.786 1.979,0.052 5.022,-0.037 6.985,0.215 C 6.893,-9.91 4.261,-4.155 0.167,0.268" /></g><g
           transform="translate(80.7642,160.1841)"
           id="g132"><path
             id="path134"
             style="fill:#231f20;fill-opacity:1;fill-rule:nonzero;stroke:none"
             d="m 0,0 c -1.172,-1.75 -2.634,-3.273 -3.806,-5.023 -0.036,-0.054 -0.037,-0.144 0,-0.197 2.471,-3.497 7.109,-5.773 4.38,-10.895 -0.068,-0.127 0.015,-0.295 0.168,-0.293 2.331,0.039 4.661,-0.013 6.985,0.215 0.094,0.009 0.21,0.082 0.195,0.194 C 7.116,-9.841 4.603,-4.331 0.472,0.307 0.305,0.495 0.03,0.218 0.197,0.032 c 3.068,-3.446 5.345,-7.438 6.552,-11.907 0.267,-0.99 0.687,-2.034 0.275,-3.045 0.132,-0.955 -0.267,-1.298 -1.194,-1.027 -0.351,-0.011 -0.703,-0.02 -1.054,-0.031 -0.312,-0.007 -2.894,-0.238 -3.127,-0.025 -0.421,0.383 -0.023,0.805 -0.047,1.184 -0.148,2.268 0.207,3.979 -1.408,5.99 -0.925,1.151 -3.541,2.511 -3.201,4.299 0.214,1.124 2.617,3.249 3.343,4.333 C 0.476,0.012 0.139,0.208 0,0" /></g><g
           transform="translate(82.6167,144.0215)"
           id="g136"><path
             id="path138"
             style="fill:#cccbcb;fill-opacity:1;fill-rule:nonzero;stroke:none"
             d="M 0,0 C 0.075,2.901 -0.235,4.128 -1.116,6.224 -1.997,8.32 -3.479,8.949 -4.626,11.012 -4.77,11.269 -5.222,11.164 -5.49,11.041 -5.974,10.82 -6.019,10.157 -5.953,9.63 -5.573,6.576 -3.97,3.829 -2.364,1.204 -2.049,0.688 -1.686,0.136 -1.111,-0.05 -0.536,-0.236 0.244,0.225 0.106,0.813" /></g><g
           transform="translate(82.8115,144.0215)"
           id="g140"><path
             id="path142"
             style="fill:#231f20;fill-opacity:1;fill-rule:nonzero;stroke:none"
             d="m 0,0 c 0.041,2.843 -0.389,5.784 -2.219,8.077 -0.656,0.821 -1.406,1.549 -2.04,2.395 -0.265,0.353 -0.288,0.669 -0.703,0.806 -0.511,0.168 -0.98,-0.073 -1.26,-0.532 C -6.857,9.704 -5.94,7.571 -5.593,6.62 -4.927,4.795 -3.949,3.08 -2.928,1.435 -2.335,0.48 -0.18,-1.478 0.106,0.813 0.137,1.061 -0.252,1.059 -0.283,0.813 -1.564,0.581 -2.4,0.963 -2.792,1.961 -3.059,2.402 -3.32,2.848 -3.576,3.296 -3.954,3.97 -4.322,4.652 -4.645,5.354 -4.95,6.019 -6.019,8.071 -5.84,8.924 c 0.584,2.783 1.352,1.161 1.896,0.507 C -2.708,7.944 -1.619,6.734 -0.988,4.85 -0.456,3.264 -0.366,1.663 -0.39,0 -0.393,-0.251 -0.003,-0.251 0,0" /></g><g
           transform="translate(118.4004,178.0063)"
           id="g144"><path
             id="path146"
             style="fill:#e6e6e5;fill-opacity:1;fill-rule:nonzero;stroke:none"
             d="m 0,0 c 1.733,-0.364 4.299,-0.283 6.033,-0.647 0.684,-2.469 -0.31,-4.616 0.692,-6.716 1.003,-2.101 1.908,-3.229 4.192,-3.675 C 9.575,-12.391 7.629,-14.583 6.156,-15.793 2.397,-11.372 0.1,-5.729 -0.298,0.06" /></g><g
           transform="translate(118.3496,177.8257)"
           id="g148"><path
             id="path150"
             style="fill:#231f20;fill-opacity:1;fill-rule:nonzero;stroke:none"
             d="m 0,0 c 1.284,-0.214 2.744,-0.07 3.979,-0.396 2.945,-0.777 1.912,-2.988 2.16,-5.019 0.288,-2.357 1.53,-3.738 3.257,-5.137 1.201,-0.973 0.596,-1.06 -0.535,-2.231 -0.303,-0.315 -1.677,-2.044 -2.13,-2.123 -1.058,-0.186 -2.353,2.028 -2.767,2.698 -2.342,3.792 -3.634,8.025 -4.024,12.449 -0.02,0.238 -0.396,0.24 -0.375,0 0.525,-5.955 2.724,-11.357 6.509,-15.986 0.068,-0.082 0.196,-0.061 0.266,0 1.693,1.478 3.195,3.146 4.761,4.755 0.096,0.099 0.056,0.279 -0.083,0.314 C 5.793,-9.362 7.04,-4.424 6.265,-0.417 6.253,-0.359 6.192,-0.296 6.134,-0.286 4.133,0.047 2.102,0.028 0.101,0.361 -0.136,0.401 -0.237,0.04 0,0" /></g><g
           transform="translate(128.5488,166.2227)"
           id="g152"><path
             id="path154"
             style="fill:#cccbcb;fill-opacity:1;fill-rule:nonzero;stroke:none"
             d="m 0,0 c -2.083,1.862 -2.738,2.89 -3.626,4.891 -0.889,2 -0.352,3.454 -1.039,5.62 -0.086,0.27 0.286,0.518 0.55,0.625 0.473,0.194 0.968,-0.213 1.294,-0.607 C -0.932,8.247 -0.063,5.311 0.717,2.452 0.87,1.891 1.018,1.271 0.769,0.746 0.52,0.22 -0.318,-0.023 -0.64,0.462" /></g><g
           transform="translate(128.6816,166.3555)"
           id="g156"><path
             id="path158"
             style="fill:#231f20;fill-opacity:1;fill-rule:nonzero;stroke:none"
             d="m 0,0 c -2.325,2.133 -4.831,5.471 -4.286,8.893 -0.034,0.252 -0.075,0.503 -0.126,0.753 1.028,1.007 1.749,0.828 2.16,-0.537 0.521,-0.813 0.94,-1.692 1.303,-2.585 C -0.67,5.834 -0.436,5.126 -0.213,4.417 -0.066,3.941 0.073,3.464 0.206,2.985 0.65,2.051 0.355,1.22 -0.678,0.491 -0.873,0.634 -1.061,0.309 -0.867,0.167 0.698,-0.976 0.999,1.325 0.765,2.369 0.387,4.054 -0.187,5.776 -0.895,7.35 -1.375,8.42 -2.26,10.55 -3.457,11.058 -5.856,12.074 -4.6,8.042 -4.513,7.175 -4.207,4.12 -2.466,1.753 -0.265,-0.265 -0.088,-0.428 0.179,-0.164 0,0" /></g><g
           transform="translate(91.1113,176.3662)"
           id="g160"><path
             id="path162"
             style="fill:#e6e6e5;fill-opacity:1;fill-rule:nonzero;stroke:none"
             d="M 0,0 C -1.191,2.601 -0.359,5.972 1.906,7.719 2.53,8.2 3.356,8.573 4.091,8.291 4.628,8.084 4.982,7.58 5.302,7.102 5.787,6.38 6.271,5.659 6.755,4.938 6.994,4.581 7.24,4.209 7.304,3.784 7.438,2.885 6.732,2.084 6,1.544 4.179,0.201 2.251,-0.231 0,0" /></g><g
           transform="translate(91.3359,176.4277)"
           id="g164"><path
             id="path166"
             style="fill:#231f20;fill-opacity:1;fill-rule:nonzero;stroke:none"
             d="M 0,0 C -0.593,1.441 -0.7,2.992 -0.217,4.489 0.03,5.256 0.404,5.946 0.914,6.566 1.182,6.893 1.476,7.25 1.848,7.466 2.793,8.012 4.238,7.819 4.877,6.923 5.345,6.266 6.012,5.498 6.329,4.759 6.923,3.374 6.394,2.143 5.201,1.367 3.547,0.291 1.705,0.019 -0.225,0.171 c -0.298,0.023 -0.296,-0.442 0,-0.465 C 2.19,-0.485 5.481,0.063 6.917,2.303 7.319,2.931 7.422,3.544 7.163,4.249 6.722,5.446 5.631,6.987 4.718,7.901 3.258,9.36 1.375,7.974 0.382,6.657 -1.087,4.707 -1.371,2.117 -0.449,-0.124 -0.336,-0.396 0.114,-0.277 0,0" /></g><g
           transform="translate(93.9404,184.7021)"
           id="g168"><path
             id="path170"
             style="fill:#231f20;fill-opacity:1;fill-rule:nonzero;stroke:none"
             d="m 0,0 c 1.283,7.142 -2.065,14.795 -2.363,21.929 -0.013,0.298 -0.478,0.3 -0.466,0 C -2.531,14.802 0.829,7.233 -0.449,0.124 -0.501,-0.169 -0.053,-0.295 0,0" /></g><g
           transform="translate(92.2324,179.9092)"
           id="g172"><path
             id="path174"
             style="fill:#231f20;fill-opacity:1;fill-rule:nonzero;stroke:none"
             d="M 0,0 C -6.457,4.834 -13.643,8.117 -21.52,9.838 -21.812,9.902 -21.937,9.454 -21.644,9.39 -13.812,7.678 -6.649,4.4 -0.235,-0.402 0.005,-0.582 0.237,-0.178 0,0" /></g><g
           transform="translate(91.0405,206.521)"
           id="g176"><path
             id="path178"
             style="fill:#edeea2;fill-opacity:1;fill-rule:nonzero;stroke:none"
             d="m 0,0 c -0.891,0.387 -1.543,1.33 -1.482,2.299 0.069,1.09 1.135,2.078 2.251,1.818 C 1.795,3.877 2.293,2.706 1.895,1.73 1.56,0.907 0.865,0.259 0,0" /></g><g
           transform="translate(91.1533,206.7134)"
           id="g180"><path
             id="path182"
             style="fill:#231f20;fill-opacity:1;fill-rule:nonzero;stroke:none"
             d="m 0,0 c -0.793,0.394 -1.447,1.167 -1.372,2.106 0.075,0.939 0.99,1.827 1.969,1.603 C 1.442,3.517 1.854,2.588 1.635,1.794 1.397,0.928 0.646,0.306 -0.172,0.022 -0.441,-0.07 -0.326,-0.501 -0.053,-0.407 1.006,-0.041 2.018,0.856 2.128,2.037 2.224,3.052 1.545,4.063 0.493,4.175 -0.509,4.281 -1.454,3.54 -1.731,2.594 -2.094,1.358 -1.311,0.155 -0.225,-0.385 0.031,-0.512 0.257,-0.127 0,0" /></g><g
           transform="translate(70.7432,189.689)"
           id="g184"><path
             id="path186"
             style="fill:#edeea2;fill-opacity:1;fill-rule:nonzero;stroke:none"
             d="m 0,0 c 0.375,0.531 0.756,1.078 0.909,1.709 0.153,0.632 0.026,1.375 -0.48,1.783 -0.476,0.385 -1.19,0.379 -1.733,0.095 -0.544,-0.283 -0.933,-0.798 -1.2,-1.35 -0.295,-0.61 -0.46,-1.314 -0.284,-1.968 0.177,-0.654 0.763,-1.224 1.44,-1.225 C -0.671,-0.958 0.215,-0.643 0,0" /></g><g
           transform="translate(70.9355,189.5762)"
           id="g188"><path
             id="path190"
             style="fill:#231f20;fill-opacity:1;fill-rule:nonzero;stroke:none"
             d="m 0,0 c 0.712,1.017 1.645,2.732 0.395,3.763 -1.179,0.971 -2.648,-0.086 -3.223,-1.184 -0.599,-1.143 -0.714,-2.936 0.716,-3.526 0.807,-0.332 2.33,0.024 2.134,1.119 -0.05,0.282 -0.48,0.162 -0.429,-0.119 0.099,-0.556 -0.786,-0.7 -1.134,-0.674 -0.583,0.046 -1.067,0.516 -1.224,1.062 -0.249,0.869 0.205,1.99 0.809,2.625 C -1.09,3.976 0.566,3.823 0.555,2.31 0.548,1.523 0.047,0.842 -0.385,0.225 -0.55,-0.01 -0.164,-0.233 0,0" /></g><g
           transform="translate(105.0752,165.1118)"
           id="g192"><path
             id="path194"
             style="fill:#c3c8df;fill-opacity:1;fill-rule:nonzero;stroke:none"
             d="m 0,0 c 2.784,-3.097 3.041,-5.157 0.578,-8.667 -2.289,-3.262 -8.482,-1.941 -11.266,1.156 -2.784,3.098 -2.371,7.741 1.185,10.061 C -5.037,5.463 -2.784,3.098 0,0" /></g><g
           transform="translate(105.0752,165.1118)"
           id="g196"><path
             id="path198"
             style="fill:none;stroke:#231f20;stroke-width:0.095;stroke-linecap:butt;stroke-linejoin:miter;stroke-miterlimit:10;stroke-dasharray:none;stroke-opacity:1"
             d="m 0,0 c 2.784,-3.097 3.041,-5.157 0.578,-8.667 -2.289,-3.262 -8.482,-1.941 -11.266,1.156 -2.784,3.098 -2.371,7.741 1.185,10.061 C -5.037,5.463 -2.784,3.098 0,0 Z" /></g><g
           transform="translate(102.582,163.9741)"
           id="g200"><path
             id="path202"
             style="fill:#333333;fill-opacity:1;fill-rule:nonzero;stroke:none"
             d="m 0,0 c 0.78,-1.646 -0.117,-3.586 -2.003,-4.333 -1.887,-0.745 -4.049,-0.015 -4.83,1.632 -0.78,1.647 0.117,3.586 2.003,4.332 C -2.943,2.377 -0.781,1.647 0,0" /></g><g
           transform="translate(114.0566,167.6748)"
           id="g204"><path
             id="path206"
             style="fill:#c3c8df;fill-opacity:1;fill-rule:nonzero;stroke:none"
             d="m 0,0 c 2.121,-2.65 2.429,-4.32 0.95,-6.998 -1.374,-2.488 -5.739,-1.067 -7.859,1.583 -2.121,2.65 -2.13,6.357 0.18,8.015 C -3.828,4.683 -2.121,2.65 0,0" /></g><g
           transform="translate(114.0566,167.6748)"
           id="g208"><path
             id="path210"
             style="fill:none;stroke:#231f20;stroke-width:0.132;stroke-linecap:butt;stroke-linejoin:miter;stroke-miterlimit:10;stroke-dasharray:none;stroke-opacity:1"
             d="m 0,0 c 2.121,-2.65 2.429,-4.32 0.95,-6.998 -1.374,-2.488 -5.739,-1.067 -7.859,1.583 -2.121,2.65 -2.13,6.357 0.18,8.015 C -3.828,4.683 -2.121,2.65 0,0 Z" /></g><g
           transform="translate(112.3896,167.5864)"
           id="g212"><path
             id="path214"
             style="fill:#333333;fill-opacity:1;fill-rule:nonzero;stroke:none"
             d="m 0,0 c 0.567,-1.313 -0.037,-2.837 -1.35,-3.404 -1.313,-0.567 -2.837,0.037 -3.404,1.35 -0.567,1.313 0.037,2.837 1.35,3.405 C -2.091,1.917 -0.567,1.313 0,0" /></g><g
           transform="translate(81.3413,131.4419)"
           id="g216"><path
             id="path218"
             style="fill:#b2b3b3;fill-opacity:1;fill-rule:nonzero;stroke:none"
             d="M 0,0 3.411,2.723 11.743,-16.564 7.563,-17.51 0,0 Z" /></g><g
           transform="translate(81.3413,131.4419)"
           id="g220"><path
             id="path222"
             style="fill:none;stroke:#000000;stroke-width:0.25999999;stroke-linecap:butt;stroke-linejoin:miter;stroke-miterlimit:10;stroke-dasharray:none;stroke-opacity:1"
             d="M 0,0 3.411,2.723 11.743,-16.564 7.563,-17.51 0,0 Z" /></g><g
           transform="translate(84.7524,134.165)"
           id="g224"><path
             id="path226"
             style="fill:#e6e6e5;fill-opacity:1;fill-rule:nonzero;stroke:none"
             d="M 0,0 5.647,3.054 16.063,-15.947 8.332,-19.287 0,0 Z" /></g><g
           transform="translate(84.7524,134.165)"
           id="g228"><path
             id="path230"
             style="fill:none;stroke:#000000;stroke-width:0.182;stroke-linecap:butt;stroke-linejoin:miter;stroke-miterlimit:10;stroke-dasharray:none;stroke-opacity:1"
             d="M 0,0 5.647,3.054 16.063,-15.947 8.332,-19.287 0,0 Z" /></g><g
           transform="translate(90.7588,131.668)"
           id="g232"><path
             id="path234"
             style="fill:#b2b3b3;fill-opacity:1;fill-rule:nonzero;stroke:none"
             d="M 0,0 -1.329,2.045 3.862,5.172 5.32,3.071 0,0 Z" /></g><g
           transform="translate(90.7588,131.668)"
           id="g236"><path
             id="path238"
             style="fill:none;stroke:#000000;stroke-width:0.23999999;stroke-linecap:butt;stroke-linejoin:miter;stroke-miterlimit:10;stroke-dasharray:none;stroke-opacity:1"
             d="M 0,0 -1.329,2.045 3.862,5.172 5.32,3.071 0,0" /></g><g
           transform="translate(94.3179,103.4316)"
           id="g240"><path
             id="path242"
             style="fill:#333333;fill-opacity:1;fill-rule:nonzero;stroke:none"
             d="m 0,0 -4.148,6.104 3.721,5.691 3.159,1.364 L 7.216,9.106 9.14,3.947 5.031,3.789 3.755,6.741 -0.006,8.165 -0.413,5.812 3.661,-0.324 0,0 Z" /></g><g
           transform="translate(94.3179,103.4316)"
           id="g244"><path
             id="path246"
             style="fill:none;stroke:#000000;stroke-width:0.23999999;stroke-linecap:butt;stroke-linejoin:miter;stroke-miterlimit:10;stroke-dasharray:none;stroke-opacity:1"
             d="m 0,0 -4.148,6.104 3.721,5.691 3.159,1.364 L 7.216,9.106 9.14,3.947 5.031,3.789 3.755,6.741 -0.006,8.165 -0.413,5.812 3.661,-0.324 0,0 Z" /></g><g
           transform="translate(140.668,161.8765)"
           id="g248"><path
             id="path250"
             style="fill:#b2b3b3;fill-opacity:1;fill-rule:nonzero;stroke:none"
             d="M 0,0 -4.32,-0.617 4.011,-19.904 7.563,-17.51 0,0 Z" /></g><g
           transform="translate(140.668,161.8765)"
           id="g252"><path
             id="path254"
             style="fill:none;stroke:#000000;stroke-width:0.25999999;stroke-linecap:butt;stroke-linejoin:miter;stroke-miterlimit:10;stroke-dasharray:none;stroke-opacity:1"
             d="M 0,0 -4.32,-0.617 4.011,-19.904 7.563,-17.51 0,0 Z" /></g><g
           transform="translate(136.3477,161.2593)"
           id="g256"><path
             id="path258"
             style="fill:#e6e6e5;fill-opacity:1;fill-rule:nonzero;stroke:none"
             d="m 0,0 -6.095,-2.017 6.694,-20.61 7.732,3.34 L 0,0 Z" /></g><g
           transform="translate(136.3477,161.2593)"
           id="g260"><path
             id="path262"
             style="fill:none;stroke:#000000;stroke-width:0.182;stroke-linecap:butt;stroke-linejoin:miter;stroke-miterlimit:10;stroke-dasharray:none;stroke-opacity:1"
             d="m 0,0 -6.095,-2.017 6.694,-20.61 7.732,3.34 L 0,0 Z" /></g><g
           transform="translate(134.0479,155.1748)"
           id="g264"><path
             id="path266"
             style="fill:#b2b3b3;fill-opacity:1;fill-rule:nonzero;stroke:none"
             d="M 0,0 -0.578,2.37 -6.413,0.734 -5.882,-1.768 0,0 Z" /></g><g
           transform="translate(134.0479,155.1748)"
           id="g268"><path
             id="path270"
             style="fill:none;stroke:#000000;stroke-width:0.23999999;stroke-linecap:butt;stroke-linejoin:miter;stroke-miterlimit:10;stroke-dasharray:none;stroke-opacity:1"
             d="M 0,0 -0.578,2.37 -6.413,0.734 -5.882,-1.768 0,0" /></g><g
           transform="translate(152.167,133.2275)"
           id="g272"><path
             id="path274"
             style="fill:#333333;fill-opacity:1;fill-rule:nonzero;stroke:none"
             d="m 0,0 -1.601,7.204 -6.695,1.192 -3.159,-1.365 -0.123,-6.042 2.437,-4.937 2.933,2.883 -1.275,2.952 1.542,3.715 1.992,-1.318 1.675,-7.172 L 0,0 Z" /></g><g
           transform="translate(152.167,133.2275)"
           id="g276"><path
             id="path278"
             style="fill:none;stroke:#000000;stroke-width:0.23999999;stroke-linecap:butt;stroke-linejoin:miter;stroke-miterlimit:10;stroke-dasharray:none;stroke-opacity:1"
             d="m 0,0 -1.601,7.204 -6.695,1.192 -3.159,-1.365 -0.123,-6.042 2.437,-4.937 2.933,2.883 -1.275,2.952 1.542,3.715 1.992,-1.318 1.675,-7.172 L 0,0 Z" /></g><g
           transform="translate(113.0703,184.5571)"
           id="g280"><path
             id="path282"
             style="fill:none;stroke:#231f20;stroke-width:0.22;stroke-linecap:butt;stroke-linejoin:miter;stroke-miterlimit:10;stroke-dasharray:none;stroke-opacity:1"
             d="m 0,0 c 0.219,-0.505 -0.014,-1.091 -0.52,-1.31 -0.504,-0.218 -1.09,0.015 -1.309,0.52 -0.218,0.505 0.015,1.091 0.52,1.31 C -0.804,0.738 -0.218,0.505 0,0 Z" /></g><g
           transform="translate(90.0596,142.2612)"
           id="g284"><path
             id="path286"
             style="fill:none;stroke:#4d4e4e;stroke-width:0.62;stroke-linecap:butt;stroke-linejoin:miter;stroke-miterlimit:10;stroke-dasharray:none;stroke-opacity:1"
             d="m 0,0 9.295,2.455 4.334,-4.974 17.866,8.333 -0.296,7.663 7.565,3.406" /></g><g
           transform="translate(119.877,117.4287)"
           id="g288"><path
             id="path290"
             style="fill:#ec1e27;fill-opacity:1;fill-rule:nonzero;stroke:none"
             d="m 0,0 c 0.501,-1.158 -0.033,-2.503 -1.19,-3.003 -1.159,-0.5 -2.503,0.033 -3.003,1.191 -0.501,1.159 0.033,2.502 1.19,3.002 C -1.845,1.691 -0.5,1.158 0,0" /></g><g
           transform="translate(119.877,117.4287)"
           id="g292"><path
             id="path294"
             style="fill:none;stroke:#231f20;stroke-width:0.43700001;stroke-linecap:butt;stroke-linejoin:miter;stroke-miterlimit:10;stroke-dasharray:none;stroke-opacity:1"
             d="m 0,0 c 0.501,-1.158 -0.033,-2.503 -1.19,-3.003 -1.159,-0.5 -2.503,0.033 -3.003,1.191 -0.501,1.159 0.033,2.502 1.19,3.002 C -1.845,1.691 -0.5,1.158 0,0 Z" /></g><g
           transform="translate(132.9551,125.6519)"
           id="g296"><path
             id="path298"
             style="fill:#0d72b9;fill-opacity:1;fill-rule:nonzero;stroke:none"
             d="m 0,0 c 0.577,-1.335 -0.038,-2.884 -1.373,-3.461 -1.335,-0.577 -2.885,0.038 -3.461,1.373 -0.577,1.335 0.038,2.884 1.373,3.461 C -2.126,1.95 -0.576,1.335 0,0" /></g><g
           transform="translate(132.9551,125.6519)"
           id="g300"><path
             id="path302"
             style="fill:none;stroke:#231f20;stroke-width:0.50400001;stroke-linecap:butt;stroke-linejoin:miter;stroke-miterlimit:10;stroke-dasharray:none;stroke-opacity:1"
             d="m 0,0 c 0.577,-1.335 -0.038,-2.884 -1.373,-3.461 -1.335,-0.577 -2.885,0.038 -3.461,1.373 -0.577,1.335 0.038,2.884 1.373,3.461 C -2.126,1.95 -0.576,1.335 0,0 Z" /></g><g
           transform="translate(140.6973,124.2378)"
           id="g304"><path
             id="path306"
             style="fill:none;stroke:#231f20;stroke-width:0.26899999;stroke-linecap:butt;stroke-linejoin:miter;stroke-miterlimit:10;stroke-dasharray:none;stroke-opacity:1"
             d="m 0,0 c 0.04,-0.298 -0.17,-0.573 -0.468,-0.612 -0.299,-0.04 -0.573,0.17 -0.613,0.468 -0.039,0.299 0.17,0.573 0.469,0.613 C -0.313,0.508 -0.039,0.299 0,0 Z" /></g><g
           transform="translate(91.4541,129.2275)"
           id="g308"><path
             id="path310"
             style="fill:none;stroke:#231f20;stroke-width:0.31;stroke-linecap:butt;stroke-linejoin:miter;stroke-miterlimit:10;stroke-dasharray:none;stroke-opacity:1"
             d="m 0,0 c 0.07,-0.523 -0.297,-1.003 -0.82,-1.073 -0.523,-0.07 -1.003,0.298 -1.073,0.821 -0.07,0.523 0.298,1.003 0.82,1.072 C -0.55,0.89 -0.069,0.523 0,0 Z" /></g></g></g><g
       id="text312"
       style="font-variant:normal;font-weight:normal;font-stretch:normal;font-size:20.00006866px;font-family:'Museo 500';-inkscape-font-specification:Museo-500;writing-mode:lr-tb;fill:#231f20;fill-opacity:1;fill-rule:nonzero;stroke:none"
       transform="matrix(0.9513867,0.30799893,0.30799893,-0.9513867,118.3217,42.1361)"><path
         id="path317"
         style=""
         d="M 2.040007,-1.2800044 C 2.040007,-0.3800013 2.4200083,0 3.3200114,0 l 3.5800123,0 c 2.5000086,0 4.5400153,-1.3600047 4.5400153,-4.0200138 0,-1.5800054 -0.820003,-2.9800102 -2.3200077,-3.4200117 l 0,-0.04 c 0.9400037,-0.4600016 1.7600057,-1.5000051 1.7600057,-3.0400103 0,-2.280008 -1.7200056,-3.600012 -4.1000137,-3.600012 l -6.04002076,0 0,1.720005 1.30000446,0 0,11.1200386 z m 2.0000069,-6.9000237 0,-4.2200149 2.7200093,0 c 1.3200045,0 2.0800071,0.840003 2.0800071,2.080008 0,1.2400038 -0.8000027,2.1400069 -2.040007,2.1400069 l -2.7600094,0 z m 0,6.0200207 0,-4.3800151 2.9600101,0 c 1.440005,0 2.3800082,0.9800034 2.3800082,2.4200084 0,1.4400049 -0.880003,2.4000082 -2.3800082,2.4000082 l -2.5200086,0 c -0.280001,0 -0.4400015,-0.1600006 -0.4400015,-0.4400015 z" /><path
         id="path319"
         style=""
         d="M 14.000049,-1.2800044 C 14.000049,-0.3800013 14.38005,0 15.280053,0 l 1.920007,0 0,-1.6600057 -0.820003,0 c -0.280001,0 -0.440002,-0.1400005 -0.440002,-0.4400015 l 0,-10.7400368 c 0,-0.900003 -0.380001,-1.280004 -1.280004,-1.280004 l -1.920007,0 0,1.660005 0.820003,0 c 0.280001,0 0.440002,0.140001 0.440002,0.440002 l 0,10.7400366 z" /><path
         id="path321"
         style=""
         d="m 18.420064,-5.0600174 c 0,3.0000103 2.180008,5.30001822 5.380019,5.30001822 2.400008,0 3.900013,-1.48000512 3.900013,-1.48000512 L 26.860093,-2.620009 c 0,0 -1.220004,1.1800041 -2.96001,1.1800041 -1.800006,0 -3.360011,-1.2200042 -3.480012,-3.3800116 l 7.380025,0 c 0,0 0.06,-0.5400019 0.06,-0.8000028 0,-2.620009 -1.520006,-4.7400167 -4.360015,-4.7400167 -2.88001,0 -5.080018,2.0800076 -5.080018,5.3000186 z m 2.080007,-1.180004 c 0.300001,-1.6800058 1.500006,-2.5800089 2.980011,-2.5800089 1.260004,0 2.320008,0.9000031 2.380008,2.5800089 l -5.360019,0 z" /><path
         id="path323"
         style=""
         d="m 29.460101,-5.0600174 c 0,3.0000103 2.180008,5.30001822 5.380019,5.30001822 2.400008,0 3.900013,-1.48000512 3.900013,-1.48000512 L 37.90013,-2.620009 c 0,0 -1.220004,1.1800041 -2.96001,1.1800041 -1.800006,0 -3.360011,-1.2200042 -3.480012,-3.3800116 l 7.380026,0 c 0,0 0.06,-0.5400019 0.06,-0.8000028 0,-2.620009 -1.520005,-4.7400167 -4.360015,-4.7400167 -2.88001,0 -5.080018,2.0800076 -5.080018,5.3000186 z m 2.080008,-1.180004 c 0.300001,-1.6800058 1.500005,-2.5800089 2.98001,-2.5800089 1.260004,0 2.320008,0.9000031 2.380008,2.5800089 l -5.360018,0 z" /><path
         id="path325"
         style=""
         d="m 41.480142,4.0000137 1.940007,0 0,-4.50001542 c 0,-0.52000178 -0.04,-0.88000298 -0.04,-0.88000298 l 0.04,0 c 0,0 0.860003,1.62000552 3.10001,1.62000552 2.640009,0 4.600016,-2.08000712 4.600016,-5.30001822 0,-3.1400108 -1.740006,-5.3000186 -4.460015,-5.3000186 -2.520009,0 -3.360012,1.8000066 -3.360012,1.8000066 l -0.04,0 c 0,0 0.02,-0.2400008 0.02,-0.5400018 0,-0.6400022 -0.340001,-1.0200038 -1.240004,-1.0200038 l -1.820006,0 0,1.660006 0.820002,0 c 0.280001,0 0.440002,0.1400004 0.440002,0.4400015 l 0,12.0200412 z m 1.880006,-9.0200309 c 0,-2.5800089 1.420005,-3.6400125 2.92001,-3.6400125 1.680006,0 2.86001,1.4200048 2.86001,3.6200124 0,2.3000079 -1.320004,3.6200124 -2.92001,3.6200124 -1.880006,0 -2.86001,-1.8000062 -2.86001,-3.6000123 z" /></g></g></svg>