<svg width="38" height="37" viewBox="0 0 38 37" fill="none" xmlns="http://www.w3.org/2000/svg">
<g transform="translate(10 0)">
<path d="M15.5556 21H18.6667C23.8213 21 28 16.8213 28 11.6667V9.33333C28 4.17868 23.8213 0 18.6667 0H9.33333C4.17868 0 0 4.17868 0 9.33333V11.6667C0 16.5594 3.76481 20.5729 8.55556 20.9681V26.4444L15.5556 21Z" fill="#FDDC82"/>
<path d="M5.44446 12.4444H8.55557L9.72224 9.33333L11.6667 15.1667L14 7L16.3333 14.7778L18.2778 8.55556L19.0556 10.8889H22.5556" stroke="#D09901" stroke-width="1.16667"/>
</g>
<g transform="translate(0 10)">
<path d="M15.5556 21H18.6667C23.8213 21 28 16.8213 28 11.6667V9.33333C28 4.17868 23.8213 0 18.6667 0H9.33333C4.17868 0 0 4.17868 0 9.33333V11.6667C0 16.5594 3.76481 20.5729 8.55556 20.9681V26.4444L15.5556 21Z" fill="#CFD6F7"/>
<path d="M5.44446 12.4444H8.55557L9.72224 9.33333L11.6667 15.1667L14 7L16.3333 14.7778L18.2778 8.55556L19.0556 10.8889H22.5556" stroke="#474EDC" stroke-width="1.16667"/>
</g>
</svg>
