<?xml version="1.0" encoding="UTF-8" standalone="no"?>
<svg
   xmlns:dc="http://purl.org/dc/elements/1.1/"
   xmlns:cc="http://creativecommons.org/ns#"
   xmlns:rdf="http://www.w3.org/1999/02/22-rdf-syntax-ns#"
   xmlns:svg="http://www.w3.org/2000/svg"
   xmlns="http://www.w3.org/2000/svg"
   viewBox="0 0 281.25 312.20499"
   height="312.20499"
   width="281.25"
   xml:space="preserve"
   version="1.1"
   id="svg2"><metadata
     id="metadata8"><rdf:RDF><cc:Work
         rdf:about=""><dc:format>image/svg+xml</dc:format><dc:type
           rdf:resource="http://purl.org/dc/dcmitype/StillImage" /></cc:Work></rdf:RDF></metadata><defs
     id="defs6"><clipPath
       id="clipPath20"
       clipPathUnits="userSpaceOnUse"><path
         id="path22"
         d="m 0,0 225,0 0,249.764 -225,0 L 0,0 Z" /></clipPath><clipPath
       id="clipPath40"
       clipPathUnits="userSpaceOnUse"><path
         id="path42"
         d="m 0,0 225,0 0,249.764 -225,0 L 0,0 Z" /></clipPath><clipPath
       id="clipPath68"
       clipPathUnits="userSpaceOnUse"><path
         id="path70"
         d="m 0,249.764 225,0 L 225,0 0,0 0,249.764 Z" /></clipPath><clipPath
       id="clipPath136"
       clipPathUnits="userSpaceOnUse"><path
         id="path138"
         d="m 80.9292,149.571 37.3308,0 0,-21.683 -37.3308,0 0,21.683 z" /></clipPath><clipPath
       id="clipPath160"
       clipPathUnits="userSpaceOnUse"><path
         id="path162"
         d="m 105.545,173.741 19.016,0 0,-16.495 -19.016,0 0,16.495 z" /></clipPath><clipPath
       id="clipPath216"
       clipPathUnits="userSpaceOnUse"><path
         id="path218"
         d="m 102.07,187.366 7.599,0 0,-5.325 -7.599,0 0,5.325 z" /></clipPath><clipPath
       id="clipPath232"
       clipPathUnits="userSpaceOnUse"><path
         id="path234"
         d="m 119.979,137.543 23.004,0 0,-12.028 -23.004,0 0,12.028 z" /></clipPath><clipPath
       id="clipPath260"
       clipPathUnits="userSpaceOnUse"><path
         id="path262"
         d="m 144.035,165.723 20.619,0 0,-16.839 -20.619,0 0,16.839 z" /></clipPath></defs><g
     transform="matrix(1.25,0,0,-1.25,0,312.205)"
     id="g10"><g
       transform="translate(1.449,45.846)"
       id="g12"><path
         id="path14"
         style="fill:#f5f5f5;fill-opacity:1;fill-rule:nonzero;stroke:none"
         d="M 0,0 166.043,-45.469 220.074,150.89 56.008,198.332 0,0 Z" /></g><g
       id="g16"><g
         clip-path="url(#clipPath20)"
         id="g18"><g
           transform="translate(57.457,244.1777)"
           id="g24"><path
             id="path26"
             style="fill:none;stroke:#100f0d;stroke-width:0.61000001;stroke-linecap:butt;stroke-linejoin:miter;stroke-miterlimit:10;stroke-dasharray:none;stroke-opacity:1"
             d="M 0,0 164.066,-47.441 110.035,-243.801 -56.008,-198.332 0,0 Z" /></g></g></g><g
       transform="translate(64.8442,228.7324)"
       id="g28"><path
         id="path30"
         style="fill:#f5f5f5;fill-opacity:1;fill-rule:nonzero;stroke:none"
         d="M 0,0 -40.489,-142.278 99.195,-183.539 141.894,-40.949 0,0 Z" /></g><g
       transform="translate(64.8442,228.7324)"
       id="g32"><path
         id="path34"
         style="fill:none;stroke:#000000;stroke-width:0.639;stroke-linecap:butt;stroke-linejoin:miter;stroke-miterlimit:4;stroke-dasharray:none;stroke-opacity:1"
         d="M 0,0 -40.489,-142.278 99.195,-183.539 141.894,-40.949 0,0 Z" /></g><g
       id="g36"><g
         clip-path="url(#clipPath40)"
         id="g38"><g
           transform="translate(0.3789,200.7554)"
           id="g44"><path
             id="path46"
             style="fill:none;stroke:#100f0d;stroke-width:0.61000001;stroke-linecap:butt;stroke-linejoin:miter;stroke-miterlimit:10;stroke-dasharray:none;stroke-opacity:1"
             d="M 0,0 163.723,48.629 224.234,-145.82 59.918,-197.183 0,0 Z" /></g></g></g><g
       transform="translate(0.3789,200.7558)"
       id="g48"><path
         id="path50"
         style="fill:#f5f5f5;fill-opacity:1;fill-rule:nonzero;stroke:none"
         d="M 0,0 59.918,-197.184 224.234,-145.821 163.723,48.629 0,0 Z" /></g><g
       transform="translate(15.8398,190.2441)"
       id="g52"><path
         id="path54"
         style="fill:#e8e7e5;fill-opacity:1;fill-rule:nonzero;stroke:none"
         d="M 0,0 139.629,42.929 183.102,-97.27 44.558,-141.066 0,0 Z" /></g><g
       transform="translate(15.8398,190.2441)"
       id="g56"><path
         id="path58"
         style="fill:none;stroke:#100f0d;stroke-width:0.49700001;stroke-linecap:butt;stroke-linejoin:miter;stroke-miterlimit:10;stroke-dasharray:none;stroke-opacity:1"
         d="M 0,0 139.629,42.929 183.102,-97.27 44.558,-141.066 0,0 Z" /></g><g
       id="text60"
       style="font-variant:normal;font-weight:normal;font-stretch:normal;font-size:19.9999733px;font-family:'Museo 500';-inkscape-font-specification:Museo-500;writing-mode:lr-tb;fill:#231f20;fill-opacity:1;fill-rule:nonzero;stroke:none"
       transform="matrix(0.95138623,0.3080004,0.3080004,-0.95138623,123.1448,43.2069)"><path
         id="path273"
         style=""
         d="M 2.0599972,-1.2799983 C 2.0599972,-0.37999949 2.4399967,0 3.3399955,0 l 6.2799917,0 c 0.8999988,0 1.2799978,-0.37999949 1.2799978,-1.2799983 l 0,-1.7799976 -1.8399971,0 0,0.8999988 c 0,0.2799996 -0.1599998,0.4399994 -0.4399994,0.4399994 l -4.1199945,0 c -0.2799996,0 -0.4399994,-0.1599998 -0.4399994,-0.4399994 l 0,-4.0999945 4.9399934,0 0,-1.7199977 -4.9399934,0 0,-4.4199937 4.0199946,0 c 0.2799996,0 0.4399994,0.139999 0.4399994,0.439999 l 0,0.899999 1.8199974,0 0,-1.779998 c 0,-0.899999 -0.3799993,-1.279998 -1.2799981,-1.279998 l -8.29998891,0 0,1.719998 1.29999821,0 0,11.1199847 z" /><path
         id="path275"
         style=""
         d="M 13.019983,-1.2799983 C 13.019983,-0.37999949 13.399983,0 14.299981,0 l 1.919998,0 0,-1.6599978 -0.819999,0 c -0.28,0 -0.439999,-0.1399998 -0.439999,-0.4399994 l 0,-10.7399858 c 0,-0.899999 -0.38,-1.279998 -1.279999,-1.279998 l -1.919997,0 0,1.659998 0.819999,0 c 0.279999,0 0.439999,0.139999 0.439999,0.439999 l 0,10.7399857 z" /><path
         id="path277"
         style=""
         d="M 18.379976,-1.2799983 C 18.379976,-0.37999949 18.759976,0 19.659974,0 l 1.919998,0 0,-1.6599978 -0.819999,0 c -0.28,0 -0.439999,-0.1399998 -0.439999,-0.4399994 l 0,-10.7399858 c 0,-0.899999 -0.38,-1.279998 -1.279999,-1.279998 l -1.919997,0 0,1.659998 0.819999,0 c 0.279999,0 0.439999,0.139999 0.439999,0.439999 l 0,10.7399857 z" /><path
         id="path279"
         style=""
         d="m 23.919969,-12.099984 1.739998,0 0,-2.019997 -1.739998,0 0,2.019997 z m -0.04,10.8199857 C 23.879969,-0.37999949 24.259968,0 25.159967,0 l 1.899998,0 0,-1.6599978 -0.819999,0 c -0.28,0 -0.44,-0.1399998 -0.44,-0.4399994 l 0,-6.739991 c 0,-0.8999988 -0.379999,-1.2799978 -1.279998,-1.2799978 l -1.899997,0 0,1.6599973 0.819998,0 c 0.28,0 0.44,0.1399998 0.44,0.4399994 l 0,6.739991 z" /><path
         id="path281"
         style=""
         d="m 28.299963,-5.0599932 c 0,2.999996 2.179997,5.29999288 5.379993,5.29999288 2.399996,0 3.899994,-1.47999798 3.899994,-1.47999798 l -0.839999,-1.3799982 c 0,0 -1.219998,1.1799984 -2.959996,1.1799984 -1.799997,0 -3.359995,-1.2199983 -3.479995,-3.3799955 l 7.37999,0 c 0,0 0.06,-0.5399992 0.06,-0.7999989 0,-2.6199965 -1.519998,-4.7399935 -4.359994,-4.7399935 -2.879996,0 -5.079993,2.0799971 -5.079993,5.2999928 z m 2.079997,-1.1799985 c 0.3,-1.6799977 1.499998,-2.5799965 2.979996,-2.5799965 1.259998,0 2.319997,0.8999988 2.379997,2.5799965 l -5.359993,0 z" /></g><g
       id="g64"><g
         clip-path="url(#clipPath68)"
         id="g66"><g
           transform="translate(130.043,152.4697)"
           id="g72"><path
             id="path74"
             style="fill:#0a73ba;fill-opacity:1;fill-rule:nonzero;stroke:none"
             d="m 0,0 c 0.562,-4.312 4.271,-7.547 8.142,-9.528 3.872,-1.981 8.169,-3.163 11.742,-5.642 3.572,-2.479 6.379,-6.865 5.214,-11.055 -0.827,-2.975 -3.512,-5.164 -6.446,-6.129 -2.932,-0.964 -6.102,-0.882 -9.176,-0.6 -0.483,0.044 -1.011,0.115 -1.333,0.476 -0.547,0.615 -0.148,1.561 0.145,2.33 1.723,4.504 -2.35,10.119 -7.167,9.879 -4.382,-0.217 -8.131,-4.305 -12.471,-3.655 -4.034,0.605 -6.358,5.147 -6.423,9.225 -0.077,4.776 2.116,9.539 5.793,12.588 3.676,3.048 8.763,4.319 13.442,3.36" /></g><g
           transform="translate(129.3408,152.2764)"
           id="g76"><path
             id="path78"
             style="fill:#231f20;fill-opacity:1;fill-rule:nonzero;stroke:none"
             d="m 0,0 c 1.915,-8.921 11.237,-10.54 18.134,-14.344 3.573,-1.971 7.1,-5.205 6.944,-9.599 -0.157,-4.461 -3.452,-7.077 -7.702,-7.976 -2.162,-0.456 -4.863,-0.838 -6.515,0.759 -2.087,2.019 -0.572,0.435 -0.842,2.253 -0.214,1.435 0.106,2.431 -0.385,3.849 -2.314,6.668 -8.488,6.083 -13.753,3.783 -4.256,-1.859 -8.595,-2.449 -11.099,2.254 -1.363,2.562 -1.382,5.808 -0.629,8.571 2.167,7.953 9.804,12.403 17.818,11.191 0.916,-0.139 1.311,1.263 0.386,1.403 -10.68,1.616 -21.518,-6.576 -20.043,-18.076 0.493,-3.839 2.915,-7.926 7.039,-8.526 2.62,-0.382 4.964,0.902 7.262,1.926 6.306,2.811 12.89,0.785 11.674,-7.23 -0.714,-4.703 3.161,-4.215 7.454,-3.836 4.486,0.397 9.454,2.662 10.759,7.373 1.303,4.703 -1.894,9.265 -5.549,11.877 C 14.273,-9.576 3.45,-9.147 1.403,0.387 1.207,1.302 -0.196,0.915 0,0" /></g><g
           transform="translate(125.5479,108.8438)"
           id="g80"><path
             id="path82"
             style="fill:#c1272d;fill-opacity:1;fill-rule:nonzero;stroke:none"
             d="m 0,0 c 3.188,0.649 6.392,0.997 9.646,0.584 1.591,-0.201 2.438,-0.987 2.976,-2.607 1.223,-3.68 0.66,-7.478 1.1,-11.201 0.533,-4.521 0.808,-9.076 1.405,-13.588 0.265,-2.005 -0.501,-3.144 -2.056,-4.13 -1.2,-0.761 -2.641,-1.103 -3.669,-2.15 -3.253,-0.889 -6.506,-1.78 -9.759,-2.67 -1.662,0.007 -3.324,10e-4 -4.986,0.026 -1.523,0.022 -2.483,0.686 -3.157,2.17 -2.632,5.792 -5.192,11.634 -8.238,17.209 -1.044,1.911 -1.841,3.798 -2.536,5.818 -0.534,1.552 0.027,2.534 1.123,3.451 2.054,1.72 4.435,2.889 6.895,3.843 2.515,0.975 5.033,1.992 7.702,2.518 0.337,-1.801 0.005,-3.554 -0.381,-5.304 -2.635,-1.727 -5.919,-2.015 -8.668,-3.799 2.956,-0.75 14.752,2.349 18.749,4.926 C 5.074,-4.453 4.187,-4.934 3.303,-4.949 1.976,-4.972 0.488,-6.037 -0.641,-4.452 -0.427,-2.969 -0.214,-1.484 0,0" /></g><g
           transform="translate(125.5479,108.8438)"
           id="g84"><path
             id="path86"
             style="fill:none;stroke:#000000;stroke-width:0.361;stroke-linecap:butt;stroke-linejoin:miter;stroke-miterlimit:10;stroke-dasharray:none;stroke-opacity:1"
             d="m 0,0 c 3.188,0.649 6.392,0.997 9.646,0.584 1.591,-0.201 2.438,-0.987 2.976,-2.607 1.223,-3.68 0.66,-7.478 1.1,-11.201 0.533,-4.521 0.808,-9.076 1.405,-13.588 0.265,-2.005 -0.501,-3.144 -2.056,-4.13 -1.2,-0.761 -2.641,-1.103 -3.669,-2.15 -3.253,-0.889 -6.506,-1.78 -9.759,-2.67 -1.662,0.007 -3.324,10e-4 -4.986,0.026 -1.523,0.022 -2.483,0.686 -3.157,2.17 -2.632,5.792 -5.192,11.634 -8.238,17.209 -1.044,1.911 -1.841,3.798 -2.536,5.818 -0.534,1.552 0.027,2.534 1.123,3.451 2.054,1.72 4.435,2.889 6.895,3.843 2.515,0.975 5.033,1.992 7.702,2.518 0.337,-1.801 0.005,-3.554 -0.381,-5.304 -2.635,-1.727 -5.919,-2.015 -8.668,-3.799 2.956,-0.75 14.752,2.349 18.749,4.926 C 5.074,-4.453 4.187,-4.934 3.303,-4.949 1.976,-4.972 0.488,-6.037 -0.641,-4.452 -0.427,-2.969 -0.214,-1.484 0,0 Z" /></g><g
           transform="translate(124.0518,104.8711)"
           id="g88"><path
             id="path90"
             style="fill:#252525;fill-opacity:1;fill-rule:nonzero;stroke:none"
             d="m 0,0 c 2.263,0.289 4.522,0.593 6.788,0.858 0.593,0.07 1.2,0.044 1.8,0.02 C 8.946,0.864 9.342,0.792 9.483,0.397 9.664,-0.11 9.286,-0.423 8.931,-0.617 7.878,-1.193 6.825,-1.79 5.716,-2.236 c -5.72,-2.305 -11.631,-3.9 -17.766,-4.59 -0.907,-0.103 -2.332,-0.503 -2.62,0.479 -0.348,1.189 1.157,1.465 2.013,1.881 2.437,1.186 4.968,2.149 7.605,2.803 0.577,0.142 1.156,0.376 1.758,0.085 -0.021,-0.54 -0.612,-1.437 0.227,-1.511 1.022,-0.09 2.199,0.227 2.739,1.326 C -0.074,-1.246 -0.101,-0.592 0,0" /></g><g
           transform="translate(97.8623,115.7383)"
           id="g92"><path
             id="path94"
             style="fill:#0a73ba;fill-opacity:1;fill-rule:nonzero;stroke:none"
             d="M 0,0 C 6.78,-3.105 14.779,-1.314 19.473,4.523 19.949,5.116 19.11,5.966 18.629,5.367 14.292,-0.026 6.927,-1.867 0.603,1.03 -0.091,1.348 -0.698,0.319 0,0" /></g><g
           transform="translate(82.5435,117.4023)"
           id="g96"><path
             id="path98"
             style="fill:#0a73ba;fill-opacity:1;fill-rule:nonzero;stroke:none"
             d="m 0,0 c 0.234,-0.369 0.631,-0.334 0.984,-0.378 3.243,-0.395 6.211,-1.505 8.974,-3.257 3.002,-1.904 6.432,-1.421 9.004,1.161 0.269,0.27 0.553,0.476 0.939,0.515 -0.022,0.114 -0.043,0.229 -0.065,0.343 -0.131,0.427 -0.356,0.847 -0.378,1.279 -0.081,1.566 -1.053,2.546 -2.263,3.225 -2.8,1.571 -5.754,2.603 -9.05,1.893 C 5.571,4.228 3.327,2.991 1.348,1.311 0.888,0.919 0.139,0.744 0,0" /></g><g
           transform="translate(82.5435,117.4023)"
           id="g100"><path
             id="path102"
             style="fill:none;stroke:#231f20;stroke-width:0.23899999;stroke-linecap:butt;stroke-linejoin:miter;stroke-miterlimit:10;stroke-dasharray:none;stroke-opacity:1"
             d="m 0,0 c 0.234,-0.369 0.631,-0.334 0.984,-0.378 3.243,-0.395 6.211,-1.505 8.974,-3.257 3.002,-1.904 6.432,-1.421 9.004,1.161 0.269,0.27 0.553,0.476 0.939,0.515 -0.022,0.114 -0.043,0.229 -0.065,0.343 -0.131,0.427 -0.356,0.847 -0.378,1.279 -0.081,1.566 -1.053,2.546 -2.263,3.225 -2.8,1.571 -5.754,2.603 -9.05,1.893 C 5.571,4.228 3.327,2.991 1.348,1.311 0.888,0.919 0.139,0.744 0,0 Z" /></g><g
           transform="translate(84.748,117.8076)"
           id="g104"><path
             id="path106"
             style="fill:#09537c;fill-opacity:1;fill-rule:nonzero;stroke:none"
             d="m 0,0 c 0.192,-0.303 0.519,-0.274 0.808,-0.311 2.66,-0.325 5.096,-1.234 7.363,-2.672 2.464,-1.563 5.278,-1.165 7.389,0.953 0.221,0.221 0.454,0.39 0.771,0.423 -0.018,0.093 -0.036,0.187 -0.054,0.281 -0.108,0.349 -0.292,0.695 -0.31,1.05 C 15.901,1.009 15.103,1.812 14.11,2.369 11.813,3.658 9.389,4.506 6.684,3.923 4.572,3.469 2.73,2.454 1.106,1.074 0.729,0.754 0.114,0.61 0,0" /></g><g
           transform="translate(105.8887,126.2212)"
           id="g108"><path
             id="path110"
             style="fill:#0a73ba;fill-opacity:1;fill-rule:nonzero;stroke:none"
             d="m 0,0 c 4.518,-0.055 8.656,-3.424 11.46,-6.71 3.904,-4.577 4.864,-9.909 1.348,-15.014 -1.746,-2.535 2.388,-4.925 4.122,-2.408 C 24.951,-12.487 13.469,4.609 0,4.773 -3.072,4.811 -3.074,0.038 0,0" /></g><g
           transform="translate(164.7783,155.9956)"
           id="g112"><path
             id="path114"
             style="fill:#0a73ba;fill-opacity:1;fill-rule:nonzero;stroke:none"
             d="m 0,0 c -3.876,-9.46 -14.434,-11.341 -25.087,-11.685 -5.517,-0.171 -9.661,-0.458 -13.088,1.28 -0.124,-0.373 -0.2,-0.745 -0.21,-1.137 -0.057,-2.205 1.957,-4.486 0.85,-6.395 -0.688,-1.184 -2.234,-1.489 -3.59,-1.671 -1.756,-0.238 -3.503,-0.468 -5.25,-0.706 -1.193,-1.451 -2.959,-2.902 -5.518,-4.773 -6.481,-4.735 -8.247,-3.78 -16.838,-4.124 -8.592,1.375 -9.289,6.854 -11.341,5.499 -3.17,-2.1 -1.928,-2.32 -5.642,-3.189 -3.704,-0.869 -8.429,0.993 -8.926,4.764 -3.598,-6.052 -12.352,-7.695 -18.643,-4.535 -6.291,3.16 -10.09,10.052 -11.045,17.021 -0.954,6.968 0.573,14.051 2.673,20.762 2.597,8.277 6.215,16.458 12.258,22.672 6.051,6.205 14.91,10.176 23.444,8.649 5.652,-1.021 10.597,-4.258 15.341,-7.522 -0.048,-0.058 -0.086,-0.105 -0.115,-0.163 -0.295,-0.391 1.222,-0.219 0.621,-0.105 l -0.401,0.411 c 0.811,1.069 1.766,2.024 2.844,2.835 1.356,1.04 2.893,1.871 4.525,2.463 1.012,1.375 2.138,3.169 2.406,4.687 0.62,-1.365 0.305,-2.835 -0.22,-4.038 1.929,0.458 3.933,0.592 5.89,0.401 6.396,-0.621 12.219,-4.41 16.238,-9.432 4.019,-5.031 6.377,-11.197 7.808,-17.469 1.032,-4.505 2.377,-9.995 6.827,-11.245 4.247,-1.193 8.199,2.444 11.129,5.737 1.28,1.442 2.587,2.921 3.265,4.725 0.678,1.804 0.602,4.019 -0.696,5.442 -1.642,1.813 -4.44,1.708 -6.873,1.871 -2.693,0.172 -5.413,0.868 -7.571,2.482 -2.147,1.622 -3.636,4.257 -3.398,6.94 0.239,2.682 2.491,5.183 5.174,5.259 2.692,0.067 5.193,-2.758 4.41,-5.336 0.726,3.074 1.595,6.387 4.076,8.324 2.492,1.938 7.074,1.26 7.685,-1.832 0.515,-2.549 -1.852,-5.184 -0.926,-7.609 0.573,-1.498 2.177,-2.281 3.56,-3.092 C 4.467,20.992 3.875,9.45 0,0" /></g><g
           transform="translate(164.2627,156.2964)"
           id="g116"><path
             id="path118"
             style="fill:#231f20;fill-opacity:1;fill-rule:nonzero;stroke:none"
             d="m 0,0 c -2.947,-6.439 -8.774,-9.34 -15.485,-10.542 -6.468,-1.158 -15.726,-2.314 -21.873,0.351 -0.32,0.139 -0.799,0.062 -0.876,-0.356 -0.619,-3.342 1.643,-7.095 -2.534,-8.786 -0.735,-0.298 -4.299,-0.248 -5.392,-0.767 -0.569,-0.27 -1.326,-1.377 -1.842,-1.861 -5.909,-5.541 -12.093,-7.6 -20.08,-6.787 -3.621,0.37 -5.859,1.982 -8.595,4.151 -0.639,0.506 -1.191,1.299 -2.076,1.379 -1.107,0.101 -1.867,-0.91 -2.711,-1.469 -3.799,-2.515 -10.555,-3.661 -12.084,2.407 -0.133,0.527 -0.815,0.55 -1.091,0.143 -7.151,-10.56 -21.306,-5.261 -26.17,4.394 -4.981,9.889 -2.202,21.584 1.269,31.491 3.359,9.585 8.587,19.138 17.613,24.421 4.87,2.851 10.695,4.386 16.331,3.387 3.039,-0.539 5.937,-1.796 8.622,-3.279 0.593,-0.328 5.959,-3.939 6.248,-3.529 -0.112,-0.159 -0.114,-0.444 0,-0.602 0.365,-0.509 0.515,-0.526 1.176,-0.512 0.359,0.008 0.714,0.38 0.575,0.756 -0.798,2.172 5.174,3.953 6.512,5.085 1.461,1.236 2.287,3.283 2.822,5.104 l -1.151,0 -0.219,-3.721 c -0.156,-0.463 0.318,-0.815 0.734,-0.734 14.007,2.716 24.11,-9.323 27.943,-21.415 1.736,-5.478 2.283,-16.175 10.063,-16.577 5.727,-0.297 13.912,7.77 13.964,13.422 0.027,2.722 -1.504,4.555 -4.065,5.284 -1.936,0.551 -4.027,0.38 -6.001,0.719 -2.384,0.408 -4.906,1.143 -6.638,2.967 -0.644,1.052 -1.289,2.103 -1.933,3.155 -0.905,6.238 1.799,7.037 8.114,2.395 -0.068,-0.673 1.015,-0.803 1.172,-0.158 0.753,3.083 1.369,5.533 3.907,7.518 3.353,2.623 6.545,1.023 6.486,-3.276 -0.01,-0.832 -0.643,-1.725 -0.765,-2.558 -0.362,-2.463 0.373,-3.837 2.319,-5.299 4.669,-3.505 7.798,-6.324 8.259,-12.564 0.353,-4.776 -0.888,-9.47 -2.608,-13.88 -0.279,-0.715 0.874,-1.025 1.151,-0.316 2.134,5.468 3.596,11.67 2.166,17.515 -0.615,2.514 -1.785,4.89 -3.573,6.78 -0.63,0.665 -1.339,1.26 -2.076,1.8 -0.712,0.49 -1.447,0.943 -2.205,1.359 -2.007,2.259 -2.513,4.541 -1.516,6.846 0.092,3.544 -0.512,6.515 -5.08,6.227 -4.998,-0.315 -6.622,-5.769 -7.616,-9.835 0.391,-0.053 0.782,-0.106 1.172,-0.159 0.783,7.68 -10.104,7.393 -10.777,0.077 -0.381,-4.146 2.909,-7.571 6.516,-8.976 2.125,-0.828 4.163,-0.576 6.29,-1.112 10.579,-2.664 3.443,-10.809 -0.57,-14.068 -10.413,-8.458 -12.696,5.331 -14.774,12.258 -1.561,5.202 -3.884,10.237 -7.414,14.406 -3.256,3.844 -7.535,6.908 -12.407,8.308 -2.434,0.699 -5.208,0.063 -7.467,0.692 -1.868,0.521 -0.858,0.991 -1.401,3.237 -0.142,0.586 -0.989,0.549 -1.151,0 -1.43,-4.87 -6.546,-6.033 -9.622,-9.722 -0.208,-0.25 -0.241,-0.596 0,-0.844 0.195,-0.32 0.473,-0.328 0.832,-0.022 0.196,0.276 0.034,0.647 -0.213,0.816 -10.66,7.279 -21.615,10.944 -33.399,3.686 -10.847,-6.681 -16.333,-19.398 -19.514,-31.225 -2.953,-10.979 -3.424,-24.573 6.046,-32.665 6.889,-5.885 17.808,-5.406 23.053,2.341 -0.363,0.047 -0.727,0.094 -1.09,0.142 0.96,-3.808 4.563,-5.648 8.364,-5.381 1.761,0.124 3.244,0.693 4.698,1.586 2.872,1.765 2.462,1.962 4.877,0.231 8.122,-5.822 18.477,-5.11 26.406,0.796 3.101,2.311 4.981,4.005 9.027,4.763 1.707,0.32 3.908,0.36 4.852,2.134 0.845,1.587 -1.183,6.016 -0.245,6.71 0.348,0.256 7.108,-0.95 7.866,-0.943 10.955,0.102 24.665,0.697 29.884,12.099 C 1.348,0.091 0.319,0.698 0,0" /></g><g
           transform="translate(95.665,190.3325)"
           id="g120"><path
             id="path122"
             style="fill:#0a73ba;fill-opacity:1;fill-rule:nonzero;stroke:none"
             d="m 0,0 -3.227,-0.707 c 0.239,0.42 0.506,0.831 0.802,1.223 0.029,0.057 0.067,0.105 0.114,0.162 0.029,0.048 0.058,0.095 0.105,0.143 l 0.402,-0.41 C -1.203,0.296 -0.592,0.162 0,0" /></g><g
           transform="translate(118.8809,143.0024)"
           id="g124"><path
             id="path126"
             style="fill:#e472ac;fill-opacity:1;fill-rule:nonzero;stroke:none"
             d="m 0,0 c 0.248,-1.119 0.809,-2.167 1.602,-2.992 0.336,-0.35 0.735,-0.672 1.211,-0.769 0.533,-0.108 1.092,0.085 1.537,0.4 0.445,0.315 0.794,0.743 1.137,1.166 0.208,0.256 0.428,0.597 0.276,0.889 -0.069,0.13 -0.197,0.214 -0.322,0.292 C 4.166,-0.222 2.783,0.4 1.343,0.828 1.043,0.917 0.711,0.996 0.425,0.867 0.14,0.737 -0.012,0.304 0.229,0.105" /></g><g
           transform="translate(93.8608,190.7432)"
           id="g128"><path
             id="path130"
             style="fill:#0a73ba;fill-opacity:1;fill-rule:nonzero;stroke:none"
             d="m 0,0 c 0.601,-0.115 1.212,-0.249 1.804,-0.411 l -3.226,-0.706 c 0.238,0.42 0.505,0.83 0.801,1.222 0.029,0.057 0.067,0.105 0.115,0.162 0.124,-0.076 0.238,-0.162 0.353,-0.239 L 0.219,-0.229 0,0 Z" /></g><g
           id="g132"><g
             id="g134" /><g
             id="g140"><g
               style="opacity:0.5"
               id="g142"
               clip-path="url(#clipPath136)"><g
                 id="g144"
                 transform="translate(86.644,149.5708)"><path
                   id="path146"
                   style="fill:#09537c;fill-opacity:1;fill-rule:nonzero;stroke:none"
                   d="m 0,0 c 0,0 4.467,-0.687 3.437,-7.904 -0.344,-6.186 10.309,-12.028 16.495,-7.904 6.186,4.124 11.685,3.78 11.685,3.78 0,0 -6.874,-10.309 -20.62,-9.622 -11.341,4.811 -18.339,4.66 -16.386,8.859 C -3.437,-8.591 0,0 0,0" /></g></g></g></g><g
           transform="translate(79.7705,184.2803)"
           id="g148"><path
             id="path150"
             style="fill:#e472ac;fill-opacity:1;fill-rule:nonzero;stroke:none"
             d="m 0,0 c -4.648,-1.291 -6.749,5.145 -11.572,5.049 -2.784,-0.055 -5.059,-2.167 -6.89,-4.265 -5.844,-6.695 -10.193,-14.62 -13.226,-22.973 -1.455,-4.008 -2.626,-8.207 -2.485,-12.468 0.141,-4.262 1.75,-8.632 5.047,-11.336 3.297,-2.705 8.417,-3.323 11.856,-0.802 2.24,1.643 4.388,4.605 7.014,3.697 1.724,-0.596 2.442,-2.606 3.74,-3.887 2.048,-2.02 5.53,-1.988 8,-0.515 2.471,1.473 4.064,4.076 5.107,6.756 2.888,7.417 2.08,16.171 -2.115,22.934 -1.4,2.258 -3.234,4.627 -2.818,7.251 0.731,4.608 -0.627,5.06 -1.256,11.065" /></g><g
           transform="translate(79.7075,184.5103)"
           id="g152"><path
             id="path154"
             style="fill:#231f20;fill-opacity:1;fill-rule:nonzero;stroke:none"
             d="m 0,0 c -4.769,-0.774 -6.958,5.189 -11.572,5.049 -4.763,-0.144 -8.177,-5.515 -10.651,-8.939 -6.577,-9.1 -14.716,-23.682 -11.478,-35.293 1.108,-3.974 3.703,-7.564 7.677,-8.997 2.019,-0.728 4.296,-0.925 6.377,-0.302 0.932,0.279 1.754,0.715 2.56,1.251 2.79,1.857 1.303,2.058 5.909,1.443 5.183,-0.691 2.377,0.054 5.036,-1.967 0.527,-0.401 1.005,-0.692 1.647,-0.921 1.58,-0.564 3.443,-0.419 4.992,0.175 4.205,1.612 6.338,6.427 7.346,10.494 1.418,5.718 0.829,11.922 -1.601,17.284 -0.881,1.945 -2.409,3.623 -3.214,5.576 -1.033,2.508 -0.772,4.655 -0.878,7.174 -0.117,2.761 -1.101,5.512 -1.446,8.249 -0.038,0.301 -0.517,0.305 -0.478,0 0.263,-2.078 0.793,-4.064 1.147,-6.119 0.386,-2.241 -0.226,-4.376 0.117,-6.554 0.421,-2.679 2.401,-4.819 3.637,-7.141 1.969,-3.699 2.991,-7.922 2.999,-12.107 0.009,-4.022 -0.882,-8.319 -2.917,-11.824 -1.464,-2.523 -4.054,-5.024 -7.203,-5.074 -4.271,-0.067 -3.983,1.618 -6.001,3.697 -2.618,2.698 -4.31,1.858 -7.151,-0.12 -2.366,-1.647 -4.212,-3.441 -7.335,-3.414 -2.789,0.025 -5.525,1.301 -7.45,3.286 -3.065,3.16 -4.096,7.761 -3.923,12.029 0.316,7.806 4.197,15.964 7.994,22.634 3.043,5.345 9.971,18.076 17.631,13.967 C -5.126,1.872 -3.732,-1.086 0.126,-0.46 0.429,-0.411 0.301,0.049 0,0" /></g><g
           id="g156"><g
             id="g158" /><g
             id="g164"><g
               style="opacity:0.80000299"
               id="g166"
               clip-path="url(#clipPath160)"><g
                 id="g168"
                 transform="translate(124.5605,165.4937)"><path
                   id="path170"
                   style="fill:#09537c;fill-opacity:1;fill-rule:nonzero;stroke:none"
                   d="m 0,0 c 0,-4.555 -4.257,-8.248 -9.508,-8.248 -5.251,0 -9.508,3.693 -9.508,8.248 0,4.555 4.257,8.248 9.508,8.248 C -4.257,8.248 0,4.555 0,0" /></g></g></g></g><g
           transform="translate(123.0273,172.397)"
           id="g172"><path
             id="path174"
             style="fill:#f0f0ea;fill-opacity:1;fill-rule:nonzero;stroke:none"
             d="m 0,0 c 1.499,-5.478 -0.93,-10.916 -5.425,-12.146 -4.495,-1.23 -9.353,2.214 -10.852,7.692 -1.499,5.478 0.929,10.916 5.424,12.146 C -6.357,8.922 -1.499,5.478 0,0" /></g><g
           transform="translate(123.0273,172.397)"
           id="g176"><path
             id="path178"
             style="fill:none;stroke:#231f20;stroke-width:0.191;stroke-linecap:butt;stroke-linejoin:miter;stroke-miterlimit:10;stroke-dasharray:none;stroke-opacity:1"
             d="m 0,0 c 1.499,-5.478 -0.93,-10.916 -5.425,-12.146 -4.495,-1.23 -9.353,2.214 -10.852,7.692 -1.499,5.478 0.929,10.916 5.424,12.146 C -6.357,8.922 -1.499,5.478 0,0 Z" /></g><g
           transform="translate(117.7715,167.8984)"
           id="g180"><path
             id="path182"
             style="fill:#0139ee;fill-opacity:1;fill-rule:nonzero;stroke:none"
             d="m 0,0 c 0.711,-2.599 -0.363,-5.157 -2.4,-5.714 -2.037,-0.557 -4.265,1.097 -4.975,3.696 -0.711,2.599 0.363,5.157 2.399,5.714 C -2.938,4.253 -0.711,2.599 0,0" /></g><g
           transform="translate(111.7329,166.4341)"
           id="g184"><path
             id="path186"
             style="fill:#141810;fill-opacity:1;fill-rule:nonzero;stroke:none"
             d="M 0,0 C -0.385,1.407 0.176,2.786 1.253,3.081 2.332,3.376 3.517,2.475 3.902,1.068 4.287,-0.339 3.725,-1.719 2.648,-2.013 1.57,-2.308 0.384,-1.407 0,0" /></g><g
           transform="translate(126.9697,146.7422)"
           id="g188"><path
             id="path190"
             style="fill:#231f20;fill-opacity:1;fill-rule:nonzero;stroke:none"
             d="m 0,0 c -2.199,1.209 -3.629,3.001 -4.302,5.426 -0.15,0.54 -0.795,0.531 -1.091,0.142 -2.461,-3.222 -5.683,-8.544 -1.869,-12.144 0.913,-0.861 2.383,-1.549 3.563,-0.811 0.798,0.498 0.998,1.385 1.206,2.236 0.427,1.745 0.681,3.555 1.018,5.319 0.144,0.751 -1.005,1.072 -1.15,0.318 -0.283,-1.478 -0.56,-2.957 -0.849,-4.433 -0.223,-1.141 -0.325,-3.587 -2.944,-1.785 -0.636,0.437 -1.025,1.503 -1.198,2.18 -0.825,3.223 1.42,6.116 3.254,8.518 C -4.726,5.014 -5.09,5.062 -5.453,5.109 -4.702,2.406 -3.065,0.324 -0.603,-1.03 0.071,-1.4 0.674,-0.371 0,0" /></g><g
           transform="translate(117.9141,149.8062)"
           id="g192"><path
             id="path194"
             style="fill:#231f20;fill-opacity:1;fill-rule:nonzero;stroke:none"
             d="M 0,0 C 1.812,1.917 4.329,2.84 6.955,2.443 7.706,2.33 8.029,3.479 7.271,3.594 4.229,4.054 1.28,3.092 -0.844,0.844 -1.371,0.286 -0.528,-0.56 0,0" /></g><g
           transform="translate(131.0469,160.2832)"
           id="g196"><path
             id="path198"
             style="fill:#231f20;fill-opacity:1;fill-rule:nonzero;stroke:none"
             d="M 0,0 C 1.366,0.629 2.732,1.259 4.099,1.888 4.795,2.209 4.189,3.238 3.496,2.918 2.13,2.289 0.764,1.66 -0.603,1.031 -1.299,0.709 -0.693,-0.319 0,0" /></g><g
           transform="translate(135.0342,156.9678)"
           id="g200"><path
             id="path202"
             style="fill:#231f20;fill-opacity:1;fill-rule:nonzero;stroke:none"
             d="M 0,0 C 0.838,0.842 1.677,1.683 2.515,2.525 3.058,3.069 2.214,3.914 1.671,3.369 0.833,2.527 -0.006,1.686 -0.844,0.844 -1.387,0.299 -0.543,-0.545 0,0" /></g><g
           transform="translate(140.2471,154.606)"
           id="g204"><path
             id="path206"
             style="fill:#231f20;fill-opacity:1;fill-rule:nonzero;stroke:none"
             d="M 0,0 C 0.071,1.589 0.577,3.033 1.478,4.34 1.915,4.974 0.881,5.572 0.447,4.943 -0.57,3.466 -1.112,1.789 -1.192,0 -1.228,-0.768 -0.034,-0.766 0,0" /></g><g
           transform="translate(145.0312,188.269)"
           id="g208"><path
             id="path210"
             style="fill:#e472ac;fill-opacity:1;fill-rule:nonzero;stroke:none"
             d="M 0,0 C 0.234,-1.755 2.427,-2.705 4.123,-2.196 5.819,-1.687 7.021,-0.181 7.877,1.37 8.265,2.073 8.556,3.074 7.933,3.582 7.399,4.016 6.604,3.732 6.012,3.384 3.959,2.18 2.268,0.368 1.209,-1.763" /></g><g
           id="g212"><g
             id="g214" /><g
             id="g220"><g
               style="opacity:0.80000299"
               id="g222"
               clip-path="url(#clipPath216)"><g
                 id="g224"
                 transform="translate(102.1084,182.2183)"><path
                   id="path226"
                   style="fill:#09537c;fill-opacity:1;fill-rule:nonzero;stroke:none"
                   d="M 0,0 C 0,0 -1.031,7.904 7.561,4.124 0.344,-0.687 0.687,-0.344 0,0" /></g></g></g></g><g
           id="g228"><g
             id="g230" /><g
             id="g236"><g
               style="opacity:0.5"
               id="g238"
               clip-path="url(#clipPath232)"><g
                 id="g240"
                 transform="translate(120.1494,133.189)"><path
                   id="path242"
                   style="fill:#09537c;fill-opacity:1;fill-rule:nonzero;stroke:none"
                   d="m 0,0 c 0,0 -1.18,-3.073 2.666,-1.096 12.443,6.395 16.369,-2.436 17.332,-5.558 0.186,-0.603 0.735,-1.02 1.366,-1.02 l 0.034,0 c 0.937,0 1.62,0.88 1.392,1.789 -0.647,2.593 -2.054,7.319 -4.125,9.448 C 15.731,6.578 0,0 0,0" /></g></g></g></g><g
           transform="translate(146.874,125.2173)"
           id="g244"><path
             id="path246"
             style="fill:#f1f8ce;fill-opacity:1;fill-rule:nonzero;stroke:none"
             d="M 0,0 C 0,0 -0.655,-1.245 0.947,-4.242 4.49,-4.556 5.289,-1.525 5.289,-1.525 5.289,-1.525 2.595,3.927 0,0" /></g><g
           transform="translate(142.1104,123.6621)"
           id="g248"><path
             id="path250"
             style="fill:#f1f8ce;fill-opacity:1;fill-rule:nonzero;stroke:none"
             d="M 0,0 C 0,0 -0.783,-0.783 -0.261,-3.395 2.35,-4.438 3.655,-2.35 3.655,-2.35 3.655,-2.35 2.872,2.35 0,0" /></g><g
           transform="translate(150.7451,128.272)"
           id="g252"><path
             id="path254"
             style="fill:#f1f8ce;fill-opacity:1;fill-rule:nonzero;stroke:none"
             d="m 0,0 c 0,0 -0.245,-0.706 0.84,-2.138 1.893,0.134 2.072,1.786 2.072,1.786 0,0 -1.859,2.625 -2.912,0.352" /></g><g
           id="g256"><g
             id="g258" /><g
             id="g264"><g
               style="opacity:0.5"
               id="g266"
               clip-path="url(#clipPath260)"><g
                 id="g268"
                 transform="translate(144.0342,148.8838)"><path
                   id="path270"
                   style="fill:#09537c;fill-opacity:1;fill-rule:nonzero;stroke:none"
                   d="M 0,0 C 0,0 18.214,5.155 20.62,16.839 17.184,4.467 14.09,0 0,0" /></g></g></g></g></g></g></g></svg>