<svg width="29" height="37" viewBox="0 0 29 37" fill="none" xmlns="http://www.w3.org/2000/svg">
<path d="M1 24.4355C1 22.9333 2.21776 21.7155 3.71994 21.7155H26.2801C27.7822 21.7155 29 22.9333 29 24.4355V32.5953C29 34.0974 27.7822 35.3152 26.2801 35.3152H3.71994C2.21776 35.3152 1 34.0974 1 32.5953V24.4355Z" fill="#3C53DC"/>
<path d="M2.39995 24.4355C2.39995 23.6844 3.00883 23.0755 3.75992 23.0755H26.24C26.9911 23.0755 27.6 23.6844 27.6 24.4355V32.5953C27.6 33.3464 26.9911 33.9553 26.24 33.9553H3.75992C3.00883 33.9553 2.39995 33.3464 2.39995 32.5953V24.4355Z" fill="white"/>
<path d="M6.28674 31.6314H5.64011V25.166H6.28674V31.6314Z" fill="#CBD2F6"/>
<path d="M22.1156 7.58227C22.1156 7.25846 21.8543 6.99685 21.5327 6.99685C21.2103 6.99685 20.9498 7.25934 20.9498 7.58227C20.9498 7.6475 20.9488 11.0031 20.9467 11.0678C20.8439 14.2722 18.2156 16.8478 15.0005 16.8478C11.7856 16.8469 9.15917 14.2752 9.05352 11.0733C9.05132 11.0068 9.05022 7.64937 9.05022 7.58227C9.05022 7.25846 8.78886 6.99685 8.46731 6.99685C8.14488 6.99685 7.8844 7.25934 7.8844 7.58227C7.8844 7.64933 7.88532 11.0067 7.88716 11.0733C7.98786 14.7256 10.831 17.6993 14.4166 17.9934V19.7108H12.4496C11.4985 19.7108 11.0994 20.2219 10.9319 20.6507C10.8127 20.9558 11.0762 21.2281 11.4037 21.2281H18.5593C18.9033 21.2281 19.1702 20.93 19.0263 20.6174C18.8322 20.1959 18.4202 19.7108 17.5512 19.7108H15.5843L15.5825 17.9925C19.1708 17.6991 22.015 14.7217 22.113 11.0678C22.1147 11.003 22.1156 7.64746 22.1156 7.58227Z" fill="#39489E"/>
<path d="M15 15.8914C17.9428 15.8914 20.3367 13.5687 20.3367 10.7145V5.65197C20.3367 2.79685 17.9428 0.474213 15 0.474213C12.0572 0.474213 9.6633 2.79685 9.6633 5.65197V10.7145C9.6633 13.5687 12.0572 15.8914 15 15.8914Z" fill="#AFB9F0"/>
<path d="M16.1859 5.51443C16.1859 5.35069 16.3187 5.21795 16.4824 5.21795H20.3367V6.40389H16.4824C16.3187 6.40389 16.1859 6.27115 16.1859 6.1074V5.51443Z" fill="#6174E3"/>
<path d="M13.8141 5.51443C13.8141 5.35069 13.6813 5.21795 13.5176 5.21795H9.6633V6.40389H13.5176C13.6813 6.40389 13.8141 6.27115 13.8141 6.1074V5.51443Z" fill="#6174E3"/>
<path d="M16.1859 7.8863C16.1859 7.72256 16.3187 7.58982 16.4824 7.58982H20.3367V8.77575H16.4824C16.3187 8.77575 16.1859 8.64301 16.1859 8.47927V7.8863Z" fill="#6174E3"/>
<path d="M13.8141 7.8863C13.8141 7.72256 13.6813 7.58982 13.5176 7.58982H9.6633V8.77575H13.5176C13.6813 8.77575 13.8141 8.64301 13.8141 8.47927V7.8863Z" fill="#6174E3"/>
<path d="M16.1859 10.2582C16.1859 10.0944 16.3187 9.96169 16.4824 9.96169H20.3367V11.1476H16.4824C16.3187 11.1476 16.1859 11.0149 16.1859 10.8511V10.2582Z" fill="#6174E3"/>
<path d="M13.8141 10.2582C13.8141 10.0944 13.6813 9.96169 13.5176 9.96169H9.6633V11.1476H13.5176C13.6813 11.1476 13.8141 11.0149 13.8141 10.8511V10.2582Z" fill="#6174E3"/>
</svg>
