<svg width="29" height="22" viewBox="0 0 29 22" fill="none" xmlns="http://www.w3.org/2000/svg">
<path d="M14.8125 7.5C14.8125 6.98223 14.3928 6.5625 13.875 6.5625H9.375C8.02881 6.5625 6.9375 5.47119 6.9375 4.125C6.9375 2.77881 8.02881 1.6875 9.375 1.6875H20.25C20.7678 1.6875 21.1875 1.26777 21.1875 0.75V0H22.3125V0.75C22.3125 1.88909 21.3891 2.8125 20.25 2.8125H9.375C8.65013 2.8125 8.0625 3.40013 8.0625 4.125C8.0625 4.84987 8.65013 5.4375 9.375 5.4375H13.875C15.0141 5.4375 15.9375 6.36091 15.9375 7.5V8.25H14.8125V7.5Z" fill="#7F8EE7"/>
<path d="M0.100098 8.39995C0.100098 8.01335 0.413498 7.69995 0.800098 7.69995H27.4001C27.7867 7.69995 28.1001 8.01335 28.1001 8.39995V21C28.1001 21.3865 27.7867 21.7 27.4001 21.7H0.800097C0.413498 21.7 0.100098 21.3865 0.100098 21V8.39995Z" fill="#97C3E0"/>
<path d="M1.5001 9.09995H4.3001V11.9H1.5001V9.09995Z" fill="white"/>
<path d="M1.5001 13.3H5.7001V16.1H1.5001V13.3Z" fill="white"/>
<path d="M5.7001 9.09995H8.5001V11.9H5.7001V9.09995Z" fill="white"/>
<path d="M1.5001 17.5H4.3001V20.3H1.5001V17.5Z" fill="white"/>
<path d="M5.7001 17.5H22.5001V20.3H5.7001V17.5Z" fill="white"/>
<path d="M23.9001 17.5H26.7001V20.3H23.9001V17.5Z" fill="white"/>
<path d="M9.9001 9.09995H12.7001V11.9H9.9001V9.09995Z" fill="white"/>
<path d="M14.1001 9.09995H16.9001V11.9H14.1001V9.09995Z" fill="white"/>
<path d="M18.3001 9.09995H21.1001V11.9H18.3001V9.09995Z" fill="white"/>
<path d="M7.1001 13.3H9.9001V16.1H7.1001V13.3Z" fill="white"/>
<path d="M11.3001 13.3H14.1001V16.1H11.3001V13.3Z" fill="white"/>
<path d="M15.5001 13.3H18.3001V16.1H15.5001V13.3Z" fill="white"/>
<path d="M19.7001 13.3H22.5001V16.1H19.7001V13.3Z" fill="white"/>
<path d="M23.9001 13.3H26.7001V16.1H23.9001V13.3Z" fill="white"/>
<path d="M22.5001 9.09995H26.7001V11.9H22.5001V9.09995Z" fill="white"/>
</svg>
