<?xml version="1.0" encoding="UTF-8" standalone="no"?>
<svg
   xmlns:dc="http://purl.org/dc/elements/1.1/"
   xmlns:cc="http://creativecommons.org/ns#"
   xmlns:rdf="http://www.w3.org/1999/02/22-rdf-syntax-ns#"
   xmlns:svg="http://www.w3.org/2000/svg"
   xmlns="http://www.w3.org/2000/svg"
   viewBox="0 0 281.25 312.20499"
   height="312.20499"
   width="281.25"
   xml:space="preserve"
   version="1.1"
   id="svg2"><metadata
     id="metadata8"><rdf:RDF><cc:Work
         rdf:about=""><dc:format>image/svg+xml</dc:format><dc:type
           rdf:resource="http://purl.org/dc/dcmitype/StillImage" /></cc:Work></rdf:RDF></metadata><defs
     id="defs6"><clipPath
       id="clipPath20"
       clipPathUnits="userSpaceOnUse"><path
         id="path22"
         d="m 0,0 225,0 0,249.764 -225,0 L 0,0 Z" /></clipPath><clipPath
       id="clipPath40"
       clipPathUnits="userSpaceOnUse"><path
         id="path42"
         d="m 0,0 225,0 0,249.764 -225,0 L 0,0 Z" /></clipPath><clipPath
       id="clipPath64"
       clipPathUnits="userSpaceOnUse"><path
         id="path66"
         d="m 0,249.764 225,0 L 225,0 0,0 0,249.764 Z" /></clipPath></defs><g
     transform="matrix(1.25,0,0,-1.25,0,312.205)"
     id="g10"><g
       transform="translate(1.449,45.846)"
       id="g12"><path
         id="path14"
         style="fill:#f5f5f5;fill-opacity:1;fill-rule:nonzero;stroke:none"
         d="M 0,0 166.043,-45.469 220.074,150.89 56.008,198.332 0,0 Z" /></g><g
       id="g16"><g
         clip-path="url(#clipPath20)"
         id="g18"><g
           transform="translate(57.457,244.1777)"
           id="g24"><path
             id="path26"
             style="fill:none;stroke:#100f0d;stroke-width:0.61000001;stroke-linecap:butt;stroke-linejoin:miter;stroke-miterlimit:10;stroke-dasharray:none;stroke-opacity:1"
             d="M 0,0 164.066,-47.441 110.035,-243.801 -56.008,-198.332 0,0 Z" /></g></g></g><g
       transform="translate(64.8442,228.7324)"
       id="g28"><path
         id="path30"
         style="fill:#f5f5f5;fill-opacity:1;fill-rule:nonzero;stroke:none"
         d="M 0,0 -40.489,-142.278 99.195,-183.539 141.894,-40.949 0,0 Z" /></g><g
       transform="translate(64.8442,228.7324)"
       id="g32"><path
         id="path34"
         style="fill:none;stroke:#000000;stroke-width:0.639;stroke-linecap:butt;stroke-linejoin:miter;stroke-miterlimit:4;stroke-dasharray:none;stroke-opacity:1"
         d="M 0,0 -40.489,-142.278 99.195,-183.539 141.894,-40.949 0,0 Z" /></g><g
       id="g36"><g
         clip-path="url(#clipPath40)"
         id="g38"><g
           transform="translate(0.3789,200.7554)"
           id="g44"><path
             id="path46"
             style="fill:none;stroke:#100f0d;stroke-width:0.61000001;stroke-linecap:butt;stroke-linejoin:miter;stroke-miterlimit:10;stroke-dasharray:none;stroke-opacity:1"
             d="M 0,0 163.723,48.629 224.234,-145.82 59.918,-197.183 0,0 Z" /></g></g></g><g
       transform="translate(0.3789,200.7558)"
       id="g48"><path
         id="path50"
         style="fill:#f5f5f5;fill-opacity:1;fill-rule:nonzero;stroke:none"
         d="M 0,0 59.918,-197.184 224.234,-145.821 163.723,48.629 0,0 Z" /></g><g
       transform="translate(15.8398,190.2441)"
       id="g52"><path
         id="path54"
         style="fill:#e8e7e5;fill-opacity:1;fill-rule:nonzero;stroke:none"
         d="M 0,0 139.629,42.929 183.102,-97.27 44.558,-141.066 0,0 Z" /></g><g
       transform="translate(15.8398,190.2441)"
       id="g56"><path
         id="path58"
         style="fill:none;stroke:#100f0d;stroke-width:0.49700001;stroke-linecap:butt;stroke-linejoin:miter;stroke-miterlimit:10;stroke-dasharray:none;stroke-opacity:1"
         d="M 0,0 139.629,42.929 183.102,-97.27 44.558,-141.066 0,0 Z" /></g><g
       id="g60"><g
         clip-path="url(#clipPath64)"
         id="g62"><g
           transform="translate(135.498,80.3057)"
           id="g68"><path
             id="path70"
             style="fill:#cccbcb;fill-opacity:1;fill-rule:nonzero;stroke:none"
             d="m 0,0 c 1.166,-1.353 2.633,-1.475 4.188,-1.269 1.71,0.226 3.452,0.343 5.072,0.93 2.498,0.904 4.589,2.45 6.509,4.276 0.76,0.723 1.037,-1.374 1.363,-0.452 0.175,0.495 -0.813,-2.239 0,0 0.003,0.008 2.176,0.24 2.174,0.231 C 18.644,0.47 15.387,0.775 12.831,-0.99 10.69,-2.468 8.302,-3.357 5.735,-3.775 4.396,-3.993 3.03,-3.919 1.694,-3.475 0.43,-3.055 -0.039,-2.329 0.024,-0.965 0.039,-0.646 0.009,-0.321 0,0" /></g><g
           transform="translate(137.4395,110.8389)"
           id="g72"><path
             id="path74"
             style="fill:#c0272d;fill-opacity:1;fill-rule:nonzero;stroke:none"
             d="m 0,0 c 2.482,1.22 5.045,2.195 7.811,2.556 1.352,0.175 2.218,-0.289 3.01,-1.506 1.797,-2.765 2.151,-6.011 3.313,-8.98 1.412,-3.605 2.617,-7.294 4.079,-10.879 0.649,-1.592 0.265,-2.695 -0.803,-3.84 -0.824,-0.884 -1.936,-1.475 -2.556,-2.558 -2.486,-1.432 -4.971,-2.863 -7.457,-4.296 -1.369,-0.351 -2.735,-0.714 -4.108,-1.051 -1.259,-0.309 -2.19,0.031 -3.064,1.107 -3.412,4.199 -6.775,8.457 -10.48,12.387 -1.27,1.349 -2.332,2.731 -3.338,4.243 -0.773,1.162 -0.522,2.091 0.182,3.082 1.32,1.856 3.028,3.33 4.847,4.644 1.86,1.344 3.712,2.722 5.795,3.729 0.665,-1.41 0.77,-2.924 0.829,-4.447 -1.798,-1.988 -4.439,-2.93 -6.316,-4.99 2.593,0.019 11.633,5.106 14.368,8.085 C 5.132,-2.572 4.506,-3.159 3.781,-3.361 2.695,-3.666 1.699,-4.862 0.431,-3.802 0.287,-2.534 0.144,-1.267 0,0" /></g><g
           transform="translate(137.4395,110.8389)"
           id="g76"><path
             id="path78"
             style="fill:none;stroke:#000000;stroke-width:0.30700001;stroke-linecap:butt;stroke-linejoin:miter;stroke-miterlimit:10;stroke-dasharray:none;stroke-opacity:1"
             d="m 0,0 c 2.482,1.22 5.045,2.195 7.811,2.556 1.352,0.175 2.218,-0.289 3.01,-1.506 1.797,-2.765 2.151,-6.011 3.313,-8.98 1.412,-3.605 2.617,-7.294 4.079,-10.879 0.649,-1.592 0.265,-2.695 -0.803,-3.84 -0.824,-0.884 -1.936,-1.475 -2.556,-2.558 -2.486,-1.432 -4.971,-2.863 -7.457,-4.296 -1.369,-0.351 -2.735,-0.714 -4.108,-1.051 -1.259,-0.309 -2.19,0.031 -3.064,1.107 -3.412,4.199 -6.775,8.457 -10.48,12.387 -1.27,1.349 -2.332,2.731 -3.338,4.243 -0.773,1.162 -0.522,2.091 0.182,3.082 1.32,1.856 3.028,3.33 4.847,4.644 1.86,1.344 3.712,2.722 5.795,3.729 0.665,-1.41 0.77,-2.924 0.829,-4.447 -1.798,-1.988 -4.439,-2.93 -6.316,-4.99 2.593,0.019 11.633,5.106 14.368,8.085 C 5.132,-2.572 4.506,-3.159 3.781,-3.361 2.695,-3.666 1.699,-4.862 0.431,-3.802 0.287,-2.534 0.144,-1.267 0,0 Z" /></g><g
           transform="translate(137.0625,107.249)"
           id="g80"><path
             id="path82"
             style="fill:#252525;fill-opacity:1;fill-rule:nonzero;stroke:none"
             d="M 0,0 C 1.799,0.724 3.594,1.46 5.4,2.166 5.874,2.351 6.379,2.46 6.878,2.569 7.176,2.635 7.517,2.66 7.718,2.365 7.976,1.986 7.732,1.648 7.481,1.412 6.739,0.712 6.001,-0.005 5.184,-0.612 c -4.21,-3.125 -8.732,-5.709 -13.63,-7.597 -0.725,-0.279 -1.812,-0.915 -2.26,-0.169 -0.542,0.903 0.637,1.454 1.252,1.981 1.75,1.5 3.625,2.836 5.655,3.941 0.445,0.242 0.87,0.559 1.428,0.448 0.099,-0.449 -0.194,-1.313 0.512,-1.193 0.86,0.145 1.76,0.659 1.968,1.68 C 0.207,-1.042 0.045,-0.509 0,0" /></g><g
           transform="translate(147.4766,134.9653)"
           id="g84"><path
             id="path86"
             style="fill:#69bc45;fill-opacity:1;fill-rule:nonzero;stroke:none"
             d="m 0,0 c 0.144,-0.529 -0.226,-0.869 -0.484,-1.232 -2.384,-3.341 -3.874,-7.032 -4.595,-11.079 -0.782,-4.397 -4.14,-7.165 -8.715,-7.358 -0.477,-0.021 -0.909,-0.11 -1.272,-0.434 -0.088,0.117 -0.176,0.234 -0.264,0.351 -0.282,0.484 -0.483,1.049 -0.863,1.436 -1.384,1.403 -1.466,3.135 -1.07,4.832 0.92,3.927 2.469,7.54 5.923,9.993 2.696,1.915 5.746,2.946 8.983,3.353 C -1.605,-0.043 -0.807,0.502 0,0" /></g><g
           transform="translate(119.7715,118.3477)"
           id="g88"><path
             id="path90"
             style="fill:#69bc45;fill-opacity:1;fill-rule:nonzero;stroke:none"
             d="m 0,0 c 7.733,2.246 15.743,-4.474 12.697,-12.493 -1.054,-2.777 3.401,-3.977 4.446,-1.226 C 21.45,-2.379 9.659,7.607 -1.226,4.445 -4.069,3.619 -2.859,-0.831 0,0" /></g><g
           transform="translate(135.498,80.3057)"
           id="g92"><path
             id="path94"
             style="fill:#cccbcb;fill-opacity:1;fill-rule:nonzero;stroke:none"
             d="m 0,0 c 1.166,-1.353 2.633,-1.475 4.188,-1.269 1.71,0.226 3.452,0.343 5.072,0.93 2.498,0.904 4.589,2.45 6.509,4.276 0.76,0.723 1.037,-1.374 1.363,-0.452 0.175,0.495 -0.813,-2.239 0,0 0.003,0.008 2.176,0.24 2.174,0.231 C 18.644,0.47 15.387,0.775 12.831,-0.99 10.69,-2.468 8.302,-3.357 5.735,-3.775 4.396,-3.993 3.03,-3.919 1.694,-3.475 0.43,-3.055 -0.039,-2.329 0.024,-0.965 0.039,-0.646 0.009,-0.321 0,0" /></g><g
           transform="translate(137.4395,110.8389)"
           id="g96"><path
             id="path98"
             style="fill:#c0272d;fill-opacity:1;fill-rule:nonzero;stroke:none"
             d="m 0,0 c 2.482,1.22 5.045,2.195 7.811,2.556 1.352,0.175 2.218,-0.289 3.01,-1.506 1.797,-2.765 2.151,-6.011 3.313,-8.98 1.412,-3.605 2.617,-7.294 4.079,-10.879 0.649,-1.592 0.265,-2.695 -0.803,-3.84 -0.824,-0.884 -1.936,-1.475 -2.556,-2.558 -2.486,-1.432 -4.971,-2.863 -7.457,-4.296 -1.369,-0.351 -2.735,-0.714 -4.108,-1.051 -1.259,-0.309 -2.19,0.031 -3.064,1.107 -3.412,4.199 -6.775,8.457 -10.48,12.387 -1.27,1.349 -2.332,2.731 -3.338,4.243 -0.773,1.162 -0.522,2.091 0.182,3.082 1.32,1.856 3.028,3.33 4.847,4.644 1.86,1.344 3.712,2.722 5.795,3.729 0.665,-1.41 0.77,-2.924 0.829,-4.447 -1.798,-1.988 -4.439,-2.93 -6.316,-4.99 2.593,0.019 11.633,5.106 14.368,8.085 C 5.132,-2.572 4.506,-3.159 3.781,-3.361 2.695,-3.666 1.699,-4.862 0.431,-3.802 0.287,-2.534 0.144,-1.267 0,0" /></g><g
           transform="translate(137.4395,110.8389)"
           id="g100"><path
             id="path102"
             style="fill:none;stroke:#000000;stroke-width:0.30700001;stroke-linecap:butt;stroke-linejoin:miter;stroke-miterlimit:10;stroke-dasharray:none;stroke-opacity:1"
             d="m 0,0 c 2.482,1.22 5.045,2.195 7.811,2.556 1.352,0.175 2.218,-0.289 3.01,-1.506 1.797,-2.765 2.151,-6.011 3.313,-8.98 1.412,-3.605 2.617,-7.294 4.079,-10.879 0.649,-1.592 0.265,-2.695 -0.803,-3.84 -0.824,-0.884 -1.936,-1.475 -2.556,-2.558 -2.486,-1.432 -4.971,-2.863 -7.457,-4.296 -1.369,-0.351 -2.735,-0.714 -4.108,-1.051 -1.259,-0.309 -2.19,0.031 -3.064,1.107 -3.412,4.199 -6.775,8.457 -10.48,12.387 -1.27,1.349 -2.332,2.731 -3.338,4.243 -0.773,1.162 -0.522,2.091 0.182,3.082 1.32,1.856 3.028,3.33 4.847,4.644 1.86,1.344 3.712,2.722 5.795,3.729 0.665,-1.41 0.77,-2.924 0.829,-4.447 -1.798,-1.988 -4.439,-2.93 -6.316,-4.99 2.593,0.019 11.633,5.106 14.368,8.085 C 5.132,-2.572 4.506,-3.159 3.781,-3.361 2.695,-3.666 1.699,-4.862 0.431,-3.802 0.287,-2.534 0.144,-1.267 0,0 Z" /></g><g
           transform="translate(137.0625,107.249)"
           id="g104"><path
             id="path106"
             style="fill:#252525;fill-opacity:1;fill-rule:nonzero;stroke:none"
             d="M 0,0 C 1.799,0.724 3.594,1.46 5.4,2.166 5.874,2.351 6.379,2.46 6.878,2.569 7.176,2.635 7.517,2.66 7.718,2.365 7.976,1.986 7.732,1.648 7.481,1.412 6.739,0.712 6.001,-0.005 5.184,-0.612 c -4.21,-3.125 -8.732,-5.709 -13.63,-7.597 -0.725,-0.279 -1.812,-0.915 -2.26,-0.169 -0.542,0.903 0.637,1.454 1.252,1.981 1.75,1.5 3.625,2.836 5.655,3.941 0.445,0.242 0.87,0.559 1.428,0.448 0.099,-0.449 -0.194,-1.313 0.512,-1.193 0.86,0.145 1.76,0.659 1.968,1.68 C 0.207,-1.042 0.045,-0.509 0,0" /></g><g
           transform="translate(147.4766,134.9653)"
           id="g108"><path
             id="path110"
             style="fill:#69bc45;fill-opacity:1;fill-rule:nonzero;stroke:none"
             d="m 0,0 c 0.144,-0.529 -0.226,-0.869 -0.484,-1.232 -2.384,-3.341 -3.874,-7.032 -4.595,-11.079 -0.782,-4.397 -4.14,-7.165 -8.715,-7.358 -0.477,-0.021 -0.909,-0.11 -1.272,-0.434 -0.088,0.117 -0.176,0.234 -0.264,0.351 -0.282,0.484 -0.483,1.049 -0.863,1.436 -1.384,1.403 -1.466,3.135 -1.07,4.832 0.92,3.927 2.469,7.54 5.923,9.993 2.696,1.915 5.746,2.946 8.983,3.353 C -1.605,-0.043 -0.807,0.502 0,0" /></g><g
           transform="translate(119.7715,118.3477)"
           id="g112"><path
             id="path114"
             style="fill:#69bc45;fill-opacity:1;fill-rule:nonzero;stroke:none"
             d="m 0,0 c 7.733,2.246 15.743,-4.474 12.697,-12.493 -1.054,-2.777 3.401,-3.977 4.446,-1.226 C 21.45,-2.379 9.659,7.607 -1.226,4.445 -4.069,3.619 -2.859,-0.831 0,0" /></g><g
           transform="translate(70.2813,180.6821)"
           id="g116"><path
             id="path118"
             style="fill:#0973b9;fill-opacity:1;fill-rule:nonzero;stroke:none"
             d="M 0,0 C 0,0 -26.195,-57.097 42.008,-59.945 55.243,-60.498 79.389,-36.408 64.941,-4.079 57.568,12.421 42.226,17.786 27.535,17.019 5.095,15.846 0,0 0,0" /></g><g
           transform="translate(89.7129,171.0684)"
           id="g120"><path
             id="path122"
             style="fill:#ffffff;fill-opacity:1;fill-rule:nonzero;stroke:none"
             d="m 0,0 c 0.087,-0.863 -0.309,-1.61 -0.885,-1.669 -0.576,-0.058 -1.114,0.594 -1.201,1.458 -0.088,0.863 0.308,1.61 0.884,1.669 C -0.625,1.516 -0.087,0.864 0,0" /></g><g
           transform="translate(102.6631,180.186)"
           id="g124"><path
             id="path126"
             style="fill:#eff0ea;fill-opacity:1;fill-rule:nonzero;stroke:none"
             d="m 0,0 c 3.373,-5.853 2.213,-12.841 -2.589,-15.608 -4.803,-2.767 -11.43,-0.266 -14.802,5.587 -3.373,5.854 -2.213,12.841 2.589,15.608 C -10,8.354 -3.373,5.853 0,0" /></g><g
           transform="translate(99.4551,177.1821)"
           id="g128"><path
             id="path130"
             style="fill:#1a9948;fill-opacity:1;fill-rule:nonzero;stroke:none"
             d="M 0,0 C 1.324,-2.297 0.535,-5.232 -1.763,-6.556 -4.06,-7.88 -6.996,-7.091 -8.319,-4.793 -9.643,-2.496 -8.854,0.439 -6.556,1.763 -4.259,3.086 -1.324,2.297 0,0" /></g><g
           transform="translate(92.7988,174.5024)"
           id="g132"><path
             id="path134"
             style="fill:#14170f;fill-opacity:1;fill-rule:nonzero;stroke:none"
             d="M 0,0 C -0.866,1.503 -0.635,3.259 0.516,3.922 1.667,4.586 3.303,3.905 4.169,2.402 5.035,0.899 4.804,-0.857 3.652,-1.521 2.501,-2.184 0.866,-1.503 0,0" /></g><g
           transform="translate(90.6631,177.1895)"
           id="g136"><path
             id="path138"
             style="fill:#ffffff;fill-opacity:1;fill-rule:nonzero;stroke:none"
             d="M 0,0 C -0.212,0.981 0.24,1.911 1.009,2.077 1.778,2.244 2.573,1.583 2.785,0.602 2.998,-0.38 2.545,-1.31 1.776,-1.476 1.007,-1.642 0.212,-0.981 0,0" /></g><g
           transform="translate(84.2256,183.3403)"
           id="g140"><path
             id="path142"
             style="fill:#4a85a4;fill-opacity:1;fill-rule:nonzero;stroke:none"
             d="M 0,0 C 0.885,3.208 3.882,5.026 7.147,4.312 7.591,4.215 7.78,4.896 7.335,4.993 3.714,5.785 0.308,3.773 -0.681,0.188 -0.802,-0.251 -0.121,-0.438 0,0" /></g><g
           transform="translate(88.3501,163.9448)"
           id="g144"><path
             id="path146"
             style="fill:#eff0ea;fill-opacity:1;fill-rule:nonzero;stroke:none"
             d="m 0,0 c 3.373,-5.853 2.213,-12.841 -2.589,-15.608 -4.803,-2.767 -11.43,-0.266 -14.802,5.587 -3.373,5.854 -2.213,12.841 2.589,15.608 C -10,8.355 -3.373,5.853 0,0" /></g><g
           transform="translate(87.9966,163.4839)"
           id="g148"><path
             id="path150"
             style="fill:#1a9948;fill-opacity:1;fill-rule:nonzero;stroke:none"
             d="m 0,0 c 1.538,-2.669 1.389,-5.638 -0.333,-6.63 -1.722,-0.993 -4.365,0.367 -5.903,3.037 -1.539,2.67 -1.39,5.638 0.332,6.631 C -4.182,4.03 -1.539,2.67 0,0" /></g><g
           transform="translate(83.8901,160.644)"
           id="g152"><path
             id="path154"
             style="fill:#14170f;fill-opacity:1;fill-rule:nonzero;stroke:none"
             d="M 0,0 C -0.866,1.503 -0.635,3.259 0.516,3.923 1.667,4.586 3.303,3.905 4.168,2.402 5.035,0.899 4.804,-0.857 3.652,-1.521 2.501,-2.184 0.866,-1.503 0,0" /></g><g
           transform="translate(81.0322,163.4478)"
           id="g156"><path
             id="path158"
             style="fill:#ffffff;fill-opacity:1;fill-rule:nonzero;stroke:none"
             d="M 0,0 C -0.212,0.981 0.24,1.911 1.009,2.077 1.778,2.244 2.574,1.583 2.786,0.602 2.998,-0.38 2.546,-1.31 1.777,-1.476 1.007,-1.642 0.212,-0.981 0,0" /></g><g
           transform="translate(70.0093,167.1553)"
           id="g160"><path
             id="path162"
             style="fill:#4a85a4;fill-opacity:1;fill-rule:nonzero;stroke:none"
             d="M 0,0 C 0.885,3.208 3.882,5.026 7.148,4.312 7.591,4.215 7.78,4.896 7.335,4.993 3.714,5.785 0.308,3.773 -0.681,0.188 -0.802,-0.251 -0.121,-0.438 0,0" /></g><g
           transform="translate(79.2549,146.1484)"
           id="g164"><path
             id="path166"
             style="fill:#597d9f;fill-opacity:1;fill-rule:nonzero;stroke:none"
             d="M 0,0 C 2.776,1.066 5.626,1.657 8.6,1.769 9.054,1.786 9.056,2.493 8.6,2.475 5.565,2.361 2.65,1.771 -0.187,0.681 -0.608,0.52 -0.425,-0.163 0,0" /></g><g
           transform="translate(124.459,184.1753)"
           id="g168"><path
             id="path170"
             style="fill:#eff0ea;fill-opacity:1;fill-rule:nonzero;stroke:none"
             d="m 0,0 c 3.509,-5.021 3.239,-11.268 -0.602,-13.953 -3.841,-2.684 -9.8,-0.791 -13.309,4.23 -3.509,5.02 -3.24,11.267 0.601,13.952 C -9.468,6.914 -3.509,5.021 0,0" /></g><g
           transform="translate(117.1729,179.207)"
           id="g172"><path
             id="path174"
             style="fill:#1a9948;fill-opacity:1;fill-rule:nonzero;stroke:none"
             d="m 0,0 c 1.341,-2.327 1.036,-5.015 -0.68,-6.003 -1.716,-0.989 -4.193,0.096 -5.534,2.423 -1.341,2.327 -1.037,5.015 0.679,6.003 C -3.819,3.412 -1.341,2.327 0,0" /></g><g
           transform="translate(110.9028,176.209)"
           id="g176"><path
             id="path178"
             style="fill:#14170f;fill-opacity:1;fill-rule:nonzero;stroke:none"
             d="M 0,0 C -0.874,1.516 -0.632,3.292 0.54,3.968 1.711,4.643 3.37,3.961 4.244,2.445 5.117,0.929 4.875,-0.848 3.704,-1.522 2.532,-2.198 0.874,-1.516 0,0" /></g><g
           transform="translate(112.8301,179.7324)"
           id="g180"><path
             id="path182"
             style="fill:#ffffff;fill-opacity:1;fill-rule:nonzero;stroke:none"
             d="m 0,0 c -0.354,-0.69 -1.201,-0.964 -1.892,-0.61 -0.691,0.354 -0.963,1.201 -0.609,1.892 0.353,0.691 1.2,0.964 1.891,0.61 C 0.081,1.538 0.354,0.691 0,0" /></g><g
           transform="translate(107.8184,185.8228)"
           id="g184"><path
             id="path186"
             style="fill:#4a85a4;fill-opacity:1;fill-rule:nonzero;stroke:none"
             d="M 0,0 C 1.486,2.862 3.918,5.714 7.51,5.129 7.954,5.057 8.146,5.737 7.697,5.81 3.79,6.447 1.046,3.547 -0.61,0.357 -0.819,-0.046 -0.209,-0.404 0,0" /></g><g
           transform="translate(123.8105,167.8125)"
           id="g188"><path
             id="path190"
             style="fill:#597d9f;fill-opacity:1;fill-rule:nonzero;stroke:none"
             d="M 0,0 C 0.845,2.497 2.455,4.572 4.663,6.011 5.042,6.259 4.688,6.871 4.307,6.621 1.94,5.078 0.224,2.863 -0.682,0.187 -0.827,-0.244 -0.146,-0.429 0,0" /></g><g
           transform="translate(77.8701,139.8916)"
           id="g192"><path
             id="path194"
             style="fill:#0973b9;fill-opacity:1;fill-rule:nonzero;stroke:none"
             d="m 0,0 c -2.854,-2.225 -6.983,-6.845 -10.772,-7.197 -2.646,-0.247 -8.908,0.943 -9.374,4.181 -0.25,1.746 -2.901,1.003 -2.652,-0.731 0.62,-4.316 6.76,-5.821 10.337,-6.131 5.849,-0.509 10.107,4.582 14.406,7.933 C 3.34,-0.858 1.381,1.076 0,0" /></g><g
           transform="translate(125.1162,159.4663)"
           id="g196"><path
             id="path198"
             style="fill:#0973b9;fill-opacity:1;fill-rule:nonzero;stroke:none"
             d="m 0,0 c 4.021,1.326 8.805,2.205 12.063,4.978 5.108,4.345 4.564,10.548 3.706,16.481 -0.252,1.746 -2.904,1.003 -2.653,-0.731 C 14.137,13.67 13.616,7.677 6.007,4.882 3.796,4.07 1.508,3.391 -0.731,2.653 -2.405,2.101 -1.688,-0.557 0,0" /></g><g
           transform="translate(140.5977,181.3062)"
           id="g200"><path
             id="path202"
             style="fill:#f27657;fill-opacity:1;fill-rule:nonzero;stroke:none"
             d="M 0,0 C 0.897,-0.131 2.734,-2.873 2.823,-3.775 2.892,-4.474 4.33,-6.041 4.009,-2.563 3.977,-2.218 2.493,0.212 2.153,0.279 1.361,0.437 -0.427,1.633 0.942,2.128 1.702,2.403 1.526,3.635 2.126,4.176 3.609,5.515 3.122,5.683 5.848,6.371 8.568,7.058 8.172,7.388 7.985,7.789 6.968,9.968 7.117,8.834 6.854,9.442 5.888,11.684 6.456,8.834 4.624,7.219 3.463,6.196 2.992,5.417 1.315,5.186 0.98,5.14 -1.258,6.586 -1.581,6.686 -3.305,7.216 -3.854,6.884 -3.428,8.392 -3.169,9.304 -3.661,12.847 -4.053,12.809 -4.834,12.732 -5.398,12.197 -5.898,11.652 -6.549,10.943 -7.156,10.156 -7.42,9.231 -7.685,8.306 -6.699,6.849 -5.753,6.678 -3.335,6.241 -3.351,6.479 -2.738,5.629 -2.531,5.342 -2.947,3.651 -3.036,3.309 -3.303,2.274 -4.431,2.35 -5.463,2.375 c -2.079,0.053 -4.091,-1.002 -5.103,-2.834 -0.149,-0.27 -1.666,-0.666 -1.756,-0.372 -0.481,1.587 2.766,-0.408 3.163,0.182 0.688,1.024 3.543,1.567 6.879,2.336 L 0,0 Z" /></g><g
           transform="translate(58.1484,137.7856)"
           id="g204"><path
             id="path206"
             style="fill:#f27657;fill-opacity:1;fill-rule:nonzero;stroke:none"
             d="M 0,0 C 0.639,0.548 3.665,0.163 4.346,-0.325 4.874,-0.702 6.84,-0.65 4.227,1.244 3.968,1.432 1.375,1.874 1.12,1.677 0.527,1.219 -1.395,0.696 -0.903,1.957 c 0.272,0.698 -0.691,1.326 -0.701,2.075 -0.025,1.853 -0.439,1.614 0.746,3.941 1.183,2.321 0.711,2.246 0.318,2.359 -2.134,0.616 -1.256,0.029 -1.837,0.216 -2.149,0.689 0.178,-0.649 0.183,-2.914 C -2.192,6.198 -1.938,5.394 -2.8,4.08 -2.973,3.817 -5.344,3.133 -5.61,2.967 -7.03,2.084 -7.135,1.497 -7.922,2.714 c -0.476,0.737 -3.239,2.551 -3.451,2.253 -0.423,-0.592 -0.396,-1.313 -0.322,-1.995 0.096,-0.887 0.272,-1.791 0.753,-2.54 0.482,-0.748 2.095,-0.947 2.792,-0.389 1.779,1.426 1.603,1.56 2.568,1.471 0.326,-0.031 1.247,-1.351 1.431,-1.622 0.556,-0.817 -0.185,-1.561 -0.833,-2.267 -1.305,-1.422 -1.799,-3.473 -1.144,-5.297 0.096,-0.268 -0.554,-1.572 -0.813,-1.455 -1.396,0.63 1.972,1.687 1.804,2.323 -0.292,1.106 1.073,3.434 2.574,6.237 L 0,0 Z" /></g><g
           transform="translate(85.415,192.8638)"
           id="g208"><path
             id="path210"
             style="fill:#0973b9;fill-opacity:1;fill-rule:nonzero;stroke:none"
             d="m 0,0 c 0.234,1.023 0.564,2.019 0.7,3.063 0.241,1.85 0.057,3.75 -0.065,5.602 l -2.751,0 c 0.281,-2.369 0.561,-4.737 0.841,-7.105 0.206,-1.737 2.96,-1.758 2.752,0 -0.281,2.368 -0.561,4.736 -0.842,7.105 -0.203,1.714 -2.87,1.799 -2.751,0 C -2.003,6.963 -1.779,5.14 -2.004,3.435 -2.125,2.52 -2.448,1.629 -2.653,0.731 -3.047,-0.992 -0.395,-1.728 0,0" /></g><g
           transform="translate(76.6216,190.2559)"
           id="g212"><path
             id="path214"
             style="fill:#0973b9;fill-opacity:1;fill-rule:nonzero;stroke:none"
             d="m 0,0 -9.107,0.39 c 0.122,-0.901 0.244,-1.802 0.366,-2.703 1.958,0.387 4.755,0.986 6.187,-0.879 0.628,0.628 1.255,1.255 1.883,1.882 -1.401,0.628 -2.801,1.256 -4.201,1.884 -1.602,0.718 -3.003,-1.652 -1.388,-2.376 1.4,-0.628 2.8,-1.256 4.2,-1.884 1.081,-0.484 2.824,0.656 1.882,1.883 C -2.517,1.241 -6.031,1.021 -9.473,0.34 -11.05,0.029 -10.598,-2.298 -9.107,-2.361 -6.071,-2.491 -3.036,-2.622 0,-2.751 1.77,-2.827 1.767,-0.076 0,0" /></g><g
           transform="translate(85.501,206.0996)"
           id="g216"><path
             id="path218"
             style="fill:#0973b9;fill-opacity:1;fill-rule:nonzero;stroke:none"
             d="m 0,0 c -1.099,-0.767 -2.252,-1.207 -3.581,-1.388 0.581,-0.442 1.162,-0.884 1.742,-1.326 0.055,0.648 0.836,0.657 1.125,0.194 0.934,-1.5 3.315,-0.12 2.375,1.389 -0.78,1.251 -2.27,1.98 -3.739,1.604 -1.486,-0.381 -2.388,-1.717 -2.512,-3.187 -0.084,-0.994 0.942,-1.436 1.741,-1.327 1.523,0.208 2.977,0.786 4.238,1.666 0.608,0.424 0.89,1.204 0.493,1.881 C 1.53,0.109 0.612,0.427 0,0" /></g><g
           transform="translate(66.7354,189.4976)"
           id="g220"><path
             id="path222"
             style="fill:#0973b9;fill-opacity:1;fill-rule:nonzero;stroke:none"
             d="m 0,0 c 2.466,-0.415 3.565,2.883 1.511,4.199 -1.954,1.252 -4.975,-0.382 -5.88,-2.252 -1.082,-2.236 0.392,-5.353 3.156,-4.841 2.339,0.433 2.83,3.466 0.937,4.764 -1.464,1.003 -2.842,-1.38 -1.389,-2.376 -0.058,0.04 -0.198,0.364 -0.125,0.256 0.068,-0.102 -0.077,0.099 -0.073,0.09 -0.122,0.291 -0.243,0.605 0.048,1.039 0.31,0.462 0.912,0.816 1.451,0.936 0.127,0.028 0.373,0.037 0.385,0.083 -0.097,0.111 -0.149,0.232 -0.158,0.365 0.329,0.291 0.37,0.372 0.123,0.243 L 0.681,2.693 C 0.698,2.68 0.715,2.667 0.731,2.653 0,2.776 -0.75,2.46 -0.96,1.692 -1.142,1.033 -0.737,0.124 0,0" /></g><g
           transform="translate(68.9199,188.4951)"
           id="g224"><path
             id="path226"
             style="fill:#f27657;fill-opacity:1;fill-rule:nonzero;stroke:none"
             d="M 0,0 1.332,1.169" /></g><g
           transform="translate(96.0161,147.5947)"
           id="g228"><path
             id="path230"
             style="fill:#603813;fill-opacity:1;fill-rule:nonzero;stroke:none"
             d="m 0,0 c 0,0 14.209,-0.75 17.982,7.8 0.736,1.668 3.076,1.898 4.125,0.407 C 22.201,8.074 22.232,8 22.232,8 22.847,8.898 16.774,-7.383 4,-3.801 c -0.805,-0.052 -6.23,1.759 -6.23,1.759 0,0 -2.408,3.062 2.23,2.042" /></g><g
           transform="translate(112.7051,147.0205)"
           id="g232"><path
             id="path234"
             style="fill:#f17279;fill-opacity:1;fill-rule:nonzero;stroke:none"
             d="m 0,0 -2.046,-1.776 c 0,0 -1.709,-1.327 -3.872,-2.047 -1.868,-0.622 -3.05,2.089 -1.259,2.906 0.57,0.26 3.898,2.145 7.022,1.603" /></g><g
           transform="translate(100.0303,147.478)"
           id="g236"><path
             id="path238"
             style="fill:#f9f2c4;fill-opacity:1;fill-rule:nonzero;stroke:none"
             d="M 0,0 C 0,0 -1.262,-6.579 -5.105,-0.407 -4.066,0.569 0,0 0,0" /></g><g
           transform="translate(115.6025,156.4722)"
           id="g240"><path
             id="path242"
             style="fill:#f9f2c4;fill-opacity:1;fill-rule:nonzero;stroke:none"
             d="M 0,0 C 0,0 3.207,-3.935 -2.248,-3.164 -2.31,-2.085 0,0 0,0" /></g><g
           transform="translate(112.7109,152.4634)"
           id="g244"><path
             id="path246"
             style="fill:#f9f2c4;fill-opacity:1;fill-rule:nonzero;stroke:none"
             d="M 0,0 C 0,0 2.362,-4.881 -3.117,-2.733 -2.915,-1.597 0,0 0,0" /></g><g
           transform="translate(105.3159,148.6465)"
           id="g248"><path
             id="path250"
             style="fill:#f9f2c4;fill-opacity:1;fill-rule:nonzero;stroke:none"
             d="M 0,0 C 0,0 0.273,-4.427 -3.208,-1.101 -2.702,-0.304 0,0 0,0" /></g><g
           transform="translate(114.168,148.7056)"
           id="g252"><path
             id="path254"
             style="fill:#f9f2c4;fill-opacity:1;fill-rule:nonzero;stroke:none"
             d="M 0,0 C 0,0 -3.334,4.708 2.792,3.415 2.779,2.187 0,0 0,0" /></g><g
           transform="translate(106.4307,143.1738)"
           id="g256"><path
             id="path258"
             style="fill:#f9f2c4;fill-opacity:1;fill-rule:nonzero;stroke:none"
             d="M 0,0 C 0,0 -1.552,5.878 4.017,2.339 3.551,1.132 0,0 0,0" /></g><g
           transform="translate(99.1831,143.7607)"
           id="g260"><path
             id="path262"
             style="fill:#f9f2c4;fill-opacity:1;fill-rule:nonzero;stroke:none"
             d="M 0,0 C 0,0 2.229,6.145 4.982,-0.394 3.831,-1.174 0,0 0,0" /></g></g></g><g
       id="text264"
       style="font-variant:normal;font-weight:normal;font-stretch:normal;font-size:20.00006866px;font-family:'Museo 500';-inkscape-font-specification:Museo-500;writing-mode:lr-tb;fill:#231f20;fill-opacity:1;fill-rule:nonzero;stroke:none"
       transform="matrix(0.9513867,0.30799893,0.30799893,-0.9513867,114.7616,39.4955)"><path
         id="path269"
         style=""
         d="m 0.52000179,-1.740006 c 0,0 1.72000591,1.98000682 4.66001601,1.98000682 2.9400101,0 4.8400162,-2.12000732 4.8400162,-4.48001542 0,-2.7200093 -2.160007,-3.9400135 -4.0000133,-4.1400142 l 3.7200127,-4.4800152 0,-1.260004 -7.4400255,0 c -0.9000031,0 -1.2200042,0.380001 -1.2200042,1.280004 l 0,1.780006 1.8400063,0 0,-0.900003 c 0,-0.300001 0.1600006,-0.440002 0.4400015,-0.440002 l 2.7200094,0 c 0.7800027,0 1.2000041,-0.06 1.2000041,-0.06 l 0,0.04 c 0,0 -0.4000014,0.320001 -0.8200028,0.920004 l -2.9400101,3.7000122 0.4200014,1.0600037 1.0000035,0 c 1.6400056,0 3.0400104,0.9400032 3.0400104,2.5200086 0,1.5200052 -1.2800044,2.5800089 -2.8000096,2.5800089 -2.1800075,0 -3.5800123,-1.6000055 -3.5800123,-1.6000055 L 0.52000179,-1.740006 Z" /><path
         id="path271"
         style=""
         d="m 12.220043,-4.8400166 5.84002,0 0,-1.7200059 -5.84002,0 0,1.7200059 z" /><path
         id="path273"
         style=""
         d="M 21.500074,-1.2800044 C 21.500074,-0.3800013 21.880076,0 22.780079,0 L 29.0601,0 c 0.900003,0 1.280005,-0.3800013 1.280005,-1.2800044 l 0,-1.7800061 -1.840007,0 0,0.9000031 c 0,0.2800009 -0.16,0.4400015 -0.440001,0.4400015 l -4.120014,0 c -0.280001,0 -0.440002,-0.1600006 -0.440002,-0.4400015 l 0,-4.1000141 4.940017,0 0,-1.7200059 -4.940017,0 0,-4.4200156 4.020014,0 c 0.280001,0 0.440002,0.140001 0.440002,0.440002 l 0,0.900003 1.820006,0 0,-1.780006 c 0,-0.900003 -0.380002,-1.280004 -1.280005,-1.280004 l -8.300028,0 0,1.720005 1.300004,0 0,11.1200386 z" /><path
         id="path275"
         style=""
         d="M 31.700109,1.8000062 30.900106,3.200011 c 0,0 0.880003,1.0000034 2.380009,1.0000034 1.420004,0 2.640009,-0.8200028 3.260011,-2.3800082 l 4.000013,-9.8800339 c 0.140001,-0.3200011 0.320002,-0.4000013 0.640003,-0.4000013 l 0.260001,0 0,-1.660006 -1.160004,0 c -0.820003,0 -1.180004,0.220001 -1.480005,1.0200038 l -2.100008,5.7000195 c -0.2,0.5200018 -0.340001,1.2200042 -0.340001,1.2200042 l -0.04,0 c 0,0 -0.160001,-0.7000024 -0.360001,-1.2200042 L 33.660116,-9.1000312 C 33.340115,-9.900034 33.040114,-10.120035 32.220111,-10.120035 l -1.140004,0 0,1.660006 0.240001,0 c 0.320001,0 0.500002,0.08 0.640002,0.4000013 l 3.460012,8.02002756 -0.460002,1.10000374 c -0.380001,0.9000031 -1.000003,1.4600051 -1.780006,1.4600051 -0.860003,0 -1.480005,-0.7000025 -1.480005,-0.7200025 z" /><path
         id="path277"
         style=""
         d="m 42.240148,-5.0600174 c 0,3.0000103 2.180007,5.30001822 5.380018,5.30001822 2.400009,0 3.900014,-1.48000512 3.900014,-1.48000512 L 50.680177,-2.620009 c 0,0 -1.220004,1.1800041 -2.96001,1.1800041 -1.800006,0 -3.360012,-1.2200042 -3.480012,-3.3800116 l 7.380025,0 c 0,0 0.06,-0.5400019 0.06,-0.8000028 0,-2.620009 -1.520005,-4.7400167 -4.360015,-4.7400167 -2.88001,0 -5.080017,2.0800076 -5.080017,5.3000186 z m 2.080007,-1.180004 c 0.300001,-1.6800058 1.500005,-2.5800089 2.98001,-2.5800089 1.260005,0 2.320008,0.9000031 2.380008,2.5800089 l -5.360018,0 z" /><path
         id="path279"
         style=""
         d="m 53.100183,-1.5400053 c 0,0 1.340004,1.78000612 4.040013,1.78000612 2.120008,0 3.720013,-1.16000398 3.720013,-2.96001012 0,-3.3800116 -5.520019,-2.9600102 -5.520019,-4.8800168 0,-0.8000027 0.740003,-1.2000041 1.880007,-1.2000041 0.620002,0 1.520005,0.2600009 1.520005,0.8600029 l 0,0.5000018 1.740006,0 0,-0.9600033 c 0,-1.5400053 -2.100007,-1.9600072 -3.320012,-1.9600072 -2.060007,0 -3.760012,0.9000035 -3.760012,2.8400102 0,3.2600112 5.520018,3.0600105 5.520018,4.8800167 0,0.8800031 -0.820002,1.3000045 -1.760006,1.3000045 -1.860006,0 -3.06001,-1.5000052 -3.06001,-1.5000052 l -1.000003,1.3000045 z" /></g></g></svg>