<svg width="29" height="33" viewBox="0 0 29 33" fill="none" xmlns="http://www.w3.org/2000/svg">
<path d="M1.00049 20.3064C1.00049 18.8042 2.21825 17.5865 3.72043 17.5865H26.2806C27.7827 17.5865 29.0005 18.8042 29.0005 20.3064V28.4662C29.0005 29.9684 27.7827 31.1861 26.2806 31.1861H3.72043C2.21825 31.1861 1.00049 29.9684 1.00049 28.4662V20.3064Z" fill="#3C53DC"/>
<path d="M2.40044 20.3064C2.40044 19.5554 3.00932 18.9465 3.76041 18.9465H26.2405C26.9916 18.9465 27.6004 19.5553 27.6004 20.3064V28.4663C27.6004 29.2173 26.9916 29.8262 26.2405 29.8262H3.76041C3.00932 29.8262 2.40044 29.2173 2.40044 28.4663V20.3064Z" fill="white"/>
<path d="M6.28723 27.5024H5.6406V21.037H6.28723V27.5024Z" fill="#CBD2F6"/>
<path d="M0.602417 1.49895C0.602417 1.11235 0.915818 0.79895 1.30242 0.79895H27.9024C28.289 0.79895 28.6024 1.11235 28.6024 1.49895V14.099C28.6024 14.4855 28.289 14.799 27.9024 14.799H1.30242C0.915817 14.799 0.602417 14.4855 0.602417 14.099V1.49895Z" fill="#97C3E0"/>
<path d="M2.00242 2.19895H4.80242V4.99895H2.00242V2.19895Z" fill="white"/>
<path d="M2.00242 6.39895H6.20242V9.19895H2.00242V6.39895Z" fill="white"/>
<path d="M6.20242 2.19895H9.00242V4.99895H6.20242V2.19895Z" fill="white"/>
<path d="M2.00242 10.599H4.80242V13.3989H2.00242V10.599Z" fill="white"/>
<path d="M6.20242 10.599H23.0024V13.3989H6.20242V10.599Z" fill="white"/>
<path d="M24.4024 10.599H27.2024V13.3989H24.4024V10.599Z" fill="white"/>
<path d="M10.4024 2.19895H13.2024V4.99895H10.4024V2.19895Z" fill="white"/>
<path d="M14.6024 2.19895H17.4024V4.99895H14.6024V2.19895Z" fill="white"/>
<path d="M18.8024 2.19895H21.6024V4.99895H18.8024V2.19895Z" fill="white"/>
<path d="M7.60242 6.39895H10.4024V9.19895H7.60242V6.39895Z" fill="white"/>
<path d="M11.8024 6.39895H14.6024V9.19895H11.8024V6.39895Z" fill="white"/>
<path d="M16.0024 6.39895H18.8024V9.19895H16.0024V6.39895Z" fill="white"/>
<path d="M20.2024 6.39895H23.0024V9.19895H20.2024V6.39895Z" fill="white"/>
<path d="M24.4024 6.39895H27.2024V9.19895H24.4024V6.39895Z" fill="white"/>
<path d="M23.0024 2.19895H27.2024V4.99895H23.0024V2.19895Z" fill="white"/>
</svg>
