<svg width="14" height="12" viewBox="0 0 14 12" fill="none" xmlns="http://www.w3.org/2000/svg">
  <path fill-rule="evenodd" clip-rule="evenodd" d="M2.42724 6.74285L6.23956 10.7293C6.51815 11.0206 6.51815 11.4918 6.2409 11.7817C5.96098 12.0744 5.51244 12.0716 5.23385 11.7803L0.20995 6.52618H0.209284L0.208617 6.52548C0.0686563 6.37913 2.4161e-07 6.18887 2.4161e-07 5.9993C0.000666853 5.80904 0.069982 5.61878 0.208617 5.47382L0.20995 5.47243L5.23385 0.218312C5.51244 -0.0723063 5.96298 -0.0730021 6.2409 0.217615C6.52015 0.509626 6.51815 0.978658 6.23956 1.26997L2.42724 5.25645H13.2875C13.6794 5.25645 14 5.58889 14 5.99939C14 6.41336 13.6808 6.74302 13.2875 6.74302L2.42724 6.74285Z" fill="#494B6D"/>
</svg>
