<svg width="14" height="12" viewBox="0 0 14 12" fill="none" xmlns="http://www.w3.org/2000/svg">
<path fill-rule="evenodd" clip-rule="evenodd" d="M11.5728 6.74285L7.76044 10.7293C7.48185 11.0206 7.48185 11.4918 7.7591 11.7817C8.03902 12.0744 8.48756 12.0716 8.76615 11.7803L13.79 6.52618H13.7907L13.7914 6.52548C13.9313 6.37913 14 6.18887 14 5.9993C13.9993 5.80904 13.93 5.61878 13.7914 5.47382L13.79 5.47243L8.76615 0.218312C8.48756 -0.0723063 8.03702 -0.0730021 7.7591 0.217615C7.47985 0.509626 7.48185 0.978658 7.76044 1.26997L11.5728 5.25645H0.712474C0.320578 5.25645 0 5.58889 0 5.99939C0 6.41336 0.319247 6.74302 0.712474 6.74302L11.5728 6.74285Z" fill="#494B6D"/>
</svg>