<?xml version="1.0" encoding="UTF-8" standalone="no"?>
<svg
   xmlns:dc="http://purl.org/dc/elements/1.1/"
   xmlns:cc="http://creativecommons.org/ns#"
   xmlns:rdf="http://www.w3.org/1999/02/22-rdf-syntax-ns#"
   xmlns:svg="http://www.w3.org/2000/svg"
   xmlns="http://www.w3.org/2000/svg"
   viewBox="0 0 281.25 312.20499"
   height="312.20499"
   width="281.25"
   xml:space="preserve"
   version="1.1"
   id="svg2"><metadata
     id="metadata8"><rdf:RDF><cc:Work
         rdf:about=""><dc:format>image/svg+xml</dc:format><dc:type
           rdf:resource="http://purl.org/dc/dcmitype/StillImage" /></cc:Work></rdf:RDF></metadata><defs
     id="defs6"><clipPath
       id="clipPath20"
       clipPathUnits="userSpaceOnUse"><path
         id="path22"
         d="m 0,0 225,0 0,249.764 -225,0 L 0,0 Z" /></clipPath><clipPath
       id="clipPath40"
       clipPathUnits="userSpaceOnUse"><path
         id="path42"
         d="m 0,0 225,0 0,249.764 -225,0 L 0,0 Z" /></clipPath><clipPath
       id="clipPath64"
       clipPathUnits="userSpaceOnUse"><path
         id="path66"
         d="m 0,249.764 225,0 L 225,0 0,0 0,249.764 Z" /></clipPath></defs><g
     transform="matrix(1.25,0,0,-1.25,0,312.205)"
     id="g10"><g
       transform="translate(1.449,45.846)"
       id="g12"><path
         id="path14"
         style="fill:#f5f5f5;fill-opacity:1;fill-rule:nonzero;stroke:none"
         d="M 0,0 166.043,-45.469 220.074,150.89 56.008,198.332 0,0 Z" /></g><g
       id="g16"><g
         clip-path="url(#clipPath20)"
         id="g18"><g
           transform="translate(57.457,244.1777)"
           id="g24"><path
             id="path26"
             style="fill:none;stroke:#100f0d;stroke-width:0.61000001;stroke-linecap:butt;stroke-linejoin:miter;stroke-miterlimit:10;stroke-dasharray:none;stroke-opacity:1"
             d="M 0,0 164.066,-47.441 110.035,-243.801 -56.008,-198.332 0,0 Z" /></g></g></g><g
       transform="translate(64.8442,228.7324)"
       id="g28"><path
         id="path30"
         style="fill:#f5f5f5;fill-opacity:1;fill-rule:nonzero;stroke:none"
         d="M 0,0 -40.489,-142.278 99.195,-183.539 141.894,-40.949 0,0 Z" /></g><g
       transform="translate(64.8442,228.7324)"
       id="g32"><path
         id="path34"
         style="fill:none;stroke:#000000;stroke-width:0.639;stroke-linecap:butt;stroke-linejoin:miter;stroke-miterlimit:4;stroke-dasharray:none;stroke-opacity:1"
         d="M 0,0 -40.489,-142.278 99.195,-183.539 141.894,-40.949 0,0 Z" /></g><g
       id="g36"><g
         clip-path="url(#clipPath40)"
         id="g38"><g
           transform="translate(0.3789,200.7554)"
           id="g44"><path
             id="path46"
             style="fill:none;stroke:#100f0d;stroke-width:0.61000001;stroke-linecap:butt;stroke-linejoin:miter;stroke-miterlimit:10;stroke-dasharray:none;stroke-opacity:1"
             d="M 0,0 163.723,48.629 224.234,-145.82 59.918,-197.183 0,0 Z" /></g></g></g><g
       transform="translate(0.3789,200.7558)"
       id="g48"><path
         id="path50"
         style="fill:#f5f5f5;fill-opacity:1;fill-rule:nonzero;stroke:none"
         d="M 0,0 59.918,-197.184 224.234,-145.821 163.723,48.629 0,0 Z" /></g><g
       transform="translate(15.8398,190.2441)"
       id="g52"><path
         id="path54"
         style="fill:#e8e7e5;fill-opacity:1;fill-rule:nonzero;stroke:none"
         d="M 0,0 139.629,42.929 183.102,-97.27 44.558,-141.066 0,0 Z" /></g><g
       transform="translate(15.8398,190.2441)"
       id="g56"><path
         id="path58"
         style="fill:none;stroke:#100f0d;stroke-width:0.49700001;stroke-linecap:butt;stroke-linejoin:miter;stroke-miterlimit:10;stroke-dasharray:none;stroke-opacity:1"
         d="M 0,0 139.629,42.929 183.102,-97.27 44.558,-141.066 0,0 Z" /></g><g
       id="g60"><g
         clip-path="url(#clipPath64)"
         id="g62"><g
           transform="translate(77.2739,191.6997)"
           id="g68"><path
             id="path70"
             style="fill:#0973b9;fill-opacity:1;fill-rule:nonzero;stroke:none"
             d="m 0,0 c -9.293,3.49 -19.28,-1.724 -28.954,-1.9 8.753,-4.752 17.881,-9.195 26.259,-14.256 0.371,-0.224 0.841,-0.417 1.228,-0.221 0.359,0.181 0.48,0.625 0.56,1.02 0.989,4.887 1.398,9.892 1.216,14.875" /></g><g
           transform="translate(99.5601,198.8779)"
           id="g72"><path
             id="path74"
             style="fill:#231f20;fill-opacity:1;fill-rule:nonzero;stroke:none"
             d="m 0,0 -0.573,-0.299 c -0.405,-0.211 -0.047,-0.824 0.359,-0.613 0.191,0.1 0.381,0.2 0.572,0.299 C 0.764,-0.401 0.405,0.211 0,0" /></g><g
           transform="translate(97.7847,197.7622)"
           id="g76"><path
             id="path78"
             style="fill:#231f20;fill-opacity:1;fill-rule:nonzero;stroke:none"
             d="m 0,0 c 0.512,0.271 0.783,0.725 0.846,1.291 0.051,0.454 -0.659,0.45 -0.71,0 C 0.101,0.975 -0.087,0.756 -0.358,0.613 -0.763,0.399 -0.404,-0.213 0,0" /></g><g
           transform="translate(96.9316,199.3052)"
           id="g80"><path
             id="path82"
             style="fill:#231f20;fill-opacity:1;fill-rule:nonzero;stroke:none"
             d="m 0,0 c -0.24,-0.096 -0.48,-0.191 -0.721,-0.287 0.116,-0.197 0.23,-0.395 0.346,-0.593 0.447,0.473 0.894,0.946 1.342,1.419 C 1.28,0.871 0.779,1.374 0.464,1.041 0.017,0.568 -0.43,0.095 -0.877,-0.378 c -0.224,-0.236 -0.004,-0.732 0.345,-0.593 0.24,0.096 0.48,0.191 0.72,0.286 C 0.608,-0.518 0.425,0.169 0,0" /></g><g
           transform="translate(114.6348,118.0156)"
           id="g84"><path
             id="path86"
             style="fill:#0973b9;fill-opacity:1;fill-rule:nonzero;stroke:none"
             d="m 0,0 c -2.413,0.216 -3.348,-1.17 -4.571,-3.002 -2.427,-3.633 -5.873,-3.422 -9.784,-4.06 -1.789,-0.292 -3.337,-1.241 -5.061,-1.744 -2.791,-0.814 -5.534,-0.796 -8.377,-0.368 -5.172,0.779 -10.204,2.713 -14.748,5.271 -6.503,3.659 -16.389,10.431 -16.452,18.643 -0.024,3.074 0.059,7.218 1.674,9.934 1.136,1.91 3.508,3.306 5.334,4.484 0.957,0.616 2.719,1.921 3.902,2.119 1.046,0.895 1.469,0.655 1.269,-0.72 0.52,-0.972 0.254,-1.572 -0.795,-1.799 -1.563,-0.942 -0.137,-3.399 1.434,-2.452 2.439,1.47 5.737,4.979 2.604,7.653 -3.523,3.005 -10.265,-2.47 -12.784,-4.442 -5.683,-4.448 -7.906,-15.784 -3.534,-21.869 7.264,-10.11 19.204,-17.669 31.523,-19.63 6.316,-1.005 11.374,1.432 17.444,2.346 2.191,0.33 4.669,1.064 6.538,2.279 1.08,0.702 3.668,4.581 4.384,4.517 1.82,-0.163 1.809,2.678 0,2.84" /></g><g
           transform="translate(135.7393,144.3843)"
           id="g88"><path
             id="path90"
             style="fill:#ec1e27;fill-opacity:1;fill-rule:nonzero;stroke:none"
             d="m 0,0 c -3.26,1.099 -4.481,0.043 -7.725,-1.104 -12.573,-4.448 -24.862,-9.694 -36.771,-15.696 -0.689,-0.347 -1.206,-0.971 -1.424,-1.71 -1.645,-5.557 -1.518,-5.415 -0.259,-5.644 0.921,-0.166 8.119,0.529 9.011,0.813 8.758,2.793 15.427,4.616 24.1,7.664 6.462,2.27 9.66,8.102 14.152,13.273 C 0.099,-1.551 0.726,0.038 0,0" /></g><g
           transform="translate(135.833,144.7266)"
           id="g92"><path
             id="path94"
             style="fill:#000000;fill-opacity:1;fill-rule:nonzero;stroke:none"
             d="m 0,0 c -5.039,1.293 -10.437,-1.967 -15.066,-3.732 -5.962,-2.273 -11.856,-4.727 -17.671,-7.355 -3.986,-1.803 -11.426,-3.66 -13.62,-7.671 -0.608,-1.112 -2.009,-4.647 -0.796,-5.852 1.19,-1.183 5.652,0.006 7.022,0.16 4.865,0.547 9.557,2.472 14.22,3.907 5.478,1.686 11.859,2.895 16.678,6.126 4.303,2.885 7.182,7.527 10.474,11.419 0.106,0.125 0.137,0.284 0.056,0.431 -1.305,2.363 -0.11,1.359 -1.14,2.476 -0.31,0.336 -0.811,-0.167 -0.502,-0.502 2.158,-2.34 -2.957,-6.976 -4.337,-8.583 -3.433,-3.994 -7.219,-6.075 -12.18,-7.739 -7.981,-2.676 -16.489,-6.209 -24.894,-6.987 -2.742,-0.254 -5.91,-1.177 -4.578,2.667 1.88,5.43 9.999,7.76 14.825,9.924 5.187,2.327 10.437,4.511 15.742,6.552 4.484,1.725 10.691,5.329 15.579,4.074 C 0.255,-0.798 0.443,-0.114 0,0" /></g><g
           transform="translate(134.4648,76.2793)"
           id="g96"><path
             id="path98"
             style="fill:#cccbcb;fill-opacity:1;fill-rule:nonzero;stroke:none"
             d="m 0,0 c 0.651,-0.714 1.73,-0.674 2.932,-0.434 1.32,0.264 2.645,0.466 3.959,0.938 2.023,0.725 3.848,1.801 5.59,3.029 0.692,0.487 0.55,-0.736 0.948,-0.164 0.214,0.307 -0.981,-1.389 0,0 0.004,0.005 1.673,0.308 1.67,0.302 C 14.063,1.697 11.671,1.63 9.461,0.39 7.61,-0.649 5.672,-1.358 3.677,-1.802 2.636,-2.032 1.624,-2.092 0.695,-1.931 -0.184,-1.778 -0.415,-1.384 -0.142,-0.57 -0.077,-0.38 -0.046,-0.19 0,0" /></g><g
           transform="translate(140.6953,97.8291)"
           id="g100"><path
             id="path102"
             style="fill:#ec1e27;fill-opacity:1;fill-rule:nonzero;stroke:none"
             d="M 0,0 C -0.381,-0.073 -0.493,0.518 -0.113,0.59 0.268,0.663 0.38,0.072 0,0 M 10.684,-10.679 C 9.602,-7.416 8.751,-4.077 7.714,-0.799 6.859,1.899 6.738,4.796 5.31,7.352 4.681,8.478 3.94,8.94 2.731,8.864 0.26,8.708 -2.067,7.996 -4.34,7.062 -4.287,5.931 -4.235,4.8 -4.183,3.669 c 1.062,-1.016 2.014,-0.015 2.995,0.191 0.654,0.137 1.244,0.619 2.103,0.437 -2.6,-2.479 -10.909,-6.451 -13.208,-6.314 1.785,1.713 4.181,2.393 5.891,4.047 0.038,1.353 0.035,2.7 -0.47,3.989 -1.905,-0.769 -3.629,-1.88 -5.357,-2.961 -1.688,-1.056 -3.289,-2.262 -4.568,-3.829 -0.682,-0.834 -0.96,-1.643 -0.344,-2.718 0.803,-1.4 1.662,-2.687 2.707,-3.956 3.05,-3.702 5.779,-7.673 8.552,-11.595 0.71,-1.006 1.516,-1.361 2.65,-1.162 1.236,0.218 2.467,0.458 3.701,0.688 l 6.86,3.366 c 0.613,0.921 1.635,1.379 2.417,2.114 1.013,0.952 1.419,1.906 0.938,3.355" /></g><g
           transform="translate(137.79,101.5967)"
           id="g104"><path
             id="path106"
             style="fill:#252525;fill-opacity:1;fill-rule:nonzero;stroke:none"
             d="M 0,0 C 1.868,0.611 3.733,1.234 5.607,1.826 6.099,1.98 6.617,2.057 7.128,2.134 7.435,2.18 7.781,2.184 7.964,1.872 8.199,1.471 7.931,1.146 7.661,0.924 6.863,0.266 6.068,-0.41 5.201,-0.969 0.732,-3.845 -4.014,-6.152 -9.096,-7.73 c -0.751,-0.234 -1.892,-0.804 -2.296,-0.019 -0.486,0.95 0.743,1.428 1.4,1.919 1.872,1.398 3.858,2.623 5.985,3.603 0.465,0.215 0.918,0.506 1.474,0.357 0.069,-0.461 -0.285,-1.315 0.436,-1.241 0.881,0.09 1.826,0.548 2.105,1.566 C 0.14,-1.067 0.011,-0.518 0,0" /></g><g
           transform="translate(150.1924,128.9214)"
           id="g108"><path
             id="path110"
             style="fill:#69bc45;fill-opacity:1;fill-rule:nonzero;stroke:none"
             d="m 0,0 c 0.109,-0.545 -0.287,-0.863 -0.573,-1.213 -2.636,-3.218 -4.393,-6.849 -5.394,-10.893 -1.089,-4.394 -4.67,-6.967 -9.309,-6.853 -0.485,0.011 -0.927,-0.049 -1.317,-0.352 -0.081,0.124 -0.162,0.248 -0.242,0.372 -0.254,0.508 -0.418,1.094 -0.777,1.511 -1.304,1.512 -1.271,3.269 -0.754,4.958 1.195,3.909 3.005,7.458 6.663,9.705 2.856,1.755 6.01,2.591 9.309,2.785 C -1.626,0.064 -0.782,0.562 0,0" /></g><g
           transform="translate(121.6455,115.7285)"
           id="g112"><path
             id="path114"
             style="fill:#69bc45;fill-opacity:1;fill-rule:nonzero;stroke:none"
             d="m 0,0 c 7.405,1.372 14.525,-8.243 11.594,-14.822 -1.213,-2.723 2.811,-5.103 4.035,-2.359 2.489,5.588 1.642,10.827 -2.334,15.504 C 9.631,2.635 4.497,5.568 -1.242,4.506 -4.195,3.959 -2.944,-0.545 0,0" /></g><g
           transform="translate(73.6162,186.1826)"
           id="g116"><path
             id="path118"
             style="fill:#0973b9;fill-opacity:1;fill-rule:nonzero;stroke:none"
             d="m 0,0 c 0,0 -7.452,-67.792 39.645,-70.288 11.19,-0.593 30.705,14.324 12.73,51.728 C 43.752,-0.615 31.999,8.719 20.321,11.198 2.483,14.986 0,0 0,0" /></g><g
           transform="translate(99.3657,169.3516)"
           id="g120"><path
             id="path122"
             style="fill:#eff0ea;fill-opacity:1;fill-rule:nonzero;stroke:none"
             d="m 0,0 c 3.016,-6.146 1.372,-13.134 -3.672,-15.608 -5.043,-2.475 -11.576,0.503 -14.591,6.649 -3.015,6.146 -1.371,13.134 3.672,15.608 C -9.547,9.124 -3.015,6.146 0,0" /></g><g
           transform="translate(114.6758,178.5234)"
           id="g124"><path
             id="path126"
             style="fill:#eff0ea;fill-opacity:1;fill-rule:nonzero;stroke:none"
             d="m 0,0 c 3.21,-5.314 2.516,-11.612 -1.55,-14.068 -4.066,-2.456 -9.964,-0.139 -13.173,5.175 -3.21,5.314 -2.516,11.612 1.55,14.068 C -9.107,7.631 -3.209,5.314 0,0" /></g><g
           transform="translate(94.9658,167.4526)"
           id="g128"><path
             id="path130"
             style="fill:#1a9948;fill-opacity:1;fill-rule:nonzero;stroke:none"
             d="M 0,0 C 1.431,-2.916 0.737,-6.188 -1.548,-7.309 -3.833,-8.43 -6.845,-6.975 -8.275,-4.06 -9.706,-1.144 -9.012,2.128 -6.727,3.249 -4.442,4.37 -1.43,2.916 0,0" /></g><g
           transform="translate(111.7725,177.042)"
           id="g132"><path
             id="path134"
             style="fill:#1a9948;fill-opacity:1;fill-rule:nonzero;stroke:none"
             d="m 0,0 c 1.422,-2.897 0.881,-6.077 -1.207,-7.102 -2.088,-1.024 -4.933,0.495 -6.355,3.393 -1.421,2.897 -0.881,6.077 1.207,7.101 C -4.267,4.417 -1.421,2.898 0,0" /></g><g
           transform="translate(88.9619,164.5073)"
           id="g136"><path
             id="path138"
             style="fill:#14170f;fill-opacity:1;fill-rule:nonzero;stroke:none"
             d="M 0,0 C -0.774,1.578 -0.422,3.338 0.787,3.932 1.996,4.524 3.604,3.726 4.377,2.147 5.152,0.569 4.8,-1.191 3.591,-1.784 2.382,-2.377 0.774,-1.579 0,0" /></g><g
           transform="translate(106.0117,174.1943)"
           id="g140"><path
             id="path142"
             style="fill:#14170f;fill-opacity:1;fill-rule:nonzero;stroke:none"
             d="M 0,0 C -0.781,1.592 -0.417,3.372 0.814,3.976 2.044,4.58 3.675,3.778 4.456,2.186 5.237,0.594 4.873,-1.186 3.642,-1.79 2.412,-2.393 0.781,-1.592 0,0" /></g><g
           transform="translate(86.8037,166.1235)"
           id="g144"><path
             id="path146"
             style="fill:#ffffff;fill-opacity:1;fill-rule:nonzero;stroke:none"
             d="M 0,0 C -0.148,1.007 0.372,1.917 1.161,2.033 1.95,2.149 2.709,1.427 2.857,0.42 3.005,-0.586 2.486,-1.496 1.697,-1.612 0.908,-1.729 0.148,-1.006 0,0" /></g><g
           transform="translate(106.459,176.9209)"
           id="g148"><path
             id="path150"
             style="fill:#ffffff;fill-opacity:1;fill-rule:nonzero;stroke:none"
             d="m 0,0 c 0.03,-0.879 -0.421,-1.608 -1.008,-1.628 -0.586,-0.02 -1.086,0.676 -1.117,1.555 -0.03,0.879 0.421,1.608 1.008,1.628 C -0.53,1.575 -0.03,0.879 0,0" /></g><g
           transform="translate(105.9126,173.7417)"
           id="g152"><path
             id="path154"
             style="fill:#ffffff;fill-opacity:1;fill-rule:nonzero;stroke:none"
             d="m 0,0 c -0.153,-0.255 -0.452,-0.356 -0.667,-0.227 -0.216,0.129 -0.267,0.441 -0.115,0.695 0.153,0.255 0.452,0.357 0.668,0.227 C 0.102,0.566 0.153,0.254 0,0" /></g><g
           transform="translate(79.0391,176.9126)"
           id="g156"><path
             id="path158"
             style="fill:#0973b9;fill-opacity:1;fill-rule:nonzero;stroke:none"
             d="M 0,0 C 0.608,1.443 0.723,3.141 1.582,4.472 3.228,7.02 5.812,5.188 7.363,3.617 7.687,3.289 8.193,3.795 7.869,4.123 6.471,5.54 4.433,7.282 2.325,6.163 0.191,5.031 0.139,2.158 -0.69,0.19 -0.87,-0.233 -0.177,-0.419 0,0" /></g><g
           transform="translate(88.8433,152.1621)"
           id="g160"><path
             id="path162"
             style="fill:#597d9f;fill-opacity:1;fill-rule:nonzero;stroke:none"
             d="m 0,0 c 2.877,0.89 5.807,1.289 8.817,1.202 0.461,-0.014 0.46,0.702 0,0.716 C 5.737,2.007 2.754,1.601 -0.19,0.69 -0.629,0.555 -0.442,-0.137 0,0" /></g><g
           transform="translate(112.7871,162.7554)"
           id="g164"><path
             id="path166"
             style="fill:#597d9f;fill-opacity:1;fill-rule:nonzero;stroke:none"
             d="M 0,0 C 1.02,2.465 2.811,4.451 5.135,5.752 5.537,5.978 5.176,6.596 4.773,6.371 2.274,4.971 0.402,2.833 -0.69,0.19 -0.867,-0.235 -0.174,-0.421 0,0" /></g><g
           transform="translate(84.606,197.7275)"
           id="g168"><path
             id="path170"
             style="fill:#0973b9;fill-opacity:1;fill-rule:nonzero;stroke:none"
             d="m 0,0 c 4.828,7.07 11.065,13.173 18.238,17.848 1.126,-8.589 0.079,-15.613 -1.835,-23.315 -2.14,1.066 -4.67,0.81 -7.049,0.569 C 6.976,-5.139 4.416,-5.302 2.353,-4.093 0.291,-2.884 -0.773,0.259 0.917,1.951" /></g><g
           transform="translate(106.3154,153.0815)"
           id="g172"><path
             id="path174"
             style="fill:#0973b9;fill-opacity:1;fill-rule:nonzero;stroke:none"
             d="M 0,0 C 1.771,0.894 3.543,1.788 5.315,2.682 6.947,3.506 5.512,5.957 3.882,5.134 L -1.434,2.452 C -3.065,1.629 -1.629,-0.822 0,0" /></g><g
           transform="translate(111.2588,151.9102)"
           id="g176"><path
             id="path178"
             style="fill:#231f20;fill-opacity:1;fill-rule:nonzero;stroke:none"
             d="m 0,0 c 2.307,-2.828 1.854,-7.548 -1.383,-9.529 -3.096,-1.893 -7.281,-0.472 -8.969,2.592 -0.221,0.4 -0.834,0.042 -0.613,-0.359 1.965,-3.567 6.982,-5.04 10.385,-2.545 3.271,2.398 3.556,7.31 1.082,10.343 C 0.213,0.856 -0.286,0.351 0,0" /></g><g
           transform="translate(118.6563,157.1846)"
           id="g180"><path
             id="path182"
             style="fill:#231f20;fill-opacity:1;fill-rule:nonzero;stroke:none"
             d="M 0,0 C 1.043,-3.482 5.847,-3.449 6.829,0.054 6.953,0.494 6.269,0.682 6.145,0.242 5.352,-2.585 1.525,-2.619 0.685,0.188 0.554,0.625 -0.132,0.439 0,0" /></g><g
           transform="translate(102.5073,147.2905)"
           id="g184"><path
             id="path186"
             style="fill:#231f20;fill-opacity:1;fill-rule:nonzero;stroke:none"
             d="m 0,0 c -1.289,-1.896 -3.073,-3.342 -5.201,-4.199 -0.419,-0.169 -0.236,-0.856 0.189,-0.685 2.312,0.932 4.223,2.463 5.625,4.526 C 0.871,0.021 0.256,0.376 0,0" /></g><g
           transform="translate(94.1548,198.917)"
           id="g188"><path
             id="path190"
             style="fill:#b99ac8;fill-opacity:1;fill-rule:nonzero;stroke:none"
             d="M 0,0 C 1.007,2.073 2.482,3.918 4.283,5.357 5.388,2.938 5.94,0.268 5.886,-2.392 4.02,-1.433 2.153,-0.474 0.286,0.486" /></g><g
           transform="translate(94.4614,198.7378)"
           id="g192"><path
             id="path194"
             style="fill:#231f20;fill-opacity:1;fill-rule:nonzero;stroke:none"
             d="M 0,0 C 1.043,2.062 2.447,3.815 4.227,5.285 4.042,5.309 3.855,5.333 3.67,5.357 4.726,2.942 5.235,0.423 5.225,-2.213 5.403,-2.111 5.581,-2.008 5.759,-1.906 3.892,-0.947 2.025,0.012 0.159,0.971 -0.247,1.18 -0.607,0.567 -0.2,0.358 1.667,-0.601 3.534,-1.56 5.4,-2.52 5.637,-2.641 5.934,-2.493 5.935,-2.213 5.946,0.554 5.391,3.181 4.283,5.715 4.183,5.944 3.881,5.916 3.725,5.787 1.896,4.276 0.458,2.475 -0.613,0.358 -0.819,-0.048 -0.207,-0.408 0,0" /></g><g
           transform="translate(103.6851,154.4575)"
           id="g196"><path
             id="path198"
             style="fill:#b99ac8;fill-opacity:1;fill-rule:nonzero;stroke:none"
             d="M 0,0 C 2.375,1.576 4.749,3.152 7.124,4.728 7.402,4.913 7.745,5.104 8.05,4.969 8.396,4.815 8.453,4.357 8.458,3.979 8.476,2.855 8.471,1.651 7.839,0.722 7.075,-0.401 1.345,-0.187 0,0 -1.345,0.186 2.792,0.796 1.606,1.457" /></g><g
           transform="translate(103.8643,154.1509)"
           id="g200"><path
             id="path202"
             style="fill:#231f20;fill-opacity:1;fill-rule:nonzero;stroke:none"
             d="M 0,0 C 1.461,0.97 2.922,1.94 4.384,2.91 5.034,3.341 5.841,4.114 6.576,4.365 7.003,4.882 7.453,4.855 7.924,4.286 7.932,3.961 7.93,3.636 7.919,3.311 7.871,2.421 7.757,1.403 6.895,0.942 6.507,0.735 5.883,0.693 5.469,0.642 4.52,0.521 3.552,0.506 2.596,0.513 1.883,0.518 0.893,0.767 0.205,0.619 -0.058,0.715 -0.166,0.585 -0.12,0.228 0.026,0.29 0.175,0.346 0.326,0.397 0.563,0.427 0.861,0.578 1.08,0.677 1.722,0.968 2.412,1.492 1.606,2.07 1.234,2.337 0.879,1.721 1.248,1.457 1.06,1.592 -0.468,0.926 -0.7,0.676 -0.784,0.585 -0.83,0.454 -0.791,0.331 -0.529,-0.501 2.177,-0.198 2.787,-0.198 4.18,-0.2 6.778,-0.414 7.856,0.715 8.623,1.52 9.369,5.004 8.008,5.6 7.014,6.036 5.542,4.53 4.848,4.068 L -0.358,0.613 C -0.737,0.361 -0.382,-0.254 0,0" /></g><g
           transform="translate(112.2451,181.2231)"
           id="g204"><path
             id="path206"
             style="fill:#0973b9;fill-opacity:1;fill-rule:nonzero;stroke:none"
             d="m 0,0 c -5.352,-1.444 -10.703,-2.888 -16.055,-4.332 0.152,0.13 0.304,0.26 0.455,0.39 0.458,3.963 2.846,7.366 6.007,8.558 3.16,1.191 6.964,0.121 9.565,-2.69" /></g><g
           transform="translate(112.125,181.6597)"
           id="g208"><path
             id="path210"
             style="fill:#000000;fill-opacity:1;fill-rule:nonzero;stroke:none"
             d="m 0,0 c -5.352,-1.444 -10.703,-2.888 -16.055,-4.332 0.147,-0.252 0.293,-0.504 0.44,-0.756 0.727,0.622 0.608,1.092 0.841,2.042 0.536,2.185 1.631,4.126 3.39,5.55 3.565,2.887 8.111,1.674 11.155,-1.334 0.416,-0.41 1.056,0.23 0.64,0.64 -2.63,2.6 -6.348,4.153 -10.005,2.805 -1.476,-0.544 -2.733,-1.532 -3.735,-2.729 -0.798,-0.954 -1.408,-2.036 -1.854,-3.195 -0.293,-0.759 -0.448,-2.605 -1.072,-3.139 -0.355,-0.304 0.026,-0.868 0.441,-0.757 5.351,1.444 10.703,2.888 16.055,4.332 C 0.803,-0.721 0.564,0.152 0,0" /></g><g
           transform="translate(92.8203,175.1245)"
           id="g212"><path
             id="path214"
             style="fill:#0973b9;fill-opacity:1;fill-rule:nonzero;stroke:none"
             d="m 0,0 c -5.696,-2.318 -8.726,-5.631 -14.421,-7.949 0.389,3.721 2.522,7.066 5.504,8.632 2.981,1.566 6.725,1.307 9.66,-0.668 C 0.496,0.01 0.248,0.005 0,0" /></g><g
           transform="translate(92.6089,175.4858)"
           id="g216"><path
             id="path218"
             style="fill:#000000;fill-opacity:1;fill-rule:nonzero;stroke:none"
             d="m 0,0 c -5.08,-2.176 -9.341,-5.773 -14.421,-7.949 0.205,-0.158 0.409,-0.315 0.614,-0.473 1.044,7.226 7.85,11.77 14.551,7.714 l 0.211,0.78 C 0.707,0.067 0.459,0.062 0.211,0.057 c -0.537,-0.011 -0.539,-0.848 0,-0.837 0.248,0.006 0.496,0.01 0.744,0.015 0.415,0.009 0.568,0.563 0.211,0.78 -7.122,4.311 -14.651,-0.403 -15.779,-8.214 -0.055,-0.38 0.263,-0.623 0.614,-0.473 5.08,2.176 9.341,5.774 14.421,7.949 C 0.916,-0.511 0.49,0.209 0,0" /></g><g
           transform="translate(113.3154,181.9038)"
           id="g220"><path
             id="path222"
             style="fill:#000000;fill-opacity:1;fill-rule:nonzero;stroke:none"
             d="m 0,0 c -0.196,-0.127 -0.393,-0.255 -0.589,-0.382 -0.349,-0.227 -0.118,-0.716 0.274,-0.649 2.377,0.409 4.398,1.727 5.771,3.703 0.262,0.376 -0.353,0.731 -0.612,0.358 -1.271,-1.827 -3.161,-3 -5.348,-3.376 0.091,-0.216 0.182,-0.433 0.274,-0.649 l 0.588,0.382 C 0.74,-0.365 0.385,0.25 0,0" /></g><g
           transform="translate(113.5957,181.6572)"
           id="g224"><path
             id="path226"
             style="fill:#000000;fill-opacity:1;fill-rule:nonzero;stroke:none"
             d="M 0,0 C -1.159,0.365 0.048,1.484 0.43,1.711 0.764,1.91 1.151,2.011 1.505,2.169 2.068,2.422 2.689,2.744 2.979,3.325 3.382,4.128 3.034,5.231 2.092,5.389 1.645,5.463 1.452,4.779 1.902,4.704 3.07,4.509 2.136,3.311 1.677,3.037 1.341,2.836 0.962,2.722 0.605,2.566 0.036,2.318 -0.588,2.026 -0.915,1.463 -1.382,0.661 -1.097,-0.399 -0.188,-0.685 0.248,-0.822 0.435,-0.137 0,0" /></g><g
           transform="translate(77.769,167.5464)"
           id="g228"><path
             id="path230"
             style="fill:#000000;fill-opacity:1;fill-rule:nonzero;stroke:none"
             d="m 0,0 c -0.659,-1.126 -1.355,-2.363 -2.504,-3.059 -1.196,-0.726 -3.111,-0.6 -3.616,0.917 -0.144,0.432 -0.83,0.246 -0.685,-0.189 0.462,-1.384 1.85,-2.021 3.258,-1.844 2.025,0.254 3.223,2.216 4.16,3.817 C 0.844,0.037 0.23,0.395 0,0" /></g><g
           transform="translate(76.4727,167.8706)"
           id="g232"><path
             id="path234"
             style="fill:#000000;fill-opacity:1;fill-rule:nonzero;stroke:none"
             d="m 0,0 c -0.789,-1.985 -3.231,-2.232 -4.531,-0.616 -0.286,0.357 -0.786,-0.149 -0.502,-0.502 1.673,-2.08 4.755,-1.496 5.718,0.93 C 0.854,0.236 0.167,0.42 0,0" /></g><g
           transform="translate(94.6304,120.9043)"
           id="g236"><path
             id="path238"
             style="fill:#ec1e27;fill-opacity:1;fill-rule:nonzero;stroke:none"
             d="M 0,0 C 10.001,-0.231 19.522,4.078 28.297,8.882 32.408,11.132 40.861,16.643 41.53,21.28 39.959,17.969 36.327,13.438 34.659,11.262 26.36,0.44 6.808,-4.333 -6.234,-0.347" /></g><g
           transform="translate(94.6304,120.5488)"
           id="g240"><path
             id="path242"
             style="fill:#000000;fill-opacity:1;fill-rule:nonzero;stroke:none"
             d="m 0,0 c 10.216,0.032 19.682,4.011 28.477,8.931 4.88,2.731 11.967,6.736 13.395,12.61 0.091,0.378 -0.457,0.643 -0.649,0.273 C 37.004,13.694 30.712,6.59 22.268,2.845 13.493,-1.047 3.15,-2.269 -6.14,0.352 c -0.44,0.124 -0.628,-0.561 -0.189,-0.685 13.704,-3.864 31.478,0.098 40.858,11.23 2.105,2.498 5.21,5.76 6.356,8.812 C 41.5,21.35 40.415,19.482 40.106,19.141 39.333,18.286 38.694,17.344 37.881,16.519 36.091,14.7 33.951,13.174 31.826,11.778 22.475,5.638 11.316,0.745 0,0.71 -0.457,0.709 -0.458,-0.001 0,0" /></g><g
           transform="translate(79.4932,154.5879)"
           id="g244"><path
             id="path246"
             style="fill:#0973b9;fill-opacity:1;fill-rule:nonzero;stroke:none"
             d="m 0,0 c -1.36,-2.39 -2.74,-4.831 -3.433,-7.725 -0.693,-2.894 -0.602,-6.367 0.822,-9.082 0.944,-1.801 2.369,-3.095 3.799,-4.221 1.816,-1.428 3.885,-1.833 5.798,-2.977 1.893,-1.131 8.381,9.462 8.287,8.529 1.109,11.055 -4.019,12.24 -5.775,13.448 -3.74,2.572 -8.352,1.983 -11.341,-1.17" /></g><g
           transform="translate(120.4551,126.8984)"
           id="g248"><path
             id="path250"
             style="fill:#f6eb0f;fill-opacity:1;fill-rule:nonzero;stroke:none"
             d="m 0,0 c 0.341,-1.782 -0.827,-3.503 -2.609,-3.844 -1.783,-0.341 -3.503,0.828 -3.844,2.61 -0.341,1.782 0.827,3.503 2.609,3.844 C -2.062,2.951 -0.341,1.782 0,0" /></g><g
           transform="translate(120.4551,126.8984)"
           id="g252"><path
             id="path254"
             style="fill:none;stroke:#000000;stroke-width:0.23100001;stroke-linecap:butt;stroke-linejoin:miter;stroke-miterlimit:10;stroke-dasharray:none;stroke-opacity:1"
             d="m 0,0 c 0.341,-1.782 -0.827,-3.503 -2.609,-3.844 -1.783,-0.341 -3.503,0.828 -3.844,2.61 -0.341,1.782 0.827,3.503 2.609,3.844 C -2.062,2.951 -0.341,1.782 0,0 Z" /></g><g
           transform="translate(119.8447,166.5049)"
           id="g256"><path
             id="path258"
             style="fill:#0973b9;fill-opacity:1;fill-rule:nonzero;stroke:none"
             d="m 0,0 c 0.417,-3.582 1.906,-7.403 3.969,-10.183 2.063,-2.78 5.682,-6.679 7.947,-6.712 2.096,-0.03 2.96,3.816 3.058,6.931 0.089,2.837 -1.121,7.282 -2.394,10.163 C 11.142,3.457 8.569,6.906 6.293,8.268 3.881,9.71 1.949,8.967 0.352,7.182 -0.532,6.196 -0.775,2.525 -0.017,0.571" /></g><g
           transform="translate(96.0601,147.6626)"
           id="g260"><path
             id="path262"
             style="fill:#231f20;fill-opacity:1;fill-rule:nonzero;stroke:none"
             d="m 0,0 c -12.342,-3.295 -24.775,-6.193 -37.302,-8.695 -0.455,-0.091 -0.253,-0.751 0.188,-0.684 1.277,0.191 2.553,0.381 3.83,0.572 0.45,0.068 0.259,0.752 -0.189,0.685 -3.065,-0.459 -1.948,-0.748 0.158,-0.492 1.259,0.153 2.534,0.524 3.774,0.786 3.435,0.728 6.863,1.489 10.283,2.28 6.511,1.507 12.99,3.14 19.447,4.863 C 0.63,-0.567 0.443,0.118 0,0" /></g><g
           transform="translate(90.9575,142.6665)"
           id="g264"><path
             id="path266"
             style="fill:#231f20;fill-opacity:1;fill-rule:nonzero;stroke:none"
             d="m 0,0 c -2.981,-1.376 -5.906,-2.849 -8.756,-4.482 -1.398,-0.801 -7.739,-3.71 -7.761,-5.546 0.002,0.175 -0.165,0.379 -0.355,0.355 -0.689,-0.084 -4.678,-0.588 -4.688,-1.367 0.006,0.457 -0.704,0.457 -0.71,0 0,-0.016 0,-0.031 -0.001,-0.047 -10e-4,-0.175 0.166,-0.378 0.355,-0.355 0.69,0.084 4.679,0.588 4.689,1.367 -0.003,-0.254 0.31,-0.463 0.534,-0.307 5.404,3.76 11.074,7.008 17.051,9.769 C 0.772,-0.421 0.412,0.191 0,0" /></g><g
           transform="translate(94.3354,142.5562)"
           id="g268"><path
             id="path270"
             style="fill:#231f20;fill-opacity:1;fill-rule:nonzero;stroke:none"
             d="m 0,0 c -5.386,-3.921 -12.055,-6.048 -17.037,-10.544 -4.079,-3.68 -2.592,-6.977 1.955,-9.3 0.406,-0.207 0.766,0.405 0.358,0.613 -2.484,1.269 -5.323,3.159 -3.578,6.231 1.253,2.204 3.949,3.708 6.037,4.994 4.145,2.553 8.68,4.522 12.623,7.393 C 0.724,-0.347 0.371,0.27 0,0" /></g><g
           transform="translate(121.6455,163.0054)"
           id="g272"><path
             id="path274"
             style="fill:#231f20;fill-opacity:1;fill-rule:nonzero;stroke:none"
             d="M 0,0 C 3.816,7.752 7.052,15.723 9.716,23.944 9.856,24.379 9.171,24.566 9.031,24.133 6.387,15.972 3.176,8.055 -0.613,0.358 -0.814,-0.05 -0.202,-0.411 0,0" /></g><g
           transform="translate(125.2891,163.3271)"
           id="g276"><path
             id="path278"
             style="fill:#231f20;fill-opacity:1;fill-rule:nonzero;stroke:none"
             d="M 0,0 C 5.069,2.427 10.138,4.854 15.207,7.28 15.618,7.478 15.259,8.09 14.849,7.894 9.779,5.466 4.711,3.04 -0.358,0.613 -0.77,0.416 -0.41,-0.197 0,0" /></g><g
           transform="translate(126.0283,160.4536)"
           id="g280"><path
             id="path282"
             style="fill:#231f20;fill-opacity:1;fill-rule:nonzero;stroke:none"
             d="m 0,0 c 10.061,-0.487 20.037,0.194 29.937,2.028 0.334,0.062 0.344,0.63 0,0.684 -0.54,0.086 -1.08,0.171 -1.62,0.256 C 27.871,3.039 27.679,2.354 28.129,2.284 26.17,2.593 22.424,1.515 20.583,1.304 18.41,1.056 16.231,0.871 14.049,0.74 9.364,0.46 4.686,0.483 0,0.71 -0.457,0.732 -0.455,0.022 0,0" /></g><g
           transform="translate(112.7734,145.0381)"
           id="g284"><path
             id="path286"
             style="fill:#231f20;fill-opacity:1;fill-rule:nonzero;stroke:none"
             d="M 0,0 C 5.832,-0.758 10.335,4.519 8.777,10.159 8.656,10.599 7.971,10.412 8.093,9.97 9.539,4.732 5.353,0.014 0,0.71 -0.452,0.769 -0.448,0.058 0,0" /></g><g
           transform="translate(119.5039,162.6016)"
           id="g288"><path
             id="path290"
             style="fill:#231f20;fill-opacity:1;fill-rule:nonzero;stroke:none"
             d="m 0,0 c -0.067,-0.013 -0.134,-0.025 -0.201,-0.039 -0.448,-0.085 -0.259,-0.77 0.188,-0.684 0.068,0.013 0.134,0.026 0.201,0.038 C 0.637,-0.599 0.447,0.085 0,0" /></g><g
           transform="translate(121.0811,160.1006)"
           id="g292"><path
             id="path294"
             style="fill:#231f20;fill-opacity:1;fill-rule:nonzero;stroke:none"
             d="M 0,0 C 0.066,0.013 0.134,0.026 0.2,0.039 0.648,0.125 0.459,0.809 0.012,0.723 -0.056,0.71 -0.122,0.698 -0.189,0.685 -0.638,0.599 -0.447,-0.085 0,0" /></g><g
           transform="translate(125.3662,159.02)"
           id="g296"><path
             id="path298"
             style="fill:#231f20;fill-opacity:1;fill-rule:nonzero;stroke:none"
             d="m 0,0 c -0.013,0.067 -0.025,0.134 -0.039,0.201 -0.085,0.448 -0.77,0.258 -0.685,-0.189 0.013,-0.067 0.027,-0.134 0.039,-0.201 C -0.599,-0.637 0.085,-0.447 0,0" /></g><g
           transform="translate(119.5332,158.9775)"
           id="g300"><path
             id="path302"
             style="fill:#231f20;fill-opacity:1;fill-rule:nonzero;stroke:none"
             d="M 0,0 C 0.457,0 0.458,0.71 0,0.71 -0.457,0.71 -0.457,0 0,0" /></g><g
           transform="translate(97.9155,149.0137)"
           id="g304"><path
             id="path306"
             style="fill:#231f20;fill-opacity:1;fill-rule:nonzero;stroke:none"
             d="M 0,0 C 0.457,0 0.458,0.71 0,0.71 -0.457,0.71 -0.458,0 0,0" /></g><g
           transform="translate(94.1572,144.1025)"
           id="g308"><path
             id="path310"
             style="fill:#231f20;fill-opacity:1;fill-rule:nonzero;stroke:none"
             d="M 0,0 C 0.148,-0.034 0.296,-0.068 0.445,-0.103 0.89,-0.205 1.079,0.479 0.634,0.582 L 0.188,0.685 C -0.256,0.788 -0.446,0.103 0,0" /></g><g
           transform="translate(99.5728,145.792)"
           id="g312"><path
             id="path314"
             style="fill:#231f20;fill-opacity:1;fill-rule:nonzero;stroke:none"
             d="M 0,0 C 0.457,0 0.458,0.71 0,0.71 -0.457,0.71 -0.458,0 0,0" /></g><g
           transform="translate(101.0645,149.5259)"
           id="g316"><path
             id="path318"
             style="fill:#231f20;fill-opacity:1;fill-rule:nonzero;stroke:none"
             d="m 0,0 c 0.013,-0.067 0.025,-0.134 0.038,-0.201 0.086,-0.448 0.771,-0.258 0.685,0.189 l -0.038,0.2 C 0.599,0.637 -0.086,0.447 0,0" /></g><g
           transform="translate(70.9771,184.5107)"
           id="g320"><path
             id="path322"
             style="fill:#231f20;fill-opacity:1;fill-rule:nonzero;stroke:none"
             d="m 0,0 c 0.84,-0.514 1.8,-0.733 2.779,-0.614 0.448,0.054 0.453,0.765 0,0.71 C 1.914,-0.009 1.104,0.156 0.358,0.613 -0.032,0.852 -0.389,0.238 0,0" /></g><g
           transform="translate(75.1533,187.8281)"
           id="g324"><path
             id="path326"
             style="fill:#b99ac8;fill-opacity:1;fill-rule:nonzero;stroke:none"
             d="m 0,0 c -3.809,1.276 -8.188,0.718 -11.556,-1.473 l 7.562,-3.148 c 0.501,-0.209 1.025,-0.422 1.567,-0.39 0.938,0.054 1.701,0.851 2.012,1.738 0.312,0.886 0.266,1.853 0.215,2.792" /></g><g
           transform="translate(75.248,188.1704)"
           id="g328"><path
             id="path330"
             style="fill:#231f20;fill-opacity:1;fill-rule:nonzero;stroke:none"
             d="m 0,0 c -4.054,1.226 -8.213,0.695 -11.83,-1.509 -0.284,-0.173 -0.187,-0.536 0.085,-0.649 1.96,-0.816 3.921,-1.632 5.881,-2.448 1.112,-0.463 2.459,-1.308 3.706,-1.031 2.168,0.48 2.297,3.042 2.219,4.813 -0.021,0.455 -0.731,0.458 -0.71,0 0.038,-0.861 0.157,-2.403 -0.406,-3.128 -1.375,-1.774 -3.642,-0.377 -5.04,0.205 l -5.461,2.274 0.085,-0.649 c 3.464,2.111 7.401,2.611 11.282,1.437 C 0.25,-0.817 0.437,-0.132 0,0" /></g><g
           transform="translate(72.2266,186.5933)"
           id="g332"><path
             id="path334"
             style="fill:#231f20;fill-opacity:1;fill-rule:nonzero;stroke:none"
             d="M 0,0 C 0.788,-0.124 1.576,-0.248 2.364,-0.373 2.811,-0.443 3.003,0.241 2.553,0.312 1.765,0.437 0.977,0.561 0.188,0.685 -0.258,0.755 -0.451,0.071 0,0" /></g><g
           transform="translate(122.417,125.9468)"
           id="g336"><path
             id="path338"
             style="fill:#0973b9;fill-opacity:1;fill-rule:nonzero;stroke:none"
             d="m 0,0 c 0.742,-1.389 1.675,-2.66 2.773,-3.78 1.06,0.675 2.208,1.19 3.375,1.513 0.468,0.13 1.047,0.191 1.24,-0.172 C 7.589,-2.82 7.2,-3.348 6.826,-3.722 5.316,-5.236 3.513,-6.486 1.588,-7.351 c -1.055,1.924 -2.11,3.849 -3.166,5.772 0.485,0.717 1.213,1.313 2.014,1.651" /></g><g
           transform="translate(122.208,125.8247)"
           id="g340"><path
             id="path342"
             style="fill:#000000;fill-opacity:1;fill-rule:nonzero;stroke:none"
             d="m 0,0 c 0.783,-1.403 1.708,-2.662 2.812,-3.829 0.072,-0.076 0.203,-0.091 0.292,-0.038 0.699,0.422 1.926,1.379 2.736,1.312 0.194,0.059 0.388,0.118 0.582,0.178 C 7.065,-2.994 7.074,-3.479 6.446,-3.835 5.624,-4.913 4.129,-5.724 2.966,-6.37 2.028,-6.891 1.983,-6.762 1.372,-5.953 c -0.383,0.508 -0.645,1.177 -0.949,1.732 -0.295,0.536 -0.767,1.142 -0.95,1.732 -0.457,0.505 -0.452,1.056 0.016,1.655 0.382,0.347 0.807,0.62 1.278,0.82 0.278,0.138 0.034,0.554 -0.245,0.417 -0.878,-0.435 -1.503,-0.963 -2.1,-1.738 -0.052,-0.067 -0.037,-0.175 0,-0.244 1.056,-1.923 2.111,-3.847 3.167,-5.772 0.066,-0.121 0.215,-0.141 0.33,-0.086 1.023,0.481 6.983,3.528 5.867,5.267 C 7.209,-1.272 5.466,-2.161 4.85,-2.417 3.999,-2.771 3.404,-3.37 2.555,-2.839 1.728,-2.323 0.893,-0.608 0.417,0.244 0.266,0.516 -0.151,0.272 0,0" /></g><g
           transform="translate(125.3848,122.5635)"
           id="g344"><path
             id="path346"
             style="fill:#231f20;fill-opacity:1;fill-rule:nonzero;stroke:none"
             d="m 0,0 c -0.558,-0.284 -0.936,-0.789 -0.981,-1.42 -0.019,-0.258 0.326,-0.301 0.45,-0.121 0.285,0.41 0.569,0.821 0.854,1.231 0.178,0.256 -0.24,0.498 -0.417,0.245 -0.285,-0.412 -0.569,-0.822 -0.854,-1.233 0.15,-0.04 0.3,-0.081 0.45,-0.122 0.033,0.462 0.346,0.801 0.742,1.003 C 0.521,-0.275 0.276,0.142 0,0" /></g><g
           transform="translate(118.2773,123.3413)"
           id="g348"><path
             id="path350"
             style="fill:#0973b9;fill-opacity:1;fill-rule:nonzero;stroke:none"
             d="M 0,0 C 0.997,-1.484 1.806,-3.088 2.404,-4.77 1.333,-5.431 0.376,-6.266 -0.41,-7.223 c -0.316,-0.384 -0.611,-0.914 -0.35,-1.3 0.275,-0.404 0.931,-0.316 1.437,-0.158 2.044,0.639 3.962,1.708 5.569,3.104 C 4.876,-3.495 3.505,-1.413 2.134,0.669 1.261,0.589 0.4,0.209 -0.247,-0.384" /></g><g
           transform="translate(118.0557,123.2114)"
           id="g352"><path
             id="path354"
             style="fill:#000000;fill-opacity:1;fill-rule:nonzero;stroke:none"
             d="M 0,0 C 0.608,-0.938 1.17,-1.899 1.643,-2.914 2.453,-4.652 1.842,-4.733 0.7,-5.785 0.172,-6.271 -1.389,-7.582 -0.761,-8.523 -0.25,-9.29 0.93,-8.82 1.576,-8.595 3.45,-7.946 5.134,-6.892 6.65,-5.628 6.733,-5.559 6.749,-5.405 6.69,-5.316 5.32,-3.235 3.949,-1.153 2.578,0.929 2.509,1.034 2.407,1.066 2.287,1.047 1.302,0.89 0.569,0.549 -0.208,-0.072 -0.467,-0.279 -0.1,-0.642 0.157,-0.437 0.892,0.151 1.741,0.809 2.545,0.044 2.998,-0.388 3.433,-1.305 3.778,-1.83 4.542,-2.99 6.446,-4.703 5.338,-6.022 4.714,-6.764 2.357,-8.003 1.439,-8.098 L 0.83,-8.303 c -0.677,0.725 -0.747,1.298 -0.213,1.719 0.442,0.734 1.446,1.267 2.139,1.721 0.089,0.058 0.159,0.182 0.119,0.291 C 2.237,-2.865 1.437,-1.269 0.444,0.26 0.265,0.537 -0.182,0.279 0,0" /></g><g
           transform="translate(120.5557,118.1846)"
           id="g356"><path
             id="path358"
             style="fill:#231f20;fill-opacity:1;fill-rule:nonzero;stroke:none"
             d="m 0,0 c 0.341,0.267 0.792,0.328 1.182,0.133 0.043,0.16 0.086,0.32 0.13,0.48 C 0.809,0.562 0.305,0.51 -0.198,0.458 c -0.326,-0.034 -0.33,-0.55 0,-0.516 0.503,0.052 1.007,0.104 1.51,0.156 0.229,0.023 0.381,0.354 0.129,0.48 C 0.827,0.885 0.168,0.781 -0.364,0.364 -0.625,0.159 -0.258,-0.203 0,0" /></g><g
           transform="translate(72.7026,183.9253)"
           id="g360"><path
             id="path362"
             style="fill:#231f20;fill-opacity:1;fill-rule:nonzero;stroke:none"
             d="M 0,0 C 0.443,0.224 0.885,0.448 1.328,0.672 1.736,0.878 1.377,1.491 0.97,1.285 0.527,1.061 0.084,0.837 -0.358,0.613 -0.766,0.407 -0.407,-0.206 0,0" /></g><g
           transform="translate(95.2964,186.0928)"
           id="g364"><path
             id="path366"
             style="fill:#231f20;fill-opacity:1;fill-rule:nonzero;stroke:none"
             d="M 0,0 C 2.493,0.667 4.442,2.471 5.332,4.888 5.49,5.317 4.804,5.502 4.647,5.077 3.845,2.896 2.051,1.284 -0.188,0.685 -0.629,0.566 -0.442,-0.119 0,0" /></g><g
           transform="translate(86.7759,182.9712)"
           id="g368"><path
             id="path370"
             style="fill:#231f20;fill-opacity:1;fill-rule:nonzero;stroke:none"
             d="m 0,0 c -1.824,-2.54 -4.714,-6.035 -8.225,-4.035 -0.397,0.226 -0.755,-0.387 -0.358,-0.613 3.862,-2.201 7.125,1.405 9.196,4.29 C 0.88,0.013 0.264,0.368 0,0" /></g></g></g><g
       id="text372"
       style="font-variant:normal;font-weight:normal;font-stretch:normal;font-size:20.00012207px;font-family:'Museo 500';-inkscape-font-specification:Museo-500;writing-mode:lr-tb;fill:#231f20;fill-opacity:1;fill-rule:nonzero;stroke:none"
       transform="matrix(0.95490914,0.29689818,0.29689818,-0.95490914,108.4897,37.3051)"><path
         id="path377"
         style=""
         d="m 0.68000415,-1.8600114 c 0,0 1.68001025,2.10001286 4.68002855,2.10001286 2.8000171,0 4.4800274,-1.86001136 4.4800274,-4.02002456 0,-4.6400283 -6.8000415,-4.0000244 -6.8000415,-6.8600419 0,-1.060006 0.9600058,-1.900012 2.4800151,-1.900012 1.1200068,0 2.1800133,0.540004 2.1800133,1.280008 l 0,0.660004 1.8400112,0 0,-1.160007 c 0,-1.920011 -2.5200154,-2.600016 -4.0200245,-2.600016 -2.6600162,0 -4.5200276,1.66001 -4.5200276,3.780023 0,4.4000273 6.8200416,3.9400245 6.8200416,6.9000425 0,1.300008 -1.1000067,2.1000129 -2.4200147,2.1000129 -2.1000129,0 -3.5400216,-1.7000104 -3.5400216,-1.7000104 l -1.18000725,1.4200086 z" /><path
         id="path379"
         style=""
         d="m 11.48007,-5.0600309 c 0,3.0000183 2.180014,5.30003236 5.380033,5.30003236 2.400015,0 3.900024,-1.48000906 3.900024,-1.48000906 L 19.920122,-2.620016 c 0,0 -1.220008,1.1800072 -2.960018,1.1800072 -1.800011,0 -3.360021,-1.2200074 -3.480021,-3.3800206 l 7.380045,0 c 0,0 0.06,-0.5400033 0.06,-0.8000049 0,-2.620016 -1.520009,-4.7400287 -4.360027,-4.7400287 -2.880017,0 -5.080031,2.0800125 -5.080031,5.3000321 z m 2.080013,-1.1800072 c 0.300002,-1.6800102 1.500009,-2.5800157 2.980018,-2.5800157 1.260008,0 2.320014,0.9000055 2.380015,2.5800157 l -5.360033,0 z" /><path
         id="path381"
         style=""
         d="m 22.520139,-5.0600309 c 0,3.0000183 2.180013,5.30003236 5.380033,5.30003236 2.400015,0 3.900024,-1.48000906 3.900024,-1.48000906 L 30.960191,-2.620016 c 0,0 -1.220008,1.1800072 -2.960018,1.1800072 -1.800011,0 -3.360021,-1.2200074 -3.480022,-3.3800206 l 7.380045,0 c 0,0 0.06,-0.5400033 0.06,-0.8000049 0,-2.620016 -1.52001,-4.7400287 -4.360027,-4.7400287 -2.880018,0 -5.080031,2.0800125 -5.080031,5.3000321 z m 2.080013,-1.1800072 c 0.300002,-1.6800102 1.500009,-2.5800157 2.980018,-2.5800157 1.260008,0 2.320014,0.9000055 2.380014,2.5800157 l -5.360032,0 z" /><path
         id="path383"
         style=""
         d="m 33.580207,-5.0600309 c 0,3.1400192 1.72001,5.30003236 4.460027,5.30003236 2.480015,0 3.32002,-1.84001126 3.32002,-1.84001126 l 0.04,0 c 0,0 -0.02,0.2200014 -0.02,0.5200032 C 41.380254,-0.40000244 41.740257,0 42.620262,0 l 1.860011,0 0,-1.6600101 -0.820005,0 c -0.280001,0 -0.440002,-0.1400009 -0.440002,-0.4400027 l 0,-10.7400652 c 0,-0.900006 -0.380003,-1.280008 -1.280008,-1.280008 l -1.920012,0 0,1.66001 0.820005,0 c 0.280002,0 0.440003,0.140001 0.440003,0.440003 l 0,2.5400151 c 0,0.3800024 0.04,0.6800042 0.04,0.6800042 l -0.04,0 c 0,0 -0.780005,-1.5600093 -3.120019,-1.5600093 -2.680017,0 -4.580028,2.0800125 -4.580028,5.3000321 z m 4.840029,3.6200221 c -1.68001,0 -2.860017,-1.4200087 -2.860017,-3.6200221 0,-2.300014 1.320008,-3.6200221 2.900018,-3.6200221 1.940011,0 2.880017,1.800011 2.880017,3.600022 0,2.5800157 -1.420008,3.6400222 -2.920018,3.6400222 z" /><path
         id="path385"
         style=""
         d="M 46.600287,-1.2800078 C 46.600287,-0.38000232 46.98029,0 47.880295,0 l 1.920012,0 0,-1.6600101 -0.820005,0 c -0.280002,0 -0.440003,-0.1400009 -0.440003,-0.4400027 l 0,-10.7400652 c 0,-0.900006 -0.380002,-1.280008 -1.280008,-1.280008 l -1.920011,0 0,1.66001 0.820005,0 c 0.280001,0 0.440002,0.140001 0.440002,0.440003 l 0,10.7400652 z" /><path
         id="path387"
         style=""
         d="m 51.020313,-5.0600309 c 0,3.0000183 2.180013,5.30003236 5.380032,5.30003236 2.400015,0 3.900024,-1.48000906 3.900024,-1.48000906 L 59.460364,-2.620016 c 0,0 -1.220007,1.1800072 -2.960018,1.1800072 -1.800011,0 -3.36002,-1.2200074 -3.480021,-3.3800206 l 7.380045,0 c 0,0 0.06,-0.5400033 0.06,-0.8000049 0,-2.620016 -1.520009,-4.7400287 -4.360026,-4.7400287 -2.880018,0 -5.080031,2.0800125 -5.080031,5.3000321 z m 2.080012,-1.1800072 c 0.300002,-1.6800102 1.500009,-2.5800157 2.980019,-2.5800157 1.260007,0 2.320014,0.9000055 2.380014,2.5800157 l -5.360033,0 z" /><path
         id="path389"
         style=""
         d="m 61.880381,-1.5400094 c 0,0 1.340008,1.78001086 4.040025,1.78001086 2.120013,0 3.720022,-1.16000708 3.720022,-2.96001806 0,-3.3800206 -5.520033,-2.9600181 -5.520033,-4.8800298 0,-0.8000049 0.740004,-1.2000073 1.880011,-1.2000073 0.620004,0 1.52001,0.2600016 1.52001,0.8600052 l 0,0.5000031 1.74001,0 0,-0.9600059 c 0,-1.5400094 -2.100013,-1.9600117 -3.32002,-1.9600117 -2.060013,0 -3.760023,0.9000053 -3.760023,2.8400171 0,3.2600199 5.520034,3.0600187 5.520034,4.8800298 0,0.8800054 -0.820005,1.3000079 -1.760011,1.3000079 -1.860011,0 -3.060019,-1.5000091 -3.060019,-1.5000091 l -1.000006,1.3000079 z" /></g></g></svg>