<?xml version="1.0" encoding="UTF-8" standalone="no"?>
<svg
   xmlns:dc="http://purl.org/dc/elements/1.1/"
   xmlns:cc="http://creativecommons.org/ns#"
   xmlns:rdf="http://www.w3.org/1999/02/22-rdf-syntax-ns#"
   xmlns:svg="http://www.w3.org/2000/svg"
   xmlns="http://www.w3.org/2000/svg"
   viewBox="0 0 281.25 312.20499"
   height="312.20499"
   width="281.25"
   xml:space="preserve"
   version="1.1"
   id="svg2"><metadata
     id="metadata8"><rdf:RDF><cc:Work
         rdf:about=""><dc:format>image/svg+xml</dc:format><dc:type
           rdf:resource="http://purl.org/dc/dcmitype/StillImage" /></cc:Work></rdf:RDF></metadata><defs
     id="defs6"><clipPath
       id="clipPath20"
       clipPathUnits="userSpaceOnUse"><path
         id="path22"
         d="m 0,0 225,0 0,249.764 -225,0 L 0,0 Z" /></clipPath><clipPath
       id="clipPath40"
       clipPathUnits="userSpaceOnUse"><path
         id="path42"
         d="m 0,0 225,0 0,249.764 -225,0 L 0,0 Z" /></clipPath><clipPath
       id="clipPath64"
       clipPathUnits="userSpaceOnUse"><path
         id="path66"
         d="m 0,249.764 225,0 L 225,0 0,0 0,249.764 Z" /></clipPath></defs><g
     transform="matrix(1.25,0,0,-1.25,0,312.205)"
     id="g10"><g
       transform="translate(1.449,45.846)"
       id="g12"><path
         id="path14"
         style="fill:#f5f5f5;fill-opacity:1;fill-rule:nonzero;stroke:none"
         d="M 0,0 166.043,-45.469 220.074,150.89 56.008,198.332 0,0 Z" /></g><g
       id="g16"><g
         clip-path="url(#clipPath20)"
         id="g18"><g
           transform="translate(57.457,244.1777)"
           id="g24"><path
             id="path26"
             style="fill:none;stroke:#100f0d;stroke-width:0.61000001;stroke-linecap:butt;stroke-linejoin:miter;stroke-miterlimit:10;stroke-dasharray:none;stroke-opacity:1"
             d="M 0,0 164.066,-47.441 110.035,-243.801 -56.008,-198.332 0,0 Z" /></g></g></g><g
       transform="translate(64.8442,228.7324)"
       id="g28"><path
         id="path30"
         style="fill:#f5f5f5;fill-opacity:1;fill-rule:nonzero;stroke:none"
         d="M 0,0 -40.489,-142.278 99.195,-183.539 141.894,-40.949 0,0 Z" /></g><g
       transform="translate(64.8442,228.7324)"
       id="g32"><path
         id="path34"
         style="fill:none;stroke:#000000;stroke-width:0.639;stroke-linecap:butt;stroke-linejoin:miter;stroke-miterlimit:4;stroke-dasharray:none;stroke-opacity:1"
         d="M 0,0 -40.489,-142.278 99.195,-183.539 141.894,-40.949 0,0 Z" /></g><g
       id="g36"><g
         clip-path="url(#clipPath40)"
         id="g38"><g
           transform="translate(0.3789,200.7554)"
           id="g44"><path
             id="path46"
             style="fill:none;stroke:#100f0d;stroke-width:0.61000001;stroke-linecap:butt;stroke-linejoin:miter;stroke-miterlimit:10;stroke-dasharray:none;stroke-opacity:1"
             d="M 0,0 163.723,48.629 224.234,-145.82 59.918,-197.183 0,0 Z" /></g></g></g><g
       transform="translate(0.3789,200.7558)"
       id="g48"><path
         id="path50"
         style="fill:#f5f5f5;fill-opacity:1;fill-rule:nonzero;stroke:none"
         d="M 0,0 59.918,-197.184 224.234,-145.821 163.723,48.629 0,0 Z" /></g><g
       transform="translate(15.8398,190.2441)"
       id="g52"><path
         id="path54"
         style="fill:#e8e7e5;fill-opacity:1;fill-rule:nonzero;stroke:none"
         d="M 0,0 139.629,42.929 183.102,-97.27 44.558,-141.066 0,0 Z" /></g><g
       transform="translate(15.8398,190.2441)"
       id="g56"><path
         id="path58"
         style="fill:none;stroke:#100f0d;stroke-width:0.49700001;stroke-linecap:butt;stroke-linejoin:miter;stroke-miterlimit:10;stroke-dasharray:none;stroke-opacity:1"
         d="M 0,0 139.629,42.929 183.102,-97.27 44.558,-141.066 0,0 Z" /></g><g
       id="g60"><g
         clip-path="url(#clipPath64)"
         id="g62"><g
           transform="translate(133.79,80.5361)"
           id="g68"><path
             id="path70"
             style="fill:#cccbcb;fill-opacity:1;fill-rule:nonzero;stroke:none"
             d="m 0,0 c 1.066,-1.351 2.473,-1.528 3.979,-1.396 1.654,0.147 3.334,0.188 4.918,0.686 2.442,0.767 4.518,2.167 6.441,3.845 0.763,0.665 0.941,-1.366 1.293,-0.491 0.189,0.469 -0.874,-2.121 0,0 0.004,0.007 2.104,0.14 2.102,0.131 C 17.961,-0.32 14.84,0.108 12.307,-1.484 10.186,-2.818 7.851,-3.576 5.363,-3.871 4.064,-4.025 2.754,-3.897 1.486,-3.415 0.287,-2.958 -0.134,-2.24 -0.017,-0.93 0.011,-0.623 -0.005,-0.311 0,0" /></g><g
           transform="translate(136.9229,109.8398)"
           id="g72"><path
             id="path74"
             style="fill:#c0272d;fill-opacity:1;fill-rule:nonzero;stroke:none"
             d="m 0,0 c 2.44,1.071 4.946,1.903 7.623,2.136 1.31,0.113 2.124,-0.369 2.835,-1.574 1.615,-2.735 1.82,-5.874 2.816,-8.779 1.209,-3.529 2.217,-7.128 3.475,-10.638 0.559,-1.56 0.143,-2.605 -0.932,-3.664 -0.83,-0.816 -1.924,-1.339 -2.566,-2.355 -2.451,-1.275 -4.902,-2.55 -7.355,-3.825 -1.332,-0.282 -2.661,-0.574 -3.996,-0.842 -1.224,-0.245 -2.107,0.12 -2.904,1.192 -3.108,4.183 -6.169,8.419 -9.571,12.356 -1.167,1.35 -2.131,2.724 -3.037,4.222 -0.696,1.15 -0.416,2.034 0.302,2.958 1.348,1.731 3.052,3.08 4.857,4.268 1.846,1.216 3.686,2.466 5.733,3.349 0.581,-1.385 0.618,-2.846 0.612,-4.314 -1.812,-1.839 -4.393,-2.636 -6.285,-4.54 2.497,-0.091 11.408,4.431 14.164,7.186 C 4.833,-2.688 4.206,-3.227 3.5,-3.392 2.442,-3.64 1.435,-4.75 0.258,-3.676 0.172,-2.451 0.086,-1.226 0,0" /></g><g
           transform="translate(136.9229,109.8398)"
           id="g76"><path
             id="path78"
             style="fill:none;stroke:#000000;stroke-width:0.296;stroke-linecap:butt;stroke-linejoin:miter;stroke-miterlimit:10;stroke-dasharray:none;stroke-opacity:1"
             d="m 0,0 c 2.44,1.071 4.946,1.903 7.623,2.136 1.31,0.113 2.124,-0.369 2.835,-1.574 1.615,-2.735 1.82,-5.874 2.816,-8.779 1.209,-3.529 2.217,-7.128 3.475,-10.638 0.559,-1.56 0.143,-2.605 -0.932,-3.664 -0.83,-0.816 -1.924,-1.339 -2.566,-2.355 -2.451,-1.275 -4.902,-2.55 -7.355,-3.825 -1.332,-0.282 -2.661,-0.574 -3.996,-0.842 -1.224,-0.245 -2.107,0.12 -2.904,1.192 -3.108,4.183 -6.169,8.419 -9.571,12.356 -1.167,1.35 -2.131,2.724 -3.037,4.222 -0.696,1.15 -0.416,2.034 0.302,2.958 1.348,1.731 3.052,3.08 4.857,4.268 1.846,1.216 3.686,2.466 5.733,3.349 0.581,-1.385 0.618,-2.846 0.612,-4.314 -1.812,-1.839 -4.393,-2.636 -6.285,-4.54 2.497,-0.091 11.408,4.431 14.164,7.186 C 4.833,-2.688 4.206,-3.227 3.5,-3.392 2.442,-3.64 1.435,-4.75 0.258,-3.676 0.172,-2.451 0.086,-1.226 0,0 Z" /></g><g
           transform="translate(136.4121,106.4004)"
           id="g80"><path
             id="path82"
             style="fill:#252525;fill-opacity:1;fill-rule:nonzero;stroke:none"
             d="M 0,0 C 1.762,0.622 3.52,1.256 5.287,1.86 5.75,2.019 6.241,2.103 6.725,2.188 7.015,2.238 7.344,2.249 7.524,1.957 7.758,1.582 7.51,1.267 7.258,1.049 6.515,0.406 5.774,-0.254 4.963,-0.804 0.782,-3.638 -3.677,-5.937 -8.47,-7.55 c -0.708,-0.239 -1.78,-0.805 -2.18,-0.069 -0.485,0.891 0.672,1.373 1.287,1.854 1.746,1.371 3.606,2.579 5.605,3.56 0.438,0.214 0.861,0.501 1.393,0.371 0.076,-0.437 -0.242,-1.256 0.442,-1.17 0.835,0.105 1.722,0.562 1.965,1.535 C 0.156,-1.011 0.021,-0.491 0,0" /></g><g
           transform="translate(147.583,132.6431)"
           id="g84"><path
             id="path86"
             style="fill:#69bc45;fill-opacity:1;fill-rule:nonzero;stroke:none"
             d="m 0,0 c 0.115,-0.516 -0.254,-0.827 -0.518,-1.166 -2.432,-3.116 -4.02,-6.606 -4.88,-10.472 -0.936,-4.199 -4.282,-6.724 -8.692,-6.721 -0.461,0.001 -0.88,-0.066 -1.243,-0.364 -0.08,0.116 -0.159,0.232 -0.239,0.348 -0.252,0.478 -0.421,1.031 -0.772,1.418 -1.273,1.409 -1.281,3.079 -0.828,4.696 1.048,3.74 2.688,7.153 6.113,9.371 2.675,1.731 5.653,2.597 8.784,2.855 C -1.547,0.024 -0.756,0.517 0,0" /></g><g
           transform="translate(120.7031,119.4512)"
           id="g88"><path
             id="path90"
             style="fill:#69bc45;fill-opacity:1;fill-rule:nonzero;stroke:none"
             d="m 0,0 c 6.94,1.456 14.136,-7.349 11.426,-13.764 -1.099,-2.601 2.725,-4.868 3.835,-2.241 C 17.429,-10.871 16.747,-6 13.117,-1.719 9.56,2.478 4.413,5.456 -1.181,4.282 -3.977,3.696 -2.793,-0.586 0,0" /></g><g
           transform="translate(73.5337,185.333)"
           id="g92"><path
             id="path94"
             style="fill:#0973b9;fill-opacity:1;fill-rule:nonzero;stroke:none"
             d="m 0,0 c 0,0 -13.285,-49.996 39.249,-65.897 10.194,-3.086 25.82,15.481 10.935,49.438 C 42.586,0.872 30.209,9.003 19.058,11.097 2.022,14.295 0,0 0,0" /></g><g
           transform="translate(98.3306,170.1426)"
           id="g96"><path
             id="path98"
             style="fill:#eff0ea;fill-opacity:1;fill-rule:nonzero;stroke:none"
             d="m 0,0 c 3.003,-5.772 1.598,-12.45 -3.139,-14.914 -4.736,-2.464 -11.01,0.218 -14.013,5.991 -3.003,5.772 -1.598,12.449 3.138,14.914 C -9.277,8.455 -3.003,5.772 0,0" /></g><g
           transform="translate(112.5752,179.6504)"
           id="g100"><path
             id="path102"
             style="fill:#eff0ea;fill-opacity:1;fill-rule:nonzero;stroke:none"
             d="m 0,0 c 3.17,-4.978 2.651,-10.978 -1.157,-13.402 -3.808,-2.425 -9.464,-0.356 -12.634,4.621 -3.168,4.977 -2.65,10.978 1.158,13.402 C -8.825,7.046 -3.168,4.977 0,0" /></g><g
           transform="translate(94.2407,168.0151)"
           id="g104"><path
             id="path106"
             style="fill:#1a9948;fill-opacity:1;fill-rule:nonzero;stroke:none"
             d="m 0,0 c 1.425,-2.738 0.84,-5.863 -1.307,-6.98 -2.146,-1.116 -5.04,0.198 -6.465,2.937 -1.424,2.738 -0.839,5.863 1.307,6.979 C -4.319,4.053 -1.424,2.738 0,0" /></g><g
           transform="translate(109.9951,177.5044)"
           id="g108"><path
             id="path110"
             style="fill:#1a9948;fill-opacity:1;fill-rule:nonzero;stroke:none"
             d="m 0,0 c 1.416,-2.721 0.974,-5.755 -0.987,-6.775 -1.962,-1.02 -4.7,0.359 -6.115,3.08 -1.416,2.722 -0.974,5.755 0.987,6.776 C -4.154,4.101 -1.416,2.722 0,0" /></g><g
           transform="translate(88.6016,165.0811)"
           id="g112"><path
             id="path114"
             style="fill:#14170f;fill-opacity:1;fill-rule:nonzero;stroke:none"
             d="M 0,0 C -0.771,1.482 -0.476,3.163 0.66,3.754 1.795,4.345 3.34,3.622 4.112,2.139 4.883,0.657 4.588,-1.024 3.452,-1.614 2.317,-2.205 0.771,-1.482 0,0" /></g><g
           transform="translate(104.585,174.6694)"
           id="g116"><path
             id="path118"
             style="fill:#14170f;fill-opacity:1;fill-rule:nonzero;stroke:none"
             d="M 0,0 C -0.778,1.495 -0.472,3.195 0.684,3.796 1.84,4.397 3.407,3.672 4.185,2.177 4.963,0.682 4.657,-1.018 3.501,-1.619 2.346,-2.22 0.778,-1.496 0,0" /></g><g
           transform="translate(86.5151,166.5688)"
           id="g120"><path
             id="path122"
             style="fill:#ffffff;fill-opacity:1;fill-rule:nonzero;stroke:none"
             d="M 0,0 C -0.164,0.953 0.31,1.83 1.057,1.958 1.804,2.085 2.542,1.417 2.706,0.463 2.869,-0.49 2.396,-1.366 1.648,-1.494 0.901,-1.622 0.163,-0.953 0,0" /></g><g
           transform="translate(104.9487,177.2695)"
           id="g124"><path
             id="path126"
             style="fill:#ffffff;fill-opacity:1;fill-rule:nonzero;stroke:none"
             d="m 0,0 c 0.048,-0.834 -0.364,-1.537 -0.921,-1.569 -0.557,-0.033 -1.048,0.618 -1.096,1.452 -0.048,0.835 0.364,1.537 0.921,1.57 C -0.539,1.485 -0.048,0.835 0,0" /></g><g
           transform="translate(104.501,174.2368)"
           id="g128"><path
             id="path130"
             style="fill:#ffffff;fill-opacity:1;fill-rule:nonzero;stroke:none"
             d="m 0,0 c -0.139,-0.246 -0.421,-0.349 -0.629,-0.231 -0.208,0.118 -0.264,0.413 -0.124,0.659 0.139,0.245 0.421,0.348 0.629,0.23 C 0.084,0.54 0.14,0.245 0,0" /></g><g
           transform="translate(78.8921,176.6382)"
           id="g132"><path
             id="path134"
             style="fill:#0973b9;fill-opacity:1;fill-rule:nonzero;stroke:none"
             d="M 0,0 C 0.546,1.385 0.617,3 1.401,4.286 2.907,6.754 5.405,5.071 6.912,3.616 7.227,3.312 7.708,3.792 7.393,4.097 6.03,5.414 4.059,7.024 2.081,5.921 0.074,4.802 0.088,2.068 -0.656,0.181 -0.817,-0.227 -0.159,-0.403 0,0" /></g><g
           transform="translate(77.5435,175.332)"
           id="g136"><path
             id="path138"
             style="fill:#4c3215;fill-opacity:1;fill-rule:nonzero;stroke:none"
             d="M 0,0 C 0.206,1.306 0.186,2.632 0.393,3.938 0.6,5.243 1.074,6.579 2.067,7.482 3.312,8.614 5.167,8.854 6.782,8.503 8.396,8.153 9.831,7.296 11.233,6.451 9.041,6.858 6.714,6.192 4.78,5.007 2.845,3.821 1.256,2.149 -0.193,0.408" /></g><g
           transform="translate(80.7212,173.9565)"
           id="g140"><path
             id="path142"
             style="fill:#4a85a4;fill-opacity:1;fill-rule:nonzero;stroke:none"
             d="M 0,0 C 0.987,3.058 3.964,4.655 7.067,3.835 7.491,3.723 7.672,4.379 7.249,4.491 3.789,5.405 0.442,3.583 -0.656,0.181 -0.791,-0.237 -0.134,-0.416 0,0" /></g><g
           transform="translate(96.6372,181.938)"
           id="g144"><path
             id="path146"
             style="fill:#4a85a4;fill-opacity:1;fill-rule:nonzero;stroke:none"
             d="M 0,0 C 1.552,2.7 4.012,5.321 7.446,4.608 7.873,4.52 8.056,5.175 7.626,5.264 3.894,6.039 1.134,3.338 -0.588,0.343 -0.806,-0.037 -0.219,-0.38 0,0" /></g><g
           transform="translate(88.7588,153.3462)"
           id="g148"><path
             id="path150"
             style="fill:#597d9f;fill-opacity:1;fill-rule:nonzero;stroke:none"
             d="M 0,0 C 2.714,0.91 5.487,1.357 8.351,1.342 8.789,1.34 8.789,2.02 8.351,2.022 5.423,2.039 2.596,1.587 -0.181,0.656 -0.594,0.518 -0.417,-0.14 0,0" /></g><g
           transform="translate(111.2778,163.9438)"
           id="g152"><path
             id="path154"
             style="fill:#597d9f;fill-opacity:1;fill-rule:nonzero;stroke:none"
             d="M 0,0 C 0.914,2.366 2.564,4.295 4.745,5.585 5.122,5.808 4.78,6.396 4.402,6.173 2.06,4.788 0.323,2.717 -0.656,0.181 -0.814,-0.228 -0.156,-0.405 0,0" /></g><g
           transform="translate(117.4844,159.958)"
           id="g156"><path
             id="path158"
             style="fill:#a5897a;fill-opacity:1;fill-rule:nonzero;stroke:none"
             d="m 0,0 c 0.395,-4.407 -0.514,-9.119 -3.948,-12.214 -3.938,-3.547 -9.564,-3.958 -13.582,-0.305 -0.532,0.484 -1.327,-0.306 -0.792,-0.792 3.743,-3.403 9.03,-3.885 13.321,-1.136 C -0.09,-11.3 1.618,-5.565 1.12,0 1.056,0.712 -0.064,0.719 0,0" /></g><g
           transform="translate(98.8408,149.2178)"
           id="g160"><path
             id="path162"
             style="fill:#a5897a;fill-opacity:1;fill-rule:nonzero;stroke:none"
             d="m 0,0 c -0.178,-1.448 -1.27,-2.634 -2.659,-3.017 -0.694,-0.191 -0.4,-1.272 0.298,-1.08 C -0.448,-3.569 0.88,-1.952 1.12,0 1.208,0.714 0.087,0.708 0,0" /></g><g
           transform="translate(115.0049,160.5527)"
           id="g164"><path
             id="path166"
             style="fill:#a5897a;fill-opacity:1;fill-rule:nonzero;stroke:none"
             d="M 0,0 C 1.717,-1.769 4.515,-1.681 6.049,0.281 6.487,0.843 5.7,1.641 5.257,1.073 4.096,-0.411 2.127,-0.583 0.792,0.792 0.289,1.31 -0.502,0.518 0,0" /></g><g
           transform="translate(97.2432,187.3594)"
           id="g168"><path
             id="path170"
             style="fill:#322112;fill-opacity:1;fill-rule:nonzero;stroke:none"
             d="m 0,0 c -0.136,1.812 -0.013,3.692 0.761,5.336 0.303,0.643 0.712,1.252 1.28,1.681 1.322,1 3.196,0.823 4.766,0.29 1.57,-0.534 3.056,-1.377 4.7,-1.59 C 9.259,5.361 6.983,4.997 4.893,4.095 2.802,3.194 0.882,1.683 -0.034,-0.4" /></g><g
           transform="translate(128.9512,152.7085)"
           id="g172"><path
             id="path174"
             style="fill:#000000;fill-opacity:1;fill-rule:nonzero;stroke:none"
             d="M 0,0 C 2.158,0.584 4.337,1.049 6.564,1.275 7.037,1.323 8.653,1.686 8.834,1.619 9.335,2.051 9.172,1.85 8.344,1.017 7.982,0.619 7.62,0.221 7.259,-0.177 4.483,-3.228 1.709,-6.278 -1.066,-9.329 c -1.436,-1.579 0.907,-3.934 2.348,-2.349 2.413,2.653 4.826,5.305 7.239,7.958 1.334,1.468 4.224,3.559 4.007,5.833 C 12.044,7.173 1.769,3.92 -0.883,3.203 -2.943,2.646 -2.069,-0.56 0,0" /></g><g
           transform="translate(91.23,132.7349)"
           id="g176"><path
             id="path178"
             style="fill:#000000;fill-opacity:1;fill-rule:nonzero;stroke:none"
             d="m 0,0 c -3.436,-5.718 -7.346,-11.35 -10.386,-17.285 -1.201,-2.346 -2.351,-5.64 0.43,-7.382 3.263,-2.042 8.451,1.106 11.155,2.909 4.481,2.989 8.142,6.925 12.902,9.541 1.874,1.03 0.2,3.899 -1.677,2.868 -5.77,-3.171 -10.83,-10.24 -17.277,-11.865 -1.207,-0.759 -2.356,-0.582 -3.448,0.532 0.429,1.116 0.979,2.17 1.649,3.161 0.822,1.463 1.732,2.883 2.596,4.321 2.308,3.841 4.616,7.682 6.924,11.524 C 3.972,0.161 1.101,1.832 0,0" /></g><g
           transform="translate(102.2456,121.9648)"
           id="g180"><path
             id="path182"
             style="fill:#ffffff;fill-opacity:1;fill-rule:nonzero;stroke:none"
             d="m 0,0 c 0.135,-1.161 -0.836,-2.334 -2.003,-2.415 -0.456,-0.032 -1.087,-0.043 -1.155,-0.495 -0.045,-0.302 0.242,-0.546 0.515,-0.684 1.087,-0.548 2.478,-0.432 3.461,0.286 0.13,-1.236 -1.5,-2.186 -1.267,-3.407 0.16,-0.836 1.091,-1.242 1.898,-1.512 0.499,-0.166 1.124,-0.304 1.489,0.075 0.215,0.223 0.258,0.557 0.284,0.866 0.126,1.465 0.129,2.939 0.009,4.405 -0.079,0.974 -0.238,2.004 -0.874,2.747 -0.635,0.742 -1.901,1.021 -2.586,0.323" /></g><g
           transform="translate(102.1646,121.9648)"
           id="g184"><path
             id="path186"
             style="fill:#000000;fill-opacity:1;fill-rule:nonzero;stroke:none"
             d="m 0,0 c 0.002,-1.632 -0.992,-1.981 -2.285,-2.361 -0.102,-0.031 -0.311,-0.015 -0.401,-0.075 -0.232,-0.151 -0.415,-0.119 -0.47,-0.463 -0.133,-0.821 1.346,-1.069 1.844,-1.102 0.125,-0.008 1.937,0.233 1.808,0.352 0.527,-0.482 -0.563,-1.589 -0.746,-2.004 -0.375,-0.843 -0.2,-1.548 0.547,-2.1 0.633,-0.467 2.057,-1.106 2.763,-0.47 0.828,0.748 0.439,3.135 0.405,4.084 C 3.42,-2.827 3.432,-1.125 2.496,-0.077 1.78,0.724 0.67,0.894 -0.188,0.259 -0.271,0.198 -0.19,0.057 -0.106,0.119 2.441,2.003 3.181,-2.002 3.275,-3.51 3.346,-4.657 3.779,-8.046 1.943,-8.26 c -0.995,-0.117 -2.354,1.382 -2.178,2.228 0.096,0.463 0.514,0.904 0.747,1.302 0.286,0.487 0.452,0.855 0.468,1.422 0.002,0.061 -0.07,0.101 -0.122,0.07 -0.572,-0.349 -1.229,-0.615 -1.911,-0.618 -0.909,-0.209 -1.221,0.042 -0.937,0.752 -0.156,0.381 -0.13,0.584 0.079,0.609 0.258,0.226 0.89,0.237 1.212,0.504 C -0.081,-1.479 0.163,-0.779 0.162,0 0.162,0.104 0,0.104 0,0" /></g><g
           transform="translate(47.0107,160.7041)"
           id="g188"><path
             id="path190"
             style="fill:#231f20;fill-opacity:1;fill-rule:nonzero;stroke:none"
             d="M 0,0 C 0.713,0 0.714,1.107 0,1.107 -0.712,1.107 -0.713,0 0,0" /></g><g
           transform="translate(73.2412,158.376)"
           id="g192"><path
             id="path194"
             style="fill:#231f20;fill-opacity:1;fill-rule:nonzero;stroke:none"
             d="M 0,0 C 0.138,-0.173 0.283,-0.333 0.442,-0.487 0.957,-0.984 1.707,-0.228 1.225,0.296 1.077,0.458 0.93,0.62 0.783,0.783 0.305,1.313 -0.477,0.528 0,0 0.146,-0.163 0.293,-0.326 0.442,-0.487 0.703,-0.226 0.964,0.035 1.225,0.296 1.065,0.45 0.92,0.61 0.783,0.783 0.339,1.34 -0.44,0.552 0,0" /></g><g
           transform="translate(42.0479,163.9453)"
           id="g196"><path
             id="path198"
             style="fill:#eb2030;fill-opacity:1;fill-rule:nonzero;stroke:none"
             d="m 0,0 c -2.042,0.073 -4.056,-0.49 -5.968,-1.209 -1.95,-0.733 -4.095,-1.969 -4.342,-4.037 -0.176,-1.469 0.692,-2.838 1.523,-4.062 0.404,-0.596 0.959,-1.266 1.674,-1.178 0.794,0.098 1.144,1.038 1.291,1.824 0.148,0.787 0.384,1.728 1.148,1.964 -0.467,-1.716 -0.091,-3.639 0.986,-5.054 1.078,-1.415 2.832,-2.288 4.61,-2.295 -1.305,1.291 -1.6,3.485 -0.681,5.075 0.443,-1.138 0.904,-2.305 1.732,-3.202 0.829,-0.897 2.121,-1.475 3.288,-1.117 -1.743,1.061 -2.543,3.445 -1.792,5.343 0.408,1.032 1.227,2.012 1.038,3.107 -0.107,0.618 -0.526,1.136 -0.718,1.733 -0.192,0.597 -0.016,1.426 0.598,1.555 L 5.423,-2.439 C 4.131,-0.856 2.042,-0.073 0,0" /></g><g
           transform="translate(42.0479,164.2241)"
           id="g200"><path
             id="path202"
             style="fill:#000000;fill-opacity:1;fill-rule:nonzero;stroke:none"
             d="m 0,0 c -3.162,-0.044 -8.143,-0.969 -9.999,-3.928 -1.223,-1.949 -0.196,-6.011 2.055,-6.922 0.707,-0.286 1.067,-0.256 1.683,0.23 1.085,0.856 0.817,4.555 1.17,1.444 0.364,-3.218 2.928,-5.17 6.013,-5.428 0.265,-0.023 0.336,0.308 0.198,0.476 -1.157,1.241 -1.426,2.557 -0.807,3.949 0.128,-0.305 0.264,-0.606 0.409,-0.904 0.391,-0.348 0.678,-1.178 1.054,-1.567 0.982,-1.019 2.1,-1.359 3.485,-1.198 0.283,0.033 0.37,0.348 0.141,0.52 -3.513,2.634 -0.655,4.811 -0.628,7.807 0.01,1.112 -1.543,4.313 0.452,2.605 0.27,-0.231 0.645,0.131 0.394,0.395 C 4.054,-0.876 2.239,-0.192 0,0 -0.358,0.031 -0.355,-0.527 0,-0.558 1.139,-0.596 2.222,-0.862 3.249,-1.357 3.732,-1.991 4.331,-2.316 5.042,-2.334 5.652,-2.118 5.131,-2.103 4.584,-1.635 4.496,-1.559 4.352,-1.518 4.247,-1.591 3.418,-2.167 3.586,-2.425 3.51,-3.387 3.509,-3.425 3.517,-3.461 3.534,-3.495 4.035,-4.669 4.053,-5.944 3.589,-7.319 3.393,-8.177 3.141,-8.048 2.984,-8.921 2.795,-9.974 2.983,-11.11 3.489,-12.054 c 0.012,-0.024 0.962,-1.196 0.967,-1.257 0.741,-0.565 -0.02,-0.214 -2.286,1.056 -0.742,0.924 -1.295,1.95 -1.66,3.078 -0.077,0.195 -0.401,0.311 -0.51,0.067 -0.693,-1.546 -0.213,-2.457 -0.214,-3.997 0,-1.194 1.369,-0.667 -0.536,-0.666 -3.078,0.002 -4.054,4.596 -3.655,6.722 0.04,0.213 -0.194,0.472 -0.41,0.316 -0.684,-0.497 -0.545,-0.682 -1.068,-1.292 -0.905,-1.054 1.023,-0.549 -1.435,-1.129 -1.253,-0.296 -1.756,-0.138 -2.174,1.245 -0.49,1.626 0.057,4.177 1.499,5.128 0.645,0.425 1.384,0.744 2.099,1.026 C -4,-1.011 -2.035,-0.586 0,-0.558 0.359,-0.553 0.36,0.005 0,0" /></g><g
           transform="translate(124.6123,199.8896)"
           id="g204"><path
             id="path206"
             style="fill:#eb2030;fill-opacity:1;fill-rule:nonzero;stroke:none"
             d="M 0,0 C -0.604,-0.392 -1.092,-0.936 -1.571,-1.474 -1.586,-1.49 -1.6,-1.506 -1.614,-1.522 c -0.104,0.224 -0.265,0.427 -0.461,0.576 -0.428,0.326 -0.974,0.448 -1.506,0.526 -3.727,0.542 -7.671,-0.85 -10.27,-3.567 1.208,-1.191 -0.098,-0.102 0,0 -0.009,0.009 -0.018,0.02 -0.027,0.029 l -0.266,-0.327 c -1.475,3.832 -3.668,7.639 -7.446,9.069 -2.899,1.098 -6.133,0.545 -9.171,-0.071 -5.991,-1.214 -12.542,-3.026 -15.845,-8.17 -5.192,-0.772 -9.648,-4.649 -11.748,-9.46 -2.1,-4.812 -2.005,-10.405 -0.395,-15.401 1.036,-3.214 -0.499,-2.713 -0.148,0.243 l -0.509,-0.063 c -2.164,-0.958 -4.328,-1.915 -6.492,-2.872 -0.891,-0.394 -1.943,-1.11 -1.761,-2.037 -0.088,0.095 -0.176,0.191 -0.265,0.286 l 0.309,-0.44 c 0.078,-0.224 0.222,-0.41 0.401,-0.572 l 0.036,-0.051 c -2.062,-0.526 -4.231,-0.183 -6.358,-0.242 -2.126,-0.059 -4.467,-0.682 -5.591,-2.487 0.914,0.072 1.763,-0.494 2.395,-1.159 0.631,-0.666 1.134,-1.455 1.836,-2.047 1.214,-1.024 2.859,-1.333 4.425,-1.605 1.345,-0.234 2.707,-0.469 4.068,-0.363 1.361,0.105 2.743,0.59 3.668,1.594 0.284,0.308 0.528,0.724 0.434,1.127 0.526,-0.992 1.053,-1.978 1.865,-2.741 1.304,-1.222 3.276,-1.682 4.985,-1.16 1.648,0.502 3.075,2.202 2.618,3.863 -0.017,0.06 -0.037,0.117 -0.058,0.174 0.614,-0.771 1.252,-1.522 1.911,-2.252 -0.898,1.178 -1.101,2.837 -0.804,4.314 0.34,1.695 1.232,3.219 2.083,4.724 4.453,7.876 8.134,16.188 10.977,24.777 1.684,-2.297 5.334,-2.771 8.355,-2.532 3.448,0.271 7.38,0.803 9.946,-1.515 -0.025,0.766 -0.05,1.533 -0.075,2.299 4.303,-2.705 8.604,-5.411 12.907,-8.116 -2.481,2.137 -3.822,5.178 -4.944,8.31 1.272,-0.391 2.571,-0.775 3.899,-0.735 1.257,0.038 2.565,0.526 3.325,1.509 0.023,-0.114 0.052,-0.228 0.089,-0.342 0.056,0.132 0.111,0.264 0.166,0.396 l -0.237,-0.724 c 2.004,0.051 4.055,0.111 5.918,0.846 1.864,0.736 3.533,2.299 3.816,4.282 0.111,0.77 0.01,1.56 0.154,2.324 0.142,0.764 0.633,1.553 1.398,1.683 C 3.977,0.768 1.726,1.117 0,0" /></g><g
           transform="translate(124.415,200.0869)"
           id="g208"><path
             id="path210"
             style="fill:#000000;fill-opacity:1;fill-rule:nonzero;stroke:none"
             d="m 0,0 c -0.287,-0.235 -1.277,-1.435 -1.571,-1.474 -0.293,-0.039 0.061,0.587 -0.2,0.586 -1.536,-0.007 -2.678,0.775 -4.424,0.603 -2.993,-0.295 -5.487,-1.699 -7.656,-3.701 -0.112,-0.104 -0.101,-0.29 0,-0.395 0.309,-0.322 0.518,0.266 0.368,0.423 -0.097,0.101 -0.301,0.115 -0.395,0 0.401,0.494 -2.474,4.844 -3.143,5.633 -1.559,1.837 -3.473,3.114 -5.847,3.609 -5.964,1.244 -14.879,-1.421 -19.821,-4.815 -2.398,-1.647 -3.932,-3.283 -6.61,-4.598 -2.734,-1.343 -4.97,-2.718 -6.888,-5.161 -2.013,-2.564 -3.196,-5.627 -3.642,-8.846 -0.244,-1.761 -0.248,-3.542 -0.071,-5.31 0.086,-0.859 1.461,-5.441 1.48,-4.826 0.003,0.137 -0.133,0.297 -0.28,0.279 -1.179,-0.147 -9.75,-3.776 -8.829,-4.768 -0.212,0.228 -0.623,-0.075 -0.439,-0.338 1.095,-1.562 1.409,-1.016 -2.167,-0.939 -1.487,0.032 -3.019,0.193 -4.493,-0.054 -1.927,-0.324 -3.242,-0.991 -4.5,-2.461 -0.129,-0.151 -0.095,-0.416 0.124,-0.467 2.518,-0.585 3.384,-2.933 5.57,-4.016 1.643,-0.815 4.007,-1.113 5.867,-1.172 1.415,-0.045 2.931,0.072 4.167,0.844 1.31,0.819 1.013,1.332 1.691,1.063 0.659,-0.262 1.543,-2.182 2.485,-2.682 1.197,-0.636 2.784,-0.819 4.078,-0.376 1.692,0.578 1.784,1.537 2.767,2.743 1.183,1.453 -1.099,1.952 1.399,-0.901 0.217,-0.248 0.577,0.068 0.438,0.338 -2.609,5.088 4.137,13.881 6.248,18.407 1.777,3.81 2.944,8.06 4.855,11.773 1.841,3.581 1.892,1.534 5.241,0.857 4.773,-0.964 9.454,1.427 13.832,-1.65 0.173,-0.123 0.426,0.04 0.419,0.241 -0.091,2.806 3.984,-0.758 5.153,-1.493 2.42,-1.522 4.84,-3.043 7.26,-4.565 0.269,-0.17 0.561,0.216 0.338,0.438 -1.437,1.424 -3.096,3.175 -3.671,5.182 -0.987,3.439 -0.021,2.03 1.769,1.96 0.48,-0.019 4.102,0.185 3.804,1.328 0.076,-0.292 0.44,-0.235 0.539,0 -0.392,0.332 -0.596,0.273 -0.609,-0.179 -0.056,-0.169 0.093,-0.359 0.268,-0.353 2.789,0.092 5.954,0.178 8.155,2.16 1.888,1.701 1.474,5.85 3.273,7.012 C 6.515,0.058 6.518,0.407 6.265,0.45 3.952,0.842 2.2,0.952 0.057,0.043 -0.272,-0.096 0.011,-0.577 0.338,-0.438 1.025,-0.147 4.314,0.943 5.061,-0.226 5.146,-0.36 4.423,-1.109 4.518,-1.465 5.216,-4.077 2.712,-6.721 0.543,-7.802 -0.48,-8.312 -4.851,-9.104 -4.59,-8.305 c 0.114,0.351 -0.404,0.47 -0.538,0.149 l 0.284,-0.054 c -0.055,0.212 -0.314,0.258 -0.467,0.123 -2.371,-1.338 -4.688,-1.572 -6.953,-0.703 -0.191,0.056 -0.419,-0.14 -0.342,-0.343 0.639,-1.705 2.331,-6.906 3.802,-7.136 -1.182,0.185 -3.787,2.498 -4.902,3.2 -2.151,1.352 -4.302,2.705 -6.453,4.058 -0.177,0.111 -0.427,-0.033 -0.42,-0.241 0.074,-2.3 -3.239,-0.333 -5.039,-0.258 -4.439,0.186 -9.11,-1.576 -12.711,2.203 -0.152,0.16 -0.402,0.069 -0.467,-0.123 -2.604,-7.7 -5.776,-15.177 -9.639,-22.334 -1.201,-2.225 -3.011,-4.626 -3.426,-7.204 -0.311,-1.936 1.207,-4.143 -0.635,-1.902 -0.178,0.217 -0.55,-0.016 -0.466,-0.271 -2.967,0.026 -5.934,0.052 -8.901,0.078 -0.149,0.264 -0.488,0.114 -0.52,-0.141 -0.453,-3.606 -7.393,-2.507 -9.39,-1.779 0.648,-0.236 -5.685,3.127 -5.713,4.17 -0.088,3.273 8.299,2.156 10.579,2.522 0.171,0.028 0.263,0.273 0.167,0.41 -0.557,0.795 -0.96,0.483 -0.919,0.44 0.138,-0.149 0.424,-0.081 0.467,0.123 0.211,1.012 7.11,5.417 8.238,4.735 10e-4,0 0.147,-1.954 0.345,-2.265 0.093,-0.148 0.31,-0.191 0.438,-0.057 0.413,0.436 0.107,0.362 0.218,1.124 0.117,0.799 -0.633,2.205 -0.809,3.025 -0.483,2.255 -0.787,4.572 -0.675,6.884 0.2,4.097 1.762,8.343 4.625,11.333 1.281,1.338 2.835,2.532 4.493,3.363 1.128,0.566 3.032,0.625 4.018,1.267 1.656,1.08 2.672,3.117 4.481,4.261 2.588,1.636 5.586,2.557 8.54,3.282 2.803,0.689 6.015,1.577 8.896,1.28 5.586,-0.575 8.248,-4.765 10.169,-9.471 0.07,-0.171 0.319,-0.305 0.466,-0.123 0.204,0.25 -0.013,-0.078 0.517,-0.29 0.274,-0.109 0.449,0.281 0.272,0.467 -0.695,0.724 4.726,3.237 4.771,3.249 1.811,0.471 5.198,1.058 6.575,-0.663 0.091,-0.113 0.302,-0.103 0.395,0 0.512,0.575 1.011,1.029 1.614,1.522 C 0.673,-0.167 0.276,0.226 0,0" /></g><g
           transform="translate(138.5537,205.4551)"
           id="g212"><path
             id="path214"
             style="fill:#eb2030;fill-opacity:1;fill-rule:nonzero;stroke:none"
             d="M 0,0 C 0.634,1.896 -1.023,4.043 -3.006,4.303 -4.988,4.562 -6.947,3.275 -7.934,1.536 -8.979,-0.306 -9.075,-2.654 -8.187,-4.576 l -0.588,0.297 c 0.99,-1.428 2.911,-1.755 4.578,-2.242 1.668,-0.486 3.516,-1.643 3.44,-3.379 0.702,1.839 -0.157,4.136 -1.895,5.062 1.202,0.218 2.511,-0.362 3.155,-1.401 0.403,1.522 -0.073,3.243 -1.2,4.341 C -1.825,-0.8 -3.56,-0.37 -5.069,-0.814 -3.742,0.426 -1.647,0.762 0,0" /></g><g
           transform="translate(138.8232,205.3809)"
           id="g216"><path
             id="path218"
             style="fill:#000000;fill-opacity:1;fill-rule:nonzero;stroke:none"
             d="M 0,0 C 0.591,3.168 -2.444,5.459 -5.416,4.365 -7.003,3.78 -8.228,2.459 -8.848,0.9 c -0.344,-0.869 -0.506,-1.835 -0.49,-2.77 0.006,-0.291 0.027,-0.691 0.092,-0.976 0.148,-0.658 0.746,-1.321 0.343,-1.118 -0.286,0.144 -0.549,-0.197 -0.339,-0.438 2.078,-2.383 7.529,-1.774 7.937,-5.424 0.033,-0.294 0.459,-0.4 0.548,-0.073 0.284,1.05 0.338,2.058 -0.061,3.087 -0.183,0.473 -0.614,0.869 -0.779,1.322 -0.17,0.212 -0.361,0.398 -0.575,0.559 0.931,-0.173 1.667,-0.651 2.208,-1.431 0.127,-0.156 0.434,-0.075 0.467,0.123 0.329,1.971 -0.175,3.907 -1.883,5.105 -0.751,0.526 -1.486,0.563 -2.331,0.823 -0.071,0.023 -0.926,-0.03 -0.932,-0.009 -0.12,0.376 3.954,0.249 4.299,0.125 0.34,-0.12 0.486,0.419 0.149,0.538 -1.963,0.699 -3.703,0.386 -5.341,-0.885 -0.241,-0.187 0.03,-0.514 0.271,-0.467 2.118,0.413 4.649,-0.576 5.203,-2.9 l 0.033,-1.493 c -0.115,0.09 -0.231,0.177 -0.348,0.263 -0.849,0.048 -1.514,0.708 -2.545,0.654 -0.281,-0.015 -0.373,-0.365 -0.141,-0.52 1.349,-0.903 1.892,-2.214 2.12,-3.748 0.146,-0.99 0.16,-0.274 0.079,-0.224 -0.447,0.275 -0.845,1.382 -1.383,1.784 -0.745,0.556 -1.631,0.853 -2.509,1.117 -0.605,0.182 -1.234,0.31 -1.826,0.536 -0.242,0.092 -2.916,1.252 -2.015,0.797 0.197,-0.099 0.503,0.07 0.41,0.315 -0.736,1.943 -0.854,4.028 0.225,5.897 0.697,1.218 1.727,2.053 3.089,2.508 2.957,0.355 4.401,-0.921 4.335,-3.829 C -0.604,-0.203 -0.066,-0.353 0,0" /></g><g
           transform="translate(77.5361,198.4634)"
           id="g220"><path
             id="path222"
             style="fill:#231f20;fill-opacity:1;fill-rule:nonzero;stroke:none"
             d="m 0,0 c -0.031,-0.002 -0.063,-0.005 -0.094,-0.008 -0.383,-0.034 -0.736,-0.456 -0.478,-0.833 0.033,-0.048 0.066,-0.096 0.099,-0.145 0.292,-0.427 1.05,-0.305 1.032,0.28 -0.002,0.051 -0.004,0.102 -0.005,0.153 -0.022,0.71 -1.13,0.714 -1.108,0 0.002,-0.051 0.004,-0.102 0.005,-0.153 0.344,0.093 0.688,0.186 1.032,0.279 C 0.45,-0.379 0.417,-0.331 0.384,-0.282 0.225,-0.56 0.065,-0.837 -0.094,-1.115 -0.063,-1.112 -0.031,-1.11 0,-1.107 0.704,-1.044 0.711,0.063 0,0" /></g><g
           transform="translate(77.2832,200.1504)"
           id="g224"><path
             id="path226"
             style="fill:#eb2030;fill-opacity:1;fill-rule:nonzero;stroke:none"
             d="M 0,0 C 0.327,0.739 0.99,1.27 1.662,1.72 3.389,2.879 5.335,3.709 7.367,4.152 L 7.045,4.538 C 5.093,4.89 2.993,4.299 1.511,2.982 0.067,1.698 -0.758,-0.249 -0.688,-2.178 -0.305,-2.151 0.081,-2.149 0.465,-2.183 -0.207,-1.732 -0.327,-0.739 0,0" /></g><g
           transform="translate(77.5239,200.0093)"
           id="g228"><path
             id="path230"
             style="fill:#000000;fill-opacity:1;fill-rule:nonzero;stroke:none"
             d="M 0,0 C 1.299,2.329 4.771,3.45 7.201,4.024 7.42,4.077 7.451,4.339 7.324,4.491 6.066,5.994 2.789,4.634 1.512,3.678 -0.293,2.326 -1.204,0.183 -1.208,-2.037 c 0,-0.147 0.128,-0.285 0.279,-0.279 0.385,0.029 0.769,0.027 1.153,-0.005 0.238,-0.01 0.373,0.315 0.197,0.477 -0.573,0.59 -0.704,1.226 -0.393,1.911 0.112,0.342 -0.427,0.489 -0.538,0.148 -0.304,-0.936 -0.201,-1.776 0.537,-2.454 0.065,0.159 0.131,0.318 0.197,0.476 -1.197,0.052 -0.9,0.834 -0.596,1.793 C -0.07,0.977 0.418,1.877 1.12,2.591 1.774,3.258 2.585,3.785 3.463,4.106 4.267,4.4 6.238,4.922 6.929,4.096 6.97,4.252 7.011,4.407 7.052,4.563 4.457,3.949 0.901,2.76 -0.482,0.282 -0.657,-0.032 -0.175,-0.314 0,0" /></g><g
           transform="translate(75.8589,196.0762)"
           id="g232"><path
             id="path234"
             style="fill:#231f20;fill-opacity:1;fill-rule:nonzero;stroke:none"
             d="M 0,0 C -0.043,0.521 -0.187,0.985 -0.466,1.429 -0.638,1.702 -0.943,1.755 -1.224,1.628 -1.287,1.6 -1.35,1.57 -1.413,1.541 -1.689,1.41 -1.745,1.027 -1.611,0.783 -1.418,0.429 -1.225,0.075 -1.032,-0.279 -0.69,-0.905 0.266,-0.347 -0.076,0.279 -0.269,0.634 -0.462,0.988 -0.655,1.342 -0.722,1.089 -0.788,0.837 -0.854,0.584 c 0.062,0.03 0.125,0.06 0.189,0.088 C -0.917,0.738 -1.17,0.804 -1.422,0.871 -1.25,0.597 -1.134,0.326 -1.107,0 -1.049,-0.705 0.059,-0.711 0,0" /></g><g
           transform="translate(72.6885,196.1689)"
           id="g236"><path
             id="path238"
             style="fill:#eb2030;fill-opacity:1;fill-rule:nonzero;stroke:none"
             d="m 0,0 c 1.165,0.085 2.43,-0.469 3.053,-1.397 0.794,0.373 1.654,0.602 2.528,0.675 C 4.964,0.182 4.278,1.104 3.266,1.498 2.351,1.854 1.314,1.714 0.38,1.414 -1.485,0.814 -3.14,-0.418 -4.249,-2.033 -2.979,-1.072 -1.589,-0.117 0,0" /></g><g
           transform="translate(72.6885,195.8896)"
           id="g240"><path
             id="path242"
             style="fill:#000000;fill-opacity:1;fill-rule:nonzero;stroke:none"
             d="m 0,0 c 1.116,-0.018 2.137,-0.458 2.856,-1.315 0.057,-0.068 0.188,-0.106 0.271,-0.072 0.838,0.348 1.525,0.546 2.454,0.666 0.187,0.024 0.376,0.225 0.24,0.42 C 4.643,1.386 3.361,2.554 1.169,2.172 -1.163,1.767 -3.116,0.25 -4.49,-1.613 c -0.163,-0.22 0.161,-0.545 0.382,-0.382 1.294,0.962 2.549,1.778 4.182,2.005 0.354,0.049 0.204,0.587 -0.148,0.538 -1.671,-0.232 -2.983,-1.07 -4.316,-2.061 l 0.382,-0.382 c 1.032,1.399 2.322,2.474 3.95,3.116 2.356,0.929 3.987,0.214 5.397,-1.804 0.081,0.14 0.161,0.28 0.242,0.42 C 5.124,-0.222 4.667,-0.344 4.213,-0.399 3.25,-0.514 3.268,-0.504 2.413,-0.105 1.576,0.285 0.954,0.543 0,0.558 -0.359,0.564 -0.359,0.006 0,0" /></g><g
           transform="translate(127.4492,158.9873)"
           id="g244"><path
             id="path246"
             style="fill:#f26b73;fill-opacity:1;fill-rule:nonzero;stroke:none"
             d="m 0,0 c -1.285,-2.352 -3.544,-6.568 -4.538,-9.069 -3.519,-8.855 -12.687,-14.902 -22.002,-14.512 -5.347,0.224 -10.91,2.327 -15.883,0.372 6.722,-5.997 13.575,-11.482 22.013,-14.265 2.977,-0.981 6.38,-2.371 9.481,-2.155 3.102,0.215 6.979,3.06 8.849,5.599 1.746,2.372 3.79,8.717 4.053,11.7 C 2.62,-14.979 2.37,-12.144 1.228,-4.831 1.193,-4.504 -0.164,-0.307 0,0" /></g><g
           transform="translate(127.3301,159.0571)"
           id="g248"><path
             id="path250"
             style="fill:#231f20;fill-opacity:1;fill-rule:nonzero;stroke:none"
             d="m 0,0 c -4.107,-7.551 -6.613,-15.917 -14.506,-20.478 -4.201,-2.428 -8.902,-3.336 -13.704,-2.898 -4.902,0.447 -9.297,1.698 -14.131,0.23 -0.095,-0.028 -0.142,-0.159 -0.061,-0.231 6.19,-5.48 12.698,-10.772 20.51,-13.747 6.72,-2.558 12.579,-4.323 18.293,1.01 4.267,3.981 5.663,10.666 6.026,16.259 0.253,3.92 0.085,7.741 -0.445,11.629 -0.362,2.661 -1.612,5.504 -1.724,8.156 -0.008,0.177 -0.284,0.178 -0.278,0 0.152,-3.565 1.721,-7.372 2.074,-10.984 0.515,-5.295 0.409,-10.914 -1.133,-16.033 -2.344,-7.784 -7.593,-13.908 -16.481,-11.849 -6.625,1.533 -12.88,4.868 -18.317,8.873 -1.198,0.881 -8.139,5.069 -6.712,7.16 0.684,1.002 5.951,0.097 6.969,-0.021 1.508,-0.175 3.003,-0.44 4.511,-0.616 4.502,-0.524 8.741,-0.064 12.881,1.865 9.235,4.303 11.934,13.201 16.466,21.535 C 0.324,0.017 0.085,0.157 0,0" /></g><g
           transform="translate(124.8076,153.3584)"
           id="g252"><path
             id="path254"
             style="fill:#0380c2;fill-opacity:1;fill-rule:nonzero;stroke:none"
             d="m 0,0 c 0.501,-1.691 2.049,-3.022 3.796,-3.263 1.045,-5.432 1.952,-11.562 -1.258,-16.067 -1.427,-2.002 -3.516,-3.42 -5.595,-4.732 -4.667,-2.948 -9.524,-5.595 -14.531,-7.918 -3.167,1.318 -6.334,2.635 -9.5,3.953 -1.307,0.544 -2.692,1.151 -3.463,2.338 -0.324,0.497 -0.516,1.065 -0.706,1.627 -0.834,2.475 -1.669,4.949 -2.503,7.422 1.489,-0.551 2.976,-1.102 4.465,-1.653 2.302,-0.854 4.633,-1.714 7.074,-1.983 6.623,-0.731 12.936,2.965 18.006,7.288 1.321,1.127 2.648,2.378 3.208,4.022 0.56,1.644 0.076,3.771 -1.488,4.525 0.716,1.303 1.433,2.606 2.149,3.909" /></g><g
           transform="translate(124.6875,153.2886)"
           id="g256"><path
             id="path258"
             style="fill:#231f20;fill-opacity:1;fill-rule:nonzero;stroke:none"
             d="m 0,0 c 0.556,-1.181 1.158,-1.718 2.034,-2.582 2.115,-2.085 2.435,-3.635 2.638,-6.702 0.503,-7.591 -3.093,-11.795 -9.241,-15.561 -4.711,-2.885 -10.452,-7.423 -16.029,-5.614 -4.817,1.562 -8.826,3.365 -11.031,8.36 -0.25,0.565 -1.454,3.174 -1.251,3.711 0.646,1.715 1.55,0.813 2.924,0.306 9.074,-3.343 16.173,-2.475 23.967,3.465 2.091,1.594 4.89,3.537 5.347,6.331 0.125,0.763 0.041,1.266 -0.073,2.056 -0.055,0.379 -0.527,0.791 -0.591,1.163 -0.381,2.207 0.185,2.69 1.2,4.535 0.085,0.157 -0.154,0.296 -0.24,0.14 -0.716,-1.303 -1.432,-2.607 -2.149,-3.91 -0.027,-0.05 -0.026,-0.129 0.021,-0.168 0.306,-1.84 0.611,-3.679 0.915,-5.52 -0.551,-0.653 -1.102,-1.305 -1.654,-1.958 -1.273,-1.279 -2.81,-2.388 -4.279,-3.429 -2.462,-1.745 -5.241,-3.291 -8.16,-4.092 -6.371,-1.746 -12.084,0.859 -17.951,3.032 -0.098,0.037 -0.202,-0.074 -0.17,-0.169 0.909,-2.698 1.496,-6.721 3.233,-9.098 1.218,-1.667 3.299,-2.28 5.118,-3.045 2.153,-0.906 5.703,-3.329 7.954,-3.3 2.166,0.028 5.597,2.731 7.461,3.747 4.654,2.535 10.927,5.316 13.561,10.24 2.425,4.53 1.386,10.119 0.496,14.906 C 4.041,-3.109 3.997,-3.073 3.953,-3.06 2.715,-1.993 1.478,-0.927 0.239,0.14 0.163,0.301 -0.075,0.161 0,0" /></g><g
           transform="translate(130.5088,94.6377)"
           id="g260"><path
             id="path262"
             style="fill:#ffffff;fill-opacity:1;fill-rule:nonzero;stroke:none"
             d="M 0,0 -0.755,3.548 0.083,3.725 0.785,0.167 0,0 Z" /></g><g
           transform="translate(130.5088,94.6377)"
           id="g264"><path
             id="path266"
             style="fill:none;stroke:#231f20;stroke-width:0.018;stroke-linecap:butt;stroke-linejoin:miter;stroke-miterlimit:10;stroke-dasharray:none;stroke-opacity:1"
             d="M 0,0 -0.755,3.548 0.083,3.725 0.785,0.167 0,0 Z" /></g><g
           transform="translate(130.5088,94.6377)"
           id="g268"><path
             id="path270"
             style="fill:#ffffff;fill-opacity:1;fill-rule:nonzero;stroke:none"
             d="M 0,0 -0.755,3.548 0.083,3.725 0.785,0.167 0,0 Z" /></g><g
           transform="translate(130.5088,94.6377)"
           id="g272"><path
             id="path274"
             style="fill:none;stroke:#231f20;stroke-width:0.018;stroke-linecap:butt;stroke-linejoin:miter;stroke-miterlimit:10;stroke-dasharray:none;stroke-opacity:1"
             d="M 0,0 -0.755,3.548 0.083,3.725 0.785,0.167 0,0 Z" /></g><g
           transform="translate(130.5088,94.6377)"
           id="g276"><path
             id="path278"
             style="fill:#ffffff;fill-opacity:1;fill-rule:nonzero;stroke:none"
             d="M 0,0 -0.755,3.548 0.083,3.725 0.785,0.167 0,0 Z" /></g><g
           transform="translate(130.5088,94.6377)"
           id="g280"><path
             id="path282"
             style="fill:none;stroke:#231f20;stroke-width:0.018;stroke-linecap:butt;stroke-linejoin:miter;stroke-miterlimit:10;stroke-dasharray:none;stroke-opacity:1"
             d="M 0,0 -0.755,3.548 0.083,3.725 0.785,0.167 0,0 Z" /></g><g
           transform="translate(129.7812,94.4688)"
           id="g284"><path
             id="path286"
             style="fill:#be1e2d;fill-opacity:1;fill-rule:nonzero;stroke:none"
             d="M 0,0 -0.831,3.53 0.017,3.727 0.769,0.178 0,0 Z" /></g><g
           transform="translate(129.7812,94.4688)"
           id="g288"><path
             id="path290"
             style="fill:none;stroke:#231f20;stroke-width:0.018;stroke-linecap:butt;stroke-linejoin:miter;stroke-miterlimit:10;stroke-dasharray:none;stroke-opacity:1"
             d="M 0,0 -0.831,3.53 0.017,3.727 0.769,0.178 0,0 Z" /></g><g
           transform="translate(129.0371,94.3232)"
           id="g292"><path
             id="path294"
             style="fill:#ffffff;fill-opacity:1;fill-rule:nonzero;stroke:none"
             d="m 0,0 -0.842,3.528 c 0.286,0.066 0.575,0.14 0.859,0.194 L 0.758,0.171 C 0.498,0.122 0.251,0.059 0,0" /></g><g
           transform="translate(129.0371,94.3232)"
           id="g296"><path
             id="path298"
             style="fill:none;stroke:#231f20;stroke-width:0.018;stroke-linecap:butt;stroke-linejoin:miter;stroke-miterlimit:10;stroke-dasharray:none;stroke-opacity:1"
             d="m 0,0 -0.842,3.528 c 0.286,0.066 0.575,0.14 0.859,0.194 L 0.758,0.171 C 0.498,0.122 0.251,0.059 0,0 Z" /></g><g
           transform="translate(129.0371,94.3232)"
           id="g300"><path
             id="path302"
             style="fill:#ffffff;fill-opacity:1;fill-rule:nonzero;stroke:none"
             d="m 0,0 -0.842,3.528 c 0.286,0.066 0.575,0.14 0.859,0.194 L 0.758,0.171 C 0.498,0.122 0.251,0.059 0,0" /></g><g
           transform="translate(129.0371,94.3232)"
           id="g304"><path
             id="path306"
             style="fill:none;stroke:#231f20;stroke-width:0.018;stroke-linecap:butt;stroke-linejoin:miter;stroke-miterlimit:10;stroke-dasharray:none;stroke-opacity:1"
             d="m 0,0 -0.842,3.528 c 0.286,0.066 0.575,0.14 0.859,0.194 L 0.758,0.171 C 0.498,0.122 0.251,0.059 0,0 Z" /></g><g
           transform="translate(129.0371,94.3232)"
           id="g308"><path
             id="path310"
             style="fill:#ffffff;fill-opacity:1;fill-rule:nonzero;stroke:none"
             d="m 0,0 -0.842,3.528 c 0.286,0.066 0.575,0.14 0.859,0.194 L 0.758,0.171 C 0.498,0.122 0.251,0.059 0,0" /></g><g
           transform="translate(129.0371,94.3232)"
           id="g312"><path
             id="path314"
             style="fill:none;stroke:#231f20;stroke-width:0.018;stroke-linecap:butt;stroke-linejoin:miter;stroke-miterlimit:10;stroke-dasharray:none;stroke-opacity:1"
             d="m 0,0 -0.842,3.528 c 0.286,0.066 0.575,0.14 0.859,0.194 L 0.758,0.171 C 0.498,0.122 0.251,0.059 0,0 Z" /></g><g
           transform="translate(128.332,94.1426)"
           id="g316"><path
             id="path318"
             style="fill:#be1e2d;fill-opacity:1;fill-rule:nonzero;stroke:none"
             d="m 0,0 -0.952,3.499 c 0.287,0.084 0.574,0.155 0.86,0.221 L 0.744,0.19 C 0.492,0.133 0.242,0.072 0,0" /></g><g
           transform="translate(128.332,94.1426)"
           id="g320"><path
             id="path322"
             style="fill:none;stroke:#231f20;stroke-width:0.018;stroke-linecap:butt;stroke-linejoin:miter;stroke-miterlimit:10;stroke-dasharray:none;stroke-opacity:1"
             d="m 0,0 -0.952,3.499 c 0.287,0.084 0.574,0.155 0.86,0.221 L 0.744,0.19 C 0.492,0.133 0.242,0.072 0,0 Z" /></g><g
           transform="translate(127.5938,93.9258)"
           id="g324"><path
             id="path326"
             style="fill:#ffffff;fill-opacity:1;fill-rule:nonzero;stroke:none"
             d="m 0,0 -1.085,3.461 c 0.284,0.1 0.572,0.169 0.859,0.252 L 0.729,0.214 C 0.486,0.142 0.235,0.086 0,0" /></g><g
           transform="translate(127.5938,93.9258)"
           id="g328"><path
             id="path330"
             style="fill:none;stroke:#231f20;stroke-width:0.018;stroke-linecap:butt;stroke-linejoin:miter;stroke-miterlimit:10;stroke-dasharray:none;stroke-opacity:1"
             d="m 0,0 -1.085,3.461 c 0.284,0.1 0.572,0.169 0.859,0.252 L 0.729,0.214 C 0.486,0.142 0.235,0.086 0,0 Z" /></g><g
           transform="translate(127.5938,93.9258)"
           id="g332"><path
             id="path334"
             style="fill:#ffffff;fill-opacity:1;fill-rule:nonzero;stroke:none"
             d="m 0,0 -1.085,3.461 c 0.284,0.1 0.572,0.169 0.859,0.252 L 0.729,0.214 C 0.486,0.142 0.235,0.086 0,0" /></g><g
           transform="translate(127.5938,93.9258)"
           id="g336"><path
             id="path338"
             style="fill:none;stroke:#231f20;stroke-width:0.018;stroke-linecap:butt;stroke-linejoin:miter;stroke-miterlimit:10;stroke-dasharray:none;stroke-opacity:1"
             d="m 0,0 -1.085,3.461 c 0.284,0.1 0.572,0.169 0.859,0.252 L 0.729,0.214 C 0.486,0.142 0.235,0.086 0,0 Z" /></g><g
           transform="translate(127.5938,93.9258)"
           id="g340"><path
             id="path342"
             style="fill:#ffffff;fill-opacity:1;fill-rule:nonzero;stroke:none"
             d="m 0,0 -1.085,3.461 c 0.284,0.1 0.572,0.169 0.859,0.252 L 0.729,0.214 C 0.486,0.142 0.235,0.086 0,0" /></g><g
           transform="translate(127.5938,93.9258)"
           id="g344"><path
             id="path346"
             style="fill:none;stroke:#231f20;stroke-width:0.018;stroke-linecap:butt;stroke-linejoin:miter;stroke-miterlimit:10;stroke-dasharray:none;stroke-opacity:1"
             d="m 0,0 -1.085,3.461 c 0.284,0.1 0.572,0.169 0.859,0.252 L 0.729,0.214 C 0.486,0.142 0.235,0.086 0,0 Z" /></g><g
           transform="translate(126.915,93.7021)"
           id="g348"><path
             id="path350"
             style="fill:#be1e2d;fill-opacity:1;fill-rule:nonzero;stroke:none"
             d="M 0,0 -1.218,3.417 -0.362,3.699 0.716,0.236 0,0 Z" /></g><g
           transform="translate(126.915,93.7021)"
           id="g352"><path
             id="path354"
             style="fill:none;stroke:#231f20;stroke-width:0.018;stroke-linecap:butt;stroke-linejoin:miter;stroke-miterlimit:10;stroke-dasharray:none;stroke-opacity:1"
             d="M 0,0 -1.218,3.417 -0.362,3.699 0.716,0.236 0,0 Z" /></g><g
           transform="translate(135.4033,95.5195)"
           id="g356"><path
             id="path358"
             style="fill:#ffffff;fill-opacity:1;fill-rule:nonzero;stroke:none"
             d="m 0,0 -0.94,3.503 c 0.244,0.066 0.487,0.133 0.716,0.215 L 0.872,0.261 C 0.58,0.164 0.289,0.074 0,0" /></g><g
           transform="translate(135.4033,95.5195)"
           id="g360"><path
             id="path362"
             style="fill:none;stroke:#231f20;stroke-width:0.018;stroke-linecap:butt;stroke-linejoin:miter;stroke-miterlimit:10;stroke-dasharray:none;stroke-opacity:1"
             d="m 0,0 -0.94,3.503 c 0.244,0.066 0.487,0.133 0.716,0.215 L 0.872,0.261 C 0.58,0.164 0.289,0.074 0,0 Z" /></g><g
           transform="translate(135.4033,95.5195)"
           id="g364"><path
             id="path366"
             style="fill:#ffffff;fill-opacity:1;fill-rule:nonzero;stroke:none"
             d="m 0,0 -0.94,3.503 c 0.244,0.066 0.487,0.133 0.716,0.215 L 0.872,0.261 C 0.58,0.164 0.289,0.074 0,0" /></g><g
           transform="translate(135.4033,95.5195)"
           id="g368"><path
             id="path370"
             style="fill:none;stroke:#231f20;stroke-width:0.018;stroke-linecap:butt;stroke-linejoin:miter;stroke-miterlimit:10;stroke-dasharray:none;stroke-opacity:1"
             d="m 0,0 -0.94,3.503 c 0.244,0.066 0.487,0.133 0.716,0.215 L 0.872,0.261 C 0.58,0.164 0.289,0.074 0,0 Z" /></g><g
           transform="translate(135.4033,95.5195)"
           id="g372"><path
             id="path374"
             style="fill:#ffffff;fill-opacity:1;fill-rule:nonzero;stroke:none"
             d="m 0,0 -0.94,3.503 c 0.244,0.066 0.487,0.133 0.716,0.215 L 0.872,0.261 C 0.58,0.164 0.289,0.074 0,0" /></g><g
           transform="translate(135.4033,95.5195)"
           id="g376"><path
             id="path378"
             style="fill:none;stroke:#231f20;stroke-width:0.018;stroke-linecap:butt;stroke-linejoin:miter;stroke-miterlimit:10;stroke-dasharray:none;stroke-opacity:1"
             d="m 0,0 -0.94,3.503 c 0.244,0.066 0.487,0.133 0.716,0.215 L 0.872,0.261 C 0.58,0.164 0.289,0.074 0,0 Z" /></g><g
           transform="translate(134.584,95.3086)"
           id="g380"><path
             id="path382"
             style="fill:#be1e2d;fill-opacity:1;fill-rule:nonzero;stroke:none"
             d="m 0,0 -0.826,3.531 c 0.256,0.058 0.503,0.123 0.743,0.194 L 0.865,0.224 C 0.576,0.146 0.284,0.062 0,0" /></g><g
           transform="translate(134.584,95.3086)"
           id="g384"><path
             id="path386"
             style="fill:none;stroke:#231f20;stroke-width:0.018;stroke-linecap:butt;stroke-linejoin:miter;stroke-miterlimit:10;stroke-dasharray:none;stroke-opacity:1"
             d="m 0,0 -0.826,3.531 c 0.256,0.058 0.503,0.123 0.743,0.194 L 0.865,0.224 C 0.576,0.146 0.284,0.062 0,0 Z" /></g><g
           transform="translate(133.7422,95.1641)"
           id="g388"><path
             id="path390"
             style="fill:#ffffff;fill-opacity:1;fill-rule:nonzero;stroke:none"
             d="M 0,0 -0.661,3.566 0.108,3.72 0.857,0.171 0,0 Z" /></g><g
           transform="translate(133.7422,95.1641)"
           id="g392"><path
             id="path394"
             style="fill:none;stroke:#231f20;stroke-width:0.018;stroke-linecap:butt;stroke-linejoin:miter;stroke-miterlimit:10;stroke-dasharray:none;stroke-opacity:1"
             d="M 0,0 -0.661,3.566 0.108,3.72 0.857,0.171 0,0 Z" /></g><g
           transform="translate(133.7422,95.1641)"
           id="g396"><path
             id="path398"
             style="fill:#ffffff;fill-opacity:1;fill-rule:nonzero;stroke:none"
             d="M 0,0 -0.661,3.566 0.108,3.72 0.857,0.171 0,0 Z" /></g><g
           transform="translate(133.7422,95.1641)"
           id="g400"><path
             id="path402"
             style="fill:none;stroke:#231f20;stroke-width:0.018;stroke-linecap:butt;stroke-linejoin:miter;stroke-miterlimit:10;stroke-dasharray:none;stroke-opacity:1"
             d="M 0,0 -0.661,3.566 0.108,3.72 0.857,0.171 0,0 Z" /></g><g
           transform="translate(133.7422,95.1641)"
           id="g404"><path
             id="path406"
             style="fill:#ffffff;fill-opacity:1;fill-rule:nonzero;stroke:none"
             d="M 0,0 -0.661,3.566 0.108,3.72 0.857,0.171 0,0 Z" /></g><g
           transform="translate(133.7422,95.1641)"
           id="g408"><path
             id="path410"
             style="fill:none;stroke:#231f20;stroke-width:0.018;stroke-linecap:butt;stroke-linejoin:miter;stroke-miterlimit:10;stroke-dasharray:none;stroke-opacity:1"
             d="M 0,0 -0.661,3.566 0.108,3.72 0.857,0.171 0,0 Z" /></g><g
           transform="translate(132.9443,95.0205)"
           id="g412"><path
             id="path414"
             style="fill:#be1e2d;fill-opacity:1;fill-rule:nonzero;stroke:none"
             d="M 0,0 -0.612,3.575 0.178,3.718 0.843,0.151 0,0 Z" /></g><g
           transform="translate(132.9443,95.0205)"
           id="g416"><path
             id="path418"
             style="fill:none;stroke:#231f20;stroke-width:0.018;stroke-linecap:butt;stroke-linejoin:miter;stroke-miterlimit:10;stroke-dasharray:none;stroke-opacity:1"
             d="M 0,0 -0.612,3.575 0.178,3.718 0.843,0.151 0,0 Z" /></g><g
           transform="translate(132.1084,94.8789)"
           id="g420"><path
             id="path422"
             style="fill:#ffffff;fill-opacity:1;fill-rule:nonzero;stroke:none"
             d="M 0,0 -0.597,3.578 0.214,3.715 0.825,0.141 0,0 Z" /></g><g
           transform="translate(132.1084,94.8789)"
           id="g424"><path
             id="path426"
             style="fill:none;stroke:#231f20;stroke-width:0.018;stroke-linecap:butt;stroke-linejoin:miter;stroke-miterlimit:10;stroke-dasharray:none;stroke-opacity:1"
             d="M 0,0 -0.597,3.578 0.214,3.715 0.825,0.141 0,0 Z" /></g><g
           transform="translate(132.1084,94.8789)"
           id="g428"><path
             id="path430"
             style="fill:#ffffff;fill-opacity:1;fill-rule:nonzero;stroke:none"
             d="M 0,0 -0.597,3.578 0.214,3.715 0.825,0.141 0,0 Z" /></g><g
           transform="translate(132.1084,94.8789)"
           id="g432"><path
             id="path434"
             style="fill:none;stroke:#231f20;stroke-width:0.018;stroke-linecap:butt;stroke-linejoin:miter;stroke-miterlimit:10;stroke-dasharray:none;stroke-opacity:1"
             d="M 0,0 -0.597,3.578 0.214,3.715 0.825,0.141 0,0 Z" /></g><g
           transform="translate(132.1084,94.8789)"
           id="g436"><path
             id="path438"
             style="fill:#ffffff;fill-opacity:1;fill-rule:nonzero;stroke:none"
             d="M 0,0 -0.597,3.578 0.214,3.715 0.825,0.141 0,0 Z" /></g><g
           transform="translate(132.1084,94.8789)"
           id="g440"><path
             id="path442"
             style="fill:none;stroke:#231f20;stroke-width:0.018;stroke-linecap:butt;stroke-linejoin:miter;stroke-miterlimit:10;stroke-dasharray:none;stroke-opacity:1"
             d="M 0,0 -0.597,3.578 0.214,3.715 0.825,0.141 0,0 Z" /></g><g
           transform="translate(131.3428,94.749)"
           id="g444"><path
             id="path446"
             style="fill:#be1e2d;fill-opacity:1;fill-rule:nonzero;stroke:none"
             d="M 0,0 -0.613,3.575 0.213,3.715 0.808,0.138 0,0 Z" /></g><g
           transform="translate(131.3428,94.749)"
           id="g448"><path
             id="path450"
             style="fill:none;stroke:#231f20;stroke-width:0.018;stroke-linecap:butt;stroke-linejoin:miter;stroke-miterlimit:10;stroke-dasharray:none;stroke-opacity:1"
             d="M 0,0 -0.613,3.575 0.213,3.715 0.808,0.138 0,0 Z" /></g><g
           transform="translate(140.457,97.6504)"
           id="g452"><path
             id="path454"
             style="fill:#ffffff;fill-opacity:1;fill-rule:nonzero;stroke:none"
             d="m 0,0 -2.094,2.965 c 0.198,0.127 0.372,0.294 0.559,0.436 L 0.746,0.58 C 0.498,0.387 0.255,0.187 0,0" /></g><g
           transform="translate(140.457,97.6504)"
           id="g456"><path
             id="path458"
             style="fill:none;stroke:#231f20;stroke-width:0.018;stroke-linecap:butt;stroke-linejoin:miter;stroke-miterlimit:10;stroke-dasharray:none;stroke-opacity:1"
             d="m 0,0 -2.094,2.965 c 0.198,0.127 0.372,0.294 0.559,0.436 L 0.746,0.58 C 0.498,0.387 0.255,0.187 0,0 Z" /></g><g
           transform="translate(140.457,97.6504)"
           id="g460"><path
             id="path462"
             style="fill:#ffffff;fill-opacity:1;fill-rule:nonzero;stroke:none"
             d="m 0,0 -2.094,2.965 c 0.198,0.127 0.372,0.294 0.559,0.436 L 0.746,0.58 C 0.498,0.387 0.255,0.187 0,0" /></g><g
           transform="translate(140.457,97.6504)"
           id="g464"><path
             id="path466"
             style="fill:none;stroke:#231f20;stroke-width:0.018;stroke-linecap:butt;stroke-linejoin:miter;stroke-miterlimit:10;stroke-dasharray:none;stroke-opacity:1"
             d="m 0,0 -2.094,2.965 c 0.198,0.127 0.372,0.294 0.559,0.436 L 0.746,0.58 C 0.498,0.387 0.255,0.187 0,0 Z" /></g><g
           transform="translate(140.457,97.6504)"
           id="g468"><path
             id="path470"
             style="fill:#ffffff;fill-opacity:1;fill-rule:nonzero;stroke:none"
             d="m 0,0 -2.094,2.965 c 0.198,0.127 0.372,0.294 0.559,0.436 L 0.746,0.58 C 0.498,0.387 0.255,0.187 0,0" /></g><g
           transform="translate(140.457,97.6504)"
           id="g472"><path
             id="path474"
             style="fill:none;stroke:#231f20;stroke-width:0.018;stroke-linecap:butt;stroke-linejoin:miter;stroke-miterlimit:10;stroke-dasharray:none;stroke-opacity:1"
             d="m 0,0 -2.094,2.965 c 0.198,0.127 0.372,0.294 0.559,0.436 L 0.746,0.58 C 0.498,0.387 0.255,0.187 0,0 Z" /></g><g
           transform="translate(139.7061,97.1504)"
           id="g476"><path
             id="path478"
             style="fill:#be1e2d;fill-opacity:1;fill-rule:nonzero;stroke:none"
             d="M 0,0 -1.896,3.087 -1.312,3.486 0.792,0.528 0,0 Z" /></g><g
           transform="translate(139.7061,97.1504)"
           id="g480"><path
             id="path482"
             style="fill:none;stroke:#231f20;stroke-width:0.018;stroke-linecap:butt;stroke-linejoin:miter;stroke-miterlimit:10;stroke-dasharray:none;stroke-opacity:1"
             d="M 0,0 -1.896,3.087 -1.312,3.486 0.792,0.528 0,0 Z" /></g><g
           transform="translate(138.876,96.7275)"
           id="g484"><path
             id="path486"
             style="fill:#ffffff;fill-opacity:1;fill-rule:nonzero;stroke:none"
             d="m 0,0 -1.623,3.243 c 0.206,0.114 0.42,0.213 0.62,0.336 L 0.837,0.454 C 0.567,0.286 0.279,0.151 0,0" /></g><g
           transform="translate(138.876,96.7275)"
           id="g488"><path
             id="path490"
             style="fill:none;stroke:#231f20;stroke-width:0.018;stroke-linecap:butt;stroke-linejoin:miter;stroke-miterlimit:10;stroke-dasharray:none;stroke-opacity:1"
             d="m 0,0 -1.623,3.243 c 0.206,0.114 0.42,0.213 0.62,0.336 L 0.837,0.454 C 0.567,0.286 0.279,0.151 0,0 Z" /></g><g
           transform="translate(138.876,96.7275)"
           id="g492"><path
             id="path494"
             style="fill:#ffffff;fill-opacity:1;fill-rule:nonzero;stroke:none"
             d="m 0,0 -1.623,3.243 c 0.206,0.114 0.42,0.213 0.62,0.336 L 0.837,0.454 C 0.567,0.286 0.279,0.151 0,0" /></g><g
           transform="translate(138.876,96.7275)"
           id="g496"><path
             id="path498"
             style="fill:none;stroke:#231f20;stroke-width:0.018;stroke-linecap:butt;stroke-linejoin:miter;stroke-miterlimit:10;stroke-dasharray:none;stroke-opacity:1"
             d="m 0,0 -1.623,3.243 c 0.206,0.114 0.42,0.213 0.62,0.336 L 0.837,0.454 C 0.567,0.286 0.279,0.151 0,0 Z" /></g><g
           transform="translate(138.876,96.7275)"
           id="g500"><path
             id="path502"
             style="fill:#ffffff;fill-opacity:1;fill-rule:nonzero;stroke:none"
             d="m 0,0 -1.623,3.243 c 0.206,0.114 0.42,0.213 0.62,0.336 L 0.837,0.454 C 0.567,0.286 0.279,0.151 0,0" /></g><g
           transform="translate(138.876,96.7275)"
           id="g504"><path
             id="path506"
             style="fill:none;stroke:#231f20;stroke-width:0.018;stroke-linecap:butt;stroke-linejoin:miter;stroke-miterlimit:10;stroke-dasharray:none;stroke-opacity:1"
             d="m 0,0 -1.623,3.243 c 0.206,0.114 0.42,0.213 0.62,0.336 L 0.837,0.454 C 0.567,0.286 0.279,0.151 0,0 Z" /></g><g
           transform="translate(138.0596,96.3506)"
           id="g508"><path
             id="path510"
             style="fill:#be1e2d;fill-opacity:1;fill-rule:nonzero;stroke:none"
             d="m 0,0 -1.417,3.339 c 0.215,0.098 0.44,0.18 0.644,0.299 L 0.86,0.4 C 0.582,0.244 0.289,0.128 0,0" /></g><g
           transform="translate(138.0596,96.3506)"
           id="g512"><path
             id="path514"
             style="fill:none;stroke:#231f20;stroke-width:0.018;stroke-linecap:butt;stroke-linejoin:miter;stroke-miterlimit:10;stroke-dasharray:none;stroke-opacity:1"
             d="m 0,0 -1.417,3.339 c 0.215,0.098 0.44,0.18 0.644,0.299 L 0.86,0.4 C 0.582,0.244 0.289,0.128 0,0 Z" /></g><g
           transform="translate(137.1719,96.0049)"
           id="g516"><path
             id="path518"
             style="fill:#ffffff;fill-opacity:1;fill-rule:nonzero;stroke:none"
             d="m 0,0 -1.208,3.42 c 0.228,0.081 0.457,0.158 0.67,0.261 L 0.876,0.341 C 0.588,0.208 0.294,0.103 0,0" /></g><g
           transform="translate(137.1719,96.0049)"
           id="g520"><path
             id="path522"
             style="fill:none;stroke:#231f20;stroke-width:0.018;stroke-linecap:butt;stroke-linejoin:miter;stroke-miterlimit:10;stroke-dasharray:none;stroke-opacity:1"
             d="m 0,0 -1.208,3.42 c 0.228,0.081 0.457,0.158 0.67,0.261 L 0.876,0.341 C 0.588,0.208 0.294,0.103 0,0 Z" /></g><g
           transform="translate(137.1719,96.0049)"
           id="g524"><path
             id="path526"
             style="fill:#ffffff;fill-opacity:1;fill-rule:nonzero;stroke:none"
             d="m 0,0 -1.208,3.42 c 0.228,0.081 0.457,0.158 0.67,0.261 L 0.876,0.341 C 0.588,0.208 0.294,0.103 0,0" /></g><g
           transform="translate(137.1719,96.0049)"
           id="g528"><path
             id="path530"
             style="fill:none;stroke:#231f20;stroke-width:0.018;stroke-linecap:butt;stroke-linejoin:miter;stroke-miterlimit:10;stroke-dasharray:none;stroke-opacity:1"
             d="m 0,0 -1.208,3.42 c 0.228,0.081 0.457,0.158 0.67,0.261 L 0.876,0.341 C 0.588,0.208 0.294,0.103 0,0 Z" /></g><g
           transform="translate(137.1719,96.0049)"
           id="g532"><path
             id="path534"
             style="fill:#ffffff;fill-opacity:1;fill-rule:nonzero;stroke:none"
             d="m 0,0 -1.208,3.42 c 0.228,0.081 0.457,0.158 0.67,0.261 L 0.876,0.341 C 0.588,0.208 0.294,0.103 0,0" /></g><g
           transform="translate(137.1719,96.0049)"
           id="g536"><path
             id="path538"
             style="fill:none;stroke:#231f20;stroke-width:0.018;stroke-linecap:butt;stroke-linejoin:miter;stroke-miterlimit:10;stroke-dasharray:none;stroke-opacity:1"
             d="m 0,0 -1.208,3.42 c 0.228,0.081 0.457,0.158 0.67,0.261 L 0.876,0.341 C 0.588,0.208 0.294,0.103 0,0 Z" /></g><g
           transform="translate(136.335,95.7324)"
           id="g540"><path
             id="path542"
             style="fill:#be1e2d;fill-opacity:1;fill-rule:nonzero;stroke:none"
             d="m 0,0 -1.03,3.478 c 0.24,0.065 0.47,0.141 0.695,0.227 L 0.883,0.289 C 0.589,0.18 0.295,0.08 0,0" /></g><g
           transform="translate(136.335,95.7324)"
           id="g544"><path
             id="path546"
             style="fill:none;stroke:#231f20;stroke-width:0.018;stroke-linecap:butt;stroke-linejoin:miter;stroke-miterlimit:10;stroke-dasharray:none;stroke-opacity:1"
             d="m 0,0 -1.03,3.478 c 0.24,0.065 0.47,0.141 0.695,0.227 L 0.883,0.289 C 0.589,0.18 0.295,0.08 0,0 Z" /></g><g
           transform="translate(144.5605,100.0352)"
           id="g548"><path
             id="path550"
             style="fill:#ffffff;fill-opacity:1;fill-rule:nonzero;stroke:none"
             d="m 0,0 -1.904,3.087 c 0.219,0.133 0.423,0.273 0.629,0.412 L 0.759,0.495 C 0.507,0.331 0.254,0.152 0,0" /></g><g
           transform="translate(144.5605,100.0352)"
           id="g552"><path
             id="path554"
             style="fill:none;stroke:#231f20;stroke-width:0.018;stroke-linecap:butt;stroke-linejoin:miter;stroke-miterlimit:10;stroke-dasharray:none;stroke-opacity:1"
             d="m 0,0 -1.904,3.087 c 0.219,0.133 0.423,0.273 0.629,0.412 L 0.759,0.495 C 0.507,0.331 0.254,0.152 0,0 Z" /></g><g
           transform="translate(144.5605,100.0352)"
           id="g556"><path
             id="path558"
             style="fill:#ffffff;fill-opacity:1;fill-rule:nonzero;stroke:none"
             d="m 0,0 -1.904,3.087 c 0.219,0.133 0.423,0.273 0.629,0.412 L 0.759,0.495 C 0.507,0.331 0.254,0.152 0,0" /></g><g
           transform="translate(144.5605,100.0352)"
           id="g560"><path
             id="path562"
             style="fill:none;stroke:#231f20;stroke-width:0.018;stroke-linecap:butt;stroke-linejoin:miter;stroke-miterlimit:10;stroke-dasharray:none;stroke-opacity:1"
             d="m 0,0 -1.904,3.087 c 0.219,0.133 0.423,0.273 0.629,0.412 L 0.759,0.495 C 0.507,0.331 0.254,0.152 0,0 Z" /></g><g
           transform="translate(144.5605,100.0352)"
           id="g564"><path
             id="path566"
             style="fill:#ffffff;fill-opacity:1;fill-rule:nonzero;stroke:none"
             d="m 0,0 -1.904,3.087 c 0.219,0.133 0.423,0.273 0.629,0.412 L 0.759,0.495 C 0.507,0.331 0.254,0.152 0,0" /></g><g
           transform="translate(144.5605,100.0352)"
           id="g568"><path
             id="path570"
             style="fill:none;stroke:#231f20;stroke-width:0.018;stroke-linecap:butt;stroke-linejoin:miter;stroke-miterlimit:10;stroke-dasharray:none;stroke-opacity:1"
             d="m 0,0 -1.904,3.087 c 0.219,0.133 0.423,0.273 0.629,0.412 L 0.759,0.495 C 0.507,0.331 0.254,0.152 0,0 Z" /></g><g
           transform="translate(143.8398,99.5996)"
           id="g572"><path
             id="path574"
             style="fill:#be1e2d;fill-opacity:1;fill-rule:nonzero;stroke:none"
             d="m 0,0 -1.809,3.144 c 0.226,0.13 0.447,0.263 0.66,0.4 L 0.761,0.46 0,0 Z" /></g><g
           transform="translate(143.8398,99.5996)"
           id="g576"><path
             id="path578"
             style="fill:none;stroke:#231f20;stroke-width:0.018;stroke-linecap:butt;stroke-linejoin:miter;stroke-miterlimit:10;stroke-dasharray:none;stroke-opacity:1"
             d="m 0,0 -1.809,3.144 c 0.226,0.13 0.447,0.263 0.66,0.4 L 0.761,0.46 0,0 Z" /></g><g
           transform="translate(143.0801,99.2207)"
           id="g580"><path
             id="path582"
             style="fill:#ffffff;fill-opacity:1;fill-rule:nonzero;stroke:none"
             d="M 0,0 -1.67,3.219 -0.974,3.591 0.767,0.409 0,0 Z" /></g><g
           transform="translate(143.0801,99.2207)"
           id="g584"><path
             id="path586"
             style="fill:none;stroke:#231f20;stroke-width:0.018;stroke-linecap:butt;stroke-linejoin:miter;stroke-miterlimit:10;stroke-dasharray:none;stroke-opacity:1"
             d="M 0,0 -1.67,3.219 -0.974,3.591 0.767,0.409 0,0 Z" /></g><g
           transform="translate(143.0801,99.2207)"
           id="g588"><path
             id="path590"
             style="fill:#ffffff;fill-opacity:1;fill-rule:nonzero;stroke:none"
             d="M 0,0 -1.67,3.219 -0.974,3.591 0.767,0.409 0,0 Z" /></g><g
           transform="translate(143.0801,99.2207)"
           id="g592"><path
             id="path594"
             style="fill:none;stroke:#231f20;stroke-width:0.018;stroke-linecap:butt;stroke-linejoin:miter;stroke-miterlimit:10;stroke-dasharray:none;stroke-opacity:1"
             d="M 0,0 -1.67,3.219 -0.974,3.591 0.767,0.409 0,0 Z" /></g><g
           transform="translate(143.0801,99.2207)"
           id="g596"><path
             id="path598"
             style="fill:#ffffff;fill-opacity:1;fill-rule:nonzero;stroke:none"
             d="M 0,0 -1.67,3.219 -0.974,3.591 0.767,0.409 0,0 Z" /></g><g
           transform="translate(143.0801,99.2207)"
           id="g600"><path
             id="path602"
             style="fill:none;stroke:#231f20;stroke-width:0.018;stroke-linecap:butt;stroke-linejoin:miter;stroke-miterlimit:10;stroke-dasharray:none;stroke-opacity:1"
             d="M 0,0 -1.67,3.219 -0.974,3.591 0.767,0.409 0,0 Z" /></g><g
           transform="translate(142.3789,98.8574)"
           id="g604"><path
             id="path606"
             style="fill:#be1e2d;fill-opacity:1;fill-rule:nonzero;stroke:none"
             d="M 0,0 -1.663,3.224 -0.932,3.602 0.741,0.384 0,0 Z" /></g><g
           transform="translate(142.3789,98.8574)"
           id="g608"><path
             id="path610"
             style="fill:none;stroke:#231f20;stroke-width:0.018;stroke-linecap:butt;stroke-linejoin:miter;stroke-miterlimit:10;stroke-dasharray:none;stroke-opacity:1"
             d="M 0,0 -1.663,3.224 -0.932,3.602 0.741,0.384 0,0 Z" /></g><g
           transform="translate(141.708,98.499)"
           id="g612"><path
             id="path614"
             style="fill:#ffffff;fill-opacity:1;fill-rule:nonzero;stroke:none"
             d="m 0,0 -1.806,3.146 c 0.294,0.167 0.552,0.3 0.803,0.43 L 0.661,0.354 0,0 Z" /></g><g
           transform="translate(141.708,98.499)"
           id="g616"><path
             id="path618"
             style="fill:none;stroke:#231f20;stroke-width:0.018;stroke-linecap:butt;stroke-linejoin:miter;stroke-miterlimit:10;stroke-dasharray:none;stroke-opacity:1"
             d="m 0,0 -1.806,3.146 c 0.294,0.167 0.552,0.3 0.803,0.43 L 0.661,0.354 0,0 Z" /></g><g
           transform="translate(141.708,98.499)"
           id="g620"><path
             id="path622"
             style="fill:#ffffff;fill-opacity:1;fill-rule:nonzero;stroke:none"
             d="m 0,0 -1.806,3.146 c 0.294,0.167 0.552,0.3 0.803,0.43 L 0.661,0.354 0,0 Z" /></g><g
           transform="translate(141.708,98.499)"
           id="g624"><path
             id="path626"
             style="fill:none;stroke:#231f20;stroke-width:0.018;stroke-linecap:butt;stroke-linejoin:miter;stroke-miterlimit:10;stroke-dasharray:none;stroke-opacity:1"
             d="m 0,0 -1.806,3.146 c 0.294,0.167 0.552,0.3 0.803,0.43 L 0.661,0.354 0,0 Z" /></g><g
           transform="translate(141.708,98.499)"
           id="g628"><path
             id="path630"
             style="fill:#ffffff;fill-opacity:1;fill-rule:nonzero;stroke:none"
             d="m 0,0 -1.806,3.146 c 0.294,0.167 0.552,0.3 0.803,0.43 L 0.661,0.354 0,0 Z" /></g><g
           transform="translate(141.708,98.499)"
           id="g632"><path
             id="path634"
             style="fill:none;stroke:#231f20;stroke-width:0.018;stroke-linecap:butt;stroke-linejoin:miter;stroke-miterlimit:10;stroke-dasharray:none;stroke-opacity:1"
             d="m 0,0 -1.806,3.146 c 0.294,0.167 0.552,0.3 0.803,0.43 L 0.661,0.354 0,0 Z" /></g><g
           transform="translate(141.2783,98.208)"
           id="g636"><path
             id="path638"
             style="fill:#be1e2d;fill-opacity:1;fill-rule:nonzero;stroke:none"
             d="m 0,0 -2.231,2.859 0.412,0.301 c 0.219,0.156 0.325,0.202 0.491,0.304 L 0.457,0.308 C 0.389,0.263 0.249,0.189 0.237,0.173 0.222,0.16 0.213,0.156 0.189,0.143 L 0,0 Z" /></g><g
           transform="translate(141.2783,98.208)"
           id="g640"><path
             id="path642"
             style="fill:none;stroke:#231f20;stroke-width:0.018;stroke-linecap:butt;stroke-linejoin:miter;stroke-miterlimit:10;stroke-dasharray:none;stroke-opacity:1"
             d="m 0,0 -2.231,2.859 0.412,0.301 c 0.219,0.156 0.325,0.202 0.491,0.304 L 0.457,0.308 C 0.389,0.263 0.249,0.189 0.237,0.173 0.222,0.16 0.213,0.156 0.189,0.143 L 0,0 Z" /></g><g
           transform="translate(148.8271,103.7422)"
           id="g644"><path
             id="path646"
             style="fill:#ffffff;fill-opacity:1;fill-rule:nonzero;stroke:none"
             d="M 0,0 C -1.032,0.632 -2.054,1.28 -3.063,1.946 -2.94,2.111 -2.881,2.288 -2.791,2.454 -1.699,1.932 -0.598,1.43 0.514,0.948 0.348,0.632 0.195,0.291 0,0" /></g><g
           transform="translate(148.8271,103.7422)"
           id="g648"><path
             id="path650"
             style="fill:none;stroke:#231f20;stroke-width:0.018;stroke-linecap:butt;stroke-linejoin:miter;stroke-miterlimit:10;stroke-dasharray:none;stroke-opacity:1"
             d="M 0,0 C -1.032,0.632 -2.054,1.28 -3.063,1.946 -2.94,2.111 -2.881,2.288 -2.791,2.454 -1.699,1.932 -0.598,1.43 0.514,0.948 0.348,0.632 0.195,0.291 0,0 Z" /></g><g
           transform="translate(148.8271,103.7422)"
           id="g652"><path
             id="path654"
             style="fill:#ffffff;fill-opacity:1;fill-rule:nonzero;stroke:none"
             d="M 0,0 C -1.032,0.632 -2.054,1.28 -3.063,1.946 -2.94,2.111 -2.881,2.288 -2.791,2.454 -1.699,1.932 -0.598,1.43 0.514,0.948 0.348,0.632 0.195,0.291 0,0" /></g><g
           transform="translate(148.8271,103.7422)"
           id="g656"><path
             id="path658"
             style="fill:none;stroke:#231f20;stroke-width:0.018;stroke-linecap:butt;stroke-linejoin:miter;stroke-miterlimit:10;stroke-dasharray:none;stroke-opacity:1"
             d="M 0,0 C -1.032,0.632 -2.054,1.28 -3.063,1.946 -2.94,2.111 -2.881,2.288 -2.791,2.454 -1.699,1.932 -0.598,1.43 0.514,0.948 0.348,0.632 0.195,0.291 0,0 Z" /></g><g
           transform="translate(148.8271,103.7422)"
           id="g660"><path
             id="path662"
             style="fill:#ffffff;fill-opacity:1;fill-rule:nonzero;stroke:none"
             d="M 0,0 C -1.032,0.632 -2.054,1.28 -3.063,1.946 -2.94,2.111 -2.881,2.288 -2.791,2.454 -1.699,1.932 -0.598,1.43 0.514,0.948 0.348,0.632 0.195,0.291 0,0" /></g><g
           transform="translate(148.8271,103.7422)"
           id="g664"><path
             id="path666"
             style="fill:none;stroke:#231f20;stroke-width:0.018;stroke-linecap:butt;stroke-linejoin:miter;stroke-miterlimit:10;stroke-dasharray:none;stroke-opacity:1"
             d="M 0,0 C -1.032,0.632 -2.054,1.28 -3.063,1.946 -2.94,2.111 -2.881,2.288 -2.791,2.454 -1.699,1.932 -0.598,1.43 0.514,0.948 0.348,0.632 0.195,0.291 0,0 Z" /></g><g
           transform="translate(148.252,102.9336)"
           id="g668"><path
             id="path670"
             style="fill:#be1e2d;fill-opacity:1;fill-rule:nonzero;stroke:none"
             d="M 0,0 C -0.953,0.746 -1.895,1.505 -2.824,2.276 -2.683,2.44 -2.575,2.612 -2.471,2.781 -1.457,2.122 -0.431,1.48 0.605,0.854 0.409,0.565 0.223,0.255 0,0" /></g><g
           transform="translate(148.252,102.9336)"
           id="g672"><path
             id="path674"
             style="fill:none;stroke:#231f20;stroke-width:0.018;stroke-linecap:butt;stroke-linejoin:miter;stroke-miterlimit:10;stroke-dasharray:none;stroke-opacity:1"
             d="M 0,0 C -0.953,0.746 -1.895,1.505 -2.824,2.276 -2.683,2.44 -2.575,2.612 -2.471,2.781 -1.457,2.122 -0.431,1.48 0.605,0.854 0.409,0.565 0.223,0.255 0,0 Z" /></g><g
           transform="translate(147.5635,102.2236)"
           id="g676"><path
             id="path678"
             style="fill:#ffffff;fill-opacity:1;fill-rule:nonzero;stroke:none"
             d="m 0,0 -2.541,2.588 c 0.165,0.153 0.308,0.313 0.439,0.475 L 0.687,0.743 C 0.467,0.479 0.24,0.225 0,0" /></g><g
           transform="translate(147.5635,102.2236)"
           id="g680"><path
             id="path682"
             style="fill:none;stroke:#231f20;stroke-width:0.018;stroke-linecap:butt;stroke-linejoin:miter;stroke-miterlimit:10;stroke-dasharray:none;stroke-opacity:1"
             d="m 0,0 -2.541,2.588 c 0.165,0.153 0.308,0.313 0.439,0.475 L 0.687,0.743 C 0.467,0.479 0.24,0.225 0,0 Z" /></g><g
           transform="translate(147.5635,102.2236)"
           id="g684"><path
             id="path686"
             style="fill:#ffffff;fill-opacity:1;fill-rule:nonzero;stroke:none"
             d="m 0,0 -2.541,2.588 c 0.165,0.153 0.308,0.313 0.439,0.475 L 0.687,0.743 C 0.467,0.479 0.24,0.225 0,0" /></g><g
           transform="translate(147.5635,102.2236)"
           id="g688"><path
             id="path690"
             style="fill:none;stroke:#231f20;stroke-width:0.018;stroke-linecap:butt;stroke-linejoin:miter;stroke-miterlimit:10;stroke-dasharray:none;stroke-opacity:1"
             d="m 0,0 -2.541,2.588 c 0.165,0.153 0.308,0.313 0.439,0.475 L 0.687,0.743 C 0.467,0.479 0.24,0.225 0,0 Z" /></g><g
           transform="translate(147.5635,102.2236)"
           id="g692"><path
             id="path694"
             style="fill:#ffffff;fill-opacity:1;fill-rule:nonzero;stroke:none"
             d="m 0,0 -2.541,2.588 c 0.165,0.153 0.308,0.313 0.439,0.475 L 0.687,0.743 C 0.467,0.479 0.24,0.225 0,0" /></g><g
           transform="translate(147.5635,102.2236)"
           id="g696"><path
             id="path698"
             style="fill:none;stroke:#231f20;stroke-width:0.018;stroke-linecap:butt;stroke-linejoin:miter;stroke-miterlimit:10;stroke-dasharray:none;stroke-opacity:1"
             d="m 0,0 -2.541,2.588 c 0.165,0.153 0.308,0.313 0.439,0.475 L 0.687,0.743 C 0.467,0.479 0.24,0.225 0,0 Z" /></g><g
           transform="translate(146.876,101.5986)"
           id="g700"><path
             id="path702"
             style="fill:#be1e2d;fill-opacity:1;fill-rule:nonzero;stroke:none"
             d="m 0,0 -2.329,2.78 c 0.176,0.15 0.351,0.298 0.501,0.457 L 0.725,0.662 C 0.491,0.421 0.248,0.206 0,0" /></g><g
           transform="translate(146.876,101.5986)"
           id="g704"><path
             id="path706"
             style="fill:none;stroke:#231f20;stroke-width:0.018;stroke-linecap:butt;stroke-linejoin:miter;stroke-miterlimit:10;stroke-dasharray:none;stroke-opacity:1"
             d="m 0,0 -2.329,2.78 c 0.176,0.15 0.351,0.298 0.501,0.457 L 0.725,0.662 C 0.491,0.421 0.248,0.206 0,0 Z" /></g><g
           transform="translate(146.1162,101.002)"
           id="g708"><path
             id="path710"
             style="fill:#ffffff;fill-opacity:1;fill-rule:nonzero;stroke:none"
             d="m 0,0 -2.132,2.934 c 0.184,0.147 0.39,0.282 0.556,0.436 L 0.751,0.589 C 0.507,0.37 0.251,0.195 0,0" /></g><g
           transform="translate(146.1162,101.002)"
           id="g712"><path
             id="path714"
             style="fill:none;stroke:#231f20;stroke-width:0.018;stroke-linecap:butt;stroke-linejoin:miter;stroke-miterlimit:10;stroke-dasharray:none;stroke-opacity:1"
             d="m 0,0 -2.132,2.934 c 0.184,0.147 0.39,0.282 0.556,0.436 L 0.751,0.589 C 0.507,0.37 0.251,0.195 0,0 Z" /></g><g
           transform="translate(146.1162,101.002)"
           id="g716"><path
             id="path718"
             style="fill:#ffffff;fill-opacity:1;fill-rule:nonzero;stroke:none"
             d="m 0,0 -2.132,2.934 c 0.184,0.147 0.39,0.282 0.556,0.436 L 0.751,0.589 C 0.507,0.37 0.251,0.195 0,0" /></g><g
           transform="translate(146.1162,101.002)"
           id="g720"><path
             id="path722"
             style="fill:none;stroke:#231f20;stroke-width:0.018;stroke-linecap:butt;stroke-linejoin:miter;stroke-miterlimit:10;stroke-dasharray:none;stroke-opacity:1"
             d="m 0,0 -2.132,2.934 c 0.184,0.147 0.39,0.282 0.556,0.436 L 0.751,0.589 C 0.507,0.37 0.251,0.195 0,0 Z" /></g><g
           transform="translate(146.1162,101.002)"
           id="g724"><path
             id="path726"
             style="fill:#ffffff;fill-opacity:1;fill-rule:nonzero;stroke:none"
             d="m 0,0 -2.132,2.934 c 0.184,0.147 0.39,0.282 0.556,0.436 L 0.751,0.589 C 0.507,0.37 0.251,0.195 0,0" /></g><g
           transform="translate(146.1162,101.002)"
           id="g728"><path
             id="path730"
             style="fill:none;stroke:#231f20;stroke-width:0.018;stroke-linecap:butt;stroke-linejoin:miter;stroke-miterlimit:10;stroke-dasharray:none;stroke-opacity:1"
             d="m 0,0 -2.132,2.934 c 0.184,0.147 0.39,0.282 0.556,0.436 L 0.751,0.589 C 0.507,0.37 0.251,0.195 0,0 Z" /></g><g
           transform="translate(145.3906,100.501)"
           id="g732"><path
             id="path734"
             style="fill:#be1e2d;fill-opacity:1;fill-rule:nonzero;stroke:none"
             d="m 0,0 -1.976,3.041 c 0.201,0.14 0.408,0.273 0.599,0.417 L 0.766,0.531 C 0.513,0.341 0.256,0.177 0,0" /></g><g
           transform="translate(145.3906,100.501)"
           id="g736"><path
             id="path738"
             style="fill:none;stroke:#231f20;stroke-width:0.018;stroke-linecap:butt;stroke-linejoin:miter;stroke-miterlimit:10;stroke-dasharray:none;stroke-opacity:1"
             d="m 0,0 -1.976,3.041 c 0.201,0.14 0.408,0.273 0.599,0.417 L 0.766,0.531 C 0.513,0.341 0.256,0.177 0,0 Z" /></g><g
           transform="translate(122.0508,140.0859)"
           id="g740"><path
             id="path742"
             style="fill:#f9ba21;fill-opacity:1;fill-rule:nonzero;stroke:none"
             d="m 0,0 c 1.094,-0.19 2.242,-0.082 3.283,0.312 0.362,-0.608 1.168,-2.877 1.751,-3.287 1.195,-0.842 0.121,-1.265 -4.619,-0.412 -0.286,0.052 -0.184,1.17 -0.416,1.34 -0.325,0.238 -0.398,0.679 -0.448,1.075 -0.03,0.244 -0.061,0.496 0.002,0.735 0.061,0.24 0.238,0.468 0.485,0.522" /></g><g
           transform="translate(122.0215,139.978)"
           id="g744"><path
             id="path746"
             style="fill:#231f20;fill-opacity:1;fill-rule:nonzero;stroke:none"
             d="M 0,0 C 0.76,-0.108 1.514,-0.127 2.271,0.014 2.689,0.092 3.067,0.327 3.361,0.085 3.53,-0.054 3.647,-0.548 3.735,-0.746 3.979,-1.292 4.21,-1.862 4.527,-2.371 4.708,-2.662 5.106,-2.893 5.253,-3.165 5.503,-3.626 5.02,-3.604 4.604,-3.63 4.065,-3.662 3.515,-3.603 2.979,-3.546 2.433,-3.488 1.829,-3.458 1.296,-3.313 0.657,-3.138 0.437,-3.057 0.294,-2.395 0.126,-1.617 -1.055,-0.266 0.123,0.296 0.253,0.358 0.14,0.55 0.011,0.489 -0.652,0.173 -0.639,-0.545 -0.482,-1.195 -0.379,-1.628 -0.105,-1.839 0.043,-2.243 0.142,-2.508 0.053,-2.875 0.194,-3.128 0.52,-3.708 1.752,-3.615 2.352,-3.693 3.157,-3.799 4.025,-3.934 4.84,-3.836 5.29,-3.783 5.767,-3.665 5.533,-3.15 5.474,-3.019 5.318,-2.944 5.222,-2.846 4.914,-2.534 4.693,-2.23 4.488,-1.836 4.097,-1.082 3.819,-0.269 3.409,0.476 3.387,0.517 3.329,0.542 3.283,0.527 2.221,0.162 1.175,0.056 0.06,0.215 -0.081,0.235 -0.142,0.021 0,0" /></g><g
           transform="translate(108.0356,121.5928)"
           id="g748"><path
             id="path750"
             style="fill:#8f6cae;fill-opacity:1;fill-rule:nonzero;stroke:none"
             d="m 0,0 c -0.171,-0.646 7.963,-4.556 13.983,0.119 5.957,4.628 7.84,13.993 6.152,11.94 C 16.142,7.199 12.375,3.382 0,0" /></g><g
           transform="translate(107.9023,121.5557)"
           id="g752"><path
             id="path754"
             style="fill:#231f20;fill-opacity:1;fill-rule:nonzero;stroke:none"
             d="m 0,0 c 0.975,-2.839 8.409,-2.381 10.479,-1.803 5.133,1.434 9.167,7.057 10.269,12.131 0.538,2.476 0.079,2.575 -1.535,0.719 C 14.072,5.139 7.547,2.275 0.097,0.171 -0.075,0.122 -0.002,-0.146 0.17,-0.097 c 4.459,1.26 8.954,2.73 12.881,5.253 1.26,0.808 2.44,1.722 3.542,2.735 1.002,0.92 2.138,2.865 3.295,3.529 1.646,0.944 0.587,-1.193 0.174,-2.377 C 19.137,6.38 17.589,3.701 15.61,1.691 13.188,-0.769 10.177,-2.035 6.747,-1.961 5.574,-1.936 0.788,-1.444 0.267,0.074 0.209,0.241 -0.058,0.169 0,0" /></g><g
           transform="translate(46.2373,165.1572)"
           id="g756"><path
             id="path758"
             style="fill:#ffffff;fill-opacity:1;fill-rule:nonzero;stroke:none"
             d="m 0,0 c -1.623,-0.384 -2.411,-2.351 -2.179,-4.002 0.123,-0.873 0.588,-1.834 1.453,-2.004 1.022,-0.201 1.886,0.836 2.151,1.843 0.272,1.035 0.193,2.127 0.075,3.19 -0.049,0.434 -0.113,0.891 -0.381,1.236 -0.268,0.345 -0.81,0.516 -1.151,0.242" /></g><g
           transform="translate(46.1631,165.4263)"
           id="g760"><path
             id="path762"
             style="fill:#000000;fill-opacity:1;fill-rule:nonzero;stroke:none"
             d="m 0,0 c -1.569,-0.488 -2.387,-2.006 -2.422,-3.599 -0.028,-1.256 0.618,-3.117 2.178,-2.968 3.236,0.31 2.836,8.23 0.145,7.045 -0.328,-0.145 -0.044,-0.626 0.282,-0.482 1.25,0.55 1.24,-2.513 1.218,-3.073 -0.042,-1.044 -1.076,-4.471 -2.817,-2.319 -1.223,1.513 -0.155,4.323 1.564,4.858 C 0.49,-0.432 0.345,0.107 0,0" /></g><g
           transform="translate(128.2363,200.5151)"
           id="g764"><path
             id="path766"
             style="fill:#ffffff;fill-opacity:1;fill-rule:nonzero;stroke:none"
             d="m 0,0 c -0.377,-0.65 0.176,-1.554 0.914,-1.699 0.737,-0.145 1.49,0.302 1.929,0.912 0.438,0.61 0.628,1.359 0.809,2.089 C 3.817,1.97 3.842,2.906 3.181,3.099 2.738,3.228 2.306,2.892 1.973,2.573 0.997,1.637 0.085,0.637 -0.757,-0.42" /></g><g
           transform="translate(127.9961,200.6562)"
           id="g768"><path
             id="path770"
             style="fill:#000000;fill-opacity:1;fill-rule:nonzero;stroke:none"
             d="M 0,0 C -0.411,-0.962 0.23,-2.04 1.292,-2.133 2.937,-2.277 3.74,-0.549 4.082,0.773 4.298,1.604 4.499,3.325 3.157,3.262 2.45,3.229 1.864,2.491 1.415,2.036 0.663,1.273 -0.042,0.47 -0.714,-0.364 -0.937,-0.641 -0.545,-1.039 -0.319,-0.759 0.176,-0.145 0.687,0.455 1.225,1.032 1.665,1.504 3.249,3.499 3.693,2.078 3.893,1.437 3.377,0.162 3.089,-0.376 2.855,-0.812 2.549,-1.209 2.09,-1.427 1.377,-1.763 0.021,-1.362 0.481,-0.282 0.621,0.045 0.141,0.33 0,0" /></g><g
           transform="translate(116.5791,166.6978)"
           id="g772"><path
             id="path774"
             style="fill:#eb2030;fill-opacity:1;fill-rule:nonzero;stroke:none"
             d="M 0,0 C 0.712,0 0.714,1.107 0,1.107 -0.713,1.107 -0.714,0 0,0" /></g><g
           transform="translate(119.25,167.9268)"
           id="g776"><path
             id="path778"
             style="fill:#eb2030;fill-opacity:1;fill-rule:nonzero;stroke:none"
             d="M 0,0 C 0.712,0 0.713,1.107 0,1.107 -0.713,1.107 -0.714,0 0,0" /></g><g
           transform="translate(121.0557,166.3594)"
           id="g780"><path
             id="path782"
             style="fill:#eb2030;fill-opacity:1;fill-rule:nonzero;stroke:none"
             d="M 0,0 C 0.713,0 0.714,1.107 0,1.107 -0.712,1.107 -0.714,0 0,0" /></g><g
           transform="translate(116.0391,163.1558)"
           id="g784"><path
             id="path786"
             style="fill:#eb2030;fill-opacity:1;fill-rule:nonzero;stroke:none"
             d="M 0,0 C 0.712,0 0.713,1.107 0,1.107 -0.713,1.107 -0.714,0 0,0" /></g><g
           transform="translate(89.7788,150.3096)"
           id="g788"><path
             id="path790"
             style="fill:#eb2030;fill-opacity:1;fill-rule:nonzero;stroke:none"
             d="M 0,0 C 0.712,0 0.713,1.107 0,1.107 -0.712,1.107 -0.714,0 0,0" /></g><g
           transform="translate(93.0728,151.6733)"
           id="g792"><path
             id="path794"
             style="fill:#eb2030;fill-opacity:1;fill-rule:nonzero;stroke:none"
             d="M 0,0 C 0.712,0 0.713,1.107 0,1.107 -0.712,1.107 -0.714,0 0,0" /></g><g
           transform="translate(93.7793,148.4004)"
           id="g796"><path
             id="path798"
             style="fill:#eb2030;fill-opacity:1;fill-rule:nonzero;stroke:none"
             d="M 0,0 C 0.712,0 0.713,1.107 0,1.107 -0.712,1.107 -0.714,0 0,0" /></g><g
           transform="translate(86.063,147.8765)"
           id="g800"><path
             id="path802"
             style="fill:#eb2030;fill-opacity:1;fill-rule:nonzero;stroke:none"
             d="M 0,0 C 0.712,0 0.714,1.107 0,1.107 -0.712,1.107 -0.713,0 0,0" /></g></g></g><g
       id="text804"
       style="font-variant:normal;font-weight:normal;font-stretch:normal;font-size:20.00006866px;font-family:'Museo 500';-inkscape-font-specification:Museo-500;writing-mode:lr-tb;fill:#231f20;fill-opacity:1;fill-rule:nonzero;stroke:none"
       transform="matrix(0.9513867,0.30799893,0.30799893,-0.9513867,69.8017,27.0961)"><path
         id="path809"
         style=""
         d="m 2.0600071,0 2.0000068,0 0,-5.2200179 2.9200101,0 c 2.5800088,0 4.420015,-1.8000062 4.420015,-4.4800154 0,-2.6800097 -1.8400062,-4.4200147 -4.420015,-4.4200147 l -6.22002139,0 0,1.720005 1.30000449,0 0,12.400043 z m 2.0000068,-6.9400238 0,-5.4600192 2.620009,0 c 1.6400057,0 2.6600092,1.000004 2.6600092,2.7000097 0,1.7000058 -1.0200035,2.7600095 -2.6800092,2.7600095 l -2.600009,0 z" /><path
         id="path811"
         style=""
         d="m 13.680047,-12.100042 1.740006,0 0,-2.020006 -1.740006,0 0,2.020006 z m -0.04,10.8200376 C 13.640047,-0.3800013 14.020049,0 14.920052,0 l 1.900006,0 0,-1.6600057 -0.820003,0 c -0.280001,0 -0.440001,-0.1400005 -0.440001,-0.4400015 l 0,-6.7400231 c 0,-0.9000031 -0.380001,-1.2800047 -1.280004,-1.2800047 l -1.900007,0 0,1.660006 0.820003,0 c 0.280001,0 0.440001,0.1400004 0.440001,0.4400015 l 0,6.7400231 z" /><path
         id="path813"
         style=""
         d="m 19.040065,4.0000137 1.940007,0 0,-4.50001542 c 0,-0.52000178 -0.04,-0.88000298 -0.04,-0.88000298 l 0.04,0 c 0,0 0.860003,1.62000552 3.10001,1.62000552 2.640009,0 4.600016,-2.08000712 4.600016,-5.30001822 0,-3.1400108 -1.740006,-5.3000186 -4.460015,-5.3000186 -2.520009,0 -3.360012,1.8000066 -3.360012,1.8000066 l -0.04,0 c 0,0 0.02,-0.2400008 0.02,-0.5400018 0,-0.6400022 -0.340001,-1.0200038 -1.240004,-1.0200038 l -1.820006,0 0,1.660006 0.820003,0 c 0.280001,0 0.440001,0.1400004 0.440001,0.4400015 l 0,12.0200412 z m 1.880007,-9.0200309 c 0,-2.5800089 1.420004,-3.6400125 2.92001,-3.6400125 1.680005,0 2.860009,1.4200048 2.860009,3.6200124 0,2.3000079 -1.320004,3.6200124 -2.92001,3.6200124 -1.880006,0 -2.860009,-1.8000062 -2.860009,-3.6000123 z" /><path
         id="path815"
         style=""
         d="m 31.120107,4.0000137 1.940007,0 0,-4.50001542 c 0,-0.52000178 -0.04,-0.88000298 -0.04,-0.88000298 l 0.04,0 c 0,0 0.860003,1.62000552 3.10001,1.62000552 2.640009,0 4.600016,-2.08000712 4.600016,-5.30001822 0,-3.1400108 -1.740006,-5.3000186 -4.460015,-5.3000186 -2.520009,0 -3.360012,1.8000066 -3.360012,1.8000066 l -0.04,0 c 0,0 0.02,-0.2400008 0.02,-0.5400018 0,-0.6400022 -0.340001,-1.0200038 -1.240004,-1.0200038 l -1.820006,0 0,1.660006 0.820002,0 c 0.280001,0 0.440002,0.1400004 0.440002,0.4400015 l 0,12.0200412 z m 1.880006,-9.0200309 c 0,-2.5800089 1.420005,-3.6400125 2.92001,-3.6400125 1.680006,0 2.86001,1.4200048 2.86001,3.6200124 0,2.3000079 -1.320004,3.6200124 -2.92001,3.6200124 -1.880006,0 -2.86001,-1.8000062 -2.86001,-3.6000123 z" /><path
         id="path817"
         style=""
         d="m 43.340151,-12.100042 1.740006,0 0,-2.020006 -1.740006,0 0,2.020006 z m -0.04,10.8200376 C 43.300151,-0.3800013 43.680152,0 44.580156,0 l 1.900006,0 0,-1.6600057 -0.820003,0 c -0.280001,0 -0.440001,-0.1400005 -0.440001,-0.4400015 l 0,-6.7400231 c 0,-0.9000031 -0.380002,-1.2800047 -1.280005,-1.2800047 l -1.900006,0 0,1.660006 0.820003,0 c 0.280001,0 0.440001,0.1400004 0.440001,0.4400015 l 0,6.7400231 z" /><path
         id="path819"
         style=""
         d="M 54.440187,-1.2800044 C 54.440187,-0.3800013 54.820189,0 55.720192,0 l 6.040021,0 c 0.900003,0 1.280004,-0.3800013 1.280004,-1.2800044 l 0,-1.7800061 -1.820006,0 0,0.9000031 c 0,0.2800009 -0.160001,0.4400015 -0.440002,0.4400015 l -3.900013,0 c -0.280001,0 -0.440002,-0.1600006 -0.440002,-0.4400015 l 0,-10.6800366 c 0,-0.900003 -0.380001,-1.280004 -1.280004,-1.280004 l -2.020007,0 0,1.720005 0.860003,0 c 0.280001,0 0.440001,0.140001 0.440001,0.440002 l 0,10.6800366 z" /><path
         id="path821"
         style=""
         d="m 63.800222,-5.0800174 c 0,3.0800105 2.420008,5.32001822 5.440018,5.32001822 3.020011,0 5.460019,-2.24000772 5.460019,-5.32001822 0,-3.0600105 -2.440008,-5.2800186 -5.460019,-5.2800186 -3.02001,0 -5.440018,2.2200081 -5.440018,5.2800186 z m 1.980007,0 c 0,-2.1000073 1.560005,-3.6000124 3.460011,-3.6000124 1.920007,0 3.480012,1.5000051 3.480012,3.6000124 0,2.1200072 -1.560005,3.6400125 -3.480012,3.6400125 -1.900006,0 -3.460011,-1.5200053 -3.460011,-3.6400125 z" /><path
         id="path823"
         style=""
         d="m 77.120271,0 1.940007,0 0,-4.7400163 c 0,-0.5000017 0.04,-0.9600033 0.18,-1.3600046 0.400002,-1.4600051 1.640006,-2.4800086 3.200011,-2.4800086 1.620006,0 1.900007,1.1200039 1.900007,2.5400088 l 0,4.7600163 C 84.340296,-0.3800013 84.720297,0 85.6203,0 l 1.920007,0 0,-1.6600057 -0.820003,0 c -0.280001,0 -0.440002,-0.1400005 -0.440002,-0.4400015 l 0,-4.380015 c 0,-2.5800089 -1.080003,-3.8800138 -3.480011,-3.8800138 -2.200008,0 -3.400012,1.4400054 -3.800014,2.3200084 l -0.04,0 c 0,0 0.04,-0.2600009 0.04,-0.580002 l 0,-0.3800013 c 0,-0.7400025 -0.420001,-1.1200041 -1.280004,-1.1200041 l -1.860006,0 0,1.660006 0.820003,0 c 0.28,0 0.440001,0.1400004 0.440001,0.4400015 l 0,8.0200275 z" /><path
         id="path825"
         style=""
         d="m 88.68031,-5.3000182 c 0,2.92001 1.720006,5.18001779 4.520016,5.18001779 1.480005,0 2.420008,-0.56000192 3.02001,-1.54000529 l 0.04,0 c 0,0 -0.04,0.3200011 -0.04,0.6400022 l 0,0.68000233 c 0,2.04000697 -1.440005,2.82000967 -3.200011,2.82000967 -1.520005,0 -2.760009,-0.6800023 -2.760009,-0.6800023 l -0.660003,1.5600053 c 1.000004,0.5000018 2.240008,0.8400029 3.460012,0.8400029 2.560009,0 5.100018,-1.2800044 5.100018,-4.62001584 l 0,-7.64002626 c 0,-0.2600009 0.18,-0.4000013 0.440001,-0.4000013 l 0.800003,0 0,-1.660006 -1.880006,0 c -0.800003,0 -1.120004,0.4200017 -1.120004,1.0200038 0,0.1600005 0,0.3200011 0,0.3200011 l -0.04,0 c 0,0 -0.720003,-1.5800059 -3.240012,-1.5800059 -2.820009,0 -4.440015,2.1600078 -4.440015,5.0600178 z m 4.900017,3.500012 c -1.820006,0 -2.92001,-1.4400049 -2.92001,-3.5400121 0,-2.0600071 1.000003,-3.3400115 2.760009,-3.3400115 1.560006,0 2.86001,0.7600026 2.86001,3.4000117 0,2.640009 -1.300004,3.4800119 -2.700009,3.4800119 z" /><path
         id="path827"
         style=""
         d="m 100.38035,-1.5400053 c 0,0 1.34,1.78000612 4.04001,1.78000612 2.12001,0 3.72002,-1.16000398 3.72002,-2.96001012 0,-3.3800116 -5.52002,-2.9600102 -5.52002,-4.8800168 0,-0.8000027 0.74,-1.2000041 1.88,-1.2000041 0.62001,0 1.52001,0.2600009 1.52001,0.8600029 l 0,0.5000018 1.74,0 0,-0.9600033 c 0,-1.5400053 -2.1,-1.9600072 -3.32001,-1.9600072 -2.06,0 -3.76001,0.9000035 -3.76001,2.8400102 0,3.2600112 5.52002,3.0600105 5.52002,4.8800167 0,0.8800031 -0.82,1.3000045 -1.76001,1.3000045 -1.86,0 -3.06001,-1.5000052 -3.06001,-1.5000052 l -1,1.3000045 z" /><path
         id="path829"
         style=""
         d="m 109.64038,-5.0600174 c 0,3.0000103 2.18001,5.30001822 5.38002,5.30001822 2.40001,0 3.90001,-1.48000512 3.90001,-1.48000512 l -0.84,-1.3800047 c 0,0 -1.22,1.1800041 -2.96001,1.1800041 -1.80001,0 -3.36001,-1.2200042 -3.48001,-3.3800116 l 7.38002,0 c 0,0 0.06,-0.5400019 0.06,-0.8000028 0,-2.620009 -1.52,-4.7400167 -4.36001,-4.7400167 -2.88001,0 -5.08002,2.0800076 -5.08002,5.3000186 z m 2.08001,-1.180004 c 0.3,-1.6800058 1.5,-2.5800089 2.98001,-2.5800089 1.26,0 2.32001,0.9000031 2.38001,2.5800089 l -5.36002,0 z" /><path
         id="path831"
         style=""
         d="m 120.68042,-5.0600174 c 0,3.0000103 2.18001,5.30001822 5.38002,5.30001822 2.40001,0 3.90001,-1.48000512 3.90001,-1.48000512 l -0.84,-1.3800047 c 0,0 -1.22,1.1800041 -2.96001,1.1800041 -1.80001,0 -3.36001,-1.2200042 -3.48001,-3.3800116 l 7.38002,0 c 0,0 0.06,-0.5400019 0.06,-0.8000028 0,-2.620009 -1.52,-4.7400167 -4.36001,-4.7400167 -2.88001,0 -5.08002,2.0800076 -5.08002,5.3000186 z m 2.08001,-1.180004 c 0.3,-1.6800058 1.5,-2.5800089 2.98001,-2.5800089 1.26,0 2.32001,0.9000031 2.38001,2.5800089 l -5.36002,0 z" /><path
         id="path833"
         style=""
         d="m 131.74046,-5.0600174 c 0,3.1400108 1.72001,5.30001822 4.46002,5.30001822 2.48,0 3.32001,-1.84000632 3.32001,-1.84000632 l 0.04,0 c 0,0 -0.02,0.2200008 -0.02,0.5200018 0,0.68000233 0.36,1.0800037 1.24,1.0800037 l 1.86001,0 0,-1.6600057 -0.82001,0 c -0.28,0 -0.44,-0.1400005 -0.44,-0.4400015 l 0,-10.7400368 c 0,-0.900003 -0.38,-1.280004 -1.28,-1.280004 l -1.92001,0 0,1.660005 0.82001,0 c 0.28,0 0.44,0.140001 0.44,0.440002 l 0,2.5400085 c 0,0.3800013 0.04,0.6800023 0.04,0.6800023 l -0.04,0 c 0,0 -0.78001,-1.5600058 -3.12001,-1.5600058 -2.68001,0 -4.58002,2.0800076 -4.58002,5.3000186 z m 4.84002,3.6200125 c -1.68001,0 -2.86001,-1.4200049 -2.86001,-3.6200125 0,-2.3000079 1.32,-3.6200124 2.90001,-3.6200124 1.94,0 2.88001,1.8000062 2.88001,3.6000124 0,2.5800088 -1.42001,3.6400125 -2.92001,3.6400125 z" /></g></g></svg>