<?xml version="1.0" encoding="UTF-8" standalone="no"?>
<svg
   xmlns:dc="http://purl.org/dc/elements/1.1/"
   xmlns:cc="http://creativecommons.org/ns#"
   xmlns:rdf="http://www.w3.org/1999/02/22-rdf-syntax-ns#"
   xmlns:svg="http://www.w3.org/2000/svg"
   xmlns="http://www.w3.org/2000/svg"
   viewBox="0 0 281.25 312.20499"
   height="312.20499"
   width="281.25"
   xml:space="preserve"
   version="1.1"
   id="svg2"><metadata
     id="metadata8"><rdf:RDF><cc:Work
         rdf:about=""><dc:format>image/svg+xml</dc:format><dc:type
           rdf:resource="http://purl.org/dc/dcmitype/StillImage" /></cc:Work></rdf:RDF></metadata><defs
     id="defs6"><clipPath
       id="clipPath20"
       clipPathUnits="userSpaceOnUse"><path
         id="path22"
         d="m 0,0 225,0 0,249.764 -225,0 L 0,0 Z" /></clipPath><clipPath
       id="clipPath40"
       clipPathUnits="userSpaceOnUse"><path
         id="path42"
         d="m 0,0 225,0 0,249.764 -225,0 L 0,0 Z" /></clipPath><clipPath
       id="clipPath64"
       clipPathUnits="userSpaceOnUse"><path
         id="path66"
         d="m 0,249.764 225,0 L 225,0 0,0 0,249.764 Z" /></clipPath></defs><g
     transform="matrix(1.25,0,0,-1.25,0,312.205)"
     id="g10"><g
       transform="translate(1.449,45.846)"
       id="g12"><path
         id="path14"
         style="fill:#f5f5f5;fill-opacity:1;fill-rule:nonzero;stroke:none"
         d="M 0,0 166.043,-45.469 220.074,150.89 56.008,198.332 0,0 Z" /></g><g
       id="g16"><g
         clip-path="url(#clipPath20)"
         id="g18"><g
           transform="translate(57.457,244.1777)"
           id="g24"><path
             id="path26"
             style="fill:none;stroke:#100f0d;stroke-width:0.61000001;stroke-linecap:butt;stroke-linejoin:miter;stroke-miterlimit:10;stroke-dasharray:none;stroke-opacity:1"
             d="M 0,0 164.066,-47.441 110.035,-243.801 -56.008,-198.332 0,0 Z" /></g></g></g><g
       transform="translate(64.8442,228.7324)"
       id="g28"><path
         id="path30"
         style="fill:#f5f5f5;fill-opacity:1;fill-rule:nonzero;stroke:none"
         d="M 0,0 -40.489,-142.278 99.195,-183.539 141.894,-40.949 0,0 Z" /></g><g
       transform="translate(64.8442,228.7324)"
       id="g32"><path
         id="path34"
         style="fill:none;stroke:#000000;stroke-width:0.639;stroke-linecap:butt;stroke-linejoin:miter;stroke-miterlimit:4;stroke-dasharray:none;stroke-opacity:1"
         d="M 0,0 -40.489,-142.278 99.195,-183.539 141.894,-40.949 0,0 Z" /></g><g
       id="g36"><g
         clip-path="url(#clipPath40)"
         id="g38"><g
           transform="translate(0.3789,200.7554)"
           id="g44"><path
             id="path46"
             style="fill:none;stroke:#100f0d;stroke-width:0.61000001;stroke-linecap:butt;stroke-linejoin:miter;stroke-miterlimit:10;stroke-dasharray:none;stroke-opacity:1"
             d="M 0,0 163.723,48.629 224.234,-145.82 59.918,-197.183 0,0 Z" /></g></g></g><g
       transform="translate(0.3789,200.7558)"
       id="g48"><path
         id="path50"
         style="fill:#f5f5f5;fill-opacity:1;fill-rule:nonzero;stroke:none"
         d="M 0,0 59.918,-197.184 224.234,-145.821 163.723,48.629 0,0 Z" /></g><g
       transform="translate(15.8398,190.2441)"
       id="g52"><path
         id="path54"
         style="fill:#e8e7e5;fill-opacity:1;fill-rule:nonzero;stroke:none"
         d="M 0,0 139.629,42.929 183.102,-97.27 44.558,-141.066 0,0 Z" /></g><g
       transform="translate(15.8398,190.2441)"
       id="g56"><path
         id="path58"
         style="fill:none;stroke:#100f0d;stroke-width:0.49700001;stroke-linecap:butt;stroke-linejoin:miter;stroke-miterlimit:10;stroke-dasharray:none;stroke-opacity:1"
         d="M 0,0 139.629,42.929 183.102,-97.27 44.558,-141.066 0,0 Z" /></g><g
       id="g60"><g
         clip-path="url(#clipPath64)"
         id="g62"><g
           transform="translate(68.5688,170.2695)"
           id="g68"><path
             id="path70"
             style="fill:#231f20;fill-opacity:1;fill-rule:nonzero;stroke:none"
             d="m 0,0 -0.416,3.962 c -1.244,11.866 4.012,23.409 13.18,28.73 11.53,6.692 25.602,13.157 35.836,7.145 0.425,-0.249 0.833,-0.554 1.208,-0.893 3.691,-3.336 4.894,-6.747 5.118,-9.458 0.284,-3.442 2.025,-6.504 4.719,-7.94 7.182,-3.829 18.449,-11.957 15.407,-24.194 -1.535,-6.174 -1.219,-10.675 -0.16,-13.916 1.709,-5.232 3.731,-7.733 8.316,-9.387 6.151,-2.218 11.172,-7.937 2.016,-9.278 -28.237,-4.135 -48.968,-15.776 -62.121,-18.051 -13.154,-2.276 -25.817,-8.976 -37.112,4.739 4.101,-2.223 3.507,4.517 6.929,4.148 6.273,-0.675 10.816,6.831 8.222,13.534 -3.173,8.197 -6.046,18.609 -2.822,23.788 C -0.4,-5.014 0.265,-2.524 0,0" /></g><g
           transform="translate(132.8838,101.7441)"
           id="g72"><path
             id="path74"
             style="fill:#d74e2d;fill-opacity:1;fill-rule:nonzero;stroke:none"
             d="m 0,0 c 2.252,0.459 4.517,0.704 6.815,0.413 1.124,-0.142 1.723,-0.698 2.103,-1.843 0.864,-2.599 0.467,-5.283 0.777,-7.913 0.377,-3.195 0.571,-6.413 0.993,-9.6 0.187,-1.417 -0.354,-2.223 -1.453,-2.919 -0.847,-0.537 -1.866,-0.779 -2.591,-1.519 -2.299,-0.629 -4.597,-1.258 -6.896,-1.887 -1.174,0.005 -2.349,0.001 -3.522,0.019 -1.078,0.016 -1.755,0.484 -2.232,1.533 -1.858,4.092 -3.668,8.22 -5.819,12.158 -0.738,1.351 -1.302,2.685 -1.792,4.112 -0.378,1.095 0.018,1.79 0.793,2.438 1.451,1.215 3.134,2.041 4.871,2.715 1.777,0.689 3.557,1.407 5.442,1.779 0.239,-1.272 0.004,-2.511 -0.269,-3.748 -1.862,-1.219 -4.183,-1.423 -6.124,-2.683 2.089,-0.531 10.423,1.659 13.247,3.479 C 3.585,-3.146 2.959,-3.486 2.334,-3.497 1.396,-3.514 0.345,-4.266 -0.452,-3.146 -0.302,-2.098 -0.15,-1.049 0,0" /></g><g
           transform="translate(132.8838,101.7441)"
           id="g76"><path
             id="path78"
             style="fill:none;stroke:#231f20;stroke-width:0.20999999;stroke-linecap:butt;stroke-linejoin:miter;stroke-miterlimit:10;stroke-dasharray:none;stroke-opacity:1"
             d="m 0,0 c 2.252,0.459 4.517,0.704 6.815,0.413 1.124,-0.142 1.723,-0.698 2.103,-1.843 0.864,-2.599 0.467,-5.283 0.777,-7.913 0.377,-3.195 0.571,-6.413 0.993,-9.6 0.187,-1.417 -0.354,-2.223 -1.453,-2.919 -0.847,-0.537 -1.866,-0.779 -2.591,-1.519 -2.299,-0.629 -4.597,-1.258 -6.896,-1.887 -1.174,0.005 -2.349,0.001 -3.522,0.019 -1.078,0.016 -1.755,0.484 -2.232,1.533 -1.858,4.092 -3.668,8.22 -5.819,12.158 -0.738,1.351 -1.302,2.685 -1.792,4.112 -0.378,1.095 0.018,1.79 0.793,2.438 1.451,1.215 3.134,2.041 4.871,2.715 1.777,0.689 3.557,1.407 5.442,1.779 0.239,-1.272 0.004,-2.511 -0.269,-3.748 -1.862,-1.219 -4.183,-1.423 -6.124,-2.683 2.089,-0.531 10.423,1.659 13.247,3.479 C 3.585,-3.146 2.959,-3.486 2.334,-3.497 1.396,-3.514 0.345,-4.266 -0.452,-3.146 -0.302,-2.098 -0.15,-1.049 0,0 Z" /></g><g
           transform="translate(131.8271,98.9375)"
           id="g80"><path
             id="path82"
             style="fill:#252525;fill-opacity:1;fill-rule:nonzero;stroke:none"
             d="M 0,0 C 1.599,0.204 3.195,0.418 4.796,0.606 5.215,0.655 5.644,0.637 6.067,0.62 6.32,0.61 6.601,0.56 6.7,0.28 6.828,-0.079 6.562,-0.299 6.31,-0.437 5.565,-0.844 4.822,-1.265 4.038,-1.581 -0.003,-3.209 -4.18,-4.336 -8.514,-4.823 c -0.64,-0.073 -1.648,-0.356 -1.851,0.339 -0.246,0.839 0.817,1.034 1.423,1.329 1.721,0.837 3.509,1.517 5.373,1.979 0.408,0.102 0.817,0.267 1.241,0.061 -0.015,-0.382 -0.432,-1.016 0.161,-1.068 0.722,-0.063 1.554,0.161 1.936,0.937 C -0.053,-0.881 -0.071,-0.419 0,0" /></g><g
           transform="translate(146.0205,119.0264)"
           id="g84"><path
             id="path86"
             style="fill:#054688;fill-opacity:1;fill-rule:nonzero;stroke:none"
             d="m 0,0 c 0.004,-0.455 -0.364,-0.65 -0.648,-0.888 -2.619,-2.184 -4.592,-4.838 -6.021,-7.94 -1.553,-3.369 -4.833,-4.889 -8.551,-4.083 -0.387,0.084 -0.754,0.103 -1.114,-0.081 l -0.138,0.337 c -0.126,0.448 -0.167,0.945 -0.392,1.336 -0.817,1.419 -0.52,2.828 0.156,4.108 1.564,2.964 3.568,5.542 6.859,6.788 2.571,0.973 5.239,1.16 7.924,0.808 C -1.3,0.303 -0.543,0.574 0,0" /></g><g
           transform="translate(120.2354,111.3047)"
           id="g88"><path
             id="path90"
             style="fill:#003d8e;fill-opacity:1;fill-rule:nonzero;stroke:none"
             d="m 0,0 c 6.581,0.12 11.472,-6.645 7.45,-12.422 -1.549,-2.224 2.092,-4.327 3.628,-2.121 C 16.925,-6.146 9.597,4.377 0,4.202 -2.701,4.152 -2.71,-0.05 0,0" /></g><g
           transform="translate(126.0605,110.9385)"
           id="g92"><path
             id="path94"
             style="fill:#ffffff;fill-opacity:1;fill-rule:nonzero;stroke:none"
             d="M 0,0 -1.554,0.727 -3.033,-0.141 -2.822,1.562 -4.104,2.7 -2.421,3.025 -1.733,4.597 -0.904,3.096 0.803,2.928 -0.368,1.675 0,0 Z" /></g><g
           transform="translate(131.1592,108.8359)"
           id="g96"><path
             id="path98"
             style="fill:#ffffff;fill-opacity:1;fill-rule:nonzero;stroke:none"
             d="m 0,0 -1.53,-0.367 -1.052,-1.172 -0.261,0.998 -1.404,-0.02 1.37,0.985 0.184,1.159 1.107,-0.39 L -0.068,1.93 -0.754,0.704 0,0 Z" /></g><g
           transform="translate(131.7383,100.0273)"
           id="g100"><path
             id="path102"
             style="fill:#ffffff;fill-opacity:1;fill-rule:nonzero;stroke:none"
             d="M 0,0 -1.177,0.636 -2.4,0.098 l 0.279,1.234 -0.936,0.92 1.35,0.127 0.645,1.107 L -0.507,2.331 0.827,2.096 -0.179,1.254 0,0 Z" /></g><g
           transform="translate(141.3281,115.2246)"
           id="g104"><path
             id="path106"
             style="fill:#ffffff;fill-opacity:1;fill-rule:nonzero;stroke:none"
             d="m 0,0 -1.401,0.345 -0.893,-1.136 -0.321,1.643 -1.311,0.791 1.204,0.67 0.083,1.624 1.065,-1.229 1.361,0.213 L -0.759,1.491 0,0 Z" /></g><g
           transform="translate(136.3408,109.7256)"
           id="g108"><path
             id="path110"
             style="fill:#ffffff;fill-opacity:1;fill-rule:nonzero;stroke:none"
             d="M 0,0 -1.406,0.406 -2.45,-0.62 -2.6,0.955 -3.862,1.778 -2.549,2.346 -2.285,3.88 -1.323,2.656 0.103,2.781 -0.617,1.457 0,0 Z" /></g><g
           transform="translate(93.1855,176.9219)"
           id="g112"><path
             id="path114"
             style="fill:#0a73ba;fill-opacity:1;fill-rule:nonzero;stroke:none"
             d="m 0,0 c 0,0 -20.298,-39.729 21.094,-62.695 8.032,-4.457 24.585,8.352 18.216,39.686 C 36.06,-7.016 27.105,2.092 18.085,5.886 4.307,11.683 0,0 0,0" /></g><g
           transform="translate(111.7285,159.603)"
           id="g116"><path
             id="path118"
             style="fill:#f0f0ea;fill-opacity:1;fill-rule:nonzero;stroke:none"
             d="m 0,0 c 1.481,-5.413 -0.919,-10.786 -5.36,-12.001 -4.441,-1.215 -9.243,2.188 -10.723,7.601 -1.481,5.412 0.918,10.785 5.36,12.001 C -6.282,8.816 -1.481,5.413 0,0" /></g><g
           transform="translate(125.0645,165.0259)"
           id="g120"><path
             id="path122"
             style="fill:#f0f0ea;fill-opacity:1;fill-rule:nonzero;stroke:none"
             d="m 0,0 c 1.766,-4.773 0.236,-9.737 -3.415,-11.088 -3.651,-1.351 -8.043,1.423 -9.809,6.195 C -14.99,-0.12 -13.461,4.844 -9.81,6.195 -6.157,7.546 -1.766,4.772 0,0" /></g><g
           transform="translate(107.4902,158.5537)"
           id="g124"><path
             id="path126"
             style="fill:#1c9a48;fill-opacity:1;fill-rule:nonzero;stroke:none"
             d="m 0,0 c 0.703,-2.567 -0.359,-5.095 -2.372,-5.646 -2.012,-0.551 -4.213,1.084 -4.916,3.652 -0.702,2.568 0.36,5.096 2.372,5.646 C -2.903,4.203 -0.703,2.568 0,0" /></g><g
           transform="translate(122.498,163.6865)"
           id="g128"><path
             id="path130"
             style="fill:#1c9a48;fill-opacity:1;fill-rule:nonzero;stroke:none"
             d="m 0,0 c 0.698,-2.552 -0.227,-5.029 -2.065,-5.532 -1.839,-0.503 -3.896,1.158 -4.594,3.71 -0.698,2.551 0.226,5.029 2.065,5.531 C -2.755,4.213 -0.698,2.552 0,0" /></g><g
           transform="translate(102.2026,157.1069)"
           id="g132"><path
             id="path134"
             style="fill:#141810;fill-opacity:1;fill-rule:nonzero;stroke:none"
             d="M 0,0 C -0.38,1.39 0.174,2.753 1.239,3.044 2.304,3.336 3.475,2.445 3.855,1.055 4.235,-0.335 3.681,-1.698 2.616,-1.989 1.552,-2.281 0.38,-1.39 0,0" /></g><g
           transform="translate(117.4219,162.2808)"
           id="g136"><path
             id="path138"
             style="fill:#141810;fill-opacity:1;fill-rule:nonzero;stroke:none"
             d="M 0,0 C -0.384,1.402 0.184,2.779 1.268,3.076 2.351,3.372 3.54,2.476 3.924,1.074 4.308,-0.328 3.74,-1.705 2.656,-2.002 1.573,-2.298 0.383,-1.402 0,0" /></g><g
           transform="translate(100.7139,158.7407)"
           id="g140"><path
             id="path142"
             style="fill:#ffffff;fill-opacity:1;fill-rule:nonzero;stroke:none"
             d="M 0,0 C 0.036,0.833 0.594,1.486 1.248,1.458 1.901,1.43 2.401,0.732 2.365,-0.102 2.33,-0.935 1.771,-1.587 1.118,-1.56 0.465,-1.531 -0.036,-0.833 0,0" /></g><g
           transform="translate(118.2012,164.4067)"
           id="g144"><path
             id="path146"
             style="fill:#ffffff;fill-opacity:1;fill-rule:nonzero;stroke:none"
             d="m 0,0 c -0.111,-0.712 -0.586,-1.229 -1.062,-1.155 -0.475,0.074 -0.77,0.711 -0.66,1.424 0.112,0.712 0.587,1.23 1.063,1.155 C -0.184,1.35 0.111,0.712 0,0" /></g><g
           transform="translate(117.2725,161.9316)"
           id="g148"><path
             id="path150"
             style="fill:#ffffff;fill-opacity:1;fill-rule:nonzero;stroke:none"
             d="M 0,0 C -0.162,-0.182 -0.419,-0.218 -0.572,-0.08 -0.727,0.057 -0.72,0.316 -0.558,0.498 -0.396,0.679 -0.14,0.715 0.015,0.577 0.169,0.44 0.162,0.181 0,0" /></g><g
           transform="translate(96.1138,168.605)"
           id="g152"><path
             id="path154"
             style="fill:#0a73ba;fill-opacity:1;fill-rule:nonzero;stroke:none"
             d="M 0,0 C 0.67,1.018 1.021,2.257 1.824,3.181 3.583,5.205 5.401,3.432 6.484,1.813 6.694,1.5 7.202,1.794 6.991,2.109 6.099,3.442 4.837,5.084 3.001,4.659 0.997,4.194 0.474,1.786 -0.506,0.296 -0.715,-0.021 -0.207,-0.315 0,0" /></g><g
           transform="translate(97.168,166.0107)"
           id="g156"><path
             id="path158"
             style="fill:#4985a4;fill-opacity:1;fill-rule:nonzero;stroke:none"
             d="M 0,0 C 1.394,2.387 4.17,3.214 6.65,1.966 6.987,1.796 7.284,2.302 6.946,2.473 4.187,3.862 1.055,2.972 -0.507,0.296 -0.698,-0.03 -0.191,-0.326 0,0" /></g><g
           transform="translate(112.0352,169.8457)"
           id="g160"><path
             id="path162"
             style="fill:#4985a4;fill-opacity:1;fill-rule:nonzero;stroke:none"
             d="M 0,0 C 1.806,1.994 4.342,3.754 7.112,2.545 7.455,2.396 7.754,2.901 7.408,3.052 4.388,4.37 1.603,2.642 -0.415,0.415 -0.668,0.136 -0.254,-0.281 0,0" /></g><g
           transform="translate(100.1826,147.1855)"
           id="g164"><path
             id="path166"
             style="fill:#597d9f;fill-opacity:1;fill-rule:nonzero;stroke:none"
             d="M 0,0 C 2.455,0.273 4.871,0.15 7.284,-0.384 7.652,-0.466 7.81,0.1 7.44,0.182 4.976,0.728 2.51,0.866 0,0.587 -0.371,0.545 -0.375,-0.042 0,0" /></g><g
           transform="translate(121.1045,152.0093)"
           id="g168"><path
             id="path170"
             style="fill:#597d9f;fill-opacity:1;fill-rule:nonzero;stroke:none"
             d="M 0,0 C 1.204,1.829 2.934,3.159 5.011,3.853 5.367,3.972 5.214,4.539 4.854,4.418 2.629,3.675 0.783,2.256 -0.507,0.296 -0.715,-0.021 -0.207,-0.314 0,0" /></g><g
           transform="translate(125.5654,147.4297)"
           id="g172"><path
             id="path174"
             style="fill:#8d3928;fill-opacity:1;fill-rule:nonzero;stroke:none"
             d="m 0,0 c -0.458,-3.693 -2.079,-7.391 -5.396,-9.375 -3.932,-2.354 -8.796,-1.688 -11.56,2.117 -0.393,0.542 -1.305,0.018 -0.907,-0.53 2.582,-3.555 6.91,-4.972 11.078,-3.425 C -1.995,-9.435 0.451,-4.833 1.05,0 1.133,0.669 0.082,0.663 0,0" /></g><g
           transform="translate(107.9126,141.9082)"
           id="g176"><path
             id="path178"
             style="fill:#8d3928;fill-opacity:1;fill-rule:nonzero;stroke:none"
             d="m 0,0 c -0.407,-1.165 -1.498,-1.983 -2.729,-2.054 -0.672,-0.039 -0.677,-1.09 0,-1.05 1.722,0.099 3.173,1.198 3.742,2.825 C 1.236,0.36 0.222,0.635 0,0" /></g><g
           transform="translate(123.5889,148.481)"
           id="g180"><path
             id="path182"
             style="fill:#8d3928;fill-opacity:1;fill-rule:nonzero;stroke:none"
             d="M 0,0 C 1.188,-1.905 3.595,-2.252 5.308,-0.826 5.827,-0.393 5.081,0.347 4.564,-0.083 3.376,-1.073 1.717,-0.767 0.907,0.53 0.55,1.103 -0.359,0.576 0,0" /></g><g
           transform="translate(122.6006,177.9141)"
           id="g184"><path
             id="path186"
             style="fill:#f9b523;fill-opacity:1;fill-rule:nonzero;stroke:none"
             d="m 0,0 -2.686,5.924 -17.418,3.034 -14.554,-12.973 0.11,-7.147 c 0,0 13.804,4.291 19.088,3.822 C -11.223,-6.023 -3.8,1.353 0,0" /></g><g
           transform="translate(122.6006,177.9141)"
           id="g188"><path
             id="path190"
             style="fill:none;stroke:#231f20;stroke-width:0.83999997;stroke-linecap:butt;stroke-linejoin:miter;stroke-miterlimit:10;stroke-dasharray:none;stroke-opacity:1"
             d="m 0,0 -2.686,5.924 -17.418,3.034 -14.554,-12.973 0.11,-7.147 c 0,0 13.804,4.291 19.088,3.822 C -11.223,-6.023 -3.8,1.353 0,0 Z" /></g><g
           transform="translate(111.4771,174.2832)"
           id="g192"><path
             id="path194"
             style="fill:#d74e2d;fill-opacity:1;fill-rule:nonzero;stroke:none"
             d="M 0,0 -5.044,1.05 -8.77,-2.509 -9.329,2.613 -13.866,5.056 -9.167,7.171 -8.246,12.24 -4.783,8.425 0.323,9.116 -2.234,4.643 0,0 Z" /></g><g
           transform="translate(111.4771,174.2832)"
           id="g196"><path
             id="path198"
             style="fill:none;stroke:#231f20;stroke-width:0.20999999;stroke-linecap:butt;stroke-linejoin:miter;stroke-miterlimit:10;stroke-dasharray:none;stroke-opacity:1"
             d="M 0,0 -5.044,1.05 -8.77,-2.509 -9.329,2.613 -13.866,5.056 -9.167,7.171 -8.246,12.24 -4.783,8.425 0.323,9.116 -2.234,4.643 0,0 Z" /></g><g
           transform="translate(102.6855,122.54)"
           id="g200"><path
             id="path202"
             style="fill:#d74e2d;fill-opacity:1;fill-rule:nonzero;stroke:none"
             d="M 0,0 C 0,0 10.712,-10.531 18.917,-11.555 29.943,-7.919 30.543,0.789 30.62,6.143 30.696,11.497 18.27,1.612 18.27,1.612 14.045,4.614 0,0 0,0" /></g><g
           transform="translate(102.6855,122.54)"
           id="g204"><path
             id="path206"
             style="fill:none;stroke:#231f20;stroke-width:0.17900001;stroke-linecap:butt;stroke-linejoin:miter;stroke-miterlimit:10;stroke-dasharray:none;stroke-opacity:1"
             d="M 0,0 C 0,0 10.712,-10.531 18.917,-11.555 29.943,-7.919 30.543,0.789 30.62,6.143 30.696,11.497 18.27,1.612 18.27,1.612 14.045,4.614 0,0 0,0 Z" /></g><g
           transform="translate(118.0664,112.3242)"
           id="g208"><path
             id="path210"
             style="fill:#f9b523;fill-opacity:1;fill-rule:nonzero;stroke:none"
             d="M 0,0 C 0,0 4.889,-0.155 5.39,3.649 7.497,2.723 10.582,2.874 10.582,2.874 L 5.316,-1.853 0,0 Z" /></g><g
           transform="translate(118.0664,112.3242)"
           id="g212"><path
             id="path214"
             style="fill:none;stroke:#231f20;stroke-width:0.41999999;stroke-linecap:butt;stroke-linejoin:miter;stroke-miterlimit:10;stroke-dasharray:none;stroke-opacity:1"
             d="M 0,0 C 0,0 4.889,-0.155 5.39,3.649 7.497,2.723 10.582,2.874 10.582,2.874 L 5.316,-1.853 0,0 Z" /></g><g
           transform="translate(106.8882,121.9375)"
           id="g216"><path
             id="path218"
             style="fill:#f9b523;fill-opacity:1;fill-rule:nonzero;stroke:none"
             d="m 0,0 c 3.334,1.037 6.886,1.367 10.354,0.964 1.032,-0.121 2.127,-0.297 3.073,0.132 0.948,0.428 1.554,1.759 0.865,2.536 0.504,-1.156 2.116,-1.395 3.292,-0.937 1.176,0.458 2.094,1.391 3.165,2.061 1.07,0.669 3.732,2.351 4.776,1.642 -0.062,-0.392 -3.182,-4.314 -5.863,-7.141 -0.833,0.889 -3.401,1.545 -4.481,0.983 -0.746,-0.388 -1.303,-2.898 -2.116,-3.111 -0.602,-0.158 -3.312,0.969 -3.92,1.096 -3.386,0.706 -5.939,0.223 -8.249,0.949" /></g><g
           transform="translate(106.936,121.7656)"
           id="g220"><path
             id="path222"
             style="fill:#231f20;fill-opacity:1;fill-rule:nonzero;stroke:none"
             d="M 0,0 C 2.83,0.771 5.635,1.19 8.567,1.098 9.884,1.056 11.37,0.55 12.675,0.959 c 1.286,0.404 1.247,1.506 2.04,1.937 0.19,0.103 1.275,-0.519 1.605,-0.418 2.39,0.728 4.001,2.451 6.314,3.367 C 27.24,7.667 24.19,5.001 22.953,3.497 21.95,2.276 20.799,0.193 19.022,0.081 17.805,0.004 16.421,1.418 15.085,0.584 14.818,0.417 14.703,0.02 14.448,-0.118 14.061,-1.399 13.112,-2.108 11.6,-2.246 c -0.329,0.109 -0.657,0.22 -0.986,0.329 -0.757,0.019 -2.47,0.662 -3.143,0.757 -2.213,0.312 -4.374,0.168 -6.575,0.679 -0.225,0.051 -0.32,-0.293 -0.096,-0.345 1.723,-0.401 3.407,-0.403 5.167,-0.558 1.574,-0.137 4.86,-1.679 6.422,-1.446 2.583,0.384 3.692,4.615 7.134,2.104 0.061,-0.044 0.167,-0.025 0.217,0.029 2.024,2.189 4.487,4.505 5.891,7.177 0.051,0.096 0.012,0.238 -0.106,0.263 C 22.047,7.467 17.401,0.745 14.37,3.931 14.249,4.058 14.016,3.927 14.071,3.757 15.045,0.738 6.271,1.483 5.079,1.373 3.306,1.209 1.622,0.812 -0.095,0.345 -0.317,0.284 -0.223,-0.062 0,0" /></g><g
           transform="translate(132.8398,148.2632)"
           id="g224"><path
             id="path226"
             style="fill:#0a73ba;fill-opacity:1;fill-rule:nonzero;stroke:none"
             d="m 0,0 c 3.025,-0.784 6.052,-1.567 9.077,-2.351 2.836,-0.734 6.164,-2.242 9.078,-2.351 0.505,-0.131 1.009,-0.261 1.514,-0.392 -0.342,2.211 -0.859,2.345 -1.554,0.405 -1.043,-0.843 -1.834,-2.971 -2.519,-4.082 -1.68,-2.72 -3.36,-5.441 -5.04,-8.162 -1.424,-2.307 2.209,-4.42 3.629,-2.121 l 7.139,11.564 c 1.002,1.622 2.645,3.586 1.146,5.424 -1.537,1.883 -5.561,2.028 -7.737,2.591 C 10.194,1.701 5.655,2.876 1.116,4.052 -1.503,4.73 -2.62,0.678 0,0" /></g><g
           transform="translate(91.2139,144.832)"
           id="g228"><path
             id="path230"
             style="fill:#0a73ba;fill-opacity:1;fill-rule:nonzero;stroke:none"
             d="m 0,0 c -3.563,-1.448 -7.126,-2.895 -10.689,-4.343 -1.644,-0.667 -3.58,-1.857 -5.345,-2.171 -3.089,-0.549 -5.107,0.54 -7.27,2.684 -2.674,2.65 -4.864,5.438 -7.195,8.383 -1.571,1.984 -2.064,1.55 -1.936,3.506 0.177,2.699 -4.026,2.689 -4.202,0 -0.201,-3.063 0.363,-3.53 2.299,-5.515 3.461,-3.548 6.128,-7.723 9.866,-11.108 2.53,-2.29 4.791,-3.442 8.233,-2.501 5.889,1.609 11.702,4.716 17.356,7.013 C 3.59,-3.047 2.508,1.019 0,0" /></g><g
           transform="translate(143.5068,133.751)"
           id="g232"><path
             id="path234"
             style="fill:#f9b523;fill-opacity:1;fill-rule:nonzero;stroke:none"
             d="M 0,0 3.933,9.156 9.379,4.028 5.143,-4.761 0,0 Z" /></g><g
           transform="translate(143.5068,133.751)"
           id="g236"><path
             id="path238"
             style="fill:none;stroke:#231f20;stroke-width:0.92500001;stroke-linecap:butt;stroke-linejoin:miter;stroke-miterlimit:10;stroke-dasharray:none;stroke-opacity:1"
             d="M 0,0 3.933,9.156 9.379,4.028 5.143,-4.761 0,0 Z" /></g><g
           transform="translate(55.0645,148.5176)"
           id="g240"><path
             id="path242"
             style="fill:#f9b523;fill-opacity:1;fill-rule:nonzero;stroke:none"
             d="m 0,0 5.495,1.146 9.026,-7.449 c 0,0 -6.279,-5.157 -7.457,-5.157 C 5.887,-11.46 0,0 0,0" /></g><g
           transform="translate(55.0645,148.5176)"
           id="g244"><path
             id="path246"
             style="fill:none;stroke:#231f20;stroke-width:0.93099999;stroke-linecap:butt;stroke-linejoin:miter;stroke-miterlimit:10;stroke-dasharray:none;stroke-opacity:1"
             d="m 0,0 5.495,1.146 9.026,-7.449 c 0,0 -6.279,-5.157 -7.457,-5.157 C 5.887,-11.46 0,0 0,0 Z" /></g><g
           transform="translate(143.2725,131.9097)"
           id="g248"><path
             id="path250"
             style="fill:#0a73ba;fill-opacity:1;fill-rule:nonzero;stroke:none"
             d="M 0,0 C -0.069,-0.23 -0.064,-0.22 0.015,0.029 0.176,0.222 0.174,0.234 0.009,0.064 0.095,0.173 0.206,0.24 0.343,0.266 0.104,0.207 0.122,0.205 0.395,0.262 0.668,0.212 0.687,0.218 0.45,0.281 0.587,0.261 0.702,0.199 0.794,0.096 0.63,0.267 0.632,0.258 0.799,0.07 0.884,-0.176 0.894,-0.184 0.827,0.046 0.757,-0.494 0.687,-1.033 0.615,-1.573 0.831,-1.156 0.439,-1.769 0.192,-1.85 0.019,-1.908 -0.18,-1.912 -0.357,-1.858 c -0.226,0.067 -0.476,0.266 -0.595,0.467 -0.063,0.105 -0.072,0.649 -0.098,0.255 -0.069,-1.099 1.017,-2.149 2.102,-2.101 1.197,0.054 2.026,0.924 2.1,2.101 C 3.266,0.651 1.789,2.202 0.035,2.3 -1.833,2.405 -3.794,0.615 -3.15,-1.317 c 0.502,-1.506 2.004,-2.689 3.63,-2.619 1.69,0.072 3.1,1.2 3.572,2.819 C 4.358,-0.062 3.68,1.218 2.584,1.467 1.46,1.723 0.329,1.129 0,0" /></g><g
           transform="translate(56.3403,155.1348)"
           id="g252"><path
             id="path254"
             style="fill:#0a73ba;fill-opacity:1;fill-rule:nonzero;stroke:none"
             d="M 0,0 C 0.219,-0.056 0.406,-0.167 0.562,-0.33 0.413,-0.177 0.455,-0.237 0.687,-0.513 0.583,-0.323 0.608,-0.393 0.761,-0.722 0.738,-0.653 0.72,-0.583 0.707,-0.511 0.747,-0.889 0.764,-0.966 0.759,-0.742 0.694,-1.119 0.686,-1.198 0.735,-0.981 0.576,-1.312 0.548,-1.382 0.649,-1.191 0.571,-1.342 0.46,-1.459 0.318,-1.544 0.153,-1.657 0.144,-1.669 0.29,-1.579 0.101,-1.7 -0.106,-1.76 -0.331,-1.758 c 0.225,-0.01 0.152,0.001 -0.218,0.032 0.209,-0.068 0.15,-0.042 -0.177,0.08 0.184,-0.118 0.137,-0.078 -0.141,0.12 0.151,-0.159 0.115,-0.107 -0.106,0.156 0.104,-0.194 0.079,-0.132 -0.076,0.185 -0.031,0.37 -0.047,0.439 -0.049,0.21 -0.046,-1.1 0.998,-2.15 2.101,-2.101 1.177,0.053 2.053,0.923 2.101,2.101 0.111,2.714 -3.231,4.363 -5.336,2.736 -1.029,-0.795 -1.352,-2.096 -1.121,-3.335 0.227,-1.215 1.117,-2.06 2.236,-2.479 1.031,-0.386 2.348,0.43 2.585,1.468 C 1.74,-1.391 1.104,-0.414 0,0" /></g><g
           transform="translate(98.731,123.2417)"
           id="g256"><path
             id="path258"
             style="fill:#ffffff;fill-opacity:1;fill-rule:nonzero;stroke:none"
             d="m 0,0 c 0,0 -2.42,-5.446 -5.446,-4.539 0.605,-2.117 -0.303,-5.142 -3.933,-3.932 -1.513,-6.958 -6.051,-10.892 -6.958,-9.076 1.512,-5.446 0.302,-9.077 0.302,-9.077 0,0 8.169,3.026 9.379,-3.932 4.841,3.63 7.564,1.21 7.564,1.21 0,0 2.42,8.168 5.748,6.051 0.605,2.117 1.21,7.563 4.235,7.26 -2.42,4.538 3.934,4.841 3.934,4.841 0,0 -9.077,6.958 -4.539,6.958 C 6.656,-3.63 1.21,-18.455 -2.42,-20.27 c -4.538,-4.841 -11.194,-2.118 -8.169,1.513 3.026,3.63 14.824,17.244 14.824,17.244 L 0,0 Z" /></g><g
           transform="translate(98.731,123.2417)"
           id="g260"><path
             id="path262"
             style="fill:none;stroke:#231f20;stroke-width:0.20999999;stroke-linecap:butt;stroke-linejoin:miter;stroke-miterlimit:10;stroke-dasharray:none;stroke-opacity:1"
             d="m 0,0 c 0,0 -2.42,-5.446 -5.446,-4.539 0.605,-2.117 -0.303,-5.142 -3.933,-3.932 -1.513,-6.958 -6.051,-10.892 -6.958,-9.076 1.512,-5.446 0.302,-9.077 0.302,-9.077 0,0 8.169,3.026 9.379,-3.932 4.841,3.63 7.564,1.21 7.564,1.21 0,0 2.42,8.168 5.748,6.051 0.605,2.117 1.21,7.563 4.235,7.26 -2.42,4.538 3.934,4.841 3.934,4.841 0,0 -9.077,6.958 -4.539,6.958 C 6.656,-3.63 1.21,-18.455 -2.42,-20.27 c -4.538,-4.841 -11.194,-2.118 -8.169,1.513 3.026,3.63 14.824,17.244 14.824,17.244 L 0,0 Z" /></g><g
           transform="translate(102.9663,121.7285)"
           id="g264"><path
             id="path266"
             style="fill:#f9b523;fill-opacity:1;fill-rule:nonzero;stroke:none"
             d="M 0,0 C 0,0 -0.756,-0.562 -1.939,-1.523 -7.188,-5.79 -20.831,-17.919 -13.917,-23.598 0.908,-24.203 5.143,-3.025 5.143,-3.025 L 1.21,-1.814 c 0.605,-5.144 -1.512,-10.288 -3.328,-12.405 -1.815,-2.118 -4.84,-6.656 -7.866,-6.656 -3.025,0 -3.025,3.934 -1.815,5.144 1.21,1.21 10.891,12.404 10.891,12.404 L 0,0 Z" /></g><g
           transform="translate(102.9663,121.7285)"
           id="g268"><path
             id="path270"
             style="fill:none;stroke:#231f20;stroke-width:0.20999999;stroke-linecap:butt;stroke-linejoin:miter;stroke-miterlimit:10;stroke-dasharray:none;stroke-opacity:1"
             d="M 0,0 C 0,0 -0.756,-0.562 -1.939,-1.523 -7.188,-5.79 -20.831,-17.919 -13.917,-23.598 0.908,-24.203 5.143,-3.025 5.143,-3.025 L 1.21,-1.814 c 0.605,-5.144 -1.512,-10.288 -3.328,-12.405 -1.815,-2.118 -4.84,-6.656 -7.866,-6.656 -3.025,0 -3.025,3.934 -1.815,5.144 1.21,1.21 10.891,12.404 10.891,12.404 L 0,0 Z" /></g><g
           transform="translate(103.874,167.4126)"
           id="g272"><path
             id="path274"
             style="fill:none;stroke:#231f20;stroke-width:0.20999999;stroke-linecap:butt;stroke-linejoin:miter;stroke-miterlimit:10;stroke-dasharray:none;stroke-opacity:1"
             d="M 0,0 C 0,0 -6.051,-13.614 -11.497,-9.984" /></g><g
           transform="translate(92.0747,163.4795)"
           id="g276"><path
             id="path278"
             style="fill:none;stroke:#231f20;stroke-width:0.20999999;stroke-linecap:butt;stroke-linejoin:miter;stroke-miterlimit:10;stroke-dasharray:none;stroke-opacity:1"
             d="m 0,0 c 0,0 2.222,-6.217 7.261,-2.118 5.95,4.841 6.354,5.648 6.354,5.648" /></g><g
           transform="translate(114.0146,170.9741)"
           id="g280"><path
             id="path282"
             style="fill:none;stroke:#231f20;stroke-width:0.20999999;stroke-linecap:butt;stroke-linejoin:miter;stroke-miterlimit:10;stroke-dasharray:none;stroke-opacity:1"
             d="M 0,0 C 0,0 12.401,-8.256 15.056,-2.274" /></g><g
           transform="translate(126.085,173.9717)"
           id="g284"><path
             id="path286"
             style="fill:none;stroke:#231f20;stroke-width:0.20999999;stroke-linecap:butt;stroke-linejoin:miter;stroke-miterlimit:10;stroke-dasharray:none;stroke-opacity:1"
             d="m 0,0 c 0,0 1.453,-6.44 -4.998,-5.677 -7.617,0.901 -8.39,1.366 -8.39,1.366" /></g><g
           transform="translate(134.1279,159.748)"
           id="g288"><path
             id="path290"
             style="fill:#d74e2d;fill-opacity:1;fill-rule:nonzero;stroke:none"
             d="m 0,0 -2.218,-0.348 -0.97,-2.024 -1.017,2.002 -2.226,0.298 1.59,1.585 -0.404,2.208 1.999,-1.022 1.975,1.067 L -1.625,1.549 0,0 Z" /></g><g
           transform="translate(91.0664,146.3354)"
           id="g292"><path
             id="path294"
             style="fill:#d74e2d;fill-opacity:1;fill-rule:nonzero;stroke:none"
             d="M 0,0 -2.454,0.432 -4.201,-1.344 -4.548,1.123 -6.777,2.235 -4.538,3.328 -4.169,5.792 -2.438,4 0.02,4.411 -1.149,2.21 0,0 Z" /></g></g></g><g
       id="text296"
       style="font-variant:normal;font-weight:normal;font-stretch:normal;font-size:20.00006866px;font-family:'Museo 500';-inkscape-font-specification:Museo-500;writing-mode:lr-tb;fill:#231f20;fill-opacity:1;fill-rule:nonzero;stroke:none"
       transform="matrix(0.9513867,0.30799893,0.30799893,-0.9513867,78.8017,28.1761)"><path
         id="path301"
         style=""
         d="m 4.4200152,0 2.340008,0 2.5600088,-8.9400307 c 0.2600009,-0.9000031 0.4600016,-1.9200063 0.4600016,-1.9200063 l 0.04,0 c 0,0 0.1600006,1.0200032 0.4000013,1.9400064 L 12.620043,0 l 2.320008,0 3.100011,-11.960041 c 0.1,-0.360001 0.320001,-0.440002 0.680002,-0.440002 l 0.300001,0 0,-1.720005 -1.140004,0 c -1.000003,0 -1.480005,0.2 -1.720006,1.160004 l -2.220007,9.0800307 c -0.180001,0.7600026 -0.260001,1.5000051 -0.260001,1.5000051 l -0.04,0 c 0,0 -0.100001,-0.7200024 -0.300001,-1.5000051 l -2.640009,-10.2000347 -1.8000064,0 -2.8400098,10.2000347 c -0.2200007,0.7800027 -0.3400012,1.5000051 -0.3400012,1.5000051 l -0.04,0 c 0,0 -0.1000003,-0.7400025 -0.280001,-1.5000051 L 3.2200111,-12.960044 c -0.2400009,-0.960004 -0.7400026,-1.160004 -1.740006,-1.160004 l -1.14000393,0 0,1.720005 0.30000103,0 c 0.3600012,0 0.580002,0.08 0.6800023,0.440002 L 4.4200152,0 Z" /><path
         id="path303"
         style=""
         d="m 19.020067,-5.0800174 c 0,3.0800105 2.420008,5.32001822 5.440018,5.32001822 3.020011,0 5.460019,-2.24000772 5.460019,-5.32001822 0,-3.0600105 -2.440008,-5.2800186 -5.460019,-5.2800186 -3.02001,0 -5.440018,2.2200081 -5.440018,5.2800186 z m 1.980006,0 c 0,-2.1000073 1.560006,-3.6000124 3.460012,-3.6000124 1.920007,0 3.480012,1.5000051 3.480012,3.6000124 0,2.1200072 -1.560005,3.6400125 -3.480012,3.6400125 -1.900006,0 -3.460012,-1.5200053 -3.460012,-3.6400125 z" /><path
         id="path305"
         style=""
         d="m 32.340112,0 1.940007,0 0,-4.7400163 c 0,-0.5000017 0.04,-0.9600033 0.18,-1.3600046 0.400002,-1.4600051 1.640006,-2.4800086 3.200011,-2.4800086 1.620006,0 1.900007,1.1200039 1.900007,2.5400088 l 0,4.7600163 C 39.560137,-0.3800013 39.940138,0 40.840141,0 l 1.920007,0 0,-1.6600057 -0.820003,0 c -0.280001,0 -0.440002,-0.1400005 -0.440002,-0.4400015 l 0,-4.380015 c 0,-2.5800089 -1.080003,-3.8800138 -3.480011,-3.8800138 -2.200008,0 -3.400012,1.4400054 -3.800014,2.3200084 l -0.04,0 c 0,0 0.04,-0.2600009 0.04,-0.580002 l 0,-0.3800013 c 0,-0.7400025 -0.420001,-1.1200041 -1.280004,-1.1200041 l -1.860006,0 0,1.660006 0.820003,0 c 0.28,0 0.440001,0.1400004 0.440001,0.4400015 l 0,8.0200275 z" /><path
         id="path307"
         style=""
         d="m 43.900151,-5.0600174 c 0,3.1400108 1.720006,5.30001822 4.460015,5.30001822 2.480009,0 3.320012,-1.84000632 3.320012,-1.84000632 l 0.04,0 c 0,0 -0.02,0.2200008 -0.02,0.5200018 C 51.700178,-0.40000137 52.060179,0 52.940182,0 l 1.860007,0 0,-1.6600057 -0.820003,0 c -0.280001,0 -0.440002,-0.1400005 -0.440002,-0.4400015 l 0,-10.7400368 c 0,-0.900003 -0.380001,-1.280004 -1.280004,-1.280004 l -1.920007,0 0,1.660005 0.820003,0 c 0.280001,0 0.440002,0.140001 0.440002,0.440002 l 0,2.5400085 c 0,0.3800013 0.04,0.6800023 0.04,0.6800023 l -0.04,0 c 0,0 -0.780003,-1.5600058 -3.120011,-1.5600058 -2.680009,0 -4.580016,2.0800076 -4.580016,5.3000186 z m 4.840017,3.6200125 c -1.680006,0 -2.86001,-1.4200049 -2.86001,-3.6200125 0,-2.3000079 1.320004,-3.6200124 2.90001,-3.6200124 1.940007,0 2.88001,1.8000062 2.88001,3.6000124 0,2.5800088 -1.420005,3.6400125 -2.92001,3.6400125 z" /><path
         id="path309"
         style=""
         d="m 55.980195,-5.0600174 c 0,3.0000103 2.180008,5.30001822 5.380019,5.30001822 2.400008,0 3.900013,-1.48000512 3.900013,-1.48000512 L 64.420224,-2.620009 c 0,0 -1.220004,1.1800041 -2.96001,1.1800041 -1.800006,0 -3.360011,-1.2200042 -3.480012,-3.3800116 l 7.380026,0 c 0,0 0.06,-0.5400019 0.06,-0.8000028 0,-2.620009 -1.520005,-4.7400167 -4.360015,-4.7400167 -2.88001,0 -5.080018,2.0800076 -5.080018,5.3000186 z m 2.080007,-1.180004 c 0.300002,-1.6800058 1.500006,-2.5800089 2.980011,-2.5800089 1.260004,0 2.320008,0.9000031 2.380008,2.5800089 l -5.360019,0 z" /><path
         id="path311"
         style=""
         d="m 68.000238,0 1.940006,0 0,-4.1400142 c 0,-0.6200021 0.06,-1.2400043 0.240001,-1.8200063 0.460002,-1.5000051 1.600006,-2.3800081 2.84001,-2.3800081 0.320001,0 0.580002,0.06 0.580002,0.06 l 0,-1.9200066 c 0,0 -0.260001,-0.04 -0.520002,-0.04 -1.560005,0 -2.720009,1.1600038 -3.200011,2.6400089 l -0.04,0 c 0,0 0.04,-0.300001 0.04,-0.7000024 l 0,-0.6400022 c 0,-0.8200028 -0.420001,-1.1800043 -1.300004,-1.1800043 l -1.840007,0 0,1.660006 0.820003,0 c 0.280001,0 0.440002,0.1400004 0.440002,0.4400015 l 0,8.0200275 z" /><path
         id="path313"
         style=""
         d="m 80.100275,-1.8600064 c 0,0 1.680006,2.10000722 4.680016,2.10000722 2.80001,0 4.480016,-1.86000642 4.480016,-4.02001382 0,-4.6400159 -6.800024,-4.0000137 -6.800024,-6.860024 0,-1.060003 0.960004,-1.900006 2.480009,-1.900006 1.120004,0 2.180007,0.540002 2.180007,1.280004 l 0,0.660003 1.840007,0 0,-1.160004 c 0,-1.920007 -2.520009,-2.600009 -4.020014,-2.600009 -2.660009,0 -4.520016,1.660005 -4.520016,3.780013 0,4.4000148 6.820024,3.9400132 6.820024,6.9000234 0,1.3000044 -1.100004,2.1000072 -2.420009,2.1000072 -2.100007,0 -3.540012,-1.7000059 -3.540012,-1.7000059 l -1.180004,1.4200049 z" /><path
         id="path315"
         style=""
         d="m 90.898317,-5.0600174 c 0,3.0000103 2.180007,5.30001822 5.380018,5.30001822 2.400008,0 3.900015,-1.48000512 3.900015,-1.48000512 L 99.338346,-2.620009 c 0,0 -1.220005,1.1800041 -2.960011,1.1800041 -1.800006,0 -3.360011,-1.2200042 -3.480011,-3.3800116 l 7.380026,0 c 0,0 0.06,-0.5400019 0.06,-0.8000028 0,-2.620009 -1.520006,-4.7400167 -4.360016,-4.7400167 -2.88001,0 -5.080017,2.0800076 -5.080017,5.3000186 z m 2.080007,-1.180004 c 0.300001,-1.6800058 1.500005,-2.5800089 2.98001,-2.5800089 1.260004,0 2.320008,0.9000031 2.380008,2.5800089 l -5.360018,0 z" /><path
         id="path317"
         style=""
         d="m 101.93836,-5.0600174 c 0,3.0000103 2.18,5.30001822 5.38001,5.30001822 2.40001,0 3.90002,-1.48000512 3.90002,-1.48000512 l -0.84001,-1.3800047 c 0,0 -1.22,1.1800041 -2.96001,1.1800041 -1.8,0 -3.36001,-1.2200042 -3.48001,-3.3800116 l 7.38003,0 c 0,0 0.06,-0.5400019 0.06,-0.8000028 0,-2.620009 -1.52001,-4.7400167 -4.36002,-4.7400167 -2.88001,0 -5.08001,2.0800076 -5.08001,5.3000186 z m 2.08,-1.180004 c 0.3,-1.6800058 1.50001,-2.5800089 2.98001,-2.5800089 1.26001,0 2.32001,0.9000031 2.38001,2.5800089 l -5.36002,0 z" /><path
         id="path319"
         style=""
         d="m 112.99839,-5.0600174 c 0,3.1400108 1.72001,5.30001822 4.46002,5.30001822 2.48001,0 3.32001,-1.84000632 3.32001,-1.84000632 l 0.04,0 c 0,0 -0.02,0.2200008 -0.02,0.5200018 0,0.68000233 0.36,1.0800037 1.24001,1.0800037 l 1.86,0 0,-1.6600057 -0.82,0 c -0.28,0 -0.44,-0.1400005 -0.44,-0.4400015 l 0,-10.7400368 c 0,-0.900003 -0.38,-1.280004 -1.28001,-1.280004 l -1.92,0 0,1.660005 0.82,0 c 0.28,0 0.44,0.140001 0.44,0.440002 l 0,2.5400085 c 0,0.3800013 0.04,0.6800023 0.04,0.6800023 l -0.04,0 c 0,0 -0.78,-1.5600058 -3.12001,-1.5600058 -2.68001,0 -4.58002,2.0800076 -4.58002,5.3000186 z m 4.84002,3.6200125 c -1.68,0 -2.86001,-1.4200049 -2.86001,-3.6200125 0,-2.3000079 1.32001,-3.6200124 2.90001,-3.6200124 1.94001,0 2.88001,1.8000062 2.88001,3.6000124 0,2.5800088 -1.42,3.6400125 -2.92001,3.6400125 z" /></g></g></svg>