<?xml version="1.0" encoding="UTF-8" standalone="no"?>
<svg
   xmlns:dc="http://purl.org/dc/elements/1.1/"
   xmlns:cc="http://creativecommons.org/ns#"
   xmlns:rdf="http://www.w3.org/1999/02/22-rdf-syntax-ns#"
   xmlns:svg="http://www.w3.org/2000/svg"
   xmlns="http://www.w3.org/2000/svg"
   viewBox="0 0 281.25 312.20499"
   height="312.20499"
   width="281.25"
   xml:space="preserve"
   version="1.1"
   id="svg2"><metadata
     id="metadata8"><rdf:RDF><cc:Work
         rdf:about=""><dc:format>image/svg+xml</dc:format><dc:type
           rdf:resource="http://purl.org/dc/dcmitype/StillImage" /></cc:Work></rdf:RDF></metadata><defs
     id="defs6"><clipPath
       id="clipPath20"
       clipPathUnits="userSpaceOnUse"><path
         id="path22"
         d="m 0,0 225,0 0,249.764 -225,0 L 0,0 Z" /></clipPath><clipPath
       id="clipPath40"
       clipPathUnits="userSpaceOnUse"><path
         id="path42"
         d="m 0,0 225,0 0,249.764 -225,0 L 0,0 Z" /></clipPath><clipPath
       id="clipPath64"
       clipPathUnits="userSpaceOnUse"><path
         id="path66"
         d="m 0,249.764 225,0 L 225,0 0,0 0,249.764 Z" /></clipPath></defs><g
     transform="matrix(1.25,0,0,-1.25,0,312.205)"
     id="g10"><g
       transform="translate(1.449,45.846)"
       id="g12"><path
         id="path14"
         style="fill:#f5f5f5;fill-opacity:1;fill-rule:nonzero;stroke:none"
         d="M 0,0 166.043,-45.469 220.074,150.89 56.008,198.332 0,0 Z" /></g><g
       id="g16"><g
         clip-path="url(#clipPath20)"
         id="g18"><g
           transform="translate(57.457,244.1777)"
           id="g24"><path
             id="path26"
             style="fill:none;stroke:#100f0d;stroke-width:0.61000001;stroke-linecap:butt;stroke-linejoin:miter;stroke-miterlimit:10;stroke-dasharray:none;stroke-opacity:1"
             d="M 0,0 164.066,-47.441 110.035,-243.801 -56.008,-198.332 0,0 Z" /></g></g></g><g
       transform="translate(64.8442,228.7324)"
       id="g28"><path
         id="path30"
         style="fill:#f5f5f5;fill-opacity:1;fill-rule:nonzero;stroke:none"
         d="M 0,0 -40.489,-142.278 99.195,-183.539 141.894,-40.949 0,0 Z" /></g><g
       transform="translate(64.8442,228.7324)"
       id="g32"><path
         id="path34"
         style="fill:none;stroke:#000000;stroke-width:0.639;stroke-linecap:butt;stroke-linejoin:miter;stroke-miterlimit:4;stroke-dasharray:none;stroke-opacity:1"
         d="M 0,0 -40.489,-142.278 99.195,-183.539 141.894,-40.949 0,0 Z" /></g><g
       id="g36"><g
         clip-path="url(#clipPath40)"
         id="g38"><g
           transform="translate(0.3789,200.7554)"
           id="g44"><path
             id="path46"
             style="fill:none;stroke:#100f0d;stroke-width:0.61000001;stroke-linecap:butt;stroke-linejoin:miter;stroke-miterlimit:10;stroke-dasharray:none;stroke-opacity:1"
             d="M 0,0 163.723,48.629 224.234,-145.82 59.918,-197.183 0,0 Z" /></g></g></g><g
       transform="translate(0.3789,200.7558)"
       id="g48"><path
         id="path50"
         style="fill:#f5f5f5;fill-opacity:1;fill-rule:nonzero;stroke:none"
         d="M 0,0 59.918,-197.184 224.234,-145.821 163.723,48.629 0,0 Z" /></g><g
       transform="translate(15.8398,190.2441)"
       id="g52"><path
         id="path54"
         style="fill:#e8e7e5;fill-opacity:1;fill-rule:nonzero;stroke:none"
         d="M 0,0 139.629,42.929 183.102,-97.27 44.558,-141.066 0,0 Z" /></g><g
       transform="translate(15.8398,190.2441)"
       id="g56"><path
         id="path58"
         style="fill:none;stroke:#100f0d;stroke-width:0.49700001;stroke-linecap:butt;stroke-linejoin:miter;stroke-miterlimit:10;stroke-dasharray:none;stroke-opacity:1"
         d="M 0,0 139.629,42.929 183.102,-97.27 44.558,-141.066 0,0 Z" /></g><g
       id="g60"><g
         clip-path="url(#clipPath64)"
         id="g62"><g
           transform="translate(133.4619,80.3506)"
           id="g68"><path
             id="path70"
             style="fill:#cccbcb;fill-opacity:1;fill-rule:nonzero;stroke:none"
             d="m 0,0 c 1.054,-1.5 2.538,-1.772 4.148,-1.721 1.768,0.058 3.558,0 5.272,0.436 2.642,0.67 4.934,2.036 7.078,3.705 0.851,0.662 0.919,-1.509 1.346,-0.6 0.228,0.489 -1.057,-2.203 0,0 0.004,0.009 2.246,0.025 2.243,0.016 C 19.082,-1.411 15.788,-0.77 13,-2.312 10.665,-3.604 8.136,-4.271 5.473,-4.437 4.083,-4.523 2.696,-4.309 1.378,-3.72 0.129,-3.163 -0.275,-2.375 -0.072,-0.988 -0.025,-0.663 -0.022,-0.33 0,0" /></g><g
           transform="translate(138.5391,111.3262)"
           id="g72"><path
             id="path74"
             style="fill:#c0272d;fill-opacity:1;fill-rule:nonzero;stroke:none"
             d="m 0,0 c 2.659,0.994 5.374,1.729 8.234,1.817 1.399,0.042 2.236,-0.519 2.92,-1.842 1.555,-3.005 1.587,-6.355 2.473,-9.504 1.076,-3.825 1.933,-7.712 3.061,-11.52 0.501,-1.692 -0.003,-2.778 -1.209,-3.84 -0.93,-0.819 -2.126,-1.309 -2.87,-2.351 -2.682,-1.211 -5.365,-2.421 -8.047,-3.631 -1.433,-0.22 -2.865,-0.451 -4.3,-0.656 -1.318,-0.189 -2.235,0.253 -3.018,1.44 -3.056,4.633 -6.058,9.32 -9.442,13.71 -1.16,1.505 -2.105,3.023 -2.979,4.669 -0.671,1.265 -0.321,2.188 0.498,3.128 1.536,1.761 3.43,3.094 5.419,4.25 2.035,1.184 4.068,2.402 6.296,3.22 0.536,-1.507 0.489,-3.064 0.395,-4.623 -2.037,-1.848 -4.828,-2.543 -6.954,-4.455 2.649,-0.245 12.394,4.033 15.489,6.797 C 4.979,-3.146 4.281,-3.682 3.521,-3.815 2.38,-4.017 1.243,-5.137 0.055,-3.925 0.036,-2.616 0.019,-1.309 0,0" /></g><g
           transform="translate(138.5391,111.3262)"
           id="g76"><path
             id="path78"
             style="fill:none;stroke:#000000;stroke-width:0.315;stroke-linecap:butt;stroke-linejoin:miter;stroke-miterlimit:10;stroke-dasharray:none;stroke-opacity:1"
             d="m 0,0 c 2.659,0.994 5.374,1.729 8.234,1.817 1.399,0.042 2.236,-0.519 2.92,-1.842 1.555,-3.005 1.587,-6.355 2.473,-9.504 1.076,-3.825 1.933,-7.712 3.061,-11.52 0.501,-1.692 -0.003,-2.778 -1.209,-3.84 -0.93,-0.819 -2.126,-1.309 -2.87,-2.351 -2.682,-1.211 -5.365,-2.421 -8.047,-3.631 -1.433,-0.22 -2.865,-0.451 -4.3,-0.656 -1.318,-0.189 -2.235,0.253 -3.018,1.44 -3.056,4.633 -6.058,9.32 -9.442,13.71 -1.16,1.505 -2.105,3.023 -2.979,4.669 -0.671,1.265 -0.321,2.188 0.498,3.128 1.536,1.761 3.43,3.094 5.419,4.25 2.035,1.184 4.068,2.402 6.296,3.22 0.536,-1.507 0.489,-3.064 0.395,-4.623 -2.037,-1.848 -4.828,-2.543 -6.954,-4.455 2.649,-0.245 12.394,4.033 15.489,6.797 C 4.979,-3.146 4.281,-3.682 3.521,-3.815 2.38,-4.017 1.243,-5.137 0.055,-3.925 0.036,-2.616 0.019,-1.309 0,0 Z" /></g><g
           transform="translate(137.791,107.6982)"
           id="g80"><path
             id="path82"
             style="fill:#252525;fill-opacity:1;fill-rule:nonzero;stroke:none"
             d="M 0,0 C 1.91,0.558 3.817,1.127 5.733,1.664 6.234,1.805 6.762,1.865 7.282,1.927 7.593,1.963 7.943,1.955 8.119,1.634 8.344,1.221 8.062,0.9 7.781,0.684 6.952,0.045 6.126,-0.613 5.23,-1.149 0.615,-3.914 -4.263,-6.094 -9.456,-7.524 c -0.768,-0.211 -1.941,-0.75 -2.323,0.056 -0.462,0.978 0.797,1.42 1.478,1.896 1.94,1.354 3.989,2.528 6.174,3.451 0.478,0.202 0.944,0.481 1.502,0.312 0.056,-0.468 -0.331,-1.321 0.401,-1.27 0.894,0.061 1.865,0.494 2.181,1.516 C 0.105,-1.084 -0.006,-0.523 0,0" /></g><g
           transform="translate(151.2334,134.9404)"
           id="g84"><path
             id="path86"
             style="fill:#69bc45;fill-opacity:1;fill-rule:nonzero;stroke:none"
             d="m 0,0 c 0.092,-0.555 -0.319,-0.864 -0.62,-1.208 -2.773,-3.17 -4.668,-6.787 -5.814,-10.847 -1.245,-4.41 -4.953,-6.895 -9.643,-6.629 -0.49,0.029 -0.94,-0.018 -1.344,-0.313 -0.077,0.129 -0.155,0.257 -0.232,0.385 -0.241,0.522 -0.387,1.121 -0.738,1.553 -1.269,1.574 -1.178,3.35 -0.6,5.042 1.337,3.917 3.284,7.448 7.059,9.602 2.948,1.682 6.165,2.425 9.51,2.513 C -1.644,0.119 -0.773,0.595 0,0" /></g><g
           transform="translate(121.4902,120.834)"
           id="g88"><path
             id="path90"
             style="fill:#69bc45;fill-opacity:1;fill-rule:nonzero;stroke:none"
             d="m 0,0 c 7.71,1.412 15.37,-6.125 11.634,-13.751 -1.334,-2.723 2.744,-5.123 4.084,-2.387 C 21.344,-4.656 10.637,6.74 -1.257,4.561 -4.247,4.013 -2.98,-0.547 0,0" /></g><g
           transform="translate(75.6255,195.3823)"
           id="g92"><path
             id="path94"
             style="fill:#0973b9;fill-opacity:1;fill-rule:nonzero;stroke:none"
             d="m 0,0 c 0,0 -17.105,-52.376 37.814,-72.415 10.656,-3.888 28.38,14.927 14.572,51.923 C 45.339,-1.609 32.661,7.775 20.927,10.666 3.002,15.081 0,0 0,0" /></g><g
           transform="translate(101.0903,177.7515)"
           id="g96"><path
             id="path98"
             style="fill:#eff0ea;fill-opacity:1;fill-rule:nonzero;stroke:none"
             d="m 0,0 c 2.85,-6.317 0.958,-13.334 -4.226,-15.672 -5.183,-2.339 -11.695,0.887 -14.545,7.205 -2.85,6.317 -0.958,13.334 4.226,15.672 C -9.362,9.543 -2.85,6.317 0,0" /></g><g
           transform="translate(116.8057,187.0137)"
           id="g100"><path
             id="path102"
             style="fill:#eff0ea;fill-opacity:1;fill-rule:nonzero;stroke:none"
             d="m 0,0 c 3.073,-5.481 2.165,-11.832 -2.029,-14.183 -4.195,-2.352 -10.086,0.185 -13.16,5.667 -3.073,5.481 -2.165,11.831 2.029,14.183 C -8.966,8.019 -3.074,5.482 0,0" /></g><g
           transform="translate(96.6147,175.7324)"
           id="g104"><path
             id="path106"
             style="fill:#1a9948;fill-opacity:1;fill-rule:nonzero;stroke:none"
             d="m 0,0 c 1.352,-2.997 0.543,-6.285 -1.805,-7.344 -2.349,-1.06 -5.349,0.511 -6.701,3.507 -1.351,2.997 -0.543,6.285 1.805,7.345 C -4.352,4.567 -1.352,2.997 0,0" /></g><g
           transform="translate(113.9336,184.8857)"
           id="g108"><path
             id="path110"
             style="fill:#1a9948;fill-opacity:1;fill-rule:nonzero;stroke:none"
             d="M 0,0 C 1.343,-2.979 0.692,-6.178 -1.454,-7.146 -3.6,-8.114 -6.429,-6.485 -7.773,-3.506 -9.117,-0.528 -8.466,2.672 -6.319,3.64 -4.173,4.608 -1.344,2.979 0,0" /></g><g
           transform="translate(90.4434,172.9487)"
           id="g112"><path
             id="path114"
             style="fill:#14170f;fill-opacity:1;fill-rule:nonzero;stroke:none"
             d="M 0,0 C -0.732,1.622 -0.318,3.392 0.925,3.952 2.167,4.513 3.768,3.652 4.5,2.03 5.231,0.407 4.817,-1.362 3.575,-1.923 2.333,-2.483 0.732,-1.623 0,0" /></g><g
           transform="translate(108.0112,182.1929)"
           id="g116"><path
             id="path118"
             style="fill:#14170f;fill-opacity:1;fill-rule:nonzero;stroke:none"
             d="M 0,0 C -0.738,1.636 -0.312,3.425 0.954,3.996 2.218,4.566 3.842,3.703 4.581,2.066 5.319,0.43 4.891,-1.359 3.627,-1.93 2.362,-2.5 0.738,-1.637 0,0" /></g><g
           transform="translate(88.3125,174.6548)"
           id="g120"><path
             id="path122"
             style="fill:#ffffff;fill-opacity:1;fill-rule:nonzero;stroke:none"
             d="M 0,0 C -0.117,1.023 0.439,1.927 1.241,2.019 2.043,2.11 2.788,1.355 2.905,0.332 3.022,-0.691 2.466,-1.595 1.664,-1.687 0.862,-1.779 0.117,-1.023 0,0" /></g><g
           transform="translate(108.5527,184.9365)"
           id="g124"><path
             id="path126"
             style="fill:#ffffff;fill-opacity:1;fill-rule:nonzero;stroke:none"
             d="m 0,0 c 0.002,-0.89 -0.479,-1.613 -1.073,-1.614 -0.594,-10e-4 -1.077,0.719 -1.079,1.61 -10e-4,0.89 0.479,1.613 1.073,1.614 C -0.485,1.611 -0.001,0.891 0,0" /></g><g
           transform="translate(107.8965,181.7378)"
           id="g128"><path
             id="path130"
             style="fill:#ffffff;fill-opacity:1;fill-rule:nonzero;stroke:none"
             d="M 0,0 C -0.163,-0.253 -0.469,-0.346 -0.683,-0.208 -0.897,-0.07 -0.938,0.247 -0.776,0.5 -0.613,0.752 -0.307,0.845 -0.093,0.708 0.121,0.569 0.163,0.252 0,0" /></g><g
           transform="translate(80.7759,185.75)"
           id="g132"><path
             id="path134"
             style="fill:#0973b9;fill-opacity:1;fill-rule:nonzero;stroke:none"
             d="M 0,0 C 0.617,1.341 0.807,2.897 1.548,4.174 3.209,7.034 5.924,5.308 7.609,3.486 7.927,3.143 8.438,3.656 8.122,3.998 6.744,5.488 4.759,7.296 2.577,6.229 0.405,5.167 0.265,2.3 -0.626,0.366 -0.82,-0.055 -0.195,-0.424 0,0" /></g><g
           transform="translate(82.5977,182.8755)"
           id="g136"><path
             id="path138"
             style="fill:#4a85a4;fill-opacity:1;fill-rule:nonzero;stroke:none"
             d="M 0,0 C 1.233,3.196 4.511,4.671 7.757,3.632 8.203,3.489 8.393,4.189 7.95,4.331 4.304,5.498 0.671,3.745 -0.699,0.192 -0.867,-0.243 -0.167,-0.432 0,0" /></g><g
           transform="translate(100.0029,190.4131)"
           id="g140"><path
             id="path142"
             style="fill:#4a85a4;fill-opacity:1;fill-rule:nonzero;stroke:none"
             d="M 0,0 C 1.819,2.79 4.589,5.397 8.201,4.434 8.652,4.313 8.845,5.012 8.394,5.133 4.473,6.178 1.378,3.439 -0.626,0.366 -0.881,-0.026 -0.254,-0.39 0,0" /></g><g
           transform="translate(89.9312,160.4648)"
           id="g144"><path
             id="path146"
             style="fill:#597d9f;fill-opacity:1;fill-rule:nonzero;stroke:none"
             d="M 0,0 C 2.942,0.807 5.917,1.111 8.96,0.924 9.426,0.896 9.425,1.621 8.96,1.649 5.847,1.84 2.815,1.523 -0.192,0.699 -0.642,0.576 -0.451,-0.124 0,0" /></g><g
           transform="translate(114.459,170.3213)"
           id="g148"><path
             id="path150"
             style="fill:#597d9f;fill-opacity:1;fill-rule:nonzero;stroke:none"
             d="M 0,0 C 1.127,2.499 2.992,4.474 5.428,5.734 5.842,5.948 5.476,6.574 5.062,6.36 2.529,5.05 0.547,2.965 -0.626,0.366 -0.816,-0.056 -0.191,-0.425 0,0" /></g><g
           transform="translate(120.8516,165.7471)"
           id="g152"><path
             id="path154"
             style="fill:#a5897a;fill-opacity:1;fill-rule:nonzero;stroke:none"
             d="m 0,0 c 0.166,-4.975 -1.271,-9.911 -5.37,-13.031 -4.352,-3.311 -10.149,-3.137 -14.039,0.82 -0.539,0.548 -1.383,-0.295 -0.844,-0.844 3.776,-3.84 9.395,-4.632 14.105,-1.961 5.403,3.063 7.54,9.074 7.34,15.016 C 1.167,0.766 -0.025,0.769 0,0" /></g><g
           transform="translate(100.4072,155.5947)"
           id="g156"><path
             id="path158"
             style="fill:#a5897a;fill-opacity:1;fill-rule:nonzero;stroke:none"
             d="m 0,0 c -0.288,-1.605 -1.462,-2.839 -3.06,-3.183 -0.75,-0.162 -0.433,-1.312 0.317,-1.15 1.967,0.423 3.538,2.032 3.893,4.016 C 1.285,0.434 0.135,0.755 0,0" /></g><g
           transform="translate(118.2744,166.5361)"
           id="g160"><path
             id="path162"
             style="fill:#a5897a;fill-opacity:1;fill-rule:nonzero;stroke:none"
             d="M 0,0 C 1.729,-1.993 4.712,-1.998 6.45,-0.014 6.954,0.562 6.113,1.409 5.606,0.83 4.273,-0.691 2.171,-0.687 0.844,0.844 0.34,1.424 -0.501,0.578 0,0" /></g><g
           transform="translate(126.6455,180.4829)"
           id="g164"><path
             id="path166"
             style="fill:#3e3e3d;fill-opacity:1;fill-rule:nonzero;stroke:none"
             d="m 0,0 c 2.032,5.747 4.063,11.494 6.096,17.24 0.264,0.748 0.55,1.53 1.138,2.061 0.589,0.532 1.581,0.709 2.161,0.166 C 5.288,13.578 2.003,7.119 -0.339,0.333" /></g><g
           transform="translate(127.2334,180.3208)"
           id="g168"><path
             id="path170"
             style="fill:#000000;fill-opacity:1;fill-rule:nonzero;stroke:none"
             d="m 0,0 c 1.186,3.353 2.37,6.705 3.556,10.057 0.665,1.881 1.183,3.942 2.031,5.747 0.755,1.606 2.92,4.621 0.832,1.33 C 3.133,11.957 0.534,6.429 -1.515,0.656 -1.777,-0.084 -0.6,-0.403 -0.339,0.333 2.062,7.099 5.28,13.4 9.332,19.321 9.506,19.575 9.398,20.024 9.114,20.155 6.802,21.223 5.803,19.499 4.92,17.564 2.428,12.099 0.828,5.991 -1.175,0.324 -1.437,-0.417 -0.26,-0.735 0,0" /></g><g
           transform="translate(128.623,192.9072)"
           id="g172"><path
             id="path174"
             style="fill:#3e3e3d;fill-opacity:1;fill-rule:nonzero;stroke:none"
             d="M 0,0 C 0.413,-1.478 1.895,-2.583 3.429,-2.559 3.457,-0.617 1.284,1.015 -0.573,0.445" /></g><g
           transform="translate(128.0361,192.7451)"
           id="g176"><path
             id="path178"
             style="fill:#000000;fill-opacity:1;fill-rule:nonzero;stroke:none"
             d="m 0,0 c 0.564,-1.771 2.154,-2.968 4.016,-3.006 0.323,-0.007 0.617,0.284 0.609,0.609 -0.061,2.386 -2.46,4.201 -4.773,3.591 -0.757,-0.199 -0.436,-1.375 0.324,-1.174 1.538,0.404 3.189,-0.822 3.23,-2.417 l 0.61,0.609 C 2.706,-1.761 1.573,-0.926 1.175,0.324 0.937,1.069 -0.239,0.75 0,0" /></g><g
           transform="translate(80.332,148.0391)"
           id="g180"><path
             id="path182"
             style="fill:#000000;fill-opacity:1;fill-rule:nonzero;stroke:none"
             d="m 0,0 c -6.477,-4.09 -13.024,-8.06 -19.417,-12.283 -2.606,-1.722 -0.167,-5.945 2.46,-4.209 6.393,4.222 12.94,8.193 19.417,12.283 C 5.106,-2.539 2.663,1.682 0,0" /></g><g
           transform="translate(156.1348,165.1875)"
           id="g184"><path
             id="path186"
             style="fill:#000000;fill-opacity:1;fill-rule:nonzero;stroke:none"
             d="m 0,0 c -2.717,3.394 -5.244,7.52 -9.041,9.74 -6.282,3.673 -12.53,0.909 -18.221,-2.199 -2.753,-1.505 -0.296,-5.716 2.461,-4.21 6.102,3.335 11.636,4.947 16.797,-1.098 1.57,-1.839 3.044,-3.791 4.557,-5.68 C -1.487,-5.896 1.942,-2.427 0,0" /></g><g
           transform="translate(130.2852,158.6504)"
           id="g188"><path
             id="path190"
             style="fill:#4e4846;fill-opacity:1;fill-rule:nonzero;stroke:none"
             d="m 0,0 c 0.253,-8.255 -1.871,-16.687 -6.651,-23.421 -1.628,-2.296 -3.707,-4.48 -6.424,-5.208 -2.816,-0.754 -5.79,0.185 -8.486,1.295 -13.321,5.488 -24.862,15.796 -30.566,29.029 -5.702,13.231 -4.379,16.866 3.472,28.946 0.964,1.483 14.569,6.942 12.838,7.308 -0.958,0.202 15.359,0.993 12.783,1.408 -4.015,0.646 -2.459,0.782 0,0 7.598,-2.418 12.897,-8.679 16.419,-15.693 C -2.911,16.281 -0.254,8.257 0,0 m -3.778,22.483 c -4.001,7.973 -9.349,14.599 -16.786,19.788 -0.294,0.205 -0.615,0.366 -0.948,0.499 -2.289,0.914 -17.413,9.079 -25.892,4.677 -1.777,-0.921 -3.662,-1.277 -4.752,-2.956 -8.89,-13.677 -9.598,-31.9 -3.144,-46.877 6.457,-14.978 19.522,-26.65 34.603,-32.864 3.051,-1.257 6.42,-2.32 9.606,-1.466 3.077,0.824 5.43,3.297 7.272,5.895 5.414,7.625 7.819,17.17 7.531,26.516 -0.288,9.347 -3.298,18.431 -7.49,26.788" /></g><g
           transform="translate(127.1875,181.5317)"
           id="g192"><path
             id="path194"
             style="fill:#000000;fill-opacity:1;fill-rule:nonzero;stroke:none"
             d="m 0,0 c -6.655,12.872 -16.609,21.785 -30.634,25.501 -5.853,1.552 -12.815,1.866 -17.87,-2.17 -5.204,-4.155 -7.421,-14.49 -8.271,-20.646 -2.354,-17.027 4.047,-33.884 15.9,-46.09 5.91,-6.086 13.048,-11.005 20.772,-14.493 6.581,-2.971 12.885,-4.347 18.23,1.478 C 12.361,-40.911 8.384,-17.111 0,0 -0.446,0.911 -1.807,0.113 -1.361,-0.796 6.025,-15.873 9.37,-33.568 1.185,-49.1 c -1.69,-3.205 -3.92,-6.843 -7.111,-8.742 -4.877,-2.903 -10.944,0.059 -15.46,2.282 -6.351,3.126 -12.237,7.231 -17.296,12.188 -10.475,10.264 -16.98,24.102 -16.999,38.874 -0.01,7.719 1.705,15.47 5.318,22.313 3.957,7.497 11.883,8.144 19.31,6.166 C -17.405,20.347 -7.854,11.76 -1.361,-0.796 -0.895,-1.697 0.466,-0.901 0,0" /></g><g
           transform="translate(129.4971,158.6504)"
           id="g196"><path
             id="path198"
             style="fill:#000000;fill-opacity:1;fill-rule:nonzero;stroke:none"
             d="m 0,0 c 0.08,-7.063 -1.253,-14.049 -4.773,-20.244 -2.311,-4.066 -5.095,-7.705 -10.087,-7.554 -3.947,0.119 -7.462,1.854 -10.915,3.686 -10.177,5.399 -18.872,13.775 -23.947,24.178 -2.244,4.599 -4.73,10.253 -4.29,15.511 0.381,4.537 3.555,11.588 6.909,14.732 2.268,2.126 6.064,3.207 8.812,4.574 1.061,0.527 3.855,1.373 4.166,2.776 0.074,0.338 -0.049,0.714 -0.363,0.89 -0.006,-0.006 -0.012,-0.01 -0.018,-0.016 -0.117,-0.439 -0.232,-0.878 -0.348,-1.317 3.941,1.084 9.697,-0.705 13.28,1.354 0.445,0.256 0.511,0.877 0.159,1.238 -0.723,0.742 -2.149,0.492 -3.081,0.827 -0.07,-0.516 -0.14,-1.032 -0.21,-1.549 6.819,0.594 13.833,-8.197 16.793,-13.231 C -3.316,18.04 -0.465,9.051 0,0 0.052,-1.01 1.629,-1.016 1.576,0 1.054,10.173 -2.329,20.705 -8.129,29.133 c -3.195,4.643 -10.189,12.086 -16.577,11.53 -0.889,-0.078 -1.066,-1.241 -0.21,-1.549 0.41,-0.146 2.052,-0.718 2.46,-0.517 2.702,1.33 -1.674,1.211 -1.276,1.132 -1.378,0.271 -3.321,-0.293 -4.736,-0.4 -2.175,-0.165 -4.686,-0.01 -6.805,-0.593 -0.522,-0.144 -0.83,-0.938 -0.348,-1.318 0.253,-0.199 0.1,0.638 -0.674,0.279 -0.945,-0.439 -1.857,-0.988 -2.792,-1.453 -2.038,-1.016 -4.121,-1.944 -6.136,-3.006 -4.043,-2.132 -5.958,-5.911 -7.982,-9.958 -5.237,-10.477 -0.024,-22.106 6.279,-31.027 3.517,-4.98 7.875,-9.33 12.776,-12.948 4.979,-3.677 12.061,-8.35 18.436,-8.912 C -2.312,-30.789 1.687,-9.622 1.576,0 1.565,1.014 -0.012,1.016 0,0" /></g><g
           transform="translate(83.8511,147.708)"
           id="g200"><path
             id="path202"
             style="fill:#4e4846;fill-opacity:1;fill-rule:nonzero;stroke:none"
             d="m 0,0 c -0.627,1.177 7.57,9.096 22.006,16.092 6.757,3.274 17.5,5.431 24.053,7.766 2.575,0.918 0,0 0.733,-2.392 C 49.428,12.85 53.042,-6.41 37.507,-17.628 36.289,-18.706 13.159,-24.69 0,0" /></g><g
           transform="translate(83.8511,147.708)"
           id="g204"><path
             id="path206"
             style="fill:none;stroke:#000000;stroke-width:0.315;stroke-linecap:butt;stroke-linejoin:miter;stroke-miterlimit:10;stroke-dasharray:none;stroke-opacity:1"
             d="m 0,0 c -0.627,1.177 7.57,9.096 22.006,16.092 6.757,3.274 17.5,5.431 24.053,7.766 2.575,0.918 0,0 0.733,-2.392 C 49.428,12.85 53.042,-6.41 37.507,-17.628 36.289,-18.706 13.159,-24.69 0,0 Z" /></g><g
           transform="translate(72.9536,179.2178)"
           id="g208"><path
             id="path210"
             style="fill:#3e3e3d;fill-opacity:1;fill-rule:nonzero;stroke:none"
             d="m 0,0 c -1.557,1.865 -3.437,3.461 -5.531,4.694 0.227,-1.547 -0.989,-2.991 -0.93,-4.553 0.048,-1.283 0.975,-2.402 2.09,-3.037 1.116,-0.635 2.407,-0.873 3.67,-1.101 -0.302,1.203 -0.257,2.492 0.132,3.671" /></g><g
           transform="translate(73.5107,179.7754)"
           id="g212"><path
             id="path214"
             style="fill:#000000;fill-opacity:1;fill-rule:nonzero;stroke:none"
             d="m 0,0 c -1.642,1.914 -3.535,3.509 -5.69,4.817 -0.495,0.3 -1.217,-0.082 -1.186,-0.681 0.12,-2.377 -1.742,-4.174 -0.307,-6.51 1.226,-1.994 3.574,-2.548 5.716,-2.941 0.609,-0.112 1.094,0.352 0.969,0.97 -0.23,1.141 -0.179,2.129 0.131,3.252 0.272,0.979 -1.249,1.397 -1.52,0.419 -0.384,-1.386 -0.414,-2.682 -0.131,-4.09 0.324,0.323 0.647,0.646 0.97,0.969 -1.851,0.34 -4.481,0.767 -5.042,2.899 -0.437,1.665 0.877,3.305 0.79,5.032 C -5.695,3.909 -6.091,3.683 -6.486,3.456 -4.442,2.215 -2.67,0.699 -1.115,-1.115 -0.453,-1.886 0.658,-0.767 0,0" /></g><g
           transform="translate(69.8804,175.4414)"
           id="g216"><path
             id="path218"
             style="fill:#3e3e3d;fill-opacity:1;fill-rule:nonzero;stroke:none"
             d="m 0,0 c -1.156,-0.996 -2.738,-1.287 -4.17,-1.815 -1.432,-0.527 -2.913,-1.534 -3.099,-3.048 -0.168,-1.385 0.801,-2.622 1.711,-3.679 0.472,-0.546 1.067,-1.145 1.784,-1.062 0.556,0.064 0.972,0.524 1.333,0.952 0.914,1.087 1.828,2.173 2.742,3.258 0.71,0.845 1.449,1.751 1.602,2.843 0.153,1.093 -0.561,2.382 -1.664,2.412" /></g><g
           transform="translate(69.4824,176.1221)"
           id="g220"><path
             id="path222"
             style="fill:#000000;fill-opacity:1;fill-rule:nonzero;stroke:none"
             d="m 0,0 c -2.256,-1.707 -6.021,-1.534 -7.347,-4.436 -1.007,-2.203 0.918,-5.752 3.152,-6.515 1.131,-0.385 1.975,0.279 2.709,1.061 1.236,1.319 2.52,2.806 3.563,4.287 1.286,1.828 1.564,5.008 -1.23,5.544 -0.992,0.19 -1.416,-1.329 -0.419,-1.521 3.069,-0.588 -0.896,-4.661 -1.657,-5.566 -0.412,-0.488 -1.161,-1.82 -1.754,-2.052 -1.135,-0.444 -1.805,0.675 -2.307,1.413 -2.914,4.282 3.788,4.685 6.086,6.424 C 1.595,-0.757 0.81,0.612 0,0" /></g><g
           transform="translate(95.2061,132.7939)"
           id="g224"><path
             id="path226"
             style="fill:#f05a26;fill-opacity:1;fill-rule:nonzero;stroke:none"
             d="M 0,0 C 12.974,4.466 25.491,10.256 37.295,17.25" /></g><g
           transform="translate(95.3276,132.353)"
           id="g228"><path
             id="path230"
             style="fill:#f05a26;fill-opacity:1;fill-rule:nonzero;stroke:none"
             d="m 0,0 c 13.021,4.547 25.506,10.317 37.405,17.296 0.507,0.298 0.047,1.088 -0.462,0.789 C 25.115,11.147 12.705,5.403 -0.243,0.882 -0.795,0.689 -0.557,-0.194 0,0" /></g><g
           transform="translate(114.3506,140.8735)"
           id="g232"><path
             id="path234"
             style="fill:#f05a26;fill-opacity:1;fill-rule:nonzero;stroke:none"
             d="M 0,0 C 0.009,-3.505 0.797,-10.164 1.607,-13.573" /></g><g
           transform="translate(113.8936,140.8735)"
           id="g236"><path
             id="path238"
             style="fill:#f05a26;fill-opacity:1;fill-rule:nonzero;stroke:none"
             d="m 0,0 c 0.061,-4.562 0.617,-9.244 1.624,-13.695 0.13,-0.574 1.011,-0.331 0.881,0.243 C 1.515,-9.073 0.974,-4.49 0.914,0 0.906,0.587 -0.008,0.589 0,0" /></g><g
           transform="translate(114.7744,139.8916)"
           id="g240"><path
             id="path242"
             style="fill:#f05a26;fill-opacity:1;fill-rule:nonzero;stroke:none"
             d="M 0,0 C 3.384,-1.369 8.661,-4.667 12.304,-4.883" /></g><g
           transform="translate(114.6533,139.4507)"
           id="g244"><path
             id="path246"
             style="fill:#f05a26;fill-opacity:1;fill-rule:nonzero;stroke:none"
             d="m 0,0 c 4.059,-1.709 7.947,-4.451 12.425,-4.899 0.585,-0.059 0.581,0.856 0,0.914 C 8.066,-3.549 4.202,-0.786 0.243,0.881 -0.299,1.109 -0.535,0.225 0,0" /></g><g
           transform="translate(62.083,132.2798)"
           id="g248"><path
             id="path250"
             style="fill:#ffffff;fill-opacity:1;fill-rule:nonzero;stroke:none"
             d="m 0,0 c -1.181,3.102 -2.361,6.205 -3.542,9.307 -0.38,1 -0.919,2.141 -1.968,2.355 -1.344,0.273 -2.399,-1.191 -2.727,-2.523 -0.489,-1.978 -0.242,-4.13 0.681,-5.947 0.531,-1.044 1.302,-2.16 0.953,-3.278 -0.216,-0.691 -0.815,-1.179 -1.255,-1.753 -0.441,-0.575 -0.713,-1.439 -0.244,-1.99 0.596,-0.698 1.726,-0.269 2.513,0.205 1.825,1.099 3.65,2.198 5.474,3.296" /></g><g
           transform="translate(62.6704,132.4419)"
           id="g252"><path
             id="path254"
             style="fill:#000000;fill-opacity:1;fill-rule:nonzero;stroke:none"
             d="m 0,0 c -1.049,2.757 -2.076,5.524 -3.148,8.272 -0.531,1.362 -1.022,3.295 -2.642,3.753 -3.248,0.92 -4.061,-3.938 -3.833,-6.082 0.085,-0.795 0.274,-1.538 0.548,-2.286 0.231,-0.598 0.507,-1.175 0.827,-1.73 0.52,-1.456 0.311,-2.622 -0.629,-3.497 -0.306,-0.923 -1.121,-1.721 -0.338,-2.728 1.877,-2.417 7.268,2.347 8.82,3.282 0.671,0.404 0.06,1.458 -0.615,1.052 -1.217,-0.732 -2.433,-1.465 -3.649,-2.197 -0.609,-0.366 -1.216,-0.733 -1.825,-1.099 -1.219,0.665 -1.418,1.314 -0.599,1.947 0.056,1.183 0.725,1.536 0.303,2.966 -0.366,1.239 -1.165,2.132 -1.471,3.449 -0.285,1.239 -0.28,2.477 0.014,3.713 2.298,1.227 3.602,0.938 3.914,-0.867 1.508,-2.223 2.188,-5.75 3.148,-8.272 C -0.899,-1.05 0.28,-0.735 0,0" /></g><g
           transform="translate(155.6191,163.8652)"
           id="g256"><path
             id="path258"
             style="fill:#ffffff;fill-opacity:1;fill-rule:nonzero;stroke:none"
             d="M 0,0 C 0.805,-2.101 1.918,-4.077 3.296,-5.848 4.318,-7.161 5.781,-8.242 6.2,-9.86 c 0.419,-1.618 -0.592,-3.907 -2.254,-4.296 -1.624,-0.381 -3.033,0.986 -4.067,2.241 -1.034,1.256 -2.382,2.657 -4.023,2.365 -1.713,-0.305 -2.992,-2.409 -4.682,-2.076 -1.279,0.251 -1.812,1.909 -1.326,3.131 0.484,1.223 1.643,2.056 2.794,2.714 1.149,0.659 2.386,1.246 3.257,2.244 0.705,0.808 1.117,1.832 1.83,2.633 0.714,0.8 2.33,-0.652 3.209,-1.215" /></g><g
           transform="translate(155.0225,163.7012)"
           id="g260"><path
             id="path262"
             style="fill:#000000;fill-opacity:1;fill-rule:nonzero;stroke:none"
             d="m 0,0 c 1.221,-2.967 2.962,-5.18 4.852,-7.699 0.852,-1.137 2.23,-3.814 0.501,-5.117 -2.208,-1.663 -3.693,0.723 -4.769,1.881 -0.817,0.88 -1.763,1.899 -3.018,2.132 -0.811,0.151 -1.399,0.019 -2.135,-0.278 -0.576,-0.232 -1.071,-0.903 -1.64,-1.044 -1.106,-0.925 -1.693,0.05 -1.762,2.925 0.507,0.35 1.014,0.7 1.522,1.049 1.213,0.757 2.455,1.327 3.43,2.403 0.399,0.439 0.821,1.548 1.245,1.837 1.114,0.761 2.114,0.036 2.998,-0.578 0.654,-0.456 1.274,0.616 0.624,1.068 -1.279,0.89 -2.463,1.996 -3.959,1.119 -0.281,-0.165 -0.535,-0.734 -0.732,-0.984 -0.898,-1.14 -1.705,-2.215 -2.928,-3.055 -1.175,-0.806 -2.435,-1.266 -3.409,-2.345 -2.066,-2.287 -0.866,-6.511 2.63,-5.098 0.47,0.189 0.828,0.626 1.285,0.813 1.358,0.558 3.762,0.131 4.974,-0.839 0.996,-0.797 1.536,-1.948 2.76,-2.484 1.647,-0.722 3.22,-0.244 4.228,1.209 0.922,1.329 1.02,3.018 0.344,4.469 C 6.605,-7.68 5.806,-6.977 5.158,-6.199 3.457,-4.155 2.211,-2.145 1.193,0.329 0.895,1.055 -0.303,0.737 0,0" /></g></g></g><g
       id="text264"
       style="font-variant:normal;font-weight:normal;font-stretch:normal;font-size:20.00006866px;font-family:'Museo 500';-inkscape-font-specification:Museo-500;writing-mode:lr-tb;fill:#231f20;fill-opacity:1;fill-rule:nonzero;stroke:none"
       transform="matrix(0.9513867,0.30799893,0.30799893,-0.9513867,94.4418,31.7357)"><path
         id="path269"
         style=""
         d="m 0.68000233,-1.8600064 c 0,0 1.68000577,2.10000722 4.68001607,2.10000722 2.8000096,0 4.4800154,-1.86000642 4.4800154,-4.02001382 0,-4.6400159 -6.8000234,-4.0000137 -6.8000234,-6.860024 0,-1.060003 0.9600033,-1.900006 2.4800086,-1.900006 1.1200038,0 2.1800074,0.540002 2.1800074,1.280004 l 0,0.660003 1.8400064,0 0,-1.160004 c 0,-1.920007 -2.5200087,-2.600009 -4.0200138,-2.600009 -2.6600092,0 -4.5200156,1.660005 -4.5200156,3.780013 0,4.4000148 6.8200234,3.9400132 6.8200234,6.9000234 0,1.3000044 -1.1000037,2.1000072 -2.4200083,2.1000072 -2.1000072,0 -3.5400121,-1.7000059 -3.5400121,-1.7000059 l -1.18000407,1.4200049 z" /><path
         id="path271"
         style=""
         d="m 11.48004,-5.0600174 c 0,3.0000103 2.180007,5.30001822 5.380018,5.30001822 2.400009,0 3.900014,-1.48000512 3.900014,-1.48000512 L 19.920069,-2.620009 c 0,0 -1.220004,1.1800041 -2.96001,1.1800041 -1.800006,0 -3.360012,-1.2200042 -3.480012,-3.3800116 l 7.380025,0 c 0,0 0.06,-0.5400019 0.06,-0.8000028 0,-2.620009 -1.520005,-4.7400167 -4.360015,-4.7400167 -2.88001,0 -5.080017,2.0800076 -5.080017,5.3000186 z m 2.080007,-1.180004 c 0.300001,-1.6800058 1.500005,-2.5800089 2.98001,-2.5800089 1.260005,0 2.320008,0.9000031 2.380008,2.5800089 l -5.360018,0 z" /><path
         id="path273"
         style=""
         d="m 22.520078,-5.0600174 c 0,3.0000103 2.180007,5.30001822 5.380018,5.30001822 2.400009,0 3.900014,-1.48000512 3.900014,-1.48000512 L 30.960107,-2.620009 c 0,0 -1.220004,1.1800041 -2.96001,1.1800041 -1.800006,0 -3.360012,-1.2200042 -3.480012,-3.3800116 l 7.380025,0 c 0,0 0.06,-0.5400019 0.06,-0.8000028 0,-2.620009 -1.520005,-4.7400167 -4.360015,-4.7400167 -2.880009,0 -5.080017,2.0800076 -5.080017,5.3000186 z m 2.080007,-1.180004 c 0.300001,-1.6800058 1.500005,-2.5800089 2.98001,-2.5800089 1.260005,0 2.320008,0.9000031 2.380009,2.5800089 l -5.360019,0 z" /><path
         id="path275"
         style=""
         d="m 33.580117,-5.0600174 c 0,3.1400108 1.720006,5.30001822 4.460015,5.30001822 2.480009,0 3.320012,-1.84000632 3.320012,-1.84000632 l 0.04,0 c 0,0 -0.02,0.2200008 -0.02,0.5200018 C 41.380144,-0.40000137 41.740145,0 42.620148,0 l 1.860007,0 0,-1.6600057 -0.820003,0 c -0.280001,0 -0.440002,-0.1400005 -0.440002,-0.4400015 l 0,-10.7400368 c 0,-0.900003 -0.380001,-1.280004 -1.280004,-1.280004 l -1.920007,0 0,1.660005 0.820003,0 c 0.280001,0 0.440002,0.140001 0.440002,0.440002 l 0,2.5400085 c 0,0.3800013 0.04,0.6800023 0.04,0.6800023 l -0.04,0 c 0,0 -0.780003,-1.5600058 -3.120011,-1.5600058 -2.680009,0 -4.580016,2.0800076 -4.580016,5.3000186 z m 4.840017,3.6200125 c -1.680006,0 -2.86001,-1.4200049 -2.86001,-3.6200125 0,-2.3000079 1.320004,-3.6200124 2.90001,-3.6200124 1.940007,0 2.88001,1.8000062 2.88001,3.6000124 0,2.5800088 -1.420005,3.6400125 -2.92001,3.6400125 z" /><path
         id="path277"
         style=""
         d="m 51.080178,0 2.020007,0 c 0.900003,0 1.280004,-0.3800013 1.280004,-1.2800044 l 0,-7.6600263 c 0,-0.7800027 -0.12,-1.9200063 -0.12,-1.9200063 l 0.04,0 c 0,0 0.640002,1.1600037 1.160004,1.9200063 L 61.760214,0 l 1.800007,0 0,-11.960041 c 0,-0.300001 0.16,-0.440002 0.440001,-0.440002 l 0.860003,0 0,-1.720005 -2.000007,0 c -0.920003,0 -1.300004,0.380001 -1.300004,1.280004 l 0,7.6600262 c 0,0.8000028 0.14,1.9200066 0.14,1.9200066 l -0.04,0 c 0,0 -0.660002,-1.160004 -1.180004,-1.9200066 l -6.280022,-8.9400302 -1.820006,0 0,11.9600406 c 0,0.2800009 -0.16,0.4400015 -0.440001,0.4400015 l -0.860003,0 0,1.7200059 z" /><path
         id="path279"
         style=""
         d="m 67.46023,-12.100042 1.740006,0 0,-2.020006 -1.740006,0 0,2.020006 z m -0.04,10.8200376 C 67.42023,-0.3800013 67.800231,0 68.700235,0 l 1.900006,0 0,-1.6600057 -0.820003,0 c -0.280001,0 -0.440001,-0.1400005 -0.440001,-0.4400015 l 0,-6.7400231 c 0,-0.9000031 -0.380002,-1.2800047 -1.280005,-1.2800047 l -1.900006,0 0,1.660006 0.820003,0 c 0.280001,0 0.440001,0.1400004 0.440001,0.4400015 l 0,6.7400231 z" /><path
         id="path281"
         style=""
         d="m 72.820253,0 1.940006,0 0,-4.7400163 c 0,-0.5000017 0.04,-0.9600033 0.180001,-1.3600046 0.400001,-1.4600051 1.640006,-2.4800086 3.200011,-2.4800086 1.620006,0 1.900007,1.1200039 1.900007,2.5400088 l 0,4.7600163 C 80.040278,-0.3800013 80.420279,0 81.320282,0 l 1.920006,0 0,-1.6600057 -0.820002,0 c -0.280001,0 -0.440002,-0.1400005 -0.440002,-0.4400015 l 0,-4.380015 c 0,-2.5800089 -1.080004,-3.8800138 -3.480012,-3.8800138 -2.200007,0 -3.400011,1.4400054 -3.800013,2.3200084 l -0.04,0 c 0,0 0.04,-0.2600009 0.04,-0.580002 l 0,-0.3800013 c 0,-0.7400025 -0.420001,-1.1200041 -1.280004,-1.1200041 l -1.860007,0 0,1.660006 0.820003,0 c 0.280001,0 0.440002,0.1400004 0.440002,0.4400015 l 0,8.0200275 z" /><path
         id="path283"
         style=""
         d="m 85.880297,-12.100042 1.760006,0 0,-2.020006 -1.760006,0 0,2.020006 z m -2.640009,14.5200503 0,1.6600057 c 0,0 0.260001,0.04 0.660002,0.04 1.280005,0 3.880014,-0.4000013 3.880014,-3.78001293 l 0,-9.18003147 c 0,-0.9000031 -0.380002,-1.2800047 -1.280005,-1.2800047 l -1.920006,0 0,1.660006 0.820002,0 c 0.280001,0 0.440002,0.1400004 0.440002,0.4400015 l 0,8.24002826 c 0,1.98000684 -1.420005,2.22000764 -2.160008,2.22000764 -0.26,0 -0.440001,-0.02 -0.440001,-0.02 z" /><path
         id="path285"
         style=""
         d="m 90.100316,-2.8400098 c 0,2.02000698 1.700006,3.08001062 3.440012,3.08001062 2.420008,0 3.220011,-2.00000682 3.220011,-2.00000682 l 0.04,0 c 0,0 -0.04,0.2600009 -0.04,0.600002 C 96.760339,-0.44000151 97.12034,0 98.020343,0 l 1.820006,0 0,-1.6600057 -0.820002,0 c -0.280001,0 -0.440002,-0.1400005 -0.440002,-0.4400015 l 0,-4.3000148 c 0,-2.2400077 -0.880003,-3.960014 -4.160014,-3.960014 -0.980004,0 -3.500012,0.240001 -3.500012,1.900007 l 0,1.0000034 1.820006,0 0,-0.580002 c 0,-0.6600023 1.180004,-0.7800027 1.660006,-0.7800027 1.580005,0 2.240007,0.6400022 2.240007,2.4200083 l 0,0.1000004 -0.440001,0 c -1.700006,0 -6.100021,0.2000007 -6.100021,3.4600118 z m 1.960007,-0.1000003 c 0,-1.8600064 2.640009,-1.9400067 4.100014,-1.9400067 l 0.500001,0 0,0.3400012 c 0,1.5000052 -1.060003,3.2200111 -2.700009,3.2200111 -1.280004,0 -1.900006,-0.8000028 -1.900006,-1.6200056 z" /></g></g></svg>