<?xml version="1.0" encoding="UTF-8" standalone="no"?>
<svg
   xmlns:dc="http://purl.org/dc/elements/1.1/"
   xmlns:cc="http://creativecommons.org/ns#"
   xmlns:rdf="http://www.w3.org/1999/02/22-rdf-syntax-ns#"
   xmlns:svg="http://www.w3.org/2000/svg"
   xmlns="http://www.w3.org/2000/svg"
   viewBox="0 0 281.25 312.20499"
   height="312.20499"
   width="281.25"
   xml:space="preserve"
   version="1.1"
   id="svg2"><metadata
     id="metadata8"><rdf:RDF><cc:Work
         rdf:about=""><dc:format>image/svg+xml</dc:format><dc:type
           rdf:resource="http://purl.org/dc/dcmitype/StillImage" /></cc:Work></rdf:RDF></metadata><defs
     id="defs6"><clipPath
       id="clipPath20"
       clipPathUnits="userSpaceOnUse"><path
         id="path22"
         d="m 0,0 225,0 0,249.764 -225,0 L 0,0 Z" /></clipPath><clipPath
       id="clipPath40"
       clipPathUnits="userSpaceOnUse"><path
         id="path42"
         d="m 0,0 225,0 0,249.764 -225,0 L 0,0 Z" /></clipPath><clipPath
       id="clipPath68"
       clipPathUnits="userSpaceOnUse"><path
         id="path70"
         d="m 0,249.764 225,0 L 225,0 0,0 0,249.764 Z" /></clipPath><clipPath
       id="clipPath200"
       clipPathUnits="userSpaceOnUse"><path
         id="path202"
         d="m 114.356,106.635 5.728,0 0,-5.865 -5.728,0 0,5.865 z" /></clipPath></defs><g
     transform="matrix(1.25,0,0,-1.25,0,312.205)"
     id="g10"><g
       transform="translate(1.449,45.846)"
       id="g12"><path
         id="path14"
         style="fill:#f5f5f5;fill-opacity:1;fill-rule:nonzero;stroke:none"
         d="M 0,0 166.043,-45.469 220.074,150.89 56.008,198.332 0,0 Z" /></g><g
       id="g16"><g
         clip-path="url(#clipPath20)"
         id="g18"><g
           transform="translate(57.457,244.1777)"
           id="g24"><path
             id="path26"
             style="fill:none;stroke:#100f0d;stroke-width:0.61000001;stroke-linecap:butt;stroke-linejoin:miter;stroke-miterlimit:10;stroke-dasharray:none;stroke-opacity:1"
             d="M 0,0 164.066,-47.441 110.035,-243.801 -56.008,-198.332 0,0 Z" /></g></g></g><g
       transform="translate(64.8442,228.7324)"
       id="g28"><path
         id="path30"
         style="fill:#f5f5f5;fill-opacity:1;fill-rule:nonzero;stroke:none"
         d="M 0,0 -40.489,-142.278 99.195,-183.539 141.894,-40.949 0,0 Z" /></g><g
       transform="translate(64.8442,228.7324)"
       id="g32"><path
         id="path34"
         style="fill:none;stroke:#000000;stroke-width:0.639;stroke-linecap:butt;stroke-linejoin:miter;stroke-miterlimit:4;stroke-dasharray:none;stroke-opacity:1"
         d="M 0,0 -40.489,-142.278 99.195,-183.539 141.894,-40.949 0,0 Z" /></g><g
       id="g36"><g
         clip-path="url(#clipPath40)"
         id="g38"><g
           transform="translate(0.3789,200.7554)"
           id="g44"><path
             id="path46"
             style="fill:none;stroke:#100f0d;stroke-width:0.61000001;stroke-linecap:butt;stroke-linejoin:miter;stroke-miterlimit:10;stroke-dasharray:none;stroke-opacity:1"
             d="M 0,0 163.723,48.629 224.234,-145.82 59.918,-197.183 0,0 Z" /></g></g></g><g
       transform="translate(0.3789,200.7558)"
       id="g48"><path
         id="path50"
         style="fill:#f5f5f5;fill-opacity:1;fill-rule:nonzero;stroke:none"
         d="M 0,0 59.918,-197.184 224.234,-145.821 163.723,48.629 0,0 Z" /></g><g
       transform="translate(15.8398,190.2441)"
       id="g52"><path
         id="path54"
         style="fill:#e8e7e5;fill-opacity:1;fill-rule:nonzero;stroke:none"
         d="M 0,0 139.629,42.929 183.102,-97.27 44.558,-141.066 0,0 Z" /></g><g
       transform="translate(15.8398,190.2441)"
       id="g56"><path
         id="path58"
         style="fill:none;stroke:#100f0d;stroke-width:0.49700001;stroke-linecap:butt;stroke-linejoin:miter;stroke-miterlimit:10;stroke-dasharray:none;stroke-opacity:1"
         d="M 0,0 139.629,42.929 183.102,-97.27 44.558,-141.066 0,0 Z" /></g><g
       id="text60"
       style="font-variant:normal;font-weight:normal;font-stretch:normal;font-size:19.9999733px;font-family:'Museo 500';-inkscape-font-specification:Museo-500;writing-mode:lr-tb;fill:#231f20;fill-opacity:1;fill-rule:nonzero;stroke:none"
       transform="matrix(0.95138623,0.3080004,0.3080004,-0.95138623,107.4868,37.907)"><path
         id="path705"
         style=""
         d="m 0.67999909,-1.8599975 c 0,0 1.67999771,2.09999718 4.67999371,2.09999718 2.7999963,0 4.4799941,-1.85999748 4.4799941,-4.01999468 0,-4.6399938 -6.799991,-3.9999946 -6.799991,-6.859991 0,-1.059998 0.9599988,-1.899997 2.4799967,-1.899997 1.1199985,0 2.1799971,0.539999 2.1799971,1.279998 l 0,0.659999 1.8399976,0 0,-1.159998 c 0,-1.919998 -2.5199967,-2.599997 -4.0199947,-2.599997 -2.6599964,0 -4.51999394,1.659998 -4.51999394,3.779995 0,4.3999943 6.81999094,3.9399949 6.81999094,6.8999909 0,1.2999983 -1.0999986,2.0999972 -2.4199968,2.0999972 -2.0999972,0 -3.5399953,-1.6999977 -3.5399953,-1.6999977 l -1.17999841,1.4199981 z" /><path
         id="path707"
         style=""
         d="M 12.319983,-1.2799983 C 12.319983,-0.37999949 12.699983,0 13.599982,0 l 1.919997,0 0,-1.6599978 -0.819999,0 c -0.279999,0 -0.439999,-0.1399998 -0.439999,-0.4399994 l 0,-10.7399858 c 0,-0.899999 -0.38,-1.279998 -1.279999,-1.279998 l -1.919997,0 0,1.659998 0.819999,0 c 0.28,0 0.439999,0.139999 0.439999,0.439999 l 0,10.7399857 z" /><path
         id="path709"
         style=""
         d="m 17.679977,-3.6399951 c 0,2.67999638 1.159999,3.87999478 3.439996,3.87999478 1.999997,0 3.299995,-1.31999828 3.719995,-2.31999688 l 0.04,0 c 0,0 -0.02,0.2599996 -0.02,0.5799992 l 0,0.3799995 C 24.859968,-0.39999947 25.279967,0 26.139966,0 l 1.859997,0 0,-1.6599978 -0.819998,0 c -0.28,0 -0.44,-0.1399998 -0.44,-0.4399994 l 0,-8.0199888 -1.939997,0 0,4.7399932 c 0,1.9999973 -1.219999,3.8199949 -3.299996,3.8199949 -1.599998,0 -1.879997,-1.1199985 -1.879997,-2.5199967 l 0,-4.7999935 c 0,-0.8599989 -0.38,-1.2399979 -1.299999,-1.2399979 l -1.899997,0 0,1.6599973 0.819999,0 c 0.279999,0 0.439999,0.1399998 0.439999,0.4399994 l 0,4.3799942 z" /><path
         id="path711"
         style=""
         d="m 29.179961,-5.2999929 c 0,2.9199961 1.719998,5.17999306 4.519994,5.17999306 1.479998,0 2.419997,-0.55999925 3.019996,-1.53999796 l 0.04,0 c 0,0 -0.04,0.3199996 -0.04,0.6399992 l 0,0.67999905 c 0,2.03999725 -1.439998,2.81999625 -3.199995,2.81999625 -1.519998,0 -2.759997,-0.6799991 -2.759997,-0.6799991 L 30.09996,3.3599955 c 0.999999,0.4999993 2.239997,0.8399989 3.459996,0.8399989 2.559996,0 5.099993,-1.2799983 5.099993,-4.61999384 l 0,-7.63998976 c 0,-0.2599997 0.18,-0.3999995 0.439999,-0.3999995 l 0.799999,0 0,-1.6599973 -1.879997,0 c -0.799999,0 -1.119999,0.419999 -1.119999,1.0199981 0,0.1599998 0,0.3199996 0,0.3199996 l -0.04,0 c 0,0 -0.719999,-1.5799977 -3.239996,-1.5799977 -2.819996,0 -4.439994,2.1599969 -4.439994,5.0599931 z m 4.899994,3.4999953 c -1.819998,0 -2.919996,-1.4399981 -2.919996,-3.5399953 0,-2.0599972 0.999998,-3.3399955 2.759996,-3.3399955 1.559998,0 2.859996,0.759999 2.859996,3.3999954 0,2.6399965 -1.299998,3.4799954 -2.699996,3.4799954 z" /><path
         id="path713"
         style=""
         d="m 41.079946,-5.2999929 c 0,2.9199961 1.719997,5.17999306 4.519994,5.17999306 1.479998,0 2.419996,-0.55999925 3.019996,-1.53999796 l 0.04,0 c 0,0 -0.04,0.3199996 -0.04,0.6399992 l 0,0.67999905 c 0,2.03999725 -1.439998,2.81999625 -3.199996,2.81999625 -1.519998,0 -2.759996,-0.6799991 -2.759996,-0.6799991 l -0.659999,1.5599979 c 0.999998,0.4999993 2.239997,0.8399989 3.459995,0.8399989 2.559996,0 5.099993,-1.2799983 5.099993,-4.61999384 l 0,-7.63998976 c 0,-0.2599997 0.18,-0.3999995 0.44,-0.3999995 l 0.799998,0 0,-1.6599973 -1.879997,0 c -0.799999,0 -1.119999,0.419999 -1.119999,1.0199981 0,0.1599998 0,0.3199996 0,0.3199996 l -0.04,0 c 0,0 -0.72,-1.5799977 -3.239996,-1.5799977 -2.819996,0 -4.439994,2.1599969 -4.439994,5.0599931 z m 4.899993,3.4999953 c -1.819997,0 -2.919996,-1.4399981 -2.919996,-3.5399953 0,-2.0599972 0.999999,-3.3399955 2.759996,-3.3399955 1.559998,0 2.859997,0.759999 2.859997,3.3999954 0,2.6399965 -1.299999,3.4799954 -2.699997,3.4799954 z" /><path
         id="path715"
         style=""
         d="m 52.959932,-5.0599932 c 0,2.999996 2.179997,5.29999288 5.379993,5.29999288 2.399997,0 3.899995,-1.47999798 3.899995,-1.47999798 l -0.839999,-1.3799982 c 0,0 -1.219999,1.1799984 -2.959996,1.1799984 -1.799998,0 -3.359996,-1.2199983 -3.479996,-3.3799955 l 7.379991,0 c 0,0 0.06,-0.5399992 0.06,-0.7999989 0,-2.6199965 -1.519998,-4.7399935 -4.359994,-4.7399935 -2.879996,0 -5.079993,2.0799971 -5.079993,5.2999928 z m 2.079997,-1.1799985 c 0.3,-1.6799977 1.499998,-2.5799965 2.979996,-2.5799965 1.259999,0 2.319997,0.8999988 2.379997,2.5799965 l -5.359993,0 z" /><path
         id="path717"
         style=""
         d="m 64.979916,0 1.939998,0 0,-4.1399945 c 0,-0.6199991 0.06,-1.2399983 0.239999,-1.8199975 0.46,-1.499998 1.599998,-2.3799969 2.839997,-2.3799969 0.319999,0 0.579999,0.06 0.579999,0.06 l 0,-1.9199971 c 0,0 -0.26,-0.04 -0.519999,-0.04 -1.559998,0 -2.719997,1.1599981 -3.199996,2.6399961 l -0.04,0 c 0,0 0.04,-0.2999996 0.04,-0.699999 l 0,-0.6399992 c 0,-0.8199989 -0.42,-1.1799979 -1.299998,-1.1799979 l -1.839998,0 0,1.6599973 0.819999,0 c 0.28,0 0.439999,0.1399998 0.439999,0.4399994 l 0,8.0199893 z" /></g><g
       id="g64"><g
         clip-path="url(#clipPath68)"
         id="g66"><g
           transform="translate(127.1504,106.6387)"
           id="g72"><path
             id="path74"
             style="fill:#c0272d;fill-opacity:1;fill-rule:nonzero;stroke:none"
             d="m 0,0 c 2.462,0.999 4.981,1.758 7.655,1.915 1.308,0.076 2.106,-0.428 2.781,-1.647 1.533,-2.771 1.65,-5.905 2.561,-8.827 1.107,-3.549 2.009,-7.165 3.164,-10.697 0.514,-1.57 0.07,-2.599 -1.03,-3.624 -0.85,-0.791 -1.956,-1.281 -2.623,-2.275 -2.479,-1.202 -4.956,-2.405 -7.435,-3.607 -1.335,-0.243 -2.668,-0.497 -4.006,-0.726 -1.226,-0.21 -2.095,0.178 -2.859,1.268 -2.98,4.255 -5.912,8.562 -9.192,12.58 -1.125,1.378 -2.047,2.774 -2.909,4.29 -0.661,1.166 -0.357,2.039 0.385,2.94 1.391,1.687 3.127,2.983 4.958,4.118 1.873,1.159 3.742,2.354 5.807,3.176 0.54,-1.396 0.536,-2.853 0.488,-4.316 -1.856,-1.781 -4.45,-2.505 -6.389,-4.348 2.486,-0.159 11.491,4.096 14.313,6.764 C 4.74,-2.814 4.101,-3.333 3.393,-3.478 2.331,-3.695 1.297,-4.773 0.153,-3.671 0.103,-2.447 0.051,-1.224 0,0" /></g><g
           transform="translate(127.1504,106.6387)"
           id="g76"><path
             id="path78"
             style="fill:none;stroke:#000000;stroke-width:0.29499999;stroke-linecap:butt;stroke-linejoin:miter;stroke-miterlimit:10;stroke-dasharray:none;stroke-opacity:1"
             d="m 0,0 c 2.462,0.999 4.981,1.758 7.655,1.915 1.308,0.076 2.106,-0.428 2.781,-1.647 1.533,-2.771 1.65,-5.905 2.561,-8.827 1.107,-3.549 2.009,-7.165 3.164,-10.697 0.514,-1.57 0.07,-2.599 -1.03,-3.624 -0.85,-0.791 -1.956,-1.281 -2.623,-2.275 -2.479,-1.202 -4.956,-2.405 -7.435,-3.607 -1.335,-0.243 -2.668,-0.497 -4.006,-0.726 -1.226,-0.21 -2.095,0.178 -2.859,1.268 -2.98,4.255 -5.912,8.562 -9.192,12.58 -1.125,1.378 -2.047,2.774 -2.909,4.29 -0.661,1.166 -0.357,2.039 0.385,2.94 1.391,1.687 3.127,2.983 4.958,4.118 1.873,1.159 3.742,2.354 5.807,3.176 0.54,-1.396 0.536,-2.853 0.488,-4.316 -1.856,-1.781 -4.45,-2.505 -6.389,-4.348 2.486,-0.159 11.491,4.096 14.313,6.764 C 4.74,-2.814 4.101,-3.333 3.393,-3.478 2.331,-3.695 1.297,-4.773 0.153,-3.671 0.103,-2.447 0.051,-1.224 0,0 Z" /></g><g
           transform="translate(126.5449,103.2256)"
           id="g80"><path
             id="path82"
             style="fill:#252525;fill-opacity:1;fill-rule:nonzero;stroke:none"
             d="M 0,0 C 1.772,0.571 3.542,1.153 5.32,1.706 5.786,1.851 6.277,1.921 6.762,1.991 7.052,2.034 7.381,2.035 7.553,1.739 7.774,1.359 7.519,1.052 7.262,0.843 6.503,0.223 5.747,-0.414 4.924,-0.939 0.678,-3.646 -3.829,-5.812 -8.649,-7.286 c -0.713,-0.218 -1.797,-0.753 -2.175,-0.008 -0.458,0.902 0.708,1.349 1.333,1.812 1.779,1.317 3.666,2.469 5.685,3.389 0.442,0.201 0.872,0.476 1.398,0.332 0.064,-0.437 -0.276,-1.245 0.409,-1.178 0.834,0.081 1.731,0.511 2,1.475 C 0.127,-1.012 0.008,-0.49 0,0" /></g><g
           transform="translate(138.4092,129.0615)"
           id="g84"><path
             id="path86"
             style="fill:#69bc45;fill-opacity:1;fill-rule:nonzero;stroke:none"
             d="m 0,0 c 0.101,-0.517 -0.275,-0.817 -0.548,-1.147 -2.512,-3.038 -4.19,-6.47 -5.156,-10.298 -1.049,-4.159 -4.453,-6.58 -8.849,-6.453 -0.459,0.012 -0.878,-0.042 -1.248,-0.329 -0.076,0.119 -0.152,0.236 -0.228,0.354 -0.239,0.482 -0.391,1.038 -0.73,1.435 -1.229,1.438 -1.19,3.102 -0.694,4.701 1.149,3.698 2.879,7.052 6.354,9.166 2.713,1.651 5.704,2.43 8.831,2.599 C -1.541,0.068 -0.738,0.536 0,0" /></g><g
           transform="translate(110.8936,115.0703)"
           id="g88"><path
             id="path90"
             style="fill:#69bc45;fill-opacity:1;fill-rule:nonzero;stroke:none"
             d="m 0,0 c 7.112,1.51 14.65,-5.208 11.332,-12.488 -1.173,-2.574 2.642,-4.826 3.822,-2.235 C 20.093,-3.887 9.958,6.632 -1.177,4.269 -3.962,3.678 -2.783,-0.591 0,0" /></g><g
           transform="translate(66.0991,183.6318)"
           id="g92"><path
             id="path94"
             style="fill:#0973b9;fill-opacity:1;fill-rule:nonzero;stroke:none"
             d="m 0,0 c 0,0 -14.635,-49.445 37.266,-66.758 10.071,-3.359 26.16,14.705 12.277,48.955 C 42.458,-0.322 30.352,8.126 19.299,10.524 2.415,14.187 0,0 0,0" /></g><g
           transform="translate(90.3823,167.8027)"
           id="g96"><path
             id="path98"
             style="fill:#eff0ea;fill-opacity:1;fill-rule:nonzero;stroke:none"
             d="m 0,0 c 2.831,-5.835 1.244,-12.449 -3.544,-14.772 -4.789,-2.323 -10.965,0.525 -13.796,6.36 -2.831,5.836 -1.244,12.45 3.544,14.773 C -9.008,8.684 -2.831,5.836 0,0" /></g><g
           transform="translate(104.8418,176.8784)"
           id="g100"><path
             id="path102"
             style="fill:#eff0ea;fill-opacity:1;fill-rule:nonzero;stroke:none"
             d="m 0,0 c 3.019,-5.048 2.334,-11.012 -1.528,-13.322 -3.862,-2.31 -9.44,-0.09 -12.459,4.958 -3.018,5.048 -2.334,11.012 1.528,13.322 C -8.597,7.268 -3.019,5.048 0,0" /></g><g
           transform="translate(86.2476,165.7974)"
           id="g104"><path
             id="path106"
             style="fill:#1a9948;fill-opacity:1;fill-rule:nonzero;stroke:none"
             d="m 0,0 c 1.343,-2.769 0.673,-5.866 -1.497,-6.918 -2.17,-1.053 -5.017,0.338 -6.36,3.106 C -9.2,-1.043 -8.529,2.054 -6.36,3.106 -4.19,4.159 -1.343,2.768 0,0" /></g><g
           transform="translate(102.2104,174.8125)"
           id="g108"><path
             id="path110"
             style="fill:#1a9948;fill-opacity:1;fill-rule:nonzero;stroke:none"
             d="m 0,0 c 1.335,-2.751 0.81,-5.762 -1.173,-6.724 -1.983,-0.961 -4.672,0.49 -6.007,3.241 -1.334,2.751 -0.809,5.761 1.174,6.723 C -4.024,4.202 -1.334,2.751 0,0" /></g><g
           transform="translate(80.5469,163.0317)"
           id="g112"><path
             id="path114"
             style="fill:#14170f;fill-opacity:1;fill-rule:nonzero;stroke:none"
             d="M 0,0 C -0.727,1.499 -0.386,3.165 0.762,3.722 1.91,4.278 3.43,3.515 4.157,2.016 4.884,0.518 4.542,-1.148 3.395,-1.706 2.247,-2.262 0.727,-1.499 0,0" /></g><g
           transform="translate(96.7407,172.1382)"
           id="g116"><path
             id="path118"
             style="fill:#14170f;fill-opacity:1;fill-rule:nonzero;stroke:none"
             d="M 0,0 C -0.733,1.512 -0.381,3.197 0.788,3.764 1.956,4.331 3.498,3.564 4.231,2.053 4.964,0.541 4.612,-1.144 3.443,-1.71 2.275,-2.277 0.733,-1.511 0,0" /></g><g
           transform="translate(78.5093,164.5723)"
           id="g120"><path
             id="path122"
             style="fill:#ffffff;fill-opacity:1;fill-rule:nonzero;stroke:none"
             d="M 0,0 C -0.136,0.954 0.36,1.814 1.108,1.921 1.856,2.028 2.573,1.34 2.708,0.386 2.845,-0.568 2.349,-1.428 1.601,-1.535 0.853,-1.642 0.136,-0.955 0,0" /></g><g
           transform="translate(97.1758,174.7192)"
           id="g124"><path
             id="path126"
             style="fill:#ffffff;fill-opacity:1;fill-rule:nonzero;stroke:none"
             d="m 0,0 c 0.025,-0.833 -0.406,-1.521 -0.961,-1.538 -0.556,-0.017 -1.027,0.645 -1.052,1.478 -0.025,0.833 0.406,1.521 0.962,1.539 C -0.496,1.495 -0.025,0.833 0,0" /></g><g
           transform="translate(96.645,171.7095)"
           id="g128"><path
             id="path130"
             style="fill:#ffffff;fill-opacity:1;fill-rule:nonzero;stroke:none"
             d="m 0,0 c -0.146,-0.24 -0.429,-0.335 -0.633,-0.212 -0.204,0.124 -0.251,0.419 -0.105,0.659 0.145,0.241 0.429,0.336 0.633,0.213 C 0.099,0.536 0.146,0.241 0,0" /></g><g
           transform="translate(71.1641,174.7466)"
           id="g132"><path
             id="path134"
             style="fill:#0973b9;fill-opacity:1;fill-rule:nonzero;stroke:none"
             d="M 0,0 C 0.569,1.333 0.697,2.882 1.446,4.129 3.006,6.726 5.474,5.061 7.025,3.475 7.332,3.162 7.811,3.642 7.505,3.955 6.218,5.271 4.429,6.852 2.45,5.988 0.276,5.039 0.219,2.228 -0.586,0.343 -0.755,-0.055 -0.171,-0.4 0,0" /></g><g
           transform="translate(72.9458,172.104)"
           id="g136"><path
             id="path138"
             style="fill:#4a85a4;fill-opacity:1;fill-rule:nonzero;stroke:none"
             d="M 0,0 C 1.069,3.021 4.092,4.514 7.155,3.612 7.575,3.489 7.754,4.143 7.336,4.266 3.909,5.275 0.534,3.538 -0.654,0.181 -0.8,-0.232 -0.145,-0.409 0,0" /></g><g
           transform="translate(89.0293,179.6113)"
           id="g140"><path
             id="path142"
             style="fill:#4a85a4;fill-opacity:1;fill-rule:nonzero;stroke:none"
             d="M 0,0 C 1.625,2.651 4.15,5.179 7.552,4.373 7.977,4.272 8.158,4.926 7.732,5.027 4.036,5.903 1.211,3.274 -0.585,0.342 -0.814,-0.031 -0.228,-0.372 0,0" /></g><g
           transform="translate(80.3848,151.3369)"
           id="g144"><path
             id="path146"
             style="fill:#597d9f;fill-opacity:1;fill-rule:nonzero;stroke:none"
             d="M 0,0 C 2.729,0.831 5.507,1.197 8.358,1.101 8.795,1.086 8.794,1.765 8.358,1.78 5.44,1.877 2.613,1.504 -0.18,0.654 -0.597,0.527 -0.419,-0.128 0,0" /></g><g
           transform="translate(103.1123,161.2739)"
           id="g148"><path
             id="path150"
             style="fill:#597d9f;fill-opacity:1;fill-rule:nonzero;stroke:none"
             d="M 0,0 C 0.977,2.332 2.683,4.205 4.89,5.428 5.272,5.639 4.93,6.226 4.547,6.014 2.174,4.698 0.393,2.68 -0.654,0.18 -0.822,-0.222 -0.167,-0.397 0,0" /></g><g
           transform="translate(109.1821,157.104)"
           id="g152"><path
             id="path154"
             style="fill:#a5897a;fill-opacity:1;fill-rule:nonzero;stroke:none"
             d="m 0,0 c 0.286,-4.65 -0.919,-9.306 -4.671,-12.337 -3.965,-3.204 -9.421,-3.213 -13.157,0.38 -0.517,0.499 -1.308,-0.29 -0.789,-0.79 3.636,-3.496 8.899,-4.111 13.244,-1.485 C -0.398,-11.225 1.458,-5.559 1.117,0 1.073,0.713 -0.044,0.719 0,0" /></g><g
           transform="translate(90.3257,147.0718)"
           id="g156"><path
             id="path158"
             style="fill:#a5897a;fill-opacity:1;fill-rule:nonzero;stroke:none"
             d="m 0,0 c -0.227,-1.506 -1.281,-2.704 -2.769,-3.068 -0.697,-0.171 -0.402,-1.248 0.297,-1.077 1.827,0.447 3.267,1.98 3.548,3.848 C 1.182,0.406 0.106,0.709 0,0" /></g><g
           transform="translate(106.7397,157.77)"
           id="g160"><path
             id="path162"
             style="fill:#a5897a;fill-opacity:1;fill-rule:nonzero;stroke:none"
             d="M 0,0 C 1.665,-1.814 4.456,-1.773 6.035,0.134 6.49,0.683 5.704,1.477 5.245,0.923 4.042,-0.53 2.077,-0.614 0.79,0.79 0.303,1.32 -0.485,0.529 0,0" /></g><g
           transform="translate(92.1938,122.7744)"
           id="g164"><path
             id="path166"
             style="fill:#000000;fill-opacity:1;fill-rule:nonzero;stroke:none"
             d="m 0,0 c -5.952,-3.996 -11.974,-7.881 -17.844,-11.998 -2.386,-1.674 -0.109,-5.631 2.302,-3.94 5.871,4.118 11.892,8.003 17.845,11.999 C 4.728,-2.312 2.447,1.642 0,0" /></g><g
           transform="translate(144.6357,130.1748)"
           id="g168"><path
             id="path170"
             style="fill:#000000;fill-opacity:1;fill-rule:nonzero;stroke:none"
             d="m 0,0 c -2.633,3.108 -5.106,6.879 -8.702,8.889 -5.939,3.319 -11.761,0.58 -16.989,-2.469 -2.535,-1.479 -0.242,-5.423 2.302,-3.94 5.585,3.258 10.751,5.026 15.752,-0.511 1.518,-1.679 2.948,-3.467 4.411,-5.195 C -1.325,-5.469 1.889,-2.229 0,0" /></g><g
           transform="translate(72.001,108.1895)"
           id="g172"><path
             id="path174"
             style="fill:#ffffff;fill-opacity:1;fill-rule:nonzero;stroke:none"
             d="M 0,0 C 0.198,1.071 -0.664,2.047 -1.312,2.947 -1.961,3.848 -2.376,5.295 -1.527,5.897 -1.076,6.218 -0.432,6.119 0.056,5.812 0.544,5.505 0.912,5.025 1.267,4.556 2.339,3.141 3.458,1.609 3.624,-0.155 3.75,-1.507 3.292,-2.814 2.72,-3.995 c -1.014,-2.095 -2.442,-4 -4.348,-5.222 -1.906,-1.221 -4.324,-1.699 -6.532,-0.971 -0.961,0.316 -1.98,1.022 -2.087,2.064 -0.103,1.003 0.746,1.845 1.674,2.036 0.928,0.192 1.902,-0.1 2.825,-0.409 -0.984,1.068 -2.799,-0.209 -3.989,0.59 -0.748,0.503 -0.859,1.715 -0.334,2.413 0.525,0.697 1.502,0.897 2.352,0.665 -0.486,-0.543 -1.503,0.198 -1.416,0.952 0.087,0.754 0.861,1.198 1.587,1.217 0.725,0.018 1.437,-0.266 2.157,-0.416 1.914,-0.401 3.948,0.209 5.303,1.588" /></g><g
           transform="translate(72.2852,108.1895)"
           id="g176"><path
             id="path178"
             style="fill:#000000;fill-opacity:1;fill-rule:nonzero;stroke:none"
             d="M 0,0 C -0.046,1.205 -1.31,2.153 -1.351,3.091 -0.825,3.742 -0.3,4.393 0.226,5.044 0.753,4.426 1.237,3.778 1.68,3.1 2.948,1.083 3.309,-0.635 2.533,-2.958 1.747,-5.311 0.05,-7.638 -2.056,-8.971 c -1.296,-0.82 -2.918,-1.356 -4.461,-1.272 -0.833,0.203 -1.667,0.406 -2.5,0.609 0.304,2.738 1.274,3.692 2.91,2.863 0.317,-0.097 0.482,0.348 0.219,0.519 -0.521,0.337 -0.729,0.412 -1.351,0.489 -0.324,0.04 -1.18,-0.292 -1.438,-0.131 0.975,1.515 1.951,3.029 2.926,4.543 0.186,-0.025 0.371,-0.047 0.557,-0.068 2.032,0.388 3.324,0.277 5.022,1.73 0.279,0.238 -0.125,0.638 -0.402,0.402 -2.241,-1.916 -3.612,-1.474 -6.102,-1.244 -0.357,0.033 -0.878,0.208 -1.232,0.145 -0.774,-0.136 -1.614,-0.448 -1.757,-1.347 -0.182,-1.151 0.804,-1.621 1.737,-1.371 0.327,0.089 0.23,0.529 -0.075,0.559 -1.577,0.155 -3.505,-0.695 -2.835,-2.626 0.25,-0.72 0.653,-1.048 1.381,-1.257 0.683,-0.196 3.974,0.508 1.54,0.672 -1.447,0.098 -3.039,-0.816 -2.889,-2.443 0.212,-2.282 3.601,-2.736 5.298,-2.576 5.364,0.505 10.925,7.508 8.501,12.776 C 2.382,3.327 0.195,7.355 -1.887,6.172 -4.068,4.932 -0.614,1.177 -0.568,0 -0.554,-0.365 0.014,-0.367 0,0" /></g><g
           transform="translate(161.9365,138.9155)"
           id="g180"><path
             id="path182"
             style="fill:#9b5526;fill-opacity:1;fill-rule:nonzero;stroke:none"
             d="M 0,0 C -0.678,0.342 -0.878,1.322 -0.479,1.969 -0.081,2.615 0.774,2.894 1.516,2.729 2.257,2.566 2.876,2.023 3.266,1.371 3.654,0.719 3.838,-0.035 3.947,-0.786 4.049,-1.482 3.968,-2.385 3.303,-2.611 2.692,-2.819 2.105,-2.275 1.688,-1.784 0.956,-0.92 0.223,-0.056 -0.51,0.808" /></g><g
           transform="translate(162.0615,139.1304)"
           id="g184"><path
             id="path186"
             style="fill:#231f20;fill-opacity:1;fill-rule:nonzero;stroke:none"
             d="M 0,0 C -0.826,0.542 -0.682,1.652 0.132,2.107 0.646,2.394 1.361,2.339 1.868,2.073 2.886,1.538 3.328,0.371 3.521,-0.692 3.58,-1.02 3.71,-1.675 3.548,-2.023 2.903,-3.408 1.852,-1.949 1.465,-1.499 0.818,-0.747 0.183,0.013 -0.459,0.769 -0.667,1.013 -1.017,0.66 -0.811,0.417 0.016,-0.557 0.795,-1.669 1.732,-2.537 2.148,-2.923 2.722,-3.275 3.303,-3.041 4.777,-2.447 3.959,0.16 3.444,1.115 2.751,2.402 1.142,3.349 -0.236,2.46 -1.307,1.77 -1.303,0.259 -0.251,-0.43 0.018,-0.605 0.268,-0.175 0,0" /></g><g
           transform="translate(161.2236,137.2803)"
           id="g188"><path
             id="path190"
             style="fill:#9b5526;fill-opacity:1;fill-rule:nonzero;stroke:none"
             d="m 0,0 c -7.993,-7.693 -17.098,-14.255 -27.027,-19.203 -6.199,-3.089 -12.739,-5.567 -18.504,-9.402 -1.559,-1.038 -3.133,-2.273 -3.762,-4.037 -0.985,-2.761 1.171,-6.162 4.089,-6.449 2.552,-0.25 4.821,1.493 6.789,3.138 l 18.832,15.738 c 8.034,6.714 16.104,13.463 22.986,21.353 L 1.859,2.403 0,0 Z" /></g><g
           transform="translate(161.0479,137.4561)"
           id="g192"><path
             id="path194"
             style="fill:#231f20;fill-opacity:1;fill-rule:nonzero;stroke:none"
             d="m 0,0 c -9.887,-9.374 -20.929,-16.415 -33.248,-22.122 -4.211,-1.951 -21.247,-7.994 -15.12,-15.506 1.879,-2.304 4.602,-2.224 7.07,-0.967 5.176,2.636 9.674,7.672 14.1,11.37 10.674,8.92 21.686,17.58 30.953,28.011 0.082,0.093 0.108,0.263 0,0.352 C 3.24,1.56 2.726,1.981 2.211,2.403 2.117,2.48 1.947,2.518 1.859,2.403 1.239,1.602 0.619,0.801 0,0 -0.194,-0.25 0.155,-0.605 0.352,-0.352 0.794,0.22 1.528,1.676 2.139,1.762 c 2.187,0.31 -2.073,-4.275 -2.484,-4.7 -3.635,-3.766 -7.514,-7.288 -11.471,-10.711 -8.502,-7.353 -17.128,-14.637 -25.874,-21.699 -3.482,-2.81 -2.498,-3.192 -6.45,1.096 -3.841,4.171 -3.915,3.339 -0.361,5.722 2.147,1.439 4.486,2.621 6.801,3.763 4.675,2.309 9.495,4.3 14.082,6.788 8.776,4.76 16.735,10.768 23.97,17.627 C 0.584,-0.131 0.232,0.221 0,0" /></g><g
           id="g196"><g
             id="g198" /><g
             id="g204"><g
               style="opacity:0.39999402"
               id="g206"
               clip-path="url(#clipPath200)"><g
                 id="g208"
                 transform="translate(115.0967,106.5)"><path
                   id="path210"
                   style="fill:#cc825b;fill-opacity:1;fill-rule:nonzero;stroke:none"
                   d="M 0,0 C 0,0 4.188,0.994 4.824,-2.411 5.46,-5.815 4.034,-5.73 4.034,-5.73 c 0,0 -1.721,4.269 -2.809,3.855 C 0.136,-2.289 -1.812,-1.231 0,0" /></g></g></g></g><g
           transform="translate(145.2334,129.0176)"
           id="g212"><path
             id="path214"
             style="fill:#ffffff;fill-opacity:1;fill-rule:nonzero;stroke:none"
             d="m 0,0 c -3.426,-1.314 -6.408,-3.757 -8.372,-6.856 1.87,-0.768 4.159,-0.386 5.681,0.945 0.642,-0.731 1.304,-1.495 1.57,-2.432 0.266,-0.936 0.01,-2.096 -0.839,-2.572 -0.318,-0.179 -0.698,-0.253 -0.968,-0.497 -0.644,-0.585 -0.164,-1.777 0.657,-2.066 0.821,-0.288 1.726,0.056 2.477,0.495 0.751,0.438 1.471,0.986 2.325,1.151 -0.07,0.326 -0.14,0.651 -0.21,0.978 1.167,-0.91 3.183,-0.193 3.515,1.249 1.341,-0.346 2.701,0.9 2.891,2.27 0.189,1.372 -0.497,2.723 -1.375,3.792 -1.859,2.26 -4.697,3.684 -7.62,3.823" /></g><g
           transform="translate(145.1309,129.3892)"
           id="g216"><path
             id="path218"
             style="fill:#000000;fill-opacity:1;fill-rule:nonzero;stroke:none"
             d="m 0,0 c -3.598,-1.505 -6.415,-3.799 -8.603,-7.034 -0.143,-0.213 0.006,-0.499 0.231,-0.566 1.05,-0.315 1.956,-0.5 3.074,-0.328 -0.178,-0.028 2.289,0.705 2.085,0.726 4.046,-0.419 -0.76,-3.688 -0.251,-5.419 0.985,-3.345 4.174,-0.636 6.2,0.045 0.206,0.07 0.316,0.261 0.269,0.475 -0.108,0.504 0.133,-0.136 0.878,0.102 0.904,0.289 1.271,0.617 2.034,1.093 1.294,0.808 2.649,1.031 3.161,2.699 1.498,4.879 -5.561,8.147 -9.243,8.501 -0.493,0.047 -0.49,-0.724 0,-0.772 1.779,-0.17 3.327,-0.593 4.858,-1.548 0.675,-0.392 1.286,-0.872 1.833,-1.44 2.077,-1.687 1.88,-3.729 -0.588,-6.125 -0.123,0.005 -0.28,-0.075 -0.333,-0.192 -0.996,-0.37 -1.991,-0.74 -2.987,-1.11 -0.306,0.153 -0.639,-0.1 -0.566,-0.436 0.111,-0.519 -0.517,-0.807 -0.81,-1.026 -0.927,-0.69 -1.043,-0.75 -2.016,0.034 -1.402,1.127 -0.348,0.71 0.106,1.999 0.575,1.632 -0.669,3.157 -1.648,4.312 -0.102,0.119 -0.338,0.153 -0.467,0.06 -0.984,-0.703 -3.236,-2.29 -4.057,-0.965 -0.761,0.215 -0.739,0.567 0.065,1.057 0.39,0.522 0.823,1.007 1.297,1.455 1.645,1.602 3.575,2.777 5.683,3.659 C 0.657,-0.555 0.459,0.192 0,0" /></g><g
           transform="translate(60.9482,192.7676)"
           id="g220"><path
             id="path222"
             style="fill:#e71e27;fill-opacity:1;fill-rule:nonzero;stroke:none"
             d="M 0,0 C 0.076,0.143 0.163,0.283 0.25,0.417 0.389,0.309 0.545,0.22 0.718,0.155 L 0,0 Z" /></g><g
           transform="translate(61.2334,192.6006)"
           id="g224"><path
             id="path226"
             style="fill:#000000;fill-opacity:1;fill-rule:nonzero;stroke:none"
             d="M 0,0 C 0.08,0.143 0.162,0.28 0.25,0.417 0.1,0.378 -0.051,0.339 -0.202,0.299 -0.028,0.173 0.149,0.086 0.345,0.004 l 0,0.637 -0.718,-0.156 c -0.415,-0.09 -0.239,-0.727 0.176,-0.637 0.239,0.052 0.479,0.104 0.718,0.156 0.354,0.077 0.27,0.524 0,0.637 C 0.376,0.701 0.257,0.779 0.132,0.87 -0.017,0.977 -0.232,0.89 -0.32,0.751 -0.408,0.613 -0.491,0.476 -0.57,0.333 -0.776,-0.039 -0.207,-0.372 0,0" /></g><g
           transform="translate(64.3721,195.8198)"
           id="g228"><path
             id="path230"
             style="fill:#e71e27;fill-opacity:1;fill-rule:nonzero;stroke:none"
             d="m 0,0 c -1.3,-0.522 -2.421,-1.457 -3.174,-2.635 -0.143,0.108 -0.276,0.244 -0.384,0.39 0.97,1.02 2.02,1.958 3.145,2.813 C -0.244,0.412 -0.1,0.218 0,0" /></g><g
           transform="translate(64.2842,196.1382)"
           id="g232"><path
             id="path234"
             style="fill:#000000;fill-opacity:1;fill-rule:nonzero;stroke:none"
             d="m 0,0 c -1.396,-0.588 -2.533,-1.522 -3.371,-2.787 0.173,0.023 0.346,0.045 0.518,0.067 -0.147,0.123 -0.263,0.242 -0.384,0.39 l 0,-0.466 c 0.958,0.996 1.983,1.919 3.079,2.76 -0.134,0.017 -0.267,0.035 -0.4,0.052 0.155,-0.143 0.275,-0.31 0.361,-0.501 0.202,-0.373 0.773,-0.04 0.57,0.333 -0.132,0.243 -0.275,0.436 -0.464,0.635 -0.09,0.095 -0.288,0.138 -0.4,0.052 -1.142,-0.877 -2.215,-1.826 -3.213,-2.865 -0.133,-0.138 -0.114,-0.325 0,-0.466 0.121,-0.149 0.237,-0.268 0.385,-0.391 0.169,-0.141 0.393,-0.122 0.518,0.067 0.735,1.108 1.749,1.966 2.977,2.483 C 0.561,-0.474 0.392,0.165 0,0" /></g><g
           transform="translate(80.6787,178.0591)"
           id="g236"><path
             id="path238"
             style="fill:#e71e27;fill-opacity:1;fill-rule:nonzero;stroke:none"
             d="M 0,0 C 2.232,1.26 5.071,2.661 7.587,3.985 5.902,2.413 4.078,0.987 2.141,-0.267 0.548,-1.295 -1.104,-2.206 -2.806,-3.023 L 0,0 Z" /></g><g
           transform="translate(80.8452,177.7739)"
           id="g240"><path
             id="path242"
             style="fill:#000000;fill-opacity:1;fill-rule:nonzero;stroke:none"
             d="M 0,0 C 2.496,1.392 5.056,2.66 7.587,3.985 7.454,4.158 7.32,4.331 7.187,4.504 4.088,1.663 0.632,-0.608 -3.139,-2.453 c 0.134,-0.173 0.267,-0.346 0.401,-0.519 0.935,1.008 1.87,2.016 2.805,3.023 0.289,0.312 -0.177,0.78 -0.467,0.468 -0.935,-1.008 -1.871,-2.016 -2.806,-3.023 -0.261,-0.282 0.066,-0.683 0.401,-0.519 3.823,1.87 7.321,4.182 10.459,7.06 C 7.939,4.299 7.576,4.725 7.253,4.556 4.723,3.23 2.162,1.962 -0.333,0.57 -0.705,0.363 -0.372,-0.208 0,0" /></g><g
           transform="translate(97.4102,194.8989)"
           id="g244"><path
             id="path246"
             style="fill:#e71e27;fill-opacity:1;fill-rule:nonzero;stroke:none"
             d="m 0,0 c -0.389,-0.879 -0.813,-1.748 -1.267,-2.596 0.191,1.509 0.237,2.646 0.237,2.646 0.218,0.099 0.436,0.194 0.661,0.284 L 0,0 Z" /></g><g
           transform="translate(97.125,195.0659)"
           id="g248"><path
             id="path250"
             style="fill:#000000;fill-opacity:1;fill-rule:nonzero;stroke:none"
             d="m 0,0 c -0.393,-0.88 -0.814,-1.746 -1.267,-2.596 l 0.615,-0.167 c 0.109,0.878 0.2,1.761 0.237,2.646 -0.054,-0.095 -0.109,-0.191 -0.164,-0.285 0.194,0.087 0.387,0.171 0.583,0.251 -0.107,0.028 -0.214,0.057 -0.321,0.085 0.123,-0.111 0.246,-0.223 0.369,-0.334 0.314,-0.285 0.782,0.181 0.467,0.467 L 0.15,0.401 C 0.07,0.474 -0.062,0.531 -0.171,0.486 -0.42,0.384 -0.667,0.278 -0.912,0.168 -1.018,0.12 -1.071,-0.009 -1.075,-0.117 c -0.037,-0.885 -0.129,-1.768 -0.237,-2.646 -0.042,-0.332 0.469,-0.44 0.615,-0.167 0.453,0.851 0.875,1.717 1.267,2.597 C 0.742,0.051 0.173,0.388 0,0" /></g><g
           transform="translate(80.6787,178.0591)"
           id="g252"><path
             id="path254"
             style="fill:#e71e27;fill-opacity:1;fill-rule:nonzero;stroke:none"
             d="M 0,0 C 2.232,1.26 5.071,2.661 7.587,3.985 5.902,2.413 4.078,0.987 2.141,-0.267 0.548,-1.295 -1.104,-2.206 -2.806,-3.023 L 0,0 Z" /></g><g
           transform="translate(80.8452,177.7739)"
           id="g256"><path
             id="path258"
             style="fill:#000000;fill-opacity:1;fill-rule:nonzero;stroke:none"
             d="M 0,0 C 2.496,1.392 5.056,2.66 7.587,3.985 7.454,4.158 7.32,4.331 7.187,4.504 4.088,1.663 0.632,-0.608 -3.139,-2.453 c 0.134,-0.173 0.267,-0.346 0.401,-0.519 0.935,1.008 1.87,2.016 2.805,3.023 0.289,0.312 -0.177,0.78 -0.467,0.468 -0.935,-1.008 -1.871,-2.016 -2.806,-3.023 -0.261,-0.282 0.066,-0.683 0.401,-0.519 3.823,1.87 7.321,4.182 10.459,7.06 C 7.939,4.299 7.576,4.725 7.253,4.556 4.723,3.23 2.162,1.962 -0.333,0.57 -0.705,0.363 -0.372,-0.208 0,0" /></g><g
           transform="translate(97.4102,194.8989)"
           id="g260"><path
             id="path262"
             style="fill:#e71e27;fill-opacity:1;fill-rule:nonzero;stroke:none"
             d="m 0,0 c -0.389,-0.879 -0.813,-1.748 -1.267,-2.596 0.191,1.509 0.237,2.646 0.237,2.646 0.218,0.099 0.436,0.194 0.661,0.284 L 0,0 Z" /></g><g
           transform="translate(97.125,195.0659)"
           id="g264"><path
             id="path266"
             style="fill:#000000;fill-opacity:1;fill-rule:nonzero;stroke:none"
             d="m 0,0 c -0.393,-0.88 -0.814,-1.746 -1.267,-2.596 l 0.615,-0.167 c 0.109,0.878 0.2,1.761 0.237,2.646 -0.054,-0.095 -0.109,-0.191 -0.164,-0.285 0.194,0.087 0.387,0.171 0.583,0.251 -0.107,0.028 -0.214,0.057 -0.321,0.085 0.123,-0.111 0.246,-0.223 0.369,-0.334 0.314,-0.285 0.782,0.181 0.467,0.467 L 0.15,0.401 C 0.07,0.474 -0.062,0.531 -0.171,0.486 -0.42,0.384 -0.667,0.278 -0.912,0.168 -1.018,0.12 -1.071,-0.009 -1.075,-0.117 c -0.037,-0.885 -0.129,-1.768 -0.237,-2.646 -0.042,-0.332 0.469,-0.44 0.615,-0.167 0.453,0.851 0.875,1.717 1.267,2.597 C 0.742,0.051 0.173,0.388 0,0" /></g><g
           transform="translate(61.1982,193.1851)"
           id="g268"><path
             id="path270"
             style="fill:#e71e27;fill-opacity:1;fill-rule:nonzero;stroke:none"
             d="M 0,0 C 0.139,-0.109 0.295,-0.198 0.468,-0.262 L -0.25,-0.417 C -0.174,-0.274 -0.087,-0.135 0,0" /></g><g
           transform="translate(61.0317,192.8999)"
           id="g272"><path
             id="path274"
             style="fill:#000000;fill-opacity:1;fill-rule:nonzero;stroke:none"
             d="m 0,0 c 0.174,-0.126 0.351,-0.213 0.547,-0.295 l 0,0.636 -0.718,-0.155 c 0.124,-0.162 0.249,-0.324 0.373,-0.485 0.079,0.142 0.162,0.28 0.25,0.417 0.229,0.36 -0.342,0.691 -0.571,0.334 -0.088,-0.138 -0.17,-0.275 -0.25,-0.418 -0.144,-0.26 0.094,-0.546 0.373,-0.485 0.24,0.052 0.479,0.104 0.719,0.156 0.354,0.076 0.269,0.524 0,0.636 C 0.578,0.402 0.458,0.479 0.333,0.57 -0.011,0.82 -0.341,0.247 0,0" /></g><g
           transform="translate(109.1157,193.4351)"
           id="g276"><path
             id="path278"
             style="fill:#e71e27;fill-opacity:1;fill-rule:nonzero;stroke:none"
             d="m 0,0 c 0.522,-4.81 -2.48,-9.455 -6.424,-12.255 -3.949,-2.801 -8.729,-4.113 -13.403,-5.367 -3.842,-1.04 -7.883,-2.08 -11.756,-1.142 l 0.34,0.365 c 1.702,0.817 3.354,1.728 4.947,2.756 1.937,1.254 3.761,2.68 5.446,4.252 -2.516,-1.324 -5.355,-2.725 -7.587,-3.985 l -2.806,-3.023 c -4.606,-2.215 -9.549,-3.777 -14.437,-5.319 -6.027,5.018 -3.383,23.066 -2.622,23.858 0.108,-0.146 0.241,-0.283 0.385,-0.39 -0.088,-0.135 -0.175,-0.274 -0.25,-0.417 0,0 0.388,0.308 0.25,0.417 0.752,1.178 1.873,2.113 3.173,2.635 -0.1,0.218 -0.243,0.411 -0.412,0.568 3.723,2.829 8.193,4.679 12.841,5.208 7.24,0.831 14.779,-1.551 20.241,-6.363 -0.225,-0.09 -0.444,-0.185 -0.662,-0.284 0,0 0.192,1.508 0,0 0.455,0.847 0.641,-0.929 1.03,-0.05 l -0.368,0.334 C -8.031,3.402 -3.004,3.105 0,0" /></g><g
           transform="translate(108.7856,193.4351)"
           id="g280"><path
             id="path282"
             style="fill:#000000;fill-opacity:1;fill-rule:nonzero;stroke:none"
             d="m 0,0 c 0.396,-10.651 -10.26,-14.766 -18.804,-17.093 -1.913,-0.521 -3.839,-1.085 -5.801,-1.392 -1.453,-0.227 -9.034,-1.901 -4.456,0.65 3.197,1.782 6.046,3.774 8.774,6.211 0.29,0.259 -0.079,0.686 -0.4,0.519 -2.425,-1.263 -5.477,-2.312 -7.62,-4.012 -0.866,-0.687 -1.429,-1.748 -2.283,-2.449 -2.264,-1.861 -5.563,-2.746 -8.332,-3.71 -2.759,-0.961 -6.218,-3.107 -7.958,0.066 -2.03,3.702 -2.1,8.495 -1.97,12.61 0.063,1.961 0.211,7.236 0.727,8.099 -0.195,-0.327 0.249,-0.656 0.519,-0.4 1.277,1.213 1.36,1.943 3.357,3.001 0.146,0.077 0.22,0.311 0.119,0.451 -0.774,1.065 7.623,4.323 7.663,4.335 2.94,0.904 6.083,1.257 9.152,1.044 3.094,-0.215 6.066,-1.022 8.884,-2.285 1.424,-0.638 2.759,-1.357 4.057,-2.221 0.433,-0.287 2.242,-2.341 2.377,-1.274 0.054,0.42 -0.608,0.416 -0.66,0 -0.027,-0.212 -0.054,-0.424 -0.081,-0.636 -0.035,-0.278 0.299,-0.373 0.497,-0.285 0.08,-0.041 0.159,-0.081 0.239,-0.121 0.11,-0.145 0.281,-0.214 0.452,-0.118 0.113,0.063 0.226,0.126 0.34,0.189 0.179,0.1 0.223,0.377 0.066,0.519 -0.366,0.332 4.549,0.75 3.658,0.707 2.882,0.139 5.333,-0.684 7.581,-2.638 0.319,-0.278 0.788,0.187 0.466,0.466 -3.611,3.141 -7.958,3.372 -12.395,1.884 -0.223,-0.075 -0.34,-0.376 -0.146,-0.552 0.226,-0.295 0.306,-0.201 0.24,0.284 -0.117,0.155 -0.271,0.198 -0.452,0.118 -0.569,-0.251 -0.45,0.304 -0.546,-0.453 -0.035,-0.28 0.299,-0.37 0.497,-0.285 0.22,0.094 0.441,0.189 0.661,0.284 0.187,0.08 0.219,0.394 0.067,0.519 -9.85,8.148 -23.082,8.639 -33.482,1.206 -0.133,-0.096 -0.231,-0.297 -0.118,-0.452 0.09,-0.123 -2.216,-2.197 -2.276,-2.257 -2.061,-2.082 0.945,0.491 0.085,-0.946 0.075,0.126 0.05,0.297 -0.052,0.4 -0.128,0.13 -0.256,0.261 -0.384,0.391 -0.151,0.152 -0.411,0.114 -0.519,-0.067 -1.655,-2.771 -1.313,-8.024 -1.277,-11.055 0.055,-4.512 0.494,-9.914 3.951,-13.203 0.083,-0.08 0.208,-0.121 0.321,-0.085 5.665,1.791 11.948,3.099 16.284,7.237 0.764,0.728 6.431,4.79 6.935,4.49 0.197,-0.116 -8.863,-5.6 -9.443,-6.221 -0.155,-0.166 -0.113,-0.508 0.146,-0.552 7.085,-1.217 15.592,1.45 21.944,4.532 C -3.609,-11.743 0.91,-6.708 0.66,0 0.645,0.424 -0.016,0.426 0,0" /></g><g
           transform="translate(64.3721,195.8198)"
           id="g284"><path
             id="path286"
             style="fill:#e71e27;fill-opacity:1;fill-rule:nonzero;stroke:none"
             d="m 0,0 c -1.3,-0.522 -3.45,-2.391 -3.558,-2.245 -0.603,0.807 -0.66,2.065 0.044,2.814 0.788,0.846 2.285,0.776 3.101,-0.001 C -0.244,0.412 -0.1,0.218 0,0" /></g><g
           transform="translate(64.2051,196.105)"
           id="g288"><path
             id="path290"
             style="fill:#000000;fill-opacity:1;fill-rule:nonzero;stroke:none"
             d="m 0,0 c -0.724,-0.308 -1.376,-0.768 -2.015,-1.222 -0.42,-0.299 -0.913,-0.81 -1.405,-0.986 0.197,0.071 0.185,-0.153 0.114,0.167 -0.067,0.301 -0.202,0.522 -0.218,0.844 -0.027,0.516 0.147,1.028 0.541,1.374 0.891,0.781 2.341,0.335 2.865,-0.629 0.202,-0.373 0.773,-0.04 0.57,0.333 -0.597,1.099 -1.953,1.617 -3.143,1.203 -1.146,-0.399 -1.675,-1.598 -1.436,-2.748 0.071,-0.342 0.269,-1.086 0.665,-1.192 0.273,-0.074 0.575,0.2 0.777,0.341 0.977,0.682 1.914,1.474 3.018,1.945 C 0.723,-0.404 0.387,0.165 0,0" /></g><g
           transform="translate(78.1157,176.4517)"
           id="g292"><path
             id="path294"
             style="fill:#e71e27;fill-opacity:1;fill-rule:nonzero;stroke:none"
             d="M 0,0 C 3.235,1.575 6.47,3.149 9.705,4.724 9.171,5.415 8.638,6.107 8.104,6.798 6.03,4.454 3.688,2.483 1.007,0.862 1.654,0.365 2.301,-0.132 2.948,-0.629 3.37,0.535 4.104,1.295 5.17,1.879 6.661,2.695 5.33,4.978 3.836,4.16 2.146,3.234 1.054,1.873 0.4,0.073 0,-1.031 1.402,-1.986 2.34,-1.419 5.202,0.312 7.756,2.425 9.973,4.93 10.982,6.071 9.73,7.666 8.372,7.005 5.137,5.43 1.902,3.855 -1.333,2.281 -2.862,1.537 -1.524,-0.742 0,0" /></g><g
           transform="translate(71.4014,198.7271)"
           id="g296"><path
             id="path298"
             style="fill:none;stroke:#941a1d;stroke-width:0.528;stroke-linecap:butt;stroke-linejoin:miter;stroke-miterlimit:10;stroke-dasharray:none;stroke-opacity:1"
             d="m 0,0 9.719,-0.189 c 0,0 4.776,-0.604 4.486,-2.556 -0.291,-1.952 7.951,-7.871 7.951,-7.871" /></g><g
           transform="translate(97.0415,195.2334)"
           id="g300"><path
             id="path302"
             style="fill:none;stroke:#a51e22;stroke-width:0.528;stroke-linecap:butt;stroke-linejoin:miter;stroke-miterlimit:10;stroke-dasharray:none;stroke-opacity:1"
             d="m 0,0 c 1.211,-1.748 -2.221,-6.887 -5.053,-9.924 -0.356,-0.383 -6.006,-8.638 -13.063,-10.077" /></g><g
           transform="translate(97.5781,194.6816)"
           id="g304"><path
             id="path306"
             style="fill:#e71e27;fill-opacity:1;fill-rule:nonzero;stroke:none"
             d="M 0,0 C -0.409,-0.807 -0.789,1.074 -1.198,0.267" /></g><g
           transform="translate(60.7446,110.3135)"
           id="g308"><path
             id="path310"
             style="fill:#ffffff;fill-opacity:1;fill-rule:nonzero;stroke:none"
             d="m 0,0 c 1.213,0.782 2.448,1.562 3.818,2.018 1.369,0.456 2.907,0.561 4.236,-0.002 1.45,-0.618 2.499,-1.983 2.982,-3.484 0.483,-1.501 0.45,-3.126 0.188,-4.68 -0.203,-1.203 -0.572,-2.438 -1.431,-3.304 -0.821,-0.829 -1.98,-1.213 -3.1,-1.543 -1.223,-0.361 -2.472,-0.693 -3.747,-0.703 -1.276,-0.011 -2.596,0.333 -3.549,1.18 -1.384,1.232 -1.738,3.268 -1.607,5.117 0.121,1.714 0.604,3.438 1.617,4.828 1.013,1.388 2.599,2.41 4.316,2.51" /></g><g
           transform="translate(60.876,110.0889)"
           id="g312"><path
             id="path314"
             style="fill:#000000;fill-opacity:1;fill-rule:nonzero;stroke:none"
             d="m 0,0 c 3.324,2.118 8.079,3.983 10.334,-0.627 0.839,-1.716 0.793,-3.75 0.436,-5.589 C 10.307,-8.594 8.717,-9.77 6.493,-10.52 2.52,-11.859 -2.06,-11.015 -2.106,-5.978 -2.14,-2.313 -0.218,1.389 3.661,1.911 3.991,1.956 3.85,2.457 3.522,2.413 -0.872,1.82 -3.032,-2.738 -2.573,-6.854 c 0.604,-5.402 5.95,-5.411 10.046,-3.904 4.005,1.475 5.135,6.637 3.381,10.351 C 8.514,4.549 3.343,2.747 -0.262,0.449 -0.544,0.271 -0.283,-0.181 0,0" /></g><g
           transform="translate(59.5757,104.9053)"
           id="g316"><path
             id="path318"
             style="fill:#000000;fill-opacity:1;fill-rule:nonzero;stroke:none"
             d="M 0,0 C 3.465,4.317 11.095,1.073 9.582,-4.535 9.494,-4.858 9.996,-4.997 10.083,-4.674 11.721,1.396 3.435,5.105 -0.368,0.367 -0.575,0.108 -0.209,-0.262 0,0" /></g><g
           transform="translate(65.3838,111.9736)"
           id="g320"><path
             id="path322"
             style="fill:#000000;fill-opacity:1;fill-rule:nonzero;stroke:none"
             d="m 0,0 c 2.997,-0.709 5.363,-2.917 6.259,-5.866 0.097,-0.32 0.599,-0.184 0.502,0.137 -0.948,3.12 -3.448,5.48 -6.623,6.23 C -0.187,0.578 -0.326,0.077 0,0" /></g><g
           transform="translate(64.5361,106.6123)"
           id="g324"><path
             id="path326"
             style="fill:#231f20;fill-opacity:1;fill-rule:evenodd;stroke:none"
             d="m 0,0 0.02,-0.624 c 0.391,0.012 0.781,-0.013 1.162,-0.078 l 0.107,0.615 C 0.862,-0.014 0.43,0.013 0,0" /></g><g
           transform="translate(62.2808,106.2041)"
           id="g328"><path
             id="path330"
             style="fill:#231f20;fill-opacity:1;fill-rule:evenodd;stroke:none"
             d="m 0,0 0.183,-0.597 c 0.385,0.118 0.773,0.217 1.163,0.284 L 1.24,0.301 C 0.818,0.229 0.405,0.124 0,0" /></g><g
           transform="translate(60.1733,105.3994)"
           id="g332"><path
             id="path334"
             style="fill:#231f20;fill-opacity:1;fill-rule:evenodd;stroke:none"
             d="m 0,0 0.247,-0.573 c 0.379,0.164 0.758,0.322 1.139,0.468 L 1.164,0.478 C 0.771,0.327 0.384,0.166 0,0" /></g><g
           transform="translate(69.5161,102.6631)"
           id="g336"><path
             id="path338"
             style="fill:#231f20;fill-opacity:1;fill-rule:evenodd;stroke:none"
             d="m 0,0 -0.622,-0.061 c 0.037,-0.373 0.017,-0.751 -0.065,-1.113 l 0.61,-0.137 C 0.019,-0.88 0.042,-0.436 0,0" /></g><g
           transform="translate(68.689,104.8408)"
           id="g340"><path
             id="path342"
             style="fill:#231f20;fill-opacity:1;fill-rule:evenodd;stroke:none"
             d="m 0,0 -0.503,-0.369 c 0.221,-0.301 0.396,-0.639 0.519,-0.995 l 0.589,0.203 C 0.463,-0.747 0.26,-0.354 0,0" /></g><g
           transform="translate(66.8364,106.2451)"
           id="g344"><path
             id="path346"
             style="fill:#231f20;fill-opacity:1;fill-rule:evenodd;stroke:none"
             d="M 0,0 -0.228,-0.581 C 0.126,-0.718 0.457,-0.906 0.745,-1.14 l 0.391,0.487 C 0.793,-0.376 0.407,-0.157 0,0" /></g><g
           transform="translate(67.9341,110.2314)"
           id="g348"><path
             id="path350"
             style="fill:#231f20;fill-opacity:1;fill-rule:evenodd;stroke:none"
             d="M 0,0 -0.375,-0.5 C -0.13,-0.694 0.122,-0.881 0.35,-1.095 l 0.414,0.467 C 0.523,-0.402 0.258,-0.205 0,0" /></g><g
           transform="translate(66.439,111.1836)"
           id="g352"><path
             id="path354"
             style="fill:#231f20;fill-opacity:1;fill-rule:evenodd;stroke:none"
             d="M 0,0 -0.295,-0.551 C -0.02,-0.696 0.249,-0.855 0.51,-1.027 l 0.341,0.522 C 0.575,-0.323 0.292,-0.155 0,0" /></g><g
           transform="translate(64.8213,111.8955)"
           id="g356"><path
             id="path358"
             style="fill:#231f20;fill-opacity:1;fill-rule:evenodd;stroke:none"
             d="m 0,0 -0.207,-0.589 c 0.298,-0.094 0.582,-0.225 0.87,-0.345 L 0.92,-0.365 C 0.616,-0.238 0.315,-0.1 0,0" /></g><g
           transform="translate(71.3594,106.207)"
           id="g360"><path
             id="path362"
             style="fill:#231f20;fill-opacity:1;fill-rule:evenodd;stroke:none"
             d="m 0,0 -0.554,-0.288 c 0.135,-0.28 0.282,-0.557 0.391,-0.849 l 0.577,0.238 C 0.297,-0.59 0.143,-0.297 0,0" /></g><g
           transform="translate(70.4224,107.7119)"
           id="g364"><path
             id="path366"
             style="fill:#231f20;fill-opacity:1;fill-rule:evenodd;stroke:none"
             d="m 0,0 -0.504,-0.368 c 0.186,-0.251 0.359,-0.511 0.521,-0.778 L 0.55,-0.822 C 0.379,-0.539 0.196,-0.266 0,0" /></g><g
           transform="translate(69.2764,109.0557)"
           id="g368"><path
             id="path370"
             style="fill:#231f20;fill-opacity:1;fill-rule:evenodd;stroke:none"
             d="m 0,0 -0.444,-0.438 c 0.226,-0.216 0.425,-0.458 0.633,-0.692 l 0.478,0.401 C 0.449,-0.482 0.238,-0.228 0,0" /></g><g
           transform="translate(70.04,102.2344)"
           id="g372"><path
             id="path374"
             style="fill:#df3b41;fill-opacity:1;fill-rule:nonzero;stroke:none"
             d="M 0,0 C 0.01,0.008 -0.032,0.023 -0.038,0.027 -0.039,0.009 0.01,-0.006 0,0" /></g><g
           transform="translate(70.0454,102.0732)"
           id="g376"><path
             id="path378"
             style="fill:#df3b41;fill-opacity:1;fill-rule:nonzero;stroke:none"
             d="M 0,0 C 0,0.008 -0.001,0.009 -0.001,0.009 0.001,0.014 0.004,-0.021 -0.004,-0.031 0.002,-0.023 0.001,-0.008 0,0" /></g><g
           transform="translate(69.9331,102.166)"
           id="g380"><path
             id="path382"
             style="fill:#df3b41;fill-opacity:1;fill-rule:nonzero;stroke:none"
             d="M 0,0 C -0.039,-0.066 0.069,-0.053 0.076,-0.093 L 0.07,-0.107 c 0.015,0.015 0.028,0.031 0.038,0.048 C 0.093,-0.073 0.006,-0.031 0,0" /></g><g
           transform="translate(69.98,102.3691)"
           id="g384"><path
             id="path386"
             style="fill:#df3b41;fill-opacity:1;fill-rule:nonzero;stroke:none"
             d="M 0,0 C -0.019,-0.022 -0.037,0.008 0.01,-0.028 L 0.013,-0.02 C 0.01,-0.016 0.005,-0.01 0,0" /></g><g
           transform="translate(69.9932,102.3496)"
           id="g388"><path
             id="path390"
             style="fill:#df3b41;fill-opacity:1;fill-rule:nonzero;stroke:none"
             d="M 0,0 C 0.017,-0.018 0.01,0.027 0,0" /></g><g
           transform="translate(69.9097,102.4434)"
           id="g392"><path
             id="path394"
             style="fill:#df3b41;fill-opacity:1;fill-rule:nonzero;stroke:none"
             d="M 0,0 0.042,-0.018 C 0.052,-0.001 0.038,0.028 0.054,0.024 0.022,0.049 0.012,0.033 0,0" /></g><g
           transform="translate(69.8452,102.4434)"
           id="g396"><path
             id="path398"
             style="fill:#df3b41;fill-opacity:1;fill-rule:nonzero;stroke:none"
             d="M 0,0 0.02,-0.011 C 0.024,-0.004 0.023,0.002 0,0" /></g><g
           transform="translate(69.9063,102.4111)"
           id="g400"><path
             id="path402"
             style="fill:#df3b41;fill-opacity:1;fill-rule:nonzero;stroke:none"
             d="M 0,0 -0.042,0.021 C -0.048,0.011 -0.068,-0.003 -0.024,0.011 -0.044,0.001 -0.022,0.006 0,0" /></g><g
           transform="translate(69.9092,102.3848)"
           id="g404"><path
             id="path406"
             style="fill:#df3b41;fill-opacity:1;fill-rule:nonzero;stroke:none"
             d="M 0,0 C -0.002,-0.026 0.004,-0.056 -0.037,-0.038 0.011,-0.089 0.047,-0.053 0,0" /></g><g
           transform="translate(69.8662,102.127)"
           id="g408"><path
             id="path410"
             style="fill:#df3b41;fill-opacity:1;fill-rule:nonzero;stroke:none"
             d="m 0,0 0.002,-0.036 0.035,10e-4 C 0.019,-0.037 0.016,0.015 0,0" /></g><g
           transform="translate(69.8203,102.6641)"
           id="g412"><path
             id="path414"
             style="fill:#df3b41;fill-opacity:1;fill-rule:nonzero;stroke:none"
             d="m 0,0 c -0.015,-0.006 -0.03,-0.032 -0.045,-0.045 l 0.029,-0.017 C -0.014,-0.043 -0.019,-0.014 0,0" /></g><g
           transform="translate(69.7749,102.6191)"
           id="g416"><path
             id="path418"
             style="fill:#df3b41;fill-opacity:1;fill-rule:nonzero;stroke:none"
             d="M 0,0 -0.045,0.023 C -0.029,-0.012 -0.014,-0.012 0,0" /></g><g
           transform="translate(69.772,102.4053)"
           id="g420"><path
             id="path422"
             style="fill:#df3b41;fill-opacity:1;fill-rule:nonzero;stroke:none"
             d="M 0,0 0.085,-0.027 -0.008,0.011 0,0 Z" /></g><g
           transform="translate(69.7407,102.8066)"
           id="g424"><path
             id="path426"
             style="fill:#df3b41;fill-opacity:1;fill-rule:nonzero;stroke:none"
             d="M 0,0 0.044,-0.004 -0.025,0.008 0,0 Z" /></g><g
           transform="translate(69.6816,102.9014)"
           id="g428"><path
             id="path430"
             style="fill:#df3b41;fill-opacity:1;fill-rule:nonzero;stroke:none"
             d="M 0,0 C 0.036,-0.002 0.033,0.047 0.059,0.038 0.039,0.062 0.004,0.072 -0.027,0.081 -0.004,0.066 0.005,0.041 0,0" /></g><g
           transform="translate(69.6055,103)"
           id="g432"><path
             id="path434"
             style="fill:#df3b41;fill-opacity:1;fill-rule:nonzero;stroke:none"
             d="M 0,0 C 0.012,-0.007 0.03,-0.012 0.049,-0.018 0.036,-0.009 0.021,-0.003 0,0" /></g><g
           transform="translate(69.6997,102.71)"
           id="g436"><path
             id="path438"
             style="fill:#df3b41;fill-opacity:1;fill-rule:nonzero;stroke:none"
             d="M 0,0 C 0.007,0.008 0.025,0.025 0.022,0.052 L -0.008,0.015 0,0 Z" /></g><g
           transform="translate(69.6909,102.7236)"
           id="g440"><path
             id="path442"
             style="fill:#df3b41;fill-opacity:1;fill-rule:nonzero;stroke:none"
             d="M 0,0 0.001,0.001 C -0.007,0.017 -0.012,0.029 -0.015,0.035 -0.015,0.035 -0.009,0.021 0,0" /></g><g
           transform="translate(69.7017,102.7061)"
           id="g444"><path
             id="path446"
             style="fill:#df3b41;fill-opacity:1;fill-rule:nonzero;stroke:none"
             d="M 0,0 -0.002,0.004 C -0.002,0.004 -0.006,-0.001 0,0" /></g><g
           transform="translate(69.7476,102.5215)"
           id="g448"><path
             id="path450"
             style="fill:#df3b41;fill-opacity:1;fill-rule:nonzero;stroke:none"
             d="M 0,0 C -0.034,0.009 -0.084,0.042 -0.091,-0.022 -0.055,-0.022 -0.052,0.014 0,0" /></g><g
           transform="translate(69.6641,102.6602)"
           id="g452"><path
             id="path454"
             style="fill:#df3b41;fill-opacity:1;fill-rule:nonzero;stroke:none"
             d="m 0,0 0.014,-0.045 c 0.01,0.007 0.021,0.023 0.038,0.018 L 0,0 Z" /></g><g
           transform="translate(69.6401,102.6729)"
           id="g456"><path
             id="path458"
             style="fill:#df3b41;fill-opacity:1;fill-rule:nonzero;stroke:none"
             d="M 0,0 0.024,-0.013 0.019,0.004 0,0 Z" /></g><g
           transform="translate(69.6074,102.9102)"
           id="g460"><path
             id="path462"
             style="fill:#df3b41;fill-opacity:1;fill-rule:nonzero;stroke:none"
             d="M 0,0 C -0.027,0.009 -0.039,0.027 -0.054,0.048 -0.048,0.021 -0.039,-0.007 -0.026,-0.029 -0.012,-0.026 0.015,-0.023 0,0" /></g><g
           transform="translate(69.6445,102.8174)"
           id="g464"><path
             id="path466"
             style="fill:#df3b41;fill-opacity:1;fill-rule:nonzero;stroke:none"
             d="M 0,0 -0.004,0.003 C -0.004,0.003 -0.006,-0.004 0,0" /></g><g
           transform="translate(69.436,103.1758)"
           id="g468"><path
             id="path470"
             style="fill:#df3b41;fill-opacity:1;fill-rule:nonzero;stroke:none"
             d="M 0,0 -0.005,-0.008 0.002,-0.005 0,0 Z" /></g><g
           transform="translate(69.5762,102.873)"
           id="g472"><path
             id="path474"
             style="fill:#df3b41;fill-opacity:1;fill-rule:nonzero;stroke:none"
             d="M 0,0 C 0.002,-0.021 0.017,-0.027 0.035,-0.03 0.024,-0.02 0.014,-0.007 0.005,0.008 -0.001,0.006 -0.005,0.005 0,0" /></g><g
           transform="translate(69.5542,103.0508)"
           id="g476"><path
             id="path478"
             style="fill:#df3b41;fill-opacity:1;fill-rule:nonzero;stroke:none"
             d="M 0,0 -0.005,-0.042 C 0.003,-0.026 0.012,0.003 0,0" /></g><g
           transform="translate(69.6475,102.832)"
           id="g480"><path
             id="path482"
             style="fill:#df3b41;fill-opacity:1;fill-rule:nonzero;stroke:none"
             d="M 0,0 0.003,-0.001 C 0.008,0.009 0.005,0.006 0,0" /></g><g
           transform="translate(69.6475,102.832)"
           id="g484"><path
             id="path486"
             style="fill:#df3b41;fill-opacity:1;fill-rule:nonzero;stroke:none"
             d="m 0,0 c -0.01,0.006 -0.024,0.008 -0.037,0.011 0.01,-0.01 0.019,-0.017 0.03,-0.023 L 0,0 Z" /></g><g
           transform="translate(69.1494,103.1055)"
           id="g488"><path
             id="path490"
             style="fill:#df3b41;fill-opacity:1;fill-rule:nonzero;stroke:none"
             d="M 0,0 C 0.038,0.017 0.097,-0.012 0.08,-0.073 0.129,-0.099 0.233,-0.008 0.281,0.062 0.265,0.056 0.25,0.048 0.207,0.077 0.195,0.052 0.21,-0.039 0.158,-0.022 0.11,0.021 0.147,0.029 0.152,0.066 0.119,0.02 0.048,0.1 -0.011,0.052 L 0.038,0.017 C 0.028,0.01 0.002,0.019 0,0" /></g><g
           transform="translate(69.4692,103.0879)"
           id="g492"><path
             id="path494"
             style="fill:#df3b41;fill-opacity:1;fill-rule:nonzero;stroke:none"
             d="M 0,0 0.014,-0.014 C 0.01,0.009 0.017,0.03 0.031,0.071 -0.001,0.09 -0.018,0.088 -0.031,0.083 L 0.009,-0.003 0,0 Z" /></g><g
           transform="translate(69.5244,102.998)"
           id="g496"><path
             id="path498"
             style="fill:#df3b41;fill-opacity:1;fill-rule:nonzero;stroke:none"
             d="m 0,0 c -0.047,-0.008 -0.085,0.023 -0.115,-0.024 0.03,-0.049 0.052,-0.018 0.085,-0.038 -0.053,0.075 0.035,-0.011 0.026,0.059 C 0.011,-0.016 0.021,-0.028 0.029,-0.04 0.026,-0.023 0.025,-0.007 0.025,0.011 L 0.023,0.008 0.024,0.007 l -0.001,0 C 0.02,0.001 0.018,-0.002 0.019,0.003 L 0.017,0.005 0,0 c -0.004,0.027 0.008,0.01 0.017,0.005 l 0.006,0.002 0,0.001 -0.065,0.068 C -0.038,0.056 -0.025,0.035 0,0" /></g><g
           transform="translate(69.5498,102.4922)"
           id="g500"><path
             id="path502"
             style="fill:#df3b41;fill-opacity:1;fill-rule:nonzero;stroke:none"
             d="M 0,0 0.007,0.008 C 0,0.01 -0.005,0.01 0,0" /></g><g
           transform="translate(69.5542,102.5381)"
           id="g504"><path
             id="path506"
             style="fill:#df3b41;fill-opacity:1;fill-rule:nonzero;stroke:none"
             d="M 0,0 C 0.009,-0.003 0.027,0.001 0.034,-0.02 0.031,-0.042 0.015,-0.03 0.003,-0.038 0.02,-0.044 0.053,-0.062 0.052,-0.016 L 0.043,-0.013 C 0.039,0.026 0.064,0.095 0.072,0.092 0.042,0.062 0.022,0.041 0,0" /></g><g
           transform="translate(69.5269,102.7646)"
           id="g508"><path
             id="path510"
             style="fill:#df3b41;fill-opacity:1;fill-rule:nonzero;stroke:none"
             d="M 0,0 -0.056,0.056 -0.071,0.003 -0.052,0.016 C -0.039,-0.026 -0.019,-0.004 0,0" /></g><g
           transform="translate(69.4517,103.1943)"
           id="g512"><path
             id="path514"
             style="fill:#df3b41;fill-opacity:1;fill-rule:nonzero;stroke:none"
             d="M 0,0 0.046,0.014 -0.034,0.02 0,0 Z" /></g><g
           transform="translate(69.3994,103.2783)"
           id="g516"><path
             id="path518"
             style="fill:#df3b41;fill-opacity:1;fill-rule:nonzero;stroke:none"
             d="M 0,0 0.038,0.016 0.003,0.027 0,0 Z" /></g><g
           transform="translate(65.313,106.8154)"
           id="g520"><path
             id="path522"
             style="fill:#df3b41;fill-opacity:1;fill-rule:nonzero;stroke:none"
             d="M 0,0 -0.024,-0.005 C -0.013,-0.004 -0.006,-0.002 0,0" /></g><g
           transform="translate(65.457,106.7666)"
           id="g524"><path
             id="path526"
             style="fill:#df3b41;fill-opacity:1;fill-rule:nonzero;stroke:none"
             d="M 0,0 0.01,0.018 C 0,0.01 -0.005,0.004 0,0" /></g><g
           transform="translate(68.0742,105.3555)"
           id="g528"><path
             id="path530"
             style="fill:#df3b41;fill-opacity:1;fill-rule:nonzero;stroke:none"
             d="M 0,0 C 0.009,0.05 0.031,0.116 -0.002,0.084 L -0.031,0.048 C -0.01,0.035 -0.002,0.018 0,0" /></g><g
           transform="translate(66.6914,106.3516)"
           id="g532"><path
             id="path534"
             style="fill:#df3b41;fill-opacity:1;fill-rule:nonzero;stroke:none"
             d="M 0,0 0,-0.017 0.043,0.004 0,0 Z" /></g><g
           transform="translate(66.561,106.2139)"
           id="g536"><path
             id="path538"
             style="fill:#df3b41;fill-opacity:1;fill-rule:nonzero;stroke:none"
             d="M 0,0 -0.017,0.047 C -0.015,0.034 -0.01,0.019 0,0" /></g><g
           transform="translate(64.498,106.9531)"
           id="g540"><path
             id="path542"
             style="fill:#df3b41;fill-opacity:1;fill-rule:nonzero;stroke:none"
             d="M 0,0 -0.03,-0.043 C 0.008,-0.046 -0.006,-0.021 0,0" /></g><g
           transform="translate(68.8813,104.1582)"
           id="g544"><path
             id="path546"
             style="fill:#df3b41;fill-opacity:1;fill-rule:nonzero;stroke:none"
             d="M 0,0 C 0,0.033 -0.004,0.057 -0.013,0.075 -0.018,0.032 -0.037,-0.012 0,0" /></g><g
           transform="translate(65.5293,107.249)"
           id="g548"><path
             id="path550"
             style="fill:#df3b41;fill-opacity:1;fill-rule:nonzero;stroke:none"
             d="M 0,0 C -0.016,-0.003 -0.025,-0.01 -0.028,-0.02 -0.012,-0.017 0,-0.011 0,0" /></g><g
           transform="translate(68.8247,104.3037)"
           id="g552"><path
             id="path554"
             style="fill:#df3b41;fill-opacity:1;fill-rule:nonzero;stroke:none"
             d="M 0,0 -0.001,-0.019 C 0.017,-0.032 0.033,-0.047 0.044,-0.07 0.047,-0.039 0.042,-0.008 0,0" /></g><g
           transform="translate(61.5215,106.4668)"
           id="g556"><path
             id="path558"
             style="fill:#df3b41;fill-opacity:1;fill-rule:nonzero;stroke:none"
             d="M 0,0 -0.009,0.002 C -0.007,-0.004 0,0 0,0" /></g><g
           transform="translate(60.4888,106.4785)"
           id="g560"><path
             id="path562"
             style="fill:#df3b41;fill-opacity:1;fill-rule:nonzero;stroke:none"
             d="M 0,0 C 0.007,0.007 0.021,0.014 0.033,0.021 0.025,0.021 0.015,0.015 0,0" /></g><g
           transform="translate(69.2241,103.6377)"
           id="g564"><path
             id="path566"
             style="fill:#df3b41;fill-opacity:1;fill-rule:nonzero;stroke:none"
             d="M 0,0 C 0.013,-0.017 0.006,0 0,0" /></g><g
           transform="translate(69.1177,103.4619)"
           id="g568"><path
             id="path570"
             style="fill:#df3b41;fill-opacity:1;fill-rule:nonzero;stroke:none"
             d="M 0,0 C -0.006,0.001 -0.014,0.001 -0.023,-0.004 -0.013,0 -0.005,0.001 0,0" /></g><g
           transform="translate(68.4746,104.332)"
           id="g572"><path
             id="path574"
             style="fill:#df3b41;fill-opacity:1;fill-rule:nonzero;stroke:none"
             d="M 0,0 -0.001,0.002 C -0.005,-0.008 -0.004,-0.007 0,0" /></g><g
           transform="translate(69.2217,103.5996)"
           id="g576"><path
             id="path578"
             style="fill:#df3b41;fill-opacity:1;fill-rule:nonzero;stroke:none"
             d="M 0,0 -0.001,0.03 C -0.002,0.025 -0.002,0.016 0,0" /></g><g
           transform="translate(69.2383,103.6143)"
           id="g580"><path
             id="path582"
             style="fill:#df3b41;fill-opacity:1;fill-rule:nonzero;stroke:none"
             d="M 0,0 C 0.002,-0.009 0.004,-0.014 0.005,-0.019 0.013,-0.017 0.016,-0.013 0,0" /></g><g
           transform="translate(69.2075,103.6621)"
           id="g584"><path
             id="path586"
             style="fill:#df3b41;fill-opacity:1;fill-rule:nonzero;stroke:none"
             d="m 0,0 c 0.006,-0.01 0.01,-0.021 0.013,-0.032 0,0.006 0.004,0.008 0.004,0.008 C 0.012,-0.019 0.007,-0.011 0,0" /></g><g
           transform="translate(63.0791,107.0674)"
           id="g588"><path
             id="path590"
             style="fill:#df3b41;fill-opacity:1;fill-rule:nonzero;stroke:none"
             d="M 0,0 -0.005,0.003 C -0.022,-0.018 -0.014,-0.014 0,0" /></g><g
           transform="translate(67.3628,105.4648)"
           id="g592"><path
             id="path594"
             style="fill:#df3b41;fill-opacity:1;fill-rule:nonzero;stroke:none"
             d="M 0,0 0.003,0 0.002,0.003 0,0 Z" /></g><g
           transform="translate(67.2891,105.4961)"
           id="g596"><path
             id="path598"
             style="fill:#df3b41;fill-opacity:1;fill-rule:nonzero;stroke:none"
             d="M 0,0 C 0.062,0.016 0.069,-0.003 0.076,-0.028 L 0.155,0.078 0,0 Z" /></g><g
           transform="translate(62.7964,107.3545)"
           id="g600"><path
             id="path602"
             style="fill:#df3b41;fill-opacity:1;fill-rule:nonzero;stroke:none"
             d="M 0,0 0.017,-0.01 C -0.012,-0.031 -0.005,-0.017 0,0 m 6.294,-3.607 c 0.01,-0.003 0.016,0.001 0.02,0.006 -0.013,-0.002 -0.022,0.012 -0.028,0.03 -0.009,-0.011 -0.012,-0.024 0.008,-0.036 m -0.016,0.072 -0.003,0.001 c 0,0.039 -0.001,0.025 0.003,-0.001 M 3.926,-1.151 C 3.907,-1.157 3.899,-1.141 3.896,-1.113 3.909,-1.118 3.92,-1.13 3.926,-1.151 M 2.877,-0.658 C 2.859,-0.662 2.82,-0.681 2.822,-0.649 2.86,-0.603 2.861,-0.634 2.877,-0.658 m -0.713,0.21 0.039,-0.049 c -0.074,-0.054 -0.11,-0.024 -0.078,-0.088 0.041,0.142 0.184,-0.032 0.229,0.099 l 0.022,-0.038 c -0.008,0.003 -0.012,-0.003 -0.02,0.001 0.04,-0.084 0.074,0.083 0.148,0.039 0.024,-0.019 0.037,-0.044 0.013,-0.055 l 0.072,0.015 C 2.606,-0.533 2.593,-0.555 2.577,-0.547 L 2.673,-0.566 2.671,-0.57 c 0.021,0.015 0.062,0.034 0.082,0.042 0.016,-0.03 -0.017,-0.009 -0.018,-0.029 l 0.063,0.01 C 2.805,-0.59 2.75,-0.604 2.718,-0.585 2.711,-0.735 2.773,-0.569 2.841,-0.689 l -0.054,0.003 c -10e-4,-0.086 0.046,-0.076 0.076,-0.143 0,0.028 -0.052,0.16 0.015,0.169 0.011,-0.016 0.029,-0.029 0.07,-0.017 C 2.927,-0.722 2.96,-0.723 2.997,-0.736 L 2.966,-0.795 C 3.012,-0.794 3.024,-0.762 3.06,-0.746 3.097,-0.774 3.082,-0.825 3.071,-0.869 3.13,-0.914 3.065,-0.771 3.147,-0.803 3.189,-0.855 3.24,-0.853 3.326,-0.855 3.352,-0.896 3.298,-0.887 3.302,-0.91 l 0.061,0.026 C 3.371,-0.89 3.36,-0.902 3.354,-0.908 c 0.04,0.002 0.037,0.055 0.092,0.046 0.053,0.056 0.032,-0.15 0.13,-0.116 0.002,-0.025 -0.029,-0.03 -0.04,-0.053 0.103,-0.005 0.084,-0.01 0.187,0.009 l 0.025,-0.072 c -0.008,0.067 0.074,0.082 0.147,0.091 0,0.029 0,0.055 0,0.067 l 0.09,-0.021 C 3.986,-0.973 3.965,-0.985 3.938,-0.999 l 0.021,0.003 C 3.968,-1.034 3.933,-1.055 3.894,-1.071 L 3.895,-1.02 C 3.853,-1.04 3.811,-1.065 3.792,-1.099 3.8,-1.096 3.813,-1.097 3.824,-1.1 3.813,-1.105 3.805,-1.111 3.803,-1.118 c -0.002,-0.008 0.013,0 0.034,0.006 l -0.03,-0.072 0.022,0.021 0.053,-0.104 c 0.104,0.011 0.226,0.052 0.344,-0.004 -0.06,-0.021 -0.064,-0.063 -0.108,-0.11 0.019,0.072 -0.092,0.038 -0.131,0.088 0.021,-0.026 -0.004,-0.046 -0.018,-0.049 l 0.127,-0.022 c -0.037,-0.039 -0.008,-0.045 0,-0.08 0.053,0.093 0.108,-0.005 0.162,-0.014 C 4.236,-1.485 4.205,-1.504 4.17,-1.459 4.161,-1.56 4.311,-1.424 4.309,-1.516 c -0.01,0.009 -0.012,0.019 -0.028,0.009 0.044,10e-4 0.084,-0.071 0.05,-0.08 L 4.32,-1.578 C 4.379,-1.647 4.516,-1.771 4.588,-1.723 4.58,-1.73 4.502,-1.787 4.486,-1.795 l 0.329,0.082 C 4.749,-1.754 4.652,-1.916 4.57,-1.89 4.576,-1.913 4.585,-1.94 4.635,-1.956 4.634,-1.938 4.692,-1.855 4.711,-1.866 4.686,-1.963 4.704,-1.925 4.695,-2.022 4.692,-1.995 4.8,-1.935 4.82,-1.964 4.803,-1.972 4.732,-2.043 4.715,-2.042 l 0.144,0.009 C 4.829,-2.029 4.781,-2.095 4.768,-2.131 4.78,-2.108 4.814,-2.189 4.837,-2.2 l -0.002,0.046 c 0.048,-0.087 0.189,0.028 0.248,-0.053 -0.027,-0.005 -0.135,-0.069 -0.116,-0.116 0.063,0.02 0.289,0.095 0.38,0.051 L 5.33,-2.307 5.402,-2.339 C 5.304,-2.356 5.082,-2.376 4.987,-2.371 4.987,-2.418 4.961,-2.404 4.996,-2.446 4.982,-2.481 4.939,-2.452 4.928,-2.44 l 0.059,-0.115 c 0.053,0.046 0.115,-0.036 0.159,0.002 L 5.005,-2.484 C 5.057,-2.438 5.211,-2.43 5.257,-2.512 5.248,-2.547 5.146,-2.571 5.128,-2.587 5.155,-2.582 5.217,-2.629 5.208,-2.646 L 5.155,-2.637 C 5.163,-2.692 5.28,-2.648 5.259,-2.738 5.267,-2.758 5.22,-2.841 5.256,-2.82 c 0.047,0.073 0.245,0.219 0.308,0.234 0,-0.009 0.001,-0.137 -0.018,-0.18 -0.032,-0.063 -0.153,-0.039 -0.181,-0.093 0.017,0.008 0.047,0.006 0.058,0.004 -0.001,-0.028 -0.054,-0.026 -0.02,-0.061 0.063,0.033 0.05,-0.084 0.062,0.015 0.044,-0.029 0.017,-0.05 0.05,-0.094 0.029,0.04 0.157,0.042 0.2,0.012 C 5.699,-2.99 5.685,-3.012 5.678,-3.022 5.725,-3.108 5.726,-3.17 5.774,-3.248 5.764,-3.264 5.769,-3.312 5.733,-3.312 5.75,-3.316 5.777,-3.314 5.793,-3.338 5.768,-3.416 5.753,-3.289 5.711,-3.362 5.748,-3.344 5.796,-3.396 5.839,-3.417 5.887,-3.373 5.802,-3.331 5.76,-3.31 5.835,-3.264 5.949,-3.276 6.033,-3.339 6.091,-3.394 6.001,-3.396 6.019,-3.401 6.078,-3.532 6.215,-3.43 6.218,-3.565 6.193,-3.634 6.123,-3.622 6.093,-3.651 6.044,-3.607 6.077,-3.551 6.054,-3.516 L 6.057,-3.573 C 6.031,-3.565 5.998,-3.537 6,-3.51 5.978,-3.568 6.112,-3.724 6.125,-3.843 6.151,-3.851 6.185,-3.87 6.197,-3.846 l -0.024,0.028 c 0.023,0.049 0.086,-0.028 0.083,0.021 0.051,-0.025 0.12,-0.047 0.129,-0.117 l -0.05,-0.042 c 0.016,0.01 0.013,0.057 -0.013,0.063 0.038,-0.01 -0.027,-0.13 0.061,-0.117 l 0.016,0.063 C 6.45,-3.974 6.538,-3.992 6.548,-4.054 6.59,-4 6.535,-4.045 6.58,-3.973 6.517,-4.049 6.511,-3.84 6.455,-3.937 6.509,-3.858 6.451,-3.854 6.488,-3.77 6.47,-3.781 6.462,-3.807 6.447,-3.759 c -0.007,0 -0.016,10e-4 -0.021,10e-4 l -0.001,0.003 -10e-4,-0.003 0,-0.002 C 6.422,-3.774 6.417,-3.788 6.409,-3.797 6.354,-3.799 6.317,-3.729 6.282,-3.719 6.277,-3.688 6.31,-3.718 6.321,-3.692 l -0.052,0.015 c 0.039,0.027 0.029,0.107 0.087,0.06 l -0.029,0.054 c 0.005,0.045 -0.011,0.095 -0.043,0.113 -0.006,0.03 -0.083,0.038 -0.038,0.034 l -0.075,0.07 0.01,0.007 C 6.136,-3.253 6.015,-3.207 6.027,-3.069 6,-3.048 5.97,-3.027 5.952,-2.974 l 0.028,0.031 c -0.034,0.028 -0.033,0.129 -0.078,0.122 0.069,0.097 -0.093,0.183 -0.119,0.256 L 5.737,-2.593 c -0.026,0.045 -0.066,0.076 -0.118,0.117 l -0.036,-0.03 c -0.061,0.024 -0.055,0.133 -0.11,0.2 C 5.49,-2.3 5.5,-2.32 5.5,-2.34 5.523,-2.193 5.31,-2.21 5.314,-2.089 5.286,-2.081 5.28,-2.064 5.279,-2.045 L 5.285,-2.048 C 5.281,-2.043 5.279,-2.04 5.279,-2.04 L 5.278,-1.999 C 5.275,-2.014 5.273,-2.027 5.275,-2.036 5.263,-2.022 5.241,-2.005 5.215,-1.991 l 0.032,0.04 -0.005,0.004 C 5.239,-1.915 5.21,-1.946 5.189,-1.98 c -0.014,0.004 -0.03,0.008 -0.045,0.008 0.049,0.068 -0.065,0.036 -0.018,0.115 -0.044,-0.014 -0.109,0.084 -0.186,0.036 0.008,0.008 0.007,0.017 0.018,0.008 -0.013,0.028 -0.026,0.056 -0.062,0.059 l 0.039,0.052 -0.108,-0.01 c 0.002,0.056 0.007,0.083 0.07,0.087 -0.12,0.019 -0.073,0.038 -0.182,0.046 l 0.033,0.025 c -0.021,0.02 -0.091,0.016 -0.079,0.052 0.009,0.1 -0.22,0.23 -0.295,0.395 -0.055,-0.112 -0.025,0.09 -0.091,0.024 0.01,0.027 0.003,0.055 0.04,0.057 -0.084,0.033 -0.071,0.117 -0.167,0.093 0.011,0.029 0.041,0.021 0.045,0.04 -0.01,-0.001 -0.037,-0.003 -0.034,0.017 0.004,0.019 0.025,0.011 0.043,0.012 -0.071,0.052 -0.132,-0.012 -0.188,-0.073 -0.009,0.059 -0.031,0.067 -0.089,0.041 0.004,0.03 -10e-4,0.068 0.049,0.044 -0.022,0.021 -0.13,0.139 -0.17,0.086 0.001,0.02 -0.032,0.029 -0.043,0.027 -0.054,0.042 -0.056,0.05 -0.114,0.083 l 0.01,-0.02 C 3.6,-0.729 3.61,-0.659 3.558,-0.642 l 0.005,0.006 C 3.485,-0.525 3.503,-0.634 3.43,-0.517 L 3.412,-0.563 C 3.35,-0.652 3.349,-0.456 3.267,-0.457 l 0.009,-0.038 c -0.049,-0.013 -0.027,0.183 -0.06,0.21 -0.004,0.012 0.019,0.008 0.033,0.009 -0.068,0.099 -0.041,-0.053 -0.118,-0.036 0.002,0.038 0.055,0.074 0.01,0.101 C 3.127,-0.174 2.956,-0.255 2.917,-0.165 2.921,-0.196 2.925,-0.228 2.885,-0.232 2.833,-0.217 2.784,-0.08 2.707,-0.147 2.703,-0.139 2.703,-0.131 2.705,-0.125 2.658,-0.133 2.563,-0.119 2.526,-0.155 2.538,0.021 2.26,-0.157 2.3,-0.011 L 2.172,0.006 2.179,0.021 C 2.1,0.048 2.064,0.016 2.029,-0.016 2.013,-0.002 2.029,0.01 2.032,0.019 1.92,0.071 1.906,0.072 1.797,0.006 L 1.793,0.058 C 1.764,0.03 1.629,0.152 1.506,0.103 1.508,0.108 1.511,0.118 1.521,0.124 1.388,0.081 1.206,0.286 1.156,0.093 L 1.07,0.045 C 1.181,0.033 1.055,-0.037 1.101,-0.067 1.059,-0.079 0.989,-0.014 1.041,-0.003 L 1.05,-0.012 C 1.067,0.087 0.912,0.02 0.912,0.086 0.691,0.085 0.476,0.088 0.268,0.072 L 0.303,0 0.231,-0.005 C 0.21,0.01 0.196,0.05 0.248,0.054 0.213,0.093 0.168,0.007 0.17,-0.01 0.067,0 0.192,0.086 0.163,0.081 L 0.122,0.066 0.133,0.061 C 0.105,0.022 0.109,-0.011 0.049,-0.021 0.008,-0.015 0.02,0.021 0.004,0.02 0.003,0.025 -0.002,0.026 -0.019,0.017 l -0.09,-0.015 0.048,-0.05 c -0.032,-0.038 -0.083,-0.016 -0.027,-0.073 -0.083,0.088 -0.335,-0.039 -0.379,-0.017 -0.041,-0.059 -0.093,-0.076 -0.159,-0.092 0.02,-0.007 0.049,-0.069 -0.008,-0.079 -0.022,0.14 -0.12,0.025 -0.197,0.105 0.062,-0.05 -0.153,-0.068 -0.059,-0.137 -0.05,-0.005 -0.02,0.049 -0.066,0.069 -0.094,-0.084 -0.256,-0.052 -0.381,-0.128 0.004,-0.018 0.037,-0.035 0.019,-0.072 l -0.104,0.055 c -0.023,-0.02 0.016,-0.107 -0.056,-0.069 0.013,-0.012 0.032,-0.029 0.017,-0.041 -0.301,-0.023 -0.49,-0.301 -0.818,-0.285 0.051,-0.013 0.03,-0.029 0.004,-0.043 0.021,0.001 0.021,-0.041 0.036,-0.061 l -0.138,0.007 c 0.013,-0.07 -0.112,-0.064 -0.091,-0.126 l 0.027,0.027 c -0.006,-0.091 0.145,-0.119 0.186,-0.211 0.007,0.104 0.189,-0.05 0.21,0.104 0.027,-0.009 0,-0.036 0.02,-0.052 0,0.048 0.021,0.068 0.074,0.075 l 0,-0.012 c 0.123,0.074 0.194,0.068 0.35,0.11 l -0.031,0.04 c 0.034,0.007 0.047,-0.004 0.067,-0.009 0.005,0.083 -0.09,-0.034 -0.092,0.055 0.084,-0.073 0.224,0.094 0.298,0.001 0.048,0.02 -0.037,0.047 0.012,0.066 l 0.025,-0.022 -0.003,0.042 c 0.034,0.007 0.065,-0.022 0.076,-0.045 -0.009,-0.001 -0.019,-0.017 -0.026,-0.022 0.055,-0.016 0.11,0.061 0.129,0.055 l -0.053,-0.002 c 0.12,0.087 0.296,0.112 0.408,0.21 l -0.018,0.019 c 0.087,0.074 0.089,0.002 0.193,0.058 l -0.002,-0.007 c 0.015,0.03 0.041,0.05 0.072,0.058 -0.02,-0.035 0.068,-0.033 0.04,-0.074 0.095,0.08 0.043,0.052 0.091,0.16 l 0.028,-0.032 c 0.015,0.042 0.012,0.058 0.067,0.082 -0.038,-0.043 0.051,-0.049 0.011,-0.103 0.139,-0.055 0.155,0.123 0.238,0.016 0.03,0.117 -0.116,0.034 -0.091,0.063 -0.034,0.028 0.027,0.088 0.067,0.086 0.039,0.007 0.095,-0.117 0.189,-0.094 -0.01,-0.002 -0.009,-0.009 -0.018,-0.011 0.04,-0.019 0.062,0.052 0.113,0.019 0.013,0.07 0.058,0.009 0.05,0.09 C 0.21,-0.304 0.183,-0.319 0.155,-0.332 0.2,-0.297 0.23,-0.195 0.323,-0.231 0.319,-0.248 0.297,-0.273 0.283,-0.287 c 0.028,-0.022 0.044,0.021 0.073,0 0.006,-0.083 -0.105,-0.029 -0.147,-0.103 0.031,-0.026 0.09,0.074 0.079,-0.017 0.02,0.117 0.095,-0.002 0.147,0.093 l 0.003,-0.05 c 0.009,0.009 0.027,0.035 0.046,0.036 L 0.459,-0.396 c 0.045,0.061 0.106,-0.035 0.152,0.001 -0.104,-0.014 -0.03,0.057 -0.079,0.086 0.123,0.083 0.089,-0.118 0.229,-0.075 -0.018,-0.01 -0.075,0.02 -0.047,0.046 0.029,-0.007 0.066,-0.019 0.085,-0.045 0.095,0.013 -0.018,0.051 0.02,0.082 0.037,-0.059 0.046,0.026 0.087,0.046 l 0.003,-0.051 c 0.112,-0.029 0.025,0.106 0.127,0.07 l -0.04,-0.072 0.051,0.02 -0.009,-0.057 c 0.054,0.043 0.072,0.033 0.127,0.019 -0.013,0.035 0.007,0.091 0.057,0.094 C 1.255,-0.261 1.202,-0.28 1.271,-0.271 1.255,-0.304 1.238,-0.343 1.208,-0.298 L 1.19,-0.346 c 0.035,-0.033 0.088,-0.005 0.113,-0.005 -0.009,0.002 -0.021,0.004 -0.026,0.012 0.034,0.026 0.067,0.042 0.101,0.064 0.015,-0.021 0.002,-0.035 -0.011,-0.048 0.02,0.004 0.035,0.025 0.065,0.027 -0.01,-0.04 -0.011,-0.082 -0.053,-0.098 l 0.096,0.038 c 0.005,-0.019 0.045,-0.053 0.031,-0.068 0.049,-0.027 0.134,0.069 0.199,0.031 0.004,0.008 0.013,0.015 0.028,0.02 0.065,-0.012 0.11,-0.08 0.195,-0.037 l 0.029,-0.08 c 0.062,0.005 -0.04,0.101 0.064,0.109 0.074,0.009 0.013,-0.066 0.033,-0.091 0.041,0.03 0.12,0.09 0.17,0.02 -0.025,-0.009 -0.039,0.005 -0.06,0.004" /></g><g
           transform="translate(66.5767,106.2295)"
           id="g604"><path
             id="path606"
             style="fill:#df3b41;fill-opacity:1;fill-rule:nonzero;stroke:none"
             d="M 0,0 C 0.001,0.01 0.006,0.018 0.011,0.026 0.001,0.022 -0.005,0.015 0,0" /></g><g
           transform="translate(64.5034,106.9619)"
           id="g608"><path
             id="path610"
             style="fill:#df3b41;fill-opacity:1;fill-rule:nonzero;stroke:none"
             d="M 0,0 -0.002,0 -0.005,-0.009 0,0 Z" /></g><g
           transform="translate(68.1558,104.457)"
           id="g612"><path
             id="path614"
             style="fill:#df3b41;fill-opacity:1;fill-rule:nonzero;stroke:none"
             d="M 0,0 C -0.002,0.017 0.001,0.028 0.006,0.038 -0.005,0.031 -0.01,0.021 0,0" /></g><g
           transform="translate(69.3496,103.458)"
           id="g616"><path
             id="path618"
             style="fill:#df3b41;fill-opacity:1;fill-rule:nonzero;stroke:none"
             d="M 0,0 -0.034,0.033 C -0.021,0.015 -0.027,0.003 -0.028,-0.011 -0.019,-0.004 -0.008,0.012 0,0" /></g><g
           transform="translate(69.2651,102.9629)"
           id="g620"><path
             id="path622"
             style="fill:#df3b41;fill-opacity:1;fill-rule:nonzero;stroke:none"
             d="m 0,0 c 0.009,-0.003 0.007,-0.013 0.016,-0.015 l 0.02,0.013 C 0.021,0.021 -0.005,0.03 0,0" /></g><g
           transform="translate(69.2236,103.3408)"
           id="g624"><path
             id="path626"
             style="fill:#df3b41;fill-opacity:1;fill-rule:nonzero;stroke:none"
             d="m 0,0 c -0.036,-0.023 -0.009,-0.042 0.013,-0.066 0,0 0,0.001 -0.003,0.004 C 0.066,-0.041 0.033,-0.021 0,0" /></g><g
           transform="translate(69.2412,103.2686)"
           id="g628"><path
             id="path630"
             style="fill:#df3b41;fill-opacity:1;fill-rule:nonzero;stroke:none"
             d="M 0,0 C 0.007,-0.008 0.012,-0.016 0.015,-0.025 0.038,-0.017 0.014,-0.013 0,0" /></g><g
           transform="translate(69.1597,103.6816)"
           id="g632"><path
             id="path634"
             style="fill:#df3b41;fill-opacity:1;fill-rule:nonzero;stroke:none"
             d="M 0,0 C -0.002,-0.019 0.052,0.018 0.041,0.002 0.096,0.014 -0.066,0.059 0,0" /></g><g
           transform="translate(69.1138,103.251)"
           id="g636"><path
             id="path638"
             style="fill:#df3b41;fill-opacity:1;fill-rule:nonzero;stroke:none"
             d="M 0,0 0.041,0.035 -0.005,0.03 0,0 Z" /></g><g
           transform="translate(69.0264,103.4893)"
           id="g640"><path
             id="path642"
             style="fill:#df3b41;fill-opacity:1;fill-rule:nonzero;stroke:none"
             d="M 0,0 0.012,-0.052 C 0.02,-0.047 0.027,-0.05 0.034,-0.055 0.021,-0.026 0.013,0.009 0,0" /></g><g
           transform="translate(69.0605,103.4346)"
           id="g644"><path
             id="path646"
             style="fill:#df3b41;fill-opacity:1;fill-rule:nonzero;stroke:none"
             d="M 0,0 C 0.007,-0.015 0.016,-0.027 0.027,-0.031 0.022,-0.024 0.012,-0.009 0,0" /></g><g
           transform="translate(69.0669,103.3047)"
           id="g648"><path
             id="path650"
             style="fill:#df3b41;fill-opacity:1;fill-rule:nonzero;stroke:none"
             d="M 0,0 0.002,0.018 -0.012,0.052 0,0 Z" /></g><g
           transform="translate(68.7632,103.9678)"
           id="g652"><path
             id="path654"
             style="fill:#df3b41;fill-opacity:1;fill-rule:nonzero;stroke:none"
             d="M 0,0 -0.041,0.041 C -0.06,0.036 -0.061,0.018 -0.044,0.004 -0.027,-0.001 -0.011,-0.016 0,0" /></g><g
           transform="translate(68.7251,103.752)"
           id="g656"><path
             id="path658"
             style="fill:#df3b41;fill-opacity:1;fill-rule:nonzero;stroke:none"
             d="M 0,0 C 0.002,0.019 0.011,0.025 0.022,0.041 L -0.035,0.01 0,0 Z" /></g><g
           transform="translate(68.6304,103.8828)"
           id="g660"><path
             id="path662"
             style="fill:#df3b41;fill-opacity:1;fill-rule:nonzero;stroke:none"
             d="M 0,0 C -0.018,-0.005 -0.085,0.042 -0.046,-0.016 -0.028,-0.012 0.013,-0.051 0,0" /></g><g
           transform="translate(68.2544,104.627)"
           id="g664"><path
             id="path666"
             style="fill:#df3b41;fill-opacity:1;fill-rule:nonzero;stroke:none"
             d="M 0,0 0.009,-0.012 0.095,0.05 0,0 Z" /></g><g
           transform="translate(67.6206,105.0566)"
           id="g668"><path
             id="path670"
             style="fill:#df3b41;fill-opacity:1;fill-rule:nonzero;stroke:none"
             d="M 0,0 C 0.021,-0.065 0.061,0.029 0.072,-0.035 0.102,-0.031 0.063,0.018 0.089,0.019 0.044,0.032 0.043,0.057 0,0" /></g><g
           transform="translate(67.71,105.0752)"
           id="g672"><path
             id="path674"
             style="fill:#df3b41;fill-opacity:1;fill-rule:nonzero;stroke:none"
             d="M 0,0 C 0.007,-0.001 0.015,-0.003 0.025,-0.005 0.013,0 0.006,0.001 0,0" /></g><g
           transform="translate(60.3218,106.4561)"
           id="g676"><path
             id="path678"
             style="fill:#df3b41;fill-opacity:1;fill-rule:nonzero;stroke:none"
             d="M 0,0 -0.049,0 -0.007,-0.019 0,0 Z" /></g><g
           transform="translate(60.2861,106.3496)"
           id="g680"><path
             id="path682"
             style="fill:#df3b41;fill-opacity:1;fill-rule:nonzero;stroke:none"
             d="m 0,0 -0.042,0.055 0.007,-0.066 C -0.028,-0.004 -0.014,0.01 0,0" /></g><g
           transform="translate(65.7173,106.5283)"
           id="g684"><path
             id="path686"
             style="fill:#df3b41;fill-opacity:1;fill-rule:nonzero;stroke:none"
             d="M 0,0 0.01,0.014 C 0.012,0.032 0.004,0.037 -0.012,0.047 L 0,0 Z" /></g><g
           transform="translate(65.2446,106.7676)"
           id="g688"><path
             id="path690"
             style="fill:#df3b41;fill-opacity:1;fill-rule:nonzero;stroke:none"
             d="M 0,0 0.008,-0.004 0.011,0.06 0,0 Z" /></g><g
           transform="translate(64.7988,106.8037)"
           id="g692"><path
             id="path694"
             style="fill:#df3b41;fill-opacity:1;fill-rule:nonzero;stroke:none"
             d="M 0,0 C 0.017,-0.006 0.041,0.004 0.058,-0.002 0.017,-0.006 0.01,0.076 0,0" /></g><g
           transform="translate(65.6172,111.3447)"
           id="g696"><path
             id="path698"
             style="fill:none;stroke:#da1f26;stroke-width:0.31200001;stroke-linecap:butt;stroke-linejoin:miter;stroke-miterlimit:10;stroke-dasharray:none;stroke-opacity:1"
             d="M 0,0 C 0,0 4.567,-2.541 4.655,-3.802" /></g><g
           transform="translate(123.4854,80.0977)"
           id="g700"><path
             id="path702"
             style="fill:#cccbcb;fill-opacity:1;fill-rule:nonzero;stroke:none"
             d="m 0,0 c 0.749,-1.528 2.07,-1.993 3.554,-2.179 1.63,-0.203 3.262,-0.514 4.897,-0.364 2.52,0.231 4.82,1.152 7.028,2.372 0.875,0.484 0.625,-1.516 1.147,-0.744 0.28,0.414 -1.288,-1.867 0,0 0.005,0.007 2.063,-0.304 2.06,-0.312 -1.393,-2.831 -4.32,-1.765 -7.101,-2.776 C 9.257,-4.85 6.842,-5.095 4.376,-4.861 3.088,-4.739 1.848,-4.342 0.725,-3.61 -0.34,-2.919 -0.597,-2.138 -0.21,-0.896 -0.12,-0.604 -0.069,-0.299 0,0" /></g></g></g></g></svg>