<?xml version="1.0" standalone="no"?>
<!DOCTYPE svg PUBLIC "-//W3C//DTD SVG 20010904//EN"
 "http://www.w3.org/TR/2001/REC-SVG-20010904/DTD/svg10.dtd">
<svg version="1.0" xmlns="http://www.w3.org/2000/svg"
 width="612.000000pt" height="612.000000pt" viewBox="0 0 612.000000 612.000000"
 preserveAspectRatio="xMidYMid meet">

<g transform="translate(0.000000,612.000000) scale(0.100000,-0.100000)"
fill="#000000" stroke="none">
<path d="M1617 4892 c-15 -17 -17 -74 -17 -619 0 -597 0 -600 21 -619 20 -18
45 -19 621 -19 582 0 600 1 614 19 19 27 18 70 -4 89 -17 15 -74 17 -573 19
l-554 3 -3 507 -2 507 561 3 c542 3 561 4 575 22 19 27 18 70 -4 89 -17 15
-74 17 -619 17 -568 0 -601 -1 -616 -18z"/>
<path d="M3380 4762 c-8 -2 -137 -126 -287 -275 l-272 -270 -137 136 c-145
145 -171 159 -207 119 -37 -41 -25 -61 149 -235 144 -144 170 -167 197 -167
28 0 67 36 329 298 165 163 301 307 304 320 11 41 -35 86 -76 74z"/>
<path d="M3179 3796 c-62 -22 -106 -63 -145 -136 -18 -33 -19 -66 -19 -657 0
-343 -2 -623 -4 -623 -3 0 -57 51 -120 114 -126 123 -175 155 -256 163 -112
12 -225 -64 -255 -172 -15 -55 -8 -140 16 -186 9 -18 75 -90 145 -159 71 -69
129 -128 129 -132 0 -5 -214 -8 -475 -8 l-475 0 0 510 0 510 553 0 c616 0 597
-2 597 65 0 67 23 65 -635 65 -518 0 -593 -2 -613 -16 l-22 -15 0 -605 c0
-591 0 -604 20 -624 20 -20 33 -20 608 -20 l588 0 144 -148 c80 -81 188 -193
240 -249 137 -145 250 -211 423 -247 346 -72 701 117 839 446 55 130 58 162
58 658 0 515 1 503 -79 572 -69 59 -154 68 -245 27 -23 -11 -29 -8 -63 24 -69
68 -174 85 -257 43 l-47 -24 -43 43 c-24 23 -60 48 -80 55 -38 12 -145 10
-178 -5 -17 -7 -18 9 -18 261 0 155 -5 285 -10 306 -27 96 -136 178 -234 178
-28 -1 -67 -7 -87 -14z m153 -136 c57 -44 58 -56 58 -593 0 -271 0 -500 0
-509 0 -43 66 -64 102 -31 16 14 18 34 18 174 0 87 5 170 10 184 22 57 87 85
144 61 61 -25 66 -42 66 -219 0 -189 9 -216 71 -217 50 0 57 22 61 178 l3 144
33 29 c35 32 81 38 127 17 45 -20 55 -55 55 -188 0 -149 12 -180 72 -180 45 0
58 31 58 142 0 113 8 142 49 163 43 22 66 19 103 -14 l33 -29 3 -389 c4 -421
-4 -535 -42 -636 -72 -192 -245 -346 -437 -392 -98 -23 -231 -19 -327 8 -121
35 -183 77 -302 202 -57 60 -258 263 -446 450 -253 252 -343 347 -347 369 -17
100 87 180 176 135 12 -6 103 -92 203 -190 188 -187 205 -198 244 -159 20 20
20 33 20 714 0 489 3 703 11 725 23 65 127 94 181 51z"/>
</g>
</svg>
