<svg width="17" height="17" viewBox="0 0 17 17" fill="none" xmlns="http://www.w3.org/2000/svg">
<g clip-path="url(#clip0_83_2695)">
<path d="M14.1839 6.08826H8.09562C7.34841 6.08826 6.74268 6.69399 6.74268 7.4412V13.5294C6.74268 14.2766 7.34841 14.8824 8.09562 14.8824H14.1839C14.9311 14.8824 15.5368 14.2766 15.5368 13.5294V7.4412C15.5368 6.69399 14.9311 6.08826 14.1839 6.08826Z" stroke="#5C669A" stroke-width="1.5" stroke-linecap="round" stroke-linejoin="round"/>
<path d="M4.03674 10.147H3.36027C3.00144 10.147 2.65732 10.0045 2.40359 9.75076C2.14987 9.49703 2.00732 9.15291 2.00732 8.79408V2.70585C2.00732 2.34702 2.14987 2.0029 2.40359 1.74917C2.65732 1.49545 3.00144 1.35291 3.36027 1.35291H9.4485C9.80732 1.35291 10.1514 1.49545 10.4052 1.74917C10.6589 2.0029 10.8014 2.34702 10.8014 2.70585V3.38232" stroke="#5C669A" stroke-width="1.5" stroke-linecap="round" stroke-linejoin="round"/>
</g>
<defs>
<clipPath id="clip0_83_2695">
<rect width="16.2353" height="16.2353" fill="white" transform="translate(0.654297)"/>
</clipPath>
</defs>
</svg>
