<svg width="17" height="17" viewBox="0 0 17 17" fill="none" xmlns="http://www.w3.org/2000/svg">
<g clip-path="url(#clip0_83_2694)">
<path d="M12.1544 2.0294C12.3321 1.85173 12.543 1.71079 12.7751 1.61464C13.0073 1.51848 13.2561 1.46899 13.5073 1.46899C13.7586 1.46899 14.0074 1.51848 14.2395 1.61464C14.4717 1.71079 14.6826 1.85173 14.8603 2.0294C15.0379 2.20707 15.1789 2.418 15.275 2.65014C15.3712 2.88227 15.4207 3.13108 15.4207 3.38234C15.4207 3.63361 15.3712 3.88241 15.275 4.11455C15.1789 4.34669 15.0379 4.55761 14.8603 4.73528L5.72791 13.8676L2.00732 14.8823L3.02203 11.1618L12.1544 2.0294Z" stroke="#5C669A" stroke-width="1.5" stroke-linecap="round" stroke-linejoin="round"/>
</g>
<defs>
<clipPath id="clip0_83_2694">
<rect width="16.2353" height="16.2353" fill="white" transform="translate(0.654297)"/>
</clipPath>
</defs>
</svg>
