<svg width="21" height="20" viewBox="0 0 21 20" fill="none" xmlns="http://www.w3.org/2000/svg">
<path d="M10.4258 0.5C9.98293 0.5 9.57405 0.718672 9.32617 1.0752L9.22949 1.23633V1.2373L6.96484 5.73633L6.96094 5.74316C6.91194 5.84414 6.81643 5.91492 6.70605 5.93164H6.70215C5.00824 6.2015 3.31237 6.48748 1.62988 6.80273H1.62891C1.62735 6.803 1.62558 6.80344 1.62402 6.80371C1.62271 6.80396 1.62143 6.80444 1.62012 6.80469H1.62109C1.10349 6.89528 0.684157 7.27686 0.546875 7.78516C0.411618 8.28669 0.575904 8.8201 0.967773 9.16016L0.966797 9.16113L4.63379 12.5732C4.71091 12.6504 4.74548 12.7595 4.72852 12.8662L4.2998 15.376L3.85938 17.8857L3.85742 17.8955V17.8965C3.77842 18.4016 3.99781 18.9061 4.41895 19.1943L4.41992 19.1953C4.83767 19.4801 5.38055 19.5012 5.81934 19.2529L5.83301 19.2461C7.32868 18.4384 8.82053 17.6325 10.3115 16.8574L10.3193 16.8535L10.3262 16.8496C10.4157 16.7991 10.5247 16.7992 10.6143 16.8496L10.6299 16.8574C12.125 17.6347 13.6212 18.442 15.1211 19.252V19.2529L15.1221 19.252C15.5602 19.5058 16.1049 19.4857 16.5225 19.1973C16.9468 18.904 17.1595 18.3893 17.0664 17.8828L16.2129 12.8682C16.1955 12.7598 16.2307 12.6502 16.3076 12.5732L19.9746 9.16113L19.9736 9.16016C20.3754 8.80439 20.5307 8.24619 20.3672 7.73438C20.205 7.22651 19.7602 6.86252 19.2324 6.80176C17.5514 6.48676 15.8558 6.20132 14.1631 5.93164H14.1602C14.0493 5.91484 13.9536 5.84391 13.9053 5.74414L13.9004 5.73535L11.6211 1.23633C11.3935 0.784972 10.9314 0.500142 10.4258 0.5Z" fill="#FFC328" stroke="#BA8600"/>
</svg>
