<svg width="28" height="28" viewBox="0 0 28 28" fill="none" xmlns="http://www.w3.org/2000/svg">
<path d="M6 3H22C23.1046 3 24 3.89543 24 5V17C24 18.1046 23.1046 19 22 19H17.6L14 22.4L10.4 19H6C4.89543 19 4 18.1046 4 17V5C4 3.89543 4.89543 3 6 3Z" fill="#CBEDE2"/>
<path d="M8 7V20.8L10.5 19H13C13.5523 19 14 18.5523 14 18V7C14 6.44772 13.5523 6 13 6H9C8.44772 6 8 6.44772 8 7Z" fill="white"/>
<path d="M20 7V20.8L17.5 19H15C14.4477 19 14 18.5523 14 18V7C14 6.44772 14.4477 6 15 6H19C19.5523 6 20 6.44772 20 7Z" fill="#F3FBF8"/>
<path d="M14 6V19" stroke="#1D6A63" stroke-width="0.9" stroke-linecap="round"/>
<path d="M9.2 8.5H12.6" stroke="#2C7C74" stroke-width="0.9" stroke-linecap="round"/>
<path d="M9.2 11H12.4" stroke="#2C7C74" stroke-width="0.9" stroke-linecap="round"/>
<path d="M9.2 13.5H11.8" stroke="#2C7C74" stroke-width="0.9" stroke-linecap="round"/>
<path d="M16.5 9V13" stroke="#1D6A63" stroke-width="1" stroke-linecap="round" stroke-linejoin="round"/>
<path d="M16.5 13L14.9 14.6" stroke="#1D6A63" stroke-width="1" stroke-linecap="round" stroke-linejoin="round"/>
<path d="M16.5 13L18.1 14.6" stroke="#1D6A63" stroke-width="1" stroke-linecap="round" stroke-linejoin="round"/>
<path d="M14.9 14.6L13.8 16.4" stroke="#1D6A63" stroke-width="1" stroke-linecap="round" stroke-linejoin="round"/>
<path d="M18.1 14.6L19.2 16.4" stroke="#1D6A63" stroke-width="1" stroke-linecap="round" stroke-linejoin="round"/>
<circle cx="16.5" cy="9" r="0.95" fill="#1D6A63"/>
<circle cx="14.9" cy="14.6" r="0.8" fill="#37A08F"/>
<circle cx="18.1" cy="14.6" r="0.8" fill="#37A08F"/>
<circle cx="13.8" cy="16.4" r="0.65" fill="#5FD2B9"/>
<circle cx="19.2" cy="16.4" r="0.65" fill="#5FD2B9"/>
</svg>
