<svg width="28" height="28" viewBox="0 0 28 28" fill="none" xmlns="http://www.w3.org/2000/svg">
<path d="M15.5556 21.7836H18.6667C23.8213 21.7836 28 17.605 28 12.4503V10.117C28 4.96231 23.8213 0.78363 18.6667 0.78363H9.33333C4.17868 0.78363 0 4.96231 0 10.117V12.4503C0 17.343 3.76481 21.3565 8.55556 21.7517V27.2281L15.5556 21.7836Z" fill="white"/>
<path d="M20.0455 11.9424V11.2502V10.558L21.0441 11.2502L20.0455 11.9424Z" fill="white"/>
<path d="M7.50478 12.1332V9.38068C7.50478 9.38068 7.37965 7.61472 8.7587 7.61472C10.1377 7.61472 10.0126 9.38068 10.0126 9.38068V13.1197C10.0126 13.1197 9.85613 14.8857 11.2665 14.8857C12.6769 14.8857 12.5204 13.1197 12.5204 13.1197V10.558C12.5204 10.558 12.3326 8.79202 13.7744 8.79202C15.2161 8.79202 15.0283 10.558 15.0283 10.558V11.9424C15.0283 11.9424 14.8819 13.1197 16.0754 13.1197C17.4393 13.1197 16.8061 11.2502 17.6585 11.2502C18.511 11.2502 19.0712 11.2502 20.0455 11.2502M20.0455 11.2502V11.9424L21.0441 11.2502L20.0455 10.558V11.2502Z" stroke="#7E57C2" stroke-width="1.05958"/>
</svg>
