<svg width="21" height="28" viewBox="0 0 21 28" fill="none" xmlns="http://www.w3.org/2000/svg">
<path d="M14.9871 1.41746C15.9322 0.0565875 17.8015 -0.28048 19.1624 0.664603C20.5233 1.60969 20.8603 3.47904 19.9152 4.83991L15.9224 10.5894L10.9942 7.16699L14.9871 1.41746Z" fill="#567DFC"/>
<path d="M10.9942 7.16699L15.9224 10.5894C15.9224 10.5894 11.0739 17.571 7.93668 22.0885C5.3229 25.15 2.28449 27.1353 1.17925 27.8039C0.917061 27.9625 0.590615 27.9443 0.338923 27.7695C0.0872309 27.5947 -0.0438257 27.2952 0.0132209 26.9941C0.253696 25.725 1.05272 22.1845 3.00851 18.6661C6.14576 14.1486 10.9942 7.16699 10.9942 7.16699Z" fill="#99A8F1"/>
<path d="M0.0132209 26.9941C-0.0438257 27.2952 0.0872309 27.5947 0.338923 27.7695C0.590615 27.9443 0.917061 27.9625 1.17925 27.8039C1.64627 27.5214 2.45847 27.0038 3.43793 26.2692L0.662395 24.3417C0.316193 25.516 0.114834 26.4578 0.0132209 26.9941Z" fill="#39489E"/>
<path d="M12.0952 0.322261C12.3315 -0.0179582 12.7988 -0.102225 13.139 0.134046C13.4792 0.370316 13.5635 0.837654 13.3272 1.17787L12.6142 2.20457L13.8463 3.06019L13.2759 3.88155L12.0438 3.02594L8.47876 8.15945C8.24249 8.49966 7.77515 8.58393 7.43494 8.34766C7.09472 8.11139 7.01045 7.64405 7.24672 7.30383L12.0952 0.322261Z" fill="#39489E"/>
</svg>
