<svg width="20" height="29" viewBox="0 0 20 29" fill="none" xmlns="http://www.w3.org/2000/svg">
<path d="M10.634 8.01088L2.77474 19.7447C1.52541 22.0317 0.695604 25.0815 0.695604 25.0815L2.88638 26.5489C2.88638 26.5489 5.38302 24.6819 7.17923 22.6948L15.0385 10.961L10.634 8.01088Z" fill="#99A8F1"/>
<path d="M10.634 8.01088L15.0593 1.40389C15.874 0.187627 17.5204 -0.137948 18.7366 0.676702L-nan -nanL18.7366 0.676702C19.9529 1.49135 20.2785 3.13773 19.4638 4.354L15.0385 10.961L10.634 8.01088Z" fill="#567DFC"/>
<path d="M0.889525 28.1096C0.472603 28.4345 -0.117971 28.0416 0.0206049 27.5315L0.687874 25.0753L2.89012 26.5503L0.889525 28.1096Z" fill="#39489E"/>
<path d="M6.85416 9.32372C6.55444 9.12297 6.47421 8.71726 6.67496 8.41755L11.6107 1.04848C11.8115 0.748765 12.2172 0.668536 12.5169 0.869284C12.8166 1.07003 12.8968 1.47574 12.6961 1.77545L7.76033 9.14452C7.55958 9.44424 7.15387 9.52447 6.85416 9.32372Z" fill="#39489E"/>
<path d="M11.1539 4.07806L11.7713 3.15616L13.2309 4.13377L12.6134 5.05567L11.1539 4.07806Z" fill="#39489E"/>
</svg>
