<?xml version="1.0" standalone="no"?>
<!DOCTYPE svg PUBLIC "-//W3C//DTD SVG 20010904//EN"
 "http://www.w3.org/TR/2001/REC-SVG-20010904/DTD/svg10.dtd">
<svg version="1.0" xmlns="http://www.w3.org/2000/svg"
 width="980.000000pt" height="980.000000pt" viewBox="0 0 980.000000 980.000000"
 preserveAspectRatio="xMidYMid meet">

<g transform="translate(0.000000,980.000000) scale(0.100000,-0.100000)"
fill="#000000" stroke="none">
<path d="M6172 7337 c-6 -7 -27 -71 -47 -142 -20 -72 -40 -133 -43 -137 -4 -4
-61 -24 -127 -43 -140 -43 -165 -56 -165 -90 0 -34 26 -48 165 -85 66 -18 124
-37 130 -42 5 -4 30 -70 55 -146 44 -134 46 -137 76 -140 17 -2 36 3 42 10 6
7 28 74 49 148 l38 135 120 38 c161 51 163 52 171 82 11 43 -16 59 -151 95
-69 18 -131 38 -139 44 -7 6 -30 67 -51 136 -20 69 -41 131 -47 138 -14 16
-63 16 -76 -1z"/>
<path d="M5173 6815 c-17 -7 -39 -24 -47 -38 -9 -13 -60 -182 -114 -375 -54
-194 -101 -354 -103 -355 -2 -2 -141 -46 -309 -97 -393 -119 -407 -125 -431
-164 -36 -59 -15 -156 42 -186 12 -7 83 -29 158 -50 75 -21 228 -64 341 -95
113 -31 210 -62 216 -68 6 -7 55 -156 109 -332 53 -176 103 -335 111 -352 26
-64 109 -90 180 -57 43 21 59 52 94 179 67 244 162 580 165 584 2 2 155 50
339 106 185 57 349 112 365 121 68 40 77 140 18 199 -28 28 -63 40 -292 104
-143 40 -303 85 -355 100 l-94 27 -108 348 c-59 192 -115 357 -125 369 -22 24
-74 47 -105 47 -13 -1 -37 -7 -55 -15z"/>
<path d="M2830 6580 c-368 -49 -652 -333 -700 -700 -8 -60 -10 -494 -8 -1470
l4 -1385 22 -79 c34 -120 105 -246 190 -337 119 -126 246 -201 408 -240 80
-19 121 -19 1526 -17 l1443 3 70 23 c97 33 210 94 280 150 118 94 219 248 267
402 22 74 22 81 26 738 l3 663 -30 29 c-39 40 -97 42 -134 4 l-26 -25 -4 -642
c-3 -560 -6 -649 -20 -697 -64 -214 -219 -370 -432 -436 -57 -18 -123 -19
-1470 -19 l-1410 0 -75 23 c-105 33 -196 89 -271 169 -77 82 -122 164 -149
269 -19 75 -20 115 -20 1458 1 1130 3 1393 14 1445 37 173 162 334 318 411
142 70 143 70 875 70 l653 0 31 28 c34 30 42 80 19 122 -27 50 -33 50 -712 49
-348 -1 -658 -5 -688 -9z"/>
<path d="M6719 5892 c-39 -19 -48 -43 -139 -373 l-52 -186 -171 -53 c-360
-110 -356 -108 -372 -140 -22 -43 -19 -87 9 -115 25 -25 44 -31 351 -116 105
-29 192 -54 193 -55 2 -1 38 -112 79 -246 41 -134 81 -255 89 -270 24 -46 112
-54 152 -14 8 7 47 132 88 276 40 145 75 264 76 265 2 2 116 38 253 80 213 65
254 81 278 106 15 16 27 41 27 55 0 33 -25 80 -47 89 -10 4 -132 40 -272 79
l-255 72 -77 253 c-81 265 -94 292 -150 305 -15 3 -39 -2 -60 -12z"/>
<path d="M4301 4827 c-6 -8 -27 -72 -47 -143 -20 -71 -39 -133 -44 -137 -4 -5
-65 -26 -135 -47 -138 -42 -155 -51 -155 -85 0 -35 27 -49 155 -85 66 -18 126
-36 134 -40 8 -4 32 -65 53 -136 22 -71 44 -135 50 -141 6 -7 23 -13 38 -13
15 0 32 6 38 13 5 6 26 70 46 142 20 71 41 134 45 138 5 5 67 26 137 48 148
44 175 66 141 113 -8 10 -64 32 -144 55 -73 20 -136 40 -140 45 -4 4 -28 69
-53 144 -44 134 -46 137 -76 140 -18 2 -36 -3 -43 -11z"/>
</g>
</svg>
