<svg width="33" height="26" viewBox="0 0 33 26" fill="none" xmlns="http://www.w3.org/2000/svg">
<path d="M0.0440674 5.89027C0.0440674 3.31294 2.1334 1.2236 4.71073 1.2236H27.3774C29.9547 1.2236 32.0441 3.31294 32.0441 5.89027V20.5569C32.0441 23.1343 29.9547 25.2236 27.3774 25.2236H4.71073C2.1334 25.2236 0.0440674 23.1343 0.0440674 20.5569V5.89027Z" fill="#6174E3"/>
<path d="M21.0714 17.2844V8.55708H24.8385C25.4862 8.55708 26.0529 8.68492 26.5387 8.9406C27.0245 9.19628 27.4024 9.55566 27.6723 10.0187C27.9422 10.4818 28.0771 11.023 28.0771 11.6423C28.0771 12.2673 27.9379 12.8085 27.6595 13.2659C27.3839 13.7233 26.9961 14.0755 26.4961 14.3227C25.999 14.5699 25.418 14.6934 24.7532 14.6934H22.5032V12.8525H24.276C24.5544 12.8525 24.7916 12.8042 24.9876 12.7076C25.1865 12.6082 25.3385 12.4676 25.4436 12.2858C25.5515 12.104 25.6055 11.8895 25.6055 11.6423C25.6055 11.3923 25.5515 11.1792 25.4436 11.0031C25.3385 10.8241 25.1865 10.6878 24.9876 10.594C24.7916 10.4974 24.5544 10.4491 24.276 10.4491H23.4407V17.2844H21.0714Z" fill="white"/>
<path d="M16.5555 17.4037C15.885 17.4037 15.2898 17.2858 14.77 17.05C14.2529 16.8113 13.8452 16.4832 13.5469 16.0656C13.2515 15.648 13.1009 15.1679 13.0952 14.6253H15.3964C15.4049 14.9264 15.5214 15.1665 15.7458 15.3454C15.9731 15.5244 16.243 15.6139 16.5555 15.6139C16.7969 15.6139 17.01 15.5628 17.1947 15.4605C17.3793 15.3554 17.5242 15.2076 17.6293 15.0173C17.7344 14.827 17.7856 14.6054 17.7827 14.3525C17.7856 14.0969 17.7344 13.8753 17.6293 13.6878C17.5242 13.4974 17.3793 13.3511 17.1947 13.2488C17.01 13.1437 16.7969 13.0912 16.5555 13.0912C16.3055 13.0912 16.0739 13.1522 15.8609 13.2744C15.6506 13.3937 15.4958 13.5599 15.3964 13.773L13.3168 13.3639L13.6577 8.55708H19.5214V10.4491H15.6009L15.4305 12.3753H15.4816C15.618 12.1111 15.8538 11.8923 16.189 11.719C16.5242 11.5429 16.9134 11.4548 17.3566 11.4548C17.8765 11.4548 18.3396 11.5755 18.7458 11.817C19.1549 12.0585 19.4773 12.3923 19.7131 12.8184C19.9518 13.2417 20.0697 13.7304 20.0668 14.2844C20.0697 14.8923 19.9248 15.4321 19.6322 15.9037C19.3424 16.3724 18.9347 16.7403 18.4092 17.0074C17.8836 17.2716 17.2657 17.4037 16.5555 17.4037Z" fill="white"/>
<path d="M4.04407 17.2842V8.55694H6.41339V11.966H9.54975V8.55694H11.9191V17.2842H9.54975V13.8751H6.41339V17.2842H4.04407Z" fill="white"/>
</svg>
