<svg width="28" height="28" viewBox="0 0 28 28" fill="none" xmlns="http://www.w3.org/2000/svg">
<path d="M1.77759 4.50391C1.77759 4.14498 2.06856 3.854 2.42749 3.854C2.78643 3.854 3.0774 4.14498 3.0774 4.50391V5.5885C3.0774 5.94744 2.78643 6.23841 2.42749 6.23841C2.06856 6.23841 1.77759 5.94744 1.77759 5.5885V4.50391Z" fill="#8E5DE1"/>
<path d="M4.46132 3.06432C4.46132 2.70539 4.75229 2.41441 5.11122 2.41441C5.47015 2.41441 5.76113 2.70539 5.76113 3.06432V7.0282C5.76113 7.38713 5.47015 7.6781 5.11122 7.6781C4.75229 7.6781 4.46132 7.38713 4.46132 7.02819V3.06432Z" fill="#8E5DE1"/>
<path d="M7.14591 0.649906C7.14591 0.290973 7.43688 0 7.79582 0C8.15475 0 8.44572 0.290973 8.44572 0.649906V9.57215C8.44572 9.93109 8.15475 10.2221 7.79582 10.2221C7.43688 10.2221 7.14591 9.93109 7.14591 9.57215V0.649906Z" fill="#8E5DE1"/>
<path d="M9.82964 3.06432C9.82964 2.70539 10.1206 2.41441 10.4795 2.41441C10.8385 2.41441 11.1294 2.70539 11.1294 3.06432V7.0282C11.1294 7.38713 10.8385 7.6781 10.4795 7.6781C10.1206 7.6781 9.82964 7.38713 9.82964 7.02819V3.06432Z" fill="#8E5DE1"/>
<path d="M12.5134 4.50391C12.5134 4.14498 12.8043 3.854 13.1633 3.854C13.5222 3.854 13.8132 4.14498 13.8132 4.50391V5.5885C13.8132 5.94744 13.5222 6.23841 13.1633 6.23841C12.8043 6.23841 12.5134 5.94744 12.5134 5.5885V4.50391Z" fill="#8E5DE1"/>
<path d="M15.198 3.06432C15.198 2.70539 15.4889 2.41441 15.8479 2.41441C16.2068 2.41441 16.4978 2.70539 16.4978 3.06432V7.0282C16.4978 7.38713 16.2068 7.6781 15.8479 7.6781C15.4889 7.6781 15.198 7.38713 15.198 7.02819V3.06432Z" fill="#8E5DE1"/>
<path d="M17.8843 0.649906C17.8843 0.290973 18.1753 0 18.5342 0C18.8931 0 19.1841 0.290973 19.1841 0.649906V9.57215C19.1841 9.93109 18.8931 10.2221 18.5342 10.2221C18.1753 10.2221 17.8843 9.93109 17.8843 9.57215V0.649906Z" fill="#8E5DE1"/>
<path d="M20.5654 3.06432C20.5654 2.70539 20.8564 2.41441 21.2153 2.41441C21.5743 2.41441 21.8652 2.70539 21.8652 3.06432V7.0282C21.8652 7.38713 21.5743 7.6781 21.2153 7.6781C20.8564 7.6781 20.5654 7.38713 20.5654 7.02819V3.06432Z" fill="#8E5DE1"/>
<path d="M23.2491 4.50391C23.2491 4.14498 23.5401 3.854 23.8991 3.854C24.258 3.854 24.549 4.14498 24.549 4.50391V5.5885C24.549 5.94744 24.258 6.23841 23.8991 6.23841C23.5401 6.23841 23.2491 5.94744 23.2491 5.5885V4.50391Z" fill="#8E5DE1"/>
<path d="M0 16.5994C0 15.0972 1.21776 13.8795 2.71994 13.8795H25.2801C26.7822 13.8795 28 15.0972 28 16.5994V24.7592C28 26.2614 26.7822 27.4791 25.2801 27.4791H2.71994C1.21776 27.4791 0 26.2614 0 24.7592V16.5994Z" fill="#3C53DC"/>
<path d="M1.39995 16.5994C1.39995 15.8483 2.00883 15.2395 2.75992 15.2395H25.24C25.9911 15.2395 26.6 15.8483 26.6 16.5994V24.7593C26.6 25.5103 25.9911 26.1192 25.24 26.1192H2.75992C2.00883 26.1192 1.39995 25.5103 1.39995 24.7593V16.5994Z" fill="white"/>
<path d="M5.28674 23.7954H4.64011V17.33H5.28674V23.7954Z" fill="#CBD2F6"/>
</svg>
