<svg width="29" height="28" viewBox="0 0 29 28" fill="none" xmlns="http://www.w3.org/2000/svg">
<path d="M2.646 1.59082H25.5542C26.0814 1.59082 26.5093 2.01873 26.5093 2.5459V25.4541C26.5093 25.9813 26.0814 26.4092 25.5542 26.4092H2.646C2.11883 26.4092 1.69092 25.9813 1.69092 25.4541V2.5459C1.69092 2.01873 2.11883 1.59082 2.646 1.59082Z" fill="white" stroke="#BB9EEC" stroke-width="3.18186"/>
<path d="M21.5335 9.49255H13.9502L13.8902 9.48951C13.5962 9.45947 13.3668 9.21112 13.3668 8.90922C13.3668 8.58705 13.628 8.32588 13.9502 8.32588H21.5335V9.49255ZM21.5335 8.32588C21.8557 8.32588 22.1168 8.58705 22.1168 8.90922C22.1168 9.23138 21.8557 9.49255 21.5335 9.49255V8.32588Z" fill="#39489E"/>
<path d="M19.704 12.038H13.8706L13.8106 12.035C13.5166 12.0049 13.2873 11.7566 13.2873 11.4547C13.2873 11.1325 13.5485 10.8713 13.8706 10.8713H19.704V12.038ZM19.704 10.8713C20.0261 10.8713 20.2873 11.1325 20.2873 11.4547C20.2873 11.7768 20.0261 12.038 19.704 12.038V10.8713Z" fill="#39489E"/>
<path d="M10.2955 10.1816C10.2954 9.19762 9.49763 8.3997 8.51363 8.3997C7.52972 8.39981 6.73184 9.19769 6.73173 10.1816C6.73173 11.1656 7.52966 11.9634 8.51363 11.9635V12.7276L8.38299 12.7238C7.03799 12.6557 5.96838 11.5435 5.96838 10.1816C5.9685 8.77595 7.10798 7.63646 8.51363 7.63635C9.91938 7.63635 11.0595 8.77588 11.0596 10.1816L11.0558 10.313C10.9876 11.6578 9.87544 12.7276 8.51363 12.7276V11.9635C9.4977 11.9635 10.2955 11.1657 10.2955 10.1816Z" fill="#39489E"/>
<path d="M7.55933 10.1819C7.55933 9.65467 7.98669 9.22731 8.51387 9.22731C9.04105 9.22731 9.46842 9.65467 9.46842 10.1819C9.46842 10.709 9.04105 11.1364 8.51387 11.1364C7.98669 11.1364 7.55933 10.709 7.55933 10.1819Z" fill="#39489E"/>
<path d="M21.5335 17.1289H13.9502L13.8902 17.1258C13.5962 17.0958 13.3668 16.8474 13.3668 16.5455C13.3668 16.2234 13.628 15.9622 13.9502 15.9622H21.5335V17.1289ZM21.5335 15.9622C21.8557 15.9622 22.1168 16.2234 22.1168 16.5455C22.1168 16.8677 21.8557 17.1289 21.5335 17.1289V15.9622Z" fill="#39489E"/>
<path d="M19.704 19.6743H13.8706L13.8106 19.6713C13.5166 19.6412 13.2873 19.3929 13.2873 19.091C13.2873 18.7688 13.5485 18.5076 13.8706 18.5076H19.704V19.6743ZM19.704 18.5076C20.0261 18.5076 20.2873 18.7688 20.2873 19.091C20.2873 19.4131 20.0261 19.6743 19.704 19.6743V18.5076Z" fill="#39489E"/>
<path d="M11.0593 17.8181C11.0593 19.2239 9.91965 20.3636 8.51384 20.3636C7.10802 20.3636 5.96838 19.2239 5.96838 17.8181C5.96838 16.4123 7.10802 15.2726 8.51384 15.2726C9.91965 15.2726 11.0593 16.4123 11.0593 17.8181Z" fill="white"/>
<path d="M10.2955 17.8179C10.2954 16.8339 9.49763 16.036 8.51363 16.036C7.52972 16.0361 6.73184 16.834 6.73173 17.8179C6.73173 18.8019 7.52966 19.5997 8.51363 19.5998V20.3639L8.38299 20.3601C7.03799 20.292 5.96838 19.1798 5.96838 17.8179C5.9685 16.4122 7.10798 15.2728 8.51363 15.2726C9.91938 15.2726 11.0595 16.4122 11.0596 17.8179L11.0558 17.9493C10.9876 19.2941 9.87544 20.3639 8.51363 20.3639V19.5998C9.4977 19.5998 10.2955 18.802 10.2955 17.8179Z" fill="#39489E"/>
</svg>
