<svg width="28" height="28" viewBox="0 0 28 28" fill="none" xmlns="http://www.w3.org/2000/svg">
<path d="M2.5459 1.59082H25.4541C25.9813 1.59082 26.4092 2.01872 26.4092 2.5459V25.4541C26.4092 25.9813 25.9813 26.4092 25.4541 26.4092H2.5459C2.01872 26.4092 1.59082 25.9813 1.59082 25.4541V2.5459C1.59082 2.01872 2.01872 1.59082 2.5459 1.59082Z" fill="white" stroke="#A1AFFD" stroke-width="3.18182"/>
<path d="M18.6879 18.6398C18.6879 18.394 18.8872 18.1948 19.133 18.1948C19.3788 18.1948 19.578 18.394 19.578 18.6398V19.3826C19.578 19.6284 19.3788 19.8276 19.133 19.8276C18.8872 19.8276 18.6879 19.6284 18.6879 19.3826V18.6398Z" fill="#39489E"/>
<path d="M13.2222 17.6539C13.2222 17.4081 13.4215 17.2089 13.6673 17.2089C13.9131 17.2089 14.1123 17.4081 14.1123 17.6539V20.3684C14.1123 20.6142 13.9131 20.8134 13.6673 20.8134C13.4215 20.8134 13.2222 20.6142 13.2222 20.3684V17.6539Z" fill="#39489E"/>
<path d="M15.0603 16.0006C15.0603 15.7548 15.2596 15.5555 15.5054 15.5555C15.7512 15.5555 15.9504 15.7548 15.9504 16.0006V22.1105C15.9504 22.3563 15.7512 22.5555 15.5054 22.5555C15.2596 22.5555 15.0603 22.3563 15.0603 22.1105V16.0006Z" fill="#39489E"/>
<path d="M16.8984 17.6539C16.8984 17.4081 17.0977 17.2089 17.3435 17.2089C17.5893 17.2089 17.7885 17.4081 17.7885 17.6539V20.3684C17.7885 20.6142 17.5893 20.8134 17.3435 20.8134C17.0977 20.8134 16.8984 20.6142 16.8984 20.3684V17.6539Z" fill="#39489E"/>
<path d="M20.5504 17.6539C20.5504 17.4081 20.7496 17.2089 20.9954 17.2089C21.2412 17.2089 21.4405 17.4081 21.4405 17.6539V20.3684C21.4405 20.6142 21.2412 20.8134 20.9954 20.8134C20.7496 20.8134 20.5504 20.6142 20.5504 20.3684V17.6539Z" fill="#39489E"/>
<path d="M10.1962 19.112C10.1961 18.128 9.39827 17.3301 8.41427 17.3301C7.43036 17.3302 6.63248 18.1281 6.63236 19.112C6.63236 20.096 7.43029 20.8937 8.41427 20.8939V21.658L8.28362 21.6542C6.93862 21.5861 5.86902 20.4739 5.86902 19.112C5.86913 17.7063 7.00861 16.5668 8.41427 16.5667C9.82001 16.5667 10.9602 17.7062 10.9603 19.112L10.9565 19.2434C10.8882 20.5882 9.77608 21.658 8.41427 21.658V20.8939C9.39834 20.8939 10.1962 20.096 10.1962 19.112Z" fill="#39489E"/>
<path d="M10.1962 9.54531C10.1961 8.56133 9.39827 7.76341 8.41427 7.76341C7.43036 7.76352 6.63248 8.5614 6.63236 9.54531C6.63236 10.5293 7.43029 11.3271 8.41427 11.3272V12.0913L8.28362 12.0875C6.93862 12.0194 5.86902 10.9072 5.86902 9.54531C5.86913 8.13966 7.00861 7.00017 8.41427 7.00006C9.82001 7.00006 10.9602 8.13959 10.9603 9.54531L10.9565 9.67671C10.8882 11.0216 9.77608 12.0913 8.41427 12.0913V11.3272C9.39834 11.3272 10.1962 10.5294 10.1962 9.54531Z" fill="#39489E"/>
<path d="M7.45959 9.54549C7.45959 9.01831 7.88696 8.59094 8.41414 8.59094C8.94132 8.59094 9.36869 9.01831 9.36869 9.54549C9.36869 10.0727 8.94132 10.5 8.41414 10.5C7.88696 10.5 7.45959 10.0727 7.45959 9.54549Z" fill="#39489E"/>
<path d="M13.2222 9.30653C13.2222 9.06073 13.4215 8.86147 13.6673 8.86147C13.9131 8.86147 14.1123 9.06073 14.1123 9.30653V10.0492C14.1123 10.295 13.9131 10.4943 13.6673 10.4943C13.4215 10.4943 13.2222 10.295 13.2222 10.0492V9.30653Z" fill="#39489E"/>
<path d="M15.0597 8.32078C15.0597 8.07499 15.259 7.87573 15.5048 7.87573C15.7506 7.87573 15.9498 8.07499 15.9498 8.32078V11.0352C15.9498 11.281 15.7506 11.4803 15.5048 11.4803C15.259 11.4803 15.0597 11.281 15.0597 11.0352V8.32078Z" fill="#39489E"/>
<path d="M16.8986 6.66734C16.8986 6.42155 17.0979 6.22229 17.3436 6.22229C17.5894 6.22229 17.7887 6.42155 17.7887 6.66734V12.7772C17.7887 13.023 17.5894 13.2223 17.3436 13.2223C17.0979 13.2223 16.8986 13.023 16.8986 12.7772V6.66734Z" fill="#39489E"/>
<path d="M18.7361 8.32078C18.7361 8.07499 18.9354 7.87573 19.1811 7.87573C19.4269 7.87573 19.6262 8.07499 19.6262 8.32078V11.0352C19.6262 11.281 19.4269 11.4803 19.1811 11.4803C18.9354 11.4803 18.7361 11.281 18.7361 11.0352V8.32078Z" fill="#39489E"/>
<path d="M20.5743 9.30653C20.5743 9.06073 20.7735 8.86147 21.0193 8.86147C21.2651 8.86147 21.4644 9.06073 21.4644 9.30653V10.0492C21.4644 10.295 21.2651 10.4943 21.0193 10.4943C20.7735 10.4943 20.5743 10.295 20.5743 10.0492V9.30653Z" fill="#39489E"/>
</svg>
