<svg width="28" height="28" viewBox="0 0 28 28" fill="none" xmlns="http://www.w3.org/2000/svg">
<rect x="2.25" y="2" width="23.375" height="23.8181" fill="white"/>
<path d="M2.91667 25.0833H25.0833V2.91667H2.91667V25.0833ZM28 25.6667C28 26.9553 26.9553 28 25.6667 28H2.33333L2.21332 27.997C0.980431 27.9345 0 26.9151 0 25.6667V2.33333C0 1.04467 1.04467 0 2.33333 0H25.6667C26.9553 0 28 1.04467 28 2.33333V25.6667Z" fill="#6174E3"/>
<mask id="path-3-inside-1_145_519" fill="white">
<path d="M7 8.21965C7 7.89748 7.26117 7.63631 7.58333 7.63631H20.4167C20.7388 7.63631 21 7.89748 21 8.21965V8.32571C21 8.64787 20.7388 8.90904 20.4167 8.90904H7.58333C7.26117 8.90904 7 8.64787 7 8.32571V8.21965Z"/>
<path d="M7 15.856C7 15.5339 7.26117 15.2727 7.58333 15.2727H20.4167C20.7388 15.2727 21 15.5339 21 15.856V15.9621C21 16.2843 20.7388 16.5454 20.4167 16.5454H7.58333C7.26117 16.5454 7 16.2843 7 15.9621V15.856Z"/>
<path d="M7 12.0377C7 11.7156 7.26117 11.4544 7.58333 11.4544H17.2348C17.557 11.4544 17.8182 11.7156 17.8182 12.0377V12.1438C17.8182 12.466 17.557 12.7271 17.2348 12.7271H7.58333C7.26117 12.7271 7 12.466 7 12.1438V12.0377Z"/>
<path d="M7 19.6741C7 19.3519 7.26117 19.0908 7.58333 19.0908H17.2348C17.557 19.0908 17.8182 19.3519 17.8182 19.6741V19.7802C17.8182 20.1023 17.557 20.3635 17.2348 20.3635H7.58333C7.26117 20.3635 7 20.1023 7 19.7802V19.6741Z"/>
</mask>
<path d="M7 8.21965C7 7.89748 7.26117 7.63631 7.58333 7.63631H20.4167C20.7388 7.63631 21 7.89748 21 8.21965V8.32571C21 8.64787 20.7388 8.90904 20.4167 8.90904H7.58333C7.26117 8.90904 7 8.64787 7 8.32571V8.21965Z" fill="#6174E3"/>
<path d="M7 15.856C7 15.5339 7.26117 15.2727 7.58333 15.2727H20.4167C20.7388 15.2727 21 15.5339 21 15.856V15.9621C21 16.2843 20.7388 16.5454 20.4167 16.5454H7.58333C7.26117 16.5454 7 16.2843 7 15.9621V15.856Z" fill="#6174E3"/>
<path d="M7 12.0377C7 11.7156 7.26117 11.4544 7.58333 11.4544H17.2348C17.557 11.4544 17.8182 11.7156 17.8182 12.0377V12.1438C17.8182 12.466 17.557 12.7271 17.2348 12.7271H7.58333C7.26117 12.7271 7 12.466 7 12.1438V12.0377Z" fill="#6174E3"/>
<path d="M7 19.6741C7 19.3519 7.26117 19.0908 7.58333 19.0908H17.2348C17.557 19.0908 17.8182 19.3519 17.8182 19.6741V19.7802C17.8182 20.1023 17.557 20.3635 17.2348 20.3635H7.58333C7.26117 20.3635 7 20.1023 7 19.7802V19.6741Z" fill="#6174E3"/>
<path d="M7.58333 7.63631V9.88631H20.4167V7.63631V5.38631H7.58333V7.63631ZM21 8.21965H18.75V8.32571H21H23.25V8.21965H21ZM20.4167 8.90904V6.65904H7.58333V8.90904V11.159H20.4167V8.90904ZM7 8.32571H9.25V8.21965H7H4.75V8.32571H7ZM7.58333 8.90904V6.65904C8.50381 6.65904 9.25 7.40523 9.25 8.32571H7H4.75C4.75 9.89052 6.01853 11.159 7.58333 11.159V8.90904ZM21 8.32571H18.75C18.75 7.40523 19.4962 6.65904 20.4167 6.65904V8.90904V11.159C21.9815 11.159 23.25 9.89052 23.25 8.32571H21ZM20.4167 7.63631V9.88631C19.4962 9.88631 18.75 9.14012 18.75 8.21965H21H23.25C23.25 6.65484 21.9815 5.38631 20.4167 5.38631V7.63631ZM7.58333 7.63631V5.38631C6.01853 5.38631 4.75 6.65484 4.75 8.21965H7H9.25C9.25 9.14012 8.50381 9.88631 7.58333 9.88631V7.63631ZM7.58333 15.2727V17.5227H20.4167V15.2727V13.0227H7.58333V15.2727ZM21 15.856H18.75V15.9621H21H23.25V15.856H21ZM20.4167 16.5454V14.2954H7.58333V16.5454V18.7954H20.4167V16.5454ZM7 15.9621H9.25V15.856H7H4.75V15.9621H7ZM7.58333 16.5454V14.2954C8.50381 14.2954 9.25 15.0416 9.25 15.9621H7H4.75C4.75 17.5269 6.01853 18.7954 7.58333 18.7954V16.5454ZM21 15.9621H18.75C18.75 15.0416 19.4962 14.2954 20.4167 14.2954V16.5454V18.7954C21.9815 18.7954 23.25 17.5269 23.25 15.9621H21ZM20.4167 15.2727V17.5227C19.4962 17.5227 18.75 16.7765 18.75 15.856H21H23.25C23.25 14.2912 21.9815 13.0227 20.4167 13.0227V15.2727ZM7.58333 15.2727V13.0227C6.01853 13.0227 4.75 14.2912 4.75 15.856H7H9.25C9.25 16.7765 8.50381 17.5227 7.58333 17.5227V15.2727ZM7.58333 11.4544V13.7044H17.2348V11.4544V9.2044H7.58333V11.4544ZM17.8182 12.0377H15.5682V12.1438H17.8182H20.0682V12.0377H17.8182ZM17.2348 12.7271V10.4771H7.58333V12.7271V14.9771H17.2348V12.7271ZM7 12.1438H9.25V12.0377H7H4.75V12.1438H7ZM7.58333 12.7271V10.4771C8.50381 10.4771 9.25 11.2233 9.25 12.1438H7H4.75C4.75 13.7086 6.01853 14.9771 7.58333 14.9771V12.7271ZM17.8182 12.1438H15.5682C15.5682 11.2233 16.3144 10.4771 17.2348 10.4771V12.7271V14.9771C18.7997 14.9771 20.0682 13.7086 20.0682 12.1438H17.8182ZM17.2348 11.4544V13.7044C16.3144 13.7044 15.5682 12.9582 15.5682 12.0377H17.8182H20.0682C20.0682 10.4729 18.7997 9.2044 17.2348 9.2044V11.4544ZM7.58333 11.4544V9.2044C6.01853 9.2044 4.75 10.4729 4.75 12.0377H7H9.25C9.25 12.9582 8.50381 13.7044 7.58333 13.7044V11.4544ZM7.58333 19.0908V21.3408H17.2348V19.0908V16.8408H7.58333V19.0908ZM17.8182 19.6741H15.5682V19.7802H17.8182H20.0682V19.6741H17.8182ZM17.2348 20.3635V18.1135H7.58333V20.3635V22.6135H17.2348V20.3635ZM7 19.7802H9.25V19.6741H7H4.75V19.7802H7ZM7.58333 20.3635V18.1135C8.50381 18.1135 9.25 18.8597 9.25 19.7802H7H4.75C4.75 21.345 6.01853 22.6135 7.58333 22.6135V20.3635ZM17.8182 19.7802H15.5682C15.5682 18.8597 16.3144 18.1135 17.2348 18.1135V20.3635V22.6135C18.7997 22.6135 20.0682 21.345 20.0682 19.7802H17.8182ZM17.2348 19.0908V21.3408C16.3144 21.3408 15.5682 20.5946 15.5682 19.6741H17.8182H20.0682C20.0682 18.1093 18.7997 16.8408 17.2348 16.8408V19.0908ZM7.58333 19.0908V16.8408C6.01853 16.8408 4.75 18.1093 4.75 19.6741H7H9.25C9.25 20.5946 8.50381 21.3408 7.58333 21.3408V19.0908Z" fill="#39489E" mask="url(#path-3-inside-1_145_519)"/>
</svg>
