<svg width="29" height="33" viewBox="0 0 29 33" fill="none" xmlns="http://www.w3.org/2000/svg">
<path d="M1 20.4355C1 18.9333 2.21776 17.7155 3.71994 17.7155H26.2801C27.7822 17.7155 29 18.9333 29 20.4355V28.5953C29 30.0974 27.7822 31.3152 26.2801 31.3152H3.71994C2.21776 31.3152 1 30.0974 1 28.5953V20.4355Z" fill="#3C53DC"/>
<path d="M2.39995 20.4355C2.39995 19.6844 3.00883 19.0755 3.75992 19.0755H26.24C26.9911 19.0755 27.6 19.6844 27.6 20.4355V28.5953C27.6 29.3464 26.9911 29.9553 26.24 29.9553H3.75992C3.00883 29.9553 2.39995 29.3464 2.39995 28.5953V20.4355Z" fill="white"/>
<path d="M6.28674 27.6314H5.64011V21.166H6.28674V27.6314Z" fill="#CBD2F6"/>
<path d="M24.8041 14.3063V3.50067C24.8041 3.22783 24.5829 3.00664 24.3101 3.00664H5.13417C4.86132 3.00664 4.64014 3.22783 4.64014 3.50067V14.3063C4.64014 14.5792 4.86132 14.8003 5.13417 14.8003H10.5367C11.5852 14.8003 12.8257 15.4694 13.6861 16.034C14.31 16.4436 15.1597 16.4288 15.8018 16.0483C16.7597 15.4807 18.3212 14.8003 20.3026 14.8003H24.3105C24.5833 14.8003 24.8041 14.5792 24.8041 14.3063Z" fill="#6174E3"/>
<path fill-rule="evenodd" clip-rule="evenodd" d="M11.209 1.14865H6.24343V12.7859H10.7561C12.9587 12.7859 14.7496 14.5151 14.7496 14.5151C14.7496 14.5151 15.9481 12.7859 19.2417 12.7859H23.0293V1.14865H20.7228C17.4528 1.14867 15.5958 1.14865 14.7496 2.7131C14.3379 1.78678 12.5264 1.14865 11.209 1.14865Z" fill="white"/>
<path d="M23.0293 1.14865V12.7859H19.2417C15.9481 12.7859 14.7496 14.5151 14.7496 14.5151C14.7496 14.5151 12.9587 12.7859 10.7561 12.7859H6.24343V1.14865V13.4203C6.24343 13.4203 8.79942 13.4203 10.7561 13.4203C12.2711 13.4203 13.5784 14.3782 14.2558 14.9864C14.5165 15.2205 14.9564 15.1985 15.2091 14.9557C15.8431 14.3465 17.1509 13.4203 19.2417 13.4203C21.5632 13.4203 23.0293 13.4203 23.0293 13.4203V1.14865Z" fill="#BFC8F4"/>
<path d="M11.4138 3.35376H8.1724C7.95877 3.35376 7.78558 3.52695 7.78558 3.74059C7.78558 3.95422 7.95877 4.12741 8.1724 4.12741H11.4138C12.0087 4.12741 12.765 4.26663 13.2348 4.48982C13.367 4.55265 13.6225 4.43617 13.6225 4.28975C13.6225 4.11083 13.5466 3.93686 13.3936 3.84417C12.893 3.54105 12.1166 3.35376 11.4138 3.35376Z" fill="#727EC7"/>
<path d="M11.4138 4.96341H8.1724C7.95877 4.96341 7.78558 5.13659 7.78558 5.35023C7.78558 5.56387 7.95877 5.73705 8.1724 5.73705H11.4138C12.0087 5.73705 12.765 5.87628 13.2348 6.09946C13.367 6.16229 13.6225 6.04582 13.6225 5.8994C13.6225 5.72047 13.5466 5.5465 13.3936 5.45382C12.893 5.15069 12.1166 4.96341 11.4138 4.96341Z" fill="#727EC7"/>
<path d="M11.4138 6.57305H8.1724C7.95877 6.57305 7.78558 6.74624 7.78558 6.95987C7.78558 7.17351 7.95877 7.34669 8.1724 7.34669H11.4138C12.0087 7.34669 12.765 7.48592 13.2348 7.7091C13.367 7.77194 13.6225 7.65546 13.6225 7.50904C13.6225 7.33012 13.5466 7.15614 13.3936 7.06346C12.893 6.76034 12.1166 6.57305 11.4138 6.57305Z" fill="#727EC7"/>
<path d="M11.4138 8.18269H8.1724C7.95877 8.18269 7.78558 8.35588 7.78558 8.56951C7.78558 8.78315 7.95877 8.95634 8.1724 8.95634H11.4138C12.0087 8.95634 12.765 9.09556 13.2348 9.31875C13.367 9.38158 13.6225 9.2651 13.6225 9.11868C13.6225 8.93976 13.5466 8.76578 13.3936 8.6731C12.893 8.36998 12.1166 8.18269 11.4138 8.18269Z" fill="#727EC7"/>
<path d="M11.4138 9.79233H8.1724C7.95877 9.79233 7.78558 9.96552 7.78558 10.1792C7.78558 10.3928 7.95877 10.566 8.1724 10.566H11.4138C12.0087 10.566 12.765 10.7052 13.2348 10.9284C13.367 10.9912 13.6225 10.8747 13.6225 10.7283C13.6225 10.5494 13.5466 10.3754 13.3936 10.2827C12.893 9.97962 12.1166 9.79233 11.4138 9.79233Z" fill="#727EC7"/>
<path d="M17.9537 3.35376H21.1952C21.4088 3.35376 21.582 3.52695 21.582 3.74059C21.582 3.95422 21.4088 4.12741 21.1952 4.12741H17.9537C17.3589 4.12741 16.6026 4.26663 16.1328 4.48982C16.0005 4.55265 15.7451 4.43617 15.7451 4.28975C15.7451 4.11083 15.8209 3.93686 15.974 3.84417C16.4745 3.54105 17.251 3.35376 17.9537 3.35376Z" fill="#727EC7"/>
<path d="M17.9537 4.96341H21.1952C21.4088 4.96341 21.582 5.13659 21.582 5.35023C21.582 5.56387 21.4088 5.73705 21.1952 5.73705H17.9537C17.3589 5.73705 16.6026 5.87628 16.1328 6.09946C16.0005 6.16229 15.7451 6.04582 15.7451 5.8994C15.7451 5.72047 15.8209 5.5465 15.974 5.45382C16.4745 5.15069 17.251 4.96341 17.9537 4.96341Z" fill="#727EC7"/>
<path d="M17.9537 6.57305H21.1952C21.4088 6.57305 21.582 6.74624 21.582 6.95987C21.582 7.17351 21.4088 7.34669 21.1952 7.34669H17.9537C17.3589 7.34669 16.6026 7.48592 16.1328 7.7091C16.0005 7.77194 15.7451 7.65546 15.7451 7.50904C15.7451 7.33012 15.8209 7.15614 15.974 7.06346C16.4745 6.76034 17.251 6.57305 17.9537 6.57305Z" fill="#727EC7"/>
<path d="M17.9537 8.18269H21.1952C21.4088 8.18269 21.582 8.35588 21.582 8.56951C21.582 8.78315 21.4088 8.95634 21.1952 8.95634H17.9537C17.3589 8.95634 16.6026 9.09556 16.1328 9.31875C16.0005 9.38158 15.7451 9.2651 15.7451 9.11868C15.7451 8.93976 15.8209 8.76578 15.974 8.6731C16.4745 8.36998 17.251 8.18269 17.9537 8.18269Z" fill="#727EC7"/>
<path d="M17.9537 9.79233H21.1952C21.4088 9.79233 21.582 9.96552 21.582 10.1792C21.582 10.3928 21.4088 10.566 21.1952 10.566H17.9537C17.3589 10.566 16.6026 10.7052 16.1328 10.9284C16.0005 10.9912 15.7451 10.8747 15.7451 10.7283C15.7451 10.5494 15.8209 10.3754 15.974 10.2827C16.4745 9.97962 17.251 9.79233 17.9537 9.79233Z" fill="#727EC7"/>
</svg>
