<svg width="13" height="13" viewBox="0 0 13 13" fill="none" xmlns="http://www.w3.org/2000/svg">
<path d="M8.0534 3.08086C7.89955 3.23472 7.81305 3.44383 7.81305 3.66142C7.81313 3.87889 7.89962 4.08726 8.0534 4.24105C8.20722 4.39481 8.41551 4.48138 8.63301 4.4814H11.4923C11.7097 4.4813 11.9181 4.39481 12.0719 4.24105C12.2256 4.08727 12.3121 3.87887 12.3122 3.66142V0.821514C12.3122 0.603927 12.2257 0.39482 12.0719 0.240961C11.9181 0.087265 11.7096 0.00071195 11.4923 0.000605048C11.2747 0.000605048 11.0656 0.0871335 10.9117 0.240961C10.7579 0.39482 10.6714 0.603927 10.6714 0.821514V1.5167C9.63836 0.651946 8.35978 0.126207 7.00972 0.0200184C5.51683 -0.0973908 4.02897 0.30423 2.79804 1.15709C1.56723 2.00993 0.66858 3.26159 0.254024 4.7005C-0.160537 6.1395 -0.0654796 7.6776 0.523032 9.05464C1.11153 10.4316 2.1575 11.563 3.48397 12.2579C4.8105 12.9527 6.33672 13.1683 7.80381 12.868C9.27063 12.5677 10.5889 11.7704 11.5357 10.6105C12.4825 9.4504 12.9997 7.99876 13 6.50132C13 6.28373 12.9135 6.07463 12.7596 5.92077C12.6059 5.76708 12.3974 5.68049 12.18 5.68041C11.9625 5.68041 11.7534 5.76691 11.5995 5.92077C11.4456 6.07463 11.3591 6.28466 11.3591 6.50224C11.3664 7.64023 10.977 8.74538 10.2572 9.62688C9.53754 10.5083 8.5328 11.111 7.41647 11.3316C6.30005 11.5521 5.14112 11.3768 4.14031 10.8351C3.13961 10.2935 2.35966 9.41924 1.9337 8.36408C1.50781 7.30892 1.46282 6.13818 1.80706 5.05364C2.15139 3.96912 2.86304 3.03803 3.81953 2.42173C4.77621 1.80544 5.91858 1.54175 7.04855 1.67663C8.02425 1.79314 8.9382 2.20087 9.67484 2.84051H8.63301C8.41559 2.84053 8.20721 2.92719 8.0534 3.08086Z" fill="#506DFF"/>
</svg>
