<svg width="26" height="28" viewBox="0 0 26 28" fill="none" xmlns="http://www.w3.org/2000/svg">
<path d="M3.42943 27.8208C2.76142 27.8904 2.09458 27.9492 1.42796 27.9984C0.928381 28.0276 0.496936 27.6488 0.463001 27.15C0.413972 26.4858 0.377253 25.8188 0.347379 25.1532C0.336846 24.8018 0.313769 24.5283 0.317658 24.1114C0.327844 23.1407 0.635693 22.1971 1.20039 21.4068C1.76409 20.6156 2.55676 20.0172 3.47253 19.6908L3.47165 19.6918L3.49655 19.69C3.58379 19.6585 3.7289 19.7979 3.80918 20.0114L8.00937 23.6444C8.23304 23.7001 8.39664 23.816 8.38434 23.9102C8.09833 25.4526 7.05889 26.7504 5.61458 27.3661C5.24792 27.5259 4.86228 27.6371 4.46802 27.697C4.05199 27.7749 3.77997 27.795 3.42943 27.8208Z" fill="#FF3D00"/>
<path d="M5.51722 24.02C6.16558 23.8276 6.69602 23.3601 6.96817 22.7418L4.80897 20.8566C4.23193 21.2167 3.84318 21.8121 3.74659 22.4851L3.73327 22.9577L3.79282 23.5139C3.81877 23.7287 3.83444 23.9409 3.85035 24.1565C4.06335 24.1492 4.27741 24.1334 4.49147 24.1176L5.05303 24.1019C5.21038 24.0925 5.36584 24.0648 5.51722 24.02Z" fill="#FEEB46"/>
<path d="M5.00848 16.3597L11.4595 21.9238L9.77588 23.8758C9.38874 24.3246 8.71103 24.3746 8.26217 23.9875L3.43661 19.8254C2.98776 19.4383 2.93773 18.7606 3.32487 18.3117L5.00848 16.3597Z" fill="#7E57C2"/>
<path d="M18.3926 16.2992L18.9011 23.1884C18.9255 23.5187 18.796 23.8418 18.5503 24.0638L16.3215 26.0775C15.852 26.5016 15.1194 26.4297 14.7414 25.9224L12.2291 22.5511L18.3926 16.2992Z" fill="#7E57C2"/>
<path d="M9.54825 8.67091L2.65901 9.17948C2.32871 9.20386 2.02817 9.37937 1.84463 9.65507L0.180082 12.1554C-0.170524 12.682 0.0081695 13.3961 0.565492 13.6956L4.2692 15.6856L9.54825 8.67091Z" fill="#7E57C2"/>
<path d="M13.2964 3.24557C15.6216 1.84351 18.963 0.78164 21.5455 0.10133C23.5181 -0.41833 25.334 1.13019 25.1214 3.15899C24.8426 5.82033 24.287 9.28879 23.189 11.778C21.2844 16.0961 13.7985 21.4826 11.5071 23.0596C11.1125 23.3311 10.5869 23.2972 10.2242 22.9843L4.14509 17.741C3.77767 17.4241 3.66839 16.9021 3.88719 16.469C5.1789 13.9123 9.65312 5.4424 13.2964 3.24557Z" fill="#D0C2E9"/>
<path d="M21.5181 0.119562C23.4907 -0.400098 25.3067 1.14842 25.0941 3.17722C25.0089 3.9909 24.8978 4.88002 24.7532 5.79354L19.0119 0.841641C19.8841 0.566706 20.7359 0.32563 21.5181 0.119562Z" fill="#7E57C2"/>
<path d="M19.0867 10.1029C19.2198 11.9057 17.8662 13.4751 16.0633 13.6082C14.2604 13.7413 12.6911 12.3877 12.558 10.5848C12.4249 8.78198 13.7785 7.21259 15.5813 7.0795C17.3842 6.94641 18.9536 8.30003 19.0867 10.1029Z" fill="#39489E"/>
</svg>
