<svg width="27" height="27" viewBox="0 0 27 27" fill="none" xmlns="http://www.w3.org/2000/svg">
<path d="M2.73828 26.972C2.10637 26.991 1.47628 27 0.847078 27C0.376076 26.9928 -0.00269761 26.6071 1.44737e-05 26.1362C1.44515e-05 25.509 0.0117678 24.88 0.0298481 24.2528C0.0443123 23.9221 0.0416024 23.6636 0.0741458 23.2723C0.15098 22.3612 0.505365 21.4964 1.09025 20.7932C1.67426 20.0892 2.45984 19.5822 3.34216 19.3391L3.34126 19.34H3.36476C3.44884 19.3165 3.5754 19.4575 3.63597 19.6635L7.32718 23.367C7.53329 23.4348 7.67884 23.555 7.66076 23.6426C7.28538 25.0714 6.21965 26.2183 4.82114 26.6963C4.46585 26.8211 4.09612 26.8988 3.72185 26.9277C3.3259 26.972 3.06916 26.972 2.73828 26.972Z" fill="#FF3D00"/>
<path d="M4.96162 23.5469C5.5836 23.4112 6.11396 23.0088 6.41228 22.447L4.51597 20.5267C3.94931 20.8249 3.54311 21.3572 3.40578 21.9826L3.36054 22.4255L3.3779 22.952C3.38737 23.1556 3.38737 23.356 3.38737 23.5595C3.58784 23.5674 3.78988 23.5674 3.99192 23.5674L4.52018 23.5916C4.66855 23.5937 4.8164 23.5785 4.96162 23.5469Z" fill="#FEEB46"/>
<path d="M5.01489 16.317L10.6853 21.9901L8.96947 23.7067C8.57493 24.1014 7.93526 24.1014 7.54072 23.7067L3.29911 19.463C2.90457 19.0683 2.90457 18.4283 3.29911 18.0336L5.01489 16.317Z" fill="#7E57C2"/>
<path d="M17.5835 17.1881V23.6939C17.5835 24.0058 17.4396 24.3002 17.1935 24.4917L14.9616 26.2284C14.4915 26.5943 13.8088 26.4759 13.489 25.9732L11.3642 22.6326L17.5835 17.1881Z" fill="#7E57C2"/>
<path d="M9.80943 9.41025H3.30686C2.9951 9.41025 2.7008 9.55426 2.50939 9.80047L0.77351 12.0334C0.407879 12.5037 0.526142 13.1868 1.02858 13.5067L4.36757 15.6326L9.80943 9.41025Z" fill="#7E57C2"/>
<path d="M15.8472 2.4304C18.1272 1.27478 21.3375 0.509125 23.809 0.0492144C25.6968 -0.302092 27.2942 1.27821 26.954 3.16895C26.5079 5.6492 25.7459 8.86831 24.5427 11.1301C22.6028 14.7767 15.1942 20.7145 12.0881 23.1065C11.2966 23.7161 10.183 23.6318 9.47669 22.9251L4.08541 17.5312C3.37467 16.8201 3.29306 15.6988 3.91062 14.9053C6.37595 11.7379 12.5229 4.11532 15.8472 2.4304Z" fill="#D0C2E9"/>
<path d="M23.782 0.0644138C25.6698 -0.286892 27.2672 1.29341 26.9271 3.18415C26.7907 3.94246 26.6248 4.76984 26.4257 5.6178L21.3792 0.568836C22.217 0.371083 23.0334 0.203722 23.782 0.0644138Z" fill="#7E57C2"/>
<path d="M20.8076 9.27234C20.8076 10.9748 19.4281 12.355 17.7265 12.355C16.0248 12.355 14.6453 10.9748 14.6453 9.27234C14.6453 7.56983 16.0248 6.18968 17.7265 6.18968C19.4281 6.18968 20.8076 7.56984 20.8076 9.27234Z" fill="#39489E"/>
</svg>
