<svg width="29" height="29" viewBox="0 0 29 29" fill="none" xmlns="http://www.w3.org/2000/svg">
<path d="M6.1871 24.9404C5.4833 24.9616 4.78154 24.9716 4.08076 24.9716C3.55617 24.9636 3.13431 24.5349 3.13733 24.0103V24.0093C3.13733 23.3106 3.15042 22.6098 3.17056 21.9111C3.18667 21.5425 3.18365 21.2546 3.2199 20.8186C3.30547 19.8037 3.70017 18.8401 4.35159 18.0568C5.00204 17.2724 5.87699 16.7076 6.85968 16.4367L6.85867 16.4377H6.88485C6.97849 16.4116 7.11945 16.5686 7.18691 16.7982L11.298 20.9241C11.5276 20.9997 11.6897 21.1336 11.6695 21.2312C11.2515 22.823 10.0645 24.1007 8.5069 24.6333C8.11119 24.7723 7.6994 24.8589 7.28256 24.8911C6.84157 24.9404 6.55561 24.9404 6.1871 24.9404Z" fill="#FF3D00"/>
<path d="M8.66336 21.1246C9.3561 20.9734 9.94679 20.5251 10.2791 19.8993L8.16701 17.7598C7.53589 18.092 7.08348 18.6851 6.93054 19.3818L6.88014 19.8752L6.89948 20.4618C6.91003 20.6886 6.91003 20.9119 6.91003 21.1387C7.1333 21.1475 7.35833 21.1475 7.58335 21.1475L8.17171 21.1744C8.33695 21.1768 8.50163 21.1598 8.66336 21.1246Z" fill="#FEEB46"/>
<path d="M1.40878 15.1152L2.47844 15.2628C3.65435 15.4139 4.83854 15.5225 6.0298 15.6098L6.20321 14.3914L7.33072 11.7042C7.78173 10.6191 8.32955 9.5766 8.96592 8.58842C8.98127 8.56953 8.99543 8.54827 9.00842 8.5282L9.47346 7.87566C9.47346 7.62773 9.40144 7.43173 9.3188 7.41287H9.29518C8.54311 7.283 7.77807 7.23695 7.01654 7.27355C4.53011 7.46481 2.29037 8.84497 1.0013 10.9797C0.490279 11.8487 0.181645 12.454 0.00012207 13.7707C0.000458666 14.7144 0.604842 14.9199 1.40878 15.1152Z" fill="#7E57C2"/>
<path d="M12.4383 22.0113C12.5233 23.2202 12.6343 24.4056 12.789 25.5898L13.0282 27.2627C13.1221 27.7537 13.4107 28.2119 14.2695 28.0774L14.7984 27.9806H14.7996C15.6142 27.8 16.3958 27.4942 17.1172 27.0739C19.2553 25.7764 20.6332 23.5237 20.8136 21.029C20.849 20.2663 20.8006 19.5025 20.6684 18.7504C20.6684 18.6689 20.4594 18.6087 20.215 18.5957L19.5197 19.1032C18.5279 19.7431 17.4806 20.2933 16.3921 20.7479L13.6863 21.8849L12.4383 22.0113Z" fill="#7E57C2"/>
<path d="M5.80287 15.6097H5.80405C5.85718 15.7419 5.9351 15.8635 6.03428 15.9662L12.0791 22.0111C12.1818 22.1103 12.3046 22.187 12.438 22.2378C12.7252 22.4191 13.3897 22.2291 13.6861 22.1114L16.3918 20.9744C17.4804 20.5198 18.5276 19.9697 19.5195 19.3298L19.5561 19.3061L20.2148 18.8222C21.9055 17.6215 23.3847 16.1493 24.5949 14.4645C25.9479 12.5483 26.9278 10.396 27.4839 8.1174C27.759 6.98752 27.9254 5.83286 27.9798 4.67122C28.0069 4.06674 28.0069 3.5437 27.9798 2.90972C27.9526 2.27452 27.872 1.49511 27.8227 0.962851C27.7162 0.475044 27.5745 0.390038 27.0069 0.276923C26.3847 0.207265 25.7259 0.152955 25.073 0.129343C24.4201 0.105731 23.9124 0.111634 23.3292 0.129343H23.328C22.1722 0.184832 21.0246 0.348941 19.9006 0.621667C15.5912 1.67716 11.8086 4.25342 9.24653 7.8755L8.78149 8.52804C8.7685 8.54811 8.75434 8.56936 8.73899 8.58825C7.57131 10.4015 6.80696 12.4115 5.97628 14.3912C5.80295 14.9473 5.74378 15.3244 5.80287 15.6097Z" fill="#D1C2E9"/>
<path d="M27.9798 2.90972C28.0069 3.5437 28.0069 4.06674 27.9798 4.67122C27.9798 4.67122 26.6742 4.22009 25.0733 2.73682C23.6315 1.40088 23.3292 0.129343 23.3292 0.129343C23.9124 0.111634 24.4201 0.105731 25.073 0.129343C25.7259 0.152955 26.3847 0.207265 27.0069 0.276923C27.5745 0.390038 27.7162 0.475044 27.8227 0.962851C27.872 1.49511 27.9526 2.27452 27.9798 2.90972Z" fill="#7E57C2"/>
<path d="M21.2064 10.3145C21.2064 12.0672 19.7856 13.488 18.0329 13.488C16.2802 13.488 14.8593 12.0672 14.8593 10.3145C14.8593 8.56175 16.2802 7.1409 18.0329 7.1409C19.7856 7.1409 21.2064 8.56175 21.2064 10.3145Z" fill="#5234DA"/>
<path d="M14.1788 15.1882C14.1788 15.8768 13.6206 16.435 12.932 16.435C12.2435 16.435 11.6853 15.8768 11.6853 15.1882C11.6853 14.4997 12.2435 13.9415 12.932 13.9415C13.6206 13.9415 14.1788 14.4997 14.1788 15.1882Z" fill="#5234DA"/>
</svg>
