<svg width="20" height="24" viewBox="0 0 20 24" fill="none" xmlns="http://www.w3.org/2000/svg">
<rect x="8.08398" y="2.55859" width="3.01046" height="1.91903" fill="#7781BD"/>
<ellipse cx="9.59533" cy="13.433" rx="9.59533" ry="9.59513" fill="#5067FF"/>
<ellipse cx="9.59321" cy="13.4329" rx="7.03657" ry="7.03643" fill="#F3F5FF"/>
<rect x="6.39453" width="6.39688" height="2.55859" rx="0.857918" fill="#5067FF"/>
<path fill-rule="evenodd" clip-rule="evenodd" d="M9.12527 11.989C8.90031 12.0618 8.69187 12.1776 8.51324 12.3562C8.3346 12.5349 8.21879 12.7433 8.14601 12.9683C8.14601 12.9683 8.09412 13.1254 8.08643 13.3793C8.07831 13.6478 8.14602 13.9012 8.14602 13.9012C8.21881 14.1262 8.33462 14.3346 8.51326 14.5133C9.10876 15.1088 10.0748 15.1088 10.6703 14.5133C11.2658 13.9178 11.2658 12.9518 10.6703 12.3562C10.4949 12.1809 10.2832 12.0618 10.0582 11.989L10.0582 8.19765C10.0582 8.06531 10.0053 7.95283 9.91925 7.86681C9.83323 7.78078 9.71744 7.73116 9.58841 7.72785C9.33036 7.72785 9.12192 7.93628 9.12194 8.19431L9.12198 11.9857L9.12527 11.989ZM10.0053 13.8549L10.0086 13.8516L10.002 13.8583L10.0053 13.8549C9.77345 14.0832 9.4021 14.0788 9.1749 13.8516C9.06242 13.7391 9.00618 13.5903 9.00286 13.4414L9.00617 13.4381C9.00948 13.4348 9.00617 13.4381 9.00286 13.4348C9.00617 13.2859 9.06241 13.137 9.17489 13.0245C9.28737 12.912 9.43624 12.8558 9.58512 12.8525L9.58843 12.8558C9.59174 12.8591 9.58843 12.8558 9.59174 12.8525C9.74062 12.8558 9.88949 12.9121 10.002 13.0245C10.2325 13.255 10.2303 13.6264 10.0053 13.8549Z" fill="#0A1C8B" fill-opacity="0.68"/>
</svg>
