<svg width="17" height="17" viewBox="0 0 17 17" fill="none" xmlns="http://www.w3.org/2000/svg">
<path d="M2.68359 4.05884H4.03654H14.8601" stroke="#FF4747" stroke-width="1.5" stroke-linecap="round" stroke-linejoin="round"/>
<path d="M6.06603 4.05879V2.70585C6.06603 2.34702 6.20858 2.0029 6.4623 1.74917C6.71603 1.49545 7.06015 1.35291 7.41897 1.35291H10.1249C10.4837 1.35291 10.8278 1.49545 11.0815 1.74917C11.3353 2.0029 11.4778 2.34702 11.4778 2.70585V4.05879M13.5072 4.05879V13.5294C13.5072 13.8882 13.3647 14.2323 13.1109 14.4861C12.8572 14.7398 12.5131 14.8823 12.1543 14.8823H5.38956C5.03074 14.8823 4.68661 14.7398 4.43289 14.4861C4.17916 14.2323 4.03662 13.8882 4.03662 13.5294V4.05879H13.5072Z" stroke="#FF4747" stroke-width="1.5" stroke-linecap="round" stroke-linejoin="round"/>
<path d="M10.125 7.44116V11.5" stroke="#FF4747" stroke-width="1.5" stroke-linecap="round" stroke-linejoin="round"/>
<path d="M7.41895 7.44116V11.5" stroke="#FF4747" stroke-width="1.5" stroke-linecap="round" stroke-linejoin="round"/>
</svg>
