<svg width="30" height="30" viewBox="0 0 30 30" fill="none" xmlns="http://www.w3.org/2000/svg">
<path d="M0.847779 10.8408C0.878993 10.5664 1.12672 10.3693 1.40109 10.4005L16.305 12.0961C16.5793 12.1273 16.7764 12.375 16.7452 12.6494L15.954 19.6045C15.9228 19.8789 15.675 20.076 15.4007 20.0448L0.496803 18.3492C0.22243 18.318 0.0253111 18.0703 0.0565252 17.7959L0.847779 10.8408Z" fill="#E1D4F8"/>
<path d="M14.1419 14.5882C14.3208 14.3783 14.6359 14.3531 14.8461 14.5317C15.0564 14.7107 15.0824 15.0267 14.9035 15.2371L13.3423 17.0724C13.2344 17.199 13.0702 17.2634 12.9049 17.2447C12.7396 17.2259 12.5942 17.1261 12.5175 16.9785L11.7501 15.4995L10.671 16.7685C10.5632 16.8949 10.3998 16.9596 10.2347 16.941C10.0694 16.9222 9.92396 16.8223 9.84723 16.6748L9.07981 15.1957L8.00074 16.4647C7.89283 16.5913 7.7287 16.6559 7.56341 16.6371C7.39814 16.6181 7.25261 16.5185 7.17598 16.3709L6.40953 14.8919L5.33046 16.1609C5.22255 16.2875 5.05846 16.3521 4.89314 16.3333C4.72783 16.3144 4.58237 16.2147 4.50571 16.0671L3.73926 14.5881L2.66019 15.8571C2.48122 16.0672 2.1652 16.0924 1.95496 15.9135C1.74488 15.7345 1.71972 15.4185 1.89857 15.2083L3.45978 13.373L3.50314 13.3288C3.60904 13.2318 3.75244 13.1842 3.89711 13.2006C4.06244 13.2194 4.20783 13.3192 4.28454 13.4668L5.0511 14.9448L6.13006 13.6768L6.17342 13.6326C6.27929 13.5356 6.42274 13.488 6.56738 13.5044C6.73269 13.5232 6.8781 13.623 6.95482 13.7706L7.72138 15.2486L8.80033 13.9806L8.84369 13.9363C8.94953 13.8393 9.09303 13.7918 9.23766 13.8082C9.40293 13.827 9.54836 13.9268 9.62509 14.0744L10.3915 15.5533L11.4716 14.2844L11.514 14.2401C11.6199 14.143 11.7641 14.0956 11.9089 14.1121C12.0742 14.131 12.2197 14.2306 12.2963 14.3783L13.0629 15.8562L14.1419 14.5882Z" fill="#8E5DE1"/>
<path d="M12.1518 2.87927C12.113 2.60586 12.3032 2.35281 12.5767 2.31407L27.4283 0.209574C27.7017 0.170831 27.9548 0.361067 27.9935 0.634478L28.9756 7.56524C29.0143 7.83865 28.8241 8.0917 28.5507 8.13045L13.6991 10.2349C13.4256 10.2737 13.1726 10.0834 13.1339 9.81003L12.1518 2.87927Z" fill="#E1D4F8"/>
<path d="M25.9609 3.1654C26.0813 2.91725 26.38 2.81364 26.6284 2.93372C26.8769 3.05405 26.9815 3.35346 26.8611 3.60201L25.8113 5.77076C25.7387 5.92047 25.596 6.02406 25.4313 6.04751C25.2666 6.07085 25.1008 6.01078 24.9894 5.88722L23.8749 4.64851L23.1494 6.14795C23.0768 6.29739 22.9349 6.40109 22.7704 6.42456C22.6057 6.4479 22.4398 6.38779 22.3285 6.26427L21.214 5.02557L20.4885 6.525C20.4158 6.67464 20.2732 6.77841 20.1085 6.80175C19.9438 6.82498 19.7779 6.76513 19.6666 6.64146L18.5531 5.40262L17.8276 6.90206C17.7549 7.05174 17.6123 7.15546 17.4476 7.17881C17.2828 7.2021 17.117 7.14218 17.0057 7.01852L15.8922 5.77968L15.1666 7.27911C15.0462 7.52743 14.7467 7.6312 14.4982 7.51093C14.2499 7.3905 14.1461 7.09094 14.2664 6.8425L15.3163 4.67376L15.3471 4.62007C15.4252 4.49959 15.5521 4.41746 15.6962 4.39701C15.861 4.37366 16.0268 4.43367 16.1381 4.5573L17.2515 5.79517L17.9772 4.2967L18.008 4.24301C18.0861 4.12253 18.213 4.04045 18.3571 4.01995C18.5219 3.99661 18.6877 4.05666 18.799 4.18024L19.9124 5.41811L20.6381 3.91965L20.669 3.86596C20.747 3.74547 20.874 3.66344 21.0181 3.6429C21.1828 3.61956 21.3486 3.67965 21.46 3.80319L22.5735 5.04203L23.3 3.54246L23.3299 3.4889C23.408 3.36825 23.5357 3.28615 23.68 3.26571C23.8447 3.2425 24.0106 3.30233 24.1219 3.426L25.2352 4.66387L25.9609 3.1654Z" fill="#8E5DE1"/>
<path d="M13.0762 22.1248C13.0657 21.8489 13.2809 21.6167 13.5569 21.6062L28.5461 21.0373C28.822 21.0268 29.0542 21.242 29.0647 21.518L29.3302 28.5129C29.3407 28.7889 29.1255 29.021 28.8495 29.0315L13.8603 29.6005C13.5844 29.6109 13.3522 29.3957 13.3417 29.1198L13.0762 22.1248Z" fill="#E1D4F8"/>
<path d="M26.7831 23.8269C26.9284 23.5924 27.2361 23.52 27.4708 23.6649C27.7057 23.8101 27.779 24.1187 27.6338 24.3536L26.3668 26.4031C26.2793 26.5446 26.1267 26.633 25.9605 26.6394C25.7942 26.6457 25.6354 26.5689 25.5374 26.4346L24.5559 25.088L23.6803 26.5051C23.5928 26.6463 23.4409 26.7349 23.2749 26.7413C23.1087 26.7476 22.9499 26.6708 22.8518 26.5365L21.8703 25.19L20.9947 26.607C20.9071 26.7484 20.7546 26.837 20.5884 26.8433C20.4221 26.8495 20.2633 26.7729 20.1653 26.6385L19.1848 25.2919L18.3092 26.7089C18.2216 26.8504 18.0691 26.9389 17.9028 26.9452C17.7365 26.9515 17.5777 26.8749 17.4797 26.7404L16.4992 25.3938L15.6236 26.8109C15.4783 27.0455 15.1697 27.118 14.9349 26.9729C14.7003 26.8276 14.6278 26.519 14.7729 26.2842L16.0399 24.2346L16.0761 24.1844C16.1662 24.0726 16.3007 24.0039 16.4462 23.9984C16.6125 23.9921 16.7713 24.0688 16.8693 24.2032L17.8498 25.5488L18.7254 24.1327L18.7616 24.0825C18.8517 23.9706 18.9863 23.902 19.1318 23.8964C19.2981 23.8901 19.4568 23.9669 19.5549 24.1012L20.5354 25.4468L21.411 24.0308L21.4472 23.9805C21.5372 23.8687 21.6719 23.8001 21.8174 23.7945C21.9836 23.7882 22.1424 23.865 22.2405 23.9993L23.221 25.3459L24.0975 23.9288L24.1328 23.8786C24.2229 23.7666 24.3583 23.698 24.5039 23.6925C24.6701 23.6863 24.829 23.7629 24.927 23.8973L25.9075 25.2429L26.7831 23.8269Z" fill="#8E5DE1"/>
<path d="M17.9009 11.7223C17.9009 11.4461 18.1247 11.2223 18.4009 11.2223H27.9009C28.177 11.2223 28.4009 11.4461 28.4009 11.7223V18.7223C28.4009 18.9984 28.177 19.2223 27.9009 19.2223H18.4009C18.1247 19.2223 17.9009 18.9984 17.9009 18.7223V11.7223Z" fill="#E1D4F8"/>
<path d="M26.1518 13.9449C26.3051 13.7153 26.6155 13.6531 26.8452 13.8063C27.0747 13.9595 27.1369 14.27 26.9839 14.4996L25.6499 16.4996C25.5571 16.6386 25.401 16.7223 25.2339 16.7223C25.0668 16.7222 24.9105 16.6386 24.8179 16.4996L23.9009 15.1237L22.9839 16.4996C22.8912 16.6386 22.7349 16.7222 22.5679 16.7223C22.4007 16.7223 22.2446 16.6386 22.1518 16.4996L21.2339 15.1227L20.3169 16.4996C20.1637 16.7294 19.8533 16.7915 19.6235 16.6383C19.3938 16.4851 19.3317 16.1747 19.4848 15.9449L20.8179 13.9449C20.9105 13.8059 21.0668 13.7224 21.2339 13.7223C21.401 13.7223 21.5571 13.8059 21.6499 13.9449L22.5669 15.3209L23.4848 13.9449L23.5229 13.8951C23.6172 13.7862 23.7548 13.7223 23.9009 13.7223C24.068 13.7223 24.2241 13.8058 24.3169 13.9449L25.2339 15.3209L26.1518 13.9449Z" fill="#8E5DE1"/>
<path d="M0.949198 21.5174C0.932658 21.2418 1.14271 21.0049 1.41835 20.9884L10.9013 20.4194C11.1769 20.4028 11.4138 20.6129 11.4303 20.8885L11.8496 27.876C11.8661 28.1516 11.6561 28.3885 11.3805 28.405L1.89751 28.974C1.62186 28.9905 1.385 28.7805 1.36846 28.5048L0.949198 21.5174Z" fill="#E1D4F8"/>
<path d="M9.31846 23.2419C9.45764 23.0035 9.76379 22.9229 10.0023 23.062C10.2406 23.2011 10.3212 23.5073 10.1822 23.7458L8.97042 25.8221C8.88617 25.9664 8.7353 26.0592 8.56849 26.0693C8.40173 26.0792 8.24072 26.0051 8.13988 25.8719L7.14212 24.5533L6.30919 25.9818C6.22501 26.1261 6.07401 26.2188 5.90726 26.2289C5.74044 26.2389 5.57956 26.1648 5.47865 26.0316L4.47986 24.7121L3.64699 26.1415C3.50785 26.38 3.2017 26.4606 2.96318 26.3215C2.72465 26.1823 2.64409 25.8762 2.78323 25.6376L3.99405 23.5614C4.07823 23.4171 4.22924 23.3243 4.39598 23.3142C4.5628 23.3042 4.72368 23.3784 4.82459 23.5116L5.82235 24.8301L6.65626 23.4017L6.69129 23.3497C6.77888 23.2353 6.91235 23.1632 7.05819 23.1545C7.22507 23.1445 7.3859 23.2185 7.48679 23.3518L8.48455 24.6704L9.31846 23.2419Z" fill="#8E5DE1"/>
<path d="M0.44812 1.72223C0.44812 1.44609 0.671978 1.22223 0.94812 1.22223H10.4481C10.7243 1.22223 10.9481 1.44609 10.9481 1.72223V8.72223C10.9481 8.99837 10.7243 9.22223 10.4481 9.22223H0.94812C0.671978 9.22223 0.44812 8.99837 0.44812 8.72223V1.72223Z" fill="#E1D4F8"/>
<path d="M8.69908 3.94489C8.85229 3.71524 9.16273 3.65307 9.39244 3.80621C9.62197 3.95941 9.68411 4.2699 9.53111 4.49957L8.19713 6.49957C8.10438 6.63858 7.94823 6.72223 7.78111 6.72223C7.61406 6.72212 7.45777 6.63858 7.3651 6.49957L6.4481 5.1236L5.53111 6.49957C5.43844 6.63858 5.28215 6.72212 5.1151 6.72223C4.94798 6.72223 4.79183 6.63858 4.69908 6.49957L3.78111 5.12262L2.86412 6.49957C2.71094 6.72934 2.40052 6.79142 2.17076 6.63824C1.941 6.48507 1.87891 6.17465 2.03209 5.94489L3.3651 3.94489C3.45777 3.80588 3.61406 3.72234 3.78111 3.72223C3.94823 3.72223 4.10438 3.80588 4.19713 3.94489L5.11412 5.32086L6.03209 3.94489L6.07017 3.89508C6.16446 3.78614 6.302 3.72223 6.4481 3.72223C6.61528 3.72223 6.77139 3.80579 6.86412 3.94489L7.78111 5.32086L8.69908 3.94489Z" fill="#8E5DE1"/>
</svg>
