<?xml version="1.0" encoding="UTF-8" standalone="no"?>
<svg
   xmlns:dc="http://purl.org/dc/elements/1.1/"
   xmlns:cc="http://creativecommons.org/ns#"
   xmlns:rdf="http://www.w3.org/1999/02/22-rdf-syntax-ns#"
   xmlns:svg="http://www.w3.org/2000/svg"
   xmlns="http://www.w3.org/2000/svg"
   viewBox="0 0 281.25 312.20499"
   height="312.20499"
   width="281.25"
   xml:space="preserve"
   version="1.1"
   id="svg2"><metadata
     id="metadata8"><rdf:RDF><cc:Work
         rdf:about=""><dc:format>image/svg+xml</dc:format><dc:type
           rdf:resource="http://purl.org/dc/dcmitype/StillImage" /></cc:Work></rdf:RDF></metadata><defs
     id="defs6"><clipPath
       id="clipPath20"
       clipPathUnits="userSpaceOnUse"><path
         id="path22"
         d="m 0,0 225,0 0,249.764 -225,0 L 0,0 Z" /></clipPath><clipPath
       id="clipPath40"
       clipPathUnits="userSpaceOnUse"><path
         id="path42"
         d="m 0,0 225,0 0,249.764 -225,0 L 0,0 Z" /></clipPath><clipPath
       id="clipPath64"
       clipPathUnits="userSpaceOnUse"><path
         id="path66"
         d="m 0,249.764 225,0 L 225,0 0,0 0,249.764 Z" /></clipPath></defs><g
     transform="matrix(1.25,0,0,-1.25,0,312.205)"
     id="g10"><g
       transform="translate(1.449,45.846)"
       id="g12"><path
         id="path14"
         style="fill:#f5f5f5;fill-opacity:1;fill-rule:nonzero;stroke:none"
         d="M 0,0 166.043,-45.469 220.074,150.89 56.008,198.332 0,0 Z" /></g><g
       id="g16"><g
         clip-path="url(#clipPath20)"
         id="g18"><g
           transform="translate(57.457,244.1777)"
           id="g24"><path
             id="path26"
             style="fill:none;stroke:#100f0d;stroke-width:0.61000001;stroke-linecap:butt;stroke-linejoin:miter;stroke-miterlimit:10;stroke-dasharray:none;stroke-opacity:1"
             d="M 0,0 164.066,-47.441 110.035,-243.801 -56.008,-198.332 0,0 Z" /></g></g></g><g
       transform="translate(64.8442,228.7324)"
       id="g28"><path
         id="path30"
         style="fill:#f5f5f5;fill-opacity:1;fill-rule:nonzero;stroke:none"
         d="M 0,0 -40.489,-142.278 99.195,-183.539 141.894,-40.949 0,0 Z" /></g><g
       transform="translate(64.8442,228.7324)"
       id="g32"><path
         id="path34"
         style="fill:none;stroke:#000000;stroke-width:0.639;stroke-linecap:butt;stroke-linejoin:miter;stroke-miterlimit:4;stroke-dasharray:none;stroke-opacity:1"
         d="M 0,0 -40.489,-142.278 99.195,-183.539 141.894,-40.949 0,0 Z" /></g><g
       id="g36"><g
         clip-path="url(#clipPath40)"
         id="g38"><g
           transform="translate(0.3789,200.7554)"
           id="g44"><path
             id="path46"
             style="fill:none;stroke:#100f0d;stroke-width:0.61000001;stroke-linecap:butt;stroke-linejoin:miter;stroke-miterlimit:10;stroke-dasharray:none;stroke-opacity:1"
             d="M 0,0 163.723,48.629 224.234,-145.82 59.918,-197.183 0,0 Z" /></g></g></g><g
       transform="translate(0.3789,200.7558)"
       id="g48"><path
         id="path50"
         style="fill:#f5f5f5;fill-opacity:1;fill-rule:nonzero;stroke:none"
         d="M 0,0 59.918,-197.184 224.234,-145.821 163.723,48.629 0,0 Z" /></g><g
       transform="translate(15.8398,190.2441)"
       id="g52"><path
         id="path54"
         style="fill:#e8e7e5;fill-opacity:1;fill-rule:nonzero;stroke:none"
         d="M 0,0 139.629,42.929 183.102,-97.27 44.558,-141.066 0,0 Z" /></g><g
       transform="translate(15.8398,190.2441)"
       id="g56"><path
         id="path58"
         style="fill:none;stroke:#100f0d;stroke-width:0.49700001;stroke-linecap:butt;stroke-linejoin:miter;stroke-miterlimit:10;stroke-dasharray:none;stroke-opacity:1"
         d="M 0,0 139.629,42.929 183.102,-97.27 44.558,-141.066 0,0 Z" /></g><g
       id="g60"><g
         clip-path="url(#clipPath64)"
         id="g62"><g
           transform="translate(127.5625,79.1494)"
           id="g68"><path
             id="path70"
             style="fill:#cccbcb;fill-opacity:1;fill-rule:nonzero;stroke:none"
             d="m 0,0 c 0.899,-1.126 2.078,-1.268 3.338,-1.148 1.385,0.13 2.792,0.172 4.116,0.596 2.04,0.655 3.773,1.838 5.375,3.251 0.635,0.562 0.794,-1.138 1.085,-0.404 0.155,0.393 -0.723,-1.78 0,0 0.003,0.007 1.762,0.127 1.76,0.12 C 15.042,-0.181 12.427,0.163 10.313,-1.184 8.543,-2.311 6.591,-2.956 4.51,-3.216 3.423,-3.352 2.325,-3.25 1.262,-2.852 0.255,-2.476 -0.102,-1.876 -0.01,-0.778 0.012,-0.521 -0.002,-0.26 0,0" /></g><g
           transform="translate(130.0439,103.7031)"
           id="g72"><path
             id="path74"
             style="fill:#c0272d;fill-opacity:1;fill-rule:nonzero;stroke:none"
             d="m 0,0 c 2.038,0.909 4.133,1.618 6.373,1.825 1.096,0.102 1.78,-0.299 2.381,-1.304 1.366,-2.282 1.554,-4.91 2.401,-7.337 1.031,-2.95 1.891,-5.958 2.961,-8.892 0.476,-1.304 0.133,-2.18 -0.762,-3.071 -0.691,-0.689 -1.605,-1.132 -2.137,-1.986 -2.047,-1.079 -4.094,-2.159 -6.14,-3.239 -1.114,-0.242 -2.226,-0.493 -3.343,-0.724 -1.024,-0.21 -1.765,0.091 -2.437,0.985 -2.623,3.487 -5.207,7.019 -8.075,10.3 -0.984,1.125 -1.798,2.27 -2.564,3.519 -0.588,0.96 -0.358,1.702 0.239,2.479 1.121,1.457 2.541,2.594 4.046,3.598 1.54,1.028 3.076,2.083 4.785,2.832 0.494,-1.156 0.532,-2.38 0.534,-3.609 -1.509,-1.548 -3.666,-2.23 -5.241,-3.832 C -4.888,-8.52 2.552,-4.69 4.846,-2.371 4.06,-2.228 3.538,-2.682 2.947,-2.823 2.063,-3.036 1.225,-3.971 0.233,-3.077 0.155,-2.051 0.077,-1.025 0,0" /></g><g
           transform="translate(130.0439,103.7031)"
           id="g76"><path
             id="path78"
             style="fill:none;stroke:#000000;stroke-width:0.248;stroke-linecap:butt;stroke-linejoin:miter;stroke-miterlimit:10;stroke-dasharray:none;stroke-opacity:1"
             d="m 0,0 c 2.038,0.909 4.133,1.618 6.373,1.825 1.096,0.102 1.78,-0.299 2.381,-1.304 1.366,-2.282 1.554,-4.91 2.401,-7.337 1.031,-2.95 1.891,-5.958 2.961,-8.892 0.476,-1.304 0.133,-2.18 -0.762,-3.071 -0.691,-0.689 -1.605,-1.132 -2.137,-1.986 -2.047,-1.079 -4.094,-2.159 -6.14,-3.239 -1.114,-0.242 -2.226,-0.493 -3.343,-0.724 -1.024,-0.21 -1.765,0.091 -2.437,0.985 -2.623,3.487 -5.207,7.019 -8.075,10.3 -0.984,1.125 -1.798,2.27 -2.564,3.519 -0.588,0.96 -0.358,1.702 0.239,2.479 1.121,1.457 2.541,2.594 4.046,3.598 1.54,1.028 3.076,2.083 4.785,2.832 0.494,-1.156 0.532,-2.38 0.534,-3.609 -1.509,-1.548 -3.666,-2.23 -5.241,-3.832 C -4.888,-8.52 2.552,-4.69 4.846,-2.371 4.06,-2.228 3.538,-2.682 2.947,-2.823 2.063,-3.036 1.225,-3.971 0.233,-3.077 0.155,-2.051 0.077,-1.025 0,0 Z" /></g><g
           transform="translate(129.6328,100.8203)"
           id="g80"><path
             id="path82"
             style="fill:#252525;fill-opacity:1;fill-rule:nonzero;stroke:none"
             d="M 0,0 C 1.472,0.53 2.94,1.069 4.418,1.584 4.805,1.719 5.216,1.792 5.621,1.865 5.863,1.908 6.139,1.919 6.292,1.676 6.488,1.362 6.282,1.098 6.072,0.914 5.453,0.372 4.837,-0.184 4.16,-0.648 0.673,-3.042 -3.05,-4.988 -7.056,-6.363 c -0.591,-0.203 -1.487,-0.684 -1.826,-0.069 -0.409,0.745 0.557,1.154 1.069,1.56 1.456,1.156 3.007,2.178 4.677,3.007 0.365,0.181 0.718,0.425 1.164,0.318 0.067,-0.365 -0.196,-1.053 0.376,-0.977 0.699,0.091 1.44,0.478 1.638,1.295 C 0.136,-0.846 0.021,-0.411 0,0" /></g><g
           transform="translate(138.8594,122.8496)"
           id="g84"><path
             id="path86"
             style="fill:#69bc45;fill-opacity:1;fill-rule:nonzero;stroke:none"
             d="M 0,0 C 0.1,-0.431 -0.208,-0.693 -0.428,-0.979 -2.449,-3.6 -3.762,-6.53 -4.464,-9.771 c -0.763,-3.521 -3.552,-5.652 -7.245,-5.67 -0.387,-0.002 -0.737,-0.06 -1.04,-0.311 -0.066,0.097 -0.134,0.193 -0.201,0.29 -0.214,0.399 -0.358,0.861 -0.654,1.185 -1.073,1.172 -1.087,2.571 -0.715,3.926 0.858,3.138 2.215,6.004 5.073,7.877 2.231,1.463 4.721,2.203 7.342,2.434 C -1.295,0.014 -0.635,0.43 0,0" /></g><g
           transform="translate(116.0947,110.3037)"
           id="g88"><path
             id="path90"
             style="fill:#69bc45;fill-opacity:1;fill-rule:nonzero;stroke:none"
             d="m 0,0 c 6.356,1.592 12.432,-4.199 9.773,-10.536 -0.924,-2.203 2.672,-3.165 3.586,-0.988 C 17.167,-2.449 7.835,5.796 -0.988,3.585 -3.309,3.004 -2.326,-0.583 0,0" /></g><g
           transform="translate(76.5962,166.6123)"
           id="g92"><path
             id="path94"
             style="fill:#0973b9;fill-opacity:1;fill-rule:nonzero;stroke:none"
             d="m 0,0 c 0,0 -10.882,-41.93 33.186,-54.991 8.552,-2.534 21.547,13.09 8.917,41.452 C 35.657,0.937 25.253,7.686 15.905,9.385 1.625,11.98 0,0 0,0" /></g><g
           transform="translate(97.4346,154.0127)"
           id="g96"><path
             id="path98"
             style="fill:#eff0ea;fill-opacity:1;fill-rule:nonzero;stroke:none"
             d="m 0,0 c 2.543,-4.819 1.398,-10.417 -2.556,-12.504 -3.954,-2.086 -9.221,0.129 -11.763,4.948 -2.543,4.82 -1.399,10.418 2.555,12.504 C -7.81,7.035 -2.542,4.819 0,0" /></g><g
           transform="translate(109.3169,162.043)"
           id="g100"><path
             id="path102"
             style="fill:#eff0ea;fill-opacity:1;fill-rule:nonzero;stroke:none"
             d="m 0,0 c 2.678,-4.152 2.273,-9.179 -0.904,-11.229 -3.177,-2.048 -7.924,-0.343 -10.601,3.809 -2.678,4.152 -2.273,9.18 0.903,11.229 C -7.424,5.858 -2.678,4.152 0,0" /></g><g
           transform="translate(94.0205,152.2109)"
           id="g104"><path
             id="path106"
             style="fill:#1a9948;fill-opacity:1;fill-rule:nonzero;stroke:none"
             d="m 0,0 c 1.206,-2.286 0.731,-4.906 -1.061,-5.851 -1.791,-0.945 -4.222,0.142 -5.428,2.428 -1.206,2.286 -0.731,4.905 1.061,5.851 C -3.637,3.373 -1.207,2.286 0,0" /></g><g
           transform="translate(107.1665,160.2339)"
           id="g108"><path
             id="path110"
             style="fill:#1a9948;fill-opacity:1;fill-rule:nonzero;stroke:none"
             d="M 0,0 C 1.199,-2.272 0.843,-4.814 -0.794,-5.678 -2.431,-6.542 -4.73,-5.4 -5.929,-3.128 -7.128,-0.856 -6.772,1.686 -5.135,2.55 -3.498,3.414 -1.199,2.272 0,0" /></g><g
           transform="translate(89.3125,149.7271)"
           id="g112"><path
             id="path114"
             style="fill:#14170f;fill-opacity:1;fill-rule:nonzero;stroke:none"
             d="M 0,0 C -0.653,1.238 -0.414,2.646 0.534,3.146 1.482,3.646 2.779,3.049 3.433,1.811 4.085,0.573 3.846,-0.835 2.898,-1.335 1.951,-1.835 0.653,-1.238 0,0" /></g><g
           transform="translate(102.6499,157.8335)"
           id="g116"><path
             id="path118"
             style="fill:#14170f;fill-opacity:1;fill-rule:nonzero;stroke:none"
             d="M 0,0 C -0.659,1.248 -0.41,2.673 0.555,3.182 1.52,3.691 2.835,3.092 3.494,1.843 4.153,0.595 3.905,-0.83 2.94,-1.339 1.975,-1.848 0.659,-1.249 0,0" /></g><g
           transform="translate(87.5576,150.9624)"
           id="g120"><path
             id="path122"
             style="fill:#ffffff;fill-opacity:1;fill-rule:nonzero;stroke:none"
             d="M 0,0 C -0.141,0.797 0.251,1.534 0.876,1.645 1.501,1.755 2.122,1.199 2.264,0.401 2.405,-0.396 2.013,-1.132 1.388,-1.243 0.763,-1.354 0.142,-0.797 0,0" /></g><g
           transform="translate(102.9419,160.0127)"
           id="g124"><path
             id="path126"
             style="fill:#ffffff;fill-opacity:1;fill-rule:nonzero;stroke:none"
             d="m 0,0 c 0.044,-0.699 -0.297,-1.289 -0.763,-1.319 -0.466,-0.03 -0.881,0.513 -0.925,1.212 -0.045,0.698 0.297,1.289 0.763,1.318 C -0.458,1.241 -0.044,0.699 0,0" /></g><g
           transform="translate(102.582,157.4707)"
           id="g128"><path
             id="path130"
             style="fill:#ffffff;fill-opacity:1;fill-rule:nonzero;stroke:none"
             d="m 0,0 c -0.116,-0.206 -0.351,-0.294 -0.526,-0.196 -0.175,0.098 -0.223,0.344 -0.107,0.55 0.115,0.207 0.351,0.294 0.526,0.197 C 0.067,0.453 0.115,0.206 0,0" /></g><g
           transform="translate(81.1255,159.356)"
           id="g132"><path
             id="path134"
             style="fill:#0973b9;fill-opacity:1;fill-rule:nonzero;stroke:none"
             d="M 0,0 C 0.451,1.163 0.502,2.516 1.152,3.596 2.4,5.67 4.5,4.276 5.769,3.064 6.034,2.811 6.438,3.213 6.172,3.467 5.025,4.563 3.367,5.902 1.715,4.97 0.039,4.025 0.064,1.735 -0.55,0.151 -0.682,-0.19 -0.131,-0.339 0,0" /></g><g
           transform="translate(80.0024,158.2573)"
           id="g136"><path
             id="path138"
             style="fill:#4c3215;fill-opacity:1;fill-rule:nonzero;stroke:none"
             d="M 0,0 C 0.166,1.094 0.143,2.205 0.31,3.299 0.478,4.393 0.868,5.514 1.695,6.275 2.732,7.229 4.285,7.439 5.638,7.153 6.992,6.868 8.197,6.157 9.375,5.457 7.538,5.787 5.592,5.218 3.979,4.215 2.364,3.213 1.042,1.806 -0.163,0.34" /></g><g
           transform="translate(82.6699,157.1191)"
           id="g140"><path
             id="path142"
             style="fill:#4a85a4;fill-opacity:1;fill-rule:nonzero;stroke:none"
             d="M 0,0 C 0.812,2.564 3.294,3.919 5.898,3.248 6.254,3.156 6.405,3.705 6.05,3.797 3.149,4.546 0.354,3.007 -0.549,0.151 -0.66,-0.199 -0.11,-0.349 0,0" /></g><g
           transform="translate(95.9585,163.8799)"
           id="g144"><path
             id="path146"
             style="fill:#4a85a4;fill-opacity:1;fill-rule:nonzero;stroke:none"
             d="M 0,0 C 1.287,2.268 3.334,4.477 6.212,3.897 6.57,3.825 6.723,4.374 6.363,4.446 3.233,5.077 0.936,2.805 -0.492,0.288 -0.673,-0.032 -0.181,-0.319 0,0" /></g><g
           transform="translate(89.4995,139.9004)"
           id="g148"><path
             id="path150"
             style="fill:#597d9f;fill-opacity:1;fill-rule:nonzero;stroke:none"
             d="m 0,0 c 2.268,0.775 4.588,1.164 6.986,1.165 0.367,0 0.367,0.57 0,0.57 C 4.534,1.734 2.169,1.343 -0.151,0.55 -0.497,0.432 -0.349,-0.119 0,0" /></g><g
           transform="translate(108.3062,148.8828)"
           id="g152"><path
             id="path154"
             style="fill:#597d9f;fill-opacity:1;fill-rule:nonzero;stroke:none"
             d="M 0,0 C 0.753,1.986 2.125,3.61 3.946,4.701 4.259,4.889 3.973,5.382 3.658,5.193 1.704,4.022 0.258,2.28 -0.55,0.152 -0.68,-0.191 -0.129,-0.34 0,0" /></g><g
           transform="translate(113.5234,145.5796)"
           id="g156"><path
             id="path158"
             style="fill:#a5897a;fill-opacity:1;fill-rule:nonzero;stroke:none"
             d="m 0,0 c 0.352,-3.688 -0.385,-7.638 -3.246,-10.247 -3.278,-2.99 -7.989,-3.366 -11.371,-0.325 -0.448,0.402 -1.113,-0.259 -0.663,-0.664 3.151,-2.832 7.579,-3.212 11.16,-0.889 C -0.022,-9.468 1.382,-4.658 0.937,0 0.881,0.596 -0.058,0.602 0,0" /></g><g
           transform="translate(97.9634,136.4956)"
           id="g160"><path
             id="path162"
             style="fill:#a5897a;fill-opacity:1;fill-rule:nonzero;stroke:none"
             d="M 0,0 C -0.142,-1.213 -1.047,-2.213 -2.209,-2.541 -2.79,-2.705 -2.543,-3.61 -1.96,-3.445 -0.361,-2.995 0.746,-1.636 0.938,0 1.008,0.599 0.069,0.593 0,0" /></g><g
           transform="translate(111.4424,146.0649)"
           id="g164"><path
             id="path166"
             style="fill:#a5897a;fill-opacity:1;fill-rule:nonzero;stroke:none"
             d="M 0,0 C 1.516,-1.544 3.837,-1.327 5.137,0.356 5.505,0.833 4.69,1.301 4.327,0.829 3.386,-0.389 1.714,-0.407 0.663,0.663 0.24,1.095 -0.423,0.431 0,0" /></g><g
           transform="translate(96.4409,168.4243)"
           id="g168"><path
             id="path170"
             style="fill:#322112;fill-opacity:1;fill-rule:nonzero;stroke:none"
             d="M 0,0 C -0.124,1.517 -0.029,3.091 0.611,4.472 0.862,5.012 1.201,5.523 1.674,5.886 2.777,6.729 4.347,6.59 5.664,6.151 6.981,5.712 8.23,5.014 9.608,4.843 7.727,4.534 5.823,4.218 4.077,3.453 2.331,2.688 0.73,1.414 -0.027,-0.336" /></g><g
           transform="translate(98.0459,174.5142)"
           id="g172"><path
             id="path174"
             style="fill:#000000;fill-opacity:1;fill-rule:nonzero;stroke:none"
             d="m 0,0 c -1.376,1.992 -2.634,3.757 -3.825,5.567 -0.374,0.568 -0.702,0.706 -1.344,0.461 -2.171,-0.83 -4.364,-1.599 -6.547,-2.397 -2.787,-1.019 -5.596,-2.071 -7.685,-4.268 -2.002,-2.107 -3.813,-4.395 -5.69,-6.619 -0.121,-0.143 -0.196,-0.488 -0.109,-0.62 0.956,-1.469 1.949,-2.915 2.99,-4.452 C -16.456,-5.1 -9.013,-1.304 0,0 m -6.15,13.425 c 0.448,0.642 0.856,1.168 1.2,1.732 1.609,2.635 2.911,5.364 2.429,8.59 -0.515,3.435 -2.792,5.704 -5.667,5.304 -2.817,-0.39 -5.408,-1.504 -7.369,-3.688 -1.176,-1.309 -1.29,-2.83 -0.544,-4.408 0.434,-0.918 0.902,-1.821 1.354,-2.731 -0.652,0.355 -1.182,0.818 -1.695,1.299 -1.622,1.522 -3.233,3.175 -5.714,2.809 -1.425,-0.21 -2.86,-0.619 -4.186,-1.184 -2.94,-1.251 -5.572,-2.996 -7.437,-5.666 -1.652,-2.364 -1.473,-4.219 0.464,-6.26 0.231,-0.243 0.447,-0.5 0.67,-0.751 -0.969,0.043 -1.841,0.226 -2.682,0.506 -1.793,0.595 -3.383,0.235 -4.692,-1.067 -0.801,-0.799 -1.495,-1.724 -2.138,-2.661 -2.39,-3.475 -0.596,-6.389 2.745,-7.501 3.269,-1.088 6.381,-0.868 9.366,1.29 1.454,-1.632 2.881,-3.235 4.331,-4.862 1.131,1.268 2.148,2.407 3.221,3.609 -2.134,2.708 -4.234,5.372 -6.334,8.037 2.424,-1.908 4.624,-4.001 6.864,-6.051 0.288,-0.265 0.896,-0.549 1.155,-0.42 3.34,1.656 3.905,3.108 2.542,6.607 -0.474,1.217 -1.145,2.357 -1.725,3.532 2.427,-1.377 2.897,-4.032 4.129,-6.253 1.808,0.94 3.629,1.862 5.413,2.849 0.202,0.113 0.321,0.613 0.274,0.899 -0.211,1.271 -0.495,2.53 -0.799,4.016 0.786,-1.264 1.439,-2.372 2.161,-3.435 0.176,-0.26 0.62,-0.569 0.862,-0.514 0.868,0.201 1.701,0.549 2.666,0.882 -1.506,2.757 -2.947,5.394 -4.517,8.268 1.345,-1.023 2.465,-1.874 3.653,-2.777 M -30.915,-2.778 c -3.595,-2.431 -8.105,-2.434 -11.367,-0.118 -2.034,1.443 -2.581,3.453 -2.062,5.742 0.566,2.497 1.712,4.743 3.532,6.592 1.097,1.115 1.979,1.52 3.939,1.86 -0.195,4.865 2.94,7.582 6.615,9.831 3.575,2.189 7.269,4.15 11.671,2.11 0.662,3.678 3.431,5.177 6.379,6.472 0.716,0.315 1.484,0.544 2.25,0.711 3.104,0.676 5.62,-0.482 7.179,-3.257 2.455,-4.371 1.953,-8.959 -1.419,-12.97 -1.456,-1.732 -1.45,-1.729 -0.315,-3.818 1.657,-3.047 3.301,-6.102 4.955,-9.15 0.741,-1.366 0.576,-1.767 -0.97,-2.102 -4.839,-1.046 -9.337,-2.859 -13.344,-5.819 -2.851,-2.107 -5.286,-4.62 -7.428,-7.43 -0.818,-1.072 -1.334,-1.083 -2.029,0.041 -1.14,1.845 -2.465,3.618 -3.29,5.597 -0.484,1.163 -1.097,2.105 -1.888,3.004 -0.782,0.886 -1.572,1.766 -2.408,2.704" /></g><g
           transform="translate(91.8955,187.939)"
           id="g176"><path
             id="path178"
             style="fill:#ffffff;fill-opacity:1;fill-rule:nonzero;stroke:none"
             d="m 0,0 c -1.187,0.903 -2.308,1.754 -3.653,2.777 1.57,-2.874 3.011,-5.511 4.517,-8.268 -0.965,-0.333 -1.798,-0.681 -2.666,-0.882 -0.241,-0.055 -0.685,0.254 -0.862,0.515 -0.721,1.062 -1.375,2.17 -2.161,3.435 0.304,-1.487 0.589,-2.746 0.799,-4.017 0.047,-0.286 -0.071,-0.786 -0.274,-0.898 -1.784,-0.988 -3.605,-1.91 -5.412,-2.85 -1.233,2.221 -1.703,4.876 -4.13,6.253 0.581,-1.175 1.251,-2.315 1.725,-3.532 1.364,-3.498 0.799,-4.951 -2.541,-6.607 -0.26,-0.129 -0.867,0.156 -1.156,0.42 -2.239,2.05 -4.44,4.143 -6.863,6.051 2.099,-2.665 4.199,-5.329 6.333,-8.037 -1.073,-1.202 -2.09,-2.341 -3.221,-3.609 -1.449,1.627 -2.877,3.23 -4.331,4.862 -2.985,-2.158 -6.097,-2.378 -9.366,-1.29 -3.341,1.113 -5.134,4.027 -2.745,7.501 0.644,0.937 1.337,1.863 2.139,2.661 1.308,1.303 2.898,1.662 4.691,1.067 0.841,-0.28 1.714,-0.463 2.683,-0.506 -0.223,0.251 -0.44,0.508 -0.671,0.751 -1.937,2.041 -2.115,3.896 -0.464,6.26 1.865,2.671 4.497,4.415 7.438,5.667 1.326,0.564 2.76,0.973 4.186,1.183 2.481,0.366 4.091,-1.287 5.713,-2.808 0.513,-0.481 1.043,-0.945 1.695,-1.3 -0.452,0.91 -0.919,1.813 -1.354,2.731 -0.745,1.578 -0.632,3.099 0.544,4.408 1.962,2.184 4.553,3.298 7.369,3.688 2.875,0.4 5.153,-1.869 5.667,-5.304 C 4.111,7.096 2.809,4.367 1.201,1.732 0.856,1.168 0.448,0.643 0,0" /></g><g
           transform="translate(98.0459,174.5142)"
           id="g180"><path
             id="path182"
             style="fill:#ffffff;fill-opacity:1;fill-rule:nonzero;stroke:none"
             d="m 0,0 c -9.013,-1.304 -16.456,-5.1 -22.21,-12.328 -1.041,1.537 -2.034,2.983 -2.99,4.452 -0.087,0.132 -0.012,0.477 0.109,0.62 1.877,2.224 3.688,4.512 5.69,6.619 2.089,2.197 4.898,3.249 7.685,4.268 2.183,0.798 4.376,1.567 6.547,2.397 0.642,0.245 0.97,0.107 1.344,-0.461 C -2.634,3.757 -1.376,1.992 0,0" /></g><g
           transform="translate(116.583,122.2705)"
           id="g184"><path
             id="path186"
             style="fill:none;stroke:#000000;stroke-width:0.079;stroke-linecap:butt;stroke-linejoin:miter;stroke-miterlimit:10;stroke-dasharray:none;stroke-opacity:1"
             d="m 0,0 c 0.597,-0.674 0.534,-1.703 -0.139,-2.3 -0.673,-0.596 -1.702,-0.534 -2.299,0.139 -0.596,0.674 -0.535,1.703 0.139,2.3 C -1.626,0.735 -0.597,0.673 0,0 Z" /></g><g
           transform="translate(122.4131,141.5142)"
           id="g188"><path
             id="path190"
             style="fill:#000000;fill-opacity:1;fill-rule:nonzero;stroke:none"
             d="M 0,0 C 4.369,0.828 6.811,4.66 8.818,8.271 9.59,9.659 7.461,10.903 6.689,9.515 4.986,6.452 3.074,3.084 -0.655,2.378 -2.213,2.083 -1.554,-0.294 0,0" /></g><g
           transform="translate(88.0757,123.147)"
           id="g192"><path
             id="path194"
             style="fill:#000000;fill-opacity:1;fill-rule:nonzero;stroke:none"
             d="m 0,0 c -3.73,-3.222 -7.562,-4.053 -12.2,-5.106 -2.286,-0.519 -4.961,-1.775 -5.298,-4.402 -0.27,-2.105 0.954,-3.51 2.953,-3.834 1.799,-0.293 4.011,0.145 5.832,0.222 2.572,0.111 5.145,0.22 7.717,0.329 1.581,0.068 1.589,2.534 0,2.466 l -9.003,-0.383 c -0.496,-0.021 -3.466,-0.435 -3.859,-0.165 -0.186,2.186 0.585,3.316 2.314,3.389 0.619,0.107 1.239,0.207 1.86,0.301 4.343,0.752 8.095,2.56 11.428,5.439 C 2.947,-0.705 1.196,1.033 0,0" /></g><g
           transform="translate(88.3735,111.0732)"
           id="g196"><path
             id="path198"
             style="fill:#ffffff;fill-opacity:1;fill-rule:nonzero;stroke:none"
             d="m 0,0 c -0.25,-0.683 0.134,-1.499 0.774,-1.845 0.64,-0.345 1.455,-0.262 2.086,0.099 0.631,0.361 1.092,0.968 1.405,1.623 C 4.827,1.056 4.929,2.514 4.268,3.639 3.607,4.765 2.084,5.394 0.909,4.826 0.293,4.529 -0.152,3.971 -0.534,3.404 -0.864,2.913 -1.174,2.369 -1.178,1.776 c -0.004,-0.591 0.409,-1.224 1,-1.262" /></g><g
           transform="translate(87.1846,111.4014)"
           id="g200"><path
             id="path202"
             style="fill:#000000;fill-opacity:1;fill-rule:nonzero;stroke:none"
             d="M 0,0 C -0.564,-2.665 2.17,-4.408 4.506,-3.218 6.805,-2.047 7.768,1.256 6.714,3.547 5.708,5.733 2.84,6.704 0.876,5.162 -0.957,3.723 -2.506,-0.145 0.684,-1.003 2.218,-1.416 2.873,0.962 1.339,1.375 0.934,1.483 2.306,3.3 2.754,3.436 3.496,3.658 4.219,3.07 4.496,2.439 4.858,1.612 4.658,0.61 4.221,-0.151 4.032,-0.48 3.779,-0.842 3.426,-1.01 3.133,-1.149 2.228,-1.365 2.378,-0.655 2.706,0.893 0.329,1.554 0,0" /></g><g
           transform="translate(130.2861,150.8237)"
           id="g204"><path
             id="path206"
             style="fill:#ffffff;fill-opacity:1;fill-rule:nonzero;stroke:none"
             d="m 0,0 c -0.389,-0.815 0.302,-1.823 1.169,-2.077 0.867,-0.254 1.796,0.032 2.63,0.379 1.788,0.743 3.452,1.784 4.903,3.066 C 9.081,1.702 9.457,2.07 9.636,2.542 9.814,3.015 9.74,3.619 9.337,3.923 9.021,4.161 8.579,4.166 8.204,4.042 7.828,3.919 7.501,3.686 7.168,3.472 5.709,2.532 4.042,1.919 2.322,1.69 1.572,1.59 0.788,1.555 0.12,1.199 -0.547,0.843 -1.055,0.036 -0.779,-0.669" /></g><g
           transform="translate(129.0977,151.1514)"
           id="g208"><path
             id="path210"
             style="fill:#000000;fill-opacity:1;fill-rule:nonzero;stroke:none"
             d="m 0,0 c -0.742,-3.373 2.816,-4.177 5.314,-3.215 2.183,0.84 6.859,3.058 6.834,5.93 C 12.14,3.793 11.397,4.795 10.31,4.979 8.755,5.243 7.481,3.945 6.153,3.371 3.884,2.39 -1.314,2.805 -0.823,-0.997 c 0.2,-1.551 2.668,-1.571 2.466,0 C 1.478,0.274 4.323,0.22 5.116,0.417 6.268,0.702 7.387,1.165 8.423,1.743 8.707,1.901 9.435,2.575 9.39,2.26 9.331,1.848 7.727,0.889 7.551,0.768 7.052,0.425 6.532,0.113 6,-0.175 5.72,-0.328 2.088,-1.973 2.378,-0.656 2.718,0.891 0.341,1.551 0,0" /></g><g
           transform="translate(104.2661,142.4204)"
           id="g212"><path
             id="path214"
             style="fill:#000000;fill-opacity:1;fill-rule:nonzero;stroke:none"
             d="M 0,0 C -0.312,-0.881 -0.578,-1.83 -0.973,-2.704 -1.717,-4.351 -3.122,-5 -4.816,-5.085 c -0.35,-0.018 -0.752,0.14 -1.085,0.323 -0.196,0.107 -0.303,0.423 -0.395,0.68 0.878,-0.388 1.588,-0.033 1.7,0.919 0.053,0.447 -0.019,0.923 -0.058,1.386 -0.119,1.418 0.057,2.711 1.198,3.539 0.711,0.515 1.506,0.625 2.394,0.05 0.019,1.134 0.511,1.912 1.442,2.366 0.963,0.47 1.794,0.328 2.67,-0.47 C 3.708,3.108 4.327,2.44 5.038,1.928 5.867,1.332 6.533,1.686 6.721,2.699 6.731,2.752 6.769,2.798 6.797,2.852 7.23,2.371 7.321,1.645 6.828,1.193 6.266,0.677 5.591,0.253 4.892,-0.048 3.846,-0.499 2.702,-0.662 1.525,-0.462 0.984,-0.37 0.452,-0.141 0,0" /></g><g
           transform="translate(123.9434,134.0098)"
           id="g216"><path
             id="path218"
             style="fill:#ffffff;fill-opacity:1;fill-rule:nonzero;stroke:none"
             d="m 0,0 2.615,-13.968 -17.719,-14.117 -12.331,11.601 c 0,0 -0.504,0.341 -3.097,2.19 2.183,2.182 19.309,4.771 19.309,4.771 L -0.461,4.262 0,0 Z" /></g><g
           transform="translate(123.9434,134.0098)"
           id="g220"><path
             id="path222"
             style="fill:none;stroke:#000000;stroke-width:0.38;stroke-linecap:butt;stroke-linejoin:miter;stroke-miterlimit:10;stroke-dasharray:none;stroke-opacity:1"
             d="m 0,0 2.615,-13.968 -17.719,-14.117 -12.331,11.601 c 0,0 -0.504,0.341 -3.097,2.19 2.183,2.182 19.309,4.771 19.309,4.771 L -0.461,4.262 0,0 Z" /></g><g
           transform="translate(123.458,138.3818)"
           id="g224"><path
             id="path226"
             style="fill:#ffffff;fill-opacity:1;fill-rule:nonzero;stroke:#000000;stroke-width:0.38;stroke-linecap:butt;stroke-linejoin:miter;stroke-miterlimit:10;stroke-dasharray:none;stroke-opacity:1"
             d="m 0,0 -14.666,-20.229 6.391,-6.941" /></g><g
           transform="translate(96.5596,117.2949)"
           id="g228"><path
             id="path230"
             style="fill:none;stroke:#000000;stroke-width:0.38;stroke-linecap:butt;stroke-linejoin:miter;stroke-miterlimit:10;stroke-dasharray:none;stroke-opacity:1"
             d="m 0,0 16.213,6.961 11.223,9.523" /></g><g
           transform="translate(117.0439,121.6279)"
           id="g232"><path
             id="path234"
             style="fill:#000000;fill-opacity:1;fill-rule:nonzero;stroke:none"
             d="m 0,0 c 0.597,-0.674 0.535,-1.703 -0.138,-2.3 -0.674,-0.596 -1.703,-0.534 -2.3,0.139 -0.596,0.673 -0.534,1.702 0.139,2.299 C -1.626,0.734 -0.597,0.673 0,0" /></g><g
           transform="translate(119.1152,118.623)"
           id="g236"><path
             id="path238"
             style="fill:#000000;fill-opacity:1;fill-rule:nonzero;stroke:none"
             d="m 0,0 c 0.597,-0.673 0.534,-1.702 -0.139,-2.299 -0.673,-0.597 -1.702,-0.535 -2.299,0.138 -0.596,0.674 -0.535,1.703 0.139,2.3 C -1.626,0.735 -0.597,0.673 0,0" /></g><g
           transform="translate(122.0947,120.6494)"
           id="g240"><path
             id="path242"
             style="fill:#000000;fill-opacity:1;fill-rule:nonzero;stroke:none"
             d="m 0,0 c 0.597,-0.673 0.534,-1.702 -0.139,-2.299 -0.673,-0.597 -1.702,-0.535 -2.299,0.138 -0.596,0.674 -0.535,1.703 0.139,2.3 C -1.626,0.735 -0.597,0.673 0,0" /></g><g
           transform="translate(119.9023,123.7021)"
           id="g244"><path
             id="path246"
             style="fill:#000000;fill-opacity:1;fill-rule:nonzero;stroke:none"
             d="m 0,0 c 0.597,-0.673 0.534,-1.702 -0.139,-2.299 -0.673,-0.597 -1.702,-0.535 -2.299,0.138 -0.596,0.674 -0.535,1.703 0.139,2.299 C -1.626,0.735 -0.597,0.673 0,0" /></g><g
           transform="translate(122.793,153.395)"
           id="g248"><path
             id="path250"
             style="fill:#f2e926;fill-opacity:1;fill-rule:nonzero;stroke:none"
             d="m 0,0 c 0,0 -7.957,9.63 1.673,17.587 9.141,4.697 11.189,2.571 13.198,1.717 C 18.619,17.711 21.546,15.451 22.75,6.747 14.636,3.976 0,0 0,0" /></g><g
           transform="translate(122.793,153.395)"
           id="g252"><path
             id="path254"
             style="fill:none;stroke:#231f20;stroke-width:0.37;stroke-linecap:butt;stroke-linejoin:miter;stroke-miterlimit:10;stroke-dasharray:none;stroke-opacity:1"
             d="m 0,0 c 0,0 -7.957,9.63 1.673,17.587 9.141,4.697 11.189,2.571 13.198,1.717 C 18.619,17.711 21.546,15.451 22.75,6.747 14.636,3.976 0,0 0,0 Z" /></g><g
           transform="translate(121.8682,153.1899)"
           id="g256"><path
             id="path258"
             style="fill:#f2e926;fill-opacity:1;fill-rule:nonzero;stroke:none"
             d="M 0,0 C 0,0 -1.541,-1.797 0.051,-2.414 5.7,-1.645 24.65,4.744 24.65,4.744 c 0,0 1.258,1.977 -0.641,1.797 C 22.108,6.362 0,0 0,0" /></g><g
           transform="translate(121.8682,153.1899)"
           id="g260"><path
             id="path262"
             style="fill:none;stroke:#231f20;stroke-width:0.37;stroke-linecap:butt;stroke-linejoin:miter;stroke-miterlimit:10;stroke-dasharray:none;stroke-opacity:1"
             d="M 0,0 C 0,0 -1.541,-1.797 0.051,-2.414 5.7,-1.645 24.65,4.744 24.65,4.744 c 0,0 1.258,1.977 -0.641,1.797 C 22.108,6.362 0,0 0,0 Z" /></g><g
           transform="translate(128.1133,174.2163)"
           id="g264"><path
             id="path266"
             style="fill:#f2e926;fill-opacity:1;fill-rule:nonzero;stroke:none"
             d="M 0,0 C -0.545,-0.121 -1.081,0.204 -1.196,0.727 -1.312,1.249 -0.965,1.77 -0.42,1.891 0.125,2.012 0.66,1.687 0.776,1.165 0.892,0.642 0.544,0.121 0,0 M -0.442,2.576 C -1.601,2.319 -2.363,1.319 -2.146,0.343 -1.93,-0.633 -0.815,-1.216 0.342,-0.959 1.499,-0.702 2.262,0.297 2.046,1.273 1.829,2.25 0.715,2.833 -0.442,2.576" /></g><g
           transform="translate(128.1133,174.2163)"
           id="g268"><path
             id="path270"
             style="fill:none;stroke:#231f20;stroke-width:0.37;stroke-linecap:butt;stroke-linejoin:miter;stroke-miterlimit:10;stroke-dasharray:none;stroke-opacity:1"
             d="M 0,0 C -0.545,-0.121 -1.081,0.204 -1.196,0.727 -1.312,1.249 -0.965,1.77 -0.42,1.891 0.125,2.012 0.66,1.687 0.776,1.165 0.892,0.642 0.544,0.121 0,0 Z M -0.442,2.576 C -1.601,2.319 -2.363,1.319 -2.146,0.343 -1.93,-0.633 -0.815,-1.216 0.342,-0.959 1.499,-0.702 2.262,0.297 2.046,1.273 1.829,2.25 0.715,2.833 -0.442,2.576 Z" /></g><g
           transform="translate(128.8896,175.3809)"
           id="g272"><path
             id="path274"
             style="fill:#f2e926;fill-opacity:1;fill-rule:nonzero;stroke:none"
             d="m 0,0 c 0.115,-0.522 -0.232,-1.043 -0.776,-1.165 -0.545,-0.12 -1.081,0.205 -1.197,0.727 -0.116,0.522 0.232,1.043 0.777,1.164 C -0.651,0.847 -0.116,0.522 0,0" /></g><g
           transform="translate(128.8896,175.3809)"
           id="g276"><path
             id="path278"
             style="fill:#ffffff;fill-opacity:1;fill-rule:nonzero;stroke:none"
             d="m 0,0 c 0.115,-0.522 -0.232,-1.043 -0.776,-1.165 -0.545,-0.12 -1.081,0.205 -1.197,0.727 -0.116,0.522 0.232,1.043 0.777,1.164 C -0.651,0.847 -0.116,0.522 0,0" /></g><g
           transform="translate(128.8896,175.3809)"
           id="g280"><path
             id="path282"
             style="fill:none;stroke:#231f20;stroke-width:0.37;stroke-linecap:butt;stroke-linejoin:miter;stroke-miterlimit:10;stroke-dasharray:none;stroke-opacity:1"
             d="m 0,0 c 0.115,-0.522 -0.232,-1.043 -0.776,-1.165 -0.545,-0.12 -1.081,0.205 -1.197,0.727 -0.116,0.522 0.232,1.043 0.777,1.164 C -0.651,0.847 -0.116,0.522 0,0 Z" /></g><g
           transform="translate(122.2031,154.9614)"
           id="g284"><path
             id="path286"
             style="fill:#aba835;fill-opacity:1;fill-rule:nonzero;stroke:none"
             d="m 0,0 c 0,0 -1.923,14.122 3.572,15.584 6.137,1.847 10.502,1.846 12.864,-0.054 2.362,-1.901 5.749,-8.424 5.749,-8.424 0,0 -0.075,10.168 -12.09,11.866 -7.781,-3.182 -10.426,-5.467 -10.426,-5.467 0,0 -4.443,-7.291 -0.979,-10.886 C -0.001,-2.183 0,0 0,0" /></g><g
           transform="translate(132.4385,165.6235)"
           id="g288"><path
             id="path290"
             style="fill:#fcf6b5;fill-opacity:1;fill-rule:nonzero;stroke:none"
             d="M 0,0 C -0.682,-1.213 -0.378,-2.756 0.828,-3.489 2.034,-4.221 4.052,-3.922 4.923,-2.79 5.795,-1.658 5.1,0.049 3.598,0.249 2.096,0.449 0.514,-1.144 1.151,-2.287" /></g><g
           transform="translate(137.9248,175.9092)"
           id="g292"><path
             id="path294"
             style="fill:#e3e3e4;fill-opacity:1;fill-rule:nonzero;stroke:none"
             d="M 0,0 C 0,0 -9.882,10.903 -5.859,15.963 -8.576,18.932 1.069,17.204 1.215,13.069 -1.028,8.106 -1.736,3.187 0,0" /></g><g
           transform="translate(127.8896,176.3491)"
           id="g296"><path
             id="path298"
             style="fill:#e3e3e4;fill-opacity:1;fill-rule:nonzero;stroke:none"
             d="m 0,0 c 0,0 -8.217,11.273 -5.343,16.078 -2.258,3.07 5.322,0.883 5.64,-3.213 C -1.2,8.068 -1.507,3.237 0,0" /></g><g
           transform="translate(121.3818,171.2676)"
           id="g300"><path
             id="path302"
             style="fill:#e3e3e4;fill-opacity:1;fill-rule:nonzero;stroke:none"
             d="m 0,0 c 0,0 -7.176,11.504 -5.02,16.149 -1.97,3.135 4.318,0.661 4.744,-3.411 C -1.307,8.044 -1.363,3.269 0,0" /></g><g
           transform="translate(73.0986,103.083)"
           id="g304"><path
             id="path306"
             style="fill:#ffffff;fill-opacity:1;fill-rule:nonzero;stroke:none"
             d="m 0,0 c -0.127,3.852 0.875,9.166 0.875,9.166 l 10.014,0.768 1.999,-15.56 c -5.469,3.879 -6.933,0.644 -6.933,0.644 0,0 -5.237,3.929 -5.879,1.362 C -0.437,-1.309 0,0 0,0" /></g><g
           transform="translate(73.0986,103.083)"
           id="g308"><path
             id="path310"
             style="fill:none;stroke:#231f20;stroke-width:0.24699999;stroke-linecap:butt;stroke-linejoin:miter;stroke-miterlimit:10;stroke-dasharray:none;stroke-opacity:1"
             d="m 0,0 c -0.127,3.852 0.875,9.166 0.875,9.166 l 10.014,0.768 1.999,-15.56 c -5.469,3.879 -6.933,0.644 -6.933,0.644 0,0 -5.237,3.929 -5.879,1.362 C -0.437,-1.309 0,0 0,0 Z" /></g></g></g><g
       id="text312"
       style="font-variant:normal;font-weight:normal;font-stretch:normal;font-size:19.9999733px;font-family:'Museo 500';-inkscape-font-specification:Museo-500;writing-mode:lr-tb;fill:#231f20;fill-opacity:1;fill-rule:nonzero;stroke:none"
       transform="matrix(0.95138623,0.3080004,0.3080004,-0.95138623,98.7591,34.1593)"><path
         id="path317"
         style=""
         d="M 0.39999947,0 2.1799971,0 c 0.9199988,0 1.2399983,-0.37999949 1.2999983,-1.2799983 l 0.5599992,-7.45999 c 0.06,-0.8399989 0.04,-2.0999977 0.04,-2.0999977 l 0.04,0 c 0,0 0.4199994,1.3599987 0.759999,2.0999977 l 2.8599962,6.1999917 1.6799977,0 2.8599966,-6.1999917 c 0.339999,-0.759999 0.739999,-2.0799977 0.739999,-2.0799977 l 0.04,0 c 0,0 -0.02,1.2399988 0.04,2.0799977 l 0.579999,7.45999 C 13.739982,-0.37999949 14.059981,0 14.95998,0 l 1.779998,0 0,-1.7199977 -0.659999,0 c -0.28,0 -0.42,-0.1599998 -0.44,-0.4399994 l -0.959999,-11.9599839 -2.059997,0 -3.3199954,7.4799899 c -0.3399996,0.759999 -0.6999991,1.7799976 -0.6999991,1.7799976 l -0.04,0 c 0,0 -0.3599995,-1.0199986 -0.6999991,-1.7799976 l -3.3199956,-7.4799899 -2.0599972,0 -0.9599987,11.9599839 c -0.02,0.2799996 -0.1599998,0.4399994 -0.4399994,0.4399994 l -0.67999913,0 0,1.7199977 z" /><path
         id="path319"
         style=""
         d="m 17.859977,-5.0799932 c 0,3.0799959 2.419997,5.31999288 5.439993,5.31999288 3.019996,0 5.459993,-2.23999698 5.459993,-5.31999288 0,-3.0599959 -2.439997,-5.2799928 -5.459993,-5.2799928 -3.019996,0 -5.439993,2.2199969 -5.439993,5.2799928 z m 1.979998,0 c 0,-2.0999972 1.559998,-3.5999952 3.459995,-3.5999952 1.919998,0 3.479996,1.499998 3.479996,3.5999952 0,2.1199972 -1.559998,3.6399951 -3.479996,3.6399951 -1.899997,0 -3.459995,-1.5199979 -3.459995,-3.6399951 z" /><path
         id="path321"
         style=""
         d="m 31.179959,0 1.939998,0 0,-4.7399937 c 0,-0.4999993 0.04,-0.9599987 0.179999,-1.3599982 0.4,-1.459998 1.639998,-2.4799966 3.199996,-2.4799966 1.619998,0 1.899997,1.1199985 1.899997,2.5399966 l 0,4.7599936 C 38.399949,-0.37999949 38.779949,0 39.679948,0 l 1.919997,0 0,-1.6599978 -0.819999,0 c -0.279999,0 -0.439999,-0.1399998 -0.439999,-0.4399994 l 0,-4.3799941 c 0,-2.5799966 -1.079999,-3.8799947 -3.479995,-3.8799947 -2.199998,0 -3.399996,1.4399979 -3.799995,2.3199967 l -0.04,0 c 0,0 0.04,-0.2599996 0.04,-0.5799992 l 0,-0.3799995 c 0,-0.739999 -0.42,-1.119998 -1.279999,-1.119998 l -1.859997,0 0,1.6599973 0.819999,0 c 0.279999,0 0.439999,0.1399998 0.439999,0.4399994 l 0,8.0199893 z" /><path
         id="path323"
         style=""
         d="m 48.059939,-1.8599975 c 0,0 1.679998,2.09999718 4.679994,2.09999718 2.799996,0 4.479994,-1.85999748 4.479994,-4.01999468 0,-4.6399938 -6.799991,-3.9999946 -6.799991,-6.859991 0,-1.059998 0.959999,-1.899997 2.479997,-1.899997 1.119998,0 2.179997,0.539999 2.179997,1.279998 l 0,0.659999 1.839997,0 0,-1.159998 c 0,-1.919998 -2.519996,-2.599997 -4.019994,-2.599997 -2.659997,0 -4.519994,1.659998 -4.519994,3.779995 0,4.3999943 6.819991,3.9399949 6.819991,6.8999909 0,1.2999983 -1.099999,2.0999972 -2.419997,2.0999972 -2.099997,0 -3.539995,-1.6999977 -3.539995,-1.6999977 l -1.179999,1.4199981 z" /><path
         id="path325"
         style=""
         d="m 58.859922,-5.0599932 c 0,2.999996 2.179997,5.29999288 5.379993,5.29999288 2.399997,0 3.899995,-1.47999798 3.899995,-1.47999798 l -0.839999,-1.3799982 c 0,0 -1.219999,1.1799984 -2.959996,1.1799984 -1.799998,0 -3.359996,-1.2199983 -3.479996,-3.3799955 l 7.379991,0 c 0,0 0.06,-0.5399992 0.06,-0.7999989 0,-2.6199965 -1.519998,-4.7399935 -4.359995,-4.7399935 -2.879996,0 -5.079993,2.0799971 -5.079993,5.2999928 z m 2.079997,-1.1799985 c 0.3,-1.6799977 1.499998,-2.5799965 2.979996,-2.5799965 1.259999,0 2.319997,0.8999988 2.379997,2.5799965 l -5.359993,0 z" /><path
         id="path327"
         style=""
         d="m 69.899908,-5.0599932 c 0,2.999996 2.179997,5.29999288 5.379993,5.29999288 2.399996,0 3.899994,-1.47999798 3.899994,-1.47999798 l -0.839998,-1.3799982 c 0,0 -1.219999,1.1799984 -2.959997,1.1799984 -1.799997,0 -3.359995,-1.2199983 -3.479995,-3.3799955 l 7.37999,0 c 0,0 0.06,-0.5399992 0.06,-0.7999989 0,-2.6199965 -1.519998,-4.7399935 -4.359994,-4.7399935 -2.879996,0 -5.079993,2.0799971 -5.079993,5.2999928 z m 2.079997,-1.1799985 c 0.3,-1.6799977 1.499998,-2.5799965 2.979996,-2.5799965 1.259998,0 2.319997,0.8999988 2.379997,2.5799965 l -5.359993,0 z" /><path
         id="path329"
         style=""
         d="m 80.959893,-5.0599932 c 0,3.1399958 1.719998,5.29999288 4.459994,5.29999288 2.479997,0 3.319996,-1.83999758 3.319996,-1.83999758 l 0.04,0 c 0,0 -0.02,0.2199997 -0.02,0.5199993 0,0.67999913 0.36,1.0799986 1.239998,1.0799986 l 1.859998,0 0,-1.6599978 -0.819999,0 c -0.28,0 -0.439999,-0.1399998 -0.439999,-0.4399994 l 0,-10.7399858 c 0,-0.899999 -0.38,-1.279998 -1.279999,-1.279998 l -1.919997,0 0,1.659998 0.819999,0 c 0.279999,0 0.439999,0.139999 0.439999,0.439999 l 0,2.5399967 c 0,0.3799994 0.04,0.679999 0.04,0.679999 l -0.04,0 c 0,0 -0.779999,-1.5599977 -3.119996,-1.5599977 -2.679996,0 -4.579994,2.0799971 -4.579994,5.2999928 z m 4.839994,3.6199951 c -1.679998,0 -2.859996,-1.4199981 -2.859996,-3.6199951 0,-2.299997 1.319998,-3.6199952 2.899996,-3.6199952 1.939997,0 2.879996,1.7999976 2.879996,3.5999952 0,2.5799965 -1.419998,3.6399951 -2.919996,3.6399951 z" /></g></g></svg>