<svg width="30" height="26" viewBox="0 0 30 26" fill="none" xmlns="http://www.w3.org/2000/svg">
<path d="M1.29165 2.32279C1.37847 1.49893 2.11673 0.901434 2.94059 0.988252L7.91306 1.51224C8.73693 1.59906 9.33442 2.33732 9.2476 3.16118L8.51401 10.1226C8.4272 10.9465 7.68894 11.544 6.86508 11.4572L1.89261 10.9332C1.06874 10.8464 0.471248 10.1081 0.558066 9.28425L1.29165 2.32279Z" fill="#FDDC82"/>
<path d="M6.96987 10.4627L6.86508 11.4572L1.89261 10.9332L1.99741 9.93869L6.96987 10.4627ZM7.51952 10.0178L8.25311 3.05638C8.28205 2.78176 8.08288 2.53568 7.80826 2.50674L2.83579 1.98275C2.56117 1.95381 2.31509 2.15297 2.28615 2.42759L1.55256 9.38905C1.52362 9.66367 1.72279 9.90975 1.99741 9.93869L1.89261 10.9332L1.74095 10.9093C1.04636 10.7641 0.547065 10.1472 0.549768 9.43754L0.558066 9.28425L1.29165 2.32279C1.37847 1.49893 2.11673 0.901434 2.94059 0.988252L7.91306 1.51224C8.73693 1.59906 9.33442 2.33732 9.2476 3.16118L8.51401 10.1226C8.4272 10.9465 7.68894 11.544 6.86508 11.4572L6.96987 10.4627C7.2445 10.4916 7.49058 10.2925 7.51952 10.0178Z" fill="#D09901"/>
<path d="M0.571713 17.1419C0.488555 16.3177 1.08932 15.5821 1.91357 15.4989L6.88831 14.997C7.71255 14.9138 8.44815 15.5146 8.53131 16.3389L9.23397 23.3035C9.31713 24.1277 8.71636 24.8633 7.89212 24.9465L2.91737 25.4484C2.09313 25.5316 1.35754 24.9308 1.27438 24.1065L0.571713 17.1419Z" fill="#EEF0FE"/>
<path d="M7.79174 23.9515L7.89212 24.9465L2.91737 25.4484L2.81699 24.4534L7.79174 23.9515ZM8.23902 23.4039L7.53636 16.4392C7.50864 16.1645 7.26344 15.9642 6.98869 15.992L2.01395 16.4939C1.7392 16.5216 1.53894 16.7668 1.56666 17.0415L2.26933 24.0062C2.29705 24.2809 2.54224 24.4812 2.81699 24.4534L2.91737 25.4484L2.76404 25.456C2.05442 25.4556 1.43973 24.9535 1.29754 24.2583L1.27438 24.1065L0.571714 17.1419C0.488555 16.3177 1.08932 15.5821 1.91357 15.4989L6.88831 14.997C7.71255 14.9138 8.44815 15.5146 8.53131 16.3389L9.23397 23.3035C9.31713 24.1277 8.71636 24.8633 7.89212 24.9465L7.79174 23.9515C8.06649 23.9238 8.26674 23.6786 8.23902 23.4039Z" fill="#6174E3"/>
<path d="M10.5426 3.29171C10.4516 2.46829 11.0453 1.72702 11.8687 1.63603L16.8385 1.08684C17.6619 0.995852 18.4032 1.5896 18.4942 2.41301L19.263 9.37066C19.354 10.1941 18.7603 10.9353 17.9368 11.0263L12.9671 11.5755C12.1437 11.6665 11.4024 11.0728 11.3114 10.2494L10.5426 3.29171Z" fill="#EEF0FE"/>
<path d="M17.827 10.0324L17.9368 11.0263L12.9671 11.5755L12.8573 10.5816L17.827 10.0324ZM18.2691 9.4805L17.5002 2.52285C17.4699 2.24838 17.2228 2.05046 16.9483 2.08079L11.9786 2.62998C11.7041 2.66031 11.5062 2.9074 11.5365 3.18187L12.3054 10.1395C12.3357 10.414 12.5828 10.6119 12.8573 10.5816L12.9671 11.5755L12.8138 11.5846C12.1043 11.5909 11.4848 11.0947 11.336 10.4009L11.3114 10.2494L10.5426 3.29171C10.4516 2.46829 11.0453 1.72702 11.8687 1.63603L16.8385 1.08684C17.6619 0.995852 18.4032 1.5896 18.4942 2.41301L19.263 9.37066C19.354 10.1941 18.7603 10.9353 17.9368 11.0263L17.827 10.0324C18.1015 10.0021 18.2994 9.75497 18.2691 9.4805Z" fill="#6174E3"/>
<path d="M11.46 16.0165C11.5816 15.1971 12.3445 14.6314 13.164 14.753L18.1098 15.4871C18.9293 15.6087 19.4949 16.3716 19.3733 17.1911L18.3456 24.1152C18.224 24.9346 17.4611 25.5003 16.6416 25.3787L11.6958 24.6446C10.8764 24.523 10.3107 23.7601 10.4323 22.9407L11.46 16.0165Z" fill="#EEF0FE"/>
<path d="M16.7885 24.3896L16.6416 25.3787L11.6958 24.6446L11.8426 23.6555L16.7885 24.3896ZM17.3564 23.9684L18.3842 17.0442C18.4247 16.7711 18.2361 16.5168 17.963 16.4762L13.0172 15.7422C12.744 15.7016 12.4897 15.8902 12.4492 16.1633L11.4215 23.0875C11.3809 23.3606 11.5695 23.6149 11.8426 23.6555L11.6958 24.6446L11.5453 24.6144C10.8575 24.4398 10.3848 23.8023 10.4175 23.0935L10.4323 22.9407L11.46 16.0165C11.5816 15.1971 12.3445 14.6314 13.164 14.753L18.1098 15.4871C18.9293 15.6087 19.4949 16.3716 19.3733 17.1911L18.3456 24.1152C18.224 24.9346 17.4611 25.5003 16.6416 25.3787L16.7885 24.3896C17.0616 24.4301 17.3159 24.2415 17.3564 23.9684Z" fill="#6174E3"/>
<path d="M21.1921 2.41742C21.2576 1.59159 21.9801 0.975215 22.806 1.04071L27.7903 1.43602C28.6162 1.50151 29.2325 2.22408 29.167 3.04991L28.6136 10.028C28.5481 10.8538 27.8255 11.4702 26.9997 11.4047L22.0154 11.0094C21.1895 10.9439 20.5732 10.2213 20.6386 9.39551L21.1921 2.41742Z" fill="#EEF0FE"/>
<path d="M27.0788 10.4078L26.9997 11.4047L22.0154 11.0094L22.0944 10.0125L27.0788 10.4078ZM27.6167 9.94894L28.1702 2.97085C28.192 2.69557 27.9865 2.45472 27.7113 2.43289L22.7269 2.03758C22.4516 2.01575 22.2108 2.22121 22.1889 2.49648L21.6355 9.47457C21.6137 9.74985 21.8191 9.99071 22.0944 10.0125L22.0154 11.0094L21.8631 10.9895C21.165 10.8622 20.65 10.2584 20.6343 9.54897L20.6386 9.39551L21.1921 2.41742C21.2576 1.59159 21.9801 0.975215 22.806 1.04071L27.7903 1.43602C28.6162 1.50151 29.2325 2.22408 29.167 3.04991L28.6136 10.028C28.5481 10.8538 27.8255 11.4702 26.9997 11.4047L27.0788 10.4078C27.354 10.4297 27.5949 10.2242 27.6167 9.94894Z" fill="#6174E3"/>
<path d="M20.5251 17.2085C20.4293 16.3856 21.0188 15.6409 21.8416 15.5452L26.8081 14.9673C27.631 14.8715 28.3757 15.4609 28.4714 16.2838L29.2805 23.2369C29.3763 24.0598 28.7869 24.8045 27.964 24.9002L22.9975 25.4782C22.1746 25.5739 21.4299 24.9845 21.3342 24.1616L20.5251 17.2085Z" fill="#FDDC82"/>
<path d="M27.8484 23.9069L27.964 24.9002L22.9975 25.4782L22.8819 24.4849L27.8484 23.9069ZM28.2873 23.3525L27.4781 16.3994C27.4462 16.1251 27.198 15.9286 26.9237 15.9606L21.9572 16.5385C21.6829 16.5704 21.4864 16.8186 21.5184 17.0929L22.3275 24.046C22.3594 24.3203 22.6076 24.5168 22.8819 24.4849L22.9975 25.4782L22.8443 25.4881C22.1348 25.4985 21.5125 25.006 21.3597 24.313L21.3342 24.1616L20.5251 17.2085C20.4293 16.3856 21.0188 15.6409 21.8416 15.5452L26.8081 14.9673C27.631 14.8715 28.3757 15.4609 28.4714 16.2838L29.2805 23.2369C29.3763 24.0598 28.7869 24.8045 27.964 24.9002L27.8484 23.9069C28.1227 23.875 28.3192 23.6268 28.2873 23.3525Z" fill="#D09901"/>
</svg>