<?xml version="1.0" encoding="UTF-8" standalone="no"?>
<svg
   xmlns:dc="http://purl.org/dc/elements/1.1/"
   xmlns:cc="http://creativecommons.org/ns#"
   xmlns:rdf="http://www.w3.org/1999/02/22-rdf-syntax-ns#"
   xmlns:svg="http://www.w3.org/2000/svg"
   xmlns="http://www.w3.org/2000/svg"
   viewBox="0 0 281.25 312.20499"
   height="312.20499"
   width="281.25"
   xml:space="preserve"
   version="1.1"
   id="svg2"><metadata
     id="metadata8"><rdf:RDF><cc:Work
         rdf:about=""><dc:format>image/svg+xml</dc:format><dc:type
           rdf:resource="http://purl.org/dc/dcmitype/StillImage" /></cc:Work></rdf:RDF></metadata><defs
     id="defs6"><clipPath
       id="clipPath20"
       clipPathUnits="userSpaceOnUse"><path
         id="path22"
         d="m 0,0 225,0 0,249.764 -225,0 L 0,0 Z" /></clipPath><clipPath
       id="clipPath40"
       clipPathUnits="userSpaceOnUse"><path
         id="path42"
         d="m 0,0 225,0 0,249.764 -225,0 L 0,0 Z" /></clipPath><clipPath
       id="clipPath64"
       clipPathUnits="userSpaceOnUse"><path
         id="path66"
         d="m 0,249.764 225,0 L 225,0 0,0 0,249.764 Z" /></clipPath><clipPath
       id="clipPath232"
       clipPathUnits="userSpaceOnUse"><path
         id="path234"
         d="m 54.6577,161.797 20.4479,0 0,-31.881 -20.4479,0 0,31.881 z" /></clipPath><clipPath
       id="clipPath248"
       clipPathUnits="userSpaceOnUse"><path
         id="path250"
         d="m 51.1421,186.91 10.9936,0 0,-18.018 -10.9936,0 0,18.018 z" /></clipPath><clipPath
       id="clipPath264"
       clipPathUnits="userSpaceOnUse"><path
         id="path266"
         d="m 51.1421,186.734 6.3205,0 0,-17.981 -6.3205,0 0,17.981 z" /></clipPath><clipPath
       id="clipPath280"
       clipPathUnits="userSpaceOnUse"><path
         id="path282"
         d="m 77.8183,194.693 9.1699,0 0,-15.442 -9.1699,0 0,15.442 z" /></clipPath><clipPath
       id="clipPath296"
       clipPathUnits="userSpaceOnUse"><path
         id="path298"
         d="m 82.7745,172.892 25.7915,0 0,-42.897 -25.7915,0 0,42.897 z" /></clipPath><clipPath
       id="clipPath312"
       clipPathUnits="userSpaceOnUse"><path
         id="path314"
         d="m 56.2524,189.448 10.6649,0 0,-14.657 -10.6649,0 0,14.657 z" /></clipPath><clipPath
       id="clipPath328"
       clipPathUnits="userSpaceOnUse"><path
         id="path330"
         d="m 65.3405,167.334 23.8429,0 0,-48.199 -23.8429,0 0,48.199 z" /></clipPath><clipPath
       id="clipPath344"
       clipPathUnits="userSpaceOnUse"><path
         id="path346"
         d="m 55.2048,160.906 12.1171,0 0,-24.452 -12.1171,0 0,24.452 z" /></clipPath></defs><g
     transform="matrix(1.25,0,0,-1.25,0,312.205)"
     id="g10"><g
       transform="translate(1.449,45.846)"
       id="g12"><path
         id="path14"
         style="fill:#f5f5f5;fill-opacity:1;fill-rule:nonzero;stroke:none"
         d="M 0,0 166.043,-45.469 220.074,150.89 56.008,198.332 0,0 Z" /></g><g
       id="g16"><g
         clip-path="url(#clipPath20)"
         id="g18"><g
           transform="translate(57.457,244.1777)"
           id="g24"><path
             id="path26"
             style="fill:none;stroke:#100f0d;stroke-width:0.61000001;stroke-linecap:butt;stroke-linejoin:miter;stroke-miterlimit:10;stroke-dasharray:none;stroke-opacity:1"
             d="M 0,0 164.066,-47.441 110.035,-243.801 -56.008,-198.332 0,0 Z" /></g></g></g><g
       transform="translate(64.8442,228.7324)"
       id="g28"><path
         id="path30"
         style="fill:#f5f5f5;fill-opacity:1;fill-rule:nonzero;stroke:none"
         d="M 0,0 -40.489,-142.278 99.195,-183.539 141.894,-40.949 0,0 Z" /></g><g
       transform="translate(64.8442,228.7324)"
       id="g32"><path
         id="path34"
         style="fill:none;stroke:#000000;stroke-width:0.639;stroke-linecap:butt;stroke-linejoin:miter;stroke-miterlimit:4;stroke-dasharray:none;stroke-opacity:1"
         d="M 0,0 -40.489,-142.278 99.195,-183.539 141.894,-40.949 0,0 Z" /></g><g
       id="g36"><g
         clip-path="url(#clipPath40)"
         id="g38"><g
           transform="translate(0.3789,200.7554)"
           id="g44"><path
             id="path46"
             style="fill:none;stroke:#100f0d;stroke-width:0.61000001;stroke-linecap:butt;stroke-linejoin:miter;stroke-miterlimit:10;stroke-dasharray:none;stroke-opacity:1"
             d="M 0,0 163.723,48.629 224.234,-145.82 59.918,-197.183 0,0 Z" /></g></g></g><g
       transform="translate(0.3789,200.7558)"
       id="g48"><path
         id="path50"
         style="fill:#f5f5f5;fill-opacity:1;fill-rule:nonzero;stroke:none"
         d="M 0,0 59.918,-197.184 224.234,-145.821 163.723,48.629 0,0 Z" /></g><g
       transform="translate(15.8398,190.2441)"
       id="g52"><path
         id="path54"
         style="fill:#e8e7e5;fill-opacity:1;fill-rule:nonzero;stroke:none"
         d="M 0,0 139.629,42.929 183.102,-97.27 44.558,-141.066 0,0 Z" /></g><g
       transform="translate(15.8398,190.2441)"
       id="g56"><path
         id="path58"
         style="fill:none;stroke:#100f0d;stroke-width:0.49700001;stroke-linecap:butt;stroke-linejoin:miter;stroke-miterlimit:10;stroke-dasharray:none;stroke-opacity:1"
         d="M 0,0 139.629,42.929 183.102,-97.27 44.558,-141.066 0,0 Z" /></g><g
       id="g60"><g
         clip-path="url(#clipPath64)"
         id="g62"><g
           transform="translate(124.4609,88.2129)"
           id="g68"><path
             id="path70"
             style="fill:#cccbcb;fill-opacity:1;fill-rule:nonzero;stroke:none"
             d="m 0,0 c 0.875,-1.509 2.259,-1.889 3.788,-1.973 1.681,-0.09 3.371,-0.292 5.031,-0.021 2.559,0.417 4.843,1.522 7.013,2.928 0.86,0.556 0.746,-1.505 1.226,-0.679 0.256,0.443 -1.183,-2.001 0,0 0.004,0.008 2.129,-0.163 2.127,-0.171 C 17.964,-2.909 14.896,-2.03 12.127,-3.262 9.808,-4.294 7.356,-4.717 4.82,-4.655 3.496,-4.622 2.2,-4.305 0.999,-3.639 -0.138,-3.008 -0.457,-2.228 -0.15,-0.931 -0.078,-0.627 -0.049,-0.311 0,0" /></g><g
           transform="translate(96.4365,102.6953)"
           id="g72"><path
             id="path74"
             style="fill:#c0272d;fill-opacity:1;fill-rule:nonzero;stroke:none"
             d="m 0,0 c 2.878,0.799 5.791,1.322 8.797,1.153 1.47,-0.082 2.296,-0.748 2.893,-2.197 1.356,-3.292 1.084,-6.806 1.726,-10.187 0.779,-4.107 1.322,-8.26 2.158,-12.355 0.371,-1.819 -0.257,-2.912 -1.617,-3.915 -1.05,-0.773 -2.349,-1.179 -3.222,-2.204 -2.923,-1.024 -5.845,-2.048 -8.768,-3.071 -1.522,-0.101 -3.044,-0.212 -4.567,-0.296 -1.398,-0.077 -2.318,0.468 -3.031,1.784 -2.782,5.136 -5.502,10.323 -8.649,15.232 -1.079,1.685 -1.93,3.362 -2.696,5.166 -0.588,1.387 -0.137,2.324 0.807,3.234 1.771,1.706 3.877,2.93 6.068,3.962 2.241,1.054 4.482,2.147 6.893,2.799 0.424,-1.627 0.233,-3.254 -0.008,-4.881 -2.304,-1.751 -5.293,-2.226 -7.695,-4.036 2.754,-0.498 13.36,3.098 16.855,5.714 C 4.933,-3.753 4.152,-4.25 3.342,-4.321 2.129,-4.428 0.834,-5.498 -0.3,-4.119 L 0,0 Z" /></g><g
           transform="translate(96.4365,102.6953)"
           id="g76"><path
             id="path78"
             style="fill:none;stroke:#000000;stroke-width:0.33199999;stroke-linecap:butt;stroke-linejoin:miter;stroke-miterlimit:10;stroke-dasharray:none;stroke-opacity:1"
             d="m 0,0 c 2.878,0.799 5.791,1.322 8.797,1.153 1.47,-0.082 2.296,-0.748 2.893,-2.197 1.356,-3.292 1.084,-6.806 1.726,-10.187 0.779,-4.107 1.322,-8.26 2.158,-12.355 0.371,-1.819 -0.257,-2.912 -1.617,-3.915 -1.05,-0.773 -2.349,-1.179 -3.222,-2.204 -2.923,-1.024 -5.845,-2.048 -8.768,-3.071 -1.522,-0.101 -3.044,-0.212 -4.567,-0.296 -1.398,-0.077 -2.318,0.468 -3.031,1.784 -2.782,5.136 -5.502,10.323 -8.649,15.232 -1.079,1.685 -1.93,3.362 -2.696,5.166 -0.588,1.387 -0.137,2.324 0.807,3.234 1.771,1.706 3.877,2.93 6.068,3.962 2.241,1.054 4.482,2.147 6.893,2.799 0.424,-1.627 0.233,-3.254 -0.008,-4.881 -2.304,-1.751 -5.293,-2.226 -7.695,-4.036 2.754,-0.498 13.36,3.098 16.855,5.714 C 4.933,-3.753 4.152,-4.25 3.342,-4.321 2.129,-4.428 0.834,-5.498 -0.3,-4.119 L 0,0 Z" /></g><g
           transform="translate(95.3213,98.9609)"
           id="g80"><path
             id="path82"
             style="fill:#252525;fill-opacity:1;fill-rule:nonzero;stroke:none"
             d="M 0,0 C 2.054,0.41 4.104,0.833 6.162,1.222 6.701,1.323 7.259,1.338 7.809,1.354 8.138,1.365 8.505,1.324 8.66,0.972 8.858,0.518 8.533,0.208 8.219,0.007 7.292,-0.588 6.366,-1.201 5.378,-1.683 0.288,-4.159 -5.024,-5.999 -10.598,-7.025 c -0.824,-0.153 -2.104,-0.611 -2.43,0.271 -0.395,1.066 0.965,1.415 1.723,1.852 2.156,1.242 4.411,2.286 6.785,3.054 0.52,0.168 1.035,0.419 1.604,0.191 0.016,-0.496 -0.468,-1.355 0.305,-1.368 0.943,-0.017 2,0.348 2.424,1.389 C 0.012,-1.146 -0.054,-0.549 0,0" /></g><g
           transform="translate(111.896,126.291)"
           id="g84"><path
             id="path86"
             style="fill:#69bc45;fill-opacity:1;fill-rule:nonzero;stroke:none"
             d="m 0,0 c 0.046,-0.59 -0.413,-0.876 -0.76,-1.21 -3.195,-3.069 -5.512,-6.688 -7.083,-10.839 -1.707,-4.51 -5.821,-6.777 -10.713,-6.07 -0.511,0.074 -0.987,0.066 -1.437,-0.206 -0.069,0.141 -0.139,0.283 -0.209,0.425 -0.204,0.569 -0.303,1.21 -0.631,1.696 -1.188,1.765 -0.93,3.618 -0.17,5.34 1.758,3.982 4.122,7.507 8.275,9.421 3.243,1.494 6.685,1.98 10.199,1.767 C -1.712,0.274 -0.756,0.694 0,0" /></g><g
           transform="translate(86.5688,117.6631)"
           id="g88"><path
             id="path90"
             style="fill:#69bc45;fill-opacity:1;fill-rule:nonzero;stroke:none"
             d="m 0,0 c 1.807,0.079 2.184,-5.466 2.741,-6.836 1.841,-4.528 3.799,-7.369 0.947,-12.268 -1.615,-2.773 2.685,-5.281 4.297,-2.511 1.678,2.881 2.673,5.825 2.237,9.199 C 9.789,-9.064 7.708,-6.539 6.827,-3.358 5.67,0.813 5.573,5.219 0,4.977 -3.19,4.838 -3.208,-0.14 0,0" /></g><g
           transform="translate(55.7759,181.7217)"
           id="g92"><path
             id="path94"
             style="fill:#0973b9;fill-opacity:1;fill-rule:nonzero;stroke:none"
             d="m 0,0 c 0,0 -15.639,-36.741 22.754,-54.657 7.45,-3.477 21.427,8.994 13.782,36.573 C 32.633,-4.009 24.069,3.563 15.779,6.387 3.114,10.7 0,0 0,0" /></g><g
           transform="translate(73.0542,167.3936)"
           id="g96"><path
             id="path98"
             style="fill:#eff0ea;fill-opacity:1;fill-rule:nonzero;stroke:none"
             d="m 0,0 c 1.661,-4.74 -0.146,-9.688 -4.035,-11.05 -3.889,-1.363 -8.389,1.375 -10.049,6.115 -1.661,4.74 0.145,9.687 4.035,11.05 C -6.16,7.478 -1.661,4.74 0,0" /></g><g
           transform="translate(84.9819,173.0942)"
           id="g100"><path
             id="path102"
             style="fill:#eff0ea;fill-opacity:1;fill-rule:nonzero;stroke:none"
             d="m 0,0 c 1.875,-4.151 0.82,-8.679 -2.355,-10.113 -3.176,-1.435 -7.271,0.767 -9.146,4.918 -1.875,4.15 -0.82,8.678 2.355,10.112 C -5.97,6.352 -1.875,4.15 0,0" /></g><g
           transform="translate(69.6958,166.2168)"
           id="g104"><path
             id="path106"
             style="fill:#1a9948;fill-opacity:1;fill-rule:nonzero;stroke:none"
             d="M 0,0 C 0.788,-2.249 -0.002,-4.572 -1.765,-5.189 -3.527,-5.807 -5.594,-4.485 -6.382,-2.236 -7.17,0.012 -6.38,2.336 -4.617,2.953 -2.855,3.571 -0.788,2.249 0,0" /></g><g
           transform="translate(82.7744,171.7378)"
           id="g108"><path
             id="path110"
             style="fill:#1a9948;fill-opacity:1;fill-rule:nonzero;stroke:none"
             d="m 0,0 c 0.783,-2.235 0.112,-4.504 -1.498,-5.068 -1.61,-0.564 -3.551,0.79 -4.334,3.025 C -6.615,0.191 -5.944,2.46 -4.333,3.025 -2.723,3.589 -0.783,2.235 0,0" /></g><g
           transform="translate(65.0654,164.5942)"
           id="g112"><path
             id="path114"
             style="fill:#14170f;fill-opacity:1;fill-rule:nonzero;stroke:none"
             d="M 0,0 C -0.427,1.217 -0.017,2.469 0.916,2.796 1.848,3.123 2.95,2.4 3.376,1.183 3.803,-0.034 3.393,-1.286 2.46,-1.612 1.528,-1.939 0.426,-1.217 0,0" /></g><g
           transform="translate(78.3296,170.1655)"
           id="g116"><path
             id="path118"
             style="fill:#14170f;fill-opacity:1;fill-rule:nonzero;stroke:none"
             d="M 0,0 C -0.43,1.228 -0.009,2.493 0.939,2.825 1.889,3.158 3.007,2.432 3.437,1.204 3.867,-0.024 3.446,-1.289 2.498,-1.621 1.548,-1.954 0.431,-1.228 0,0" /></g><g
           transform="translate(63.6343,165.96)"
           id="g120"><path
             id="path122"
             style="fill:#ffffff;fill-opacity:1;fill-rule:nonzero;stroke:none"
             d="M 0,0 C -0.02,0.746 0.437,1.364 1.022,1.379 1.607,1.396 2.098,0.803 2.118,0.057 2.138,-0.689 1.68,-1.307 1.096,-1.322 0.511,-1.338 0.02,-0.746 0,0" /></g><g
           transform="translate(78.8931,172.1123)"
           id="g124"><path
             id="path126"
             style="fill:#ffffff;fill-opacity:1;fill-rule:nonzero;stroke:none"
             d="m 0,0 c -0.055,-0.643 -0.447,-1.134 -0.876,-1.098 -0.429,0.036 -0.732,0.587 -0.678,1.23 0.055,0.643 0.447,1.135 0.876,1.098 C -0.249,1.194 0.055,0.643 0,0" /></g><g
           transform="translate(78.2183,169.8442)"
           id="g128"><path
             id="path130"
             style="fill:#ffffff;fill-opacity:1;fill-rule:nonzero;stroke:none"
             d="m 0,0 c -0.133,-0.172 -0.36,-0.22 -0.506,-0.107 -0.146,0.113 -0.156,0.344 -0.023,0.516 0.134,0.173 0.361,0.22 0.507,0.108 C 0.123,0.403 0.133,0.172 0,0" /></g><g
           transform="translate(58.9014,174.4629)"
           id="g132"><path
             id="path134"
             style="fill:#0973b9;fill-opacity:1;fill-rule:nonzero;stroke:none"
             d="M 0,0 C 0.584,1.039 0.814,2.34 1.626,3.232 3.118,4.872 4.749,3.25 5.716,2.003 5.923,1.736 6.292,2.11 6.087,2.375 5.193,3.528 3.87,4.95 2.241,4.316 0.612,3.682 0.301,1.606 -0.454,0.265 -0.619,-0.03 -0.166,-0.295 0,0" /></g><g
           transform="translate(50.9155,181.0312)"
           id="g136"><path
             id="path138"
             style="fill:#4a85a4;fill-opacity:1;fill-rule:nonzero;stroke:none"
             d="m 0,0 c 1.727,-4.091 3.454,-8.181 5.181,-12.272 0.067,-0.16 0.305,-0.16 0.412,-0.053 0.891,0.89 1.806,1.762 2.675,2.674 1.913,2.008 3.369,4.177 6.691,3.002 0.319,-0.113 0.457,0.394 0.14,0.506 C 11.877,-5.003 10.378,-6.476 8.457,-8.72 7.712,-9.589 6.699,-10.267 6.002,-11.174 5.651,-11.631 5.051,-11.707 5.621,-11.976 5.53,-11.933 5.419,-11.51 5.384,-11.413 3.934,-7.46 2.091,-3.615 0.454,0.265 0.322,0.576 -0.13,0.308 0,0" /></g><g
           transform="translate(73.0352,176.5693)"
           id="g140"><path
             id="path142"
             style="fill:#4a85a4;fill-opacity:1;fill-rule:nonzero;stroke:none"
             d="M 0,0 C 1.515,1.928 3.662,3.633 6.25,2.713 6.569,2.6 6.707,3.107 6.39,3.22 3.646,4.194 1.261,2.449 -0.372,0.372 -0.578,0.108 -0.208,-0.266 0,0" /></g><g
           transform="translate(58.4775,154.8774)"
           id="g144"><path
             id="path146"
             style="fill:#597d9f;fill-opacity:1;fill-rule:nonzero;stroke:none"
             d="m 0,0 c 3.995,0.28 7.99,0.56 11.984,0.84 0.274,0.019 0.382,0.472 0.07,0.515 C 9.785,1.672 7.575,1.638 5.317,1.248 4.984,1.19 5.125,0.684 5.457,0.741 7.638,1.118 9.719,1.155 11.915,0.849 11.938,1.021 11.961,1.193 11.984,1.365 7.99,1.085 3.995,0.805 0,0.525 -0.335,0.502 -0.338,-0.023 0,0" /></g><g
           transform="translate(82.252,161.2085)"
           id="g148"><path
             id="path150"
             style="fill:#597d9f;fill-opacity:1;fill-rule:nonzero;stroke:none"
             d="M 0,0 C 0.957,1.705 2.414,3.018 4.224,3.764 4.532,3.891 4.396,4.399 4.084,4.271 2.144,3.47 0.575,2.098 -0.454,0.265 -0.619,-0.03 -0.166,-0.295 0,0" /></g><g
           transform="translate(86.5659,157.4478)"
           id="g152"><path
             id="path154"
             style="fill:#a5897a;fill-opacity:1;fill-rule:nonzero;stroke:none"
             d="m 0,0 c -0.198,-3.707 -1.659,-7.352 -5.025,-9.273 -3.358,-1.917 -7.333,-1.222 -9.779,1.741 -0.354,0.429 -0.963,-0.185 -0.611,-0.612 2.457,-2.975 6.439,-3.897 9.976,-2.309 C -1.293,-8.59 0.633,-4.33 0.865,0 0.895,0.556 0.03,0.555 0,0" /></g><g
           transform="translate(71.1582,151.4033)"
           id="g156"><path
             id="path158"
             style="fill:#a5897a;fill-opacity:1;fill-rule:nonzero;stroke:none"
             d="m 0,0 c -0.292,-1.073 -1.202,-1.921 -2.319,-2.063 -0.545,-0.069 -0.552,-0.935 0,-0.865 1.505,0.192 2.751,1.219 3.152,2.699 C 0.979,0.308 0.146,0.537 0,0" /></g><g
           transform="translate(84.7144,158.2769)"
           id="g160"><path
             id="path162"
             style="fill:#a5897a;fill-opacity:1;fill-rule:nonzero;stroke:none"
             d="M 0,0 C 1.156,-1.592 3.292,-1.825 4.726,-0.45 5.128,-0.063 4.516,0.547 4.115,0.162 3.11,-0.801 1.575,-0.705 0.747,0.437 0.423,0.882 -0.328,0.451 0,0" /></g><g
           transform="translate(76.3394,126.9292)"
           id="g164"><path
             id="path166"
             style="fill:none;stroke:#597d9f;stroke-width:0.105;stroke-linecap:butt;stroke-linejoin:miter;stroke-miterlimit:10;stroke-dasharray:none;stroke-opacity:1"
             d="m 0,0 c 0,0 -6.447,17.935 -14.45,15.271 -0.286,2.294 -8.942,17.025 -8.942,17.025" /></g><g
           transform="translate(63.2139,134.7026)"
           id="g168"><path
             id="path170"
             style="fill:#000000;fill-opacity:1;fill-rule:nonzero;stroke:none"
             d="m 0,0 c -7.615,-3.522 -13.317,6.096 -17.779,10.869 -1.74,1.86 -4.528,-0.936 -2.793,-2.792 C -14.368,1.441 -8.184,-8.118 1.993,-3.41 4.297,-2.344 2.293,1.061 0,0" /></g><g
           transform="translate(112.8232,167.0718)"
           id="g172"><path
             id="path174"
             style="fill:#000000;fill-opacity:1;fill-rule:nonzero;stroke:none"
             d="m 0,0 c 0.903,-1.443 2.574,-3.413 2.92,-5.138 0.291,-1.457 -0.602,-2.794 -1.234,-4.068 -3.008,-6.058 -7.558,-5.974 -13.335,-4.354 -2.451,0.687 -3.497,-3.121 -1.05,-3.808 3.472,-0.974 6.522,-1.895 10.146,-0.896 3.292,0.908 5.562,3.124 7.147,6.074 1.035,1.927 2.444,4.295 2.385,6.568 C 6.908,-2.859 4.797,-0.221 3.41,1.993 2.064,4.142 -1.354,2.162 0,0" /></g><g
           transform="translate(115.9795,164.6821)"
           id="g176"><path
             id="path178"
             style="fill:#ffffff;fill-opacity:1;fill-rule:nonzero;stroke:none"
             d="m 0,0 c -1.512,-0.845 -3.463,-0.612 -4.958,0.265 -1.494,0.876 -2.588,2.307 -3.427,3.823 -0.583,1.053 -1.069,2.316 -0.624,3.434 0.446,1.12 2.258,1.595 2.838,0.54 0.415,-0.757 -0.01,-1.832 0.555,-2.484 0.675,-0.78 2.075,-0.048 2.319,0.954 0.244,1.002 -0.199,2.024 -0.472,3.018 -0.272,0.995 -0.3,2.234 0.513,2.868 1.719,1.269 4.259,1.239 5.993,-0.008 C 4.471,11.162 5.307,8.818 4.829,6.736 4.191,3.954 1.636,2.102 -0.734,0.511" /></g><g
           transform="translate(115.7354,165.1001)"
           id="g180"><path
             id="path182"
             style="fill:#231f20;fill-opacity:1;fill-rule:nonzero;stroke:none"
             d="m 0,0 c -2.144,-0.91 -4.188,-0.245 -5.738,1.232 -0.585,0.558 -1.85,1.851 -1.985,2.682 0.98,2.682 1.503,3.391 1.567,2.126 0.012,-0.151 0.03,-0.302 0.051,-0.452 0.199,-0.148 0.194,-0.568 0.391,-0.77 0.95,-0.976 2.416,-0.251 2.943,0.772 0.354,0.685 0.277,1.423 0.143,2.164 -0.15,0.831 -0.696,1.771 -0.584,2.635 0.275,2.124 3.207,2.304 4.639,1.842 C 4.714,11.17 5.449,7.136 3.749,4.479 2.67,2.793 0.884,1.609 -0.734,0.511 -1.246,0.163 -0.763,-0.675 -0.246,-0.324 3.434,2.174 8.015,6.575 4.448,11.213 2.24,14.086 -4.705,14.486 -4.12,9.623 -4.049,9.029 -3.407,8.011 -3.561,7.497 -4.115,7.119 -4.668,6.741 -5.222,6.363 -5.221,6.629 -5.24,6.894 -5.278,7.157 -5.661,7.679 -5.504,8.147 -6.18,8.514 -7.722,9.353 -9.267,7.829 -9.403,6.373 -9.609,4.178 -7.652,1.608 -6.096,0.268 -4.162,-1.399 -1.845,-1.825 0.488,-0.835 1.06,-0.593 0.567,0.24 0,0" /></g><g
           transform="translate(42.2661,143.1187)"
           id="g184"><path
             id="path186"
             style="fill:#ffffff;fill-opacity:1;fill-rule:nonzero;stroke:none"
             d="M 0,0 C 1.656,0.537 2.818,2.134 3.195,3.834 3.571,5.534 3.264,7.319 2.72,8.973 2.343,10.123 1.745,11.344 0.616,11.781 -0.513,12.218 -2.102,11.208 -1.721,10.059 -1.448,9.236 -0.365,8.814 -0.27,7.952 -0.157,6.921 -1.653,6.39 -2.559,6.895 -3.464,7.4 -3.914,8.425 -4.46,9.306 c -0.547,0.881 -1.441,1.748 -2.464,1.583 -2.11,-0.4 -3.825,-2.291 -4.09,-4.422 -0.266,-2.13 0.889,-4.349 2.749,-5.421 2.487,-1.431 5.598,-0.814 8.39,-0.155" /></g><g
           transform="translate(42.5112,142.6992)"
           id="g188"><path
             id="path190"
             style="fill:#231f20;fill-opacity:1;fill-rule:nonzero;stroke:none"
             d="m 0,0 c 2.173,0.935 3.423,2.928 3.583,5.282 0.144,2.135 -0.412,5.573 -2.302,6.95 -1.033,0.754 -2.73,0.761 -3.481,-0.454 -0.315,-0.511 -0.359,-0.977 -0.185,-1.545 -0.075,0.245 0.826,-1.525 0.868,-1.137 -0.882,-1.273 -1.534,-1.402 -1.957,-0.388 -0.304,0.4 -0.574,0.82 -0.812,1.263 -2.865,3.84 -7.635,0.173 -7.494,-3.885 0.223,-6.399 7.242,-6.289 11.79,-5.244 0.609,0.139 0.351,1.077 -0.259,0.937 -2.098,-0.482 -4.427,-1.047 -6.572,-0.474 -3.439,0.919 -5.33,5.231 -2.741,8.098 1.455,1.611 3.51,0.965 4.837,-0.6 0.279,-0.329 0.443,-0.739 0.734,-1.067 0.604,-0.681 1.166,-1.112 2.1,-1.071 1.878,0.083 1.532,1.189 1.616,2.413 0.025,0.347 -0.76,0.244 -0.555,0.705 0.769,0.241 1.538,0.482 2.307,0.723 C 1.841,9.789 2.115,9.039 2.3,8.257 3.039,5.335 2.518,2.134 -0.491,0.839 -1.063,0.593 -0.569,-0.245 0,0" /></g><g
           transform="translate(89.7114,169.8345)"
           id="g192"><path
             id="path194"
             style="fill:#333232;fill-opacity:1;fill-rule:nonzero;stroke:none"
             d="M 0,0 -37.894,-10.618 -40.591,-0.989 -2.698,9.629 0,0 Z" /></g><g
           transform="translate(67.3857,167.7788)"
           id="g196"><path
             id="path198"
             style="fill:#ffffff;fill-opacity:1;fill-rule:nonzero;stroke:none"
             d="m 0,0 c 0.098,-1.401 -0.958,-2.616 -2.358,-2.714 -1.401,-0.098 -2.616,0.958 -2.714,2.359 -0.098,1.4 0.958,2.616 2.358,2.714 C -1.313,2.457 -0.098,1.401 0,0" /></g><g
           transform="translate(78.2378,171.3984)"
           id="g200"><path
             id="path202"
             style="fill:#ffffff;fill-opacity:1;fill-rule:nonzero;stroke:none"
             d="m 0,0 c 0.104,-1.476 -1.009,-2.756 -2.485,-2.859 -1.475,-0.103 -2.756,1.009 -2.859,2.484 -0.103,1.477 1.009,2.756 2.485,2.86 C -1.383,2.588 -0.104,1.476 0,0" /></g><g
           transform="translate(76.5068,170.7637)"
           id="g204"><path
             id="path206"
             style="fill:#231f20;fill-opacity:1;fill-rule:nonzero;stroke:none"
             d="M 0,0 C 1.316,0 1.318,2.046 0,2.046 -1.316,2.046 -1.318,0 0,0" /></g><g
           transform="translate(64.52,166.2329)"
           id="g208"><path
             id="path210"
             style="fill:#231f20;fill-opacity:1;fill-rule:nonzero;stroke:none"
             d="M 0,0 C 1.316,0 1.318,2.046 0,2.046 -1.316,2.046 -1.318,0 0,0" /></g><g
           transform="translate(44.1782,180.5303)"
           id="g212"><path
             id="path214"
             style="fill:#615c5e;fill-opacity:1;fill-rule:nonzero;stroke:none"
             d="M 0,0 C 12.313,7.358 25.845,12.67 39.875,15.651 40.854,10.007 41.832,4.364 42.81,-1.28 30.044,-7.356 16.435,-11.66 2.496,-14.028 2.307,-8.571 0.287,-3.194 -3.163,1.039 c 1.241,0.003 2.482,0.006 3.723,0.01" /></g><g
           transform="translate(54.7661,161.8242)"
           id="g216"><path
             id="path218"
             style="fill:#615c5e;fill-opacity:1;fill-rule:nonzero;stroke:none"
             d="m 0,0 c 11.537,4.347 23.074,8.693 34.611,13.04 6.562,-12.641 13.123,-25.281 19.685,-37.922 -1.923,-3.81 -4.729,-7.171 -8.134,-9.744 -4.27,-3.226 -9.353,-5.157 -14.359,-7.047 -5.278,-1.992 -12.04,-3.682 -15.895,0.436 -2.16,2.307 -2.555,5.699 -3.72,8.638 -2.142,5.404 -7.314,9.486 -13.068,10.312 2.681,2.273 1.123,6.65 -0.909,9.517 -2.031,2.868 -4.486,6.394 -2.96,9.559 1.447,3.001 5.459,3.451 8.791,3.491" /></g><g
           transform="translate(49.5674,169.8882)"
           id="g220"><path
             id="path222"
             style="fill:#615c5e;fill-opacity:1;fill-rule:nonzero;stroke:none"
             d="m 0,0 c 0.28,1.595 2.609,2.018 3.926,1.076 1.317,-0.943 1.842,-2.62 2.285,-4.178 l 2.498,-8.773 c -3.316,-0.53 -6.633,-1.062 -9.95,-1.593 1.049,4.318 0.366,9.03 -1.865,12.872" /></g><g
           transform="translate(81.8765,180.1104)"
           id="g224"><path
             id="path226"
             style="fill:#615c5e;fill-opacity:1;fill-rule:nonzero;stroke:none"
             d="m 0,0 c 1.33,-3.935 3.345,-7.637 5.928,-10.889 1.242,0.738 2.484,1.476 3.726,2.215 C 7.673,-5.079 5.3,-1.7 2.588,1.382 1.846,2.227 0.963,3.106 -0.159,3.182 -1.281,3.257 -2.44,1.965 -1.814,1.03" /></g><g
           id="g228"><g
             id="g230" /><g
             id="g236"><g
               style="opacity:0.30000299"
               id="g238"
               clip-path="url(#clipPath232)"><g
                 id="g240"
                 transform="translate(54.6577,159.3447)"><path
                   id="path242"
                   style="fill:#989194;fill-opacity:1;fill-rule:nonzero;stroke:none"
                   d="M 0,0 8.675,2.452 20.448,-29.429 3.553,-17.401 0,0 Z" /></g></g></g></g><g
           id="g244"><g
             id="g246" /><g
             id="g252"><g
               id="g254"
               clip-path="url(#clipPath248)"><g
                 id="g256"
                 transform="translate(51.1421,181.1636)"><path
                   id="path258"
                   style="fill:#989194;fill-opacity:1;fill-rule:nonzero;stroke:none"
                   d="m 0,0 5.181,-12.272 5.813,1.068 L 5.11,5.747 0,0 Z" /></g></g></g></g><g
           id="g260"><g
             id="g262" /><g
             id="g268"><g
               style="opacity:0.30000299"
               id="g270"
               clip-path="url(#clipPath264)"><g
                 id="g272"
                 transform="translate(51.1421,181.1636)"><path
                   id="path274"
                   style="fill:#bbbdbf;fill-opacity:1;fill-rule:nonzero;stroke:none"
                   d="M 0,0 3.203,-12.41 6.32,-11.531 2.587,5.57 0,0 Z" /></g></g></g></g><g
           id="g276"><g
             id="g278" /><g
             id="g284"><g
               id="g286"
               clip-path="url(#clipPath280)"><g
                 id="g288"
                 transform="translate(77.8184,194.6934)"><path
                   id="path290"
                   style="fill:#989194;fill-opacity:1;fill-rule:nonzero;stroke:none"
                   d="M 0,0 4.814,-1.15 9.17,-15.443 0,0 Z" /></g></g></g></g><g
           id="g292"><g
             id="g294" /><g
             id="g300"><g
               id="g302"
               clip-path="url(#clipPath296)"><g
                 id="g304"
                 transform="translate(88.3101,172.8926)"><path
                   id="path306"
                   style="fill:#989194;fill-opacity:1;fill-rule:nonzero;stroke:none"
                   d="m 0,0 c 0,0 10.165,-5.803 20.256,-34.994 -4.423,-3.997 -4.472,-7.903 -4.472,-7.903 L -5.536,-1.155 0,0 Z" /></g></g></g></g><g
           id="g308"><g
             id="g310" /><g
             id="g316"><g
               style="opacity:0.30000299"
               id="g318"
               clip-path="url(#clipPath312)"><g
                 id="g320"
                 transform="translate(56.2524,186.9106)"><path
                   id="path322"
                   style="fill:#333232;fill-opacity:1;fill-rule:nonzero;stroke:none"
                   d="M 0,0 5.844,2.537 10.665,-10.571 6.126,-12.12 0,0 Z" /></g></g></g></g><g
           id="g324"><g
             id="g326" /><g
             id="g332"><g
               style="opacity:0.30000299"
               id="g334"
               clip-path="url(#clipPath328)"><g
                 id="g336"
                 transform="translate(65.3403,161.7656)"><path
                   id="path338"
                   style="fill:#333232;fill-opacity:1;fill-rule:nonzero;stroke:none"
                   d="m 0,0 16.056,-42.631 c 0,0 6.258,1.484 7.78,2.272 C 24.25,-34.52 5.352,5.569 5.352,5.569 L 0,0 Z" /></g></g></g></g><g
           id="g340"><g
             id="g342" /><g
             id="g348"><g
               style="opacity:0.30000299"
               id="g350"
               clip-path="url(#clipPath344)"><g
                 id="g352"
                 transform="translate(55.2051,159.0503)"><path
                   id="path354"
                   style="fill:#bbbdbf;fill-opacity:1;fill-rule:nonzero;stroke:none"
                   d="M 0,0 2.5,-14.664 12.117,-22.597 3.424,1.856 0,0 Z" /></g></g></g></g><g
           transform="translate(111.6729,126.9277)"
           id="g356"><path
             id="path358"
             style="fill:#69bc45;fill-opacity:1;fill-rule:nonzero;stroke:none"
             d="m 0,0 c 0.036,-0.455 -0.318,-0.675 -0.585,-0.932 -2.46,-2.363 -4.244,-5.149 -5.454,-8.344 -1.313,-3.472 -4.481,-5.217 -8.247,-4.673 -0.393,0.056 -0.76,0.051 -1.106,-0.159 -0.054,0.109 -0.108,0.218 -0.161,0.327 -0.157,0.438 -0.234,0.931 -0.486,1.305 -0.914,1.359 -0.716,2.787 -0.131,4.112 1.354,3.066 3.173,5.78 6.371,7.253 2.497,1.15 5.146,1.524 7.852,1.361 C -1.318,0.211 -0.582,0.535 0,0" /></g><g
           transform="translate(116.6094,100.498)"
           id="g360"><path
             id="path362"
             style="fill:#866b3a;fill-opacity:1;fill-rule:nonzero;stroke:none"
             d="m 0,0 c -1.61,-0.011 -3.221,0.128 -4.806,0.412 -1.001,0.18 -2.243,0.75 -2.117,1.759 0.12,0.965 1.352,1.248 2.314,1.396 2.964,0.459 5.772,1.885 7.892,4.009 C 2.49,5.089 1.267,2.74 -0.318,0.667" /></g><g
           transform="translate(116.6094,100.9375)"
           id="g364"><path
             id="path366"
             style="fill:#231f20;fill-opacity:1;fill-rule:nonzero;stroke:none"
             d="m 0,0 c -1.381,0.01 -3.706,-0.162 -4.945,0.459 -0.804,0.107 -0.987,0.785 -0.548,2.03 0.329,0.095 0.662,0.166 1.001,0.214 0.632,0.132 1.259,0.238 1.879,0.426 2.36,0.712 4.433,1.999 6.208,3.696 C 3.349,6.968 3.104,7.11 2.858,7.254 2.027,4.782 0.85,2.543 -0.699,0.449 -1.036,-0.007 -0.271,-0.446 0.062,0.005 1.656,2.161 2.854,4.48 3.708,7.02 3.854,7.452 3.274,7.737 2.972,7.448 1.065,5.625 -1.195,4.322 -3.78,3.736 -4.861,3.492 -6.643,3.479 -7.202,2.276 -8.705,-0.959 -1.436,-0.87 0,-0.88 0.567,-0.884 0.567,-0.004 0,0" /></g><g
           transform="translate(122.6162,103.8691)"
           id="g368"><path
             id="path370"
             style="fill:#866b3a;fill-opacity:1;fill-rule:nonzero;stroke:none"
             d="m 0,0 c 2.657,2.627 7.465,2.599 10.09,-0.06 0.757,-0.767 1.359,-1.795 1.253,-2.869 -0.148,-1.493 -1.663,-2.563 -3.159,-2.683 -1.497,-0.121 -2.952,0.485 -4.288,1.167 -1.185,0.605 -2.5,1.58 -2.363,2.903 0.041,0.396 0.217,0.782 0.17,1.178 -0.047,0.395 -0.491,0.78 -0.824,0.561" /></g><g
           transform="translate(122.9277,103.5576)"
           id="g372"><path
             id="path374"
             style="fill:#231f20;fill-opacity:1;fill-rule:nonzero;stroke:none"
             d="M 0,0 C 1.729,1.556 4.099,2.182 6.372,1.625 7.515,1.346 8.64,0.796 9.467,-0.06 11.465,-2.13 10.079,-4.737 7.412,-4.783 6.034,-4.808 4.738,-4.301 3.551,-3.612 2.331,-2.904 1.961,-2.524 1.765,-0.759 1.742,-0.554 1.912,-0.238 1.832,-0.053 1.556,0.592 1.36,1.038 0.567,0.949 0.011,0.887 0.004,0.005 0.567,0.068 0.169,0.023 1.338,-2.968 1.606,-3.257 c 0.993,-1.072 2.567,-1.787 3.946,-2.186 2.24,-0.649 5.532,-0.095 5.904,2.71 C 11.781,-0.285 9.227,1.659 7.17,2.317 4.434,3.194 1.499,2.531 -0.622,0.623 -1.045,0.243 -0.42,-0.378 0,0" /></g><g
           transform="translate(112.0527,95.7266)"
           id="g376"><path
             id="path378"
             style="fill:#866b3a;fill-opacity:1;fill-rule:nonzero;stroke:none"
             d="m 0,0 c -0.907,-0.312 -0.344,-1.342 -0.547,-2.279 -0.203,-0.939 -0.074,-1.913 0.08,-2.861 0.298,-1.83 0.876,-3.902 2.562,-4.674 1.171,-0.538 2.54,-0.269 3.779,0.084 2.331,0.663 4.588,1.587 6.713,2.752 1.779,0.975 3.53,2.186 4.51,3.962 1.554,2.822 0.565,6.767 -2.137,8.521 C 13.539,6.427 11.794,6.756 10.102,6.693 5.855,6.536 1.8,3.85 0,0" /></g><g
           transform="translate(111.7417,96.0381)"
           id="g380"><path
             id="path382"
             style="fill:#231f20;fill-opacity:1;fill-rule:nonzero;stroke:none"
             d="m 0,0 c -2.294,-2.394 -0.576,-9.675 2.744,-10.683 2.454,-0.744 5.454,0.736 7.653,1.689 2.686,1.165 5.938,2.717 7.391,5.445 C 19.865,0.352 17.682,5.175 13.551,6.452 8.112,8.136 2.413,4.645 -0.069,-0.089 -0.332,-0.591 0.428,-1.036 0.692,-0.533 2.482,2.883 5.608,5.34 9.501,5.826 14.417,6.438 19.818,2.129 17.028,-3.104 15.29,-6.364 10.506,-8.198 7.227,-9.264 4.353,-10.198 0.988,-9.112 0.357,-5.798 0.146,-4.687 -0.324,-1.61 0.623,-0.622 1.015,-0.213 0.393,0.41 0,0" /></g><g
           transform="translate(122.3926,97.5156)"
           id="g384"><path
             id="path386"
             style="fill:#231f20;fill-opacity:1;fill-rule:nonzero;stroke:none"
             d="m 0,0 c -0.682,1.725 -2.456,1.63 -3.968,1.086 -1.504,-0.54 -3.93,-1.643 -3.555,-3.666 0.28,-1.51 1.96,-1.787 3.233,-1.529 0.623,0.126 1.196,0.4 1.805,0.573 0.505,0.18 1.026,0.28 1.564,0.304 1.489,-0.05 1.862,-0.942 1.12,-2.676 -0.563,-0.512 -1.81,-0.731 -2.541,-0.907 -0.384,-0.093 -0.77,-0.172 -1.161,-0.237 -0.559,0.13 -1.013,0.016 -1.363,-0.343 0.262,-0.108 0.376,0.318 0.117,0.425 -0.421,0.175 -0.688,-0.052 -0.682,-0.485 0.002,-0.113 0.1,-0.23 0.221,-0.221 1.468,0.105 8.438,0.94 6.281,3.919 -0.878,1.213 -2.433,1.016 -3.674,0.646 -0.534,-0.16 -1.048,-0.406 -1.594,-0.53 -0.528,-0.143 -1.061,-0.166 -1.599,-0.067 -0.329,0.836 -0.659,1.673 -0.989,2.509 0.159,0.768 1.765,1.368 2.436,1.649 1.189,0.498 3.179,1.318 3.924,-0.567 C -0.322,-0.377 0.104,-0.264 0,0" /></g><g
           transform="translate(117.2969,99.2285)"
           id="g388"><path
             id="path390"
             style="fill:#231f20;fill-opacity:1;fill-rule:nonzero;stroke:none"
             d="m 0,0 3.214,-8.561 c 0.099,-0.262 0.524,-0.148 0.425,0.118 L 0.425,0.117 C 0.326,0.38 -0.1,0.267 0,0" /></g><g
           transform="translate(123.7686,105.3916)"
           id="g392"><path
             id="path394"
             style="fill:#866b3a;fill-opacity:1;fill-rule:nonzero;stroke:none"
             d="M 0,0 C 0.279,1.021 0.355,2.098 0.223,3.147 -1.201,2.118 -2.625,1.088 -4.048,0.059 c 0.602,-1.062 1.54,-1.929 2.647,-2.446" /></g><g
           transform="translate(124.1934,105.2744)"
           id="g396"><path
             id="path398"
             style="fill:#231f20;fill-opacity:1;fill-rule:nonzero;stroke:none"
             d="M 0,0 C 0.268,1.085 0.351,2.152 0.238,3.265 0.209,3.561 -0.126,3.86 -0.424,3.645 -1.848,2.615 -3.271,1.586 -4.695,0.556 -4.886,0.418 -4.986,0.174 -4.854,-0.047 c 0.689,-1.136 1.618,-2.006 2.805,-2.602 0.506,-0.254 0.952,0.505 0.445,0.76 -1.058,0.532 -1.875,1.276 -2.489,2.287 -0.053,-0.201 -0.105,-0.402 -0.158,-0.602 L 0.021,2.884 C -0.2,3.011 -0.422,3.138 -0.643,3.265 -0.537,2.227 -0.599,1.251 -0.849,0.234 -0.984,-0.315 -0.136,-0.551 0,0" /></g><g
           transform="translate(127.7236,103.5137)"
           id="g400"><path
             id="path402"
             style="fill:#231f20;fill-opacity:1;fill-rule:nonzero;stroke:none"
             d="m 0,0 c -0.556,-0.513 -1.112,-1.025 -1.668,-1.539 -0.209,-0.192 0.104,-0.503 0.312,-0.311 0.555,0.513 1.111,1.026 1.668,1.538 C 0.52,-0.119 0.208,0.192 0,0" /></g><g
           transform="translate(128.709,100.4795)"
           id="g404"><path
             id="path406"
             style="fill:#231f20;fill-opacity:1;fill-rule:nonzero;stroke:none"
             d="M 0,0 C 0.487,0.141 0.975,0.281 1.462,0.423 1.733,0.501 1.618,0.927 1.345,0.848 0.857,0.706 0.37,0.565 -0.117,0.424 -0.389,0.346 -0.273,-0.079 0,0" /></g><g
           transform="translate(112.6113,74.9131)"
           id="g408"><path
             id="path410"
             style="fill:#866b3a;fill-opacity:1;fill-rule:nonzero;stroke:none"
             d="m 0,0 c 1.244,0.449 -2.49,11.068 -1.728,12.031 0.762,0.963 6.626,4.118 7.858,4.591 1.231,0.474 2.997,0.147 3.501,-0.969 l 3.46,0.091 c -0.128,-0.815 -1.236,-1.121 -2.112,-1.411 -0.876,-0.29 -1.807,-1.11 -1.281,-1.81 0.236,-0.312 0.676,-0.443 1.083,-0.552 3.545,-0.955 7.251,-1.921 10.861,-1.388 1.584,0.234 3.406,0.703 4.675,-0.2 0.591,-0.421 0.914,-1.061 1.43,-1.551 0.517,-0.49 1.44,-0.808 1.998,-0.384 C 30.186,8.153 30.062,7.509 29.647,7.209 29.232,6.908 28.652,6.856 28.108,6.817 24.383,6.549 3.726,0.269 0,0" /></g><g
           transform="translate(112.9824,74.542)"
           id="g412"><path
             id="path414"
             style="fill:#231f20;fill-opacity:1;fill-rule:nonzero;stroke:none"
             d="m 0,0 c 1.19,1.269 -0.11,4.464 -0.429,5.835 -0.342,1.475 -1.686,4.384 -1.244,5.858 0.482,1.606 4.233,3.262 5.6,3.829 1.983,0.823 3.048,0.544 5.333,-0.022 2.748,-0.681 0.788,0.426 -0.131,-1.193 -1.361,-2.4 2.008,-2.737 3.828,-3.159 2.782,-0.643 5.447,-0.977 8.314,-0.717 2.22,0.2 3.128,0.35 5.047,-0.797 C 26.029,9.807 28.15,7.918 28.095,8.216 28.172,7.806 27.614,7.829 26.742,7.582 25.322,7.18 23.823,6.965 22.386,6.61 14.925,4.77 7.291,1.706 -0.371,0.895 c -0.664,-0.071 -0.671,-1.12 0,-1.048 6.433,0.68 12.862,3.094 19.096,4.736 2.013,0.53 12.466,1.396 11.102,4.501 -0.1,0.229 -0.38,0.272 -0.593,0.241 -1.346,-0.2 -2.769,1.958 -4.129,2.354 -1.3,0.378 -2.892,-0.075 -4.2,-0.187 -2.089,-0.179 -10.244,-0.571 -9.249,3.02 -0.037,-0.133 1.433,1.203 1.516,1.339 0.206,0.334 -0.059,0.798 -0.452,0.789 C 10.131,16.571 8.015,18.136 5.494,17.446 3.471,16.893 -0.774,14.849 -2.045,13.164 -2.83,12.123 -2.723,11.607 -2.52,10.237 -2.282,8.635 0.408,1.966 -0.741,0.741 -1.203,0.25 -0.463,-0.493 0,0" /></g><g
           transform="translate(125.8389,87.3047)"
           id="g416"><path
             id="path418"
             style="fill:#b79148;fill-opacity:1;fill-rule:nonzero;stroke:none"
             d="m 0,0 c -0.42,-0.303 -0.871,-0.618 -1.388,-0.647 -0.517,-0.03 -1.092,0.363 -1.051,0.879 0.032,0.403 0.398,0.687 0.74,0.903 C 0.1,2.272 2.144,3.022 4.252,3.316 3.786,2.676 3.319,2.035 2.854,1.395" /></g><g
           transform="translate(125.7217,87.5049)"
           id="g420"><path
             id="path422"
             style="fill:#f9ec31;fill-opacity:1;fill-rule:nonzero;stroke:none"
             d="m 0,0 c -0.209,-0.158 -0.428,-0.3 -0.657,-0.427 -1.029,0.654 -1.168,1.12 -0.419,1.4 0.43,0.428 1.461,0.769 1.989,0.982 C 2.047,2.412 3.225,2.706 4.431,2.894 4.344,3.007 4.256,3.12 4.169,3.233 3.703,2.593 3.237,1.952 2.771,1.311 2.596,1.069 2.997,0.838 3.171,1.077 3.637,1.718 4.103,2.358 4.569,3 4.702,3.183 4.482,3.367 4.308,3.34 2.929,3.125 1.595,2.762 0.313,2.202 -0.495,1.849 -2.031,1.319 -2.441,0.43 -2.674,-0.077 -2.483,-0.59 -2.017,-0.881 -1.245,-1.362 -0.406,-0.849 0.234,-0.4 0.477,-0.23 0.245,0.172 0,0" /></g><g
           transform="translate(127.9561,89.4268)"
           id="g424"><path
             id="path426"
             style="fill:#b79148;fill-opacity:1;fill-rule:nonzero;stroke:none"
             d="M 0,0 C -0.556,1.009 -0.167,2.33 0.621,3.169 1.41,4.007 2.513,4.466 3.592,4.865 4.657,5.261 5.929,5.6 6.859,4.949 8.016,4.142 7.812,2.24 6.821,1.235 5.832,0.231 4.37,-0.111 2.992,-0.409" /></g><g
           transform="translate(128.1553,89.5439)"
           id="g428"><path
             id="path430"
             style="fill:#f9ec31;fill-opacity:1;fill-rule:nonzero;stroke:none"
             d="M 0,0 C -1.28,2.941 3.785,5.654 6.119,4.714 7.811,4.031 7.31,2.014 6.159,1.036 5.202,0.223 3.927,-0.04 2.731,-0.304 2.44,-0.367 2.563,-0.813 2.854,-0.75 4.538,-0.38 6.6,0.115 7.387,1.844 7.937,3.052 7.726,4.677 6.386,5.243 4.764,5.928 2.255,4.761 0.95,3.814 -0.359,2.863 -1.071,1.31 -0.399,-0.233 -0.281,-0.506 0.118,-0.271 0,0" /></g><g
           transform="translate(126.833,90.7813)"
           id="g432"><path
             id="path434"
             style="fill:#b79148;fill-opacity:1;fill-rule:nonzero;stroke:none"
             d="M 0,0 C -0.209,1.48 0.845,3.032 2.298,3.384 3.751,3.735 5.398,2.837 5.889,1.425" /></g><g
           transform="translate(127.0645,90.7813)"
           id="g436"><path
             id="path438"
             style="fill:#f9ec31;fill-opacity:1;fill-rule:nonzero;stroke:none"
             d="M 0,0 C -0.263,3.242 4.156,4.439 5.434,1.363 5.547,1.092 5.995,1.211 5.881,1.486 4.421,5 -0.775,3.853 -0.463,0 -0.439,-0.295 0.024,-0.297 0,0" /></g><g
           transform="translate(138.4277,92.3955)"
           id="g440"><path
             id="path442"
             style="fill:#b79148;fill-opacity:1;fill-rule:nonzero;stroke:none"
             d="M 0,0 C 0.29,0.541 1.15,0.562 1.574,0.118 1.999,-0.324 2.016,-1.047 1.756,-1.604 1.497,-2.159 1.014,-2.577 0.515,-2.933 -0.895,-3.938 -2.55,-4.594 -4.266,-4.825" /></g><g
           transform="translate(138.5918,92.2314)"
           id="g444"><path
             id="path446"
             style="fill:#f9ec31;fill-opacity:1;fill-rule:nonzero;stroke:none"
             d="M 0,0 C 0.493,-0.1 0.986,-0.199 1.48,-0.299 1.479,-0.562 1.477,-0.824 1.475,-1.088 1.378,-1.469 1.039,-1.865 0.765,-2.144 c -0.468,-0.474 -1.137,-0.847 -1.72,-1.158 -1.111,-0.59 -2.297,-0.945 -3.536,-1.136 -0.293,-0.045 -0.169,-0.492 0.124,-0.447 2.019,0.313 5.47,1.339 6.235,3.53 0.48,1.37 -1.08,3.113 -2.196,1.683 C -0.51,0.096 -0.184,-0.234 0,0" /></g><g
           transform="translate(119.7842,83.4189)"
           id="g448"><path
             id="path450"
             style="fill:#231f20;fill-opacity:1;fill-rule:nonzero;stroke:none"
             d="m 0,0 c -1.027,0.58 -2.538,0.036 -2.727,-1.21 -0.194,-1.285 1.184,-2.216 2.335,-1.909 -0.087,0.113 -0.174,0.226 -0.261,0.34 -0.891,-1.177 -2.17,-1.903 -3.636,-2.066 -0.293,-0.033 -0.297,-0.496 0,-0.463 1.645,0.184 3.036,0.975 4.036,2.294 0.128,0.17 -0.083,0.389 -0.262,0.341 -0.889,-0.236 -2.021,0.554 -1.718,1.556 0.25,0.829 1.305,1.109 1.999,0.717 C 0.025,-0.547 0.26,-0.147 0,0" /></g><g
           transform="translate(116.6016,82.9053)"
           id="g452"><path
             id="path454"
             style="fill:#231f20;fill-opacity:1;fill-rule:nonzero;stroke:none"
             d="m 0,0 c 0.175,-2.173 0.35,-4.346 0.524,-6.52 0.025,-0.294 0.488,-0.296 0.464,0 C 0.813,-4.346 0.638,-2.173 0.463,0 0.439,0.295 -0.024,0.298 0,0" /></g><g
           transform="translate(168.4551,116.459)"
           id="g456"><path
             id="path458"
             style="fill:#cca06b;fill-opacity:1;fill-rule:nonzero;stroke:none"
             d="M 0,0 C 0.634,0.059 0.947,0.498 0.909,0.872 0.866,1.284 1.516,1.902 0.827,2.077 -0.231,2.347 0.667,1.4 0.354,1.098 0.136,0.887 0.134,0.452 0,0 m -11.892,17.316 c -0.927,0.029 -0.64,-0.736 -0.59,-1.116 0.088,-0.685 0.321,-1.381 0.638,-1.998 0.198,-0.384 0.247,-1.155 0.914,-0.995 0.854,0.203 1.893,0.193 2.461,0.941 0.651,0.856 -0.353,3.701 -1.352,4.176 -0.964,0.459 -2.114,-0.11 -2.082,-1.031 l 0.011,0.023 z m 11.693,-29.799 c 0.472,1.346 0.216,2.704 0.055,4.059 -0.252,0.758 0.566,1.433 0.228,2.302 -1.767,-3.11 -1.671,-7.393 0.171,-8.998 -0.154,0.897 -0.305,1.767 -0.454,2.637 m 9.254,8.793 c 2.367,-0.231 4.734,-0.462 7.102,-0.693 1.655,-0.246 3.311,-0.493 4.965,-0.74 0.556,-0.123 1.234,0.026 1.522,-0.689 0.043,-0.145 0.055,-0.31 0.134,-0.43 1.738,-2.634 1.709,-3.248 -0.274,-5.783 -0.165,-0.211 -0.482,-0.45 0.011,-0.662 l -0.007,-0.012 c -1.073,0.064 -1.509,-0.943 -2.29,-1.375 -0.945,-0.522 -1.73,-1.432 -3.131,-1.167 0.686,0.787 1.31,1.424 1.829,2.137 0.217,0.298 0.874,0.681 0.159,1.163 l -0.016,0.128 0.116,0.057 c 1.369,0.299 0.782,1.403 0.808,2.172 0.018,0.512 -0.284,1.104 -1.062,0.975 -1.742,-0.289 -3.513,-0.492 -5.121,-1.283 -1.163,-0.572 -2.284,-1.23 -3.468,-1.873 0.097,1.901 0.061,2.057 -0.725,3.046 0.372,-2.539 -0.367,-4.439 -2.745,-5.507 -0.462,-0.208 -0.87,-0.682 -0.101,-0.889 1.351,-0.364 2.643,-1 4.08,-1.024 1.277,0.412 1.487,0.223 1.348,-1.221 -0.523,-0.113 -0.86,-0.507 -1.246,-0.826 -3.445,-2.844 -7.901,-4.65 -12.1,-4.908 -0.066,-0.005 -0.153,-0.075 -0.188,-0.137 -0.86,-1.544 -2.172,-1.385 -3.56,-0.957 -0.232,0.071 -0.614,0.235 -0.689,0.149 -1.199,-1.365 -1.577,-0.286 -2.037,0.823 0.1,-2.059 -1.57,-1.776 -2.598,-2.307 -0.753,-0.39 -0.865,0.376 -1.41,0.796 0.198,-1.187 -0.485,-1.445 -1.293,-1.558 -0.68,-0.096 -1.368,-0.147 -2.044,-0.266 -1.016,-0.178 -1.282,0.372 -1.159,1.21 0.219,1.497 1.051,2.598 2.348,3.354 2.639,1.539 5.556,1.656 8.893,1.827 -0.995,-0.783 -1.656,-1.344 -2.042,-2.218 0.762,0 1.127,0.505 1.468,0.879 1.422,1.561 3.237,2.227 5.251,2.326 1.446,0.072 2.947,0.02 4.332,0.22 1.377,0.198 2.96,0.598 4.314,1.923 -1.273,-0.078 -2.238,0.016 -3.125,-0.457 -0.385,0.1 -0.769,0.201 -1.153,0.301 -0.407,0.429 -0.883,0.615 -1.468,0.422 0.024,-0.059 0.007,-0.105 -0.049,-0.135 -0.217,0.826 -1.057,0.873 -1.616,1.264 -0.088,0.061 -0.505,-0.045 -0.306,-0.311 0.98,-1.31 -0.462,-0.776 -0.692,-0.796 -3.763,-0.335 -6.111,1.413 -7.446,5.479 -0.174,0.529 -0.177,1.16 -1.178,1.497 0.672,-0.987 0.872,-1.844 1.149,-2.674 0.73,-2.187 3.01,-5.395 6.39,-5.012 0.839,0.095 1.544,-0.131 2.152,-0.688 -1.524,-0.774 -3.082,-0.379 -4.594,-0.376 -1.903,0.004 -3.942,2.059 -4.819,3.747 -0.587,1.13 -0.027,2.485 -1.016,3.4 -0.284,1.011 0.473,1.736 0.712,2.604 0.88,-1.097 0.586,0.79 1.164,0.459 0.103,0.587 -0.317,0.123 -0.466,0.225 -0.233,0.158 -0.362,0.366 -0.316,0.625 0.054,0.304 0.223,0.525 0.541,0.667 0.357,0.16 0.808,-0.209 1.108,0.22 -1.493,0.412 -1.792,0.945 -1.275,2.485 0.089,0.267 0.299,0.5 0.255,0.814 -0.239,1.729 0.36,3.356 0.607,5.026 0.193,-0.008 0.541,-0.06 0.553,-0.018 0.253,0.903 0.592,1.81 0.637,2.73 0.022,0.459 0.043,1.251 -0.749,1.44 -0.184,0.327 -0.174,0.65 0.018,0.969 0.876,0.402 0.177,1.182 0.417,1.736 L -6.131,8.567 C -6.159,8.75 -6.187,8.932 -6.215,9.114 -7.495,8.856 -8.351,7.515 -9.845,7.75 c -0.234,0.272 0.393,0.659 0.003,1.002 -3.585,-3.19 -5.811,-3.422 -8.781,-0.922 0.741,0.564 1.281,1.235 1.789,2.045 0.399,0.636 0.139,1.956 1.508,2.026 0.497,0.026 1.624,-0.031 1.419,0.904 -0.24,1.104 0.069,2.597 -1.497,3.098 l 0.021,-0.011 c -0.101,0.264 -0.318,0.544 -0.285,0.79 0.202,1.479 3.096,3.568 4.845,3.449 -0.63,-0.657 -1.837,-0.539 -2.009,-1.741 0.925,0.336 1.665,1.114 2.708,0.813 0.18,-0.052 0.382,0.125 0.346,0.379 -0.139,0.978 0.532,0.644 0.961,0.556 1.692,-0.348 2.879,-1.439 3.79,-2.816 1.728,-2.614 2.688,-5.528 3.211,-8.603 C -1.593,7.402 -0.941,6.618 0.322,5.896 0.578,5.751 0.788,5.51 0.987,5.285 2.79,3.249 4.849,1.265 2.399,-1.513 c 1.503,-1.333 2.176,0.088 3.08,0.804 0.095,-2.876 -1.66,-3.91 -4.122,-2.57 -0.869,0.473 -1.863,0.925 -1.231,2.285 0.085,0.182 0.292,0.683 -0.146,0.928 -1.007,-1.524 -0.966,-2.184 0.372,-3.184 0.752,-0.562 1.546,-1.079 2.383,-1.544 0.743,-0.414 1.404,-0.372 1.751,-0.028 0.87,0.86 1.77,1.233 2.994,1.198 C 8,-3.639 8.523,-4.258 9.055,-3.69" /></g><g
           transform="translate(161.4434,118.2148)"
           id="g460"><path
             id="path462"
             style="fill:#382b1f;fill-opacity:1;fill-rule:nonzero;stroke:none"
             d="m 0,0 c -0.247,-1.67 -0.847,-3.297 -0.607,-5.025 0.044,-0.315 -0.166,-0.548 -0.255,-0.815 -0.517,-1.54 -0.218,-2.073 1.275,-2.485 -0.301,-0.429 -0.751,-0.06 -1.108,-0.22 -0.319,-0.142 -0.488,-0.363 -0.541,-0.667 -0.046,-0.259 0.083,-0.467 0.316,-0.625 0.149,-0.101 0.568,0.362 0.466,-0.225 -0.578,0.332 -0.284,-1.556 -1.164,-0.459 -0.518,2.144 0.488,4.214 0.263,6.41 -2.277,-0.025 -4.6,-0.044 -6.923,-0.078 -0.468,-0.007 -0.96,-0.167 -1.291,0.332 2.18,0.484 4.408,0.095 6.599,0.353 0.6,0.07 1.501,-0.35 1.71,0.408 0.257,0.934 0.871,2.001 -0.071,2.952 -0.288,2.137 1.86,3.858 0.995,6.073 -1.843,-0.536 -3.748,-0.921 -5.603,-1.705 -3.022,-1.278 -6.291,0.338 -7.683,3.307 -0.338,0.721 -0.287,1.168 0.519,1.567 0.977,0.482 2.031,0.6 3.039,0.918 0.618,0.195 1.128,0.467 0.693,1.276 -0.473,0.88 -0.141,1.957 -0.786,2.854 -0.412,0.573 -0.107,1.382 0.623,1.616 1.47,0.468 0.543,0.825 0.005,1.235 0.049,0.12 0.097,0.239 0.146,0.358 0.429,0.076 1.588,-0.588 1.099,0.435 -0.677,1.412 -1.665,2.778 -2.984,3.986 -0.548,-1.967 0.543,-3.098 1.584,-4.248 l -0.234,-0.334 c -1.894,1.289 -2.021,3.336 -2.28,5.323 -0.039,0.302 -0.043,0.685 0.307,0.766 0.293,0.067 0.516,-0.19 0.71,-0.453 0.95,-1.289 1.927,-2.558 2.898,-3.831 0.181,-0.239 0.348,-0.5 0.57,-0.697 0.523,-0.46 4.39,0.983 4.501,1.687 0.466,2.951 2.202,4.987 4.638,6.541 0.401,0.256 0.77,0.545 1.223,0.188 0.415,-0.327 0.154,-0.762 0.041,-1.102 -0.251,-0.751 -0.419,-1.563 -1.086,-2.107 -0.704,0.676 0.71,1.263 0.083,1.936 -1.328,-0.339 -3.96,-3.237 -4.169,-4.579 -0.038,-0.238 -0.191,-0.541 0.125,-0.633 0.196,-0.058 0.523,0.027 0.674,0.171 0.649,0.615 0.944,1.462 1.511,2.573 -0.104,-1.09 0.151,-1.465 0.907,-0.921 C 0.729,20.743 -0.431,20.01 -0.826,18.809 2.048,17.44 3.446,14.826 4.449,11.926 5.093,10.064 5.45,8.12 5.966,6.23 6.482,4.339 8.98,4.029 9.876,2.239 c 0.532,-1.066 1.77,-1.76 1.235,-3.328 -0.2,-0.586 0.654,-0.972 1.331,-0.894 0.732,0.084 1.044,-0.401 0.855,-0.879 -0.607,-1.524 0.596,-1.597 1.439,-1.965 0.449,-0.195 1.02,-0.121 1.329,-0.619 -0.53,-0.568 -1.053,0.051 -1.573,0.066 -1.224,0.035 -2.124,-0.338 -2.994,-1.198 -0.348,-0.344 -1.009,-0.386 -1.751,0.028 -0.837,0.465 -1.631,0.983 -2.384,1.544 -1.338,1 -1.379,1.66 -0.371,3.184 C 7.43,-2.066 7.223,-2.568 7.138,-2.75 6.506,-4.109 7.5,-4.562 8.369,-5.035 c 2.462,-1.34 4.217,-0.306 4.122,2.57 C 11.587,-3.181 10.914,-4.602 9.411,-3.269 11.86,-0.491 9.802,1.493 7.999,3.529 7.8,3.754 7.59,3.995 7.334,4.141 6.07,4.862 5.419,5.646 5.195,6.963 c -0.522,3.075 -1.482,5.989 -3.211,8.603 -0.911,1.377 -2.097,2.468 -3.79,2.816 -0.428,0.088 -1.099,0.422 -0.961,-0.556 0.037,-0.254 -0.166,-0.431 -0.345,-0.379 -1.043,0.301 -1.784,-0.477 -2.708,-0.813 0.172,1.202 1.379,1.084 2.008,1.741 -1.749,0.119 -4.642,-1.97 -4.844,-3.449 -0.033,-0.246 0.183,-0.526 0.285,-0.789 -0.84,-0.604 -0.983,-2.109 -0.313,-3.066 0.523,-0.747 0.844,-0.187 1.446,0.323 -1.261,-0.243 -1.58,0.435 -1.479,1.23 0.083,0.64 0.566,-0.491 0.728,-0.158 0.209,0.792 -0.437,1.122 -0.404,1.681 1.567,-0.501 1.257,-1.994 1.497,-3.098 C -6.69,10.114 -7.817,10.171 -8.314,10.146 -9.684,10.075 -9.423,8.755 -9.822,8.119 -10.33,7.31 -10.87,6.638 -11.611,6.074 -8.642,3.574 -6.415,3.806 -2.83,6.996 -2.44,6.653 -3.067,6.266 -2.833,5.995 -1.339,5.759 -0.483,7.1 0.795,7.36 0.823,7.178 0.852,6.995 0.881,6.811 L 0.876,6.857 C -0.267,6.519 0.659,5.686 0.459,5.122 0.267,4.802 0.257,4.479 0.44,4.152 0.294,2.768 0.146,1.384 0,0" /></g><g
           transform="translate(173.7588,98.9717)"
           id="g464"><path
             id="path466"
             style="fill:#382b1f;fill-opacity:1;fill-rule:nonzero;stroke:none"
             d="m 0,0 c 0.888,0.474 1.853,0.379 3.125,0.457 -1.354,-1.325 -2.937,-1.725 -4.313,-1.923 -1.385,-0.2 -2.887,-0.147 -4.333,-0.22 -2.014,-0.099 -3.829,-0.765 -5.25,-2.326 -0.341,-0.374 -0.707,-0.879 -1.468,-0.879 0.385,0.874 1.047,1.435 2.042,2.218 -3.338,-0.171 -6.255,-0.288 -8.894,-1.827 -1.297,-0.756 -2.129,-1.856 -2.347,-3.354 -0.124,-0.837 0.142,-1.388 1.159,-1.209 0.675,0.119 1.363,0.169 2.044,0.265 0.807,0.113 1.49,0.371 1.293,1.559 0.545,-0.421 0.656,-1.187 1.41,-0.797 1.027,0.531 2.697,0.248 2.597,2.307 0.46,-1.109 0.838,-2.188 2.038,-0.823 0.075,0.086 0.457,-0.078 0.688,-0.149 1.389,-0.428 2.7,-0.587 3.561,0.957 0.035,0.062 0.122,0.133 0.187,0.138 4.199,0.257 8.655,2.063 12.101,4.908 C 6.025,-0.38 6.362,0.015 6.886,0.127 7.074,-0.6 6.463,-0.811 6.053,-1.129 1.01,-5.047 -4.831,-7.274 -11.048,-7.931 c -2.642,-0.279 -5.062,-1.054 -7.596,-1.538 -1.084,-0.206 -2.341,-0.76 -3.106,0.279 -0.765,1.039 -0.158,2.258 0.449,3.268 1.128,1.877 3.021,2.592 5.011,3.091 2.117,0.53 4.286,0.652 6.457,0.726 0.435,0.014 0.869,-0.065 1.244,0.263 -5.122,2.384 -7.028,4.894 -6.057,7.96 0.99,-0.915 0.429,-2.269 1.016,-3.399 0.877,-1.689 2.916,-3.743 4.819,-3.747 1.512,-0.003 3.071,-0.399 4.594,0.376 -0.607,0.556 -1.312,0.782 -2.152,0.687 -3.38,-0.383 -5.659,2.825 -6.39,5.012 -0.277,0.83 -0.476,1.687 -1.149,2.675 1.002,-0.337 1.005,-0.969 1.179,-1.497 1.334,-4.067 3.682,-5.815 7.445,-5.48 0.23,0.021 1.673,-0.514 0.692,0.796 -0.199,0.267 0.218,0.372 0.306,0.312 C -3.727,1.461 -2.887,1.414 -2.672,0.588 -3.137,0.456 -3.67,0.589 -4.073,0.223 -1.555,-1.206 -1.307,-1.22 0,0" /></g><g
           transform="translate(160.1123,118.0713)"
           id="g468"><path
             id="path470"
             style="fill:#cca06b;fill-opacity:1;fill-rule:nonzero;stroke:none"
             d="m 0,0 c 0.942,-0.951 0.328,-2.019 0.071,-2.952 -0.209,-0.759 -1.11,-0.338 -1.71,-0.408 -2.191,-0.258 -4.419,0.131 -6.599,-0.354 -0.122,0.06 -0.244,0.118 -0.366,0.177 -0.414,0.401 -1.626,0.291 -0.816,1.487 0.208,0.306 -0.147,1.471 -0.383,1.516 -0.966,0.184 0.003,-0.721 -0.389,-0.918 -0.2,-0.101 -0.467,-0.06 -0.702,-0.101 -0.277,-0.048 -0.652,0.46 -0.832,-0.143 l -0.03,0.019 c 0.026,0.536 0.251,1.386 0.109,1.55 -0.843,0.965 0.136,1.064 0.548,1.104 0.889,0.085 2.027,0.486 2.226,-1.073 0.036,-0.278 0.401,-0.713 0.939,-0.678 0.263,0.585 0.332,1.213 0.167,1.846 -0.112,0.433 -0.429,0.903 0.193,1.151 0.507,0.203 0.671,-0.336 0.875,-0.613 0.518,-0.701 0.852,-1.959 1.457,-2.09 1.328,-0.289 2.698,-0.869 4.129,-0.49 C -0.754,-0.633 -0.221,-0.496 0,0" /></g><g
           transform="translate(179.2959,100.3203)"
           id="g472"><path
             id="path474"
             style="fill:#382b1f;fill-opacity:1;fill-rule:nonzero;stroke:none"
             d="M 0,0 C -1.437,0.023 -2.729,0.659 -4.08,1.023 -4.849,1.23 -4.44,1.705 -3.979,1.913 -1.601,2.98 -0.862,4.881 -1.233,7.42 -0.448,6.431 -0.412,6.274 -0.509,4.374 0.675,5.017 1.796,5.675 2.959,6.247 4.567,7.038 6.338,7.24 8.08,7.529 8.858,7.658 9.16,7.066 9.143,6.555 9.116,5.786 9.703,4.682 8.334,4.383 9.011,6.229 8.382,6.958 6.335,6.612 3.104,6.066 0.497,4.249 -2.057,2.355 -2.364,2.127 -2.811,2 -2.903,1.538 -2.043,0.83 -0.543,1.319 0,0" /></g><g
           transform="translate(158.999,117.1016)"
           id="g476"><path
             id="path478"
             style="fill:#382b1f;fill-opacity:1;fill-rule:nonzero;stroke:none"
             d="M 0,0 C -1.431,-0.379 -2.801,0.201 -4.129,0.489 -4.733,0.621 -5.067,1.879 -5.586,2.58 -5.79,2.856 -5.954,3.396 -6.461,3.192 -7.083,2.944 -6.766,2.475 -6.653,2.042 -6.488,1.409 -6.558,0.78 -6.82,0.195 -7.358,0.161 -7.724,0.596 -7.76,0.874 c -0.199,1.559 -1.337,1.158 -2.225,1.072 -0.412,-0.04 -1.392,-0.138 -0.549,-1.103 0.142,-0.164 -0.083,-1.014 -0.109,-1.55 -1.281,0.507 -0.925,1.737 -0.837,2.559 0.089,0.835 1.141,0.715 1.903,0.728 0.96,0.016 2.205,-0.579 2.461,1.135 0.058,0.396 0.628,0.431 1.031,0.168 0.084,-0.055 0.197,-0.1 0.238,-0.18 C -4.613,1.336 -2.383,0.549 0,0" /></g><g
           transform="translate(162.1787,140.271)"
           id="g480"><path
             id="path482"
             style="fill:#cca06b;fill-opacity:1;fill-rule:nonzero;stroke:none"
             d="M 0,0 C -0.757,-0.544 -1.012,-0.169 -0.907,0.921 -1.475,-0.19 -1.77,-1.037 -2.418,-1.652 -2.569,-1.796 -2.896,-1.881 -3.093,-1.823 -3.408,-1.731 -3.255,-1.428 -3.218,-1.19 -3.009,0.152 -0.376,3.05 0.951,3.389 1.579,2.716 0.165,2.129 0.869,1.453 L 0.861,1.484 C 0.23,1.499 0.04,1.178 0.187,0.6 0.124,0.4 0.062,0.2 0,0" /></g><g
           transform="translate(187.5303,104.5176)"
           id="g484"><path
             id="path486"
             style="fill:#382b1f;fill-opacity:1;fill-rule:nonzero;stroke:none"
             d="m 0,0 c 0.715,-0.481 0.058,-0.864 -0.159,-1.162 -0.519,-0.714 -1.143,-1.351 -1.829,-2.138 1.401,-0.264 2.186,0.646 3.131,1.167 0.781,0.433 1.216,1.44 2.29,1.375 -1.404,-2.004 -3.608,-2.84 -5.668,-3.883 -0.252,-0.127 -0.536,-0.054 -0.678,0.154 -0.274,0.4 -0.026,0.777 0.202,1.094 C -1.864,-2.218 -0.723,-1.276 0,0" /></g><g
           transform="translate(148.3867,116.375)"
           id="g488"><path
             id="path490"
             style="fill:#382b1f;fill-opacity:1;fill-rule:nonzero;stroke:none"
             d="m 0,0 c 0.18,0.604 0.555,0.096 0.832,0.144 0.234,0.041 0.502,0 0.701,0.1 C 1.926,0.441 0.957,1.347 1.923,1.162 2.158,1.117 2.514,-0.048 2.306,-0.354 1.495,-1.55 2.708,-1.439 3.121,-1.841 1.347,-2.283 0.558,-1.818 0,0" /></g><g
           transform="translate(189.5771,111.3359)"
           id="g492"><path
             id="path494"
             style="fill:#382b1f;fill-opacity:1;fill-rule:nonzero;stroke:none"
             d="M 0,0 C -1.654,0.247 -3.31,0.494 -4.965,0.74 -3.2,1.229 -1.504,1.258 0,0" /></g><g
           transform="translate(162.3652,140.8711)"
           id="g496"><path
             id="path498"
             style="fill:#382b1f;fill-opacity:1;fill-rule:nonzero;stroke:none"
             d="M 0,0 C -0.146,0.578 0.044,0.899 0.675,0.884 0.646,0.439 0.433,0.136 0,0" /></g><g
           transform="translate(151.9141,135.2119)"
           id="g500"><path
             id="path502"
             style="fill:#382b1f;fill-opacity:1;fill-rule:nonzero;stroke:none"
             d="m 0,0 c -0.129,0.066 -0.259,0.131 -0.389,0.197 l 0.235,0.334 C -0.055,0.473 0.046,0.416 0.146,0.358 0.098,0.239 0.049,0.12 0,0" /></g><g
           transform="translate(156.5518,133.7524)"
           id="g504"><path
             id="path506"
             style="fill:#382b1f;fill-opacity:1;fill-rule:nonzero;stroke:none"
             d="M 0,0 C -0.031,0.92 1.118,1.489 2.082,1.03 3.081,0.555 4.085,-2.29 3.435,-3.146 2.866,-3.893 1.827,-3.883 0.974,-4.087 0.307,-4.246 0.258,-3.476 0.06,-3.091 c -0.318,0.616 -0.55,1.312 -0.639,1.998 -0.05,0.38 -0.337,1.144 0.591,1.115 -0.197,-0.936 0.112,-1.79 0.45,-2.631 0.135,-0.336 0.086,-0.927 0.671,-0.827 0.631,0.108 1.611,0.108 1.745,0.668 0.253,1.059 0.105,2.244 -0.755,3.086 C 1.346,1.08 0.652,0.495 0,0" /></g><g
           transform="translate(168.2559,103.9756)"
           id="g508"><path
             id="path510"
             style="fill:#382b1f;fill-opacity:1;fill-rule:nonzero;stroke:none"
             d="M 0,0 C 0.149,-0.869 0.3,-1.739 0.454,-2.637 -1.388,-1.031 -1.483,3.251 0.283,6.361 0.621,5.492 -0.196,4.817 0.056,4.06 -0.221,2.711 -0.597,1.362 0,0" /></g><g
           transform="translate(173.7588,98.9717)"
           id="g512"><path
             id="path514"
             style="fill:#fcfdfc;fill-opacity:1;fill-rule:nonzero;stroke:none"
             d="m 0,0 c -1.307,-1.22 -1.555,-1.206 -4.073,0.223 0.403,0.366 0.936,0.233 1.401,0.365 0.059,0.03 0.075,0.076 0.051,0.136 C -2.24,0.082 -2.066,0.032 -1.152,0.302 -0.769,0.201 -0.385,0.101 0,0" /></g><g
           transform="translate(161.4434,118.2148)"
           id="g516"><path
             id="path518"
             style="fill:#fcfdfc;fill-opacity:1;fill-rule:nonzero;stroke:none"
             d="M 0,0 C 0.146,1.384 0.294,2.768 0.44,4.152 1.232,3.963 1.212,3.171 1.189,2.712 1.145,1.792 0.806,0.885 0.553,-0.018 0.541,-0.06 0.192,-0.008 0,0" /></g><g
           transform="translate(168.2559,103.9756)"
           id="g520"><path
             id="path522"
             style="fill:#fcfdfc;fill-opacity:1;fill-rule:nonzero;stroke:none"
             d="M 0,0 C -0.597,1.362 -0.221,2.711 0.056,4.06 0.216,2.704 0.473,1.347 0,0" /></g><g
           transform="translate(168.4551,116.459)"
           id="g524"><path
             id="path526"
             style="fill:#382b1f;fill-opacity:1;fill-rule:nonzero;stroke:none"
             d="M 0,0 C 0.134,0.452 0.136,0.887 0.354,1.098 0.667,1.4 -0.231,2.347 0.827,2.077 1.516,1.902 0.866,1.284 0.909,0.872 0.947,0.498 0.634,0.059 0,0" /></g><g
           transform="translate(161.9023,123.3364)"
           id="g528"><path
             id="path530"
             style="fill:#fcfdfc;fill-opacity:1;fill-rule:nonzero;stroke:none"
             d="M 0,0 C 0.2,0.564 -0.726,1.397 0.417,1.735 0.177,1.181 0.876,0.401 0,0" /></g><g
           transform="translate(172.6064,99.2734)"
           id="g532"><path
             id="path534"
             style="fill:#382b1f;fill-opacity:1;fill-rule:nonzero;stroke:none"
             d="M 0,0 C -0.914,-0.27 -1.088,-0.22 -1.469,0.422 -0.884,0.614 -0.407,0.429 0,0" /></g><g
           transform="translate(162.3242,125.0259)"
           id="g536"><path
             id="path538"
             style="fill:#fcfdfc;fill-opacity:1;fill-rule:nonzero;stroke:none"
             d="M 0,0 C -0.029,0.184 -0.058,0.367 -0.086,0.549 -0.056,0.365 -0.028,0.183 0,0" /></g><g
           transform="translate(152.0605,135.5703)"
           id="g540"><path
             id="path542"
             style="fill:#cca06b;fill-opacity:1;fill-rule:nonzero;stroke:none"
             d="M 0,0 C -0.101,0.058 -0.201,0.115 -0.301,0.173 -1.342,1.323 -2.434,2.453 -1.885,4.42 -0.566,3.212 0.422,1.847 1.099,0.435 1.588,-0.588 0.429,0.076 0,0" /></g><g
           transform="translate(153.0508,132.3623)"
           id="g544"><path
             id="path546"
             style="fill:#fcfdfc;fill-opacity:1;fill-rule:nonzero;stroke:none"
             d="m 0,0 c -0.033,-0.56 0.612,-0.889 0.403,-1.681 -0.162,-0.333 -0.644,0.797 -0.727,0.158 -0.102,-0.795 0.218,-1.473 1.478,-1.23 -0.601,-0.511 -0.923,-1.07 -1.445,-0.323 -0.67,0.956 -0.527,2.461 0.312,3.065 C 0.021,-0.012 0,0 0,0" /></g><g
           transform="translate(157.835,133.5024)"
           id="g548"><path
             id="path550"
             style="fill:#fcfdfc;fill-opacity:1;fill-rule:nonzero;stroke:none"
             d="M 0,0 C -0.468,-1.018 -0.356,-1.625 0.29,-2.097 0.604,-2.325 0.877,-2.169 1.011,-1.869 1.509,-0.749 0.05,-0.997 0,0 M -1.283,0.25 C -0.631,0.745 0.062,1.33 0.84,0.568 1.7,-0.274 1.848,-1.459 1.595,-2.518 1.461,-3.078 0.48,-3.078 -0.15,-3.186 c -0.585,-0.1 -0.537,0.491 -0.671,0.827 -0.338,0.841 -0.647,1.695 -0.45,2.631 L -1.283,0.25 Z" /></g><g
           transform="translate(157.835,133.5024)"
           id="g552"><path
             id="path554"
             style="fill:#382b1f;fill-opacity:1;fill-rule:nonzero;stroke:none"
             d="M 0,0 C 0.05,-0.997 1.509,-0.749 1.011,-1.869 0.877,-2.169 0.604,-2.325 0.29,-2.097 -0.356,-1.625 -0.468,-1.018 0,0" /></g><g
           transform="translate(149.3027,136.937)"
           id="g556"><path
             id="path558"
             style="fill:#2c2c2d;fill-opacity:1;fill-rule:nonzero;stroke:none"
             d="M 0,0 C -0.017,0.186 -0.087,0.328 -0.284,0.332 -0.454,0.335 -0.387,0.194 -0.39,0.101 -0.395,-0.104 -0.292,-0.206 -0.064,-0.228 0.054,-0.219 0.009,-0.099 0,0 m 9.854,0.149 c 0.204,0.027 0.251,0.194 0.212,0.379 C 10.029,0.703 9.948,0.853 9.737,0.81 9.553,0.772 9.557,0.645 9.612,0.5 9.642,0.34 9.604,0.117 9.854,0.149 M 0.11,-1.222 c 0.043,0.397 -0.264,0.323 -0.424,0.385 -0.206,0.079 -0.155,-0.165 -0.172,-0.278 -0.106,-0.694 -0.03,-1.361 0.332,-1.972 0.106,-0.178 0.21,-0.37 0.508,-0.461 -0.293,0.81 -0.327,1.568 -0.244,2.326 m 10.508,3.803 c 0.565,0.286 1.124,0.248 1.7,0.218 0.207,-0.01 0.41,-0.007 0.608,0.034 0.123,0.025 0.275,0.085 0.273,0.245 C 13.196,3.226 13.071,3.332 12.941,3.364 12.7,3.424 12.451,3.499 12.208,3.491 11.262,3.461 10.405,3.815 9.55,4.182 9.373,4.257 9.189,4.319 9.021,4.414 8.81,4.533 8.771,4.45 8.779,4.237 8.807,3.459 8.693,2.707 8.341,1.943 9.179,2.048 9.934,2.233 10.618,2.581 M 1.567,0.176 C 1.684,0 1.82,-0.02 2.016,0.103 2.844,0.621 3.341,1.751 3.183,2.801 3.163,2.925 3.116,2.983 3.008,3.034 2.642,3.208 2.326,3.466 2.056,3.777 1.925,3.928 1.854,3.921 1.718,3.781 1.384,3.438 1.118,3.011 0.654,2.816 0.426,2.721 0.577,2.495 0.562,2.302 0.76,1.533 1.13,0.836 1.567,0.176 M 5.064,0.243 C 6.399,0.282 7.702,0.538 9.002,0.815 9.227,0.863 9.435,0.994 9.659,1.053 10.024,1.15 10.299,0.979 10.365,0.642 10.433,0.301 10.215,-0.055 9.897,-0.13 8.378,-0.492 6.855,-0.837 5.289,-0.92 3.845,-0.997 2.401,-1.015 0.968,-0.721 c -0.195,0.04 -0.195,0.038 -0.481,-0.127 0.708,-0.27 1.409,-0.386 2.114,-0.451 2.314,-0.211 4.568,0.138 6.789,0.77 0.533,0.152 1.074,0.272 1.579,0.524 0.208,0.104 0.272,0.225 0.237,0.465 C 11.138,0.936 11.089,1.415 11.049,1.895 11.026,2.15 10.972,2.236 10.697,2.162 8.491,1.564 6.258,1.11 3.966,1.097 3.321,1.093 2.997,0.766 2.751,0.185 3.534,0.118 4.298,0.221 5.064,0.243 M -2.392,4.458 C -2.478,4.363 -2.377,4.22 -2.334,4.113 -2.047,3.406 -1.646,2.79 -1.037,2.343 -0.952,2.281 -0.876,2.207 -0.763,2.242 -0.672,2.166 -0.592,2.066 -0.489,2.019 -0.215,1.893 0.092,1.566 0.338,1.736 0.524,1.864 0.281,2.252 0.247,2.527 0.219,2.76 0.214,2.946 0.468,3.1 0.908,3.368 1.29,3.73 1.628,4.138 1.801,4.348 1.969,4.39 2.159,4.127 2.416,3.773 2.789,3.564 3.149,3.363 3.428,3.208 3.513,3.002 3.526,2.697 3.543,2.337 3.507,1.983 3.453,1.635 3.419,1.414 3.423,1.321 3.666,1.328 4.955,1.366 6.229,1.536 7.501,1.723 7.76,1.761 7.921,1.896 8.039,2.124 8.394,2.807 8.475,3.554 8.478,4.321 8.478,4.518 8.395,4.576 8.23,4.519 7.738,4.348 7.219,4.329 6.714,4.318 6.005,4.303 5.313,4.533 4.624,4.712 3.854,4.913 3.125,5.241 2.4,5.579 2.262,5.644 2.126,5.702 1.98,5.623 0.734,4.942 -0.62,4.657 -1.996,4.45 -2.128,4.542 -2.285,4.576 -2.392,4.458 M -0.42,1.502 C -0.575,1.286 -0.378,0.686 -0.124,0.572 0.018,0.543 0.158,0.498 0.302,0.489 0.495,0.477 0.725,0.275 0.874,0.523 0.961,0.668 0.592,1.284 0.403,1.33 0.194,1.38 -0.002,1.516 -0.229,1.464 -0.291,1.491 -0.362,1.582 -0.42,1.502 m 2.235,-5.996 c -1.759,0.093 -2.82,1.305 -2.562,3.067 0.122,0.833 0.172,1.641 0.071,2.471 -0.011,0.092 -0.014,0.189 0.001,0.279 0.048,0.286 -0.087,0.449 -0.3,0.605 -0.767,0.564 -1.362,1.279 -1.648,2.241 -0.159,0.533 -0.128,0.603 0.387,0.618 1.441,0.042 2.8,0.388 4.049,1.148 C 2.031,6.066 2.217,6.04 2.432,5.939 3.156,5.6 3.896,5.3 4.651,5.05 5.669,4.713 6.712,4.464 7.756,4.765 8.35,4.936 8.85,4.86 9.384,4.58 10.31,4.095 11.269,3.734 12.322,3.759 12.641,3.766 12.961,3.677 13.256,3.53 13.658,3.331 13.685,3.045 13.334,2.76 13.204,2.655 13.059,2.597 12.896,2.571 12.49,2.504 12.078,2.452 11.673,2.52 11.322,2.579 11.291,2.433 11.326,2.125 11.395,1.523 11.417,0.917 11.492,0.317 11.529,0.015 11.446,-0.12 11.179,-0.226 10.676,-0.426 10.175,-0.624 9.647,-0.744 9.241,-0.836 8.8,-0.88 8.528,-1.257 8.246,-1.649 7.894,-1.957 7.559,-2.286 6.296,-3.527 4.804,-4.254 2.894,-4.489 2.663,-4.537 2.238,-4.516 1.815,-4.494" /></g><g
           transform="translate(148.54,139.1787)"
           id="g560"><path
             id="path562"
             style="fill:#23408c;fill-opacity:1;fill-rule:nonzero;stroke:none"
             d="M 0,0 C 0.091,-0.076 0.171,-0.176 0.273,-0.223 0.548,-0.349 0.854,-0.676 1.101,-0.506 1.287,-0.378 1.044,0.011 1.01,0.286 0.981,0.518 0.977,0.704 1.23,0.858 1.671,1.126 2.053,1.488 2.391,1.896 2.563,2.106 2.731,2.148 2.922,1.885 3.179,1.531 3.552,1.323 3.912,1.122 4.19,0.966 4.275,0.761 4.289,0.455 4.306,0.096 4.27,-0.258 4.216,-0.606 4.182,-0.828 4.186,-0.92 4.429,-0.914 c 1.289,0.039 2.562,0.208 3.835,0.395 0.258,0.039 0.42,0.174 0.538,0.401 C 9.156,0.565 9.237,1.312 9.24,2.08 9.24,2.276 9.157,2.334 8.993,2.277 8.501,2.106 7.981,2.087 7.477,2.076 6.768,2.061 6.076,2.291 5.387,2.47 4.617,2.671 3.888,3 3.163,3.337 3.024,3.402 2.889,3.46 2.743,3.381 1.497,2.7 0.143,2.416 -1.233,2.208 -1.242,2.001 -1.152,1.826 -1.067,1.65 -0.777,1.053 -0.372,0.539 0,0" /></g><g
           transform="translate(152.0537,137.1216)"
           id="g564"><path
             id="path566"
             style="fill:#23408c;fill-opacity:1;fill-rule:nonzero;stroke:none"
             d="M 0,0 C 0.783,-0.067 1.547,0.036 2.313,0.059 3.648,0.098 4.951,0.354 6.251,0.631 6.476,0.679 6.684,0.809 6.908,0.869 7.273,0.966 7.548,0.795 7.614,0.457 7.682,0.116 7.464,-0.24 7.146,-0.315 5.627,-0.676 4.104,-1.022 2.538,-1.105 1.094,-1.181 -0.35,-1.2 -1.783,-0.906 c -0.195,0.04 -0.195,0.039 -0.481,-0.126 0.708,-0.27 1.41,-0.387 2.114,-0.451 2.314,-0.211 4.568,0.138 6.789,0.77 0.533,0.151 1.074,0.272 1.579,0.524 C 8.426,-0.086 8.49,0.035 8.455,0.275 8.387,0.751 8.338,1.23 8.298,1.71 8.275,1.965 8.221,2.051 7.946,1.977 5.74,1.379 3.507,0.925 1.215,0.912 0.57,0.908 0.246,0.582 0,0" /></g><g
           transform="translate(149.8643,139.2393)"
           id="g568"><path
             id="path570"
             style="fill:#fff100;fill-opacity:1;fill-rule:nonzero;stroke:none"
             d="M 0,0 C 0.198,-0.769 0.568,-1.466 1.006,-2.126 1.122,-2.302 1.259,-2.322 1.454,-2.199 2.282,-1.682 2.779,-0.551 2.621,0.499 2.602,0.623 2.555,0.681 2.446,0.732 2.08,0.906 1.765,1.164 1.494,1.475 1.363,1.626 1.292,1.619 1.156,1.479 0.822,1.135 0.557,0.708 0.093,0.514 -0.136,0.418 0.016,0.192 0,0" /></g><g
           transform="translate(157.6436,138.8804)"
           id="g572"><path
             id="path574"
             style="fill:#23408c;fill-opacity:1;fill-rule:nonzero;stroke:none"
             d="M 0,0 C 0.838,0.105 1.593,0.29 2.277,0.637 2.842,0.923 3.401,0.886 3.978,0.856 4.185,0.845 4.387,0.848 4.585,0.89 4.708,0.915 4.86,0.975 4.858,1.135 4.855,1.282 4.73,1.388 4.601,1.42 4.359,1.48 4.11,1.555 3.867,1.547 2.921,1.518 2.064,1.872 1.209,2.238 1.032,2.313 0.849,2.375 0.681,2.47 0.469,2.59 0.431,2.506 0.438,2.294 0.466,1.516 0.353,0.764 0,0" /></g><g
           transform="translate(149.6572,133.3887)"
           id="g576"><path
             id="path578"
             style="fill:#ffffff;fill-opacity:1;fill-rule:nonzero;stroke:none"
             d="M 0,0 C -0.294,0.811 -0.327,1.568 -0.244,2.327 -0.201,2.724 -0.509,2.649 -0.669,2.711 -0.874,2.79 -0.823,2.546 -0.841,2.433 -0.946,1.74 -0.87,1.073 -0.509,0.461 -0.402,0.284 -0.299,0.091 0,0" /></g><g
           transform="translate(148.54,139.1787)"
           id="g580"><path
             id="path582"
             style="fill:#ffffff;fill-opacity:1;fill-rule:nonzero;stroke:none"
             d="M 0,0 C -0.372,0.539 -0.777,1.053 -1.067,1.65 -1.152,1.826 -1.242,2.001 -1.233,2.208 -1.365,2.3 -1.522,2.334 -1.629,2.216 -1.715,2.122 -1.614,1.979 -1.571,1.872 -1.284,1.165 -0.883,0.548 -0.274,0.102 -0.189,0.04 -0.113,-0.035 0,0" /></g><g
           transform="translate(149.1787,137.5093)"
           id="g584"><path
             id="path586"
             style="fill:#23408c;fill-opacity:1;fill-rule:nonzero;stroke:none"
             d="M 0,0 C 0.142,-0.029 0.282,-0.074 0.426,-0.083 0.619,-0.096 0.849,-0.297 0.998,-0.049 1.085,0.096 0.716,0.712 0.527,0.757 0.318,0.808 0.122,0.943 -0.104,0.892 -0.07,0.594 -0.035,0.297 0,0" /></g><g
           transform="translate(158.915,137.4365)"
           id="g588"><path
             id="path590"
             style="fill:#ffffff;fill-opacity:1;fill-rule:nonzero;stroke:none"
             d="M 0,0 C 0.029,-0.16 -0.008,-0.383 0.242,-0.35 0.445,-0.323 0.493,-0.156 0.454,0.029 0.417,0.203 0.336,0.353 0.125,0.31 -0.06,0.272 -0.056,0.146 0,0" /></g><g
           transform="translate(149.1787,137.5093)"
           id="g592"><path
             id="path594"
             style="fill:#ffffff;fill-opacity:1;fill-rule:nonzero;stroke:none"
             d="M 0,0 C -0.035,0.297 -0.07,0.594 -0.104,0.892 -0.167,0.918 -0.238,1.01 -0.296,0.93 -0.451,0.713 -0.254,0.114 0,0" /></g><g
           transform="translate(149.2383,136.7095)"
           id="g596"><path
             id="path598"
             style="fill:#ffffff;fill-opacity:1;fill-rule:nonzero;stroke:none"
             d="M 0,0 C 0.118,0.009 0.073,0.128 0.064,0.228 0.048,0.413 -0.022,0.555 -0.22,0.56 -0.39,0.563 -0.322,0.422 -0.325,0.328 -0.33,0.124 -0.228,0.021 0,0" /></g><g
           transform="translate(157.626,138.0591)"
           id="g600"><path
             id="path602"
             style="fill:#cca06b;fill-opacity:1;fill-rule:nonzero;stroke:none"
             d="M 0,0 C 0,0 4.657,6.318 5.856,6.523 7.056,6.728 2.853,-1.411 2.853,-1.411 L 0,0 Z" /></g><g
           transform="translate(157.626,138.0591)"
           id="g604"><path
             id="path606"
             style="fill:none;stroke:#231f20;stroke-width:0.182;stroke-linecap:butt;stroke-linejoin:miter;stroke-miterlimit:10;stroke-dasharray:none;stroke-opacity:1"
             d="M 0,0 C 0,0 4.657,6.318 5.856,6.523 7.056,6.728 2.853,-1.411 2.853,-1.411 L 0,0 Z" /></g></g></g><g
       id="text608"
       style="font-variant:normal;font-weight:normal;font-stretch:normal;font-size:20.00006866px;font-family:'Museo 500';-inkscape-font-specification:Museo-500;writing-mode:lr-tb;fill:#231f20;fill-opacity:1;fill-rule:nonzero;stroke:none"
       transform="matrix(0.9513867,0.30799893,0.30799893,-0.9513867,119.6821,42.1361)"><path
         id="path613"
         style=""
         d="M 0.76000261,0 2.7800095,0 c 0.9000031,0 1.2800044,-0.3800013 1.2800044,-1.2800044 l 0,-7.6600263 c 0,-0.7800027 -0.1200004,-1.9200063 -0.1200004,-1.9200063 l 0.04,0 c 0,0 0.6400022,1.1600037 1.1600039,1.9200063 L 11.440039,0 l 1.800006,0 0,-11.960041 c 0,-0.300001 0.160001,-0.440002 0.440002,-0.440002 l 0.860003,0 0,-1.720005 -2.000007,0 c -0.920003,0 -1.300004,0.380001 -1.300004,1.280004 l 0,7.6600262 c 0,0.8000028 0.14,1.9200066 0.14,1.9200066 l -0.04,0 c 0,0 -0.660002,-1.160004 -1.180004,-1.9200066 l -6.2800217,-8.9400302 -1.8200062,0 0,11.9600406 c 0,0.2800009 -0.1600006,0.4400015 -0.4400015,0.4400015 l -0.86000299,0 0,1.7200059 z" /><path
         id="path615"
         style=""
         d="m 15.920055,-5.0600174 c 0,3.0000103 2.180007,5.30001822 5.380018,5.30001822 2.400008,0 3.900014,-1.48000512 3.900014,-1.48000512 L 24.360084,-2.620009 c 0,0 -1.220004,1.1800041 -2.96001,1.1800041 -1.800007,0 -3.360012,-1.2200042 -3.480012,-3.3800116 l 7.380025,0 c 0,0 0.06,-0.5400019 0.06,-0.8000028 0,-2.620009 -1.520005,-4.7400167 -4.360015,-4.7400167 -2.88001,0 -5.080017,2.0800076 -5.080017,5.3000186 z m 2.080007,-1.180004 c 0.300001,-1.6800058 1.500005,-2.5800089 2.98001,-2.5800089 1.260004,0 2.320008,0.9000031 2.380008,2.5800089 l -5.360018,0 z" /><path
         id="path617"
         style=""
         d="m 26.980094,-5.0600174 c 0,3.1400108 1.720006,5.30001822 4.460015,5.30001822 2.480009,0 3.320012,-1.84000632 3.320012,-1.84000632 l 0.04,0 c 0,0 -0.02,0.2200008 -0.02,0.5200018 C 34.780121,-0.40000137 35.140122,0 36.020125,0 l 1.860006,0 0,-1.6600057 -0.820003,0 c -0.28,0 -0.440001,-0.1400005 -0.440001,-0.4400015 l 0,-10.7400368 c 0,-0.900003 -0.380001,-1.280004 -1.280004,-1.280004 l -1.920007,0 0,1.660005 0.820003,0 c 0.280001,0 0.440001,0.140001 0.440001,0.440002 l 0,2.5400085 c 0,0.3800013 0.04,0.6800023 0.04,0.6800023 l -0.04,0 c 0,0 -0.780002,-1.5600058 -3.12001,-1.5600058 -2.68001,0 -4.580016,2.0800076 -4.580016,5.3000186 z m 4.840016,3.6200125 c -1.680005,0 -2.860009,-1.4200049 -2.860009,-3.6200125 0,-2.3000079 1.320004,-3.6200124 2.90001,-3.6200124 1.940006,0 2.88001,1.8000062 2.88001,3.6000124 0,2.5800088 -1.420005,3.6400125 -2.920011,3.6400125 z" /></g></g></svg>