<svg width="20" height="29" viewBox="0 0 20 29" fill="none" xmlns="http://www.w3.org/2000/svg">
<path d="M19.2 9.86246C19.2 9.42559 18.8474 9.07264 18.4136 9.07264C17.9786 9.07264 17.6271 9.42677 17.6271 9.86246C17.6271 9.95046 17.6257 14.4776 17.6229 14.5649C17.4842 18.8882 13.9384 22.3631 9.60062 22.3631C5.26326 22.3619 1.71985 18.8921 1.57731 14.5724C1.57435 14.4826 1.57286 9.95298 1.57286 9.86246C1.57286 9.42559 1.22025 9.07264 0.786429 9.07264C0.35143 9.07264 0 9.42677 0 9.86246C0 9.95293 0.00124717 14.4826 0.00372513 14.5724C0.139588 19.4999 3.97539 23.5118 8.81289 23.9086V26.2257H6.15919C4.87597 26.2257 4.33746 26.9151 4.11147 27.4937C3.95074 27.9053 4.30623 28.2726 4.74805 28.2726H14.402C14.8661 28.2726 15.2262 27.8704 15.0321 27.4488C14.7703 26.8801 14.2143 26.2257 13.042 26.2257H10.3883L10.3859 23.9074C15.227 23.5116 19.0643 19.4946 19.1965 14.5649C19.1988 14.4775 19.2 9.95041 19.2 9.86246Z" fill="#39489E"/>
<path d="M9.6 21.0726C13.5702 21.0726 16.8 17.9391 16.8 14.0883V7.25819C16.8 3.40623 13.5702 0.272644 9.6 0.272644C5.62978 0.272644 2.4 3.40623 2.4 7.25819V14.0883C2.4 17.9391 5.62978 21.0726 9.6 21.0726Z" fill="#AFB9F0"/>
<path d="M11.2 7.07264C11.2 6.85173 11.3791 6.67264 11.6 6.67264H16.8V8.27264H11.6C11.3791 8.27264 11.2 8.09356 11.2 7.87264V7.07264Z" fill="#6174E3"/>
<path d="M8 7.07264C8 6.85173 7.82091 6.67264 7.6 6.67264H2.4V8.27264H7.6C7.82091 8.27264 8 8.09356 8 7.87264V7.07264Z" fill="#6174E3"/>
<path d="M11.2 10.2726C11.2 10.0517 11.3791 9.87264 11.6 9.87264H16.8V11.4726H11.6C11.3791 11.4726 11.2 11.2936 11.2 11.0726V10.2726Z" fill="#6174E3"/>
<path d="M8 10.2726C8 10.0517 7.82091 9.87264 7.6 9.87264H2.4V11.4726H7.6C7.82091 11.4726 8 11.2936 8 11.0726V10.2726Z" fill="#6174E3"/>
<path d="M11.2 13.4726C11.2 13.2517 11.3791 13.0726 11.6 13.0726H16.8V14.6726H11.6C11.3791 14.6726 11.2 14.4936 11.2 14.2726V13.4726Z" fill="#6174E3"/>
<path d="M8 13.4726C8 13.2517 7.82091 13.0726 7.6 13.0726H2.4V14.6726H7.6C7.82091 14.6726 8 14.4936 8 14.2726V13.4726Z" fill="#6174E3"/>
</svg>
